<svg width="127" height="206" viewBox="0 0 127 206" fill="none" xmlns="http://www.w3.org/2000/svg">
<path d="M59.3622 116.503C59.4452 116.705 59.4588 116.878 59.4704 117.027L61.3816 116.969C61.1199 116.708 60.8784 116.427 60.656 116.127L59.3622 116.503Z" fill="currentColor"/>
<path fill-rule="evenodd" clip-rule="evenodd" d="M60.554 92.3518C60.9537 89.5923 61.3013 87.1925 61.3734 85.5637L60.8507 83.4675C60.8296 85.8122 60.3395 89.0214 59.799 92.5603C58.521 100.929 56.9615 111.141 60.656 116.127L61.6347 115.842C57.6722 112.249 59.3497 100.667 60.554 92.3518ZM125.601 151.807C125.61 151.81 125.62 151.813 125.629 151.816C125.689 151.834 125.749 151.853 125.81 151.871C125.74 151.85 125.671 151.829 125.601 151.807ZM118.152 172.769L118.15 172.766L118.149 172.768L118.152 172.769ZM112.878 198.762L112.877 198.764L112.88 198.762H112.878Z" fill="currentColor"/>
<path fill-rule="evenodd" clip-rule="evenodd" d="M87.0878 24.3747C88.0832 18.5268 85.0574 11.3864 81.0949 7.14598H81.0913C79.1759 5.09644 76.0675 2.88041 73.51 1.73047C59.7035 -4.47443 49.0354 7.05374 46.2372 19.7031C45.9191 21.1404 45.7166 22.6103 45.514 24.0807C45.1356 26.8284 44.7569 29.5779 43.6223 32.1201C43.3096 32.1773 43.0276 32.073 42.7376 31.9656C42.5422 31.8933 42.3432 31.8196 42.1286 31.7931C41.2829 31.6877 40.4516 31.7523 39.7472 32.259C39.1435 32.6939 36.1633 36.8528 36.0028 37.4985C35.9683 37.6382 35.9763 37.8498 35.9836 38.042C35.991 38.2369 35.9976 38.412 35.9584 38.4723C35.943 38.4955 35.7835 38.5655 35.5804 38.6546C35.2798 38.7865 34.8835 38.9603 34.7163 39.0868C33.8437 39.7481 33.1027 40.6682 32.3784 41.5676C31.8668 42.2029 31.3635 42.8278 30.828 43.344C29.9096 44.2301 28.7739 45.0351 27.6116 45.859C26.4486 46.6834 25.2589 47.5266 24.2338 48.4888C14.0928 58.0106 8.35862 72.1201 6.18332 85.6595L6.1699 85.7429C4.86793 93.8412 3.45824 102.61 4.86806 110.741C5.13998 112.305 5.62152 114.49 6.28513 115.913C6.37333 116.102 6.54963 116.364 6.72593 116.626C6.95666 116.969 7.18738 117.313 7.22066 117.493C7.34943 118.184 7.30346 119.157 7.25834 120.112C7.22581 120.8 7.19372 121.479 7.22784 122.037C7.38476 124.622 7.91182 128.906 8.9312 131.234C9.03112 131.462 9.23254 131.804 9.44582 132.165C9.79247 132.752 10.1705 133.392 10.1949 133.686C10.2328 134.136 10.1922 134.7 10.1507 135.277C10.1107 135.834 10.0697 136.403 10.0967 136.898C10.226 139.254 10.8324 141.49 11.4402 143.732C11.7561 144.897 12.0724 146.064 12.3223 147.25C12.5288 148.23 12.705 149.207 12.8805 150.181C13.3728 152.913 13.8593 155.612 14.9924 158.235C15.4499 159.296 16.0491 160.284 16.6482 161.272C17.205 162.19 17.7619 163.108 18.205 164.084C16.2561 166.981 13.4795 169.307 10.6897 171.381C9.91435 171.957 9.07043 172.525 8.20868 173.106C4.10171 175.873 -0.419377 178.92 0.0538811 184.432C0.0875989 184.828 0.223016 185.324 0.355028 185.808C0.499717 186.337 0.640315 186.852 0.638436 187.204C0.636016 187.63 0.482375 188.039 0.326439 188.454C0.0191597 189.272 -0.297028 190.114 0.517451 191.155C0.657512 191.334 1.03181 191.585 1.29384 191.761C1.44191 191.86 1.55413 191.935 1.56797 191.96C1.60778 192.03 1.61111 192.163 1.61466 192.305C1.61774 192.427 1.621 192.557 1.64823 192.659C1.93811 193.74 2.35496 194.722 3.68099 194.559C4.40783 194.471 4.71467 194.02 5.05252 193.524C5.1679 193.355 5.28689 193.18 5.42747 193.013C5.87666 195.292 9.27618 196.144 10.2225 193.851C11.7318 194.662 13.6484 194.082 13.5753 192.173C14.8199 192.42 16.5292 192.451 16.9676 190.956C17.2902 189.854 16.5939 189.03 15.906 188.216C15.1765 187.353 14.4566 186.501 14.972 185.342C17.7314 185.536 20.4195 185.04 23.107 184.544C24.3452 184.315 25.5836 184.087 26.8284 183.926C29.6613 183.559 32.0941 183.459 34.9414 183.803C34.9693 183.807 35.0042 183.811 35.045 183.816C35.5251 183.872 36.8172 184.023 36.9431 184.226C37.0529 184.754 37.1437 185.291 37.2348 185.831C37.4349 187.015 37.6365 188.207 38.0439 189.326C38.0556 189.358 38.0669 189.389 38.0781 189.42C38.2509 189.9 38.3757 190.246 38.9686 190.259L38.7446 190.78C38.9135 191.197 40.4875 191.417 40.9463 191.453C42.1554 191.548 43.3384 191.545 44.5205 191.541C46.2824 191.535 48.0434 191.53 49.8907 191.852C53.3625 192.456 57.0431 193.527 60.7014 194.592C63.2771 195.342 65.8418 196.088 68.3149 196.666C72.7075 197.693 77.1899 198.656 81.6471 199.265C81.8851 199.441 82.126 199.62 82.37 199.803C84.8535 201.657 87.6533 203.747 90.8862 203.423C91.0302 203.409 91.161 203.359 91.2937 203.308C91.4955 203.231 91.7017 203.152 91.9654 203.194C92.2811 203.245 93.0187 203.708 93.7497 204.168C94.3337 204.534 94.9134 204.899 95.2703 205.047C97.0957 205.809 98.6284 205.343 100.384 204.809L100.397 204.805C100.468 204.783 100.54 204.761 100.612 204.74C100.697 204.714 100.784 204.688 100.87 204.662C105.306 203.339 111.536 201.111 115.336 198.524C116.264 197.89 116.992 196.817 117.652 195.842C117.772 195.665 117.889 195.492 118.006 195.324C120.472 191.779 123.118 187.144 122.447 182.662C121.972 179.482 120.034 176.243 118.407 173.526C121.508 168.89 122.496 164.045 120.204 158.792C119.574 157.347 118.872 156.461 118.093 155.477C117.751 155.044 117.395 154.593 117.022 154.068C117.018 154.061 117.012 154.054 117.006 154.045C116.996 154.033 116.985 154.018 116.973 154.002C116.856 153.85 116.63 153.554 116.711 153.482C117.431 153.52 118.343 153.713 119.329 153.921C121.887 154.461 124.941 155.105 126.415 153.423C128.197 151.389 125.119 150.527 123.711 150.134C122.18 149.708 120.328 149.263 118.769 148.967C117.828 148.788 116.878 148.678 115.928 148.568L115.927 148.568C115.238 148.488 114.548 148.408 113.863 148.301C113.363 146.845 112.543 145.478 111.658 144.218C109.688 141.413 106.906 138.12 104.435 135.749C102.682 134.067 100.556 132.631 98.4572 131.214C97.2687 130.411 96.0892 129.614 94.9912 128.782C92.4068 126.824 89.7674 123.474 87.4141 120.487L87.4126 120.485C86.6415 119.506 85.9011 118.566 85.2035 117.727C84.6273 117.034 84.0264 116.36 83.4254 115.686C82.1574 114.264 80.8889 112.841 79.8503 111.239C79.8642 110.871 79.9109 110.481 79.9584 110.084C80.0582 109.249 80.162 108.381 79.9737 107.625C79.8151 106.986 79.3101 106.33 78.8188 105.693C78.4975 105.276 78.1821 104.866 77.9733 104.474C77.874 104.287 77.8018 104.089 77.7278 103.886C77.6375 103.638 77.5446 103.383 77.3971 103.134C76.5831 101.757 75.328 101.373 73.9011 100.938L73.8932 100.935C73.8507 100.922 73.808 100.909 73.7652 100.896C73.625 99.9823 73.4082 99.2156 72.8105 98.4969C72.6592 98.3149 72.4069 98.1086 72.1477 97.8966C71.7502 97.5715 71.3363 97.233 71.2449 96.9481C71.0259 96.2674 71.0845 95.6253 71.1424 94.9905C71.1723 94.6635 71.2019 94.3384 71.1934 94.011C71.1488 92.2884 70.2486 90.9095 69.3406 89.5187C68.6883 88.5195 68.0321 87.5143 67.6861 86.371C66.8281 83.5351 66.3285 80.5391 65.8262 77.5266C65.0908 73.1157 64.3493 68.6692 62.4682 64.6371C62.3792 64.4463 62.1288 64.0219 61.8834 63.6062C61.6035 63.1319 61.3302 62.6687 61.3111 62.5768C61.26 62.3339 61.5047 61.7608 61.6503 61.4196C61.672 61.3687 61.6916 61.323 61.7076 61.2843C61.8014 61.0562 62.0707 60.5645 62.3524 60.05C62.7394 59.3432 63.15 58.5935 63.1618 58.425C63.2061 57.812 62.8549 57.0803 62.529 56.4014C62.3531 56.0349 62.1846 55.6839 62.0897 55.3753C63.9715 57.4655 66.8619 59.8325 69.8362 58.3915C72.0615 57.3131 72.5911 55.2247 73.1152 53.1577C73.1954 52.8415 73.2755 52.5257 73.3615 52.2141C73.5367 51.5792 73.616 51.5676 73.8609 51.5319C73.9759 51.5151 74.1274 51.493 74.3426 51.3984C75.0745 51.0769 75.2809 50.6064 75.5109 50.0817C75.634 49.801 75.764 49.5048 75.9848 49.2075C76.2205 48.8901 76.5504 48.6597 76.8655 48.4398C77.146 48.244 77.4148 48.0564 77.5947 47.8228C77.7275 47.6513 77.8253 47.3834 77.9234 47.1147C78.0829 46.6778 78.2431 46.2389 78.5554 46.2093C78.8714 46.1794 79.1337 46.2263 79.3997 46.2738C79.8154 46.3482 80.2404 46.4242 80.8948 46.2117C82.4231 45.7159 82.2914 44.4609 82.1612 43.2201C82.1272 42.8961 82.0933 42.573 82.0891 42.2647C82.0856 42.0139 82.0769 41.7042 82.0672 41.358C82.0192 39.6542 81.9459 37.0501 82.349 36.0467C82.7015 35.1704 83.3291 34.634 83.9245 34.1251C84.4865 33.6448 85.0198 33.1889 85.2658 32.495C85.4486 31.9795 85.527 31.221 85.606 30.4556C85.6099 30.4182 85.6138 30.3805 85.6177 30.3431C85.6759 29.7819 85.7372 29.2233 85.8432 28.7601C85.9917 28.11 86.2018 27.4713 86.4121 26.8318C86.6785 26.0222 86.9452 25.2114 87.0878 24.3747ZM70.9526 26.4482C69.3451 27.8354 68.6755 29.4716 68.0478 31.4493C66.5265 36.2335 65.5587 41.5532 68.7725 45.8823C70.0482 47.601 70.5894 47.0873 71.3702 46.3463C71.7017 46.0317 72.0763 45.6762 72.5685 45.4331C73.2776 45.0833 74.0371 45.003 74.8169 45.1085C75.1354 45.1515 75.6221 45.3446 76.0934 45.5318C76.6199 45.7408 77.1273 45.9422 77.3599 45.9182C77.49 45.9046 77.5956 45.8096 77.7079 45.7084C77.8232 45.6047 77.9455 45.4946 78.1086 45.4594C78.4015 45.3957 78.7217 45.444 79.0604 45.495C79.5873 45.5745 80.1588 45.6607 80.7415 45.342C81.5436 44.9033 81.3589 43.4805 81.2186 42.3995C81.1762 42.0728 81.1378 41.7773 81.132 41.5496C81.1255 41.3043 81.1166 41.0546 81.1076 40.8018C81.0339 38.7267 80.9529 36.4471 82.1178 34.7386C82.4469 34.2557 82.8292 33.9149 83.1956 33.5882C83.8309 33.0217 84.4186 32.4977 84.5986 31.3499C84.6483 31.0338 84.6799 30.7276 84.7118 30.4198C84.7582 29.9704 84.8051 29.5174 84.9088 29.0248C84.9994 28.595 85.1897 27.968 85.402 27.2683C85.8972 25.6362 86.5126 23.608 86.2636 22.7612C85.9809 21.8041 81.8879 19.9882 80.8697 19.6504C79.5736 19.2216 75.9297 18.3495 74.7977 19.0323C74.1615 19.4167 74.1316 20.5004 74.0997 21.6565C74.0685 22.7882 74.0353 23.9892 73.4298 24.6718H73.4286C73.1266 25.0116 72.598 25.3438 72.0711 25.675L71.9943 25.7232C71.611 25.9644 71.2344 26.2052 70.9526 26.4482ZM39.0645 34.3289C38.6452 34.8967 36.6879 37.8267 36.6879 38.3082C36.6879 38.7151 37.3218 39.5044 37.7112 39.9893C37.7826 40.0783 37.8458 40.157 37.8954 40.2212C38.4677 40.9613 39.0593 41.6696 39.6489 42.3755C40.7264 43.6655 41.7975 44.9479 42.7335 46.4033C44.153 48.6095 45.5869 51.1047 46.9259 53.4347C47.0774 53.6982 47.2276 53.9595 47.3764 54.2182C48.0641 55.413 48.7204 56.6264 49.3767 57.8396C50.1046 59.1853 50.8326 60.5311 51.6036 61.8521L51.8324 61.9563C52.3212 61.55 52.7568 60.9534 53.2032 60.342C53.9821 59.2751 54.7937 58.1635 55.977 57.9411C56.5491 57.8338 56.9036 58.3694 57.2407 58.8786C57.3701 59.0742 57.4969 59.2658 57.6325 59.4157C57.6642 59.4509 57.6882 59.4915 57.7114 59.5308C57.7741 59.6368 57.8311 59.733 58.0182 59.6876L49.8751 45.4918C48.6054 43.3278 46.9627 41.4103 45.3312 39.5057C44.3816 38.3972 43.4358 37.2931 42.5694 36.1473C41.8806 35.2369 41.223 34.2427 41.0098 33.0963C41.1797 32.9227 41.6667 33.6299 41.925 34.005C41.9981 34.1112 42.053 34.191 42.0771 34.2163C42.0878 34.2276 42.097 34.2377 42.1054 34.2467C42.1708 34.3178 42.1764 34.3238 42.325 34.293C42.4285 34.0554 42.5528 33.8343 42.6658 33.6333C43.0885 32.882 43.3523 32.4133 41.7656 32.4255C40.4598 32.436 39.8119 33.315 39.1334 34.2355C39.1105 34.2666 39.0875 34.2978 39.0645 34.3289ZM20.913 71.1295C23.4477 65.1975 29.5579 59.4117 36.0351 59.8109C36.1435 59.8177 36.3169 59.8531 36.5125 59.8932C36.9782 59.9884 37.5703 60.1095 37.7145 59.9307C38.5436 57.9967 38.9372 55.9364 39.3029 53.8713C39.3273 53.7337 39.3516 53.5959 39.3759 53.4582C39.8225 50.9233 40.2682 48.3933 41.4674 46.0931C40.9594 45.4729 40.4443 44.8569 39.929 44.2406L39.7614 44.0403L39.7222 43.9933L39.6738 43.9354L39.6043 43.8522C38.8475 42.9464 38.0932 42.0379 37.3635 41.1124C37.2953 41.0257 37.1992 40.8756 37.0872 40.7004C36.7486 40.1713 36.2623 39.4111 35.9429 39.4606C35.2168 39.5739 33.9031 41.2201 32.8618 42.5247C32.3741 43.1358 31.9462 43.6719 31.6665 43.9405C30.8703 44.705 29.8182 45.4204 28.7712 46.1323C28.002 46.6554 27.2357 47.1765 26.5756 47.7138C15.1301 57.0271 8.97911 72.422 6.88526 86.7184C6.82064 87.1594 6.75415 87.6095 6.68658 88.0669C6.61066 88.5808 6.53325 89.1048 6.45577 89.6344C5.91319 93.3436 5.36058 97.375 5.19269 100.838C4.9615 105.577 8.86172 109.011 12.2025 111.794C12.8709 112.351 13.6272 112.899 14.3936 113.453C15.7178 114.412 17.0724 115.393 18.0565 116.482C21.0786 119.825 10.1671 111.799 7.23144 108.379C6.54866 107.584 5.90181 106.624 5.42986 105.689C5.26964 105.662 5.28828 105.799 5.30466 105.919C5.30775 105.942 5.31076 105.964 5.31247 105.985C5.56043 109.076 5.82755 112.263 7.05296 115.147C7.82017 116.952 9.4085 118.815 10.8919 120.554L11.0109 120.693C11.6044 121.389 12.177 122.065 12.6685 122.708C13.4592 123.742 14.2038 124.811 14.9482 125.88C15.5456 126.738 16.1432 127.596 16.764 128.435C17.2791 129.13 17.8406 129.814 18.4036 130.501C19.2259 131.503 20.0517 132.509 20.7421 133.561C21.0064 133.964 21.0648 135.438 20.8606 135.002C19.6722 133.44 18.4991 131.854 17.3237 130.265L17.3229 130.264C15.1212 127.287 12.9116 124.3 10.5783 121.445C9.73545 120.414 8.80824 119.429 7.89569 118.459L7.82797 118.387C7.92752 118.953 7.95527 119.528 7.98301 120.103C8.00267 120.51 8.02233 120.917 8.06754 121.321C8.32388 123.623 8.71678 126.679 9.22587 128.907C9.3982 129.66 9.66495 130.396 9.93133 131.13C10.3465 132.275 10.7607 133.418 10.8154 134.621C10.9514 137.526 11.6455 140.243 12.3455 142.983C12.6751 144.273 13.006 145.569 13.2806 146.892C13.4607 147.76 13.6271 148.694 13.7998 149.664C13.8489 149.939 13.8978 150.218 13.9473 150.499C14.6409 154.448 15.4319 158.95 17.7702 161.747C17.8622 161.857 17.9575 162.042 18.056 162.234C18.194 162.502 18.3383 162.783 18.4889 162.885C18.9425 163.076 20.0053 162.303 21.3398 161.332C23.3531 159.867 25.985 157.952 28.0765 158.22C28.6173 157.221 29.4674 156.473 30.3159 155.727C31.9948 154.351 33.1075 153.665 34.9138 152.551L34.919 152.548L34.9293 152.541C35.2792 152.325 35.6551 152.094 36.0662 151.837C38.2528 150.985 40.5643 150.461 42.8874 149.956C43.0422 149.923 43.1977 149.889 43.3526 149.856C45.6172 149.365 47.8858 148.874 50.0536 148.097C51.6317 147.531 53.0969 146.756 54.5626 145.98C55.8482 145.3 57.1344 144.62 58.4973 144.08L53.4986 140.805C53.2798 140.772 52.7903 141.051 52.2758 141.343C51.8017 141.613 51.3065 141.895 50.982 141.956C49.5534 142.227 48.7422 141.389 47.9129 140.533C47.6365 140.248 47.358 139.961 47.0542 139.712C46.7856 139.491 46.3945 139.215 45.9537 138.903C44.6078 137.95 42.7979 136.669 42.5922 135.669C42.4294 134.879 42.6767 134.231 42.9362 133.55C43.0109 133.354 43.0867 133.155 43.154 132.95C42.7272 132.707 42.2339 132.47 41.7237 132.225C40.6159 131.692 39.4283 131.122 38.668 130.37C37.5296 129.243 36.294 125.531 35.2104 122.276C34.6145 120.486 34.0647 118.834 33.6022 117.827C33.0785 116.685 32.4098 115.706 31.7412 114.728C30.9894 113.627 30.2377 112.527 29.6925 111.195C29.0411 109.605 28.3663 107.107 27.7395 104.787C27.3996 103.529 27.0734 102.322 26.7731 101.341C25.5852 96.7176 24.3639 91.9641 21.8237 87.9198C21.1679 86.8757 20.4203 85.8849 19.6731 84.895C18.8441 83.7964 18.0157 82.6986 17.3138 81.5293C16.7592 80.6069 16.1794 79.5528 15.9746 78.4975C16.5081 79.1202 16.9388 79.8451 17.3694 80.57C17.6156 80.9844 17.8618 81.3988 18.1271 81.794C18.8263 82.8358 19.5821 83.8429 20.3366 84.8483C20.6977 85.3294 21.0585 85.8102 21.4129 86.2944L23.2791 89.277C23.2295 88.8276 23.0394 88.4125 22.8488 87.9964C22.7311 87.7393 22.6131 87.4817 22.5281 87.2155C21.164 82.951 19.1735 75.2004 20.913 71.1295ZM66.5241 104.969C67.8717 103.564 69.4457 102.5 71.2329 101.713C71.3917 101.643 71.6504 101.569 71.9124 101.495C72.2651 101.394 72.6238 101.291 72.753 101.194C72.9411 101.054 72.6284 100.215 72.535 99.9751C72.1628 99.0176 71.8085 98.7771 71.3706 98.4799C71.1391 98.3228 70.8842 98.1497 70.5909 97.8465C69.9905 97.2256 70.0878 96.228 70.1817 95.2656C70.2247 94.8244 70.2671 94.3905 70.2411 94.0038C70.1361 92.4607 69.3281 91.2 68.4944 89.8991C67.8628 88.9138 67.2165 87.9054 66.85 86.734C66.0464 84.1652 65.5856 81.3145 65.1433 78.4275L65.1141 78.2365L65.1052 78.1784L65.0679 77.934L65.0633 77.9039L65.0613 77.8907L65.055 77.8496C64.4667 73.9949 63.8729 70.1049 62.5053 66.7621C62.3121 66.2901 62.0763 65.8247 61.839 65.3565C61.4778 64.6435 61.1133 63.9241 60.8906 63.1649C60.7522 63.1414 60.724 63.2988 60.7019 63.4223C60.697 63.4495 60.6924 63.4751 60.687 63.4968C60.0641 66.0584 60.4821 68.5094 60.9031 70.9775C60.9262 71.1127 60.9493 71.2481 60.9722 71.3835C61.1326 72.331 61.285 73.2821 61.371 74.2439C61.4798 75.467 61.5055 76.6968 61.5312 77.9273C61.5597 79.2963 61.5883 80.6662 61.7315 82.0288C61.8622 83.2718 62.1183 84.5033 62.3747 85.736C62.652 87.0691 62.9297 88.4037 63.0492 89.7562C63.1917 89.9454 63.2684 89.7562 63.2887 89.5789C63.4 88.6343 63.4305 87.6781 63.461 86.7228C63.4933 85.7132 63.5255 84.7046 63.6529 83.7118L63.6481 76.8792L64.0062 76.5797C64.2386 80.3422 64.15 84.1394 63.8865 87.8983C63.8566 88.3213 63.786 88.7724 63.7148 89.2276C63.6203 89.832 63.5245 90.4441 63.5211 91.0091C63.5171 91.6563 63.6154 92.3355 63.7128 93.0087L63.7275 93.1102C63.8007 93.6173 63.8704 94.1199 63.8924 94.6015C63.95 95.8459 63.8569 97.1312 63.7634 98.4231C63.6642 99.7938 63.5644 101.172 63.6433 102.517C63.7914 105.043 64.5656 107.415 65.3387 109.784C66.0723 112.032 66.8049 114.277 67.0009 116.648C67.0265 116.959 67.0107 117.296 66.9949 117.632C66.976 118.035 66.9571 118.438 67.0093 118.796C67.1482 119.752 67.631 121.002 68.4 121.598C70.2093 122.998 72.7824 124.587 74.8047 125.837L75.0373 125.981C76.9379 127.154 78.8144 128.087 80.7061 129.027C81.8403 129.59 82.98 130.156 84.1338 130.779C84.681 131.074 85.2081 131.409 85.7354 131.744C86.2909 132.097 86.8467 132.45 87.4267 132.757V131.44C88.2979 132.476 88.861 133.666 89.4249 134.859C90.017 136.111 90.6101 137.365 91.5617 138.443C92.3039 139.284 93.1996 139.955 94.0954 140.626C95.3568 141.571 96.6182 142.516 97.4504 143.934C97.6852 144.334 97.8774 144.797 98.0696 145.259C98.6911 146.754 99.3132 148.251 101.382 147.662C101.397 146.875 101.406 146.119 101.176 145.359C101.05 144.943 100.737 144.359 100.39 143.712C99.6316 142.297 98.7114 140.58 99.2376 139.66C99.6937 138.864 100.592 139.655 101.118 140.119C101.169 140.164 101.217 140.206 101.261 140.243C101.324 140.297 101.387 140.351 101.45 140.405L101.641 140.569C103.946 142.537 106.539 144.751 107.966 147.433L110.602 147.731C110.681 147.661 110.033 146.475 109.933 146.305C109.278 145.178 108.442 144.085 107.608 142.992C106.698 141.802 105.79 140.613 105.115 139.383C104.895 138.981 104.722 138.535 104.551 138.094C104.375 137.642 104.202 137.194 103.981 136.804C103.574 136.085 102.182 135.068 101.24 134.38C101.063 134.25 100.902 134.132 100.766 134.03C99.8674 133.356 98.944 132.709 98.0203 132.063C95.649 130.404 93.2755 128.743 91.3126 126.594C89.6674 124.531 87.8904 122.51 86.1122 120.487C84.0256 118.113 81.9374 115.738 80.0587 113.292C79.9265 113.12 79.5984 112.627 79.2362 112.082C78.6632 111.221 78.0044 110.231 77.9002 110.18C77.4917 109.978 76.1777 110.455 75.7093 110.626C74.2132 111.171 72.7362 112.125 71.5491 113.174C71.0597 113.606 70.6078 114.084 70.1564 114.56C69.3064 115.458 68.4574 116.354 67.359 116.949L67.704 115.928C69.7739 113.19 73.5855 109.288 77.2593 109.171C77.7168 109.156 78.0368 109.371 78.3619 109.588C78.6199 109.761 78.8811 109.936 79.2166 110C79.2562 109.092 79.2598 108.36 78.8812 107.522C78.6509 107.012 78.2917 106.588 77.9329 106.164C77.6217 105.796 77.3109 105.428 77.0844 105.006C76.9125 104.685 76.79 104.368 76.6734 104.066C76.35 103.228 76.072 102.507 74.9079 102.152C73.4214 101.698 71.7995 102.427 70.489 103.127C70.1031 103.333 69.5915 103.712 69.0645 104.103C67.8362 105.015 66.5241 105.989 66.5241 104.969ZM111.857 154.324C111.741 153.994 111.77 153.552 112.045 153.306C112.753 152.677 116.827 152.565 117.855 152.639C118.557 152.69 119.387 152.873 120.248 153.064C121.867 153.422 123.6 153.805 124.821 153.385C125.429 153.177 126.496 152.578 125.81 151.871C125.74 151.85 125.671 151.829 125.601 151.807L125.558 151.794C125.465 151.765 125.372 151.737 125.278 151.708C125.106 151.655 124.933 151.602 124.76 151.548L124.707 151.532C122.063 150.716 119.381 149.888 116.635 149.547C115.026 149.348 113.404 149.16 111.784 148.972L111.775 148.971C110.678 148.844 109.582 148.717 108.491 148.587C106.665 148.368 104.895 148.471 103.141 148.573H103.14C100.911 148.703 98.7066 148.831 96.443 148.297C91.297 147.082 86.3032 143.68 82.0556 140.644C76.979 137.014 72.081 133.093 67.6585 128.688C66.7541 130.49 65.5215 132.326 64.1871 133.84C62.3915 135.877 57.7451 139.204 55.2284 140.213C55.0415 140.288 54.863 140.321 54.663 140.308C54.6939 140.45 54.8363 140.546 54.9541 140.626L54.9553 140.627L54.968 140.636L54.9828 140.646C58.3092 142.929 63.2672 145.355 66.9578 147.118C69.9871 148.565 72.9899 149.722 76.032 150.894C77.3636 151.407 78.7028 151.923 80.0551 152.468C80.4085 152.61 80.8064 152.767 81.2352 152.937C83.9537 154.011 87.9181 155.578 89.6955 156.962C90.4657 157.562 91.1869 158.202 91.9051 158.84C93.4978 160.255 95.0761 161.657 97.1426 162.571C98.7785 163.296 100.524 163.595 102.258 163.893C103.47 164.101 104.677 164.308 105.837 164.658C106.195 164.766 107.541 165.298 107.597 165.66C107.67 166.13 107.048 165.978 106.531 165.851C106.271 165.788 106.038 165.731 105.931 165.761C107.187 166.754 109.746 167.303 111.167 166.447C112.498 165.645 111.356 164.541 110.279 163.499C109.677 162.917 109.095 162.354 108.976 161.874C108.865 161.423 109.221 161.453 109.528 161.684C110.088 162.106 111.601 163.454 112.04 163.963C112.174 164.119 112.242 164.298 112.309 164.475C112.377 164.654 112.444 164.832 112.578 164.98C113.172 164.378 113.925 163.548 113.841 162.647C113.802 162.237 113.219 161.497 112.939 161.148C112.843 161.03 112.615 160.809 112.331 160.533C111.427 159.656 109.954 158.228 110.362 157.797L110.846 157.971L114.193 161.269L114.195 161.268C114.841 160.147 114.203 158.819 113.662 157.696L113.66 157.691C113.591 157.548 113.524 157.408 113.461 157.272C113.035 156.35 112.516 155.457 112.004 154.577L112.001 154.572C111.953 154.489 111.905 154.407 111.857 154.324ZM110.583 144.34C108.937 142.047 107.073 139.909 105.215 137.79C105.57 138.679 106.161 139.445 106.747 140.205C107.02 140.559 107.292 140.912 107.539 141.275C107.664 141.459 107.79 141.643 107.916 141.829C109.255 143.791 110.651 145.838 111.621 147.973L112.879 148.331C113.169 147.935 111.212 145.215 110.666 144.456L110.618 144.39C110.605 144.372 110.593 144.355 110.583 144.34ZM114.819 157.953C115.181 158.847 115.623 159.994 115.246 160.938C115.162 161.146 114.923 161.403 114.73 161.61C114.589 161.761 114.474 161.885 114.462 161.944C114.449 162.014 114.495 162.149 114.549 162.307C114.612 162.491 114.686 162.706 114.688 162.885C114.695 163.704 114.24 164.274 113.778 164.852C113.639 165.026 113.499 165.201 113.371 165.384L118.15 172.766L118.149 172.768L118.152 172.769L118.15 172.766C118.396 171.817 118.778 170.904 119.161 169.988C119.608 168.918 120.056 167.844 120.294 166.705C121.253 162.095 119.867 159.882 117.933 156.793C117.551 156.183 117.148 155.539 116.737 154.836C116.657 154.699 116.556 154.447 116.458 154.204C116.347 153.927 116.241 153.662 116.178 153.598C115.959 153.374 115.053 153.499 114.177 153.619C113.49 153.713 112.823 153.805 112.522 153.723C112.825 154.364 113.193 154.976 113.561 155.588C114.022 156.356 114.484 157.125 114.819 157.953ZM6.21685 185.821L6.03238 185.526C6.08749 185.291 7.59918 184.826 7.89745 184.755C9.91199 184.273 12.0508 184.341 14.1792 184.408H14.1815C15.5742 184.452 16.963 184.496 18.3092 184.386C19.9591 184.25 21.5962 183.93 23.2312 183.61L23.2323 183.61L23.2429 183.608C23.3985 183.577 23.5542 183.547 23.7098 183.517C24.8245 183.3 25.9387 183.092 27.056 182.951C28.9773 182.709 31.1179 182.584 33.0584 182.477C33.1502 182.472 33.2322 182.503 33.314 182.534C33.3999 182.566 33.4856 182.599 33.5819 182.589C32.7464 181.926 31.6833 181.407 30.615 180.885C27.9784 179.597 25.3095 178.294 25.948 174.776C26.1372 173.736 26.6858 172.566 27.3554 171.752C28.1257 170.814 30.5214 168.96 31.7528 169.385C32.595 169.675 32.6622 170.164 32.7502 170.805C32.7777 171.005 32.8072 171.22 32.8632 171.449C32.6378 171.491 32.628 171.443 32.6078 171.344C32.6002 171.306 32.5911 171.261 32.5685 171.212C32.52 171.105 32.4776 170.996 32.4357 170.889C32.2442 170.396 32.0646 169.935 31.3647 169.886C29.4409 169.749 26.7062 173.213 26.5145 174.982C26.1715 178.15 28.3901 179.073 30.679 180.026C31.1879 180.237 31.7003 180.451 32.1888 180.69C33.1522 181.163 34.0883 181.7 35.0231 182.236C35.6584 182.601 36.2932 182.965 36.9359 183.309C36.8592 180.216 36.9742 177.22 37.5731 174.182C38.0211 171.912 38.6512 169.399 40.1713 167.618C38.081 166.986 36.1992 165.84 34.5402 164.444C33.9484 163.946 33.3722 163.355 32.7883 162.757C30.8948 160.817 28.9193 158.793 26.0629 159.558C23.0108 160.374 20.1115 163.518 17.4245 166.432C16.1317 167.834 14.8878 169.183 13.6999 170.193C12.5118 171.204 11.053 172.163 9.5499 173.151C5.19538 176.012 0.46897 179.117 0.876808 184.45C0.907645 184.851 1.01541 185.243 1.12218 185.631C1.25596 186.118 1.38818 186.599 1.36553 187.084C1.34527 187.519 1.19023 187.924 1.0375 188.324C0.756839 189.057 0.483991 189.771 1.06966 190.606C2.1633 192.167 3.52527 190.171 3.97926 189.1C4.09183 188.834 4.19469 188.412 4.29296 188.008C4.40173 187.562 4.50487 187.138 4.60933 186.975C4.67881 186.866 4.82734 186.688 4.95311 186.783C5.11243 186.902 4.8501 188.628 4.78062 188.944C4.46678 190.364 3.62469 191.582 2.19206 192.011C2.10102 193.459 3.32523 194.557 4.53866 193.374C5.11962 192.809 6.14978 189.28 6.33425 188.342C6.34443 188.291 6.35514 188.239 6.36586 188.188C6.44717 187.797 6.52932 187.402 6.39174 187.022H6.86968C6.86713 187.169 6.86928 187.316 6.87143 187.463C6.87532 187.73 6.87922 187.997 6.85531 188.263C6.8021 188.837 6.6266 189.53 6.45247 190.219C6.25418 191.002 6.05768 191.779 6.04556 192.363C6.00843 194.127 7.86032 194.82 9.27618 194.128C9.55635 193.604 9.35226 193.317 9.12736 193C9.04168 192.88 8.95297 192.755 8.88688 192.611C7.87589 190.42 7.74412 188.325 8.67007 186.063C8.8724 186.105 8.89004 186.271 8.90781 186.438C8.90918 186.451 8.91057 186.464 8.91203 186.477C8.95949 186.888 8.9083 187.365 8.85558 187.857C8.80586 188.321 8.75479 188.797 8.78386 189.242C8.86771 190.514 9.34925 192.313 10.474 193.062C11.0322 193.433 12.2684 193.63 12.6493 192.977C13.2667 191.919 12.9141 191.719 12.3853 191.419C12.1989 191.313 11.9907 191.194 11.7953 191.022C10.6393 190 9.8188 187.594 10.6549 186.191C10.7531 186.026 11.5365 185.248 11.4179 185.755C11.3686 185.965 11.3017 186.155 11.2357 186.342C11.0998 186.726 10.9676 187.101 10.9999 187.625C11.1185 189.53 13.2567 191.691 15.2008 191.454C15.7889 191.382 16.4226 190.809 16.2585 190.162C16.1626 189.784 15.7833 189.372 15.373 188.926C14.8561 188.364 14.2899 187.749 14.179 187.081L14.1766 187.082C14.1294 186.796 14.15 186.456 14.1706 186.115C14.1892 185.806 14.2079 185.497 14.1766 185.225C13.5983 185.234 13.0171 185.228 12.4354 185.222C10.3374 185.201 8.23125 185.18 6.21685 185.821ZM93.4759 203.012C93.4783 203.203 96.4957 204.554 96.921 204.602C97.4835 204.664 98.3587 204.393 99.0378 204.183C99.18 204.139 99.3137 204.098 99.4341 204.063C103.358 202.919 107.742 201.499 111.271 199.615C111.436 199.527 111.631 199.459 111.829 199.389C112.236 199.245 112.658 199.096 112.877 198.764L112.88 198.762H112.878L112.877 198.764C109.61 200.135 106.097 200.626 102.591 201.117C101.134 201.32 99.6771 201.524 98.241 201.791C98.1227 201.812 97.998 201.835 97.8682 201.859C96.669 202.08 95.0346 202.382 94.0198 202.72C93.9865 202.731 93.953 202.742 93.9201 202.752C93.7513 202.804 93.5901 202.853 93.4759 203.012ZM32.087 155.523C31.6306 155.896 29.1546 158.07 29.1474 158.453C29.9404 158.646 30.6184 159.081 31.2413 159.596C32.0193 160.239 32.7562 160.987 33.4942 161.736L33.4951 161.736L33.4959 161.737C34.2653 162.518 35.0359 163.3 35.8554 163.966C38.4823 166.102 41.8088 167.25 45.0993 167.913L45.6814 168.216C46.5387 168.296 47.3861 168.449 48.2332 168.601C48.8834 168.719 49.5334 168.836 50.1878 168.92C55.3601 169.586 60.8762 169.783 66.0977 169.9C69.0224 169.966 71.8238 169.59 74.6104 169.217C77.617 168.814 80.6068 168.414 83.717 168.572C84.0143 168.587 84.3319 168.641 84.65 168.697C84.9592 168.75 85.2364 168.794 85.4926 168.834C87.0258 169.075 87.8064 169.198 90.1818 170.61C86.2876 169.833 85.3016 169.65 83.4702 169.537C80.7296 169.368 78.0987 169.781 75.471 170.194C73.638 170.481 71.8065 170.769 69.9404 170.858C68.3804 170.933 66.8084 170.871 65.2437 170.809C64.29 170.772 63.3391 170.734 62.3951 170.728C62.0567 170.725 61.7177 170.76 61.3791 170.795C60.7339 170.862 60.0904 170.929 59.4556 170.735L59.6916 171.032C60.8855 171.51 62.0746 172.142 63.2634 172.773C64.6055 173.486 65.9476 174.199 67.2968 174.691C69.1864 175.381 71.1754 175.871 73.1777 176.366C75.2712 176.882 77.3793 177.402 79.4035 178.157C80.9799 178.744 82.4714 179.497 83.9634 180.249C85.757 181.154 87.5514 182.059 89.4954 182.679C99.3287 185.814 100.701 188.842 90.1483 184.062C89.7945 183.902 89.3257 183.766 88.8799 183.638C86.9159 183.071 85.0989 182.117 83.28 181.161L83.2788 181.161L83.2777 181.16C81.9935 180.486 80.7075 179.81 79.3688 179.271C77.1991 178.398 74.8892 177.824 72.5811 177.251C70.5465 176.746 68.513 176.24 66.578 175.531C65.5776 175.164 64.6236 174.689 63.6701 174.213L63.669 174.213L63.668 174.212C62.9097 173.834 62.1517 173.456 61.371 173.133L60.4247 172.486C59.8665 172.366 59.3826 171.998 58.9145 171.642C58.5549 171.369 58.2047 171.103 57.8373 170.961C57.0454 170.656 55.6475 170.614 54.3902 170.577C53.7552 170.558 53.156 170.54 52.6889 170.489C50.5723 170.263 48.3634 169.902 46.278 169.474C46.0532 169.427 45.8311 169.358 45.6087 169.288C45.3323 169.201 45.0796 169.157 44.8234 169.112C44.6354 169.079 44.4455 169.045 44.2428 168.994C44.055 168.947 43.9509 168.904 43.8734 168.872C43.7898 168.837 43.7372 168.816 43.6439 168.816L40.9235 167.994L40.7103 168.091C39.3268 170.664 38.4632 173.635 38.1349 176.542C37.748 179.98 37.8774 186.804 39.3579 189.929C39.7795 190.82 40.6477 190.694 41.4857 190.572C41.7525 190.533 42.0163 190.495 42.2616 190.49C44.9711 190.437 48.0915 190.4 50.7364 190.89C53.7369 191.446 56.8895 192.352 60.025 193.254C62.1769 193.873 64.3208 194.49 66.402 194.989C70.8879 196.065 75.4134 197.03 79.9389 197.921L81.1368 197.563C84.7133 200.538 88.0511 203.267 92.8962 202.203C93.8175 202 94.7274 201.771 95.6373 201.541C97.0094 201.195 98.3818 200.849 99.7934 200.595C100.575 200.455 101.38 200.308 102.2 200.158L102.209 200.156L102.219 200.154L102.228 200.152C105.467 199.56 108.926 198.927 111.995 198.54C112.208 198.512 112.396 198.546 112.565 198.577C112.695 198.6 112.814 198.622 112.923 198.611C114.147 198.493 115.515 196.835 116.21 195.929C118.491 192.96 121.788 187.676 121.627 183.848C121.464 179.981 117.786 174.018 115.226 169.866L115.225 169.865L115.223 169.862L115.22 169.857C114.792 169.163 114.395 168.519 114.052 167.945C113.894 167.682 113.723 167.425 113.551 167.168C113.21 166.656 112.869 166.144 112.637 165.587L112.226 166.551C111.077 168.346 106.7 167.704 105.639 166.297C105.542 166.169 105.484 166.036 105.427 165.908C105.316 165.657 105.213 165.426 104.854 165.285C104.096 164.986 102.893 164.802 101.727 164.623C100.935 164.502 100.162 164.384 99.5562 164.234C95.5374 163.236 93.0075 161.331 90.0716 158.565L90.074 158.559C89.8713 158.367 89.6965 158.193 89.5342 158.031C88.9526 157.451 88.5322 157.031 87.5657 156.576C84.6335 155.196 81.4404 154.074 78.2604 152.957C75.9143 152.133 73.5751 151.311 71.3527 150.389C67.8778 148.948 64.536 147.216 61.199 145.486L61.1981 145.485L61.1972 145.485L61.1962 145.484L61.1954 145.484C60.4787 145.112 59.7622 144.741 59.0447 144.372C59.0182 144.375 59.0011 144.412 58.9788 144.459C58.9488 144.524 58.9095 144.608 58.8255 144.654C58.0582 145.076 57.2923 145.517 56.5234 145.96C54.0851 147.365 51.6165 148.787 48.9755 149.653C47.0144 150.295 45.0944 150.693 43.2181 151.081C39.3116 151.89 35.594 152.66 32.087 155.523ZM66.8236 121.259L67.2836 122.056L67.2848 122.055C68.4495 122.803 69.6086 123.589 70.7705 124.377C72.7393 125.713 74.717 127.054 76.7454 128.227C78.003 128.954 79.3187 129.574 80.6341 130.194C81.6366 130.666 82.6391 131.139 83.6152 131.658L83.7007 131.704C84.7678 132.272 87.5432 133.751 88.0652 134.515C88.4703 135.109 88.7897 135.782 89.115 136.468C89.5352 137.354 89.9655 138.261 90.6035 139.044C91.3236 139.928 92.2905 140.612 93.2607 141.298C94.177 141.946 95.0961 142.596 95.8129 143.418L98.2661 147.611C94.524 146.936 90.9556 145.204 87.7358 143.23C83.4443 140.6 79.3713 137.342 75.3883 134.156L75.3862 134.154C74.4449 133.402 73.5087 132.653 72.5757 131.917L68.5605 128.327L68.2119 127.357C68.1985 127.098 68.2011 126.845 68.2037 126.596C68.2093 126.043 68.2149 125.505 68.0466 124.947C67.907 124.483 67.5693 123.992 67.2484 123.525C66.9276 123.059 66.6235 122.617 66.5505 122.25C66.4305 121.649 66.4203 120.905 66.4113 120.242C66.4093 120.098 66.4074 119.957 66.4044 119.822L66.8236 121.259ZM102.1 147.613C102.295 146.847 102.224 146.095 102.044 145.333C101.944 144.907 101.531 144.131 101.078 143.282C100.324 141.865 99.4604 140.244 99.7623 139.706C99.8554 139.539 99.9171 139.61 99.9887 139.691C100 139.704 100.012 139.717 100.024 139.73C100.036 139.743 100.049 139.756 100.063 139.767C101.312 140.758 102.636 142.081 103.841 143.285C104.12 143.564 104.393 143.836 104.657 144.097C104.724 144.097 104.895 144.296 105.009 144.429C105.028 144.451 105.045 144.471 105.06 144.488C105.078 144.508 105.092 144.523 105.102 144.533L107.13 147.433L102.1 147.613ZM42.1034 62.2498C45.2849 64.4179 48.2413 68.0294 49.5134 71.6685C49.1669 71.2192 48.8955 70.7062 48.6234 70.1918C48.4074 69.7834 48.1908 69.374 47.9358 68.9949C44.9004 64.4718 38.6788 59.2719 32.838 60.8028C27.9448 62.0857 23.4947 66.8675 21.4632 71.3487C20.0119 74.55 21.7839 82.3043 22.8488 84.9384C23.2365 87.1488 24.1859 89.7459 25.1003 92.2473C25.4516 93.2083 25.7978 94.1552 26.1049 95.0606C26.6485 96.663 27.1819 98.2352 27.6273 99.7235C28.0278 101.063 28.3849 102.446 28.7432 103.834C29.299 105.988 29.8577 108.153 30.586 110.181C31.2253 111.962 31.9673 113.026 32.8165 114.244C33.1735 114.755 33.5495 115.295 33.9448 115.926C35.1057 117.78 35.8225 120.041 36.5415 122.309C37.238 124.506 37.9366 126.709 39.0429 128.556C39.7661 129.763 41.1009 130.44 42.4155 131.107C43.1304 131.47 43.8392 131.829 44.4405 132.269C44.5758 132.354 44.6848 132.396 44.8465 132.352C44.981 132.315 45.4885 131.892 45.9367 131.518C46.2153 131.286 46.4712 131.072 46.6002 130.983C46.953 130.738 47.3006 130.506 47.6426 130.278L47.6435 130.277C48.9329 129.416 50.1433 128.608 51.2527 127.37C52.0953 126.43 52.951 125.493 53.807 124.555L53.8083 124.554C54.8805 123.38 55.9536 122.205 57.0024 121.021C58.7836 119.013 59.4472 117.899 57.8289 115.4C56.8865 113.944 55.7272 113.482 54.4208 112.962C53.9587 112.777 53.4781 112.586 52.9824 112.341C47.8939 109.825 42.6449 104.691 39.2849 100.164C37.3851 97.6045 35.5416 94.7632 34.6624 91.6715C35.0653 92.0102 35.2652 92.5227 35.4615 93.0261C35.5576 93.2723 35.6527 93.5163 35.7704 93.7366C39.1926 100.152 45.4455 107.133 51.7103 110.858C52.4438 111.294 53.2107 111.666 53.9769 112.039C54.821 112.449 55.6642 112.859 56.4609 113.353C56.1639 112.198 55.9315 110.896 55.8644 109.698C55.8347 109.167 55.8539 108.593 55.8734 108.014C55.8978 107.288 55.9226 106.552 55.8512 105.878C55.178 99.5211 52.5176 93.1796 49.8572 87.4359C49.0141 85.6148 48.0317 83.7421 47.0442 81.8595C45.6211 79.1467 44.1874 76.4135 43.1444 73.7851C43.1127 73.7053 43.08 73.6247 43.047 73.5435C42.8272 73.0019 42.5955 72.431 42.5622 71.8518C42.5615 71.8406 42.5604 71.8278 42.559 71.8139C42.5575 71.7995 42.5558 71.7838 42.5539 71.7672C42.5323 71.5736 42.4963 71.2509 42.7443 71.3104C42.9791 71.5739 43.2498 71.8841 43.4271 72.1848C44.5608 74.1137 45.547 76.2496 46.537 78.3938C47.5753 80.6424 48.6178 82.9003 49.8392 84.9384C49.9567 85.1904 50.0577 85.4024 50.1529 85.6023C50.8449 87.0554 51.2311 87.8662 55.4464 98.7365C55.5245 99.0704 55.6085 99.4222 55.6955 99.7866L55.6958 99.7878C56.1824 101.826 56.7623 104.255 56.9269 106.12C56.9924 106.866 56.9778 107.655 56.9629 108.452C56.9387 109.754 56.914 111.079 57.2372 112.278C57.4482 113.063 57.9482 113.919 58.4358 114.755C58.7894 115.361 59.1366 115.955 59.3622 116.503L60.656 116.127C56.9615 111.141 58.521 100.929 59.799 92.5603C60.3395 89.0214 60.8296 85.8122 60.8507 83.4675C60.8631 82.0871 60.8356 80.7217 60.7804 79.3887L60.7727 79.2008L60.7678 79.083C60.6226 75.5467 60.4659 71.7303 59.1549 68.4367C59.0059 68.0623 58.8186 67.686 58.6301 67.3071C58.2895 66.6228 57.9448 65.9304 57.8145 65.2264C57.6788 64.4934 57.7493 63.8422 57.822 63.1696C57.8578 62.8387 57.8941 62.5027 57.9068 62.1492L57.9079 62.1171L57.9083 62.1071C57.9093 62.0783 57.9104 62.048 57.9117 62.0163L57.9131 61.9786C57.9318 61.4929 57.9613 60.7259 57.872 60.3763C57.7822 60.0206 56.3328 58.6814 55.9818 58.7784C55.2587 58.9798 54.3548 60.3069 53.5985 61.4172C53.2261 61.964 52.8895 62.4583 52.6278 62.7397C52.0852 63.1218 51.6923 62.8499 51.2299 62.5265L51.2275 62.5289C50.1377 60.6879 49.0889 58.8173 48.0403 56.947C46.4786 54.1616 44.9163 51.3749 43.215 48.6805C43.1666 48.6036 43.1151 48.521 43.0614 48.435C42.73 47.904 42.3103 47.2314 41.9465 46.8346C41.9196 46.8053 41.8993 46.7744 41.8803 46.7456C41.8239 46.6602 41.7792 46.5924 41.6099 46.6345C40.5691 48.8139 40.1942 51.1801 39.8189 53.5485C39.4583 55.8248 39.0973 58.1031 38.1445 60.2194C38.3147 60.2966 38.485 60.3731 38.6551 60.4496C39.8416 60.9827 41.0202 61.5122 42.1034 62.2498ZM58.7369 120.716C59.1753 120.164 60.1192 118.543 59.9144 117.87C59.8883 117.784 59.8176 117.709 59.7409 117.627C59.6553 117.535 59.5622 117.436 59.5155 117.306C59.4859 117.224 59.4786 117.131 59.4704 117.027L61.3816 116.969C61.7133 117.3 62.0301 117.615 62.2634 117.915C62.5801 118.323 62.8431 118.809 63.1048 119.293C63.3102 119.672 63.5148 120.05 63.7439 120.388C64.006 120.774 64.3477 121.209 64.7132 121.675C65.8297 123.098 67.1675 124.803 67.1314 126.235C67.0224 130.558 59.3789 136.98 55.7303 138.794L50.2944 140.906L49.5745 140.665C48.8085 139.66 47.659 138.865 46.5378 138.09C45.6442 137.473 44.7686 136.867 44.1194 136.178C43.2965 135.303 43.6654 134.338 44.2428 133.418L45.3209 132.939C45.8897 132.539 46.4382 132.165 46.9769 131.798L46.9777 131.798C50.4063 129.461 53.4343 127.397 58.7369 120.716ZM62.4155 90.3299L61.3734 85.5637C61.3013 87.1925 60.9537 89.5923 60.554 92.3518C59.3497 100.667 57.6722 112.249 61.6347 115.842C62.0024 116.176 62.372 116.511 62.685 116.889C63.1892 117.498 63.6088 118.193 64.0305 118.891C64.5897 119.818 65.1527 120.75 65.9216 121.497L65.9228 121.499C65.7188 120.628 65.8264 119.695 65.9327 118.773C66.0068 118.13 66.0804 117.491 66.0474 116.883C65.9307 114.751 65.1769 112.543 64.4368 110.375C63.9767 109.027 63.5218 107.695 63.2288 106.406C62.6356 103.799 62.7498 101.179 62.8643 98.5554C62.9839 95.8132 63.1036 93.0677 62.4155 90.3299ZM59.8545 2.17128C70.7406 -2.39495 83.5026 6.99385 85.7737 17.7398C85.9418 18.5357 86.0391 19.3401 86.1364 20.1441C86.2145 20.7898 86.2927 21.4353 86.4074 22.0761L86.4062 22.0737L83.9709 20.4973C81.9058 19.3354 77.3037 17.6919 75.0325 18.4274C73.586 18.8952 73.6008 20.3306 73.615 21.7001C73.6236 22.533 73.6319 23.3415 73.3112 23.8932C73.0539 24.3368 72.2457 24.8421 71.4994 25.3087C71.0508 25.5892 70.6245 25.8558 70.3537 26.0865C67.9838 28.1038 67.1756 32.0688 66.5725 35.0279L66.5565 35.1063C66.0318 37.6805 65.8629 39.3635 66.4379 41.9832C66.735 43.338 68.3066 47.243 69.8242 47.4622C70.8161 47.6057 71.3824 47.0608 71.9518 46.513C72.3334 46.1458 72.7164 45.7774 73.2297 45.6139C74.0296 45.3595 75.2803 45.6742 76.3368 45.94C76.6632 46.0222 76.9711 46.0996 77.2414 46.1542C77.2941 46.1651 77.3329 46.16 77.3609 46.1564C77.422 46.1484 77.432 46.1471 77.4246 46.3327C77.4042 46.8739 76.7832 47.46 76.2152 47.9961C75.8831 48.3095 75.5691 48.6058 75.4039 48.8661C75.2816 49.0591 75.2025 49.3077 75.1253 49.5506C75.0337 49.8385 74.9446 50.1184 74.7894 50.288C74.5938 50.5012 74.2979 50.5616 73.9907 50.6243C73.7559 50.6722 73.5145 50.7215 73.3064 50.8414C72.5182 51.2961 72.3719 52.3043 72.2334 53.2588C72.172 53.6823 72.1121 54.0952 71.9983 54.4445C71.076 57.2751 68.5258 58.7293 65.7204 57.3134C63.6026 56.2437 57.8169 49.6831 57.1461 47.4407C56.3219 44.6872 58.0891 42.2225 59.7013 39.9741C60.0971 39.4221 60.4835 38.8831 60.82 38.3561C61.1024 37.9136 61.3489 37.5132 61.5821 37.1342C62.2111 36.1119 62.7456 35.2434 63.6421 34.1109C65.0472 32.3345 66.1804 28.711 66.0258 26.4626L64.0566 32.7298L64.0151 32.8005C63.7503 33.2522 63.5902 33.5253 63.3996 33.7288L59.5052 39.4359C58.7543 40.4759 58.0071 41.511 57.3977 42.5977C55.1456 46.6157 56.5443 48.407 58.4036 50.7884C59.0138 51.5698 59.6735 52.4148 60.2701 53.4228C60.746 54.226 61.1637 55.0854 61.5807 55.9433C61.8961 56.5923 62.2114 57.2411 62.5509 57.8632C62.5655 58.0079 62.2315 58.4715 61.9372 58.8801C61.7734 59.1075 61.6218 59.3179 61.5494 59.4468C60.3719 61.5502 59.8042 64.6754 59.9407 67.0496C59.942 67.0699 59.944 67.0957 59.9463 67.1247C59.9655 67.3693 60.0057 67.8789 59.8173 67.9528C59.7394 67.6165 59.5644 67.3029 59.3911 66.9924C59.2582 66.7542 59.1262 66.5179 59.0399 66.2746C58.6321 65.123 58.6974 63.9139 58.7635 62.6887C58.8242 61.5637 58.8857 60.4253 58.5824 59.3054C58.3318 58.3812 57.7619 57.4818 57.2076 56.6072C56.9006 56.1226 56.5984 55.6457 56.3579 55.1764C56.3428 55.0165 56.6199 54.7739 56.7964 54.6193C56.8301 54.5898 56.8602 54.5635 56.8838 54.5416C57.0284 54.4076 57.4347 54.1121 57.8817 53.7872C58.5937 53.2694 59.4088 52.6767 59.4316 52.5435C59.44 52.492 59.3526 52.1554 59.3358 52.1423C59.1757 52.0194 58.1641 52.8193 57.3172 53.4889C56.8019 53.8964 56.3475 54.2557 56.183 54.3296C56.1669 54.3367 56.1522 54.344 56.1385 54.351L56.1294 54.3556C56.0504 54.3959 56.006 54.4185 55.9195 54.3092C55.5692 53.6922 55.2206 53.0733 54.8718 52.4539L54.8712 52.4528C52.4737 48.1959 50.0655 43.9198 46.9955 40.1074C46.4509 39.4315 45.8631 38.7861 45.2753 38.1408C44.3297 37.1025 43.3843 36.0645 42.6197 34.9003L42.7002 34.791C43.68 33.4605 44.5563 32.2705 45.1137 30.6731C45.7058 28.9768 45.9031 27.2164 46.101 25.4508C46.193 24.6305 46.2851 23.809 46.4169 22.9924C47.7346 14.8278 51.7642 5.56481 59.8545 2.17128Z" fill="currentColor"/>
<path d="M62.5318 23.5659L60.9722 21.6565C57.4852 18.8703 55.5531 23.7324 55.837 26.7989C56.0382 28.9694 58.3441 33.8579 61.0979 32.6732C58.8759 35.6858 55.7962 30.3218 55.2404 28.3525C54.4606 25.5855 54.9841 20.939 58.2698 20.1388C60.4331 19.6118 62.7019 21.2492 62.5318 23.5659Z" fill="currentColor"/>
</svg>
