<svg width="119" height="187" viewBox="0 0 119 187" fill="none" xmlns="http://www.w3.org/2000/svg">
<path fill-rule="evenodd" clip-rule="evenodd" d="M61.312 181.907L61.238 181.908C60.7516 181.916 60.2649 181.925 59.7807 181.903C57.8017 181.814 55.8218 181.66 53.8414 181.478L61.312 181.907ZM53.8414 181.478L32.1919 180.236L32.3253 180.232C34.4514 180.162 36.5805 180.109 38.7136 180.187C42.3372 180.321 45.9628 180.69 49.5878 181.059C51.0058 181.204 52.4237 181.348 53.8414 181.478Z" fill="currentColor"/>
<path fill-rule="evenodd" clip-rule="evenodd" d="M107.511 139.716C107.67 139.853 107.829 139.991 107.99 140.13C108.102 140.227 108.214 140.324 108.327 140.421C108.052 140.184 107.78 139.949 107.511 139.716ZM36.6962 126.787L36.6982 126.786C36.7256 126.772 36.7528 126.757 36.7798 126.743C36.7522 126.758 36.7243 126.772 36.6962 126.787Z" fill="currentColor"/>
<path fill-rule="evenodd" clip-rule="evenodd" d="M53.8414 181.478L61.312 181.907L61.238 181.908C60.7516 181.916 60.2649 181.925 59.7807 181.903C57.8017 181.814 55.8218 181.66 53.8414 181.478ZM53.8414 181.478L32.1919 180.236L32.3253 180.232C34.4514 180.162 36.5805 180.109 38.7136 180.187C42.3372 180.321 45.9628 180.69 49.5878 181.059C51.0058 181.204 52.4237 181.348 53.8414 181.478ZM17.5273 99.2371C17.5278 99.2366 17.5283 99.2362 17.5287 99.2357C17.5286 99.2362 17.5285 99.2366 17.5284 99.2371H17.5273Z" fill="currentColor"/>
<path fill-rule="evenodd" clip-rule="evenodd" d="M112.879 172.715C118.641 167.661 119.667 159.11 117.566 151.954C116.163 147.176 112.094 143.668 108.42 140.501L108.412 140.495L108.327 140.421C108.214 140.324 108.102 140.227 107.99 140.13C107.829 139.991 107.67 139.853 107.511 139.716C108.025 139.705 108.748 139.81 109.557 139.928C111.759 140.25 114.589 140.662 115.495 139.052C116.539 137.194 114.457 136.639 112.994 136.249C112.83 136.205 112.675 136.164 112.532 136.123C109.81 135.339 106.784 134.855 103.961 134.662C101.491 129.555 97.4273 124.801 93.0679 121.251C92.7749 121.012 91.9543 120.43 91.0457 119.787L90.8629 119.658C90.8626 119.658 90.8621 119.657 90.8619 119.657L90.8604 119.656C89.451 118.659 87.9044 117.565 87.808 117.397C87.6834 117.181 87.6881 116.902 87.6929 116.622C87.6962 116.425 87.6995 116.229 87.6582 116.053C87.4339 115.102 85.0996 112.749 83.2701 110.904C82.4077 110.034 81.6572 109.278 81.293 108.834C80.5883 107.976 80.0599 106.938 79.5326 105.902C79.0552 104.964 78.5786 104.028 77.9727 103.228C77.7808 102.975 77.46 102.663 77.1337 102.346C76.6673 101.893 76.1895 101.429 76.0604 101.108C75.8547 100.596 75.8768 100.058 75.8988 99.5213C75.9152 99.1193 75.9317 98.7176 75.8527 98.3272C75.7594 97.8641 75.3886 97.3142 75.0178 96.7644C74.7132 96.3128 74.4087 95.8613 74.2579 95.4577C73.1393 92.4612 72.9133 88.9581 72.6917 85.5213C72.5407 83.1804 72.3917 80.8704 71.9639 78.7721C71.8188 78.0613 71.5091 77.0705 71.1901 76.0499C70.7299 74.5776 70.2503 73.0431 70.2173 72.197C70.2057 71.9087 70.5262 71.117 70.8376 70.3481C71.0641 69.7887 71.2858 69.2412 71.3711 68.9084C72.3889 64.9303 71.8363 60.9991 69.8239 57.4422C69.4291 56.7437 68.9067 56.1296 68.3888 55.5207C67.4775 54.4493 66.5801 53.3943 66.416 51.9245C66.3567 51.3909 66.382 50.8109 66.4073 50.2305C66.4297 49.7166 66.4522 49.2021 66.416 48.7182C66.4806 48.3314 66.8067 48.1557 67.1385 47.977C67.3266 47.8757 67.5166 47.7733 67.6617 47.6309C69.326 45.9984 74.3001 39.3592 75.1597 37.2872C75.6127 36.1956 75.7726 35.0938 75.9301 34.0089C76.0523 33.1665 76.1731 32.3341 76.4286 31.5247C76.7264 30.5806 77.3791 29.4991 78.0399 28.404C78.5958 27.4829 79.1575 26.5522 79.5189 25.6852C81.1041 21.8835 82.6525 15.1993 79.5959 11.8616C79.1152 11.3365 78.6469 10.8164 78.1856 10.304C74.2914 5.97906 70.8943 2.20628 64.7327 0.652981C55.3954 -1.70105 50.6525 2.66749 44.8211 8.03872C44.1031 8.70003 43.3682 9.37695 42.6066 10.058C41.9515 10.6438 41.3398 11.1218 40.7616 11.5736C39.3394 12.6851 38.1197 13.6382 36.9543 15.6494C35.2201 18.6423 34.5028 22.2119 33.7846 25.786C33.3108 28.1437 32.8367 30.5034 32.0699 32.7007C31.44 34.5061 30.6073 36.1114 29.7828 37.701C29.104 39.0098 28.4306 40.308 27.8805 41.6984C27.0294 43.8505 26.8986 45.6156 26.9735 47.9356C21.4467 50.6448 19.4786 55.4996 17.6792 61.0494C17.5895 61.3261 17.4894 61.6308 17.382 61.958C16.3373 65.1395 14.5903 70.4594 14.7893 73.0651C14.8416 73.7524 15.0025 74.4807 15.1662 75.2215C15.3853 76.2127 15.6093 77.2263 15.5845 78.1937C15.5639 79.0124 15.3202 79.8881 15.0776 80.7602C14.8731 81.4949 14.6694 82.227 14.6005 82.9202C14.3972 84.9679 14.8051 86.1115 15.2814 87.4465C15.5093 88.0854 15.7529 88.7682 15.9526 89.615C16.9219 93.7279 16.8418 98.1017 16.0507 102.225C16.2631 102.467 17.1075 101.49 17.2939 101.275L17.3079 101.259C18.2614 100.155 19.4279 98.5902 20.0566 97.3137C20.3582 97.0058 20.4384 97.334 20.4753 97.6302C20.5681 98.3711 20.5164 99.6284 20.4732 100.409C20.1861 105.568 18.5082 110.461 16.8312 115.352C15.6802 118.708 14.5296 122.064 13.8295 125.503C12.2674 133.177 11.8086 141.773 15.9969 148.689C15.3201 149.464 14.6933 150.329 14.0633 151.198C13.1391 152.473 12.2081 153.758 11.103 154.781C9.92775 155.868 8.50477 156.798 7.07545 157.732C3.36863 160.154 -0.380815 162.604 0.0378505 167.909C0.0652049 168.259 0.157848 168.622 0.250406 168.985C0.361271 169.419 0.472014 169.852 0.470289 170.263C0.468545 170.676 0.353907 171.106 0.238266 171.54C0.00435004 172.418 -0.233671 173.312 0.450249 174.112C0.540447 174.218 0.67419 174.292 0.80629 174.365C0.955328 174.447 1.10227 174.528 1.18223 174.652C1.3279 174.879 1.38808 175.181 1.45131 175.498C3.02266 176.762 3.97191 177.216 6.35246 177.55C8.1615 177.857 9.11651 177.766 10.6811 176.957L14.3125 174.959C15.1482 174.682 15.7598 173.959 15.5466 172.925C15.4738 172.572 15.0745 172.041 14.6434 171.467C13.8689 170.437 12.9918 169.27 13.7208 168.755C13.8255 168.681 14.954 168.629 16.1004 168.575L16.1016 168.575L16.1028 168.575C17.0802 168.529 18.0702 168.483 18.4492 168.423C18.8161 168.364 19.341 168.202 19.8796 168.037C20.6461 167.801 21.4405 167.557 21.8475 167.587C22.1238 167.607 22.2472 167.68 22.3358 167.952C22.7936 169.355 22.5932 171.472 22.2209 172.886C22.0722 173.45 21.7949 174.118 21.4985 174.831C20.5464 177.124 19.397 179.892 21.6798 181.219C24.6401 181.283 27.6045 181.279 30.5672 181.275L30.9396 181.274C31.2126 181.274 31.4857 181.274 31.7588 181.273C42.3334 181.265 53.3901 182.122 63.9912 182.976C65.6374 183.109 67.5761 183.624 69.5525 184.149C71.2496 184.6 72.9745 185.058 74.5659 185.288C84.5932 186.734 96.191 187.63 104.449 180.618C105.392 179.818 106.153 178.869 106.902 177.936C107.566 177.108 108.22 176.293 108.984 175.602C109.594 175.05 110.284 174.585 110.975 174.119C111.63 173.677 112.287 173.234 112.879 172.715ZM65.8971 2.03428C69.8376 3.30332 73.258 6.02849 75.9001 9.19734C75.9522 9.25991 76.0119 9.31357 76.0701 9.36585C76.2346 9.51365 76.3866 9.65034 76.3189 9.94572V9.94358L75.897 10.0526C76.1106 10.2126 76.3288 10.3705 76.5479 10.5292C77.8077 11.441 79.0987 12.3754 79.733 13.8544C80.9112 16.6006 80.243 19.8706 79.6529 22.758C79.5938 23.0472 79.5355 23.3326 79.4799 23.6133C79.1714 23.6535 79.2304 23.3084 79.2744 23.0507C79.2842 22.993 79.2933 22.9396 79.2974 22.8959C79.3278 22.5672 79.4076 22.2198 79.4876 21.8715C79.5766 21.4835 79.666 21.0944 79.6877 20.7288C79.8163 18.5553 79.0949 16.0717 78.2153 14.111C78.8321 14.0811 79.0614 14.5339 79.2909 14.987C79.382 15.1669 79.4731 15.3468 79.5885 15.4966C79.8068 13.1573 77.1141 12.9328 75.3907 13.1659C71.0959 13.7464 63.14 21.3468 60.1963 24.6803C57.8337 27.3552 55.5629 30.3262 54.1907 33.6533C53.9317 33.6958 53.9511 33.5128 53.972 33.3172C53.979 33.2516 53.9861 33.1846 53.9829 33.1241C53.7298 28.3152 54.2698 21.8931 55.3509 17.2039C55.5752 16.231 55.8716 15.2866 56.166 14.3485L56.1663 14.3474C56.359 13.7334 56.5508 13.1221 56.721 12.5073C56.3466 12.0016 54.7676 17.421 54.678 17.8037C53.253 23.8923 52.675 33.1113 54.1264 39.1721C54.2798 39.8118 54.494 40.4201 54.7089 41.0301L54.7092 41.0311C54.7231 41.0706 54.7371 41.1102 54.751 41.1497C54.8484 41.4267 54.9451 41.7044 55.0355 41.986C52.6359 39.4366 51.5781 35.8262 50.5984 32.4824C50.567 32.3753 50.5357 32.2684 50.5044 32.1619L49.1396 24.4707C49.3284 31.9641 51.0961 40.5138 57.3559 45.188C53.3004 43.6176 50.5724 39.9357 48.0498 36.5309L47.9773 36.433C47.7839 36.7537 48.122 37.389 48.2999 37.7233C48.3112 37.7446 48.3218 37.7646 48.3317 37.7833C50.0403 41.0291 53.8827 44.5059 57.2399 45.8434C57.5747 45.9767 57.9234 46.0374 58.2772 46.0991C58.7091 46.1743 59.1485 46.2508 59.5793 46.4624C59.8578 46.599 60.1305 46.8181 60.4134 47.0452C60.8301 47.3799 61.2687 47.7322 61.7794 47.864C62.029 48.0585 62.0185 48.0674 61.8636 48.1984C61.8511 48.2089 61.8377 48.2202 61.8234 48.2325C61.8187 48.2365 61.8139 48.2407 61.809 48.245C61.8053 48.2482 61.8015 48.2515 61.7977 48.2548C61.7934 48.2586 61.789 48.2625 61.7846 48.2665C61.7804 48.2702 61.7763 48.2739 61.7721 48.2777C58.5003 51.2285 53.7034 50.6159 49.7672 49.7852C47.8559 49.3822 45.9371 48.7775 44.0115 48.1706C38.673 46.4882 33.2822 44.7892 27.8531 47.3262C27.7516 43.9541 29.265 41.0174 30.7871 38.064C32.1753 35.3703 33.5707 32.6626 33.7543 29.5982L34.172 32.0561L34.4399 36.0578L35.4366 39.6372C35.3787 38.7945 35.2472 37.9542 35.1157 37.114C34.9862 36.2859 34.8566 35.4577 34.7974 34.6273C34.3428 28.2511 35.0833 18.3949 39.7483 13.5668C41.6412 12.1223 43.369 10.566 45.0429 9.05832C51.003 3.68987 56.2799 -1.06326 65.8971 2.03428ZM77.3789 13.8961C78.037 14.2297 78.9367 18.4056 78.8481 19.3454C75.2947 15.9274 69.789 18.3917 65.9952 20.1975C67.6796 18.6376 69.6519 16.9377 71.6211 15.7553C72.776 15.0614 76.1638 13.2814 77.3789 13.8961ZM55.7095 32.3105C59.343 25.6403 65.4805 19.3219 73.3277 18.5532H73.3245C75.1186 18.3778 78.7595 18.6996 78.8607 21.1639C78.8977 22.0556 78.1678 25.8456 77.8535 26.7746C77.6279 27.4424 77.2448 28.0679 76.862 28.6929C76.5197 29.2516 76.1777 29.81 75.9486 30.3979C75.5524 31.4152 75.3452 32.486 75.1365 33.5638C74.8742 34.9189 74.6097 36.2854 73.9647 37.5716C73.2106 39.0769 68.3367 45.8177 67.1628 46.9114C65.1915 48.7492 62.8595 47.6459 60.9093 46.395C55.9911 43.2411 52.5622 38.088 55.7095 32.3105ZM59.8873 53.8478C60.8091 53.6083 62.4545 52.7905 63.0441 52.0303L63.043 52.0293L62.9326 52.0821C61.3496 52.8394 59.7026 53.6273 57.8854 53.5217C56.9009 53.4641 55.9743 53.1392 54.9602 52.7976L54.809 52.7594C54.4325 52.6326 54.0648 52.5087 53.714 52.4045L49.7672 50.5346C54.177 51.5033 59.1342 52.118 62.3437 48.2093L65.567 48.8294C65.7864 52.5531 60.71 58.5669 57.2294 59.0587C54.8713 59.3919 52.2006 58.1992 49.8197 57.136C49.1144 56.8211 48.4346 56.5175 47.7959 56.2683L43.867 54.0563C45.2772 55.2526 46.9848 56.4949 48.6375 57.3385C50.2534 58.1638 54.6948 59.9792 56.374 59.9172C60.1151 59.7803 64.2581 55.7113 65.3645 52.2431C65.4204 52.1854 65.6366 52.3596 65.6819 52.4526C66.145 53.4073 64.8751 59.1303 64.4099 60.3555C63.0947 63.8195 60.4969 64.9281 56.934 64.6341C56.98 65.0943 57.6804 65.0487 58.0043 65.0641L58.0816 65.0682C62.2087 65.3216 64.2802 63.2774 65.4214 59.4585L66.203 54.1664C67.5499 58.4429 68.323 62.42 66.9887 66.8151C66.3496 68.9202 65.6649 70.681 63.2939 71.1001C64.5701 71.5876 65.9122 70.5908 66.4586 69.465C68.3019 66.0198 68.6209 62.2666 67.5056 56.9052C67.4549 56.6388 67.4037 56.3696 67.3526 56.0972C67.3444 56.0531 67.3283 55.9984 67.311 55.9397C67.242 55.7057 67.1539 55.4071 67.4676 55.4472C70.7362 60.0209 72.159 65.1826 69.8903 70.6083C65.8728 80.2165 54.3183 72.4173 49.3442 67.9452C48.7147 67.0256 46.7482 65.6927 45.9304 64.5885L45.7573 64.4114C40.8106 59.3482 34.8975 53.2959 27.7438 56.1733C19.5166 59.4818 18.464 77.0603 17.7803 86.426C17.6906 87.6555 17.6092 88.7703 17.5231 89.7284L17.1054 91.9724C17.2559 90.5937 16.7235 89.1846 16.2175 87.845C15.8967 86.9959 15.5865 86.1747 15.4674 85.407C15.1277 83.2228 17.0125 74.9026 17.7594 71.6053C19.2041 65.2281 21.1131 58.6744 26.1645 54.1664C24.44 54.9415 22.8832 56.6671 21.8623 58.2419C18.5631 63.3298 17.1603 70.201 16.4684 76.1656L15.6489 71.8207C16.1794 70.1176 16.635 68.3441 17.0931 66.5609C19.0022 59.13 20.9548 51.5295 28.5524 48.1462C34.135 45.9346 38.6704 46.7708 48.6925 51.136C50.4056 51.8569 52.0712 52.5507 53.6633 53.1005C55.815 53.8435 57.5932 54.4444 59.8873 53.8478ZM53.0737 72.0677C57.6882 75.2793 65.3465 78.8897 69.3703 72.9636V72.9614C69.5854 72.9126 69.6174 73.0779 69.6507 73.2495C69.6596 73.2958 69.6687 73.3428 69.6815 73.3859C71.3943 79.1826 72.1875 83.6408 70.4809 89.5755C69.9296 91.4922 69.2554 93.3912 68.5796 95.2947C66.9462 99.895 65.3036 104.521 65.3655 109.487L66.6882 103.247L69.3661 94.9638L68.7269 102.964C68.4991 108.747 69.3904 114.507 71.2667 119.953L71.368 118.033C74.0892 120.146 77.4094 122.173 80.7445 123.055C81.6481 125.264 83.3094 126.68 84.9618 128.089C86.7987 129.655 88.6246 131.211 89.3869 133.838C89.2836 133.92 87.3323 133.472 87.0834 133.292C86.9054 133.163 86.7897 132.942 86.6701 132.713C86.5594 132.502 86.4454 132.284 86.2755 132.127C85.406 131.325 84.0189 130.576 82.6388 129.831C81.5412 129.239 80.4479 128.649 79.6233 128.036C79.0464 127.607 78.4953 127.067 77.9476 126.53C77.4318 126.025 76.919 125.522 76.3906 125.118C75.4225 124.377 74.4232 123.958 73.4136 123.535C72.7227 123.245 72.027 122.953 71.3332 122.554C69.1243 121.286 67.0491 119.252 65.0072 117.25C63.4691 115.743 61.9496 114.253 60.4062 113.124C60.0301 112.849 59.4911 112.566 58.9292 112.272C57.8947 111.73 56.7825 111.147 56.4668 110.495C56.3489 110.251 56.2862 110.004 56.2228 109.754C56.1199 109.35 56.0154 108.939 55.6715 108.524C55.427 108.23 55.1125 108.064 54.8228 107.911C54.5715 107.778 54.3388 107.655 54.1865 107.467C53.9468 107.17 53.8081 106.53 53.6674 105.881C53.5598 105.384 53.4511 104.882 53.2952 104.525C53.0267 103.909 52.703 103.346 52.3742 102.774C51.9114 101.969 51.4385 101.147 51.0951 100.133C50.4043 98.0947 50.0148 95.9384 49.6271 93.7925C49.4176 92.6326 49.2086 91.4757 48.9529 90.342C48.7827 89.5869 48.5482 88.8555 48.3139 88.1245C47.9267 86.9169 47.5398 85.7099 47.4425 84.3967C47.3231 82.7855 47.3437 81.1604 47.3644 79.5333C47.4079 76.1033 47.4516 72.6646 46.1832 69.3297C45.8741 69.2943 45.9434 69.594 45.9995 69.8372C46.0147 69.9028 46.0289 69.9642 46.0345 70.0139C46.0876 70.4981 46.2003 70.9886 46.3125 71.4766C46.421 71.9488 46.529 72.4186 46.5819 72.8781C46.8804 75.4589 47.1314 78.6064 47.028 81.1861C47.0255 81.2486 47.0335 81.3272 47.0418 81.4098C47.0681 81.6693 47.0984 81.9684 46.8192 81.9302C45.9607 75.0462 43.5464 68.0478 39.1239 62.7076C38.8667 62.8575 39.0462 63.0577 39.1962 63.2249C39.243 63.2771 39.2869 63.3261 39.3138 63.3694C43.5358 70.2063 45.7444 77.0733 46.604 85.1354L42.267 77.6794L38.2812 72.321C38.123 72.2879 38.1451 72.5285 38.1799 72.6364C38.4837 73.5914 39.9528 75.6696 41.26 77.519L41.2606 77.5198C42.0181 78.5915 42.7214 79.5864 43.1118 80.241C44.8268 83.117 46.8466 86.8033 47.8106 90.0042C48.2374 91.4218 48.4993 92.8955 48.7622 94.3753C49.0036 95.7335 49.2459 97.0969 49.6174 98.4267C49.9033 99.4498 50.2733 100.441 50.643 101.432C50.8473 101.98 51.0517 102.528 51.2417 103.081C45.2972 99.0649 39.433 94.5918 35.2668 88.6218C34.7146 87.8308 34.248 87.0067 33.7806 86.1813C33.4875 85.6635 33.1939 85.145 32.8789 84.634C32.7449 84.417 32.4422 83.9765 32.4907 84.5988C36.486 93.2703 44.0495 99.0874 51.7785 104.14C52.4178 104.714 52.6006 105.478 52.7805 106.23C52.9959 107.13 53.207 108.013 54.1928 108.529C50.5846 109.185 46.9584 112.264 46.6093 116.11L48.4171 112.925L48.4314 112.909C49.5092 111.741 50.7556 110.39 52.2194 109.729C52.6046 109.555 52.9843 109.46 53.3572 109.367C53.8247 109.25 54.2814 109.136 54.7244 108.872C54.8852 108.883 55.1963 109.631 55.4744 110.3C55.6504 110.724 55.8132 111.115 55.9162 111.268C56.4547 112.066 57.3767 112.531 58.3058 112.999C58.8944 113.296 59.4857 113.594 59.9843 113.979C61.4522 115.113 62.8849 116.505 64.3339 117.914C66.4394 119.96 68.5795 122.041 70.9123 123.409C71.5757 123.797 72.298 124.079 73.0096 124.356C73.7541 124.646 74.4868 124.931 75.1281 125.33C75.8899 125.804 76.6012 126.5 77.3218 127.206C77.931 127.803 78.5471 128.406 79.2056 128.887C80.1622 129.584 81.2081 130.185 82.2569 130.787C83.3994 131.443 84.5454 132.101 85.5825 132.889C86.4537 133.882 85.2809 137.281 84.7894 138.47C84.1302 140.062 81.8467 143.715 80.3152 144.411C79.6756 144.703 78.4588 143.954 77.4792 143.35C77.0858 143.108 76.7307 142.89 76.4665 142.771C75.4855 142.332 74.3847 142.013 73.3034 141.7C72.1841 141.375 71.0857 141.057 70.1624 140.617C69.609 140.353 69.1232 139.908 68.6612 139.485C68.2753 139.131 67.906 138.793 67.5277 138.588C66.6752 138.126 65.6003 137.759 64.4626 137.37C63.1752 136.929 61.8065 136.462 60.5866 135.798C55.2633 132.9 49.5879 129.212 44.6454 125.682C44.1572 125.333 43.667 124.992 43.1794 124.653L43.1778 124.652C40.1289 122.532 37.1831 120.484 35.4693 117.04C33.7987 113.682 32.1377 109.644 30.6795 106.1C30.6159 105.945 30.5527 105.791 30.4899 105.639C26.9408 97.0154 23.8378 88.145 21.317 79.1548C20.9733 79.1192 21.0723 79.7264 21.1186 80.0102C21.1237 80.0416 21.1282 80.0692 21.1313 80.0914C21.4404 82.2553 22.2249 84.6097 22.9628 86.8242C23.1969 87.5265 23.4262 88.2148 23.6342 88.8784C23.6694 89.4365 23.4578 89.1367 23.3065 88.9223C23.2857 88.8928 23.2659 88.8648 23.2482 88.841C23.0889 88.6269 22.9666 88.3885 22.8467 88.1547C22.7522 87.9706 22.6593 87.7894 22.551 87.6254L22.5426 87.6127L22.5333 87.5986L22.5321 87.5968C22.3836 87.3715 22.1286 86.9848 22.166 87.588C22.396 88.0582 22.6546 88.5154 22.9169 88.9711L22.9605 89.0469L23.0172 89.1451L23.0201 89.1503L23.0294 89.1664C23.4377 89.874 23.8462 90.5821 24.1616 91.3342C24.8028 92.8651 27.0779 99.0564 27.2224 100.408C27.6949 104.81 26.9946 110.531 26.1023 114.869C25.8006 116.335 25.4229 117.804 25.0438 119.278C24.0113 123.294 22.9693 127.346 23.4306 131.489L24.1173 125.459C24.403 124.231 24.6983 123.02 24.9907 121.822C26.6223 115.134 28.1659 108.807 27.4924 101.628C27.4874 101.575 27.472 101.509 27.4558 101.439C27.3997 101.198 27.3328 100.91 27.6401 100.944C27.7476 101.221 27.855 101.498 27.9624 101.774C28.039 101.972 28.1156 102.17 28.1921 102.367L28.212 102.419L28.2129 102.421C28.2132 102.422 28.2135 102.422 28.2138 102.423L28.2155 102.427C29.1776 104.91 30.1435 107.403 31.1881 109.846C31.4435 110.443 31.7043 111.063 31.9698 111.694C32.8195 113.714 33.716 115.846 34.6266 117.681C36.379 121.213 39.9622 123.606 43.3694 125.881C44.57 126.683 45.7491 127.471 46.8181 128.288C46.8646 128.572 46.6517 128.533 46.4509 128.496C46.4262 128.492 46.4017 128.487 46.3778 128.483C46.3577 128.48 46.3381 128.477 46.3193 128.475C43.1836 128.151 40.9855 128.417 37.969 129.247C37.206 129.457 36.4602 129.744 35.7152 130.03C34.587 130.464 33.4608 130.897 32.2798 131.061C31.5519 130.399 35.968 127.689 37.4111 126.804C37.6241 126.673 37.7724 126.582 37.8298 126.543L37.8519 126.528C38.0732 126.379 38.4673 126.114 37.8667 126.153C37.5694 126.327 37.1953 126.525 36.7798 126.743L36.6982 126.786L36.6962 126.787L36.6953 126.788C34.9333 127.713 32.4893 128.996 31.9708 130.432C31.2096 132.539 33.9941 131.354 35.6089 130.667C35.9874 130.505 36.3023 130.372 36.4913 130.314C40.2947 129.157 44.6454 128.032 48.5036 129.357L43.6603 130.959C41.9278 131.787 40.4567 133.008 38.989 134.227L38.8397 134.351C38.7917 134.391 38.7437 134.431 38.6957 134.471L37.1273 136.616C40.2873 133.355 44.2045 130.551 48.7715 129.815C50.55 130.803 52.3446 131.946 54.1567 133.101C57.3256 135.12 60.5485 137.174 63.833 138.49C64.3643 138.702 64.7876 138.861 65.1532 138.999L65.1559 139L65.1569 139C66.3052 139.432 66.8847 139.65 68.4559 140.64C69.9032 141.55 71.304 141.999 72.7447 142.46C73.5664 142.723 74.4014 142.99 75.2652 143.35C75.7125 143.536 76.3764 143.911 77.0652 144.301C78.0653 144.866 79.119 145.461 79.6423 145.553C80.334 145.674 80.7336 145.277 81.1464 144.866C81.4304 144.584 81.7207 144.295 82.1167 144.164C82.2412 144.263 82.3645 144.362 82.4869 144.459C82.5783 144.532 82.6691 144.605 82.7594 144.677L82.8221 144.727L82.8249 144.729L82.83 144.734C85.2165 146.643 87.2963 148.306 90.3984 149.158C91.0313 149.333 91.7779 149.448 92.5321 149.56L92.6287 149.574L92.6836 149.582C93.712 149.734 94.7414 149.886 95.5033 150.178C95.8259 150.302 96.1015 150.604 96.3954 150.927C96.7048 151.266 97.0346 151.628 97.4609 151.827C98.7519 152.428 100.567 152.722 101.812 151.88C102.121 151.672 104.307 149.339 104.457 149.009C104.745 148.371 104.671 147.973 104.607 147.632C104.567 147.422 104.532 147.233 104.59 147.024C104.624 146.901 104.72 146.806 104.827 146.7C104.971 146.557 105.135 146.395 105.19 146.121C105.528 144.432 104.442 142.63 103.486 141.044L103.485 141.043C103.182 140.54 102.892 140.059 102.665 139.61C103.104 139.647 103.535 139.571 103.966 139.494C104.528 139.395 105.091 139.295 105.67 139.448C106.111 139.564 109.65 142.765 110.255 143.343C112.405 145.402 114.867 147.936 116.043 150.72C118.55 156.652 118.111 165.253 113.828 170.255C113.364 170.798 110.62 173.382 110.143 173.57C109.877 173.676 109.752 173.533 109.834 173.257C109.946 172.879 110.16 172.455 110.378 172.02C110.592 171.594 110.81 171.159 110.943 170.749C110.954 170.716 110.969 170.672 110.988 170.619C111.136 170.193 111.479 169.205 111.097 169.089C108.544 175.021 104.652 180.412 98.6537 183.072C88.7921 187.445 72.6357 184.683 62.7255 181.053C56.1219 178.635 49.7229 175.529 43.9704 171.44L43.6592 171.543C47.5174 174.724 51.9831 177.08 56.4373 179.312L62.4123 181.903C62.0466 181.895 61.6794 181.9 61.312 181.907L61.238 181.908C60.7516 181.916 60.2649 181.925 59.7807 181.903C57.8017 181.814 55.8218 181.66 53.8414 181.478L32.1919 180.236C32.0932 180.24 31.9945 180.243 31.8957 180.246C31.7352 180.252 31.5744 180.257 31.4139 180.262C28.1235 180.374 24.8392 180.486 21.5585 180.168C20.8934 178.428 21.6408 176.824 22.3822 175.232C22.8531 174.221 23.3215 173.216 23.4243 172.184C23.6208 170.217 23.3243 168.486 23.0261 166.745C22.8297 165.599 22.6326 164.448 22.5753 163.224C22.3443 158.289 23.6901 153.889 26.7151 150.06L30.5933 152.541C28.3235 155.658 27.9765 159.167 28.6979 162.893C29.0156 162.894 28.9558 162.189 28.9262 161.841C28.9217 161.787 28.9179 161.743 28.9163 161.71C28.9046 161.49 28.8919 161.278 28.8796 161.074C28.8071 159.87 28.748 158.889 28.9996 157.542C29.3097 155.881 30.0712 154.184 31.1396 152.872C38.2115 156.529 46.0229 157.681 53.8278 158.833C60.6295 159.837 67.4263 160.84 73.7242 163.498C74.8883 163.99 76.0996 164.642 77.333 165.306C79.6229 166.539 81.9904 167.814 84.2799 168.18C84.3122 168.185 84.3542 168.194 84.4023 168.204C84.6909 168.265 85.2012 168.372 85.1722 168.024L81.5155 166.709L73.1621 162.256L81.9047 162.47C84.2778 162.716 86.5518 163.271 88.7562 164.174C88.1972 163.502 87.0391 163.079 86.2185 162.796C83.1716 161.746 79.9713 161.654 76.7706 161.562C74.6966 161.503 72.6218 161.443 70.5885 161.123C69.0093 160.874 67.3767 160.456 65.7416 160.038C64.427 159.702 63.1108 159.366 61.8195 159.116C59.1813 158.606 56.4661 158.208 53.7308 157.807C45.9551 156.668 38.0166 155.504 31.2198 151.682C30.1052 151.055 29.0358 150.237 27.9691 149.421C25.1142 147.235 22.2785 145.065 18.6475 146.62C18.1922 146.815 17.8441 147.065 17.5019 147.31C17.1822 147.539 16.8675 147.765 16.4747 147.939C12.4024 139.752 13.4476 130.643 15.7343 122.093C16.3356 119.845 17.1069 117.635 17.8787 115.423C19.3325 111.258 20.7878 107.088 21.1102 102.655L22.3706 112.162C22.3893 112.592 22.3808 113.025 22.3722 113.457C22.3639 113.88 22.3555 114.304 22.3727 114.725C22.3753 114.788 22.3673 114.866 22.359 114.949C22.3327 115.209 22.3023 115.508 22.5816 115.469C22.4431 114.682 22.5591 113.8 22.6685 112.968C22.7365 112.45 22.802 111.952 22.802 111.508C22.805 107.533 22.2076 102.62 21.5672 97.3534C19.931 83.8965 18.0144 68.1347 25.1182 59.8306C31.8889 51.9163 40.4647 60.2625 47.2538 66.87C49.413 68.9715 51.3915 70.897 53.0737 72.0677ZM18.7919 82.4701L19.2096 79.7995C19.3037 81.0418 19.3138 82.312 19.3239 83.58C19.3335 84.7858 19.343 85.9896 19.4248 87.1657C19.483 88.0033 19.6457 89.0928 19.8153 90.2282C20.0945 92.0971 20.3922 94.0904 20.2728 95.2888C20.1589 96.4225 18.3584 98.4212 17.5287 99.2357C17.5286 99.2362 17.5285 99.2366 17.5284 99.2371H17.5273C17.5278 99.2366 17.5283 99.2362 17.5287 99.2357C17.7831 98.196 17.7569 97.1306 17.7306 96.0644C17.7155 95.4481 17.7003 94.8316 17.7393 94.2197C17.8413 92.6241 18.0342 91.0303 18.2274 89.435C18.5076 87.1201 18.7882 84.8018 18.7919 82.4701ZM70.001 99.8775C70.1413 96.2927 70.6255 92.2739 71.6591 88.841C71.6911 88.7351 71.6879 88.6378 71.6852 88.5567C71.6791 88.3711 71.6758 88.2702 72.1052 88.3439H72.1063C72.1299 88.5641 72.1536 88.7922 72.1781 89.0266C72.3906 91.0666 72.6521 93.5757 73.2623 95.3957C73.4627 95.9947 73.7779 96.5124 74.0841 97.0152C74.6851 98.0022 75.251 98.9317 74.8444 100.305C73.874 99.824 71.3943 99.3343 71.0547 100.733C72.1843 100.212 73.7274 100.062 74.7463 100.941C75.1766 101.313 76.8694 103.232 77.2512 103.742C77.8188 104.5 78.2584 105.394 78.7037 106.3C79.3235 107.562 79.9543 108.845 80.9565 109.813L75.7672 108.235L75.0585 108.421L82.334 110.98L86.8577 116.221C86.6176 116.208 86.3863 116.188 86.1588 116.168C85.4836 116.109 84.8422 116.053 84.107 116.207C81.5904 116.736 79.6307 119.283 79.6929 121.881C79.4208 122.165 73.3487 118.458 72.8499 118.031C70.5854 116.096 69.9842 111.437 69.7912 108.528C69.6857 106.941 69.5338 102.435 69.7933 101.058C69.9873 100.029 72.4174 98.3358 73.5808 98.8083C73.6386 98.5326 73.19 98.4646 73.0051 98.4366L73.0028 98.4363C71.9491 98.277 71.3068 98.5325 70.52 99.2328C70.4126 99.3283 70.3606 99.4589 70.3133 99.5777C70.2468 99.7446 70.1897 99.8881 70.001 99.8775ZM100.657 134.065C100.275 134.058 98.9216 133.923 98.5978 133.846C98.5721 133.84 98.4579 133.705 98.3175 133.54C98.1531 133.346 97.9522 133.11 97.8163 132.988L97.8153 132.989C97.7098 132.264 94.7597 129.26 94.0246 128.607C93.5162 128.156 91.2749 126.229 90.777 126.378C89.8312 126.66 90.5749 128.249 91.3629 129.932C92.1574 131.628 92.9969 133.421 92.1946 134.069C90.5054 134.331 89.8814 132.961 89.2561 131.588C89.0244 131.079 88.7925 130.57 88.5062 130.143C87.8063 129.1 86.798 128.297 85.7799 127.487C84.9694 126.842 84.1527 126.192 83.4805 125.411C83.06 124.922 82.7007 124.377 82.3406 123.83C81.8319 123.058 81.3216 122.283 80.6348 121.663C80.5219 118.785 83.3507 116.611 86.0772 117.012C87.21 118.133 88.6693 119.117 90.1221 120.096C91.6235 121.109 93.1178 122.116 94.2376 123.265C94.72 123.76 95.0061 124.452 95.2998 125.162C95.4844 125.608 95.6721 126.062 95.9136 126.479C96.6408 127.733 97.5701 128.97 98.501 130.208C99.3793 131.377 100.259 132.548 100.974 133.74C101.018 134.074 100.992 134.074 100.741 134.067C100.715 134.066 100.687 134.065 100.657 134.065ZM96.5538 125.725C97.5157 126.266 103.347 134.003 102.873 134.483L101.806 134.123L96.5538 125.725ZM96.9725 133.626L93.1787 133.843C93.6428 132.49 92.7787 131.034 91.9961 129.714C91.4751 128.836 90.9903 128.019 90.9574 127.333C90.9026 126.185 92.1814 127.465 92.7247 128.009L92.7257 128.01C92.7885 128.073 92.8414 128.126 92.8812 128.164L92.8802 128.163C94.1546 129.38 94.2601 129.54 95.5289 131.459L95.5299 131.461C95.8956 132.014 96.3579 132.713 96.9725 133.626ZM107.413 138.535C106.382 138.46 102.39 138.329 102.059 139.549C101.927 140.04 102.456 140.993 103.052 142.065C103.861 143.521 104.792 145.198 104.348 146.231L104.349 146.23C104.191 146.411 103.55 145.754 102.824 145.009C101.97 144.133 100.998 143.136 100.558 143.243C100.602 143.936 101.55 144.926 102.423 145.838C103.185 146.634 103.889 147.37 103.882 147.794C103.871 148.401 103.241 149.271 102.769 149.645L102.76 149.635L102.75 149.625L102.741 149.616L102.725 149.6C102.682 149.556 102.621 149.494 102.548 149.418L102.546 149.416C101.785 148.633 99.5868 146.372 99.2919 146.661C99.4945 147.571 100.102 148.165 100.702 148.75C101.207 149.244 101.707 149.731 101.954 150.398C101.156 152.372 98.535 151.467 96.9954 150.936L96.9746 150.929L98.0251 150.401C96.4899 149.416 94.678 149.097 92.8571 148.777C91.4271 148.526 89.9907 148.274 88.6792 147.697C87.3106 147.094 86.0644 146.126 84.8358 145.171C84.1066 144.604 83.3829 144.041 82.6441 143.564C84.9887 140.956 86.5202 137.587 86.8598 134.056C89.0709 135.333 91.451 135.097 93.8395 134.86C94.9966 134.746 96.1556 134.631 97.2984 134.688C98.4906 134.747 99.7929 134.969 101.076 135.188C101.869 135.323 102.654 135.457 103.402 135.551C104.044 135.631 104.739 135.703 105.465 135.779C108.357 136.081 111.733 136.433 114.102 137.521C115.074 137.967 115.326 138.518 114.255 139.078C113.066 139.698 111.254 139.295 109.595 138.925C108.805 138.749 108.05 138.581 107.413 138.535ZM22.0932 157.527C21.5321 160.393 21.6292 163.865 22.2061 166.718V166.721C21.407 166.839 20.6154 167.018 19.8232 167.197C18.6944 167.452 17.564 167.708 16.4083 167.789C15.2416 167.87 14.0516 167.83 12.8602 167.79C10.3667 167.707 7.86637 167.623 5.55828 168.648C5.47439 169.316 6.25269 169.05 6.90475 168.827C7.16265 168.739 7.4008 168.657 7.55804 168.643C8.45775 168.561 9.41118 168.597 10.3653 168.633L10.3665 168.633C11.2352 168.666 12.1043 168.699 12.934 168.643C12.9118 169.298 12.8929 169.887 13.0753 170.53C13.1756 170.884 13.528 171.321 13.8911 171.771C14.5969 172.645 15.3102 173.902 14.3579 174.04C13.2535 174.864 13.5699 175.024 11.7232 175.42C11.2823 176.462 10.9858 175.773 9.87838 176.307C8.82366 176.957 9.24555 176.682 7.55804 177.163C6.84171 176.498 5.90952 176.443 4.99927 176.389C3.63105 176.308 2.31239 176.231 1.85092 174.089C0.581575 173.69 0.716612 172.231 1.06676 171.214C1.199 170.83 1.3189 170.482 1.32988 170.229C1.34355 169.914 1.23854 169.571 1.13121 169.221C1.03976 168.922 0.946621 168.618 0.923814 168.321C0.503683 162.868 4.0029 160.667 7.62311 158.39C9.02875 157.506 10.4528 156.611 11.6725 155.509C12.7558 154.53 13.7455 153.238 14.7299 151.953C17.7088 148.063 20.6411 144.235 25.9841 149.333C25.8357 149.575 25.686 149.818 25.5362 150.061C24.0935 152.4 22.635 154.765 22.0932 157.527Z" fill="currentColor"/>
<path d="M72.4594 137.092C73.1187 137.036 74.2612 136.792 74.9278 136.609C76.2444 136.248 77.3721 135.363 78.678 134.986C77.8341 135.972 74.738 137.514 73.5143 137.514H69.2989C69.1723 137.514 68.8242 137.22 68.5626 137.301V137.092C69.8295 137.014 71.2062 137.198 72.4605 137.092H72.4594Z" fill="currentColor"/>
<path d="M51.9115 48.7758L48.9557 46.78C42.6885 39.5951 38.3961 30.2392 38.6346 20.5352L40.0017 28.7549C42.0809 36.3301 45.9756 43.5699 51.9115 48.7758Z" fill="currentColor"/>
<path d="M37.1582 50.0417C31.5039 48.6155 25.7568 50.855 21.7735 54.8911L23.3749 52.8055C26.4246 49.9837 32.313 48.1482 36.3142 49.5164C36.6297 49.624 37.0664 49.6387 37.1571 50.0406L37.1582 50.0417Z" fill="currentColor"/>
</svg>
