<svg width="136" height="196" viewBox="0 0 136 196" fill="none" xmlns="http://www.w3.org/2000/svg">
<path d="M133.492 26.8776C132.375 27.9336 131.255 29.3275 130.135 30.502C129.202 31.4822 127.124 33.9149 125.988 34.3352C125.101 34.6637 123.702 34.4868 123.017 35.088C121.703 36.2411 120.505 40.4148 118.998 40.9109C117.662 41.3512 117.03 40.5239 116.06 39.8256C115.631 40.1701 115.183 40.7646 114.65 40.9495C114.021 41.169 113.285 40.895 112.871 41.0333C112.688 41.0945 112.478 41.6238 112.079 41.8366C111.455 42.1692 110.787 41.9484 110.388 42.1412C110.234 42.2157 109.435 43.3596 109.196 43.6096C107.293 45.6113 105.241 47.0677 102.407 45.7377C101.037 45.0953 100.588 44.3305 99.7478 43.2146C99.648 43.0816 99.6587 43.1574 99.5483 43.2731C98.3552 44.5327 97.3417 46.6075 96.0489 47.887C95.074 50.9422 92.1439 53.3855 90.8138 56.0855C90.0424 57.6523 89.7405 59.9745 89.114 61.7009C87.5499 66.009 84.3964 69.4817 82.6141 73.6634C83.2419 75.5574 81.5301 76.8063 80.6217 78.2148C79.5151 79.9306 78.7942 82.6918 76.2272 82.4005C75.0301 84.9728 73.478 87.3749 72.2543 89.9326C71.04 92.473 70.1888 94.1182 70.5013 97.063C70.7474 99.3906 72.1386 102.607 72.0894 104.797C72.0096 108.282 71.5135 112.429 69.7578 115.501C69.5277 115.904 68.5408 116.949 68.5222 117.046C68.4717 117.302 68.8095 117.889 68.7297 118.458C68.5954 119.421 67.6244 120.328 67.5526 120.88C67.4262 121.846 68.3599 123.7 68.4743 124.894C68.6938 127.159 67.9756 129.196 67.8279 131.396C67.5114 136.104 67.8545 141.033 67.2906 145.764C67.8053 148.521 69.1699 151.148 69.295 154C69.3734 155.766 68.751 156.329 67.8492 157.708C68.7204 158.962 69.5038 160.264 70.1542 161.653C70.2393 161.834 70.1927 162.102 70.2925 162.313C70.5505 162.858 73.7746 164.884 74.4875 165.3C78.713 167.77 82.9958 167.584 86.9101 170.966C88.7749 172.578 88.5208 174.316 86.4034 175.508C84.1782 176.76 82.1685 176.003 79.8702 175.879C78.5707 175.81 77.1622 175.989 75.8761 175.883C72.8196 175.629 70.1768 173.884 67.1908 173.396C63.3909 172.773 58.9272 174.335 55.2895 172.928C52.9061 172.006 52.531 170.632 52.5244 168.233C52.5217 167.03 52.0828 166.078 51.9937 164.785C51.9405 164.011 52.1187 163.01 51.9697 162.282C51.8766 161.827 51.3885 161.207 51.2289 160.762C50.5173 158.78 51.2781 157.123 51.1996 155.205C51.0892 152.529 49.6781 148.628 49.1141 145.852C47.9264 140.01 47.8998 134.263 47.3265 128.354L46.9461 126.542C46.6908 127.566 45.7584 128.747 45.7358 129.801C45.7092 131.035 46.2252 132.523 46.2851 133.784C46.3835 135.849 45.6839 137.78 45.6081 139.768C45.5084 142.343 46.2452 145.172 46.4115 147.757C46.5777 150.341 46.2505 152.883 46.1481 155.471C45.9792 159.752 49.7233 163.22 49.4772 167.711C49.416 168.822 48.763 170.531 48.9705 171.534C49.0875 172.098 49.7166 172.793 49.9348 173.361C50.2327 174.135 50.7022 175.811 50.903 176.649C51.0001 177.055 50.8259 177.41 51.06 177.822C51.4444 178.498 55.0421 181.355 55.8694 181.924C57.262 182.88 58.8408 183.532 60.232 184.478C61.4104 185.279 62.4652 186.36 63.5811 187.247C65.0867 188.443 67.6284 189.362 67.131 191.751C66.982 192.461 65.9791 193.381 65.3434 193.687C62.7099 194.959 60.9462 195.63 57.923 195.71C53.8145 195.819 49.432 195.025 45.6999 193.291C43.641 192.334 41.7882 190.551 39.7186 189.43C37.0479 187.984 33.2054 187.436 32.8476 183.798C32.7811 183.125 32.938 182.33 32.8383 181.679C32.7585 181.158 32.3621 180.387 32.2411 179.75C31.9871 178.406 32.1759 177.724 32.1919 176.484C32.2105 175.064 31.2648 174.858 30.5812 173.828C29.2405 171.808 29.5384 169.341 29.2378 167.058C28.3347 160.2 25.648 154.622 24.3685 147.987C23.6397 144.204 23.4122 140.405 23.0012 136.585C22.843 135.108 22.44 133.5 22.3389 132.061C22.279 131.203 22.4213 130.261 22.3229 129.416C22.2178 128.517 21.6778 127.475 21.4438 126.571C20.6085 123.339 20.6138 120.262 20.0166 117.092C19.5537 114.634 17.9351 111.224 17.1144 108.689C13.8598 98.6338 10.9417 88.5799 7.44365 78.5912C6.51661 75.9445 5.32621 73.4027 4.58005 70.6814C3.4535 66.5756 3.14626 62.2449 3.16355 57.9994C1.7936 57.1269 -0.233395 55.1199 0.0219743 53.3589C0.156309 52.4332 2.25246 50.3064 2.89488 49.3089C5.13601 45.8268 6.78794 41.7701 8.98252 38.2389C12.8171 32.0688 18.765 27.669 24.4031 23.2013C32.0895 17.1137 41.179 12.0422 50.4654 8.83013C60.5259 5.35072 69.4732 5.20973 79.9766 6.59032C82.505 6.92284 85.4684 7.78205 87.9742 7.63441C88.6977 7.59185 89.4904 7.32185 90.2339 7.36973C91.6677 7.46283 93.2478 8.37525 94.4861 9.04027C96.0024 8.87136 98.4563 7.88446 99.8781 8.3686C100.152 8.4617 100.539 8.81949 100.72 8.80885C101.337 8.77293 103.852 6.91884 104.464 6.43471C107.592 3.96214 109.198 1.9285 113.312 0.784656C124.988 -2.462 133.349 4.7083 135.22 15.9871C135.668 18.6858 135.631 24.8639 133.491 26.8842L133.492 26.8776ZM132.823 26.0756C134.743 23.7533 134.566 18.3812 134.021 15.5855C132.241 6.47594 126.301 0.0478081 116.457 1.26214C109.315 2.14264 107.14 6.51717 101.519 9.73323C101.195 9.91811 100.556 9.98461 100.438 10.381C100.329 10.7454 100.36 13.1954 100.423 13.6688C100.556 14.6438 101.131 15.2915 102.106 15.4431C102.84 15.5575 105.777 15.1306 106.562 14.9085C108.058 14.4868 108.621 13.3297 110.549 13.9162C112.702 14.5706 112.641 15.9193 112.925 17.792C112.963 18.0434 113.152 18.1923 113.189 18.5914C113.536 22.2862 108.378 25.5023 105.331 26.448C103.193 27.1117 101.065 26.9348 99.8555 29.2185C97.8791 32.9506 98.6478 45.6592 104.866 45.1378C106.137 45.0314 108.59 42.9858 109.25 41.9377C109.415 41.6757 109.496 41.4642 109.454 41.1464C108.502 41.4775 107.799 42.4299 106.857 41.5494C105.729 40.4946 106.487 38.6392 107.348 37.6403C107.608 37.3371 108.392 36.8822 108.498 36.5297C108.611 36.1507 108.472 35.6346 108.526 35.2276C108.816 33.0823 109.009 29.8755 109.916 27.9722C110.823 26.0689 114.529 22.8076 116.699 22.6533C117.957 22.5642 120.241 23.4075 121.067 23.1614C121.506 23.0311 122.868 20.8604 123.294 20.3351C125.371 17.7747 126.628 17.0073 128.413 20.3923C129.526 22.5044 130.193 24.9517 132.152 26.5052C132.233 26.5185 132.761 26.1487 132.823 26.0742V26.0756ZM80.7281 8.02811C80.7494 7.95096 80.7746 7.74747 80.6523 7.75944C73.3277 6.94412 66.3409 6.35358 59.0203 7.66766C47.5979 9.71727 34.7097 16.6615 25.6015 23.7267C19.9767 28.0893 13.6058 32.8894 9.86301 38.9784C7.53942 42.7584 5.77577 47.512 3.18483 51.0539C2.80975 51.5673 1.30148 53.0383 1.1565 53.4227C1.0235 53.7738 1.64862 54.9549 1.88138 55.2888C3.46015 57.5485 6.08966 57.7188 8.4771 58.5354C10.3871 59.1885 12.2584 60.0171 13.9596 61.0984C13.8851 60.343 14.4397 59.8562 14.6911 59.235C15.6514 56.8622 15.8203 55.0174 17.556 52.9226C17.9484 52.4491 18.6161 51.9902 18.9406 51.5141C19.3503 50.9116 19.4221 50.1069 19.8357 49.4831C21.6207 46.7964 25.0296 47.3005 27.6591 46.267C30.9762 44.9636 34.1218 42.515 37.6079 41.4523C38.5788 41.1557 39.6442 41.0665 40.5991 40.7194C41.8081 40.2805 43.0305 39.408 44.2515 38.9185C46.188 38.1418 48.6553 37.4342 50.6769 36.9647C51.5667 36.7585 52.394 36.3741 53.329 36.4912L54.3 30.4793C54.8267 29.0203 54.7987 28.1105 55.8535 26.8456C58.87 23.2253 64.9111 20.899 69.4213 19.9307C70.9801 19.5969 72.2158 19.5849 73.7985 19.7192C74.6936 16.8517 75.5967 13.758 77.1635 11.1803C77.9217 9.93274 79.2863 8.47101 80.7294 8.02944C80.631 8.39254 79.5736 8.90727 79.1972 9.22382C76.162 11.7722 75.6393 16.2664 73.9475 19.6621C75.646 20.3045 77.4508 20.7953 79.0416 21.7542C81.437 23.1987 82.8043 25.3055 83.855 27.8445C84.7754 26.8496 86.3808 26.1181 87.1828 25.0567C87.53 24.5965 87.5539 24.2108 87.7973 23.8092C88.3094 22.9672 89.6567 22.4392 90.4374 21.862C90.734 22.1745 88.9145 23.1654 88.7855 23.3343C88.6565 23.5032 88.6459 23.7799 88.5022 23.9821C87.224 25.7909 85.6932 26.8816 84.0745 28.342C84.5493 31.828 84.5161 35.5721 82.8548 38.7509C82.6074 38.7815 82.7497 38.4796 82.7817 38.3466C83.0078 37.4142 83.4467 36.41 83.6169 35.4577C84.7249 29.2796 82.9346 23.6376 76.827 21.1717C71.9684 19.2098 68.3998 20.5505 63.7659 22.257C61.5434 23.075 56.8058 25.5063 55.6979 27.6224C54.7735 29.3887 54.7668 33.1355 54.5075 35.2103C54.3319 36.6122 54.006 38.0088 53.8611 39.416L54.5061 38.2668C55.0395 36.817 55.8016 35.4657 56.4094 34.0519C57.141 32.3534 57.8791 29.7332 58.7131 28.2422C59.0522 27.6357 58.7437 29.2025 58.7157 29.3089C57.2753 34.81 54.4862 40.0903 52.4299 45.3679C51.6252 47.4335 51.0573 49.6134 50.1981 51.6484C49.0569 54.3471 47.3265 56.9048 46.1654 59.5862C44.7476 62.8581 44.2448 66.7618 43.4109 70.2651C42.9121 72.3626 43.0198 74.5399 43.3537 76.6573C43.5838 76.7172 43.6197 76.5616 43.7527 76.4592C44.9989 75.5015 46.2824 73.3814 48.1379 74.0677C49.0343 74.3989 49.7938 74.8232 50.8019 75.1278C52.6986 75.6997 56.0224 76.6853 57.9151 76.523C58.1279 76.5044 59.0549 76.3727 59.1227 76.2676C59.16 74.7993 60.2121 73.7379 60.8452 72.5369C61.8081 70.7107 62.9879 68.5959 63.4002 66.5796C63.6276 65.4676 63.5332 64.1708 64.0971 63.1534C64.4935 62.4378 65.4152 61.8007 65.9605 61.1596C67.4316 59.4279 69.0582 57.2812 70.2765 55.3672C70.8006 54.5426 71.1357 53.5132 71.7622 52.7298C72.2304 52.1432 72.938 51.8027 73.3383 51.2467C73.9289 50.4261 73.9049 49.3913 74.4782 48.5295C75.8162 46.5144 78.6239 44.6204 80.3331 42.8129C84.2926 38.6286 85.1292 35.6679 86.5351 30.2612C86.5869 30.0617 86.5936 29.8449 86.7811 29.7093C86.9753 34.5294 84.7635 39.4559 81.5953 43.0111C79.946 44.8625 77.8352 46.4 76.2032 48.2595C75.0341 49.5922 75.2203 49.9885 74.542 51.3864C74.0246 52.4518 73.2093 52.6952 72.5616 53.5291C71.8433 54.4548 71.1796 55.9525 70.4641 57.0178C69.5277 58.4117 68.2509 60.1647 67.1602 61.4283C66.6162 62.0574 65.3926 63.0004 65.0561 63.5803C64.6531 64.2746 64.7888 65.1591 64.5041 65.8866L73.0577 60.8085C76.6222 57.478 81.0406 54.7794 84.1849 51.0539C86.2252 48.6372 88.586 45.4384 90.492 42.8634C91.5174 41.4775 92.3753 38.9917 93.8078 38.199C94.3717 37.8864 95.0873 37.8438 95.473 37.2041C95.8587 36.5643 95.7816 35.5069 96.025 34.7648C93.8889 34.4575 91.4203 35.2183 89.3175 34.8885C88.1724 34.7089 88.6272 33.1527 88.7496 32.3414C89.3056 28.6638 90.4015 25.0607 90.9548 21.3791C91.4709 17.9423 91.4815 14.6531 92.7331 11.32C93.2465 9.95269 94.0605 9.87023 92.1293 9.06821C89.8682 8.12919 88.9731 8.87136 86.9155 8.83677C85.8674 8.81948 84.0758 8.44441 82.9413 8.28082C82.1246 8.16377 81.5926 7.76476 80.7334 8.02811H80.7281ZM99.4818 9.35949L94.5233 10.1854C93.6907 10.5326 92.894 14.0053 92.7304 14.9098C92.3128 17.2081 92.2357 19.5956 91.8819 21.9085C91.27 25.908 90.2738 29.8622 89.5064 33.8311C90.0344 34.0332 90.5199 33.8284 91.032 33.8258C92.7078 33.8164 94.3677 33.8524 96.0236 34.0984C96.5078 27.3697 97.2194 20.6583 98.036 13.9655C98.4137 12.4412 98.3818 10.5552 99.4818 9.36082V9.35949ZM105.962 23.3583C106.089 23.4886 106.211 23.7972 106.004 23.9262C103.661 24.3545 103.598 21.8939 103.734 20.1927C103.879 18.3839 104.854 16.7812 106.131 15.5429C105.966 15.2955 105.93 15.3886 105.732 15.4032C104.125 15.5136 101.574 16.6402 100.435 14.8566C99.6347 13.6023 100.252 11.9358 99.8156 10.5565C99.402 11.594 99.2557 12.8495 99.1001 13.9641C98.5614 17.8159 98.1491 21.9072 97.754 25.7856C97.5 28.2861 97.375 30.8026 97.089 33.2991L97.9003 33.0863C98.2794 30.1668 98.5866 27.641 101.671 26.5105C103.795 25.7324 105.696 25.7324 107.864 24.5899C110.203 23.3569 113.151 21.435 112.781 18.4025C112.556 18.4078 112.535 18.888 112.315 18.9332C111.833 19.0329 112.119 18.3227 112.124 18.0753C112.145 17.2068 112.158 16.4939 111.644 15.7504C109.855 13.1661 106.394 16.051 105.395 17.9968C104.83 19.0994 104.306 21.2488 104.713 22.4179C104.992 23.2173 105.605 22.9952 105.962 23.3583ZM125.918 18.5608C125.036 18.6885 123.306 21.0959 122.703 21.8726C121.829 22.9978 121.968 23.6841 120.159 23.5937C117.214 23.446 116.961 22.2344 114.051 24.393C110.624 26.9348 110.021 28.2302 109.457 32.4345C109.296 33.6395 109.339 35.6572 108.998 36.7638C108.863 37.2067 107.975 37.796 107.668 38.2269C107.229 38.844 106.467 40.5917 107.251 41.1543C108.053 41.7302 108.875 40.3669 109.388 40.3523C109.859 40.339 110.374 41.169 110.816 41.1251C111.851 41.024 111.994 39.9506 112.338 39.8323C112.774 39.6846 113.1 40.0703 113.512 40.0903C114.815 40.1528 115.309 38.7017 115.913 38.6139C116.976 38.4597 117.351 40.3856 118.599 39.8469C120.274 39.1247 120.68 34.4057 123.578 33.6542C124.191 33.4959 125.019 33.5664 125.583 33.3975C126.278 33.1887 127.663 31.3718 128.273 30.768C128.928 30.1202 129.694 29.555 130.342 28.8461C130.601 28.5627 131.766 27.2593 131.875 27.0465C132.035 26.7366 130.868 25.8361 130.606 25.5143C130.306 25.1458 129.945 24.5766 129.698 24.1616C128.926 22.8661 127.97 19.9334 127.126 19.0196C126.797 18.6632 126.401 18.4903 125.917 18.5608H125.918ZM96.956 34.2288C96.8363 34.3538 96.8337 36.9434 96.4267 37.6244C95.7975 38.6751 93.9953 38.9385 93.2944 39.9453L91.5041 42.7424C92.8887 41.7103 94.2839 40.6489 95.7696 39.7604C96.1261 39.5476 97.8631 38.7735 97.9549 38.6206C98.2329 38.163 97.4495 35.0414 97.7554 34.2288H96.956ZM53.329 36.6255C52.8715 36.5417 52.5616 36.8596 52.1626 36.9873C49.4639 37.8425 46.6535 38.3985 44.0214 39.4865C42.9187 39.9427 41.9132 40.6516 40.7654 41.0187C39.188 41.5228 37.8672 41.6664 36.2579 42.3633C32.4326 44.0179 29.2645 46.4373 25.1107 47.4428C23.7368 47.7753 23.0092 47.6157 21.6845 48.4058C19.6947 49.5935 20.28 50.3689 19.2811 51.8546C18.9379 52.364 18.116 52.9266 17.6864 53.452C16.3098 55.1425 15.9919 56.8915 15.2204 58.8334C15.0396 59.2869 14.07 60.8856 14.2854 61.2288C19.8823 64.4315 23.7501 69.8754 29.3841 73.0037C32.9274 74.9708 36.3656 76.1346 39.6149 78.7336C40.2759 79.2629 40.8851 79.9851 41.4903 80.4493C41.6233 80.5517 41.6592 80.7074 41.8893 80.6475C42.2856 78.9464 40.8878 78.554 40.1642 77.3862C40.1948 76.7305 40.103 76.0495 40.1642 75.3965C40.2121 74.8684 40.4661 74.351 40.5273 73.8975C40.6736 72.8308 40.7614 70.2611 41.485 69.5349C41.751 69.2689 42.2125 69.2716 42.4612 69.0827C42.9201 68.7329 43.6942 63.422 43.9509 62.4245C44.9737 58.437 47.5181 55.0972 49.0968 51.3438C50.2327 48.6452 50.8977 45.7683 52.1945 43.1361L53.3277 36.6228L53.329 36.6255ZM91.2368 49.6613C92.1173 49.0282 93.5897 48.6226 94.3611 47.9296C95.3187 47.0677 97.1741 44.7056 98.0161 43.6043C98.2435 43.3063 99.0056 42.4365 99.0269 42.1492L98.2196 39.4199C96.1261 40.7726 93.6508 42.1146 91.7662 43.7399C88.9704 46.15 86.7027 49.4392 84.2554 52.1898C81.4277 55.3686 78.1225 57.6004 74.8772 60.3004L80.2665 56.9793C85.5043 53.7818 89.8775 49.4139 94.2307 45.1445C94.4396 44.9397 95.336 43.8171 95.4251 43.8118C95.8627 43.7878 95.207 44.6484 95.1485 44.7295C92.7624 48.0134 88.3878 52.5037 85.1598 54.9576C80.5073 58.4942 75.2735 61.2235 70.355 64.3597L69.4492 67.8444C69.4426 68.1996 70.355 68.7781 70.6649 68.971C72.5097 70.1175 77.8991 72.9798 79.8808 73.1886C80.208 73.2232 81.3066 73.275 81.5288 73.1394C83.44 69.0628 86.6348 65.3666 88.1391 61.129C88.6126 59.795 88.8108 58.449 89.2018 57.1375C89.8948 54.81 91.5414 53.178 92.8634 51.2228C93.442 50.3676 93.8211 49.3993 94.5619 48.6651L91.4217 49.9154L91.2381 49.6653L91.2368 49.6613ZM18.3474 72.6685C17.9377 72.2974 17.6451 71.5034 17.4549 70.9687C17.1051 69.9872 16.7553 68.6917 16.4973 67.6702C16.3151 66.952 15.7365 63.5976 15.4971 63.3502C15.2244 63.0682 13.3624 61.9536 12.8982 61.693C10.1875 60.1634 7.18695 59.2204 4.18503 58.4357C3.59316 60.7925 5.60153 60.0477 7.09252 60.1834C7.41705 60.2126 8.63538 60.4121 8.7737 60.6635C9.05567 61.8659 8.82956 63.1294 8.90671 64.3544C9.1368 68.024 9.97739 72.3826 10.6757 76.0189C10.9537 77.4647 11.8182 79.8308 11.5083 81.1902C11.3367 81.947 10.3272 83.027 10.3924 83.6055C13.2759 91.0578 15.2564 98.8053 17.6478 106.421C19.2651 111.572 21.2855 118.878 24.4696 123.141C24.7117 123.464 25.7066 124.407 25.7957 124.608C25.8223 124.667 25.8289 124.826 25.7305 124.805C23.8831 123.164 22.5597 121.128 21.6712 118.821C21.4384 118.86 21.5236 119.514 21.5329 119.691C21.7736 123.953 23.2566 127.493 23.4016 131.652C23.4561 133.222 24.0147 135.207 24.1983 136.843C24.4696 139.267 24.5468 141.722 24.8819 144.14C25.6773 149.89 27.6338 156.361 29.7207 161.779C30.403 163.552 31.5641 165.417 32.2052 167.142C32.277 167.336 32.7252 168.414 32.1826 168.298L29.7885 163.245C29.9082 164.422 30.1795 165.596 30.3165 166.771C30.5107 168.425 30.4615 170.144 30.9164 171.757C31.5588 174.037 33.8318 174.819 34.84 176.878C34.7044 177.064 34.3745 176.742 34.2628 176.652C33.9449 176.393 33.6363 175.954 33.2466 175.747C33.2041 177.453 33.208 179.135 33.6563 180.788C34.6232 180.764 35.5463 181.138 36.4986 181.205C38.1851 181.323 39.7971 181.002 41.3932 180.502L49.8802 176.998C49.3668 175.908 49.2737 174.625 48.8109 173.548C48.6233 173.11 48.2403 172.698 48.0753 172.288C47.4077 170.617 48.3068 169.516 48.4132 167.838C48.626 164.477 46.345 161.561 45.4166 158.454L45.2171 158.322L44.2834 164.306C44.0666 164.31 44.0187 163.846 44.0147 163.705C43.9588 161.862 44.7316 159.132 44.9484 157.189C45.1931 154.992 45.5217 151.904 45.4818 149.742C45.4152 146.09 44.2235 142.515 44.552 138.837C44.6824 137.389 45.2304 135.733 45.2264 134.314C45.2224 133.143 44.7529 131.757 44.6851 130.588C44.6505 129.976 44.685 129.39 44.8154 128.795L43.9721 129.944C41.9944 131.225 40.3398 133.492 38.632 134.912C38.483 135.037 38.4179 135.235 38.1678 135.178L39.4939 133.38C40.7547 131.9 42.4958 130.824 43.8884 129.528C46.0577 127.51 46.4128 124.699 46.6788 121.879C46.1587 122.335 45.5855 123.361 44.85 123.45C43.6503 123.596 43.0265 122.509 43.097 121.432C43.1781 120.206 44.1198 118.868 44.2209 117.623C43.496 118.573 42.7738 119.541 41.9651 120.421C41.4317 121.001 39.9647 122.537 39.3223 122.833C37.8659 123.502 36.5146 122.168 36.9016 120.678C37.1543 119.706 39.1015 117.389 39.7386 116.334C39.9102 116.051 41.0593 114.017 40.9596 113.899C39.9541 114.791 38.8754 115.617 37.7249 116.315C36.9827 116.766 34.7083 118.045 33.9675 118.148C32.6228 118.338 31.5628 116.821 32.1985 115.577C32.3581 115.265 33.2546 114.569 33.5818 114.3C35.0515 113.094 36.7367 112.16 37.9005 110.574C36.1049 111.288 34.0141 112.74 31.9897 112.426C30.6025 112.211 30.5972 110.664 31.4511 109.777C32.2517 108.944 34.4663 108.025 35.5503 107.226C35.9559 106.927 36.7979 106.303 36.9787 105.861C37.9257 103.554 37.3525 100.491 38.7211 98.0273C39.1454 97.2638 39.9368 96.6001 40.3544 95.9364C41.0407 94.8444 40.9662 89.9871 41.0926 88.4283L41.8441 81.5027C39.6827 80.3921 37.9816 78.6405 35.8602 77.4314C31.9844 75.2236 28.2815 74.089 24.6691 71.1988C24.3353 70.9315 23.1555 69.6985 22.9321 69.6094C22.7086 69.5203 22.7525 69.7025 22.702 69.773C22.4187 70.1654 22.2471 70.6309 21.9691 71.0326C21.0727 72.3267 20.2015 73.3216 18.7491 73.9946C18.7145 73.7259 18.5083 73.4639 18.6772 73.1979C18.8222 72.9691 19.982 72.1897 20.3398 71.796C20.6204 71.4874 22.2311 69.2636 22.1859 69.0269L16.2845 63.8875C16.069 63.8596 16.0637 63.8703 16.0903 64.0804C16.1794 64.8039 16.5239 66.0263 16.7088 66.7884C17.1903 68.7648 17.8965 70.6814 18.3474 72.6632V72.6685ZM8.20843 60.73C7.77749 60.2991 5.0203 61.2394 4.2502 60.9641C4.51089 64.5153 5.02163 68.0546 6.04577 71.4702C7.20557 75.3419 9.0437 79.0195 10.1676 82.9086C10.4469 82.3845 11.2715 80.9867 11.2782 80.4507C11.2875 79.6353 10.4762 77.4221 10.274 76.4193C9.49857 72.5661 8.90271 68.2701 8.50636 64.3544C8.44518 63.7479 8.4505 60.9721 8.2071 60.73H8.20843ZM69.1553 64.9556L64.4975 67.2792C63.7925 69.1067 63.0517 70.8956 62.13 72.626C61.7589 73.3216 60.5299 74.9602 60.4076 75.5587C60.3623 75.7808 60.0963 78.55 60.1136 78.7083C60.2001 79.4571 61.0221 81.3045 61.2708 82.217C61.8946 84.506 62.3029 86.8362 62.8628 89.1372C63.0238 89.7996 63.1382 90.591 63.5039 91.1562C64.2301 87.476 64.9603 83.7824 65.7623 80.1155C65.9206 79.3906 66.6468 77.3397 66.4247 76.797C66.3316 76.5696 65.8541 76.1213 65.6945 75.7981C65.3314 75.0586 65.4671 74.6277 65.6001 73.8363C65.7703 72.8308 66.9727 68.0639 67.4994 67.4893C67.7867 67.1754 68.3453 67.1741 68.4996 66.9932C68.8108 66.6248 68.8747 65.4504 69.154 64.9556H69.1553ZM67.0272 75.5946C67.3092 73.3721 68.3639 71.2161 69.4093 69.2556L69.3628 69.0747C68.9558 68.9923 68.4437 67.9668 68.1963 68.447C68.1245 68.5853 68.0753 68.7875 68.0248 68.9444C67.6244 70.204 66.8197 72.8534 66.6362 74.0731C66.5777 74.4614 66.4606 75.6425 67.0259 75.5933L67.0272 75.5946ZM81.9238 74.1316C79.3209 74.7394 76.972 73.3469 74.7389 72.2057C73.1002 71.3678 71.5175 70.3782 69.8882 69.5216C69.6381 69.5575 69.5184 69.7158 69.3907 69.9127C69.1127 70.337 68.5209 71.8426 68.2961 72.4078C67.8825 73.4466 66.8822 75.5933 67.5539 76.5988C67.6058 76.6773 68.7935 77.7254 68.9598 77.8531C70.4361 78.9916 74.4968 81.0572 76.3057 81.2793C78.068 81.4961 78.1784 79.9984 78.9431 78.7974C79.2624 78.2973 82.1512 74.3683 81.9238 74.1316ZM48.6739 76.9234C47.2082 77.2107 45.8236 77.1574 44.3459 77.1841C43.8657 77.192 43.6516 77.4953 43.21 77.1335C41.9385 76.0921 42.3881 72.9811 42.561 71.5433L42.4891 70.1441C42.0914 70.4221 42.021 70.7267 41.9252 71.1736C41.6725 72.3626 41.2868 74.8724 41.2269 76.0615C41.1445 77.7028 42.5078 78.4822 43.6888 79.4478C46.4168 81.6783 49.5796 84.4847 53.0577 85.2415C54.9424 85.6525 55.0687 85.4809 56.0118 83.9301C57.2633 81.8685 58.3646 79.3853 59.1826 77.1255C59.172 76.9712 57.8791 77.4314 57.649 77.4554C55.8668 77.6389 53.095 76.7411 51.3632 76.1626C50.0132 75.7117 48.6832 75.1571 47.4077 74.5399C46.9608 74.5412 44.7888 76.3222 44.4164 76.7904C45.6693 76.6467 46.9368 76.7398 48.2084 76.7917C48.3693 76.7983 48.7031 76.6906 48.6712 76.9234H48.6739ZM75.2749 82.1132C72.3873 81.1543 69.6049 79.7178 67.2959 77.7227L63.6955 94.1409C62.9692 95.8074 61.9903 96.8701 61.836 98.7987C61.7243 100.189 62.1313 101.721 61.9398 103.024C61.7084 104.595 59.5776 107.4 60.0391 108.853C60.2599 109.546 60.9915 109.643 61.5341 109.202C62.7498 108.214 63.8138 103.221 65.6147 103.425C65.7038 103.435 66.5218 103.914 66.6202 104.001C68.0168 105.237 68.7496 109.504 68.6233 111.304C68.5275 112.666 67.6656 114.205 67.8213 115.569C67.8439 115.77 67.8332 115.899 68.0274 116.025C68.5754 116.019 70.1515 111.812 70.3191 111.138C70.7314 109.467 70.4455 108.1 70.637 106.534C70.6968 106.047 70.9695 105.639 71.0254 105.194C71.2661 103.237 69.8536 99.6473 69.5743 97.4593C69.1526 94.1568 69.6833 92.9225 71.0387 90.0443C72.3128 87.3377 73.8557 84.7427 75.2775 82.1159L75.2749 82.1132ZM53.063 162.114C53.1681 162.811 52.9872 163.718 53.063 164.442C54.6445 164.708 56.2472 164.824 57.8525 164.64C57.4615 163.157 56.7273 161.669 56.6488 160.125C56.5877 158.921 56.8816 157.781 56.7712 156.544C56.4547 153.016 54.9344 148.891 54.4104 145.205C54.0207 142.468 53.6203 139.054 53.4634 136.31C53.3157 133.719 53.5698 131.002 53.4634 128.399L53.7267 129.398C53.8438 134.831 54.1577 140.484 54.9437 145.87C55.4678 149.459 57.3591 154.433 57.1849 157.858C57.1609 158.333 56.9375 159.014 56.9335 159.47C56.9175 161.262 58.0082 162.955 58.2516 164.711C60.1323 164.306 62.0143 163.879 63.7939 163.139C64.9484 162.657 66.0018 161.882 67.1602 161.52L65.7876 162.472C63.464 163.631 60.9875 164.671 58.3819 164.977L58.7822 166.839C61.9318 166.329 65.0707 165.421 67.7335 163.621C68.0474 163.409 69.146 162.706 69.1526 162.386C69.1566 162.237 68.0221 159.997 67.8505 159.698C67.5566 159.184 66.998 158.797 66.8916 158.193C66.6069 157.979 65.2623 159.386 65.0268 159.571C64.9763 159.611 64.8513 159.538 64.7927 159.571C64.7382 159.602 64.8366 159.908 64.5001 159.787L65.1558 158.918C66.3236 158.252 67.5539 156.649 68.0141 155.39C68.7018 153.512 67.0538 149.511 66.5604 147.55C65.8741 144.825 66.5165 142.017 66.6322 139.243C66.7479 136.468 66.5883 133.657 66.7612 130.993C66.9195 128.559 67.7867 126.514 67.2307 124.003C66.9448 122.71 66.0097 121.586 66.6415 120.231C66.9221 119.63 67.4675 119.262 67.5619 118.491C67.5925 118.236 67.6124 117.253 67.5592 117.054C67.4927 116.804 66.7679 116.592 66.7506 115.43C66.7147 113.063 67.7614 111.57 67.409 108.795C67.1961 107.119 66.7719 105.734 65.628 104.454C63.7154 105.553 63.3297 111.166 60.3717 110.378C59.0243 110.019 58.8966 108.532 59.1054 107.376C59.3901 105.804 60.9462 103.919 61.0061 102.492C61.1005 100.252 60.4608 98.6471 61.3745 96.3447C62.0449 94.6543 63.1794 94.6636 62.7072 92.4809C62.4492 91.2866 61.9331 90.0084 61.6379 88.7635C60.9303 85.7828 60.4927 82.7224 59.3781 79.8535C59.2597 79.9585 59.148 80.0663 59.0642 80.2019C58.1957 81.6118 56.8244 85.848 55.247 86.3601C54.8799 86.4798 54.5181 86.5024 54.1377 86.5144C52.9979 90.9208 51.1624 95.1384 50.2646 99.606C50.3112 101.763 51.0879 103.963 50.9296 106.115C50.8804 106.779 50.496 107.779 50.5373 108.363C50.5812 108.979 51.2183 110.571 51.3978 111.369C51.8407 113.339 52.3674 115.588 52.6427 117.572C52.95 119.787 52.958 122.051 53.1907 124.272L50.5306 108.71C50.3165 108.745 50.3058 109.232 50.2526 109.428C49.6302 111.731 49.5557 114.044 49.0037 116.292C48.7377 117.37 47.7016 119.268 47.6032 120.078C47.2321 123.117 48.1698 126.149 48.5355 129.128C49.1487 134.118 49.0303 138.946 49.9308 143.959C50.6264 147.827 52.4259 152.582 52.2663 156.398C52.2091 157.752 51.7529 158.793 52.1972 160.179C52.3794 160.747 52.9739 161.548 53.0577 162.112L53.063 162.114ZM53.196 86.3694C51.169 85.868 49.166 85.1657 47.4888 83.8955C46.982 83.5124 46.4647 82.9272 45.9446 82.5136C44.9683 81.7355 43.9868 80.9547 42.956 80.2498L41.723 95.3113C41.5993 96.6467 40.4608 97.2678 39.8117 98.3212C38.2955 100.784 38.9472 104.897 37.4975 106.78C35.9732 108.761 33.4381 109.277 31.7822 111.042C31.7503 111.188 31.8727 111.31 32.0017 111.35C33.7148 111.884 37.149 109.628 38.7597 108.975C39.1826 108.803 39.583 108.628 40.0152 108.858C40.3504 109.333 38.4218 111.553 38.0361 111.974C37.6265 112.42 37.0865 112.97 36.6316 113.363C35.8948 113.998 33.6443 115.322 33.24 115.955C32.9021 116.484 33.0178 117.087 33.7028 117.099C34.312 117.109 37.9736 114.955 38.6599 114.46C40.1057 113.416 41.0553 111.917 42.6009 111.124L42.8921 111.374C42.021 114.964 39.9447 118.009 37.8646 120.987C37.9071 122.166 38.5336 122.196 39.3648 121.549C40.5579 120.621 42.5729 118.232 43.4069 116.946C43.9522 116.105 45.5429 112.41 46.1029 112.194C46.9834 111.853 46.2425 112.867 46.1508 113.174C45.4738 115.439 45.0548 117.982 44.423 120.357C44.2528 120.995 43.9376 121.895 44.4988 122.404C44.6531 122.44 44.7795 122.372 44.9138 122.313C45.4591 122.069 46.9741 118.882 47.2747 118.155C48.2602 115.766 48.2616 113.924 48.7124 111.479C49.1341 109.193 49.9999 107.022 49.8696 104.659C49.7938 103.289 49.3003 101.765 49.2086 100.399C49.0662 98.3092 50.2101 95.4377 50.8405 93.3894C51.5654 91.0379 52.406 88.6996 53.196 86.3694ZM69.7871 163.667C69.2963 163.74 67.3132 165.297 66.587 165.663C64.2514 166.836 60.5153 167.858 57.9164 168.032C56.5212 168.125 55.11 167.961 53.7187 167.959C53.1881 170.136 54.3186 171.548 56.4068 172.071C59.845 172.93 63.4255 171.685 66.9434 172.175C70.2845 172.64 73.1481 174.564 76.5397 174.815C77.79 174.908 79.1373 174.758 80.4009 174.811C82.2922 174.891 83.9734 175.54 85.8754 174.577C88.7855 173.106 85.6107 171.193 84.0931 170.319C81.4676 168.807 78.9099 168.629 76.2471 167.525C74.0885 166.63 72.0668 165.104 70.1808 163.742C70.0544 163.663 69.9321 163.645 69.7844 163.668L69.7871 163.667ZM58.6492 166.835L57.7621 164.986C56.2352 165.225 54.6737 165.156 53.1974 164.707L53.4182 166.707C55.1406 167.07 56.9055 167.006 58.6492 166.833V166.835ZM33.9103 181.866V183.927C33.9103 184.04 34.2162 184.832 34.3053 184.995C35.0741 186.426 39.4846 187.952 41.1338 188.94C43.0384 190.081 44.7516 191.764 46.8145 192.57C52.2597 194.695 59.9101 195.782 65.0787 192.485C67.7747 190.765 64.1344 189.142 62.916 188.173C60.4621 186.22 59.003 185.22 56.3469 183.569C53.9967 182.108 51.7676 180.21 49.9201 178.153C46.4527 179.599 43.0517 181.315 39.3954 182.231C37.5493 182.323 35.7046 182.334 33.9103 181.867V181.866Z" fill="currentColor"/>
<path d="M32.978 159.52L30.5866 144.157C30.0067 140.493 30.5227 136.794 30.536 133.141C30.5413 131.714 30.1583 130.128 30.1796 128.725C30.1929 127.802 30.5307 126.732 30.5852 125.803C30.681 124.156 30.1556 122.641 30.0559 121.015C29.9468 119.234 30.1224 117.352 30.0599 115.557C30.0399 114.989 29.8085 114.379 29.9229 113.768C30.1277 113.766 30.1091 114.237 30.1437 114.411C30.6384 116.949 30.2235 118.765 30.3192 121.144C30.3565 122.075 30.9111 123.206 30.9909 124.204C31.1306 125.956 30.5041 127.798 30.5879 129.661C30.7768 133.854 30.544 138.138 30.8539 142.297C31.2835 148.064 32.8077 153.738 32.9793 159.522L32.978 159.52Z" fill="currentColor"/>
<path d="M30.0518 113.5L29.6887 112.469C26.3875 100.899 22.2897 89.5349 19.4035 77.7985C19.176 76.8755 18.7145 75.8021 18.5669 74.9004C18.5296 74.6743 18.4245 74.5732 18.6826 74.3976C19.8517 76.8236 20.1337 79.5343 20.8106 82.1106C22.4306 88.278 24.6159 94.625 26.5285 100.733C27.5061 103.854 28.9718 107.509 29.7207 110.575C29.9428 111.486 30.125 112.569 30.0532 113.498L30.0518 113.5Z" fill="currentColor"/>
<path d="M37.9058 178.67C41.6738 177.832 44.9218 175.414 48.8055 174.816C48.8667 175.173 48.7444 175.049 48.5169 175.12C46.8663 175.63 45.2277 176.213 43.6237 176.883C41.731 177.673 39.9767 178.845 37.8938 179.143C37.3299 178.88 37.0825 176.456 36.7566 175.761C36.5451 175.31 36.0504 174.892 35.7963 174.46C34.187 171.723 36.0823 169.282 34.9557 166.522C34.2867 164.885 32.8077 163.456 32.8476 161.516L33.5725 163.25C34.1351 164.352 35.0967 165.498 35.4705 166.673C36.2791 169.221 34.5567 171.615 35.9027 173.955C36.2472 174.553 36.879 175.073 37.1703 175.746C37.5387 176.599 37.6504 177.761 37.9058 178.668V178.67Z" fill="currentColor"/>
<path d="M37.2341 179.204C36.2126 179.093 34.562 179.635 33.9103 178.675C34.2973 178.627 34.6564 178.796 35.0355 178.812C35.6327 178.837 37.1184 178.523 37.2354 179.204H37.2341Z" fill="currentColor"/>
<path d="M48.2735 72.8004L47.3026 66.2592L46.5471 63.8904C46.8384 63.8491 46.9887 64.1152 47.1058 64.328C47.8519 65.678 48.5528 70.6537 48.4092 72.2032C48.3892 72.412 48.3174 72.5995 48.2735 72.8004Z" fill="currentColor"/>
<path d="M93.7958 36.4593C93.16 35.9086 93.998 34.4841 94.9556 34.9616C95.4398 35.3753 95.2615 36.5484 94.6218 36.6295C94.4662 36.6495 93.8969 36.5471 93.7971 36.4606L93.7958 36.4593Z" fill="currentColor"/>
<path d="M54.2587 30.2386L53.9222 29.1799C53.1149 25.4212 52.9659 21.5786 53.0643 17.7375C53.2878 17.7375 53.3184 18.1804 53.3303 18.3346C53.5804 21.5347 53.6509 24.7189 53.9953 27.911C54.0791 28.6864 54.3651 29.4446 54.2587 30.2399V30.2386Z" fill="currentColor"/>
</svg>
