<svg width="139" height="187" viewBox="0 0 139 187" fill="none" xmlns="http://www.w3.org/2000/svg">
<path d="M61.1976 182.882C58.1789 181.044 47.8506 183.958 40.5736 186.395C38.3079 185.728 35.7925 186.207 33.1791 185.17C30.0635 183.934 28.1678 181.363 24.5045 181.044C20.5693 180.701 17.4878 182.056 13.4741 180.32C9.71931 178.696 10.9822 176.911 11.0045 173.515C7.72554 173.05 4.70025 173.176 1.72595 171.431C-0.261278 170.264 -0.0481757 169.607 0.0734113 167.341C0.449939 160.35 2.28943 152.207 3.17192 145.101C6.13969 121.188 6.28742 97.4417 8.6917 73.561C10.6515 54.1044 13.4323 40.3952 31.6729 30.191C33.0888 29.3987 35.2787 28.7111 36.4815 27.9449C37.2502 27.456 37.8974 26.4872 39.0754 25.8374C41.7241 24.3771 48.1146 22.4134 50.0613 20.889C50.5921 20.4732 50.6222 19.928 51.0079 19.4848C53.6514 16.4478 60.4655 16.8818 64.1367 15.3731C67.5241 13.9807 67.3162 11.7765 72.0084 12.3295C73.6649 12.5243 75.6129 13.7389 77.2576 13.6238C78.999 13.5035 80.7784 11.4941 83.2689 11.498C85.2967 11.5006 88.8332 13.2787 90.4609 12.9832C91.746 12.7505 93.4103 9.78665 94.4628 8.7342C97.9535 5.24348 106.217 0.0596942 111.221 0.000861863C117.183 -0.0684296 120.28 4.05637 124.75 6.60708C127.404 8.12104 129.583 8.49103 131.96 10.8901C134.385 13.3375 137.85 20.3516 138.196 23.7365C138.409 25.8165 137.508 28.8026 137.455 30.9741C137.427 32.075 137.863 32.9222 137.675 34.0478C137.332 36.0939 134.72 36.3697 133.317 37.2692C132.501 37.7909 131.557 38.974 130.664 39.5794C128.749 40.8789 126.559 40.9116 125.239 42.7746C124.469 43.8611 123.641 46.7282 122.685 47.2733C120.835 48.3284 119.946 46.4431 119.355 46.5464C119.053 46.5987 118.52 47.4995 117.896 47.7087C116.611 48.1414 115.099 48.1375 113.887 48.4016C113.739 48.4343 111.259 49.6083 111.15 49.7142C110.817 50.045 109.177 56.1858 108.745 57.3651C107.05 61.9775 103.773 67.8621 98.6124 69.1747C96.4749 69.7185 95.3243 69.0662 93.3319 68.8426C91.2074 71.3031 91.1969 74.3336 89.9 77.1811C88.373 80.5359 85.7203 83.5925 84.3201 87.0126C82.9133 90.4485 82.2269 97.3567 79.1546 99.3491C78.178 99.9832 76.549 100.127 76.0875 100.462C76.009 100.519 75.2298 102.015 75.1723 102.176C74.8847 102.988 76.6836 106.352 76.8471 107.537C77.0785 109.216 76.8 113.036 76.6091 114.83C76.3855 116.931 73.7682 120.283 73.7289 122.134C73.7119 122.917 74.1826 124.144 74.2545 125.021C74.7932 131.659 75.5083 138.249 76.0848 144.871C76.4823 149.442 76.209 155.416 76.932 159.697C77.2536 161.604 79.2239 163.654 80.1404 165.371C80.7862 166.581 81.5249 169.396 82.2087 170.094C78.8356 172.322 78.8356 172.976 75.201 177.454C73.5446 179.494 71.2567 180.998 68.7674 181.958C68.1974 182.177 66.2154 182.877 65.7683 182.877H61.1963L61.1976 182.882ZM123.366 6.82149C119.995 4.74014 116.657 1.69654 112.523 1.33701C105.981 0.76699 98.0293 6.74567 93.7163 11.2562C92.1422 12.9021 90.691 16.0843 88.105 15.832L90.7145 13.8748C87.0577 14.1965 84.8875 11.8562 81.168 13.0747C79.9887 13.4604 78.7166 14.5429 77.5282 14.6645C74.9265 14.9312 72.4359 12.9309 69.7035 13.3676C68.2105 13.6068 65.9317 15.9431 64.0661 16.6099C60.2982 17.9565 55.2373 17.4375 52.0551 20.1398C54.1312 19.6757 56.3276 20.8498 58.4848 21.157C66.941 22.3585 73.1511 18.0663 81.4922 23.2266C93.3031 30.5336 85.5948 44.822 87.0891 55.5059C88.0213 62.1645 93.2482 72.4654 101.249 66.5939C106.704 62.592 107.908 55.3151 110.297 49.4201L108.607 48.097C107.516 50.1587 105.243 52.6271 102.837 53.0311C102.578 53.0742 101.634 53.2625 101.686 52.7957C103.256 53.188 107.607 49.4266 108.094 48.3428C108.512 47.4132 105.832 44.1238 106.167 42.2752C106.263 41.7405 108.257 39.1401 108.746 38.5648C113.253 33.2634 126.949 23.2893 133.976 23.3037C134.674 23.305 136.299 23.6672 136.689 24.3182C130.245 22.8723 124.743 27.4481 119.45 30.3322C119.389 30.8173 119.983 30.5388 120.244 30.4747C120.765 30.3466 121.266 30.0485 121.786 29.9217C122.049 29.8576 122.641 29.5792 122.581 30.0642C118.793 30.812 115.415 32.9025 112.918 35.8115C115.688 35.3748 118.588 35.5435 121.405 35.2898C126.304 34.8479 131.331 33.2542 136.166 33.989C136 34.7656 134.869 34.3498 134.639 34.5485C134.601 34.5812 134.091 35.7827 134.724 35.5487C137.634 34.3969 136.365 33.1862 136.409 30.9781C136.451 28.864 137.268 26.0623 137.149 23.9927C137.077 22.7428 135.202 17.95 134.567 16.6452C131.749 10.86 126.278 7.00845 119.71 7.07644L120.624 6.81496C121.373 6.65938 122.068 6.9823 122.745 7.05029C123.021 7.07774 123.434 7.24901 123.364 6.82149H123.366ZM82.0975 54.3607C82.695 52.6938 83.8546 51.2935 84.6325 49.7142C88.4344 42.002 89.1914 29.1595 80.8686 24.1104C74.2022 20.0666 70.1075 22.2238 63.1548 22.4892C60.9728 22.5729 58.6352 22.2473 56.4871 21.8473C55.653 21.6917 54.3927 21.0171 53.8083 21.0027C52.1728 20.9609 42.4366 25.4047 40.469 26.4467C38.172 27.6638 37.1653 28.1672 36.9103 30.9859C36.5181 35.316 38.5877 38.8577 39.9801 42.7968C40.3671 43.8924 40.4442 45.0508 40.856 46.1006C41.4966 47.7348 43.6983 49.4854 44.8527 50.9863C47.4531 54.3698 49.2978 58.4476 53.8737 59.5758C57.0572 52.3198 57.4624 44.5213 59.1137 36.86C59.57 36.7986 59.3582 37.4523 59.3712 37.7699C59.5216 41.2633 58.3711 44.8717 58.0678 48.3519L61.7193 39.4735C61.4565 41.985 60.4498 44.5161 59.6366 46.9216C56.4375 56.395 52.2421 65.2826 49.8809 75.0435C48.6925 79.958 47.6675 85.1326 47.0896 90.1478L46.5732 87.7997C45.037 92.6043 42.3661 96.4977 47.3773 100.182C48.3186 100.874 50.5438 102.14 51.6733 102.177C53.0853 102.221 54.1404 101.151 55.4517 100.862L52.5794 102.687C61.2016 103.849 59.6628 96.0937 61.1937 90.5374C61.8801 88.0494 63.2097 85.8857 64.0765 83.4932C64.7851 81.536 65.108 79.3396 65.8925 77.4727C67.5646 73.4969 68.2039 74.1937 68.0013 69.1106C67.8326 64.8969 67.3384 61.4572 67.7333 57.1088C67.9019 55.2471 68.4563 53.3723 68.5164 51.491C68.9648 51.4256 68.7949 52.1107 68.7726 52.3996C68.5752 54.9934 68.1372 57.6226 67.9804 60.2295L68.2549 70.2977C68.3255 70.3958 68.5412 70.1552 68.6406 70.0323C70.5219 67.7078 75.005 60.3119 76.2901 57.5664C76.7202 56.646 76.715 55.6746 77.2824 54.6405C78.4002 52.6049 80.543 51.1301 81.9446 49.3769C88.3941 41.3176 84.9672 46.0287 84.9672 46.3909C83.1421 50.6974 78.0629 53.2716 77.2393 57.9939L72.1928 66.2775C72.0934 66.9155 72.9419 66.926 73.3446 66.9234C76.2091 66.9077 80.3417 65.4931 82.8859 64.1635C84.4953 63.3228 85.8955 62.0206 87.5833 61.4114C86.0511 57.0774 85.4209 52.4048 86.0118 47.8342L82.0988 54.3633L82.0975 54.3607ZM7.51636 172.172C8.80021 172.304 10.2593 172.076 11.5653 172.172C11.5287 169.43 11.9615 166.682 12.0987 163.954C12.7812 150.403 12.5537 136.757 12.8819 123.202C12.9486 120.461 12.8087 117.705 12.874 114.965C13.3303 114.903 13.1198 115.557 13.1329 115.875C13.1904 117.268 13.0688 118.675 13.1224 120.067C13.146 120.686 13.3957 121.258 13.4048 121.874C13.55 130.813 13.3551 139.834 13.1224 148.78C12.8832 157.959 12.1301 167.056 11.8164 176.209C11.7444 178.315 12.4609 178.73 14.3684 179.425C18.7024 181.007 22.8259 178.86 27.3363 180.563C29.7302 181.466 31.8769 183.656 34.2354 184.374C43.4525 187.181 49.7763 180.021 57.6703 180.791C61.314 181.147 62.3978 182.452 66.6874 181.445C73.4936 179.848 75.5514 173.749 80.7091 169.956C79.7704 166.771 78.0629 163.771 76.0914 161.198L76.6091 165.636L75.8561 163.65C75.9136 149.92 73.7839 136.344 72.9497 122.672C72.8438 121.973 72.1078 121.749 71.7992 121.209C70.8632 119.565 71.8058 118.077 71.9182 116.407C72.0947 113.776 71.4554 110.947 69.6891 108.957C68.7792 108.96 69.3217 115.928 66.0886 115.429C64.7733 115.225 65.0557 113.015 65.1211 111.959C65.3028 109.063 65.4532 103.921 66.3723 101.455C66.5697 100.923 67.1476 100.406 67.2103 99.9192C67.2835 99.3452 66.924 98.7543 66.9358 98.1228C66.9501 97.4142 67.4221 96.6795 67.4221 96.0205C67.4221 95.1564 66.8717 94.3288 66.941 93.1561C67.0312 91.6316 68.2196 89.5921 68.2693 88.4416C68.3817 85.8452 66.5893 81.9635 66.6808 79.1723C66.3056 79.1108 66.3265 79.6259 66.2389 79.8992C65.0754 83.5337 62.9417 87.6284 62.1037 90.9178C61.2996 94.0778 61.5637 99.9937 58.9699 102.152C58.3214 102.691 57.0375 103.041 56.814 103.262C56.5904 103.483 56.4858 104.3 56.2884 104.696C56.091 105.092 55.5733 105.426 55.4883 105.745C55.2425 106.66 56.5394 109.972 56.5146 111.431C56.4819 113.396 55.5955 116.17 55.4517 118.226C55.3994 119.217 54.1417 118.624 53.7442 119.131C53.5625 119.363 53.2566 121.218 53.0369 121.819C52.5702 123.093 50.6653 128.13 48.9304 127.376C46.8543 126.472 49.3488 122.711 49.052 121.231C47.7629 122.354 45.8855 126.005 44.7337 126.838C44.0081 127.363 42.9138 127.27 42.5203 126.457C41.5398 124.43 45.5064 120.752 45.7823 118.619C44.8292 119.369 44.1899 120.392 43.31 121.237C42.1621 122.341 38.1576 126.041 38.7446 121.904C38.9198 120.669 44.3128 114.776 43.9558 114.442C42.6798 114.597 38.2622 119 37.279 117.59C35.7415 115.383 41.0757 112.55 42.0837 111.131C43.1989 109.56 43.6904 106.452 44.3507 104.517C44.5428 103.955 45.0946 103.42 45.1979 103.014C45.3417 102.449 45.3639 100.523 45.2554 99.9479C45.1129 99.1949 43.8159 98.2091 43.5479 96.9527C42.7138 93.0423 45.6633 87.9853 46.7536 84.1939C49.0416 76.2476 49.6443 67.7196 53.6043 60.2308C51.1961 59.2804 49.0507 58.1796 47.3537 56.1871C47.7982 59.0006 47.9904 61.8206 47.8741 64.6799C47.861 64.9976 48.0715 65.6513 47.6152 65.5898C47.2988 62.2455 47.8845 57.484 46.2608 54.5346C45.2162 52.6362 43.1413 50.4268 41.6065 48.8736C41.5947 53.8743 40.4141 58.8986 41.094 63.8824L40.8233 65.0682C40.5762 62.2664 40.405 59.3941 40.5488 56.5689C40.656 54.4548 41.6274 50.6111 41.328 48.7572C41.1816 47.8486 40.4128 47.4498 40.0912 46.5987C39.7369 45.66 39.8716 44.822 39.5983 43.9565C38.7054 41.126 36.8515 38.3204 36.3691 35.299C35.8004 34.8074 32.1658 37.145 31.4389 37.532L24.8863 42.3406C28.0162 39.0499 31.8547 36.3096 36.1194 34.6374V29.6746C36.1194 29.6537 36.7469 29.0497 35.9939 29.2863C34.0772 29.889 29.9629 32.5391 28.2005 33.772C11.4921 45.46 10.8711 61.329 9.21596 80.0927C7.66802 97.6456 7.5948 115.331 5.81676 132.856C4.6022 144.817 2.48685 156.704 1.09448 168.645C0.916675 170.887 5.77361 171.991 7.51505 172.171L7.51636 172.172ZM134.078 34.5093C130.332 34.6989 126.7 35.7278 122.976 36.073C119.351 36.409 115.68 36.2351 112.059 36.6495C111.196 36.8992 107.551 41.3456 107.284 42.3419C106.849 43.9696 109.047 48.4722 110.961 48.633C112.586 48.7703 112.722 47.7205 113.752 47.4773C114.284 47.3518 114.812 47.6865 115.344 47.5283C115.696 47.4237 115.89 46.9269 116.173 46.8863C116.477 46.8432 116.905 47.1491 117.434 47.0053C118.239 46.787 118.37 45.2757 120.048 45.7921C120.595 45.9594 121.05 46.9648 121.883 46.7517C122.586 46.5713 123.633 43.7329 124.11 42.9524C125.969 39.9114 127.534 40.5704 130.14 38.7936C130.616 38.4694 134.618 34.9708 134.081 34.508L134.078 34.5093ZM88.0997 62.1985L87.718 62.2024C84.592 64.9074 80.8738 66.5847 76.8719 67.5548C75.7554 70.3043 74.3238 72.8079 73.4962 75.6724C72.7458 78.2662 72.4647 80.966 71.7156 83.5572C70.786 86.7747 68.0144 90.6237 67.983 93.6882C67.966 95.3721 68.8537 96.8716 67.8588 98.7791C69.1034 100.071 72.619 101.942 74.3552 101.346C74.8572 101.173 75.0337 100.063 75.0442 99.5544C72.7837 99.51 70.4814 98.7582 69.0354 96.9436C70.3716 97.3214 71.4737 98.3582 72.7746 98.8184C80.9797 101.726 81.0608 92.8671 82.878 87.5369L82.2269 88.0586L82.1001 87.6729C84.9594 83.4513 87.9141 79.2468 89.7928 74.4657C90.2138 73.3949 90.2831 72.1241 90.7877 71.0194C91.1106 70.3121 92.4193 68.9027 92.5161 68.5458C92.7174 67.7967 91.2675 67.126 90.7106 66.5168C89.6346 65.3375 88.5704 63.7386 88.1023 62.1998L88.0997 62.1985ZM75.5645 67.6856C74.5199 68.0843 72.0725 67.4711 71.3848 67.8124C71.0187 67.9941 69.2838 70.8337 69.1583 71.3332C68.6341 73.4237 68.9727 75.2606 67.2848 77.2504L69.038 87.014C69.6813 86.542 69.9702 85.4006 70.2134 84.6659C71.3299 81.2889 71.6541 77.5093 72.7667 74.1584C73.5132 71.9084 74.9592 69.9853 75.5645 67.6856ZM55.7119 103.21H51.9244C51.6563 103.21 49.6181 102.258 49.1762 102.04C48.1905 101.552 47.3106 100.804 46.3104 100.336C45.4554 102.333 48.1186 103.796 49.7619 104.328C51.4053 104.86 55.5733 105.656 55.7119 103.21ZM74.7814 115.618C74.9788 113.954 74.6363 111.967 74.7814 110.263C74.9513 110.244 75.3043 110.61 75.3043 110.655V115.749C75.7279 115.708 75.7972 114.627 75.8234 114.31C75.9489 112.824 76.1058 110.01 76.0652 108.591C76.0156 106.829 74.4114 104.319 74.2323 102.455C73.1432 102.398 72.0189 102.27 70.9808 101.918C70.0042 101.587 68.7347 100.44 68.1124 100.334C67.6705 100.259 67.2299 101.517 67.077 101.909C66.2507 104.041 66.0847 109.596 65.9042 112.227C65.8532 112.984 65.6048 114.605 66.5475 114.703C68.57 114.266 67.9333 104.749 71.0802 109.394C72.5523 111.568 72.8072 114.367 72.6883 116.922C72.6268 118.249 71.9535 119.614 72.432 120.973C72.9445 121.073 73.0569 120.737 73.2674 120.375C73.6374 119.738 74.6925 116.365 74.7814 115.62V115.618ZM54.6646 105.825C51.2497 106.179 48.4271 105.345 45.7888 103.211C44.6239 105.592 44.5585 108.987 43.1296 111.134C41.9869 112.851 38.0595 114.955 37.9392 116.658C37.9131 117.02 37.9196 117.164 38.3302 117.047C39.125 116.822 44.6448 112.466 44.9991 112.877C45.4659 116.233 39.4898 120.078 39.5055 122.666C39.5081 123.072 39.4401 123.12 39.9016 123.059L47.8715 115.226C47.7133 116.326 47.3014 117.514 46.8765 118.539C46.2712 119.998 43.1505 124.719 43.1531 125.549C43.1531 125.855 43.2668 126.394 43.5688 126.458C44.2186 126.594 48.4232 120.775 48.9657 119.844C49.6639 118.646 49.8574 116.756 51.268 116.009C50.7281 118.011 50.3777 120.056 49.8901 122.074C49.6273 123.163 48.431 125.51 49.0416 126.467C49.6809 127.471 50.983 124.454 51.2327 123.94C53.1258 120.044 53.1415 115.765 54.798 111.831C55.0438 113.781 54.3116 115.776 53.9194 117.681L54.6646 118.098C54.6686 116.073 55.7249 113.35 55.7092 111.437C55.6962 109.837 54.5104 107.577 54.6633 105.825H54.6646Z" fill="currentColor"/>
<path d="M36.6407 171.127L33.5461 165.213C26.2195 147.639 22.938 128.667 21.2344 109.742L24.7095 132.254C26.9242 143.32 29.5952 154.41 33.9095 164.85C34.7659 166.921 36.0824 168.971 36.6407 171.127Z" fill="currentColor"/>
<path d="M66.4218 171.65C65.2439 170.232 64.4163 168.148 63.6894 166.418C59.9777 157.577 57.9853 147.665 56.5001 138.215C56.9014 138.151 56.8073 138.703 56.8831 139.001C57.6571 141.99 58.0428 145.289 58.7645 148.355C60.6445 156.339 63.1128 164.156 66.4205 171.651L66.4218 171.65Z" fill="currentColor"/>
<path d="M54.14 161.722C53.6851 161.783 53.8929 161.13 53.8812 160.812C53.472 149.962 52.0979 139.156 52.0547 128.288L52.5725 132.076C53.0431 141.962 53.9818 151.843 54.1387 161.722H54.14Z" fill="currentColor"/>
<path d="M18.6187 88.0568C18.1703 88.1222 18.3403 87.4371 18.3625 87.1482C19.0018 78.7273 21.3656 70.1221 23.5162 61.998L24.889 58.8027C22.0885 68.3741 19.8398 78.1337 18.6201 88.0568H18.6187Z" fill="currentColor"/>
<path d="M69.0297 149.705L68.7735 148.011L70.8575 127.243C70.6444 134.762 69.7488 142.231 69.0284 149.705H69.0297Z" fill="currentColor"/>
<path d="M59.1023 177.658C56.0457 174.637 51.9875 173.005 48.6563 170.346L56.2078 174.677C56.6118 174.97 59.5024 177.204 59.1023 177.657V177.658Z" fill="currentColor"/>
<path d="M70.0748 169.036C69.5924 169.095 69.8473 168.491 69.9362 168.245C70.4356 166.871 71.2906 165.452 71.7155 164.015L73.4701 157.807C73.3838 161.823 71.6567 165.452 70.0735 169.036H70.0748Z" fill="currentColor"/>
<path d="M36.1165 56.4489C35.6262 56.5064 35.9151 55.922 35.9753 55.6553C36.574 53.0091 37.4225 50.3852 37.969 47.7208L38.9901 45.2197L36.1165 56.4489Z" fill="currentColor"/>
<path d="M64.3285 103.47L63.5794 99.1283L63.2891 95.1133L64.0356 99.1936L64.3285 103.47Z" fill="currentColor"/>
<path d="M82.8816 29.5425L79.3595 27.7121L74.5235 26.6754C77.5213 26.4596 80.7885 27.2964 82.8816 29.5438V29.5425Z" fill="currentColor"/>
<path d="M49.6992 101.119C48.414 100.013 48.014 97.9972 46.8282 96.6807C47.4597 96.6885 48.0519 97.6926 48.3487 98.1619C48.8742 98.9921 49.4024 100.173 49.6992 101.119Z" fill="currentColor"/>
<path d="M105.865 44.1739C104.821 43.2129 104.401 40.9995 104.291 39.6124C103.594 30.7993 107.067 19.3923 113.702 13.3496L109.127 20.1363C105.817 27.3386 103.3 36.3988 105.865 44.1739Z" fill="currentColor"/>
<path d="M97.765 33.2004C97.3087 33.2618 97.5192 32.6068 97.5061 32.2904C97.2564 26.1954 98.8775 16.6724 101.379 11.0833C102 9.69616 102.775 7.97564 104.034 7.08008C103.459 8.35086 102.656 9.45429 102.086 10.746C99.0593 17.6045 98.5795 25.8241 97.765 33.2017V33.2004Z" fill="currentColor"/>
<path d="M91.7549 48.614C91.3601 48.5983 91.2228 47.4086 91.2255 47.1654C91.2987 41.3344 92.2714 35.9624 90.1286 30.2596C89.701 29.1222 88.9846 28.0919 88.6251 26.9336C93.3055 32.8521 92.1563 41.5279 91.7549 48.614Z" fill="currentColor"/>
<path d="M106.905 40.5143C106.418 40.5731 106.701 39.9835 106.763 39.7194C107.256 37.6302 109.242 34.0309 110.357 32.079C112.386 28.5268 114.835 24.9812 117.877 22.2305L110.879 32.3392L106.905 40.5143Z" fill="currentColor"/>
<path d="M97.2422 58.02C100.746 59.279 103.379 57.5925 105.449 54.86C106.531 53.4311 107.078 51.7759 108.211 50.4424C107.337 54.6012 102.818 60.5955 98.0293 58.6671C97.7142 58.5403 97.3102 58.4017 97.2422 58.02Z" fill="currentColor"/>
<path d="M93.5838 25.3639L91.1076 21.7045C89.2459 19.5395 86.5396 18.2753 84.704 16.0919C84.4569 15.7991 84.0699 15.667 84.185 15.1768C87.6143 18.2975 92.3601 20.4952 93.5838 25.3626V25.3639Z" fill="currentColor"/>
<path d="M86.5393 73.1709C84.7717 74.7934 82.0092 75.2967 79.7501 74.4717L83.2068 74.4064L86.5393 73.1709Z" fill="currentColor"/>
</svg>
