<svg width="141" height="205" viewBox="0 0 141 205" fill="none" xmlns="http://www.w3.org/2000/svg">
<path d="M87.4884 41.5584C86.8748 42.3103 84.7011 42.377 83.7608 42.4346C83.2459 43.2711 83.6878 44.4163 83.3368 45.213C83.0819 45.792 81.9508 46.2211 81.8022 46.4863C81.7023 46.6631 82.0956 47.6942 81.7638 48.4884C81.564 48.9662 80.4098 49.2801 80.1959 50.0102C79.5785 52.1251 80.9158 53.9031 79.1173 56.3599C76.754 59.5905 72.441 58.667 69.2962 57.2259L65.8094 54.9547C66.7996 56.6225 69.8995 58.7682 70.3069 60.5717C70.7142 62.3753 69.6177 63.0466 69.1233 64.5466C68.0319 67.8591 69.4076 67.8937 70.6412 70.4838C73.6835 76.8694 76.467 86.0539 77.5405 93.0403C77.9978 96.0186 78.0272 100.909 78.8765 103.488C79.3838 105.026 81.1336 105.859 81.4 107.623C81.4974 108.265 81.3001 108.995 81.4743 109.598C81.6767 110.299 82.6963 110.575 82.9679 110.987C83.2766 111.452 83.2933 112.492 83.5328 112.789C83.6622 112.949 84.7843 113.344 85.266 113.745C86.1588 114.489 91.1866 120.006 91.3493 120.721C91.5273 121.498 91.2532 122.078 91.6913 122.941C92.0397 123.626 94.6119 125.956 95.3612 126.695C99.3143 130.589 106.331 137.71 110.845 140.403C114.038 142.307 118.907 143.576 121.73 145.647C124.276 147.515 126.769 150.404 129.664 152.052L135.8 159.234C136.219 160.056 135.81 160.643 135.174 161.145C140.524 164.769 141.998 173.239 139.31 178.867C138.773 179.99 136.068 183.211 135.99 183.485C135.528 185.095 135.722 187.545 135.299 189.455C133.789 196.272 128.688 201.412 122.179 203.735C117.426 205.431 108.679 204.264 103.294 204.301C100.335 204.321 97.348 204.667 94.3377 204.58C87.1502 204.373 80.3868 203.074 73.0943 203.279C69.5537 203.379 65.8927 204.068 62.3457 203.812C58.8551 203.559 55.4054 202.178 51.8597 202.011C49.025 201.876 46.0416 202.631 43.2209 202.192C41.5954 201.94 42.2474 200.772 41.3238 199.693C39.5497 199.774 37.755 199.618 35.9835 199.693C32.7964 199.828 29.7516 200.311 26.5133 200.226C22.2029 200.115 17.4479 199.171 13.2144 199.167C10.737 199.164 7.85738 200.531 5.53756 200.491C3.79673 200.462 0.336848 199.55 0.0422263 197.505C-0.448382 194.106 3.45472 193.255 5.5952 191.819C6.7865 191.021 7.74978 189.953 9.07686 189.155C12.7186 186.967 17.0547 186.042 20.594 183.519C23.676 181.32 25.7678 177.661 28.951 175.492C27.3793 173.084 25.9868 176.286 24.2025 175.124C23.3212 174.551 23.015 171.274 22.6307 170.039C21.0487 164.959 19.86 163.278 18.9723 157.561C18.4612 154.269 17.3672 153.292 16.2925 150.508C14.4838 145.822 16.4078 142.332 16.158 137.578C16.0158 134.866 15.1217 133.231 14.4979 130.785C13.3527 126.292 14.1674 121.912 13.5974 117.34C12.6828 110.008 10.7114 104.527 10.7754 96.5732C10.933 77.027 16.354 63.655 30.2332 50.21C31.1632 49.3095 35.2277 46.0584 35.6261 45.3616C35.9848 44.7339 35.8797 43.877 36.1795 43.0969C36.5573 42.1118 38.3481 37.8372 38.9182 37.3838C40.2235 36.3436 42.2756 37.7911 42.9096 37.0225C43.3503 36.4896 43.9523 33.1386 44.0535 32.2766C45.2243 22.2184 42.0745 15.4639 49.6821 6.65475C59.0472 -4.18989 76.4312 -0.694138 84.8842 9.34861C88.5234 13.6719 89.055 22.1928 88.3134 27.6472C88.038 29.6736 85.8514 30.578 85.8091 32.0153C85.7502 34.0661 89.0077 39.6985 87.491 41.5584H87.4884ZM83.3804 9.18593C72.2642 -2.62199 51.2628 -2.20055 46.1735 15.4447C44.4839 21.3038 45.9776 27.5588 44.8375 33.5345L45.8456 34.2006L44.8477 34.2275L43.0903 39.2027C50.3828 43.8603 56.2778 50.1716 62.3905 56.2165C63.0259 55.7323 64.8448 54.6819 64.6898 53.9146C64.6514 53.7276 62.4687 51.5858 62.0959 51.1144C60.765 49.4312 58.3504 46.2672 58.3811 44.0793C58.4183 41.4406 60.7342 38.8056 61.7629 36.4256C63.1668 33.1745 64.2044 29.2202 63.2552 25.7488C63.6254 25.6886 63.61 26.201 63.6856 26.4648C64.5797 29.6147 63.5626 33.5652 62.42 36.5704C60.7599 40.9384 57.6535 42.7318 60.7381 47.6071C63.4076 51.8266 72.1848 60.4449 77.4559 56.4893C80.0806 54.5192 78.7753 51.9598 79.631 49.3185L78.8624 50.3407C78.2565 50.2613 78.7036 49.2557 78.9739 49.0418C80.0255 48.2028 81.8906 48.9944 80.9401 46.1558C82.973 44.8787 82.4133 45.026 82.7271 43.0635C83.242 39.8432 86.0217 42.5435 86.8697 40.8065C87.7177 39.0695 84.997 34.1327 85.0072 32.0229C85.0174 29.9132 87.4948 29.3534 87.541 26.616C87.6486 20.2201 88.0431 14.1356 83.3842 9.18593H83.3804ZM42.2615 38.0473H40.9844V38.2984L42.2602 38.5571V38.0473H42.2615ZM39.5804 38.3022L37.0185 44.7173C41.6236 47.7903 45.5676 50.8518 49.3055 54.9522C51.7829 57.6704 54.1834 61.5607 56.6403 64.0073C56.8145 64.1802 56.8555 64.5363 57.2321 64.4339L62.6262 58.5401V58.0316C55.6808 50.6494 48.487 43.3236 39.5804 38.3022ZM55.6629 64.5991C53.5916 62.6174 51.3384 59.0423 49.3055 56.7442C45.6509 52.6144 41.6274 48.7433 36.7969 46.0251C35.2649 47.374 33.6252 48.678 32.147 50.0807C29.5761 52.5183 25.3502 56.6687 23.3289 59.4445C22.9573 59.9548 22.637 60.7831 21.8684 61.6157C18.5546 67.6824 15.4535 73.7977 13.6704 80.5202C11.5132 88.6517 11.4646 106.515 14.4979 114.389C15.5444 117.104 17.4838 120.687 18.8391 123.366C19.3694 124.414 20.088 125.599 20.7618 126.567C20.831 127.297 20.448 126.778 20.2584 126.557C19.4872 125.655 19.1209 124.479 18.4164 123.532L14.8796 116.189C15.506 120.425 14.667 124.87 15.465 129.049C16.2631 133.229 18.4279 137.275 19.7319 141.18L19.4258 141.229L17.1828 136.941C17.6311 140.478 16.4975 144.643 16.9458 148.063C17.2468 150.357 19.1708 152.887 19.8062 155.191C20.4915 157.679 20.3839 160.188 21.1487 162.814C21.7891 165.012 22.9894 166.92 23.7016 168.969C23.9949 169.814 24.7751 174.023 25.2375 174.057C30.98 171.526 33.3114 164.906 37.9331 161.172C41.4942 158.295 53.0254 152.679 57.4819 152.303C63.2654 151.813 69.2667 153.713 75.3961 153.582C76.8052 153.552 78.2232 153.627 79.6297 153.59C79.5593 153.147 79.1199 153.146 78.8035 153.01C76.9794 152.228 74.8709 151.667 72.9828 150.894C71.9875 150.486 67.0558 148.032 66.6561 147.995C66.1335 147.947 65.1958 149.827 63.0054 149.094C62.1395 148.804 55.741 145.047 55.3465 144.466C55.0788 144.073 54.9417 143.02 54.7509 142.881C54.6189 142.785 52.7987 142.424 52.2479 142.187C50.2854 141.347 49.7449 140.141 48.2692 138.996C44.3687 135.969 43.0826 135.938 40.7628 131.139C36.6624 122.655 33.2 113.847 29.5889 105.176C26.3135 97.3123 20.3506 89.8494 22.6884 80.8366C22.7639 80.5458 22.6704 80.004 23.0637 80.0667C22.9817 81.7883 22.4565 83.2896 22.5603 85.0586C22.7473 88.2649 24.7853 92.8456 26.1739 95.7854C26.7977 97.1048 27.4869 98.7291 28.4386 99.7923C27.7546 96.7474 26.8643 93.4592 26.4621 90.3708C26.4262 90.0915 26.1777 89.4882 26.6465 89.5458C27.711 93.5527 28.6551 97.6121 29.8489 101.584C33.1564 112.584 38.6927 122.547 43.1735 133.079C44.4968 135.131 46.7064 136 48.5267 137.456C49.8435 138.511 51.1155 140.216 52.5041 140.905C53.5519 141.425 55.7551 141.734 56.3598 142.694C56.5583 143.009 56.3418 143.355 56.4674 143.59C56.6659 143.96 62.908 147.754 63.5869 148.022C64.6681 148.447 65.0946 147.325 65.8235 146.819C71.0076 143.214 77.0985 139.83 79.3812 133.491C76.8372 130.242 73.3786 127.615 70.0353 125.154C68.9439 126.776 67.8731 128.451 66.6818 130.001C65.5532 131.469 62.2048 134.93 61.8269 136.424C61.4503 137.919 62.4379 141.424 62.4956 143.207C62.5148 143.792 62.6121 145.126 61.9717 145.393C62.1587 142.523 60.332 137.702 61.3325 135.149L68.8338 125.28C67.2287 124.312 67.2236 122.919 66.5088 121.379L63.7957 120.508C63.6215 118.877 64.1826 117.156 62.9964 115.8C62.5109 115.246 61.5938 115.063 61.3158 114.152C60.8803 112.725 61.344 110.072 61.1698 108.405C60.8905 105.727 59.3213 103.551 59.224 100.616C59.0792 96.2632 59.4994 96.3721 57.6638 92.1885C56.2393 88.9425 53.3982 84.8947 52.5553 81.6692C52.5028 81.4681 52.3875 80.8097 52.7538 81.2196L58.3824 91.3366C58.3785 88.2418 57.7598 85.1778 56.8542 82.2367C57.6535 81.6564 57.2885 83.1385 57.8713 83.1372C57.4165 80.4433 56.3867 77.688 55.1018 75.281C52.8384 71.0398 49.2965 66.4078 44.8221 64.4339C44.7939 63.8984 45.5382 64.2853 45.7726 64.3801C52.5258 67.1085 58.3055 78.1491 59.1202 85.0932C59.233 86.0565 59.1087 87.0416 59.1561 88.0049C59.516 87.9754 59.6057 86.8507 59.6339 86.565C60.063 82.0637 58.2453 77.419 57.2193 73.1611C57.1565 72.9036 56.8837 72.322 57.3589 72.3809C58.8781 77.1128 60.5805 82.042 60.1732 87.1056C59.9708 89.6201 59.2035 90.9395 59.7248 93.7103C59.9298 94.7991 60.6113 95.9058 60.6894 97.1061C60.7765 98.4588 60.3551 99.6642 60.4678 101.168C60.6599 103.72 62.1869 105.887 62.4494 108.405C62.6237 110.08 62.233 112.133 62.5417 113.706C62.6967 114.494 63.7317 114.828 64.271 115.549C65.3957 117.056 65.0165 118.029 64.8026 119.755C65.6045 120.02 66.8688 120.167 67.4824 120.789C68.1395 121.453 68.2894 123.61 69.1361 124.017C69.4896 124.186 69.9072 123.854 70.2748 123.883C70.996 123.941 73.7744 126.199 74.5135 126.817C75.6267 127.747 79.6323 131.323 80.2587 132.339C80.7711 133.169 80.4918 133.965 80.8902 134.526C81.3334 135.148 83.3176 136.074 83.9786 136.684C84.0042 135.23 84.0811 133.936 83.6532 132.529C83.1729 130.947 81.6857 129.4 81.2322 127.779C80.5738 125.424 80.9235 122.127 80.6225 119.679C80.1831 116.107 78.733 112.493 78.131 108.851C76.0571 96.3042 75.9495 87.7563 71.3752 75.3912C70.508 73.0458 69.4819 70.7695 68.3649 68.5393C68.0344 68.4676 67.9525 69.0171 67.9192 69.2387C67.0033 75.4027 71.2189 85.2431 72.3936 91.7914C73.4504 97.6812 72.8368 103.624 74.8978 109.268C76.0405 112.394 77.9068 114.806 78.7881 118.183C79.7002 121.681 78.9175 124.589 80.2728 127.97C81.3539 130.669 82.3402 130.566 82.1878 133.998C82.1737 134.309 82.3825 134.95 81.9355 134.891C82.4863 132.088 80.4828 130.261 79.5836 127.893C78.2924 124.494 78.9316 121.423 77.9645 117.985C77.1383 115.045 75.4615 112.75 74.3867 110.037C72.2129 104.552 72.9546 98.6202 71.8761 92.8238C70.2851 84.276 66.0297 75.0953 64.8461 66.8113C64.5733 64.9052 65.1062 63.2028 64.9192 61.357L63.3845 59.3215C62.1254 60.0606 58.1877 65.8685 57.0822 65.6085C56.8914 65.5637 55.8704 64.8041 55.6616 64.6042L55.6629 64.5991ZM66.8303 71.0936C66.9379 68.6866 67.3248 66.3233 68.1075 64.0444C68.3982 63.199 69.414 61.7797 69.3462 61.038C69.1719 59.1294 65.7735 57.1682 64.914 55.4671L63.0182 57.1298L66.0092 61.284C65.7633 64.4518 65.6467 67.2135 66.4537 70.3224C66.5293 70.6132 66.4358 71.1551 66.8291 71.0923L66.8303 71.0936ZM82.4248 113.855C83.0883 112.041 80.6404 111.006 80.447 110.372C80.0422 109.051 81.058 107.078 79.1212 106.193C79.1084 109.025 80.096 111.659 80.657 114.393L82.4235 113.855H82.4248ZM82.6976 126.686C83.1267 125.376 84.6562 123.968 85.7912 123.247C87.2079 122.346 88.6887 122.168 90.1221 121.421C90.254 120.95 89.5303 120.137 89.2318 119.769C87.7613 117.956 85.6746 116.168 84.1233 114.376L83.5892 114.126L80.9401 115.306C82.1071 118.962 81.8996 122.773 82.1891 126.558L82.6976 126.685V126.686ZM124.511 150.425C123.881 149.718 123.422 148.706 122.885 148.081C120.458 145.25 114.97 143.745 111.618 141.939C106.062 138.945 100.522 133.14 95.8762 128.746C94.8373 127.763 90.8689 123.316 90.1157 122.97C88.4825 122.219 83.4829 126.384 82.8859 127.792C82.5631 128.552 84.7971 131.455 85.0866 132.63C85.3274 133.607 85.0648 135.208 85.4978 135.805C85.6631 136.033 89.7109 138.246 90.3744 138.609C94.2071 140.704 98.319 142.608 102.286 144.353L104.893 148.995L116.229 153.333C114.711 151.711 113.168 150.088 112.643 147.831L113.154 147.702C113.516 148.424 114.277 150.334 114.956 150.646C115.713 150.995 116.438 150.451 117.312 150.566C118.8 150.762 123.97 154.145 125.194 155.252C126.402 156.344 130.074 161.336 131.706 161.02L132.068 160.419C130.147 157.824 128.712 154.765 126.599 152.308C125.986 151.596 125.023 151.004 124.51 150.427L124.511 150.425ZM127.745 166.142C125.831 161.759 121.73 159.123 118.516 155.784C113.118 152.654 106.579 151.509 101.124 148.6C98.9966 147.465 97.1328 145.889 95.0666 144.672C90.0401 141.713 84.7075 139.216 80.2343 135.421C79.795 135.34 77.7416 138.614 77.2036 139.246C74.5264 142.389 71.1126 144.918 67.604 147.059C69.7778 148.215 72.0848 149.118 74.3803 150.009C80.739 152.473 87.9816 154.109 94.0982 156.659C96.8676 157.815 96.7818 158.756 98.693 160.514C102.398 163.922 107.492 164.618 111.445 166.963C113.985 168.471 116.138 171.241 118.557 172.91C119.286 173.412 120.695 174.568 121.545 173.764L121.764 173.189L113.415 163.327C115.574 164.15 116.861 166.138 118.53 167.555C120.574 169.29 123.002 171.463 125.067 173.053C126.318 174.016 128.643 175.355 128.652 172.808L116.744 160.762C121.574 163.419 124.986 167.535 128.646 171.52C129.259 172.187 129.715 173.875 130.825 173.195C131.903 172.533 130.37 170.914 129.896 170.268C128.156 167.898 125.547 164.626 123.4 162.68C122.273 161.659 119.615 160.079 119.048 158.837C118.998 158.727 118.982 158.417 119.172 158.458C122.183 160.884 125.402 163.019 127.745 166.142ZM102.08 145.717C101.46 144.977 91.6772 140.582 89.8621 139.632C88.2288 138.776 86.6558 137.761 85.0072 136.936C84.9111 137.401 85.2314 137.574 85.5324 137.818C87.7638 139.617 92.716 141.789 95.4765 143.491C97.421 144.69 101.227 147.866 103.053 148.462C103.219 148.516 103.486 148.512 103.431 148.339C102.691 147.773 102.509 146.231 102.08 145.719V145.717ZM134.913 160.249C134.988 159.743 134.775 159.384 134.516 158.982C133.262 157.024 130.508 155.106 129.295 152.937L126.212 150.773C126.879 151.662 127.708 152.458 128.365 153.354C129.568 154.995 131.323 158.362 132.609 159.611C133.221 160.205 134.098 160.546 134.915 160.249H134.913ZM135.934 182.026C139.343 177.575 140.402 171.91 138.113 166.655C137.484 165.21 135.036 162.014 133.62 161.398C132.936 161.1 131.849 162.173 130.317 161.646C129.933 161.514 127.689 159.536 127.232 159.1C126.209 158.123 125.497 156.909 124.402 156.039C122.15 154.25 119.072 152.617 116.231 152.054L125.706 161.14C128 163.796 129.312 166.808 130.762 169.913C131.219 170.891 132.358 171.454 132.103 172.92C132.004 173.49 131.429 173.697 131.368 173.992C131.263 174.504 133.252 176.518 133.682 177.237C133.991 177.752 135.7 182.185 135.933 182.025L135.934 182.026ZM61.4593 159.866C61.5784 161.223 61.3722 162.718 61.4593 164.093C60.8137 164.278 60.8265 163.545 60.765 163.131C60.3871 160.607 60.4486 157.489 59.2086 155.202C58.5412 153.972 58.1595 153.5 56.73 153.59C53.1561 153.813 41.1163 160.042 38.3033 162.563C34.7589 165.739 32.8567 170.796 28.6986 173.321C29.8656 175.7 31.787 173.645 33.7047 173.331L38.9335 166.398L34.0736 173.313C36.4767 173.3 38.4545 174.515 40.2196 176.003C41.2546 176.875 42.5343 178.685 43.5552 179.325C44.1112 179.673 52.6398 180.913 53.9131 180.999C54.6535 181.048 58.6475 181.1 58.9012 180.741C58.6962 179.724 58.3516 178.533 57.7317 177.689C56.6159 176.17 49.7231 173.255 47.5608 171.986C45.1193 170.553 42.5049 168.873 40.4733 166.915L47.7235 171.567L57.6907 176.891L59.3047 180.761C61.8077 180.428 64.2748 181.147 66.6971 181.269C71.5251 181.511 76.239 180.415 81.0285 180.221C84.938 180.064 89.6545 181.077 93.2054 180.369C97.3249 179.548 101.437 177.398 105.738 177.161L93.4551 180.999C95.7506 180.882 98.57 182.327 100.736 182.289C103.214 182.245 106.936 180.715 109.711 180.493C111.49 180.351 113.413 180.585 115.208 180.492L108.501 181.332L102.158 182.792L106.853 184.372L119.561 193.041C118.631 192.803 117.681 192.26 116.83 191.806C113.648 190.114 108.631 186.057 105.608 185.104C105.441 185.052 105.176 185.052 105.231 185.227C106.242 186.861 107.983 188.004 109.198 189.455C109.369 189.657 109.869 189.968 109.454 190.223C109.158 189.998 108.84 189.83 108.551 189.59C107.188 188.458 104.771 185.14 103.618 184.537C100.613 182.963 89.3305 181.669 85.6477 181.518C80.8005 181.319 76.3043 182.259 71.5712 182.537C69.4947 182.659 67.3812 182.452 65.3034 182.541C65.8209 185.649 68.607 187.168 70.6822 189.069C71.014 189.373 71.1062 189.515 70.5541 189.455C68.0934 187.62 65.5776 185.749 64.923 182.536L64.6284 182.32C60.8201 181.97 56.9605 182.563 53.1497 182.28C50.3597 182.072 47.3008 181.16 44.4519 180.99C43.6411 181.103 42.6983 184.306 42.4575 185.163C40.8972 190.72 41.4224 195.662 43.4605 200.997C46.4425 201.177 49.3952 200.557 52.376 200.732C56.1638 200.955 60.145 202.524 63.8969 202.545C69.8457 202.578 75.815 201.667 81.8227 201.999C84.9483 202.172 88.1276 202.9 91.2711 203.046C98.5444 203.381 106.226 202.964 113.559 203.025C117.202 203.056 118.91 203.649 122.55 202.054C128.907 199.268 132.897 194.861 134.292 187.933C135.311 182.876 133.465 177.951 129.794 174.456C129.223 174.17 128.755 174.98 128.124 175.099C125.396 175.611 123.011 172.072 120.973 170.751C121.15 171.57 122.264 171.972 122.524 172.792C123.011 174.325 121.982 175.245 120.489 175.098C118.252 174.876 113.683 169.62 111.455 168.238C108.291 166.276 103.863 165.442 100.452 163.368C97.0124 161.277 96.7242 158.883 92.5687 157.424C90.8958 156.836 83.2062 154.24 82.0033 154.165C80.6084 154.078 78.2348 154.776 76.6899 154.869C70.4106 155.243 64.8051 153.655 58.6501 153.337L60.4883 155.719C60.9366 156.962 61.3491 158.568 61.4631 159.867L61.4593 159.866ZM43.0262 180.242C40.4182 179.083 38.4276 175.273 35.4583 174.877C29.3545 174.064 25.2657 182.106 20.7964 185.006C17.7374 186.99 14.1546 187.933 11.0265 189.572C9.16908 190.546 7.63065 191.999 5.89879 193.15C4.41416 194.138 0.602011 195.232 1.35906 197.73C1.49356 198.173 1.95342 198.384 2.33771 198.548C5.79759 200.029 8.97566 198.131 12.4355 197.899C16.2797 197.641 20.1316 198.522 23.9527 198.688C29.7157 198.938 35.4801 198.285 41.2393 198.419C39.1744 192.423 40.0621 185.785 43.0262 180.241V180.242Z" fill="#6572A4"/>
<path d="M42.2615 38.0473L42.2613 38.5571L40.9855 38.2983L40.9842 38.0486L42.2615 38.0473Z" fill="white"/>
<path d="M42.2613 62.8993L37.9035 63.5282C33.374 64.3135 29.5759 67.1828 26.654 70.5825C26.8564 69.6858 27.8953 68.3959 28.5588 67.7528C32.0008 64.4121 37.3898 61.8655 42.2626 62.9006L42.2613 62.8993Z" fill="#6572A4"/>
<path d="M25.8804 98.5074C23.1187 96.65 20.517 94.2034 19.2309 91.0778C20.0648 91.6248 20.4978 92.656 21.1447 93.3861C22.4308 94.8387 24.1383 96.1402 25.3719 97.6095C25.6127 97.8977 25.9931 98.0258 25.8804 98.5061V98.5074Z" fill="#6572A4"/>
<path d="M58.1299 112.089C58.1875 112.562 57.5957 112.312 57.3549 112.225C55.9317 111.708 53.2776 110.076 51.9108 109.219C51.4804 108.95 46.2963 105.462 46.6153 105.171L52.6794 109.217L58.1299 112.088V112.089Z" fill="#6572A4"/>
<path d="M62.9963 62.3843L63.2537 61.2263L63.7571 61.1034C64.5309 63.2643 62.1047 63.2618 62.4839 61.1034L62.9963 62.383V62.3843Z" fill="#6572A4"/>
<path d="M64.5271 68.533L62.2739 65.7955L60.437 62.8967C61.7244 64.2174 62.7838 65.7891 63.8636 67.2776C64.1339 67.6491 64.5579 68.0513 64.5271 68.533Z" fill="#6572A4"/>
<path d="M123.139 186.896L121.766 187.117L107.528 184.334C112.882 183.964 118.002 185.724 123.139 186.896Z" fill="#6572A4"/>
<path d="M61.4554 25.235L59.7876 23.1931C56.0587 20.2136 53.9925 25.4131 54.2961 28.6923C54.5113 31.0134 56.9771 36.241 59.9221 34.9742C57.5459 38.1958 54.2525 32.4596 53.6582 30.3537C52.8242 27.3947 53.384 22.4258 56.8977 21.5702C59.2111 21.0065 61.6373 22.7576 61.4554 25.235Z" fill="#6572A4"/>
</svg>
