<svg width="121" height="187" viewBox="0 0 121 187" fill="none" xmlns="http://www.w3.org/2000/svg">
<path d="M22.7513 168.023C19.8239 168.494 17.0198 169.376 14.0023 169.126C12.9465 171.2 16.7625 172.419 15.6552 174.529C15.1786 175.437 13.5457 175.493 13.5457 175.493L10.8627 177.42C10.8627 177.42 9.50835 177.739 8.81624 178.032C8.61393 178.117 8.3648 178.199 8.02853 178.267C7.14323 178.447 3.76046 177.774 2.88015 177.655C2.43835 177.594 2.02427 177.315 1.71708 176.742C1.44696 176.238 1.45018 175.425 1.27438 175.149C1.17684 174.996 0.638738 174.842 0.375046 174.442C-0.584319 172.986 0.600149 171.842 0.595861 170.701C0.594789 170.215 0.138152 169.195 0.0727651 168.533C-0.673289 160.953 7.02736 159.107 11.4008 155.069C13.208 153.4 14.6733 150.967 16.2544 149.067C11.7438 141.633 12.5467 132.389 14.4118 124.241C16.4366 115.394 21.3707 107.064 20.8229 97.6679C20.7661 97.3892 20.4756 97.7976 20.3995 97.8865C19.4059 99.0517 18.5076 100.522 17.5053 101.631C17.3435 101.81 16.5353 102.717 16.3262 102.484C17.1591 98.1524 17.2116 93.6332 16.0883 89.3358C15.7227 87.937 14.9413 86.7622 14.8191 85.2508C14.5576 82.0415 16.1269 79.7347 15.6616 76.2692C15.5298 75.2862 15.1042 74.3054 15.0324 73.2571C14.8191 70.1496 18.0188 60.4038 19.319 57.1816C20.9151 53.2241 23.5724 49.9697 27.4281 48.0499C26.8257 42.2755 30.7424 37.9696 32.6076 32.774C34.6389 27.1165 34.6378 20.1201 37.8707 15.1206C39.4485 12.681 41.259 11.8738 43.316 10.0708C50.6394 3.65327 55.2615 -2.19403 66.2754 0.811622C73.0735 2.66711 76.3793 6.99872 80.9081 11.8792C84.0403 15.2546 82.4442 22.0624 80.7623 25.8859C79.9605 27.7081 78.2358 29.8841 77.6892 31.5938C77.1328 33.3325 77.2014 35.173 76.4822 37.0263C75.5721 39.3717 70.7485 45.7817 68.8844 47.6329C68.4492 48.0649 67.6239 48.2471 67.5124 48.8313C67.5874 49.8679 67.4031 51.0331 67.5124 52.0471C67.7632 54.3828 69.8427 55.6273 70.9768 57.5782C73.0435 61.1305 73.5591 65.0859 72.5493 69.0745C72.3467 69.8752 71.3552 71.8658 71.3756 72.3717C71.4549 74.299 73.0767 78.0453 73.4433 80.3843C74.0007 83.9355 74.2826 87.2188 74.9429 90.8783C75.2945 92.8271 75.3953 96.2551 76.33 97.8447C76.6601 98.4064 77.4984 99.0206 77.6967 99.6906C77.9754 100.626 77.5573 101.934 77.9046 102.695C78.1855 103.31 80.3443 105.587 80.9671 106.487C82.069 108.076 82.9877 110.149 84.2257 111.58C85.1733 112.676 86.5035 113.437 87.4265 114.59C88.15 115.495 88.6184 116.669 89.3634 117.579C91.2125 119.837 96.4734 123.53 97.7222 125.711C98.0942 126.362 97.8734 127.088 98.4479 127.769C99.657 129.203 104.144 131.208 105.952 132.687C108.187 134.515 111.191 137.601 112.794 139.982C113.266 140.683 115.088 143.542 115.291 144.141C115.52 144.82 115.156 145.252 115.375 145.74C115.554 146.14 117.329 147.938 117.803 148.679C121.693 154.751 121.403 165.643 116.669 171.237C114.925 173.297 112.895 174.205 110.988 175.836C109.24 177.332 108.023 179.518 106.166 181.08C97.3685 188.474 83.4604 187.292 72.8237 185.308C70.1096 184.802 67.5038 183.677 64.8347 183.445C57.0612 182.767 49.0669 182.158 41.2751 181.732C34.8758 181.381 28.4753 181.947 22.0471 181.684C18.9814 179.896 21.9506 175.708 22.5969 173.329C23.1179 171.411 22.9357 169.954 22.7513 168.021V168.023ZM77.3644 9.74926C77.4576 9.34622 77.1371 9.24117 76.9378 8.99999C69.6541 0.182406 58.7034 -1.71489 49.6371 5.6867C46.7794 8.02026 40.1742 13.3005 38.4903 16.1711C35.4514 21.3506 34.8908 29.4715 35.3903 35.3413C35.5157 36.8109 35.9466 38.2579 36.0281 39.7329L35.014 36.3596L34.3194 29.4543C34.1104 35.9994 28.0852 40.9184 28.3221 47.4432C37.4955 43.3356 46.4417 50.3845 55.6184 50.6654C57.878 50.734 61.067 49.9322 62.7927 48.3983C63.0339 48.1839 63.094 48.2139 62.8035 47.9802C61.5086 46.9405 60.3327 48.0788 59.056 48.0864C58.4418 48.0896 56.7193 47.6404 56.1008 47.4003C55.3933 47.1248 51.7263 44.8492 51.4519 44.3379C51.4015 44.2435 51.409 43.9734 51.5569 44.0206C54.2078 45.6617 56.3977 47.4046 59.696 47.4582C60.1205 47.4657 61.142 47.5193 61.3017 47.0198C59.1268 46.0401 56.6646 45.5481 54.6783 44.1117C53.0683 42.9465 49.5449 39.1326 48.8385 37.3157C48.7571 37.1078 48.4923 36.6619 48.7732 36.5236C51.364 39.9666 54.1413 43.7097 58.3046 45.3015C52.005 40.6151 50.1731 32.2306 49.9544 24.7443L51.2997 32.0698C52.4037 35.6232 53.3524 39.6782 56.1608 42.3055C55.7996 41.5048 55.4544 40.807 55.2004 39.9484C53.7565 35.0647 54.0641 28.198 54.6655 23.1386C55.1071 19.4212 55.91 15.6963 57.5586 12.3251C57.9873 11.8642 57.922 12.205 57.7976 12.5641C57.237 14.1731 56.7171 15.3318 56.3087 17.0726C55.1639 21.953 54.6869 28.1905 54.8777 33.206C54.8874 33.4654 54.7169 34.0024 55.09 33.9521C55.1489 33.2157 55.5627 32.5146 55.9121 31.8822C59.0828 26.1496 68.8748 15.9985 75.0137 13.7175C76.5722 13.1387 78.8554 12.6617 80.2232 13.8547C80.5512 14.1409 81.6145 15.3983 80.5801 15.32C80.6487 14.6597 80.1449 14.2492 79.5071 14.2513C80.4247 16.3555 81.1472 18.6397 80.9778 20.969C80.9156 21.8223 80.5941 22.7988 80.4418 23.6445C80.3775 24.0004 80.2028 24.3413 80.6873 23.8889C81.4591 20.775 82.382 16.9536 81.0475 13.8869C80.3004 12.1696 78.1887 10.7001 76.613 9.75248L77.3633 9.75033L77.3644 9.74926ZM80.1481 19.6012C80.4204 18.674 79.2435 14.2245 78.655 13.9244C77.4223 13.2962 73.9846 15.1035 72.8034 15.7884C70.756 16.9772 68.8373 18.6601 67.0858 20.2423C68.4417 19.6216 69.7677 18.912 71.2062 18.4747C73.8399 17.6739 77.1939 16.9761 79.4996 18.8606C79.8405 19.1392 79.8137 19.5487 80.1481 19.6012ZM74.5377 18.5936C72.0638 18.8305 68.0945 20.2926 65.9506 21.5714C63.0489 23.3026 55.6956 32.2788 55.3311 35.5803C54.8338 40.0941 57.9906 43.9745 61.5375 46.2469C63.5324 47.5247 66.0514 48.9182 68.1641 47.1302C69.2253 46.2319 72.4925 41.6388 73.4755 40.2335C76.2453 36.276 75.6568 34.3669 77.2047 30.4694C77.6967 29.2303 78.7343 28.0822 79.1448 26.842C79.4589 25.8934 80.2221 22.1074 80.1653 21.2134C80.0099 18.7844 76.3857 18.4178 74.5377 18.5947V18.5936ZM64.2999 52.3665C62.4701 53.343 60.5535 54.2992 58.4129 54.2531C55.1071 54.1834 47.2617 50.0715 43.4811 48.8817C36.579 46.7089 31.541 45.7003 25.4332 50.4467C22.0106 53.1061 20.7018 56.1943 19.3212 60.1829C17.9513 64.1405 16.7175 68.5128 15.8921 72.5968L16.7529 76.356C17.3949 70.6534 18.7648 64.1426 21.7223 59.1582C22.8842 57.2009 24.5071 55.2596 26.607 54.2992C21.5615 58.6672 19.6385 64.9455 18.186 71.2558C17.5471 74.0321 15.3744 83.3706 15.7356 85.6227C16.0443 87.5511 17.5718 89.8096 17.3992 91.991L17.8237 89.7421C18.6319 81.2804 18.9857 60.3201 28.4228 56.6499C37.9725 52.9357 45.1008 63.9389 51.4476 69.186C56.7654 73.5819 67.5521 80.0005 71.1912 70.2922C73.2493 64.8029 71.8826 60.4155 68.6883 55.7999C68.4846 55.5062 68.3099 55.4451 68.3678 55.9038C68.5682 57.471 69.3057 59.096 69.4365 60.8336C69.6659 63.8853 69.1674 65.639 68.252 68.426C68.1684 68.6789 68.3839 69.008 68.2617 69.2824C67.864 70.1775 65.4243 71.9687 64.2966 71.3255C66.7063 70.9053 67.4438 69.0927 68.0934 66.9821C69.4772 62.4854 68.5961 58.4614 67.2948 54.0859C66.9228 54.0344 67.0911 54.5736 67.0826 54.8319C66.8885 60.4563 65.1767 66.2264 58.2467 65.1674C58.0581 65.1384 57.6015 65.0741 57.6604 64.7954C65.614 65.9252 66.5434 58.1152 66.8671 52.1575L64.9023 55.2221C61.9781 58.977 58.9864 60.8615 54.1756 59.3886C50.7712 58.3457 47.266 56.5438 44.597 54.1898L50.5161 57.2663C52.8904 58.1056 55.3858 59.5119 57.9831 59.2246C61.679 58.8162 66.8071 52.7299 66.6463 48.9525L63.4177 48.409C59.8793 52.1586 55.2175 51.7405 50.5943 50.659L55.895 52.9582C58.6884 54.1245 61.7755 53.686 64.1948 51.9431L64.2988 52.3654L64.2999 52.3665ZM70.7239 73.1456C65.0738 80.2181 55.2272 73.7856 50.0648 69.2846C44.1843 64.1576 33.8767 50.3685 25.5426 59.9803C16.1869 70.7692 22.314 94.7501 22.9635 107.951C23.0911 110.544 22.8756 113.171 22.9635 115.765C22.5894 115.815 22.762 115.278 22.7513 115.019C22.6291 112.058 22.4469 109.215 22.0814 106.262L21.4682 102.916C21.0877 108.997 18.3607 114.527 16.6489 120.264C13.8951 129.491 12.2647 139.341 16.7571 148.319C16.9169 148.439 18.425 147.247 18.8152 147.061C23.8511 144.655 27.9212 149.989 32.1702 152.286C41.3244 157.236 52.7607 157.597 62.8421 159.524C65.8348 160.096 69.0013 161.142 71.933 161.569C77.075 162.318 82.4806 161.497 87.4876 163.149C88.3601 163.436 89.61 163.909 90.2167 164.595C87.8724 163.68 85.5592 163.116 83.0402 162.886L74.1551 162.672L82.576 166.992L86.5754 168.455C86.6097 168.862 85.8979 168.648 85.6685 168.612C82.4796 168.108 79.7097 166.085 76.8692 164.774C62.484 158.136 45.8661 160.387 31.6621 153.265C30.0146 155.244 29.2718 157.904 29.1978 160.445C29.1807 161.055 29.4133 161.778 29.3908 162.566C29.3833 162.823 29.5494 163.363 29.1785 163.312C28.3724 159.61 28.8044 156.01 31.0994 152.924L27.3873 150.485C24.0537 153.803 22.7556 158.782 22.9571 163.429C23.0932 166.567 24.1534 169.328 23.82 172.627C23.5477 175.321 20.7865 177.767 21.9249 180.632C27.8547 181.111 33.8135 180.422 39.7873 180.652C43.7812 180.806 47.7934 181.431 51.7745 181.73C55.6559 182.021 59.5631 182.235 63.4434 182.372L57.371 179.773C52.6117 177.421 47.8652 174.932 43.7416 171.557L44.0578 171.453C54.7448 178.712 67.4695 184.22 80.4719 185.371C91.9564 186.388 102.113 186.052 109.365 175.93C110.736 174.016 111.74 171.871 112.917 169.842C113.359 169.545 113.028 170.204 112.992 170.346C112.662 171.62 111.964 172.617 111.636 173.703C111.552 173.98 111.68 174.123 111.95 174.017C112.404 173.839 115.023 171.42 115.482 170.909C121.124 164.613 120.714 153.076 115.166 146.821C114.766 148.048 114.264 148.013 113.071 147.842C111.733 147.65 112.436 147.766 111.292 147.893C109.061 148.139 107.126 143.973 105.96 142.534C104.725 141.011 102.819 139.422 101.245 138.254C100.945 138.858 101.99 139.205 102.294 139.561C102.96 140.338 103.622 141.39 103.717 142.433C103.758 142.882 103.526 143.601 103.612 143.832C103.714 144.104 105.418 146.113 105.81 146.754C106.369 147.668 108.782 151.79 108.849 152.518C108.929 153.402 108.262 153.578 108.255 153.775C108.242 154.114 109.421 154.931 108.43 155.931C107.507 156.862 106.89 156.044 106.38 156.097C106.181 156.117 105.995 156.536 105.702 156.629C104.251 157.084 103 155.922 102.102 154.959C102.022 154.924 101.745 155.962 100.805 156.022C98.7577 156.153 95.6866 152.422 94.0541 151.226C92.1643 149.841 89.9723 149.167 87.9635 147.894C86.3363 146.862 84.8142 145.622 83.47 144.252C82.8011 144.818 82.1376 145.952 81.1472 145.899C80.2275 145.848 77.6066 144.161 76.5058 143.716C74.3641 142.852 72.1002 142.592 70.1021 141.339C67.4674 139.688 65.6237 138.954 62.6598 137.858L49.5814 130.145C46.2681 130.672 42.7822 132.49 40.2139 134.616C39.8516 134.916 37.8257 137.222 37.5309 136.963C40.3136 133.116 44.6366 130.59 49.3091 129.792C46.1759 128.373 42.1712 129.286 38.9394 130.129C37.3294 130.549 34.6185 131.849 33.2936 131.995C31.2913 132.215 32.9506 130.025 33.6731 129.36C35.0312 128.11 36.9231 127.402 38.4988 126.475C39.1302 126.434 38.68 126.72 38.4613 126.866C38.0197 127.159 31.958 130.622 32.8209 131.396C35.028 131.086 37.0742 129.899 39.2427 129.36C42.0094 128.672 44.2507 128.522 47.0892 128.804C47.3153 128.826 47.6541 128.967 47.5962 128.616C47.3057 128.58 47.0302 128.405 46.7965 128.237C44.1789 126.352 41.0564 124.307 38.6242 122.273C35.2531 119.452 33.4758 114.19 31.7104 110.125C30.4359 107.188 29.2728 104.18 28.1045 101.2C27.7003 101.157 27.9319 101.649 27.9533 101.886C28.7551 110.413 26.4044 117.669 24.5671 125.824L23.8243 131.824C23.4298 128.616 24.1094 125.141 24.7837 121.971C26.3326 114.692 28.5193 108.402 27.6789 100.662C27.5095 99.0999 25.0441 92.6845 24.2884 90.9877C23.5767 89.3916 22.523 87.847 21.6847 86.3088C21.6354 85.6849 21.9431 86.1265 22.0792 86.3441C22.5541 87.1041 22.9453 88.0956 23.4309 88.8481C23.5006 88.9564 23.8768 89.5685 24.0397 89.3101C23.2594 86.402 21.9206 83.2634 21.4907 80.2932C21.4586 80.0702 21.2914 79.3145 21.6794 79.3542C24.207 88.3808 27.4013 97.2584 31.0051 105.903C32.4479 109.366 36.0216 118.513 38.3841 120.798C41.0607 123.385 46.5897 126.915 49.8408 129.045C54.3428 131.996 60.8826 136.243 65.8102 138.134C66.6549 138.459 67.8919 138.568 68.6454 138.94C69.399 139.312 70.1354 140.296 70.9297 140.725C72.664 141.66 75.2645 142.053 77.1479 142.859C78.1554 143.29 79.938 144.64 80.7409 144.844C81.8225 145.119 83.484 143.117 84.0949 142.301C85.4038 140.555 86.6761 138.073 87.1553 135.937C87.3739 134.964 87.7609 134.018 87.0148 133.207C85.8818 131.978 82.1344 130.39 80.5094 129.219C79.0055 128.135 77.6484 126.328 76.1134 125.476C75.0565 124.889 73.8003 124.616 72.6512 124.012C68.2852 121.722 64.8637 117.1 60.978 114.268C59.592 113.258 57.6636 112.833 56.7654 111.413C56.3302 110.725 56.1972 109.892 55.7438 109.213C52.9954 109.609 50.8634 111.263 49.1333 113.336L47.385 116.618C47.4472 112.701 51.4336 109.436 55.0921 108.803C53.5121 108.047 53.9151 106.302 53.258 105.068C52.7124 104.045 46.5103 100.279 45.0461 99.145C40.1196 95.3311 35.7579 90.4539 33.0374 84.8091C32.9892 84.1853 33.2957 84.6269 33.4319 84.8445C34.0354 85.8092 34.5317 86.8672 35.1716 87.8159C39.5525 94.3095 45.6153 99.0774 52.0939 103.339C49.6521 97.9744 49.6146 92.0767 47.2081 86.7032C44.9646 81.6942 41.6181 77.1557 38.606 72.6022L38.71 72.2859L43.1499 78.1257L47.3829 85.3483C46.5918 79.7851 45.4974 74.0878 43.0716 68.9952C42.1734 67.1086 40.9407 65.3689 39.977 63.523C39.8816 63.3397 39.4271 63.0707 39.7808 62.8627C44.3193 68.3156 46.7912 75.3441 47.6015 82.3502C47.9756 82.4005 47.8031 81.8635 47.8138 81.6041C47.9263 78.8761 47.712 75.7718 47.3604 73.0599C47.2403 72.1348 46.8673 71.1411 46.7676 70.2236C46.7419 69.9888 46.5757 69.4507 46.9541 69.5022C48.8718 74.493 47.832 79.7497 48.234 84.822C48.3862 86.7482 49.3295 88.6756 49.769 90.5696C50.6458 94.3492 51.0167 98.535 52.6267 102.061C53.0651 103.021 53.8058 103.939 54.181 104.79C54.5733 105.68 54.6065 107.009 55.1264 107.7C55.5337 108.242 56.2991 108.375 56.6968 108.913C57.0944 109.451 57.1062 110.217 57.4074 110.772C58.0013 111.863 60.2577 112.573 61.4078 113.411C65.1231 116.119 68.5929 120.67 72.6533 122.94C73.8517 123.61 75.1884 123.937 76.3643 124.584C78.1094 125.544 79.3249 127.179 80.9392 128.362C82.1494 129.25 87.778 132.211 88.1747 132.905C88.4276 133.347 88.299 134.029 88.657 134.408C88.9454 134.712 92.6135 136.467 92.7893 136.321C91.8449 135.305 91.6745 133.065 90.759 132.25C90.2756 131.82 89.3162 131.465 88.7396 131.057C83.9352 127.658 79.0934 124.37 74.0479 121.333L74.05 122.616C72.455 120.657 71.6339 117.987 71.0486 115.552C69.3936 108.675 69.6326 101.719 70.7271 94.7758C70.4194 94.7254 70.4462 95.1371 70.3573 95.3632C69.1331 98.4568 68.3088 101.848 67.4084 105.052L66.4491 109.765C66.0139 100.223 73.5344 90.798 72.6319 81.4144C72.3735 78.7303 71.1258 75.8393 70.7281 73.1435L70.7239 73.1456ZM18.0359 99.7013C18.4368 98.4986 19.8914 97.4363 20.362 96.3494C20.9966 94.8841 19.8882 89.577 19.7553 87.5993C19.5859 85.0814 19.8528 82.5185 19.5366 79.9995L19.1111 82.6771C19.0725 86.7011 18.3061 90.6715 18.0413 94.6719C17.9352 96.2701 18.4186 98.2338 17.6125 99.5973L18.0349 99.7002L18.0359 99.7013ZM78.3538 104.496C77.9443 103.968 77.0342 103.383 76.8177 102.713C76.5304 101.825 77.061 101.177 76.8938 100.293C76.7202 99.3679 75.377 98.2981 74.9504 96.8725C74.1797 94.2945 74.02 91.0263 73.4422 88.3143C73.3897 88.0678 73.4144 87.4632 73.0853 87.4975C72.1859 92.4594 70.9232 97.4117 70.9436 102.488C71.9619 101.399 73.0971 99.7635 74.795 100.024C71.8537 101.318 70.6896 102.497 70.7142 105.815C70.7335 108.398 71.2984 111.976 71.8654 114.522C72.2642 116.314 72.7969 118.108 73.5773 119.772L89.5714 130.329C90.713 127.576 93.8119 125.328 96.8572 126.259C96.9097 126.216 96.3255 125.456 96.1926 125.319C93.9887 123.058 90.7751 120.67 88.8232 118.339C87.9871 117.341 87.3975 115.989 86.5721 115.021C85.6707 113.964 84.4004 113.22 83.4689 112.128C81.6231 109.963 80.2232 106.9 78.3559 104.496H78.3538ZM96.7682 127.42C95.2493 126.312 93.8912 126.89 92.4709 127.98C90.0527 129.834 91.0088 129.757 91.8192 131.833C92.5031 133.585 92.6167 134.84 93.963 136.329C95.5548 138.09 97.9752 138.433 99.8371 139.879C101.03 140.805 101.657 142.397 103.067 142.965C102.624 139.629 98.539 138.169 98.4618 134.615C99.001 135.094 99.2154 136.248 99.7053 136.69C100.103 137.049 101.059 137.229 101.545 137.528C103.172 138.53 105.068 140.096 106.285 141.569C107.839 143.45 108.872 146.859 111.634 147.034L105.1 135.472C106.217 136.72 107.59 138.177 108.513 139.555C109.811 141.494 110.603 144.079 112.067 145.854C112.634 146.542 113.224 147.243 114.202 147.036C114.506 146.746 112.924 144.647 112.667 144.183C110.784 140.784 109.536 138.978 107.261 135.882C106.831 135.296 106.685 134.527 106.182 133.962C104.748 132.353 100.314 130.236 98.2828 128.796C97.749 128.418 97.2484 127.774 96.7661 127.422L96.7682 127.42ZM107.99 153.032C107.926 152.203 107.408 151.401 107.033 150.672C104.814 146.356 101.087 141.37 96.7178 139.141C94.8034 138.165 92.7325 137.416 90.7816 136.511C90.3582 136.315 88.2561 135.067 88.075 135.256C87.8145 138.257 86.168 141.264 84.2332 143.531C86.734 147.026 91.2746 148.092 94.5697 150.499C96.6299 152.004 98.0899 154.355 100.611 155.174C100.999 155.298 101.06 154.796 101.029 154.532L94.2867 146.713C94.2417 146.57 94.4754 146.558 94.6029 146.61C96.9054 147.553 100.79 152.779 102.85 154.641C103.566 155.289 104.653 156.174 105.636 155.816C105.688 155.463 105.563 155.179 105.394 154.881C104.72 153.694 102.311 150.642 101.346 149.506C100.027 147.951 98.1756 146.788 97.2838 144.896L99.6431 146.712C102.326 149.213 104.272 152.361 106.585 155.19C107.055 155.535 108.111 155.578 107.901 154.739C107.751 154.137 104.49 149.294 103.884 148.469C102.437 146.501 100.542 145.125 99.2122 143.074C99.1779 142.916 99.4362 142.928 99.5295 142.97C99.806 143.095 103.28 146.647 103.702 147.151C105.251 149 106.245 151.398 107.99 153.034V153.032ZM114.417 144.893C114.72 144.542 112.843 141.675 112.495 141.142C112.277 140.806 109.549 136.891 109.281 137.184C109.61 138.046 110.433 138.685 110.951 139.474C111.933 140.97 112.665 143.056 113.728 144.407C113.931 144.664 113.975 144.99 114.417 144.893ZM26.3755 149.629C24.2799 148.212 22.9099 146.698 20.1348 147.525C16.829 148.51 14.3603 153.791 11.6162 156.141C7.25889 159.872 0.352534 161.375 0.908859 168.557C0.961383 169.237 1.34727 170.073 1.31833 170.688C1.27224 171.671 -0.0890943 173.332 1.25187 174.213C1.62332 174.458 2.41515 175.193 1.99043 175.324C1.86287 175.934 2.45781 177.048 3.04094 177.101C4.86319 177.336 5.69246 177.655 7.27501 177.655C8.34692 177.655 7.91815 177.38 9.8476 177.062C11.5638 176.378 11.0546 175.976 14.0023 174.421C16.4399 173.832 13.446 171.826 13.2134 171.035C13.0258 170.397 13.1373 169.742 13.1169 169.097C6.10981 169.564 4.74874 167.867 13.2134 168.221C14.5348 168.276 15.8445 168.336 17.0744 168.239C18.8002 168.101 20.6032 167.467 22.3032 167.151C21.8927 162.288 21.7276 158.149 23.9572 153.704C24.6743 152.276 25.7677 151.054 26.3776 149.632L26.3755 149.629Z" fill="currentColor"/>
<path d="M8.81624 178.032L10.8627 177.42C10.8627 177.42 9.50835 177.739 8.81624 178.032Z" fill="currentColor"/>
<path d="M70.4022 139.753C70.3143 139.742 69.7901 139.543 69.8673 139.327C73.5011 139.282 76.6632 139.143 79.8232 137.181C80.1052 137.284 79.5746 137.628 79.4845 137.7C78.672 138.342 75.6396 139.753 74.6845 139.753C73.4121 139.753 71.5802 139.917 70.4011 139.753H70.4022Z" fill="currentColor"/>
<path d="M52.9523 49.7984L49.7376 47.5538C43.3586 40.2701 38.9723 30.7451 39.2467 20.8877C39.5308 20.9981 39.6176 22.0143 39.6466 22.3048C39.7034 22.8761 39.608 23.455 39.6755 23.9888C40.9018 33.7239 45.6193 43.2854 52.9512 49.7973L52.9523 49.7984Z" fill="currentColor"/>
<path d="M46.738 29.8812C46.3949 29.8791 46.3564 29.2123 46.2845 28.9465C44.9747 24.0639 44.8214 17.7568 46.1098 12.8678C46.5054 11.3681 47.1678 9.3733 48.2376 8.25101C47.8978 9.64128 47.216 10.9297 46.8452 12.3179C45.3455 17.9368 45.6328 24.2215 46.738 29.8812Z" fill="currentColor"/>
<path d="M42.883 21.3155L43.3707 25.005C44.2615 30.1052 47.1824 34.3768 49.3102 38.9828C49.1483 39.284 48.9061 38.6923 48.8428 38.5937C46.9466 35.6213 44.85 32.1933 43.8477 28.8103C43.5722 27.8809 42.883 25.4691 42.883 24.6352V21.3155Z" fill="currentColor"/>
<path d="M42.67 46.1589C40.1778 44.7172 36.7048 43.9229 35.8205 40.8047C36.4251 41.2721 36.6544 41.9806 37.2129 42.5155C38.6032 43.849 40.7792 44.3656 42.1855 45.4676C42.4428 45.6691 42.7687 45.7173 42.67 46.1589Z" fill="currentColor"/>
<path d="M64.9424 70.1493L62.7053 70.7946C53.1599 68.744 48.1991 58.3153 39.6012 54.4746C37.6921 53.6214 35.7048 53.2752 33.7518 52.6138C33.4709 52.5184 33.099 52.5506 33.0314 52.1582C34.6661 52.3898 36.3319 52.661 37.9065 53.1712C45.9941 55.791 50.8992 63.8486 57.9781 68.2241C60.1799 69.5844 62.2626 70.6927 64.9424 70.1493Z" fill="currentColor"/>
<path d="M37.5281 50.446C37.1647 51.0098 36.0177 50.4674 35.4925 50.446C30.224 50.2305 25.8034 52.1192 22.1107 55.7981C22.0174 55.3961 22.3347 55.2889 22.5362 55.0477C26.1207 50.7847 32.1449 48.837 37.5281 50.446Z" fill="currentColor"/>
<path d="M76.5063 103.985L73.7879 104.588L70.9377 106.555C71.7523 104.977 74.0077 103.597 75.7881 103.569C76.1268 103.563 76.4173 103.604 76.5063 103.985Z" fill="currentColor"/>
</svg>
