<svg width="51" height="203" viewBox="0 0 51 203" fill="none" xmlns="http://www.w3.org/2000/svg">
<path d="M43.0516 24.408C42.4555 25.1268 42.317 28.2752 42.0506 29.3866C41.5842 31.3272 40.1537 30.1422 39.484 30.5647C39.4419 30.5909 39.1579 31.2431 38.9914 31.4517C38.7442 31.7602 38.085 32.5648 37.829 32.7857C37.4679 33.0978 37.0016 33.1153 36.7439 33.3432C36.5931 33.4782 35.9304 34.7439 35.9462 34.9227C35.9742 35.2645 37.1944 36.7072 37.4661 37.2051C38.7757 39.598 38.1516 41.9242 39.349 44.389C40.2256 46.1911 40.3045 46.6118 40.8725 48.5156C41.6053 50.9698 43.2532 53.7887 43.0078 56.3639C42.9289 57.2018 42.2329 58.3869 42.41 59.0618C42.8167 60.6132 44.9029 60.8464 46.1178 61.5336C49.8117 63.6249 49.2559 67.1923 48.4863 70.779C48.0305 72.8984 46.9137 76.7813 44.3559 77.1635C44.0123 77.2143 43.1954 76.9917 43.1621 77.2547C43.6179 79.9561 44.0176 82.6838 44.3226 85.408C45.7146 97.8895 46.2949 110.466 47.0838 122.989C48.4144 144.089 49.6767 165.213 50.7671 186.338C50.6637 187.558 48.8913 188.85 47.8289 189.311C45.8759 190.158 43.8282 189.837 41.8437 190.356C42.0155 191.792 40.9943 193.184 42.5721 193.887C38.8217 198.151 31.9528 196.425 31.3495 196.676C28.946 195.829 26.169 196.29 23.8479 197.191C23.7637 197.652 23.939 198.089 23.9706 198.55C24.0062 199.087 23.9368 198.96 23.9706 199.148C14.7547 204.247 10.6106 202.123 10.4259 200.401C9.14089 200.285 6.48141 200.487 5.71704 199.312C5.16481 198.464 5.73457 197.863 5.53472 196.93C4.26721 196.103 0.974837 196.052 0.708362 194.199C1.53934 188.842 1.76024 183.446 2.14768 178.046C2.91905 167.316 3.66063 156.579 3.97969 145.843C4.49862 128.436 2.68238 110.634 7.40004 93.6787C6.20967 90.3199 6.44283 87.2241 6.22369 83.8162C5.99228 80.2208 3.6431 78.8376 2.12314 76.0907C0.259563 72.7266 1.31144 68.3475 1.0923 64.7679C1.00815 63.4128 0.35423 61.9525 0.177165 60.5589C-0.632779 54.2322 1.4587 44.5643 3.92359 38.6847C7.62619 29.8582 12.265 21.5383 16.9704 13.229C18.5938 10.3628 22.107 4.47091 24.6245 2.61796C29.954 -1.30179 37.0682 -0.604092 42.2084 3.27535C44.9134 5.31587 48.7405 10.5539 48.3934 14.0389C48.1164 16.821 46.8664 20.6776 44.9152 22.7812C44.4383 23.2966 43.4688 23.8909 43.0481 24.3958L43.0516 24.408ZM47.345 11.2253C45.2623 6.53948 42.3469 2.56888 37.2277 1.042C31.3793 -0.702259 24.8612 1.5083 21.6179 6.71828C19.1197 10.731 16.9879 14.961 14.651 19.0683C12.6664 22.5551 10.3663 25.8753 8.6921 29.5356C5.99228 35.4451 3.17676 41.3563 1.81634 47.7583C1.2641 50.3598 0.887181 52.9893 0.703102 55.6434L1.74796 52.0252C3.49232 48.3263 4.32857 44.0577 5.82223 40.3307C6.89339 37.6591 8.9463 36.4969 11.8197 36.2111C16.6373 35.7326 24.1512 41.8717 27.3085 45.2602C29.5718 47.6899 32.9519 53.5766 36.3617 49.1923C38.1604 46.88 38.0569 43.9104 37.7519 41.1231C37.5152 38.9669 36.9297 36.9404 35.2537 35.4661L33.6811 35.6695C33.5795 35.7554 34.3193 36.7809 34.4034 36.9825C34.6576 37.5908 34.7786 38.1745 34.6717 38.8302C34.6506 38.9581 34.5191 39.4735 34.3386 39.4805C34.3596 38.8582 34.3596 38.32 34.1983 37.7152C33.7706 36.1217 31.2513 34.4862 30.0662 33.1749C24.9541 27.5249 22.9257 20.1061 23.5656 12.5418C23.7953 12.512 23.6883 12.8398 23.6953 12.9994C23.7287 13.825 23.641 14.6735 23.6953 15.4957C24.0915 21.4209 25.9446 27.6108 29.8681 32.1213C29.2685 30.0896 29.2685 27.986 29.3387 25.8736C29.3702 24.9322 29.5823 23.8032 29.6121 22.8619C29.7594 18.1901 28.8793 13.4131 30.2643 8.86223C30.4992 8.83243 30.3923 9.15674 30.3783 9.30399C30.3099 10.0262 30.0697 10.8221 30.0013 11.5566C29.8593 13.1045 29.8628 14.6665 29.8699 16.2197C30.2345 16.2828 30.0907 16.1443 30.1661 15.9322C30.4414 15.1521 30.5606 14.2405 30.8271 13.4324C31.2355 12.1947 31.8106 10.8116 32.4715 9.68966C32.5083 9.62655 32.6678 9.27069 32.7608 9.453C31.5353 12.1334 30.352 15.4273 30.1328 18.3899C30.0504 19.5031 30.2485 20.6373 30.0013 21.7382L30.8656 20.306C33.0903 17.019 36.2933 14.5438 39.896 12.9117C42.1014 11.9125 44.9117 10.8712 47.3415 11.2253H47.345ZM36.9665 15.2993C39.5418 14.9663 42.6905 13.9355 45.1606 15.0522C45.8671 15.373 46.6753 15.9795 47.2784 16.4791C47.5554 16.4844 47.4905 15.224 47.4818 14.9645C47.459 14.3878 47.2048 11.937 46.8892 11.6145C46.5491 11.3918 45.9986 11.4707 45.5884 11.504C43.1638 11.7021 39.2105 13.5533 37.2119 14.9575C37.0559 15.0679 36.8894 14.9628 36.9665 15.2976V15.2993ZM47.8709 14.379V12.2105C47.8709 12.1702 47.5361 11.3761 47.3433 11.6864L47.8709 14.379ZM38.9493 29.7653C40.5516 30.0685 41.2178 30.626 41.6561 28.7292C42.0436 27.0533 41.8279 25.1145 42.9412 23.7068C44.0544 22.2992 45.1746 21.8591 45.9618 20.0272C46.1283 19.6381 46.9646 17.2084 46.9278 16.97C46.7945 16.1145 44.5382 15.0083 43.7178 14.9189C42.6501 14.8032 36.4932 15.6254 35.557 16.0584C33.9774 16.7894 30.6553 20.8389 30.1977 22.5253C29.9663 23.3808 29.8979 24.9462 29.8628 25.8701C29.7594 28.6591 29.8032 32.94 32.5364 34.509C33.4427 35.0296 34.1352 35.2242 35.0854 34.6422C35.8866 34.1513 35.9146 33.2696 36.4283 32.8313C36.693 32.6069 37.0805 32.5999 37.2996 32.3878C37.531 32.1634 37.5082 31.804 37.6888 31.5937C37.9009 31.3483 38.3041 31.3973 38.4724 31.1957C38.6688 30.9608 38.7109 30.0913 38.9475 29.7635L38.9493 29.7653ZM38.5443 44.4731C38.1989 48.7891 35.3378 53.4258 30.7885 49.6656C28.1974 47.5234 26.2128 44.4644 23.4937 42.2433C20.5187 39.8136 15.2155 36.2094 11.2937 36.6056C5.48212 37.1928 5.97125 41.365 4.73705 45.816C4.43025 46.9239 3.57823 48.7154 3.41869 49.6253C3.30123 50.2932 3.5309 51.906 3.60803 52.6703C3.88853 55.4243 4.45304 58.3238 4.94742 61.055C6.05013 67.1502 7.53328 76.18 10.9764 81.3076C12.0669 82.9309 13.1047 82.9222 14.9595 83.1062C19.9366 83.5971 22.4997 82.7907 26.8334 80.6608C29.4526 79.3723 31.9911 77.905 34.4105 76.2765C33.7425 75.2422 34.2509 74.5603 34.9942 73.7802C34.7506 73.7574 34.435 73.526 34.3649 73.2911C33.8828 71.673 36.3231 70.5564 37.2049 69.6132C37.2119 68.3353 36.267 67.3624 35.8428 66.2913C35.7446 66.0423 35.8217 65.7548 35.7113 65.5024C35.5552 65.143 34.6103 64.4979 34.1545 64.5838L26.4583 67.6761C25.5887 67.8216 23.8321 66.8627 24.2178 68.5211C24.067 68.6911 23.5393 67.8848 23.1221 68.0075C22.7977 68.1039 22.4646 69.5326 22.2701 69.9253C22.1368 70.1952 20.6291 72.4479 20.2768 72.0692C20.5485 70.637 22.256 69.196 22.2332 67.6814C22.1999 65.4165 18.6744 63.7704 17.3858 62.2155L22.1806 65.6286C22.6154 65.6391 22.0351 64.0351 21.8756 63.8335L16.5969 54.9878C18.4833 57.0966 19.6193 59.8173 21.5232 61.9525C22.6014 58.3904 21.2024 54.8282 20.0138 51.5028C18.9689 48.5805 17.7523 45.7178 16.4655 42.8972C17.4419 44.2628 18.2203 45.9211 18.9426 47.4498C20.0033 49.6954 20.9359 51.9954 21.7862 54.3304C22.4419 51.487 22.072 48.1703 21.2883 45.3672C21.0236 44.4223 20.5993 43.5546 20.275 42.636C21.4286 43.8964 22.0825 45.9527 22.4436 47.6286C22.8538 49.5341 23.1203 51.6412 22.64 53.5433C23.8321 52.3425 24.0758 50.4457 24.216 48.8136C24.3878 48.7786 24.4246 49.0555 24.4439 49.173C24.6613 50.5456 23.9986 52.5949 23.3885 53.8343C23.1817 54.2568 22.2595 55.5382 22.256 55.8397C22.2525 56.1413 22.5909 56.8284 22.6365 57.2895C22.7224 58.1397 22.6978 59.5772 22.6435 60.4484C22.5996 61.1759 22.1929 62.5065 22.2455 63.0587C22.2981 63.6109 23.0555 64.277 23.1554 64.9186C23.2693 65.6602 22.9292 66.2334 22.9012 66.9469C23.4008 66.9802 23.776 66.6962 24.2791 66.6752C24.9103 66.6489 25.3854 66.896 26.0884 66.7839C26.6143 66.6997 28.3289 66.0879 28.804 65.8214C30.1433 65.0729 31.4827 62.6344 31.8351 61.1654C32.0788 61.1391 31.9631 61.5949 31.9333 61.7246C31.6458 63.0201 30.6728 64.3436 29.8628 65.3692C31.4003 65.001 32.7257 64.0036 34.328 63.8563C35.6622 62.2295 36.7123 60.1224 36.9595 58.01C37.1944 58.0012 37.2382 57.9434 37.2225 58.2063C37.1681 59.1249 36.7211 60.5624 36.3652 61.4266C36.0864 62.1033 35.6534 62.7204 35.3834 63.4005C36.6755 62.8238 37.9903 62.247 39.4244 62.1313C40.6533 60.6623 41.8121 58.9093 42.1786 56.9915C42.8851 53.2908 40.0169 50.2493 39.7242 46.6399L38.5373 44.4784L38.5443 44.4731ZM1.61999 66.0248C2.6666 61.3758 2.56668 56.5813 2.54038 51.8341L1.31494 55.2718C0.0491848 58.5937 1.53584 61.7316 1.627 64.7836C1.63576 65.0624 1.51305 65.3026 1.49201 65.569C1.47974 65.7128 1.39734 66.0599 1.62174 66.0248H1.61999ZM5.95722 80.2173L5.68023 69.1294L3.06982 56.1693C3.10664 58.8847 2.91204 61.5563 2.37033 64.2087C1.62875 67.8392 0.696087 71.5591 2.25637 75.1808L5.95722 80.2155V80.2173ZM43.0095 76.273C46.1634 77.2757 47.3345 72.7073 47.8885 70.4442C48.5143 67.8865 49.1981 64.6872 46.8822 62.7431C46.1546 62.1313 43.5267 60.9638 42.5905 60.7272C41.8595 60.5413 41.4247 60.8516 40.904 61.3582C40.35 61.8982 40.1256 62.2207 40.3798 63.0043C40.1432 62.8974 40.0853 62.6695 39.7855 62.6117C38.8774 62.4381 36.7316 63.3742 35.9111 63.8546C35.7551 63.9457 35.1836 64.1806 35.259 64.3787L36.2319 65.3727C39.2175 64.2139 41.7613 61.6107 45.0221 63.8142C48.0463 65.8583 47.8289 70.2443 46.6893 73.3226C46.4544 73.959 46.0722 74.846 45.506 75.2246C45.7128 74.3551 46.1914 73.6399 46.3668 72.7354C46.3931 72.5986 46.5526 72.1832 46.2949 72.2042C46.1599 72.674 45.8093 73.2069 45.5025 73.5803C44.9415 74.264 43.4671 75.2895 43.134 75.8102C43.0306 75.9714 42.9692 76.0714 43.0095 76.2747V76.273ZM37.6239 76.9321C41.2161 77.1442 44.966 74.3972 46.4106 71.1997C48.1392 67.3729 45.5253 62.3908 40.9373 63.6232C40.0205 63.8686 37.787 64.9923 36.8788 65.4796C36.6983 65.576 36.3424 65.7478 36.2635 65.9319C36.2284 67.145 37.8483 66.8066 38.6425 66.5858C39.2456 66.4192 39.8662 66.2702 40.4289 66.1195C40.6568 66.0581 40.9233 65.5322 41.3002 65.8285C40.6954 66.4981 40.8094 67.3255 40.1835 67.9969C39.0475 69.2118 35.4571 71.0805 34.9434 72.2165C34.6664 72.8318 34.6822 73.405 35.5132 73.1876L41.7332 69.4169L42.2189 69.3783C41.0162 70.3688 39.6681 71.5047 38.3743 72.3655C37.6046 72.8791 34.8224 74.1904 34.6348 74.9302C34.577 75.1598 34.591 75.3894 34.5998 75.6208C34.8347 75.8593 39.0773 73.9379 39.6313 73.6242C40.4552 73.1579 41.5334 72.1464 42.3837 71.9097C42.5642 71.8589 42.6379 71.6713 42.6116 72.0061C41.6964 72.7213 40.6954 73.5049 39.6786 74.0677C39.0527 74.4148 35.4728 75.9066 35.3168 76.1432C34.9487 76.699 36.3284 76.5219 36.5756 76.4816C37.673 76.3045 40.5218 75.2632 41.472 74.6777C41.6807 74.5497 43.3163 73.1684 43.3987 73.256C43.3917 73.5751 43.0271 73.8433 42.8114 74.0484C41.2406 75.5455 39.8171 75.8522 37.9079 76.6411C37.7133 76.7217 37.5503 76.5605 37.6187 76.9356L37.6239 76.9321ZM40.1186 66.5507C39.0685 66.8522 38.099 67.3711 36.9665 67.3396L37.6239 69.3082C37.7239 69.4169 38.2165 68.9997 38.341 68.9103C38.7337 68.628 40.6235 67.0924 40.1186 66.5507ZM7.92773 92.3061C8.6956 89.0332 9.5634 85.7673 10.8169 82.6452C9.55113 80.9605 8.54308 79.1041 7.7945 77.1319L6.35343 72.5969C6.37972 73.7995 6.31486 75.0108 6.34641 76.2151C6.46037 80.652 6.93021 85.1398 7.17915 89.5749L7.92773 92.3061ZM41.8262 189.553C43.7125 189.36 45.6795 189.383 47.4747 188.696C48.5441 188.288 49.9992 187.316 50.1114 186.077C48.3671 156.98 47.2696 127.777 44.98 98.6819C44.4015 91.3297 43.667 83.8671 42.4853 76.6025C42.4608 76.4483 42.4152 76.3676 42.289 76.2782L40.5131 76.9338L41.0443 83.9582L41.1688 89.943C40.9391 89.9746 41.046 89.645 41.039 89.4855C40.8672 85.3414 40.6148 81.2042 40.3816 77.0653C40.2729 76.9566 38.199 77.4755 37.8273 77.4545C37.2453 77.4212 36.991 76.848 36.8929 76.8234C36.7456 76.7884 35.997 77.0373 35.713 77.0688C35.4062 77.1021 35.0644 76.9602 34.8487 77.004C34.5349 77.0671 32.9852 78.3363 32.5416 78.6185C29.0915 80.8098 23.7777 83.7373 19.6895 84.0301C17.8399 84.1616 14.2951 84.0511 12.5244 83.5778C12.0967 83.4639 11.2517 82.8819 11.1289 82.8626C10.8975 82.8275 10.8221 83.0887 10.7555 83.243C9.3688 88.474 7.87338 93.6787 6.7882 98.9869C3.76581 113.774 4.85275 128.985 4.50914 144.015C4.18831 158.016 3.5344 172.812 2.01619 186.727C1.7953 188.756 1.14314 191.368 1.09054 193.294C1.08353 193.582 1.07126 193.882 1.15541 194.16C1.49902 195.282 4.70023 195.675 5.69425 196.124L6.74437 178.385L6.37271 198.928C6.62516 199.693 10.4172 200.019 11.2131 199.936L11.3498 193.82C10.9484 179.102 10.6451 164.38 11.0763 149.665C11.0851 149.355 11.2043 149.067 11.2184 148.755C11.2429 148.187 11.1885 147.61 11.2131 147.041C11.2201 146.881 11.1132 146.552 11.3428 146.583L11.5006 201.027C11.6514 201.53 13.0311 201.733 13.5132 201.774C15.7204 201.952 18.2046 201.309 20.2347 200.485C20.7659 200.27 22.8731 199.388 23.0099 198.923C23.1273 198.52 23.0555 197.225 23.0432 196.711C22.5926 178.178 22.3051 159.222 23.1712 140.735C23.6007 131.577 23.7427 122.413 24.4895 113.274L24.8121 102.295L24.884 112.748C24.1371 129.197 23.4324 145.675 23.1764 162.159C23.1712 162.469 23.0379 162.757 23.0344 163.069V174.775L23.3079 178.839L23.2974 190.02L23.6971 196.257C24.9541 196.083 26.155 195.671 27.4348 195.592C30.5952 195.398 40.6784 198.41 41.1758 192.779C41.3406 190.933 41.0215 188.77 41.032 186.854C41.1056 173.634 41.3178 160.404 41.3072 147.167C41.2932 131.099 41.621 115.031 41.295 98.9501C41.2704 97.7212 41.4072 96.4783 41.1635 95.2705L41.1705 90.7319C41.3984 90.7003 41.295 91.0299 41.3002 91.1894C41.3511 92.5498 41.3739 93.9119 41.4265 95.2705C41.8472 106.106 42.0015 116.878 41.8314 127.729C41.6859 137.059 41.9752 146.375 41.8314 155.72C41.7964 157.962 41.9419 160.173 41.9629 162.41C42.0488 171.457 41.6859 180.504 41.8244 189.553H41.8262Z" fill="currentColor"/>
<path d="M19.7079 75.3086C19.4397 75.5733 19.0066 75.7995 18.7682 76.1431C18.67 76.1641 18.6788 76.0063 18.7051 75.9485C18.8068 75.7206 19.8148 74.8686 20.0848 74.5688C21.4943 73.0069 22.7811 71.4362 23.2352 69.3115C23.5139 69.5429 23.4613 69.9654 23.421 70.2844C23.2562 71.5922 20.7001 74.3304 19.7079 75.3086Z" fill="currentColor"/>
<path d="M21.2022 68.6543L16.2111 73.121C17.1157 71.1331 19.2264 69.501 21.2022 68.6543Z" fill="currentColor"/>
<path d="M29.6742 37.2455C27.9947 37.0982 26.3327 36.4075 24.8759 35.6064C21.8464 33.9393 19.3149 31.2905 15.9454 30.279C16.0226 30.0002 16.6958 30.3 16.8571 30.3526C19.2921 31.152 21.466 32.9453 23.5628 34.3548C23.6557 34.2513 22.6634 32.7087 22.5319 32.4299C21.1382 29.5006 18.4051 23.9453 18.1789 20.8828C18.0001 18.4741 18.3349 16.0164 19.0309 13.7217C18.9538 15.2959 18.4717 16.9315 18.4349 18.5144C18.3753 21.0423 18.9082 23.4527 19.8619 25.7702C20.6105 27.5881 23.4453 33.5641 24.6742 34.7544C26.3415 36.369 29.9845 37.0632 32.2337 36.9843C32.2425 37.0684 32.0584 37.2455 32.0374 37.2455C31.2835 37.2455 30.4035 37.3104 29.6724 37.2455H29.6742Z" fill="currentColor"/>
<path d="M32.6324 43.8175C32.664 44.0506 32.3344 43.9472 32.1907 43.9314C28.1339 43.5124 24.6066 38.8371 21.8595 36.1953C22.1733 36.2549 22.5397 36.5775 22.7816 36.7843C23.9001 37.7415 24.959 38.9774 26.0635 39.9415C27.9674 41.6069 30.1027 43.288 32.6342 43.8175H32.6324Z" fill="currentColor"/>
</svg>
