<svg width="249" height="142" viewBox="0 0 249 142" fill="none" xmlns="http://www.w3.org/2000/svg">
<path d="M66.378 13.2655C64.9899 15.4489 66.2528 18.0897 67.032 20.2629C59.9079 33.6008 63.7008 50.6661 68.844 64.0943C70.8293 69.2797 72.8117 74.4972 74.8189 79.6768C76.9324 85.1317 79.378 90.4715 82.0654 95.6613C80.6394 95.2069 79.1974 94.6956 77.7262 94.3956C71.6756 93.1575 63.7212 93.0715 58.0347 90.7818C56.8607 90.3099 55.4216 89.1665 54.2797 89.0019C52.7852 88.7863 51.3039 89.0674 49.7002 88.7746C47.8911 88.4454 44.8002 86.8796 43.2388 86.9437C42.8105 86.9612 42.5746 87.4943 42.1187 87.3399C36.9711 85.8265 30.5563 79.0112 24.9601 81.8937C23.4133 82.6905 22.7374 83.729 21.8212 85.1536C20.1869 84.7355 18.2861 84.4777 16.6343 84.9278C10.2399 86.6728 9.52185 97.1762 7.7827 102.44C5.38662 109.687 -0.681494 116.383 0.0628188 124.429C0.164779 125.533 0.805678 126.589 0.922205 127.502C1.14797 129.279 0.224495 130.536 1.73351 132.373C2.38169 133.161 3.193 133.047 3.25709 133.107C3.33138 133.177 3.61688 134.558 3.87032 135.043C4.76029 136.75 5.19143 136.143 6.46157 136.821C7.41708 137.333 8.43815 138.89 9.95882 138.057C10.2399 138.786 12.3185 138.849 13.0002 138.677C13.4648 138.561 13.9542 138.099 14.2761 138.049C14.7131 137.982 15.539 138.231 16.1639 138.199C17.3947 138.137 19.077 137.678 19.3698 136.309C20.0049 133.342 17.016 134.026 16.1027 131.986C15.7968 131.302 15.0933 128.622 15.0802 127.91C15.0758 127.708 15.2389 126.539 15.4283 126.545C15.8318 126.89 16.0022 127.413 16.3707 127.785C17.2534 128.676 18.8789 129.249 19.6509 130.04C19.9874 130.383 20.1083 130.849 20.3676 131.149C21.827 132.832 23.9333 133.152 26.0672 132.957C27.7845 132.8 29.107 131.551 28.5448 129.738C28.3176 129.004 27.0736 128.555 26.9338 128.298C26.8712 128.181 27.0329 127.897 26.9848 127.673C26.7212 126.468 25.0752 124.757 24.3498 123.734C24.3193 123.658 24.2814 122.939 24.2945 122.85C24.4751 121.711 27.3999 117.552 28.2753 116.531C28.3656 116.426 28.2695 116.257 28.6089 116.346C28.874 117.959 29.4333 123.829 30.6583 124.711C30.8782 124.87 32.0479 125.212 32.3945 125.306C33.8701 125.699 36.0447 126.076 37.5698 126.248C40.2047 126.545 41.2695 126.158 43.8986 127.202C48.1373 128.886 51.1786 130.193 55.7289 131.249C67.3976 133.956 79.2469 135.704 90.8602 138.649C97.3522 140.297 102.793 140.904 109.531 140.677C117.326 140.413 121.559 139.459 126.031 132.707C126.568 131.895 126.969 130.498 127.359 129.957C127.565 129.671 128.765 129.09 129.187 128.72C134.188 124.355 133.002 116.635 132.297 110.757C132.001 108.288 131.573 105.828 131.154 103.381C131.525 103.298 131.409 103.48 131.531 103.655C132.682 105.291 133.605 107.116 134.734 108.769C134.81 109.136 134.177 110.033 134.105 110.629C133.917 112.148 135.678 113.362 136.542 114.421C137.405 115.48 138.793 117.651 139.743 118.461C140.693 119.271 143.412 119.485 144.626 119.256C144.923 119.2 145.01 118.984 145.229 118.831C145.492 118.783 148.551 122.066 149.067 122.538C152.743 125.903 157.186 129.41 161.171 132.428C163.187 133.955 165.775 135.423 167.637 137.033C169.35 138.512 169.079 139.289 171.757 139.758C175.871 140.477 182.39 140.632 186.581 140.386C187.675 140.322 189.009 139.92 190.069 139.93C193.063 139.957 196.841 141.156 199.968 141.26C201.118 141.297 202.571 141.22 203.534 140.59C203.767 140.437 204.009 140.019 204.227 139.966C204.535 139.893 206.376 140.383 206.964 140.39C208.667 140.413 208.996 139.812 210.21 139.4C210.565 139.279 210.963 139.334 211.41 139.143C212.295 138.767 212.811 137.928 212.727 136.957C212.592 135.429 209.858 135.253 208.721 134.839C208.565 134.782 208.371 134.772 208.351 134.555L215.125 131.921C216.343 131.834 217.841 133.391 218.94 133.795C220.33 134.304 221.214 133.886 222.553 133.827C224.8 133.725 226.989 133.792 229.208 133.345C230.583 133.068 230.551 132.998 232.012 132.956C236.743 132.822 241.873 126.576 243.966 122.758C251.088 109.776 250.06 94.6519 236.413 86.7529C231.015 83.6285 227.069 83.7786 221.1 84.016C220.248 84.0495 214.86 84.0291 214.527 83.5805C214.45 82.9716 214.825 82.4968 214.474 81.8894C214.199 81.4116 212.697 79.872 212.211 79.3462C211.52 78.6004 210.568 77.5881 209.808 76.9428C209.456 76.6442 208.99 76.114 208.69 76.5583C207.936 76.3587 208.719 75.5256 208.786 74.9051C209.229 70.8223 205.567 60.0174 203.618 56.1851C200.439 49.932 197.587 46.292 192.329 41.6936C178.415 29.5224 160.887 18.5806 144.117 10.8126C131.356 4.90181 116.259 1.35648 102.236 0.111108C95.0625 -0.525418 88.5938 1.65945 82.1105 4.45463C76.6251 6.82012 71.6639 10.5024 66.3751 13.264L66.378 13.2655ZM141.712 86.4878C140.904 86.4062 139.985 86.5475 139.163 86.4878C139.137 86.7063 139.554 86.7048 139.715 86.7354C140.742 86.9277 141.79 87.0267 142.803 87.2904C147.067 88.3945 151.697 91.5596 154.457 94.9345L151.351 93.1633C150.04 92.7074 148.635 92.0053 147.243 91.8786C146.856 91.8436 146.856 91.9369 147.227 92.0417C147.93 92.2413 148.499 92.4306 149.167 92.7263C149.69 92.9565 150.388 93.2551 150.816 93.625C148.564 93.1997 146.178 92.6754 143.896 92.4627C143.044 92.384 141.811 92.2748 140.978 92.3097C140.735 92.3199 140.021 92.368 139.893 92.6054C143.856 92.856 147.845 93.4109 151.728 94.2514C151.986 94.3067 152.208 94.298 152.127 94.6447C149.929 94.381 147.703 94.9738 145.507 95.0889C142.024 95.2695 140.397 94.8049 137.163 94.097C137.018 94.0649 136.652 93.9499 136.69 94.2077C139.608 95.4836 142.934 95.6541 146.089 95.5259C147.641 95.4633 149.317 95.1326 150.883 95.0772C151.386 95.0598 152.223 95.2666 152.475 95.236C152.573 95.2244 152.573 94.952 152.638 94.9331C153.036 94.818 152.959 95.137 153.18 95.2739C154.235 95.9192 155.203 96.2527 155.745 97.5083C156.066 98.2497 155.787 98.8134 155.943 99.4951C156.001 99.75 156.329 100.053 156.328 100.11C156.328 100.207 155.221 101.416 155.03 101.556C153.939 102.351 150.296 103.943 148.918 104.475C147.767 104.919 145.124 105.403 144.266 105.94C143.122 106.657 143.457 109.314 143.239 110.594C143.21 110.766 143.167 110.855 143.022 110.955L137.995 108.484C139.28 109.516 141.02 110.891 142.707 110.98L142.929 111.199C143.082 111.652 142.477 113.605 142.245 114.119C142.132 114.373 141.319 115.818 141.054 115.621C139.643 112.617 137.296 110.207 135.398 107.511C132.989 104.086 130.213 99.8985 128.117 96.2935C126.695 93.8508 126.814 92.4219 127.872 89.8423C130.168 84.2388 137.962 78.5902 142.731 74.841C146.953 71.5214 150.898 69.3264 155.374 66.5093C160.249 63.4418 163.158 60.9088 167.131 56.8551C167.35 56.6323 167.479 56.3366 167.707 56.1195C167.6 55.92 167.325 56.0962 167.191 56.1865C166.139 56.8915 164.811 58.4501 163.777 59.3269C161.43 61.3152 159.025 62.7907 156.494 64.4963C156.355 64.3478 157.24 63.3413 157.374 63.1199C158.648 61.0064 160.225 59.4158 161.59 57.4319C161.988 56.8537 162.134 56.0759 162.626 55.5544C164.104 53.9886 168.049 53.4176 170.038 52.5509C170.05 52.2902 170.111 52.2436 169.823 52.2611C168.098 52.3645 164.351 53.8269 162.916 54.8232C161.67 55.6884 160.671 56.9891 159.557 58.0189L157.078 61.7288C157.656 59.729 157.525 57.6286 157.847 55.5806L160.279 43.6672C160.065 43.6337 160.087 43.9207 160.035 44.0736C159.665 45.1588 159.314 46.4508 159.012 47.568C158.108 50.9064 157.216 54.4183 156.934 57.8704C156.73 60.3422 157.149 62.1061 155.688 64.3449C154.792 65.7184 149.425 68.4772 147.712 69.6235C142.732 72.9532 138.342 77.0695 133.556 80.66C131.876 79.1656 130.406 76.4126 127.986 76.0397C126.548 75.8184 126.176 76.2407 124.756 75.3362C124.101 74.9167 122.159 72.8032 121.845 72.1303C121.258 70.8747 121.003 69.0205 120.521 67.628C119.486 64.6478 117.363 61.2161 116.892 58.1471C116.117 53.0942 115.733 45.7137 114.03 41.0541C113.867 40.607 112.769 38.5255 112.946 38.2794C114.76 38.709 115.293 39.8321 115.86 41.4824C116.353 41.226 115.511 40.5239 115.784 40.1729C121.903 44.2193 128.848 46.5877 135.598 49.345C135.801 49.345 140.479 53.0491 139.743 52.3368C139.647 52.111 137.695 50.3835 137.337 50.0806C137.005 49.7994 136.412 49.5926 136.182 49.3421C135.917 49.0536 135.533 48.879 135.159 48.7638C134.642 48.6007 133.783 48.0574 133.188 47.8214C128.067 45.7866 121.938 43.9017 117.6 40.8342C115.784 39.5495 115.526 40.2006 114.687 37.7739C114.055 35.9459 113.742 33.9664 113.016 32.1617C113.063 34.3364 113.796 36.479 114.547 38.4935L114.254 38.6449C114.043 37.7826 113.022 38.1905 112.801 38.0609C112.498 37.8846 110.645 34.6146 110.298 34.0057C107.566 29.2136 106.418 25.9144 104.827 20.6868C104.737 20.3896 104.625 19.7895 104.354 19.6337C104.873 25.1716 107.308 30.3075 110.268 34.9234C110.414 35.151 110.268 34.9234 110.459 35.6619C111.669 38.1759 112.996 40.7308 113.656 43.4662C114.706 47.8229 115.077 52.599 116.165 56.9789C116.262 57.3649 116.448 57.7189 116.586 58.0859C116.211 58.1617 116.331 58.0073 116.221 57.8034C115.886 57.1828 115.74 56.424 115.447 55.8035C114.032 52.8015 112.75 51.4468 110.164 49.4338C108.048 47.785 105.665 46.3575 103.549 44.6883C103.451 44.6563 103.442 44.8267 103.477 44.9039C103.592 45.1602 104.835 46.1667 105.155 46.4318C108.01 48.8017 111.359 50.6166 113.445 53.8735C115.115 58.5637 117.629 63.1679 119.316 67.8115C119.572 68.5194 120.226 70.3227 120.226 70.9796V73.3829L119.606 71.8914C119.326 68.9841 117.674 67.0133 115.787 64.9319C111.582 60.2956 105.615 57.043 101.069 52.5567C99.6172 51.1249 98.8102 49.5766 97.6231 47.9918C94.391 43.6731 89.1997 38.2604 84.7309 35.2482C82.1091 33.4799 79.1595 32.1559 76.628 30.2419C72.8656 27.3958 67.4617 20.6999 66.9301 15.9063C66.8674 15.3353 66.8092 14.4686 67.2024 14.0244C73.4672 10.5679 79.3256 6.72253 86.0666 4.19391C91.9978 1.96825 96.3574 0.867072 102.819 1.42931C116.725 2.63973 131.596 6.24331 144.212 12.1818C160.102 19.6599 175.426 29.4 189.042 40.4715C196.755 46.7435 201.847 53.5501 205.065 63.0485C206.658 67.7518 208.089 72.6182 207.591 77.6507C205.426 80.4197 202.867 82.8464 200.117 85.0341C196.628 87.8075 192.653 90.5691 188.986 93.1298C187.362 94.263 185.207 95.4662 183.746 96.63C183.493 96.831 182.644 97.6102 182.721 97.919C183.251 98.1259 183.202 98.608 183.438 98.9153C183.611 99.1411 184.118 99.431 184.392 99.7485C184.906 100.346 185.382 100.987 185.914 101.571L183.736 103.974C184.183 103.879 184.601 103.356 184.904 103.032C185.296 102.612 185.65 102.104 185.992 101.645C187.05 102.771 188.186 103.82 189.274 104.918C189.644 105.291 189.777 105.843 190.435 105.871C190.607 106.053 189.912 106.481 189.755 106.571C188.927 107.049 187.986 107.253 187.101 106.8C184.065 104.364 180.926 101.936 177.174 100.704C174.062 99.6815 170.901 99.7878 167.709 99.2445L160.868 97.4923C162.265 96.949 163.666 95.5463 165.118 95.1894C166.285 94.9025 167.791 95.2375 168.838 94.8311C169.013 94.7641 169.819 94.2121 169.97 94.0693C170.36 93.6993 170.81 92.6302 171.169 92.5006C172.223 92.1189 173.31 92.6346 174.332 92.4598C175.173 92.3156 175.917 92.049 176.962 91.8844C180.736 91.2931 184.352 90.2035 187.51 88.0128C189.197 86.8432 191.083 85.289 191.89 83.362C191.466 83.0765 191.675 83.5834 191.571 83.6897C191.503 83.7596 190.935 83.9329 190.658 84.1689C189.565 85.1011 188.571 86.1717 187.366 86.9947C184.192 89.1664 179.902 90.4118 176.162 91.1547L178.261 88.6668C179.61 86.6495 181.039 84.6263 182.06 82.4152C182.223 82.0613 182.514 81.4859 182.498 81.1057C181.365 82.5026 180.638 84.1922 179.63 85.6663C178.83 86.8345 175.448 91.009 174.276 91.3819C173.157 91.7373 171.422 90.9828 170.481 92.1743C172.001 88.5401 170.464 84.6612 170.327 80.8931C170.202 77.4249 170.877 74.0326 171.207 70.6183L170.368 74.0748C169.218 78.6747 170.355 82.9716 170.624 87.4433C170.743 89.4228 170.408 93.4226 167.918 93.7649C166.071 94.0183 165.383 93.6498 163.482 94.5733C161.793 95.3933 160.738 96.1784 158.869 96.9519C158.207 97.2272 157.611 97.6234 156.935 97.855C156.827 97.0946 156.294 96.6169 155.939 96.0095C153.396 91.6616 146.838 87.0136 141.711 86.4951L141.712 86.4878ZM92.2615 109.793C95.4062 113.025 96.8511 118.2 98.6442 122.273C99.9522 125.245 102.943 131.139 105.221 133.321C105.394 133.487 105.972 134.003 106.243 133.901C105.95 133.569 105.575 133.296 105.31 132.941C104.603 131.996 104.073 130.931 103.484 129.962C102.114 128.034 102.763 128.866 102.022 127.709C101.037 126.172 98.8248 120.078 97.0929 116.396C96.5642 115.271 95.8184 114.278 95.3217 113.143C96.1957 114.084 96.8599 115.241 97.6566 116.269C98.7549 117.685 100.013 118.972 101.142 120.358C102.24 121.706 103.16 123.332 104.489 124.43L104.932 124.652C105.192 125.485 105.943 126.384 106.532 127.059C107.557 128.233 109.719 130.386 111.005 131.18C111.13 131.257 111.381 131.492 111.487 131.281C109.845 129.974 108.329 128.624 107.073 126.946C106.625 126.347 105.598 124.455 105.231 124.136C104.929 123.874 104.676 123.99 104.529 123.893C104.456 123.843 103.862 122.656 103.655 122.363C102.399 120.586 100.835 118.987 99.6128 117.376C97.5459 114.652 95.6597 111.752 93.1369 109.432C93.2709 109.199 93.4646 109.486 93.5884 109.563C97.3653 111.927 101.45 114.078 104.98 116.814C106.274 117.817 105.231 116.978 106.992 118.547L107.411 118.537C107.478 118.145 106.926 118.011 106.867 117.718C106.169 114.3 105.4 111.014 105.793 107.41C104.485 102.911 103.578 98.3007 102.388 93.7736C100.427 86.3159 97.9844 78.9922 96.1928 71.4908C95.9116 71.4705 96.0675 71.9438 96.0894 72.1055C96.3282 73.9233 96.9648 76.0995 97.4309 77.9013C99.5487 86.08 101.868 94.2019 103.955 102.402C104.437 104.297 105.155 106.605 105.182 108.5C105.2 109.728 105.256 111.191 105.374 112.492C105.521 114.137 106.31 115.764 106.674 117.311C106.727 117.533 106.68 117.549 106.466 117.519C104.294 115.74 102.098 113.976 99.7366 112.448C95.3858 109.633 90.4305 107.742 87.2188 103.409C83.841 96.1231 79.9606 89.0572 77.0023 81.5806C75.7773 78.4839 74.7767 75.2925 73.5823 72.1827C69.9612 62.7601 65.893 53.8007 64.735 43.5959C63.9688 36.8475 64.2383 27.7031 67.4719 21.5738C67.5433 21.4384 67.6176 21.2548 67.7909 21.2388C68.7085 23.699 70.605 26.1519 72.3791 28.0862C76.2289 32.287 80.5972 33.7246 84.9684 36.9087C86.2662 37.854 87.7082 39.1606 88.9157 40.2443C92.2906 43.274 95.4718 46.7494 97.9232 50.5671C97.0958 51.4891 96.2117 52.3616 95.2271 53.1146C94.7944 53.4453 94.1084 53.4322 94.1579 54.3017C96.0209 54.36 97.1934 52.5029 98.4548 51.3915C101.418 55.1815 105.366 57.78 109.082 60.7165C111.686 62.7761 116.273 66.4773 117.669 69.4633C117.87 69.893 119.553 76.0762 120.012 75.8577L120.521 74.9852C121.013 76.8554 120.234 78.5713 120.395 80.4284C120.793 85.0108 122.628 90.8313 123.539 95.4924C125.099 103.486 126.538 112.663 126.937 120.789C127.104 124.19 127.02 129.058 125.097 131.924C123.566 134.205 120.939 137.139 118.372 138.163C114.12 139.86 104.267 139.786 99.6376 139.201C93.9846 138.488 88.7598 136.38 83.2685 135.324C78.7429 134.453 74.2348 133.617 69.7165 132.708C62.7264 131.302 55.1609 130.351 48.4912 127.861C46.0252 126.94 43.568 125.279 40.9257 125.084C39.9353 125.011 38.8603 125.159 37.8625 125.089C35.7622 124.939 33.6676 124.261 31.5949 123.928C30.9307 123.347 30.233 119.055 30.0917 118.002C29.5513 113.952 29.7479 108.712 30.2155 104.628C30.5811 101.428 32.0115 98.3633 33.5394 95.571C33.7856 95.1224 34.996 92.8807 35.2873 92.8327C36.0491 92.7074 38.4903 93.7154 39.389 93.9965C39.9192 94.1625 40.5295 94.1669 41.0728 94.3519C42.2337 94.7466 43.3247 95.8347 44.6284 96.1857C46.736 96.7552 49.4365 96.142 51.6651 96.5775C54.0102 97.5782 55.7508 98.994 58.3217 99.5344C63.3542 100.595 68.9605 100.507 74.0848 101.396C78.4705 102.156 82.5708 103.773 86.8372 104.957C87.9442 105.461 87.6252 107.135 87.7679 108.105C88.1291 110.571 88.5588 113.678 90.1538 115.624L89.3133 113.405C88.5763 110.996 88.3476 108.482 87.8961 106.012C89.3396 107.295 90.9141 108.411 92.2644 109.799L91.9745 109.87C93.6481 113.866 94.4347 118.182 95.9 122.258L97.9436 127.131L94.5672 115.576L94.1594 115.48C94.2657 114.475 93.7705 112.647 93.3568 111.692C93.083 111.062 92.4508 110.497 92.2658 109.797L92.2615 109.793ZM127.658 128.436C128.051 125.919 128.203 123.336 128.101 120.783C127.575 107.748 124.6 94.8311 122.054 82.1122C121.913 81.4029 121.467 80.3148 121.429 79.6783C121.384 78.9238 121.82 77.7716 121.839 76.9501C121.862 75.9873 121.543 74.959 121.687 73.9597L123.694 76.1024C124.261 79.8269 125.323 83.4537 126.243 87.0996C126.433 87.8468 126.865 88.4979 126.753 89.2888C126.442 91.481 125.285 92.5224 126.175 95.1807C127.209 98.2715 129.324 99.1222 129.972 102.89C130.596 106.519 131.078 110.703 131.445 114.381C131.966 119.621 132.435 123.064 128.82 127.339L127.659 128.434L127.658 128.436ZM124.889 76.8758C125.726 77.3288 126.532 77.0681 127.403 77.2006C129.732 77.5575 131.004 80.0191 132.751 81.3169C130.926 83.1683 128.871 84.9497 127.801 87.3617L127.496 87.1593L124.89 76.8758H124.889ZM203.023 83.7815C203.959 82.9002 204.927 82.0452 205.803 81.0999C206.253 80.6163 208.411 77.8153 208.734 77.7585L213.596 82.6628C213.861 83.1537 212.62 84.6612 212.279 85.0997C208.977 89.3383 204.827 92.904 200.973 96.5892C197.74 99.68 194.732 103.014 191.021 105.569L184.173 97.5607C186.054 96.5659 187.858 95.3919 189.609 94.1829C194.075 91.1037 199.094 87.4725 203.023 83.7815ZM28.3496 82.2972C31.8104 82.6512 35.7024 85.7391 38.8516 87.2438C39.7532 87.6749 40.8631 87.9123 41.7341 88.4498L41.8055 88.68L40.2703 92.8385C39.8872 93.1254 36.403 91.4911 35.2669 91.7621C34.9916 91.8276 34.8023 92.1058 34.6187 92.1451C34.3493 92.2034 31.5716 90.8721 31.104 90.6216C28.3482 89.149 25.7758 87.0923 22.9967 85.6182C22.819 85.4434 22.9836 85.3735 23.071 85.2468C24.1852 83.646 26.2987 82.0875 28.3496 82.2972ZM214.033 84.4486C216.125 85.0924 218.312 85.4187 220.512 85.3211C223.266 85.1987 225.374 84.7923 228.214 85.1958C235.618 86.2475 242.53 91.6193 245.564 98.4347C249.648 107.608 245.135 122.781 237.402 129.014C236.253 129.941 233.895 131.601 232.452 131.786C232.208 131.817 232.223 131.802 232.236 131.57C232.578 130.308 232.772 129.01 233.066 127.737C233.598 125.428 234.587 122.85 234.966 120.607C235.024 120.26 235.276 119.396 234.861 119.262C234.405 122.008 233.279 124.57 232.569 127.241C232.344 128.094 231.95 131.004 231.502 131.417C230.131 132.689 224.88 132.568 222.988 132.663C222.186 132.704 221.154 132.993 220.363 132.963C218.835 132.905 217.468 131.286 216.069 130.985C213.695 130.474 210.473 132.892 208.087 133.493C207.773 133.572 207.312 133.696 207.002 133.656C205.063 133.412 206.08 130.512 205.136 129.975C204.935 129.862 204.348 129.823 204.289 129.729C204.229 129.636 204.267 129.116 204.206 128.867C203.881 127.549 203.129 126.038 202.227 125.019C201.572 124.276 200.52 124.092 200.804 122.862C200.858 122.628 201.705 121.609 201.904 121.444C202.514 120.943 203.364 120.991 203.983 120.359C204.27 120.068 204.334 119.721 204.557 119.476C205.618 118.311 207.324 117.073 208.65 116.141C211.601 114.068 218.312 113.851 221.51 115.491C223.724 116.627 224.15 120.266 226.485 120.71C228.067 121.012 230.546 119.369 232.224 119.034C232.948 118.889 233.821 118.841 234.562 118.822C234.342 118.499 233.445 118.399 233.078 118.419C231.098 118.53 227.879 120.892 226.217 120.396C225.316 120.126 224.015 117.66 223.466 116.885C220.729 113.016 211.656 112.963 208.13 115.624C206.685 116.715 205.8 117.506 204.559 118.753C203.318 119.999 202.755 120.097 201.508 120.946C200.721 121.482 199.999 122.697 200.217 123.673C200.33 124.174 201.831 125.32 202.287 125.976C202.895 126.85 204.957 130.804 202.482 130.305C200.574 129.92 201.061 127.671 200.405 126.4C200.072 126.338 200.207 126.547 200.191 126.762C200.162 127.131 200.131 128.783 199.814 128.86C198.494 128.911 197.517 127.142 196.465 126.989C195.095 126.79 193.686 128.047 192.001 127.521C189.311 126.682 187.714 123.058 188.135 120.388C188.355 118.994 189.861 116.157 190.728 115.003C191.412 114.093 192.034 113.203 192.697 112.278C193.099 111.719 193.848 111.225 194.197 110.575C194.331 110.328 194.352 109.84 194.381 109.812C194.42 109.774 194.809 109.784 195.028 109.659C196.066 109.066 197.635 107.483 198.446 107.104C198.676 106.996 198.965 107.056 199.17 106.953C199.408 106.833 199.424 106.49 199.479 106.453C199.552 106.404 200.882 106.409 201.141 106.377C202.073 106.265 201.673 106.382 202.306 106.443C202.533 106.465 202.78 106.265 203.004 106.316C203.228 106.367 203.779 107.333 204.044 107.613C205.008 108.634 206.355 109.493 207.698 109.93C209.981 110.671 216.075 111.588 218.247 110.881C219.494 110.476 223.483 107.417 224.199 106.345C225.878 103.831 224.212 100.927 221.7 99.8621C220.923 99.5315 219.843 99.4951 219.278 99.2256C218.904 99.0464 218.572 98.3764 218.24 98.0793C217.248 97.1835 215.699 96.6868 214.686 95.807C213.29 94.598 212.324 92.1277 211.317 90.5662L211.33 90.2851C212.381 88.4323 213.654 86.5796 214.027 84.4486H214.033ZM8.50807 132.152C8.61731 131.068 8.42796 129.83 8.50807 128.729L8.05799 128.816C7.61665 129.977 7.85406 131.16 7.59333 132.402C7.36465 133.489 6.73687 134.602 6.54314 135.722C6.37418 135.95 6.38292 135.808 6.22852 135.745C5.06325 135.266 4.40926 133.799 4.2738 132.615C6.33632 131.119 6.10908 128.226 6.61306 125.96C5.3837 126.644 5.68231 128.038 5.38225 129.17C5.09822 130.245 3.39548 133.334 2.35985 131.451C1.5966 130.061 2.15301 128.979 2.09912 127.641C2.05833 126.601 1.35626 125.521 1.24119 124.411C0.435698 116.68 6.93059 109.311 9.16062 102.07C10.505 97.7064 11.6048 87.4987 16.7785 86.0916C21.8037 84.7253 26.3046 89.4184 30.4019 91.6077C31.4623 92.1743 32.5518 92.6855 33.704 93.041C31.222 96.8659 29.3547 100.733 28.8987 105.348C28.6803 107.55 28.8434 109.77 28.6001 111.969C26.0205 112.166 24.36 113.673 22.7054 115.468C20.8715 117.458 15.3205 123.849 14.4742 126.027C13.6483 128.155 14.2951 132.492 16.2352 133.886C17.1587 134.549 19.163 134.918 18.0268 136.556C17.5287 137.274 15.1617 137.32 14.3956 137.037C14.1494 135.273 13.5668 133.304 12.9798 131.607C12.7686 130.997 12.3753 129.656 12.135 131.126C12.199 133.366 13.7445 135.349 13.1604 137.601C12.2486 137.723 11.4489 137.755 10.5429 137.539L10.9828 134.912C11.2115 134.446 10.4701 130.474 10.1831 130.474C9.91804 130.648 9.97775 130.86 9.95882 131.119C9.81462 133.028 10.7017 135.391 9.49564 137.073C8.65082 137.429 7.53217 136.699 7.51469 135.789C7.4943 134.765 8.393 133.291 8.50953 132.144L8.50807 132.152ZM208.552 90.7658C209.851 89.3718 211.075 87.8249 212.354 86.4849C212.472 86.3611 213.006 85.7479 213.156 85.9052C212.66 87.1972 211.038 89.4141 211.111 90.7789C211.162 91.7111 213.047 94.8646 213.74 95.59C214.769 96.6649 218.26 98.1186 218.69 99.0887C218.843 99.4324 218.474 99.2314 218.4 99.2358C215.787 99.4018 212.842 100.558 210.897 102.363C209.305 103.841 208.103 106.495 211.116 107.023C211.065 106.551 210.581 106.38 210.36 105.961C209.896 105.084 210.274 104.605 210.829 103.895C213.254 100.793 220.411 98.4041 223.205 102.145C225.425 105.115 222.42 107.355 219.781 108.188C219.602 108.443 220.409 108.495 220.508 108.491C221.026 108.471 221.16 108.102 221.603 108.045C220.008 109.88 218.171 110.821 215.705 110.664C213.037 110.494 207.912 109.623 205.761 108.082L203.066 105.678C202.287 105.367 200.82 105.546 200.011 105.754C198.076 106.251 195.925 107.917 194.289 109.063C194.132 109.173 193.436 110.009 193.345 109.939L192.1 106.294C194.866 104.105 197.415 101.721 199.979 99.313C202.921 96.5484 205.798 93.7168 208.548 90.7658H208.552ZM85.8525 103.528C82.0217 102.287 78.2098 100.943 74.2275 100.225C69.0654 99.2941 63.1371 99.4397 58.1483 98.2424C55.9984 97.7268 54.3583 96.1347 52.4968 95.5914C50.3833 94.9753 47.7207 95.4924 45.6174 95.188C44.2948 94.9971 42.7028 93.6775 41.4603 93.1211C41.7705 91.9762 42.0808 90.8241 42.5687 89.7374C42.745 89.3442 43.2446 88.1148 43.6801 88.0944C46.0733 88.7455 48.768 90.1424 51.2558 90.2778C52.9265 90.3681 53.2775 89.8554 55.0065 90.6056C56.8243 91.395 57.8323 92.1612 59.9268 92.6768C62.6244 93.341 65.8944 94.011 68.6372 94.4538C73.3172 95.2098 78.1821 95.2244 82.6611 96.9257L85.8554 103.527L85.8525 103.528ZM158.565 98.171C159.012 97.903 161.654 98.895 161.957 99.3086C162.319 99.8039 162.485 101.496 162.689 102.219C162.914 103.019 163.341 103.818 163.53 104.59C163.564 104.729 163.715 104.777 163.491 104.915L160.795 105.435C160.075 103.997 159.57 101.992 158.711 100.663C158.352 100.11 157.385 99.4543 157.244 98.9226C157.117 98.4463 158.109 98.7318 158.247 98.6619C158.44 98.5658 158.483 98.2235 158.565 98.1725V98.171ZM163.053 99.4528C164.241 99.7776 165.45 100.065 166.667 100.28C173.158 101.434 177.415 100.905 183.076 105.136C185.487 106.938 186.855 109.425 190.246 107.492C190.451 107.375 190.898 106.861 191.019 106.951C191.392 108.063 192.454 109.834 192.148 110.998C191.925 111.842 190.021 113.874 189.44 114.699C188.588 115.908 187.714 117.842 187.303 119.262C187.066 120.084 187.131 120.789 186.938 121.593C186.843 121.661 185.461 120.671 185.148 120.544C184.776 120.394 184.172 120.248 183.771 120.173C179.299 119.342 172.695 119.826 169.925 115.812L164.419 106.3C164.211 105.92 164.659 105.704 164.741 105.428C165.006 104.519 162.83 99.6728 163.051 99.4543L163.053 99.4528ZM141.497 117.512C142.005 117.561 141.89 116.983 142.047 116.681C142.634 115.555 143.342 114.486 143.72 113.255C144.347 111.209 144.346 109.009 144.684 106.937C146.456 106.388 148.251 105.924 149.981 105.243C151.247 104.743 153.023 103.981 154.219 103.362C155.586 102.656 156.422 101.805 157.515 100.761C158.982 103.651 159.927 106.75 161.133 109.744C162.078 112.09 163.134 112.218 160.536 114.048C156.747 116.713 151.228 117.816 146.641 117.747C145.918 117.737 144.063 117.335 143.597 117.412C143.438 117.439 143.341 117.902 142.962 118.03C142.441 118.206 141.27 118.136 140.78 117.863L135.308 111.244L135.379 109.79C135.972 110.349 137.394 111.653 137.707 112.341C137.736 112.403 137.743 112.58 137.635 112.556C137.27 112.499 136.352 111.021 136.106 111.247C136.434 111.671 136.626 112.228 136.98 112.629C138.059 113.848 139.562 114.922 140.704 116.042C141.009 116.342 141.287 117.102 141.498 117.507L141.497 117.512ZM161.303 106.297L163.418 106.291C164.997 109.486 166.732 112.912 168.672 115.898C172.216 121.354 178.048 120.055 183.65 121.166C184.864 121.406 185.749 122.276 186.906 122.646C188.01 125.766 188.981 128.264 192.697 128.58C193.942 128.686 194.42 128.395 195.502 128.185C197.416 127.817 196.826 128.912 198.2 129.63C199.164 130.134 199.431 129.579 200.091 129.774C200.644 129.939 200.873 131.101 202.197 131.314C203.129 131.464 203.764 131.155 204.565 130.766C204.629 131.621 204.59 132.641 205.002 133.387C204.264 133.09 203.489 132.827 202.765 132.494C199.177 130.836 194.955 129.381 191.08 128.448C190.138 128.22 189.181 127.958 188.204 128.005C187.506 125.859 184.869 125.285 182.888 124.987L178.417 123.048C177.729 123.181 179.037 123.948 179.269 124.089C181.742 125.604 184.699 125.763 187.015 127.559C187.15 127.652 186.929 127.815 186.85 127.837C186.373 127.965 184.345 127.578 183.668 127.555C179.917 127.419 175.218 127.744 172.378 124.716C169.217 121.347 166.506 116.82 163.302 113.386C163.644 110.801 161.513 108.79 161.303 106.294V106.297ZM23.3666 125.233C23.7162 126.544 24.4343 127.96 25.5588 128.793C26.0599 129.163 27.4844 129.619 27.5907 130.267C27.9418 132.412 24.1517 132.166 22.9224 131.575C21.492 130.889 20.9633 129.722 19.8709 128.8C18.6153 127.741 16.6008 127.02 16.2571 125.179C18.774 122.314 20.991 119.143 23.5822 116.346C24.8626 114.964 26.4925 113.085 28.5215 113.274C28.6948 113.403 28.6249 113.873 28.5958 114.077C28.4341 115.175 25.8661 117.806 25.081 119.01C23.9041 120.815 22.2961 123.382 23.9493 125.379L23.3681 125.234L23.3666 125.233ZM146.883 118.825C151.862 118.971 156.358 118.021 160.62 115.446C160.944 115.251 162.423 114.049 162.603 114.172C164.085 116.626 166.065 118.719 167.852 120.942C169.639 123.165 171.122 126.006 173.779 127.25C178.995 129.693 184.984 128.137 190.329 129.199C191.302 129.393 192.385 129.987 193.348 130.258C195.475 130.857 197.655 131.257 199.757 131.935C199.791 132.201 199.447 132.06 199.288 132.039C198.382 131.92 197.314 131.633 196.406 131.425C195.033 131.112 193.207 130.395 191.951 130.195C191.801 130.172 191.561 130.098 191.602 130.328C194.174 132.095 197.533 132.205 200.485 133.026C202.989 133.72 205.588 134.811 208.095 135.612C209.105 135.936 213.212 136.435 211.417 138.128C210.191 139.284 210.626 137.153 209.848 136.772C206.856 136.022 203.885 135.206 200.925 134.334C200.335 134.159 199.735 133.792 199.029 133.608C196.349 132.908 193.406 132.873 190.801 131.786C190.547 131.961 190.85 132.096 190.97 132.2C192.563 133.575 196.64 133.774 198.742 134.332C202.168 135.24 205.674 136.859 209.226 137.539L209.743 137.907C210.011 138.447 209.101 139.027 208.671 139.172C207.27 139.646 205.656 139.095 204.22 139.078C204.118 139.049 204.018 138.121 203.256 137.829C201.715 137.238 199.518 136.851 197.864 136.376C195.147 135.598 192.059 134.454 189.201 134.259C189.045 134.249 188.515 134.157 188.543 134.408C190.512 135.429 192.744 135.575 194.835 136.199C195.651 136.443 196.432 136.885 197.25 137.135C198.847 137.621 201.241 138.057 202.672 138.705C202.889 138.802 203.109 138.922 203.225 139.142C202.954 139.596 202.937 139.901 202.395 140.024C200.108 140.547 195.373 139.656 192.86 139.343C192.129 139.251 191.226 138.92 190.509 138.913C188.142 138.89 185.577 139.384 183.076 139.369C179.92 139.349 175.412 139.235 172.318 138.766C169.679 138.365 169.886 137.42 168.221 136.017C166.853 134.864 164.97 133.843 163.498 132.728C157.745 128.364 152.259 123.642 146.885 118.828L146.883 118.825ZM24.5305 125.817C24.9121 125.722 24.7854 125.942 24.9062 126.091C25.3039 126.585 25.8195 127.241 25.987 127.853C25.6447 127.862 25.3694 127.361 25.2005 127.112C25.084 126.94 24.4809 125.869 24.5319 125.815L24.5305 125.817Z" fill="currentColor"/>
<path d="M24.5305 125.817C24.4809 125.871 25.0822 126.941 25.1988 127.113C25.3677 127.362 25.643 127.863 25.9853 127.855C25.8178 127.243 25.3022 126.586 24.9045 126.092C24.7851 125.944 24.9104 125.724 24.5287 125.818L24.5305 125.817Z" fill="currentColor"/>
<path d="M173.83 52.9881C173.889 53.2357 174.168 53.3071 174.371 53.3915C175.35 53.7979 176.645 54.0616 177.692 54.4403C185.268 57.1728 192.03 60.1574 194.181 68.6856C195.342 73.2855 194.139 77.4062 192.475 81.6812C192.339 81.7921 191.993 84.4355 194.233 78.5918C196.194 73.4822 195.498 67.5888 192.242 63.0501C187.903 57.0024 180.865 54.4913 173.83 52.9881Z" fill="currentColor"/>
<path d="M188.65 104.731C187.945 104.028 186.243 105.814 188.024 106.16C188.476 106.12 189.025 105.106 188.65 104.731Z" fill="currentColor"/>
<path d="M95.6129 69.5915C95.7993 69.6367 95.8517 69.3221 95.8547 69.207C95.8619 68.7351 95.7862 67.9951 95.7571 67.481C95.4687 62.6014 94.7564 56.66 93.5023 51.9655C93.4513 51.7776 93.3639 51.2663 93.1381 51.2401L95.6143 69.5915H95.6129Z" fill="currentColor"/>
<path d="M23.0722 104.548C22.7386 103.792 22.2929 103.088 22.0628 102.281C21.502 100.321 21.6913 99.0552 23.314 97.7238L24.3845 97.2665C23.1202 97.0873 22.1764 98.0865 21.6462 99.1149C20.9936 100.385 21.3039 101.322 21.7598 102.584C21.8268 102.769 22.6847 104.946 23.0722 104.548Z" fill="currentColor"/>
</svg>
