<svg width="241" height="120" viewBox="0 0 241 120" fill="none" xmlns="http://www.w3.org/2000/svg">
<path d="M140.25 88.0178C142.749 88.2978 148.938 90.7912 150.978 92.306C151.844 92.9485 153.368 95.1767 154.311 95.044C154.691 94.991 160.509 91.917 161.107 91.5044C162.693 90.408 163.946 88.507 165.278 87.1366C165.802 87.8086 163.53 89.963 163.657 90.0779C167.55 88.7723 169.189 85.1855 171.461 82.1322L169.374 86.5236L166.899 89.347C170.046 89.406 174.405 88.3568 177.002 86.497C179.203 84.9173 180.547 82.477 182.498 80.6615C182.404 81.36 181.791 82.0585 181.39 82.642C179.05 86.0343 176.156 88.8254 171.962 89.7007C169.643 90.184 166.398 89.792 164.476 90.4522C162.952 90.9768 161.765 92.6125 160.126 93.0311C161.738 94.266 163.636 99.8097 165.614 100.019C167.078 100.175 173.076 96.1021 175.142 95.9724C175.074 96.4145 174.585 96.5206 174.264 96.7122C172.59 97.7054 169.171 99.5032 167.406 100.158C166.831 100.37 166.33 100.446 165.72 100.387C167.193 102.869 171.004 101.186 172.943 100.099C176.094 98.3332 181.325 88.9108 183.247 85.3741C187.806 76.9774 190.202 69.1201 188.596 59.403C185.879 42.9958 163.2 32.2442 149.831 25.4449C139.168 20.019 127.904 14.3161 117.046 9.35297C101.284 2.14696 85.2217 -2.97828 68.4549 5.02937C52.5192 12.6421 53.6715 28.2566 51.7381 43.0783C50.7449 50.688 48.8705 58.3951 48.5227 66.0667C48.3753 69.347 49.2831 74.3927 48.7585 77.1955C48.396 79.1407 46.6158 79.014 45.0066 78.5955C45.9851 81.1684 49.3803 82.1557 51.9238 82.1557C53.5094 82.1557 55.1599 81.4071 56.7809 81.5368C55.9144 80.52 55.7611 79.2763 55.4517 78.009C52.9082 67.5551 54.3052 56.0609 55.6521 45.5186L56.4832 41.2009C56.5687 44.7081 55.6196 48.174 55.3102 51.6547C54.6765 58.8372 53.81 73.9329 56.6247 80.3668C57.3909 82.1174 58.3311 81.5486 59.51 81.8993C60.4738 82.1852 61.4139 82.5595 62.3718 82.866L72.6812 87.7172C68.1336 87.4372 63.9397 83.5439 59.7428 82.5536C55.3043 81.5044 51.4257 84.0479 46.8604 81.5987C45.8348 81.0476 44.3376 79.2616 43.5507 79.0199C42.3718 78.6544 40.7714 78.9963 39.398 78.7576C36.439 78.2389 31.6704 73.4319 28.9825 76.8507C24.8563 82.0938 25.49 95.8398 26.5451 102.212C26.9636 104.752 27.8331 110.573 30.5121 111.493C34.1726 112.748 39.3126 110.944 43.0968 110.691C48.8911 110.305 51.131 112.577 56.3034 113.965C60.1938 115.009 68.1366 116.91 71.9474 116.895C75.7523 116.88 80.5003 114.469 84.6117 114.225C88.7231 113.98 93.0408 114.976 97.2819 114.823C104.231 114.572 109.439 113.83 111.853 106.429C113.695 100.782 109.292 92.1498 107.862 86.2524C106.218 79.4737 105.555 72.6715 104.432 65.8339C104.081 63.7089 103.789 60.9091 103.091 58.9285C101.488 54.375 95.8583 47.2722 92.693 43.4142C91.7116 42.2177 88.8085 39.5386 88.2869 38.398C88.2279 38.2713 88.2132 37.9147 88.4313 37.9618C91.0927 41.0623 94.0251 44.0037 96.5215 47.2427C98.39 49.6653 99.952 52.3267 101.826 54.7434C101.325 52.6391 100.771 49.683 99.8283 47.7644C99.4451 46.9834 98.6111 46.2377 98.1454 45.327C94.9506 39.0847 91.6467 32.9014 88.6405 26.5619L88.8763 26.0373L94.0251 36.1994L94.4761 36.9274L99.7693 47.0865L97.6385 38.7723C96.5539 35.6188 95.9409 32.0939 94.9771 28.7694C93.8631 24.9262 92.304 21.2864 91.1722 17.5581C91.0838 17.2693 90.6918 16.6651 91.0838 16.4647C94.2049 23.3701 95.991 30.7794 98.0599 38.0532C98.3722 38.6993 98.2095 38.7212 98.2957 39.2852C98.841 42.8484 100.789 47.9943 101.809 51.6724C104.862 62.6892 107.966 74.8436 119.097 80.6114L123.324 81.9789C109.23 71.6459 106.106 54.0096 101.373 38.2684L101.535 37.3724C105.743 49.8864 107.83 63.2344 116.015 73.9771C119.504 78.5572 124.175 82.0202 128.918 85.2179L115.08 79.4767L119.198 100.827C119.557 106.096 118.434 108.955 113.389 110.909C111.063 111.811 110.842 111.543 108.705 112.999C101.688 117.782 91.0219 114.587 83.1351 115.401C80.0199 115.722 76.9724 117.187 73.9986 117.455C68.9294 117.909 59.9963 116.134 55.0125 114.661C50.9571 113.461 48.1985 111.307 43.6774 111.575C39.1564 111.843 29.8578 115.073 27.4116 109.872C25.4605 105.725 25.3544 100.564 24.9772 96.108C24.9536 95.8221 25.1864 95.1737 24.538 95.3741C24.2875 95.4508 21.6497 99.0788 21.3904 99.5916C18.6229 105.041 26.2887 104.564 24.3199 108.41C22.363 112.235 14.1667 106.86 12.3188 104.799C12.2009 106.117 12.6813 107.974 13.6391 108.923C14.6471 109.922 15.9056 109.615 15.4399 111.879C15.1275 113.397 13.8838 113.936 12.4632 113.954C10.9336 113.974 10.6388 114.169 9.52184 114.251C9.32732 114.266 5.90852 113.399 5.73758 113.305C5.04498 112.922 4.81804 112.088 4.58226 111.944C4.2787 111.758 3.75409 111.905 3.3179 111.593C2.64592 111.112 0.385392 106.871 0.261608 106.105C-1.28864 96.4322 4.41722 92.3827 7.7476 84.4752C9.27427 80.8531 9.46879 76.7299 10.9159 73.2138C12.0299 70.5053 13.9574 69.0258 16.9607 68.955C17.8036 68.9344 19.2566 69.4944 19.793 69.3912C20.2911 69.294 21.5672 67.4873 22.416 67.0482C27.7829 64.2719 32.1272 71.7372 36.9459 72.0084C40.0494 72.1852 40.6595 72.8336 43.1558 73.2197C44.7502 73.4643 46.3918 73.034 47.9421 73.5822C47.9774 70.7676 47.5324 68.006 47.6356 65.1767C47.8861 58.3568 49.6751 51.0594 50.5533 44.2454C52.7814 26.9333 51.4375 10.1723 71.0544 2.91324C89.0767 -3.75636 103.901 2.09392 120.188 9.73317C137.98 18.0768 155.49 27.0836 172.401 37.0158C176.297 39.3058 180.468 41.2274 184.243 43.7237C191.101 48.2566 197.087 54.378 200.45 61.9671C201.588 62.7334 208.478 61.0535 210.329 60.9268C219.675 60.2931 228.968 62.6568 234.732 70.3786C239.121 76.2554 241.075 82.1115 240.135 89.5563C239.651 93.3877 233.209 107.832 230.645 110.685C228.387 113.196 226.085 111.882 223.294 111.849C220.108 111.814 216.68 112.229 213.559 111.867C212.239 111.714 212.03 110.853 211.205 110.691C208.649 110.19 206.675 112.005 204.29 112.453C205.684 114.263 209.696 113.942 207.532 117.313C206.489 117.24 205.596 117.941 204.747 118.059C203.719 118.203 202.186 117.77 201.479 117.87C201.113 117.923 200.656 118.758 199.707 118.911C196.837 119.376 193.503 118.206 190.609 118.033C185.932 117.75 181.517 118.681 176.795 118.009C172.074 117.337 167.562 114.514 162.861 113.414C160.276 114.343 156.374 118.271 153.565 117.685C152.404 117.443 146.023 114.169 144.615 113.385C141.125 111.44 136.769 108.598 133.353 106.391C129.118 103.656 122.699 98.454 124.111 92.7776C124.57 90.9326 128.072 86.4204 129.483 84.9085C130.117 84.2335 131.387 83.9005 131.284 82.8719C128.537 79.4708 125.776 75.9548 124.205 71.8168C125.431 73.2963 126.244 75.1826 127.32 76.7947C127.851 77.5934 131.567 82.7039 132.006 82.7039C133.943 80.9268 135.982 79.1761 138.072 77.5875C140.562 75.6954 148.228 70.9415 149.486 68.6839C150.836 66.2583 149.634 64.4399 149.563 62.2265C149.557 62.088 150.067 62.1322 150.114 61.9082C150.332 60.9032 150.282 59.1879 150.503 57.9235C150.765 56.4204 151.072 54.7375 151.446 53.2698C151.532 52.9338 151.429 52.3149 151.88 52.3856C151.349 57.0069 149.999 61.5162 150.412 66.22C151.098 66.3674 150.883 66.1345 151.072 65.8428C151.803 64.7022 152.41 62.9073 153.226 61.8257C154.237 60.4847 156.713 59.2734 158.263 58.6191C158.534 58.5041 159.015 57.9795 159.242 58.4216C155.531 60.5259 152.602 62.8601 151.296 67.1101C153.509 65.1678 155.51 62.9721 157.768 61.0712C158.001 60.8737 158.36 60.299 158.652 60.7765C155.443 63.9241 152.602 67.505 149.236 70.4994C141.992 76.9421 131.034 81.9907 126.215 90.7617C123.751 95.2444 124.903 97.1719 128.039 100.815C131.237 104.528 140.138 109.989 144.609 112.509C145.947 113.264 152.802 116.683 153.875 116.818C155.593 117.036 161.169 113.199 162.743 111.982C165.407 109.922 168.075 107.302 169.183 104.051L168.971 103.774C165.378 101.596 161.49 99.8834 157.859 97.7879C157.208 97.4136 156.171 96.3055 155.699 96.1227C154.886 95.8044 154.025 96.1522 153.35 95.8221C152.964 95.6335 152.814 94.9291 152.454 94.658C150.922 93.5085 149.46 93.5144 147.618 93.6117C143.332 93.8357 139.124 95.492 134.809 95.3712L145.702 93.6058L144.673 93.0193L139.813 92.4357C143.359 92.3679 146.91 92.4505 150.412 93.0193C147.108 90.5259 143.053 89.1319 138.994 88.3921L135.396 88.0149C136.952 88.1386 138.729 87.8439 140.253 88.0149L140.25 88.0178ZM193.692 73.8858C196.044 71.2038 200.161 66.3114 199.557 62.5684C199.448 61.8876 198.882 60.9857 198.552 60.3373C194.043 51.5103 185.384 44.8525 176.61 40.6173C179.657 43.5822 182.935 46.4352 185.39 49.9424C192.336 59.8687 189.61 75.0853 184.214 85.1678C182.401 88.5542 176.129 99.0464 173.282 100.738C171.806 101.616 170.043 101.599 168.956 102.739C174.514 103.329 176.816 100.269 179.843 96.4057C184.564 90.3874 189.274 82.5978 192.266 75.5569C194.028 71.4101 195.799 66.9215 196.044 62.4033C196.554 62.3503 196.365 63.4172 196.347 63.7355C196.135 67.2545 194.591 70.5348 193.689 73.8828L193.692 73.8858ZM224.311 111.569C226.731 111.552 228.561 112.061 230.2 109.951C232.416 107.095 237.871 94.711 238.717 91.0859C242.251 75.9607 231.087 62.7157 215.932 61.7991C210.597 61.4779 205.723 63.0252 200.465 62.9898C200.462 65.7249 199.139 68.1357 197.647 70.3314C196.312 72.2913 194.075 74.2453 192.855 76.1404C191.579 78.1239 190.63 81.0977 189.427 83.3111C187.609 86.665 185.219 90.2636 183.035 93.4083C182.425 94.2866 177.795 99.9718 178.086 100.376C183.722 103.22 186.014 97.6553 189.268 94.6344C191.9 92.1911 196.079 89.4325 199.13 87.4195C205.62 83.1342 212.787 78.9609 220.188 76.5353L208.994 81.973L195.658 90.4257L191.334 93.9005C201.576 91.248 212.012 90.7175 222.543 91.8463L221.207 92.1528L205.897 91.8315L200.462 92.7246C203.291 93.1136 206.84 93.8975 209.492 95.0293C212.339 96.2435 214.6 98.507 217.238 99.9453C220.544 101.746 228.172 103.618 229.672 107.237C229.866 107.708 229.973 108.109 229.902 108.625L228.593 106.55C225.145 103.376 220.447 102.362 216.457 100.137C212.675 98.0266 210.851 95.9872 206.347 94.6403C200.78 92.9751 197.208 92.7069 191.623 94.6403C187.04 96.2259 184.744 101.914 187.553 106.076C189.489 108.949 194.102 108.336 197.273 109.309C198.847 109.792 201.983 111.826 203.079 112.011C204.992 112.336 208.207 109.126 211.655 109.951C212.743 110.211 212.935 111.171 213.551 111.283C214.853 111.516 218.867 111.398 220.344 111.289C223.3 111.071 226.138 109.978 228.867 108.92C229.253 109.058 228.523 109.562 228.402 109.63C227.152 110.361 225.316 110.567 224.308 111.569H224.311ZM110.659 110.688C116.221 109.568 118.723 106.933 118.31 101.127C117.801 93.986 114.585 85.8575 114.117 78.5277C112.864 77.0305 111.432 75.716 110.244 74.1569C108.408 71.749 107.179 68.9374 105.363 66.5265C106.318 72.8366 107.235 79.1702 108.744 85.3741C110.15 91.1507 114.267 100.034 113.061 105.583C112.669 107.387 111.597 109.132 110.662 110.688H110.659ZM36.7544 73.0075C31.4758 72.4151 25.487 63.1195 21.134 69.9188L26.7691 74.3043C27.332 74.4399 28.6701 75.5598 29.0031 75.6099C29.3361 75.66 29.7016 75.1383 30.1407 75.0794C32.2421 74.7935 33.5949 75.5686 35.546 75.9282L36.7514 73.0105L36.7544 73.0075ZM28.5109 75.9488C23.5094 74.1776 20.4178 67.7496 14.3759 70.4935C10.963 72.0437 10.2704 80.3903 8.9265 83.8887C7.14047 88.5483 1.10444 95.8892 0.685931 100.216C0.538569 101.745 0.398654 102.582 0.492966 103.946C0.53128 104.518 0.806846 105.221 0.886421 105.766C1.24386 107.968 3.18051 110.796 4.80252 111.472C6.03017 112.151 5.84222 112.825 7.82564 113.305C8.63108 113.696 16.094 113.994 14.5174 110.691C14.2757 110.163 13.2442 109.751 12.7726 109.2C8.66419 104.39 13.8631 98.731 17.3143 95.5215C19.3155 93.6618 22.0535 91.4749 24.6235 90.6114C25.101 85.4419 25.1304 80.2459 28.508 75.9488H28.5109ZM47.945 78.009C48.6229 72.3827 46.3152 74.2866 42.528 73.8534C40.6889 73.6412 38.673 71.8964 37.3409 73.4437C35.3456 75.7632 36.8221 77.3311 39.3214 77.9412C42.1773 78.6397 45.0508 77.8616 47.9421 78.009H47.945ZM24.6795 91.2568C23.9427 90.355 13.0821 100.216 12.6518 102.371C12.2687 104.287 17.6828 108.012 19.3185 108.545C20.8009 109.029 22.7992 109.294 23.7541 107.832C24.3317 105.244 21.5996 105.542 20.5534 104.369C18.9088 102.53 19.9728 100.155 21.0839 98.4039C21.7352 97.3753 24.7915 94.4398 24.9271 93.9919C25.2012 93.0664 24.6265 92.1705 24.6825 91.2598L24.6795 91.2568ZM159.805 93.3346L155.413 95.6718C156.866 95.3064 157.176 96.3791 158.151 96.9096C158.699 97.2073 162.873 99.3942 163.067 99.2055L159.805 93.3346ZM186.622 106.862C185.684 104.57 184.647 102.996 185.443 100.384C184.249 101.009 183.091 101.979 181.682 102.091C180.273 102.203 178.655 101.16 177.344 101.242C176.3 101.307 175.475 102.651 174.34 102.969C173.017 103.341 171.175 103.346 169.843 103.037C169.716 103.641 170.144 103.721 170.521 103.977C175.228 107.157 180.474 107.611 186.035 107.449C184.013 105.407 180.592 105.489 178.166 104.284C177.786 104.095 177.394 104.03 177.942 103.621C180.892 104.514 184.214 104.791 186.622 106.862ZM203.698 113.049C201.205 111.896 198.434 110.314 195.752 109.656C191.832 108.696 188.328 108.628 184.402 108.345C182.071 108.177 178.614 108.171 176.483 107.726C174.234 107.257 172.221 105.421 169.999 104.791C168.302 107.702 166.259 110.832 163.359 112.607C163.259 113.237 163.489 112.951 163.772 113.072C165.658 113.883 168.24 114.404 170.285 115.1C172.793 115.952 174.573 117.157 177.385 117.422C181.502 117.809 185.776 116.989 189.728 117.154C191.888 117.246 198.729 119.088 200.155 117.891C200.562 117.552 200.488 117.355 200.462 116.871L189.035 114.012L188.092 113.338C191.09 113.618 193.857 114.655 196.689 115.486C197.771 115.801 198.915 115.922 200.032 116.267C201.821 116.815 203.114 118.295 205.449 117.145V116.302C202.619 115.51 199.958 114.092 197.152 113.261C194.839 112.574 192.354 112.498 190.214 111.646C189.766 111.466 189.419 111.817 189.569 110.983C192.316 111.832 195.004 112.047 197.798 112.907C199.858 113.544 203.889 114.938 205.737 115.86C206.153 116.067 206.418 116.58 206.79 116.865L207.235 115.837C203.017 114.083 199.156 111.773 194.641 110.765C193.509 110.511 192.012 110.856 191.04 109.951C192.722 110.016 194.452 110.081 196.106 110.479C198.263 111 200.482 112.483 202.575 113.137C202.846 113.223 203.748 113.632 203.695 113.049H203.698Z" fill="currentColor"/>
<path d="M88.5726 103.031C85.7727 102.088 83.2764 99.6181 81.3548 97.443C75.1037 90.3755 69.5658 81.1919 66.486 72.2706C64.9062 67.6994 63.5859 62.7864 62.9611 57.9883L65.4603 67.4077C68.7052 78.5217 74.9062 89.5886 82.6928 98.168C84.4995 100.157 86.4064 101.487 88.5726 103.031Z" fill="currentColor"/>
<path d="M100.057 108.339C96.603 111.592 91.8757 108.793 88.0501 107.832C78.9844 105.557 69.3381 103.936 61.7814 98.0352C65.2237 99.6001 68.4628 101.61 72.0142 102.963C77.502 105.055 83.535 106.102 89.229 107.537C93.0663 108.504 95.937 110.39 100.06 108.339H100.057Z" fill="currentColor"/>
<path d="M183.979 80.3642C185.196 76.7273 186.408 71.6079 184.725 67.9828C182.877 63.9981 178.035 60.6884 173.953 59.3238L166.016 57.694C169.426 57.134 172.517 58.086 175.636 59.4063C183.458 62.719 188.238 68.8581 185.529 77.6468C185.261 78.5162 184.737 79.8366 183.979 80.3612V80.3642Z" fill="currentColor"/>
<path d="M43.5249 103.623C40.4392 99.444 37.8751 94.1419 36.3838 89.1287C35.4849 86.1077 34.5742 82.795 35.8768 79.777C36.4368 79.7122 36.0684 80.3518 36.0271 80.6612C35.2815 86.2934 37.825 92.2557 40.2388 97.3456C41.2556 99.4912 42.6142 101.436 43.5279 103.623H43.5249Z" fill="currentColor"/>
<path d="M155.996 112.164C156.061 112.692 155.336 112.447 155.006 112.418C153.58 112.291 152.088 111.825 150.629 111.787L147.461 110.985L155.996 112.164Z" fill="currentColor"/>
</svg>
