<svg width="67" height="205" viewBox="0 0 67 205" fill="none" xmlns="http://www.w3.org/2000/svg">
<path d="M53.5628 58.4159C53.6998 58.5181 54.877 57.2782 54.8747 56.909C54.8747 56.6908 53.0335 53.8813 52.7525 53.078C51.6125 49.8181 52.0142 46.6139 52.7456 43.3378L53.6418 42.9268C54.3058 42.9895 54.8445 43.9856 54.9908 44.5777L55.4134 47.0504C56.1796 44.8354 56.8297 37.099 58.8056 35.945C59.4766 35.5526 59.8226 35.7314 60.5168 35.9195C60.4239 34.9188 61.7729 34.3174 62.3929 35.0906C62.6552 35.4156 62.776 36.5719 62.8433 36.616C62.9664 36.7019 63.9578 35.9613 64.4848 37.1709C65.063 38.4921 64.1203 40.8789 64.4639 42.4114C64.933 42.2024 64.8238 41.2179 65.2186 40.8534C65.5111 40.5818 66.1426 40.4146 66.4375 40.7814C66.9251 41.4942 66.8113 42.3835 66.751 43.1962C66.542 46.0288 65.1814 53.7745 63.8905 56.1057C63.31 57.1505 61.8495 58.6713 61.7404 59.9623C61.6661 60.8515 63.368 64.5688 63.505 66.2173C63.7372 69.0337 62.3069 70.7775 60.8024 72.967C59.1678 75.3469 54.7725 81.2351 51.7866 81.3674C50.5491 81.4232 49.7596 80.5966 48.6893 80.2228C49.4717 86.2665 49.9709 92.3591 50.8068 98.4006C51.8261 105.77 53.4537 113.068 54.2548 120.467C56.305 139.404 57.2755 158.544 58.8985 177.527C59.2119 181.202 60.6097 187.82 60.0014 191.161C59.3536 194.723 52.5459 195.754 49.618 195.041C49.8014 197.885 46.7807 199.065 44.7514 200.26C41.1275 201.836 36.0663 201.128 33.3813 200.834C30.9201 200.564 28.8723 201.11 26.8894 202.575C25.369 203.331 24.4488 205.459 14.4953 203.841C12.4312 202.875 7.15131 202.896 6.0345 200.692C5.7698 200.17 5.84875 199.355 5.54691 199.092C5.21488 198.804 3.26685 198.426 2.6028 198.094C1.06805 197.328 0.0975179 196.169 0 194.423C1.17254 174.648 2.84891 154.898 2.98358 135.067C3.62209 126.021 4.23738 116.938 5.84875 108.011C6.80071 102.742 8.31223 97.6111 9.48709 92.3986C9.35707 91.0937 3.16004 87.1024 2.81409 85.152C2.38686 80.3667 2.73978 75.3515 2.29399 70.5964C2.01768 67.636 0.580461 65.8691 0.933383 62.5024C1.29095 59.1032 5.01984 46.9111 6.58245 43.7952C9.02504 38.9193 12.7539 38.6291 14.2933 32.9498C16.2437 25.7567 18.4657 18.6797 21.0824 11.6723C23.056 6.38317 24.7161 2.4871 30.5974 0.775889C34.7628 -0.436118 38.3524 -0.280553 42.281 1.61408C43.3978 2.15275 47.5005 4.58837 48.3038 5.33137C48.8332 5.81896 49.2465 6.50855 49.4578 7.19349C49.8223 8.37532 50.0243 10.8574 50.0777 12.1414C50.2704 16.8083 48.8588 23.4093 46.7203 27.5701C46.1538 28.673 42.534 33.5489 42.5155 33.9389C42.4714 34.8003 43.8389 35.613 44.2545 36.5208C44.6237 37.3242 44.5726 38.2204 44.8768 38.9147C45.6128 40.5957 47.9625 42.423 48.9609 45.0374C49.8293 47.3105 49.69 49.8042 50.4771 51.8706C50.9322 53.0664 51.9074 53.7536 52.4391 55.0121C52.9034 56.108 53.0729 57.327 53.5605 58.4159H53.5628ZM29.9031 22.2321L32.6453 16.2766C34.8417 12.5407 37.5304 8.8838 41.2849 6.59213C42.7337 5.70751 44.1942 5.25242 45.6685 4.48621C40.5001 -0.203933 31.5331 -1.22787 26.1789 3.78037C22.3386 7.37228 19.7822 17.4375 18.0733 22.5827C17.5161 24.2591 16.6732 25.9355 16.1462 27.6142C15.1547 30.7766 14.9667 34.4149 13.1974 37.1918H14.5859C8.51655 39.7111 6.97485 45.1906 5.07093 50.8722C3.73354 54.8635 2.55171 58.9569 1.59743 63.0527C2.20343 63.2012 2.00376 62.8599 2.19647 62.6161C5.32633 58.6527 6.20167 56.4656 11.9808 58.1234C15.5146 59.138 17.862 61.0698 20.2721 63.7469C22.9678 61.7803 24.6767 58.7619 27.3584 56.8603C26.699 51.6268 24.0428 45.9917 25.4986 40.7884L26.6502 41.0159C26.6038 40.0013 26.908 37.979 27.8762 37.4821C28.055 37.3892 28.4079 37.5099 28.517 37.4147C28.8839 37.1013 28.7956 36.0959 29.3575 35.9357C29.7406 35.8266 30.1168 36.1029 30.479 36.1029C30.7855 36.1029 31.1082 35.8916 31.4031 35.9148C33.0377 36.0495 32.362 41.009 32.9007 41.3805C34.2427 41.738 35.5638 41.2806 36.8594 41.0206C35.9423 42.0004 34.1661 41.9586 32.9146 41.947C32.9634 44.0367 33.6994 46.0056 34.31 47.9769L35.0344 43.9508C35.5267 43.296 36.0329 42.6505 36.943 42.9013L37.289 43.2565L37.5629 52.9735L36.8594 56.0964C43.9991 54.9308 44.0874 46.0079 44.2778 40.3263L42.1463 44.5707C41.7144 45.1279 41.3963 45.85 40.918 46.3585C40.6371 46.658 40.5163 46.7486 40.5698 46.2424C42.0372 44.4523 44.5819 39.4673 43.9898 37.2476C43.7135 36.2143 42.0557 35.5619 42.1881 34.2919C40.6812 34.8166 40.1031 35.7244 38.3593 35.6989C33.5508 35.6292 27.8692 30.2983 26.2927 25.9494C26.2137 25.7312 25.9862 25.1948 26.4157 25.2482C27.6858 28.5313 30.0146 31.9932 33.3766 33.3631C30.263 28.8726 26.9242 23.2468 26.4482 17.679C26.4157 17.3005 26.1952 16.128 26.6479 15.9701C27.0728 19.7129 27.6022 23.9085 30.1284 26.8712C29.4109 22.26 28.7956 17.5397 29.736 12.9076C29.8196 12.4896 29.9217 11.5029 30.3606 11.3334C29.657 14.9183 29.3993 18.6054 29.9008 22.2345L29.9031 22.2321ZM45.6732 5.53105C46.8318 5.64946 47.4587 7.06811 47.9579 8.0015L49.3812 13.1839C49.2976 10.2978 49.5971 4.6975 45.441 5.069C45.4015 5.10382 45.6012 5.42656 45.6732 5.53105C42.7941 5.23385 37.7905 9.77075 36.1629 12.0229C37.1659 11.6538 37.9252 10.9363 38.9514 10.523C41.6239 9.44105 45.9797 8.99525 48.2226 11.0989C48.2667 10.0006 47.9788 8.7561 47.5005 7.76235C46.9966 6.71287 46.1956 6.29261 45.6732 5.53105ZM42.6083 10.0076C37.953 10.4418 35.2643 13.0376 33.026 16.8942C30.4674 21.3034 29.6686 24.143 31.5122 29.0863C32.773 32.4645 36.9128 36.5789 40.6464 34.257C43.017 32.785 46.0122 27.4679 47.0036 24.8419C49.077 19.3507 52.0165 9.12992 42.606 10.0076H42.6083ZM61.6754 45.8918C61.2621 45.7943 61.2203 45.4832 61.225 45.114C61.2575 43.3448 61.9958 40.9347 62.1398 39.047C62.1955 38.3296 62.5879 33.8553 61.0856 35.6734C60.0919 36.8761 59.5764 43.3378 59.126 45.1976L58.6802 44.8702C58.7197 42.5809 60.1592 38.8891 59.9944 36.7809C59.869 35.1672 58.6338 36.7855 58.2646 37.4914C57.1037 39.7227 56.0565 45.6411 55.4737 48.3878C55.3878 48.7895 55.4041 49.1982 55.4134 49.6022C54.9676 49.6741 54.7934 49.4187 54.7191 49.0217C54.4266 47.4196 55.5643 43.5398 53.0961 43.5723C53.3028 44.8447 52.72 45.9429 52.6225 47.1596C52.4089 49.8181 52.929 52.5973 54.1317 54.9471C54.4359 55.5415 55.1812 56.173 55.3112 56.7883C55.5945 58.1303 54.3267 58.9824 55.0744 61.1952C55.3437 61.9939 57.7631 66.2684 58.318 66.5354C58.6988 66.7189 58.8985 65.8551 59.0029 65.6021C59.9085 63.4149 60.6375 60.8213 61.6383 58.7247C62.4091 57.1064 63.6304 55.9013 64.2387 54.1367C65.0305 51.8404 65.6504 47.1294 66.0219 44.5544C66.1752 43.4934 66.3237 42.4253 66.0846 41.3735C65.7595 40.6026 64.9864 42.6018 64.9214 42.7573C64.4082 43.9809 64.2527 45.3369 63.8254 46.5443C63.6931 46.9181 63.9462 47.1642 63.303 47.0528C63.6443 44.0831 64.3618 40.8929 64.0089 37.8791C63.8463 36.4976 62.9455 36.9155 62.6645 38.1833C62.1282 40.6026 62.2001 43.433 61.6754 45.8942V45.8918ZM35.0019 49.6022C33.9037 48.7965 33.4486 47.0783 33.1166 45.8036C32.3968 43.0429 32.5756 39.53 31.8349 37.1129C31.749 36.8343 31.6561 36.5603 31.4054 36.3815L30.8296 36.7275V42.7573C30.8296 43.3006 31.5354 45.2765 31.5192 45.5436C31.5099 45.6805 31.1244 46.0358 30.9433 45.6596C30.8017 44.717 30.4766 43.6582 30.3977 42.7271C30.2793 41.341 30.746 37.7143 30.2329 36.8575C30.1005 36.6369 29.8451 36.3119 29.5595 36.3792C28.5031 36.623 29.0208 45.2208 29.4388 46.5837C29.0069 46.3934 28.5124 44.4709 28.5124 44.1481V38.3481L27.9365 37.9998C26.2044 41.0531 27.1262 44.9933 28.048 48.2044C26.5249 47.1874 26.8987 42.2721 26.1998 41.5894C25.7169 41.1181 25.559 41.9888 25.5218 42.3115C25.3895 43.4283 25.5729 44.645 25.4916 45.7781L28.0387 56.9322C28.0735 57.9097 27.0148 58.4206 26.771 59.333C26.295 61.1139 27.6997 66.4402 29.0905 67.6964C29.4341 68.0075 29.4109 67.8984 29.6431 67.5431C31.4541 64.7824 32.5756 61.2254 34.2241 58.4391C36.6203 54.3921 36.7944 55.9965 36.8548 50.6516C36.871 49.2539 37.1334 44.7007 36.8269 43.7209C36.7573 43.4934 36.546 43.2821 36.2883 43.3378C35.9957 43.4028 35.0066 44.7472 35.0066 45.0745V49.5975L35.0019 49.6022ZM45.3644 40.403C45.2645 40.3147 44.7723 40.0593 44.7468 40.0918C44.5587 44.854 44.4774 53.6283 39.2416 55.8131C37.1868 56.6699 36.3115 56.0732 34.8092 58.3393C34.5724 58.6969 33.4974 61.0257 33.4788 61.3113C33.4208 62.2446 34.4192 64.6733 34.5352 65.9596C34.6304 67.0277 34.6281 68.704 34.3797 69.7396C33.8085 72.1148 30.2421 74.4901 28.7747 76.4265C28.6981 76.8143 30.3234 78.6346 30.7065 79.0642C32.5013 81.0772 34.9694 83.4269 37.3168 84.7481C38.4708 85.3982 41.062 86.847 42.1811 86.1226C48.4641 82.0593 48.9911 68.7737 50.152 61.8522C50.4283 60.213 51.7959 55.5089 51.2944 54.2993C51.0251 53.6491 50.1265 53.1198 49.7736 52.1098C48.4269 48.2578 49.0375 43.6396 45.362 40.403H45.3644ZM50.5444 63.055C51.176 63.7631 53.1356 59.3957 53.2401 58.9964L51.8191 55.17L50.5468 63.055H50.5444ZM26.1882 62.4768C26.0396 61.3763 26.2973 60.0157 26.1882 58.8826C24.6813 60.3384 23.3532 62.0125 21.7836 63.4102C18.7652 66.0966 14.0402 68.1561 14.5882 73.032C14.298 73.4221 14.168 73.0088 14.1262 72.6907C13.88 70.8448 14.7438 68.9571 15.7491 67.4688C13.1092 67.9936 11.6418 71.4601 11.8043 73.9607C11.1704 74.8105 11.3631 72.0754 11.4026 71.8176C11.7045 69.7907 12.8793 67.9727 14.6671 66.965C16.2878 66.0502 18.2799 65.9852 19.4037 64.339C17.0331 60.8028 12.6146 57.9933 8.20311 58.4113C6.77749 58.5459 4.55547 59.8067 4.37901 61.3136C3.82873 66.0548 6.10183 76.1688 8.60479 80.2924C11.3655 84.8432 13.223 84.4021 17.8295 82.6491C24.1333 80.2506 28.8444 75.867 33.1445 70.8262C32.4525 70.7705 32.0369 71.0398 31.2823 70.8355C28.9837 70.2109 26.4807 64.6571 26.1859 62.4768H26.1882ZM62.3743 69.5538C62.0469 69.5283 61.6591 69.6142 61.3457 69.5376C57.9024 68.6808 54.6053 62.4513 54.141 59.1148C52.4507 61.5713 51.0065 64.397 51.0065 67.4642C50.2867 67.0161 50.758 65.9016 50.7859 65.2677C50.7975 65.0123 50.9368 64.39 50.5468 64.4504C49.8688 67.9866 48.9191 72.1148 48.6916 75.7021C48.5662 77.6943 48.1669 79.3637 50.1567 80.2622C52.915 81.5091 55.2833 78.7716 57.034 76.8514C59.0633 74.6271 60.7025 72.0405 62.3743 69.5538ZM61.6754 61.2021C61.2877 60.8214 61.2853 61.3205 61.1925 61.5272C60.9069 62.1611 59.1237 66.8303 59.1376 67.1275C59.1864 68.0679 61.7079 69.7233 62.6274 68.5299C62.9849 68.0678 62.8804 65.9782 62.8085 65.2909C62.7551 64.7917 61.8495 61.3763 61.6731 61.2045L61.6754 61.2021ZM3.6871 61.6665C3.15075 61.5318 3.30399 61.771 3.15772 61.9591C1.1795 64.4829 1.51849 65.3513 2.29863 68.3906L3.22273 67.4642C2.95804 69.4261 2.94643 71.4044 2.98126 73.3895C3.03234 76.2431 2.90696 80.8984 3.28542 83.5244C3.71264 86.4941 7.52977 89.0249 9.48477 91.1239C8.83 88.3818 9.04594 85.577 9.02504 82.7745C9.42905 82.7211 9.2433 83.3015 9.2549 83.5825C9.34778 85.8788 9.43137 88.1426 9.7216 90.4273C10.1256 90.3182 10.2417 89.4521 10.3508 89.0876C10.5575 88.3934 11.4491 84.7271 11.319 84.3231C7.75731 81.9386 6.18541 77.0604 5.19166 73.0366C4.2931 69.396 3.58726 65.4117 3.6871 61.6688V61.6665ZM32.9192 62.5952C32.564 64.0139 30.0587 67.3736 29.9519 68.5462C29.8265 69.9439 33.718 71.8037 34.05 68.2466C34.1661 67.0207 33.6669 64.2484 33.2559 63.0596C33.1793 62.8367 33.228 62.5256 32.9169 62.5952H32.9192ZM43.9689 85.2426C42.6617 86.5034 42.0836 87.2208 40.2122 86.7263C35.399 85.4492 31.0757 80.7963 28.1618 76.9791C24.5397 80.2042 19.0926 83.6428 14.219 84.3742C13.5132 84.481 12.1015 84.1095 11.8507 84.7898C7.76892 100.859 4.24899 116.996 3.68013 133.681C3.59887 149.655 2.46581 165.549 1.59975 181.472C1.39079 185.314 0.745309 189.517 0.661723 193.297C0.585101 196.764 2.55404 197.774 5.64907 198.298C5.77677 198.28 5.94859 197.23 5.98109 196.989C9.37796 171.973 9.1481 146.551 10.1929 121.408C10.4808 114.452 11.2633 108.131 12.3105 101.256C13.072 96.2482 13.9358 90.9544 14.9017 85.9856C14.9597 85.6814 14.9272 84.8618 15.2848 84.8665C14.7089 90.822 13.3808 96.7103 12.538 102.643C9.02505 127.342 10.3856 152.425 8.79053 177.297C8.3192 184.66 6.83321 191.981 6.22024 199.336C6.14594 200.671 7.43225 201.507 8.56299 201.886C11.6162 202.903 18.7768 204.173 21.8951 203.857C25.7076 203.471 28.914 199.371 33.1491 200.149C33.1398 197.72 33.0678 195.266 32.9146 192.844C32.6081 187.987 31.9626 183.106 31.7467 178.238C30.948 160.146 31.4611 142.047 31.5354 123.96C31.5702 115.559 31.1895 107.179 31.2939 98.7813L31.7653 102.831C32.2575 121.071 31.4565 139.314 31.7467 157.592C31.9417 169.821 32.9564 182.001 33.3906 194.221C33.4602 196.185 33.3093 198.171 33.3929 200.135C35.6242 200.52 37.953 200.799 40.2308 200.618C43.0797 200.393 48.8402 198.496 49.1444 195.129C47.2242 169.751 46.9641 144.255 46.1283 118.854L45.6755 105.043L46.1352 108.64C46.3558 112.116 46.4278 115.596 46.6043 119.074C47.7304 141.42 47.8975 163.763 49.3835 186.116C49.4787 187.56 49.3742 193.362 49.8874 194.193C49.9872 194.356 50.0127 194.474 50.2287 194.546C51.5916 195.006 55.223 194.395 56.637 193.826C59.1469 192.816 59.6577 191.83 59.5881 189.129C59.4418 183.422 58.2437 176.844 57.7375 171.033C56.2539 153.986 55.4412 136.774 53.5582 119.773C52.8268 113.163 51.2851 106.409 50.3448 99.7914C49.3673 92.9071 48.615 85.9763 47.9904 79.0642C47.7652 78.8343 46.7412 81.5857 46.5578 81.92C46.0168 82.9068 44.7769 84.4671 43.9689 85.2472V85.2426Z" fill="currentColor"/>
<path d="M16.6738 192.489L15.9702 185.658C15.557 175.483 16.091 165.427 16.4532 155.272C16.5391 152.841 16.2744 150.373 16.56 147.953L16.6738 192.491V192.489Z" fill="currentColor"/>
<path d="M21.0859 19.2162L22.1284 25.0162C23.1315 28.6638 25.1329 31.861 27.3526 34.8702C27.2667 35.165 26.8465 34.6148 26.7675 34.5265C25.2444 32.7944 23.157 29.5252 22.3026 27.3938C22.0681 26.8064 21.0883 23.9087 21.0883 23.5047V19.2139L21.0859 19.2162Z" fill="currentColor"/>
<path d="M25.2562 40.5583C25.3096 40.9832 24.7687 40.7603 24.5527 40.6814C23.278 40.2101 21.4856 38.8471 20.6172 37.7744L24.0257 40.0475L25.2562 40.5583Z" fill="currentColor"/>
<path d="M44.0547 61.6643C44.7373 59.96 45.5871 58.409 46.0747 56.6119C46.5344 54.9077 46.813 53.0641 47.0406 51.3134C47.1451 50.5054 46.7898 49.1843 47.5305 48.6758C47.0847 53.0154 46.9106 58.149 44.0547 61.6643Z" fill="currentColor"/>
<path d="M38.4828 76.5079C37.431 76.5566 36.3235 76.3593 35.3158 76.0807C34.9095 75.9692 34.0132 75.7811 33.8438 75.3516C34.7098 75.4212 35.4946 75.809 36.3374 75.9855C37.0549 76.1364 38.1206 75.7463 38.4828 76.5056V76.5079Z" fill="currentColor"/>
<path d="M59.1205 55.6317C58.5517 55.3925 59.1159 54.3825 59.0996 53.9182C59.0857 53.5142 58.8837 52.8176 58.7769 52.3834C58.5377 51.4268 58.0919 50.7117 57.7344 49.834C59.4015 51.2039 59.6569 53.6419 59.1205 55.6317Z" fill="currentColor"/>
<path d="M32.4502 55.8642L31.5726 53.15L30.133 51.462C31.8047 52.0912 32.6917 54.1669 32.4502 55.8665V55.8642Z" fill="currentColor"/>
</svg>
