<svg width="128" height="212" viewBox="0 0 128 212" fill="none" xmlns="http://www.w3.org/2000/svg">
<path fill-rule="evenodd" clip-rule="evenodd" d="M111.974 160.067C112.667 158.381 113.771 155.664 113.942 153.895L113.944 153.901C113.984 153.479 113.967 153.03 113.949 152.581C113.933 152.178 113.917 151.774 113.944 151.391C113.774 151.413 113.732 151.799 113.706 152.034C113.701 152.082 113.696 152.125 113.691 152.156C113.605 152.7 113.535 153.186 113.469 153.635C113.168 155.702 112.983 156.974 111.975 159.394C108.019 168.898 102.098 175.756 92.6261 180.07C87.9363 182.206 82.877 183.024 77.8287 183.839C76.1953 184.103 74.563 184.367 72.9447 184.675C71.8249 184.888 70.7131 185.142 69.6014 185.396C67.9897 185.764 66.3781 186.132 64.7417 186.376C54.996 187.829 43.5082 186.781 36.1328 179.607C35.9333 179.413 34.6186 177.891 34.5752 177.779C34.5087 177.606 34.5996 177.525 34.7746 177.579C34.9941 177.646 35.512 177.99 36.003 178.315C36.3437 178.541 36.6714 178.759 36.8776 178.869C47.7074 184.676 62.5898 182.773 74.3761 181.086C77.9078 180.58 81.4259 179.887 84.9115 179.139L85.0583 179.108C95.2636 176.919 100.791 175.734 106.945 166.711C112.883 158.007 111.698 151.333 110.035 141.969C109.939 141.431 109.842 140.884 109.744 140.328C109.614 139.584 109.503 138.82 109.391 138.051C109.173 136.557 108.952 135.043 108.586 133.617C105.958 123.388 106.203 126.456 108.049 134.693C109.245 140.033 110.731 147.689 110.966 153.077C111.288 160.465 106.514 169.117 100.419 173.206C94.63 177.089 81.9659 179.108 74.9175 180.131C62.5709 181.923 46.6071 184.096 35.6158 177.141C34.4056 176.376 30.9106 174.003 30.1725 172.951C29.729 172.318 29.3484 171.049 29.0718 170.128C29.0261 169.975 28.9831 169.832 28.9432 169.703C27.5186 165.083 26.2148 160.636 26.0262 155.795C26.0245 155.755 26.0296 155.705 26.0349 155.653C26.0517 155.488 26.071 155.298 25.8919 155.323C25.3681 157.453 25.5649 159.614 26.0642 161.728C26.5057 163.596 27.0582 165.466 27.6111 167.337C28.1471 169.151 28.6835 170.966 29.1196 172.783C29.609 174.03 30.7854 174.835 31.9223 175.612C32.6986 176.143 33.4565 176.662 33.9647 177.3C34.1956 177.59 34.3646 177.927 34.5368 178.271C34.7066 178.609 34.8795 178.954 35.1179 179.267C35.9198 180.32 37.069 181.293 38.0987 182.12C37.7121 182.128 37.0337 181.804 36.7365 181.583C36.2741 181.239 35.576 180.441 34.914 179.685C34.4766 179.185 34.0549 178.703 33.7272 178.382C33.0151 177.67 33.9395 179.105 34.2674 179.614C34.3084 179.677 34.3401 179.727 34.3581 179.755C34.5806 180.108 34.97 180.753 34.913 181.1C34.7921 181.004 34.7001 181.184 34.6048 181.37C34.5517 181.474 34.4975 181.58 34.4368 181.641C34.354 181.724 32.3759 182.326 32.2049 182.316C31.6149 182.276 31.2394 181.443 30.9297 180.756C30.8171 180.506 30.7131 180.276 30.6107 180.109C29.803 178.802 28.2486 177.973 26.7532 177.176C25.1036 176.296 23.5258 175.454 23.101 174.051C22.793 173.038 23.2882 169.649 23.489 168.457C23.7685 166.796 24.2637 165.328 24.7843 163.784C24.8803 163.499 24.9772 163.212 25.0737 162.921L23.7181 164.954C22.8565 167.648 22.4538 171.077 22.9029 173.909C21.7512 172.265 21.0088 170.397 20.2666 168.529C19.8276 167.424 19.3886 166.32 18.8651 165.262C18.4994 163.552 19.7375 161.914 20.9172 160.353C21.5098 159.569 22.0877 158.805 22.4401 158.06C22.859 157.177 23.0276 156.124 23.1915 155.1C23.2687 154.617 23.3448 154.142 23.4456 153.693C23.2902 153.757 23.1912 154.098 23.1224 154.336C23.1065 154.39 23.0923 154.44 23.0793 154.479C22.946 154.878 22.8347 155.286 22.7234 155.696C22.5491 156.337 22.3745 156.978 22.1146 157.584C21.7603 158.411 21.1142 159.317 20.4522 160.246C19.4004 161.722 18.3084 163.254 18.2817 164.612C18.2629 165.603 18.8148 166.721 19.3127 167.729C19.4972 168.102 19.6742 168.461 19.8122 168.793C19.9823 169.201 20.154 169.636 20.3315 170.087C21.1863 172.256 22.177 174.77 23.7834 176.218C24.5645 176.922 25.5626 177.39 26.5661 177.86C27.672 178.378 28.7845 178.899 29.6203 179.743C29.9197 180.045 30.1829 180.521 30.4499 181.004C30.886 181.792 31.3323 182.599 31.9634 182.698C32.6117 182.8 33.0143 182.587 33.4114 182.376C33.6376 182.256 33.8619 182.137 34.1288 182.078C34.2835 182.044 35.4503 181.948 35.5195 181.976C35.6684 182.038 36.2999 182.776 36.7111 183.256C36.8433 183.41 36.9527 183.538 37.016 183.609C38.1457 184.859 39.348 185.871 40.5433 186.876C41.49 187.672 42.4322 188.465 43.3305 189.369C43.9389 189.982 44.417 190.686 44.8943 191.389C45.5517 192.357 46.2078 193.324 47.2013 194.046C47.8455 194.515 48.5693 194.923 49.3004 195.336C50.1893 195.838 51.0891 196.346 51.87 196.976C52.9022 197.808 53.7843 198.837 54.6631 199.863C55.3183 200.627 55.9716 201.389 56.6838 202.066C58.6226 203.91 66.1012 209.688 68.4579 210.101C69.328 210.253 69.5277 210.05 69.8044 209.768C69.9778 209.592 70.1814 209.385 70.5989 209.215C71.5825 210.809 73.1645 210.988 74.9433 210.816C75.1192 210.799 75.2818 210.722 75.4252 210.653C75.5516 210.594 75.6632 210.541 75.756 210.542C75.8517 210.544 75.9938 210.659 76.1659 210.798C76.384 210.974 76.6503 211.189 76.9309 211.262C77.9593 211.531 78.3585 211.295 78.8304 211.016C79.0813 210.868 79.3528 210.707 79.7503 210.604C79.9381 210.556 80.1222 210.549 80.305 210.543C80.4868 210.536 80.6674 210.53 80.8493 210.482C81.9021 210.211 82.6945 209.473 82.8899 208.386C86.4093 208.257 86.2411 204.291 84.9386 201.899C84.619 201.314 84.1481 200.835 83.6887 200.368C83.401 200.076 83.1178 199.788 82.879 199.481C82.3448 198.794 81.8823 198.153 81.4499 197.554C79.7 195.129 78.4412 193.385 74.9066 191.987C73.7312 191.522 72.6084 191.173 71.5165 190.833C69.1096 190.085 66.8527 189.383 64.5137 187.591C64.4856 187.569 64.4584 187.551 64.4329 187.534C64.3208 187.458 64.2443 187.407 64.2885 187.207C66.653 186.88 68.9999 186.395 71.3475 185.909C72.7381 185.621 74.129 185.333 75.524 185.078C84.3796 183.459 93.6776 181.922 102.615 180.963L105.192 180.016C103.378 180.11 101.084 180.413 99.195 180.661C99.0722 180.678 98.9511 180.693 98.8319 180.709C97.4061 180.896 95.9876 181.15 94.5691 181.404C92.7104 181.736 90.8516 182.069 88.9763 182.252C89.4401 182.064 89.9138 181.889 90.3881 181.715C91.0337 181.477 91.6804 181.239 92.3045 180.966C93.3723 180.5 94.5961 179.919 95.5269 179.298L97.8741 177.985L106.344 179.335C106.227 179.13 105.849 179.027 105.559 178.948C105.487 178.929 105.42 178.91 105.363 178.892C104.693 178.678 104.007 178.511 103.321 178.344C102.926 178.247 102.531 178.151 102.14 178.046L98.2051 177.438C99.8604 176.627 101.301 175.328 102.597 174.027C106.606 170.004 109.811 165.321 111.974 160.067ZM106.751 182.878L106.618 183.288C106.429 183.822 106.302 184.377 106.175 184.931C106.075 185.371 105.974 185.812 105.842 186.241C105.818 186.319 105.757 186.439 105.688 186.572C105.492 186.954 105.536 187.58 105.962 187.491C107.025 185.153 107.504 181.765 108.029 178.892C108.726 175.089 109.153 171.776 110.874 170.423C111.085 170.256 111.155 170.208 111.297 170.109C111.409 170.032 111.565 169.923 111.869 169.702C112.311 169.31 113.138 168.812 113.674 168.835C114.244 168.494 120.148 167.237 120.81 176.085C121.359 183.43 120.245 189.83 118.121 199.314C117.716 200.726 117.293 202.334 116.672 203.555C116.187 204.507 115.643 205.369 115.273 206.387C115.27 206.395 115.233 206.472 115.229 206.482C115.178 206.621 115.201 206.922 115.436 206.893C116.98 204.156 118.265 201.555 119.034 198.484C120.215 193.771 121.012 188.061 121.273 183.22C121.289 182.918 121.307 182.608 121.325 182.294C121.602 177.509 121.952 171.438 117.84 168.333L116.252 167.685C123.168 167.699 123.093 175.536 123.044 180.68C123.043 180.806 123.042 180.93 123.041 181.053C123.037 181.455 123.076 181.835 123.111 182.175C123.139 182.458 123.165 182.713 123.162 182.928C123.151 183.575 122.768 185.066 122.589 185.758C122.428 186.379 122.215 186.991 122.001 187.605C121.718 188.417 121.435 189.232 121.272 190.07C121.415 190.094 121.444 189.96 121.471 189.83C121.481 189.783 121.491 189.737 121.506 189.698C121.924 188.635 122.409 187.259 122.723 186.165C124.445 180.182 124.522 163.305 114.043 167.852C113.686 168.006 113.342 168.121 113.012 168.231C112.173 168.511 111.428 168.759 110.826 169.544C109.935 170.442 109.724 170.897 109.459 171.47C109.424 171.546 109.388 171.624 109.35 171.705C108.369 173.771 107.659 177.288 107.202 179.597C106.989 180.676 106.817 181.779 106.751 182.878ZM40.0339 183.737C39.7521 183.564 39.471 183.391 39.1665 183.219C38.813 183.019 38.4473 182.843 38.0827 182.666C37.4542 182.362 36.8278 182.059 36.2671 181.641C36.1234 181.798 36.3963 182.099 36.5509 182.27C36.5773 182.3 36.6003 182.325 36.6171 182.345C37.8245 183.778 39.3384 185 40.8391 186.212C41.7652 186.96 42.6863 187.704 43.5272 188.49C44.4171 189.323 44.8568 189.961 45.3908 190.737C45.5879 191.023 45.7979 191.328 46.0481 191.668C47.0629 193.049 48.649 194.086 50.155 194.887C50.1967 194.91 50.2355 194.934 50.2734 194.958C50.4043 195.04 50.5242 195.116 50.7167 195.071C48.5405 192.352 46.428 189.478 45.3602 186.115C44.9106 185.948 44.4466 185.797 43.9805 185.645C43.0964 185.357 42.205 185.067 41.3903 184.663C41.2953 184.615 41.2531 184.534 41.222 184.475C41.2042 184.441 41.1901 184.413 41.1718 184.404V184.405C40.7574 184.183 40.3949 183.96 40.0339 183.737ZM82.5059 207.378C83.5072 208.131 84.4149 207.877 85.1014 206.869C86.1285 205.362 85.0499 203.005 84.0133 201.734C83.7449 201.404 83.4314 201.142 83.1157 200.878C82.8472 200.654 82.5773 200.428 82.3322 200.158C81.7451 199.513 81.2752 198.773 80.8041 198.031C80.3161 197.263 79.8269 196.493 79.2049 195.824C77.0798 193.537 74.2512 192.696 71.4083 191.851C69.0766 191.158 66.7352 190.462 64.7647 188.962C64.4027 188.687 64.0709 188.381 63.739 188.075C63.5299 187.882 63.3207 187.689 63.1041 187.504C57.2808 187.996 51.2974 187.904 45.698 186.119L47.1335 188.684C51.1726 194.893 55.9037 200.582 61.8572 205.031C63.1773 206.017 67.481 209.229 68.8649 209.424C69.6179 209.531 71.3478 208.626 71.6653 207.948C71.8308 207.596 72.0004 206.645 71.7155 206.366C71.668 206.32 70.6192 205.942 70.4618 205.923C69.8579 205.852 69.4769 205.989 68.9441 206.179L68.8975 206.196C69.4185 205.341 70.474 205.196 71.3736 205.529C71.4291 205.55 71.4524 205.619 71.4725 205.679C71.4902 205.732 71.5053 205.777 71.5378 205.774C71.5832 205.77 71.6365 205.743 71.6929 205.715C71.7695 205.677 71.8519 205.635 71.9285 205.644C71.9439 205.646 71.9757 205.689 72.023 205.752C72.1846 205.97 72.5276 206.431 73.0166 206.339C73.0549 206.331 73.0672 206.293 73.0821 206.247C73.1062 206.171 73.1372 206.074 73.2975 206.052C73.5542 206.017 73.8088 206.067 74.0428 206.112C74.2182 206.146 74.382 206.178 74.5267 206.17C74.7721 206.157 75.0215 206.103 75.2736 206.048C75.5637 205.985 75.8574 205.921 76.1521 205.918C78.1507 205.898 80.4477 207.843 80.0217 209.999C80.8751 210.013 82.0975 209.82 82.2983 208.813C82.4388 208.111 82.064 207.903 81.6105 207.65C81.4246 207.547 81.2255 207.437 81.0433 207.282C80.1112 206.491 78.8073 205.278 78.6649 204.028C78.5523 203.927 78.1961 204.286 77.7925 204.692C77.3201 205.168 76.7829 205.708 76.4954 205.655C76.3643 205.529 76.8162 205.11 76.9901 204.949C77.0087 204.932 77.0242 204.918 77.0354 204.907C77.1668 204.783 77.577 204.486 77.9659 204.205C78.3641 203.917 78.7398 203.645 78.7707 203.591C78.876 203.405 78.8556 202.735 78.8458 202.414C78.8451 202.392 78.8445 202.371 78.844 202.352L79.8195 200.5C79.846 200.83 79.7134 201.159 79.5816 201.486C79.4842 201.728 79.3872 201.968 79.3555 202.207C79.039 204.569 80.2861 205.514 81.8584 206.706C81.9917 206.807 82.1272 206.91 82.2644 207.016C82.3281 207.065 82.3685 207.147 82.4056 207.222C82.4372 207.287 82.4665 207.347 82.5059 207.377V207.378ZM74.7316 206.739C75.5172 206.902 76.3692 208.068 76.3692 208.843C76.3692 209.154 76.2979 209.399 76.2387 209.602C76.0947 210.096 76.0234 210.34 77.2335 210.682C77.8115 210.844 79.213 210.817 79.5495 210.269C80.2197 209.181 77.338 206.591 76.2932 206.466C75.9635 206.427 75.2594 206.427 74.931 206.469C74.7424 206.493 74.5362 206.543 74.7302 206.739H74.7316ZM75.6583 210.11C75.7533 209.568 75.8211 208.519 75.5307 208.044C75.14 207.408 73.1442 206.485 72.4794 206.999C72.3658 207.087 72.2514 207.345 72.1163 207.649C71.8512 208.245 71.5064 209.022 70.9313 209.049C72.1144 210.33 74.0234 210.711 75.6569 210.109L75.6583 210.11Z" fill="currentColor"/>
<path d="M99.7569 67.9889C106.708 74.3793 109.941 89.4883 112.412 98.4796C113.886 103.847 115.843 109.578 116.92 115.001C117.836 119.614 115.926 124.128 114.882 128.569C114.387 130.674 112.579 136.803 111.729 138.783C111.439 139.077 111.525 138.858 111.576 138.631C112.029 136.654 113.882 130.786 114.31 128.81C115.242 124.497 117.056 120.485 116.542 115.921C113.16 104.589 110.858 92.6252 106.64 81.5919C105.615 78.9123 104.408 75.7795 102.983 73.3088C97.5033 63.8046 81.9004 58.6774 72.2104 54.6952C71.9702 54.5962 71.7016 54.2217 71.5347 54.4212C72.0747 55.1999 73.0298 55.9245 73.2998 56.7969L73.8398 56.5255C73.8426 56.672 73.7937 56.8349 73.9253 56.9461C74.6349 57.5485 77.3593 57.7955 78.1829 58.6285C78.2019 58.7371 78.0675 58.7004 77.9793 58.6991C75.9483 58.6679 71.1412 56.6503 68.7207 56.1524C65.2474 55.4374 61.6954 55.3519 58.1908 54.8784C54.3566 54.3601 50.7543 53.4326 46.8699 53.3186C35.4934 52.9835 23.133 56.008 13.31 61.8354C9.01038 64.3861 7.01695 68.0433 5.40782 72.6143C5.16903 73.2913 4.79538 74.7822 4.65563 75.3222C4.27209 76.8069 3.92707 77.5187 3.69361 79.0174C3.64206 79.0771 3.41424 80.3544 3.36675 80.5824C2.19315 86.2564 1.30975 91.9606 0.978695 97.8042C0.7494 101.845 2.26134 106.381 3.02249 110.355C3.99258 115.418 4.60041 125.796 7.22577 129.734C8.91224 132.263 12.3577 135.748 14.6221 137.87C15.4593 138.655 25.2074 146.71 25.5548 147.451C25.6199 147.59 25.6511 147.699 25.6253 147.854C25.4232 148.072 14.9654 139.72 14.6221 139.419C11.1827 136.401 5.65115 130.85 4.55081 126.425C3.27138 121.282 3.02987 115.605 2.03264 110.355C1.56591 107.898 0.397731 104.764 0.17115 102.448C-0.59407 94.6427 1.36104 86.6215 2.97967 79.0737C4.3188 72.8299 5.91572 66.3268 11.3075 62.3013C15.3629 59.2743 22.1061 56.1985 27.0054 54.934C30.9957 53.9042 35.9777 53.6559 39.7279 52.4606C40.2177 52.3046 41.9408 51.4227 42.2976 51.0957C42.9543 50.4919 43.3667 49.3563 43.9271 48.6549C44.1143 48.7444 44.2336 49.058 44.1847 49.1856C43.8578 50.0322 43.0614 51.2646 42.2976 51.7748C41.839 52.0814 41.951 51.9067 41.5955 52.3191C44.9807 51.908 47.5836 51.9844 50.9443 52.6248C53.4055 53.0942 55.8246 53.8472 58.3238 54.2C59.979 54.4334 61.6764 54.4144 63.3262 54.6247C66.6489 55.048 69.9757 55.6395 73.1642 56.6571C72.2999 55.782 71.5971 54.584 70.494 53.9694C69.0084 53.1404 65.6775 51.9722 63.972 51.401C60.7714 50.3305 57.6196 50.0876 54.3064 49.6019C54.2738 49.3658 54.6144 49.4744 54.7785 49.4676C57.0253 49.3835 59.5761 49.5978 61.7686 50.0768C64.6368 50.7022 67.3463 51.8894 70.0436 52.9938C67.87 49.686 64.5351 48.0226 60.8189 46.9562C57.0918 45.8857 50.5332 45.5411 46.8699 46.8504C45.9337 47.1855 45.1617 47.8449 44.2649 48.2465C45.5186 46.1503 49.114 45.5438 51.3893 45.4C58.2274 44.9685 67.5688 46.5451 70.8631 53.3303C84.4835 58.0931 90.9249 61.2781 99.7569 67.9889Z" fill="currentColor"/>
<path d="M41.2203 145.144C41.0033 145.387 38.0672 143.428 37.705 143.166C31.9699 139.015 27.7164 132.445 24.2363 126.379L20.5988 118.147C20.6788 120.465 21.5268 122.698 21.6815 125C21.7954 126.706 21.6285 128.409 21.8199 130.153C22.3734 135.194 24.452 138.807 26.5279 143.219C27.4857 145.256 29.0854 147.873 26.1602 149.082C26.3773 148.312 27.5414 148.433 27.5088 147.409C27.46 145.865 24.6935 141.331 23.9256 139.58C23.0762 137.644 22.1428 135.16 21.7222 133.1C21.0668 129.889 21.4033 126.626 20.9895 123.386C20.8063 121.953 20.0262 119.586 20.1958 118.222C20.2229 118.004 20.4346 117.926 20.4088 117.605C20.2745 115.939 18.1932 111.009 17.5745 109.026C16.0142 104.027 14.2721 98.9789 12.8231 93.9683C11.6034 89.7501 11.1054 84.3651 10.9562 79.961C10.8626 77.2094 11.1326 74.466 11.5057 71.7471C11.739 71.7213 11.6549 72.2151 11.6454 72.3617C11.5111 74.4837 11.3456 76.6084 11.2357 78.7331C11.8001 83.783 12.0253 88.8085 13.5042 93.6942C15.0835 98.911 16.7957 104.162 18.4632 109.358C22.3449 121.454 27.578 134.146 37.8406 142.216C38.5543 142.778 40.6722 144.039 41.0806 144.539C41.2516 144.75 41.238 144.893 41.2176 145.147L41.2203 145.144Z" fill="currentColor"/>
<path d="M101.325 77.1693C101.382 78.2968 101.695 79.3985 101.853 80.5097C102.408 84.4457 102.88 88.6895 101.774 92.5603C101.048 95.1043 100.199 96.9254 99.4909 99.4843C98.8638 100.789 97.8175 105.363 97.8854 106.609C97.9424 107.653 98.1009 112.045 98.3369 113.207C98.8891 115.924 100.179 117.039 101.392 119.503L104.31 124.384L103.853 124.502L100.945 120.084L99.157 116.65C100.226 119.718 101.173 122.746 100.609 126.04C100.538 126.454 100.485 127.366 100.039 127.506L100.377 124.18C100.135 119.54 97.5723 115.926 97.3728 111.3C97.2344 108.098 96.4583 106.257 94.3404 103.894C91.0516 100.222 87.0518 96.8982 83.7535 93.1792C83.0521 92.3882 82.1919 91.4344 81.9219 90.3979C82.0589 90.1726 82.2217 90.4426 82.3316 90.5308C84.4088 92.239 86.7411 95.1886 88.7044 97.1831C91.0421 99.5574 93.5169 101.774 95.7596 104.238L97.1077 106.609C97.4645 103.042 98.5478 99.7542 99.7295 96.3975C100.008 95.6079 100.464 94.8304 100.744 94.0204C102.268 89.6123 101.86 84.6736 101.461 80.0864C101.378 79.1407 101.288 78.1584 101.058 77.2331L101.326 77.168L101.325 77.1693Z" fill="currentColor"/>
<path d="M125.298 152.924C127.774 155.058 126.095 158.664 125.793 161.337C126.968 163.93 128.809 167.429 125.546 169.293C125.509 168.762 126.28 168.435 126.544 167.985C127.065 167.098 126.817 165.292 126.396 164.375C125.132 161.618 124.538 160.274 122.078 158.382C121.337 157.812 120.385 157.605 120.052 156.542C120.37 156.491 120.599 156.613 120.872 156.739C121.961 157.243 124.502 159.177 125.208 160.137C125.416 160.42 125.386 160.752 125.612 160.883C125.489 158.944 126.482 157.247 125.954 155.32C125.399 153.297 124.274 152.939 122.391 152.506C122.059 152.43 121.702 152.518 121.372 152.44C120.526 152.24 119.737 151.715 118.838 151.786C118.598 150.91 117.928 149.73 117.394 148.955C116.702 147.95 115.742 147.163 114.963 146.231L115.572 149.963C115.571 153.745 114.926 157.769 112.454 160.748C112.731 160.005 113.225 159.393 113.561 158.668C115.103 155.359 115.66 151.387 114.72 147.829C114.123 145.569 113.376 145.323 112.125 143.641C111.211 142.412 110.609 141.31 110.686 139.718L110.415 140.395C109.737 139.991 110.766 139.229 111.024 138.765C111.518 138.439 110.818 139.286 110.848 139.615C110.887 140.043 111.566 141.478 111.823 141.906C113.731 145.065 116.81 146.538 118.716 149.938C119.111 150.643 119.02 151.293 119.881 151.486C121.589 151.867 123.884 151.708 125.295 152.924H125.298Z" fill="currentColor"/>
<path d="M103.125 207.891C102.932 207.743 101.127 207.537 100.364 207.166C98.1985 206.113 97.5994 203.741 97.6059 201.506C97.6207 195.939 102.487 193.795 104.598 189.15C104.669 189.39 104.653 189.623 104.555 189.842C104.744 190.598 102.672 193.525 101.294 194.972C99.7879 196.839 99.274 197.006 98.4171 200.533C98.4756 200.6 98.2452 202.153 98.2941 202.25C98.5662 202.796 98.7038 203.773 99.0003 204.479C99.3946 205.415 100.662 206.587 101.644 206.856C102.048 206.968 102.586 207.064 103.024 207.166C104.442 207.497 105.375 208.608 106.799 209.034C108.208 209.457 109.86 209.274 111.238 208.785C113.481 207.992 115.418 205.915 114.894 207.469C114.729 207.357 112.11 209.172 111.559 209.394C111.009 209.616 108.691 210.069 108.087 210.116C105.721 209.744 105.307 209.309 103.125 207.891Z" fill="currentColor"/>
<path d="M54.657 150.977C54.3598 150.944 54.083 151.106 53.7913 151.099C52.4454 151.068 49.8662 150.497 48.3656 150.284C42.4664 149.446 35.7205 147.437 30.4101 150.948C29.3382 151.657 28.5934 152.731 27.1172 152.605L28.7914 151.906C33.9811 146.504 43.0091 148.586 49.6885 149.64C51.0059 149.848 52.8022 150.06 54.041 150.444C54.3001 150.524 54.7031 150.602 54.6583 150.978L54.657 150.977Z" fill="currentColor"/>
<path d="M102.956 135.241C102.744 135.557 102.163 136.092 101.813 136.214C101.02 136.492 98.1178 136.946 97.2915 137.105C86.3274 139.209 73.5516 133.498 63.924 128.343C61.3325 126.955 58.7343 125.436 56.2812 123.844C56.5295 123.787 56.6571 123.927 56.843 124.027C59.4005 125.403 61.8535 127.025 64.4192 128.391C70.2411 131.491 76.5908 133.92 83.0341 135.419C89.4625 136.914 96.6574 137.584 102.954 135.241H102.956Z" fill="currentColor"/>
<path d="M88.1669 143.653C88.1994 143.861 87.9132 143.813 87.7598 143.852C85.5917 144.409 81.2759 145.505 79.0793 145.915C67.4558 148.079 57.3356 146.622 46.4868 141.848L44.6172 140.804C45.5289 140.976 46.4328 141.482 47.2903 141.848C57.7537 146.315 69.5011 147.087 80.6674 145.045C83.153 144.59 85.6582 143.838 88.1669 143.487V143.653Z" fill="currentColor"/>
<path d="M27.1675 155.262C27.409 155.541 28.0141 156.161 28.2828 156.385C29.3261 157.251 31.1456 158.017 32.0261 158.845C32.2405 159.047 32.4304 159.351 32.4006 159.66C32.0655 159.704 31.8172 159.506 31.5458 159.363C29.1457 158.096 25.3345 155.224 24.9736 152.368C24.9003 151.787 24.7674 150.773 25.344 150.436C25.0536 152.184 26.0482 153.97 27.1661 155.262H27.1675Z" fill="currentColor"/>
<path d="M96.7159 141.618C96.7485 141.863 96.3178 141.977 96.1726 141.956C95.4345 141.84 94.5026 141.577 93.7103 141.418C91.6765 141.013 89.5331 140.749 87.4708 140.518C80.1972 139.706 72.7663 140.316 65.5863 138.966C63.2635 138.529 60.1157 137.413 57.8879 136.638L56.8281 135.782C59.0668 136.489 61.2634 137.389 63.5536 137.942C71.1502 139.778 79.0222 139.051 86.7436 139.853C90.103 140.201 93.4488 140.791 96.7159 141.616V141.618Z" fill="currentColor"/>
<path d="M99.9718 146.095C100.006 146.335 99.5175 146.404 99.3791 146.375C98.8785 146.266 98.2626 146.192 97.7592 146.095C91.3647 144.869 84.5954 147.187 78.6719 148.263L82.0028 147.187C87.864 145.851 94.0536 144.106 99.9718 146.097V146.095Z" fill="currentColor"/>
<path d="M55.1921 134.97H53.9376C50.1088 133.023 46.8939 131.804 43.4531 129.204L47.7285 131.24L55.1921 134.97Z" fill="currentColor"/>
<path d="M30.7376 14.3103L35.8489 10.9725H36.5271L36.892 12.0676L35.119 21.8208L35.5363 23.6463L38.8743 29.7485L39.2394 31.0002L39.5524 34.2339L39.7744 35.8003C40.1188 41.0287 39.7191 43.666 37.9594 47.8518L37.1732 48.7875L33.6715 50.9377L33.2671 51.0193L36.9215 48.253L37.3094 47.7732C39.177 43.9087 39.5635 41.0992 39.3408 35.8913L39.0652 34.1764L38.7691 31.0002L38.3914 29.7485L34.9514 23.6463L34.635 21.7432L36.3295 12.1785L36.0232 11.5864L30.7376 14.3103Z" fill="currentColor"/>
<path d="M41.879 18.1906C41.5575 18.4579 41.4639 19.3588 41.434 19.778C41.8573 19.8459 41.6457 19.66 41.6986 19.4375C41.9835 18.2164 42.5384 17.8283 43.8816 18.078C46.796 18.6193 47.2918 22.7406 47.2891 25.2248C47.2878 26.6169 46.4976 29.905 45.3036 30.7055C45.1218 30.8276 44.7207 30.7259 44.4995 30.7055L42.7894 29.9565C43.5858 31.3649 45.3497 32.2034 46.3442 30.4572L47.9438 26.5646L46.8584 35.5858C46.6427 37.3781 46.2357 38.5244 45.7025 40.2462C45.7025 41.3808 45.7025 40.7738 45.4448 42.2463C45.4773 42.7104 45.5524 42.7122 45.5307 43.1789C45.5239 43.3282 45.6766 43.4117 45.9086 43.3872C46.0389 42.4551 46.2529 41.4118 46.4727 40.5164C46.493 40.4322 46.6178 40.2623 46.6515 40.1517C47.853 34.3034 49.4914 23.6569 46.6494 19.6532C46.0023 18.7415 44.3891 17.6235 43.248 17.614C43.0653 17.5197 41.858 18.0213 41.8804 18.1933L41.879 18.1906Z" fill="currentColor"/>
<path d="M24.1881 42.5395C24.762 43.0374 25.4838 42.9248 26.2259 42.8C27.23 43.6534 27.0346 45.173 27.5895 46.2611C27.9233 46.9164 28.6234 47.2692 28.9219 47.778C29.2203 48.2868 29.3424 49.128 29.6749 49.7385C30.1443 50.6001 31.0737 51.1713 31.4264 51.9202L31.1276 54.1935L32.1484 53.9555V53.2616C32.2563 52.3815 32.0245 52.4063 32.0245 51.9202C31.6636 50.9013 30.6501 50.3778 30.1834 49.5135C29.8605 48.9166 29.773 48.0655 29.4799 47.5486C29.2845 47.2053 28.6851 46.8231 28.4246 46.4812C27.4722 45.2275 27.7409 44.2522 27.1168 43.0365C26.3543 41.5495 26.1767 42.6111 25.0601 42.205C24.9607 42.1689 24.6758 42.0869 24.3832 41.9433C24.3751 41.246 24.0364 40.7408 24.1979 40.0651C24.2223 39.962 24.2429 39.7595 24.266 39.6564C24.3243 39.3973 24.5004 39.168 24.5682 38.8586C25.1123 36.4123 26.5066 34.6161 25.2136 32.1088C24.8581 31.4182 24.2912 30.8726 23.9778 30.2186C23.3238 28.8524 23.6033 27.1602 23.5911 25.7343C23.5612 22.2175 23.2458 19.8542 24.3991 16.3849C26.8521 9.00138 32.0989 4.61482 39.4147 2.07766C49.4086 -1.38618 60.1947 3.39175 63.7087 13.4102C66.1848 20.4722 64.126 27.5837 65.1911 34.8357C65.4991 36.9278 66.2302 39.6992 67.0022 41.6706C67.1937 42.1585 67.8202 42.9423 68.1681 43.3776L68.2031 43.4214C67.0892 40.0376 66.0784 36.6158 65.7637 33.0407C65.2359 27.0316 66.9468 21.595 65.4245 15.4705C62.4382 3.45764 49.3155 -3.23938 37.8168 1.56902C28.215 5.58371 22.6495 12.5806 22.7472 23.2787C22.7499 23.6342 22.8951 23.9653 22.8951 24.3519C22.8978 26.3803 22.4012 28.2879 23.2695 30.2186C23.7675 31.3244 24.7796 31.9621 24.9248 33.3121C25.2219 36.0731 23.3306 38.4963 23.5694 41.1814C23.6236 41.7865 23.7227 42.1352 24.1826 42.5354L24.1881 42.5395Z" fill="currentColor"/>
</svg>
