<svg width="118" height="197" viewBox="0 0 118 197" fill="none" xmlns="http://www.w3.org/2000/svg">
<path d="M115.819 159.903C118.215 164.654 117.936 169.128 114.733 173.502C112.967 175.916 111.012 178.052 108.656 179.895C107.174 181.054 105.338 181.12 103.729 181.889C102.237 182.604 101.36 183.609 100.849 184.981C99.5785 188.402 96.717 189.845 93.5348 190.354C89.291 191.033 85.0259 191.036 80.9302 189.051C79.1335 188.182 77.0251 187.95 75.0499 187.458C73.6706 187.114 72.3759 187.663 71.1085 188.025C67.1399 189.163 63.746 191.404 60.458 193.815C58.7852 195.039 57.0308 196.038 54.8317 195.848C53.9182 195.77 53.1348 196.222 52.2939 196.466C50.7421 196.919 49.0089 197.13 47.4117 196.937C45.5484 196.708 43.6942 196.074 41.9398 195.362C40.261 194.68 40.028 191.73 41.6433 190.641C44.281 188.861 45.8479 186.188 48.0167 183.832C51.7101 181.832 51.3405 182.278 52.9745 181.437C55.4276 180.345 58.1833 179.808 60.0798 177.654C58.7519 180.505 56.0205 181.434 53.3677 182.278C50.4759 183.199 48.0984 184.613 46.3682 187.172C45.1431 188.985 43.1346 190.14 41.967 192.047C41.1351 193.401 41.5949 194.092 43.0287 194.729C47.7989 196.856 52.5026 195.293 57.179 194.578C59.0091 194.297 60.5033 192.78 61.9281 191.558C64.9922 188.93 68.1048 186.351 70.8484 183.367C72.14 181.962 73.3711 180.393 73.486 178.556C73.6827 175.4 69.956 172.594 66.792 173.279C65.8634 173.481 64.8319 173.768 64.1301 174.353C60.5094 177.379 56.1687 178.64 51.7101 179.699C45.5514 181.162 39.7566 180.723 33.3654 179.137C31.1703 178.021 30.8538 179.158 30.1248 178.419C32.5417 181.737 35.0975 180.352 37.5053 186.858C38.1103 188.309 38.443 189.772 38.3765 191.347C38.2978 193.229 37.0334 194.512 35.0975 194.566C34.913 194.572 34.6256 194.394 34.55 194.469C31.8639 197.079 29.0871 195.522 26.3103 194.693C23.5637 193.872 20.8413 193.027 19.3471 190.279C19.0506 189.733 18.969 189.078 18.7239 188.502C17.9103 186.58 17.2236 184.583 15.4117 183.274C14.7099 182.767 14.6434 181.98 14.7614 181.174C15.3996 181.838 15.5872 182.882 16.9725 183.518C16.0197 181.919 16.4946 180.164 14.8067 178.966V181.229C12.9404 178.535 13.2066 175.783 14.5375 172.99C14.719 175.895 16.171 178.441 16.7941 181.223C17.52 184.454 18.8268 187.51 20.4179 190.442C21.1317 191.754 21.8365 192.756 23.5546 192.81C24.9068 192.852 25.8293 194.098 27.1966 194.533C28.5789 194.973 30.1247 194.364 31.3376 195.356C31.4586 195.456 31.9335 195.208 32.1906 195.042C33.334 194.306 34.1114 192.94 35.9536 193.646C36.7733 193.959 38.1012 191.793 37.832 190.725C37.4478 189.184 36.982 187.663 36.5404 186.134C35.8568 183.772 34.0509 182.336 32.1271 181.09C30.6691 180.146 29.2474 179.18 28.2371 177.765C27.4204 176.619 26.0834 176.423 24.9915 175.81C22.2751 174.29 19.4681 172.932 16.7124 171.481C16.0227 171.119 15.4087 170.938 14.7372 171.885C14.7372 170.95 14.7372 170.259 14.7372 169.566L14.6979 169.605C16.3978 169.532 17.3779 170.959 18.6816 171.65C25.1518 175.086 31.6159 178.471 38.9996 179.518C44.6924 180.327 50.3005 179.636 55.6636 177.771C58.7489 176.697 61.5741 174.869 64.4931 173.34C67.2276 171.907 70.3523 172.238 72.7813 174.281L72.7329 174.227C72.6482 174.923 73.1231 175.177 73.6131 175.542C78.4529 179.159 82.2188 183.901 87.0042 188.125C84.4602 187.784 83.8553 185.066 81.5473 184.99C79.4239 184.921 77.7239 186.179 75.6972 186.556C78.9822 187.778 82.3398 188.593 85.7186 189.407C89.2425 190.255 92.5941 189.908 95.9426 188.84C98.4593 188.037 99.4878 185.865 100.432 183.675C101.079 182.167 102.128 180.975 103.744 180.854C105.471 180.728 106.841 179.85 108.115 179.014C108.943 178.468 110.459 178.179 110.465 176.646C109.845 176.574 109.279 176.51 108.714 176.444L108.762 176.495C109.137 176.263 109.485 175.964 109.89 175.81C115.429 173.714 117.18 168.196 116.182 162.974C115.991 161.972 115.659 160.998 115.731 159.957L115.807 159.897L115.819 159.903ZM66.3443 189.114C71.5108 187.114 76.1419 185.322 81.1087 184.007C79.2 181.346 77.0735 179.228 74.5357 177.319C74.5145 182.996 69.4539 185.006 66.3443 189.114Z" fill="currentColor"/>
<path d="M54.9467 76.1834C54.6685 74.5965 55.7786 73.4049 56.2263 72.0443C57.1942 69.1059 58.38 66.2219 59.6958 63.4162C61.3958 59.8021 64.1484 57.6029 68.6675 57.9739C67.7842 56.728 66.0903 56.9603 65.6124 55.657C71.5139 57.995 76.3991 61.3558 78.7706 67.6488C79.9109 70.6777 81.2963 73.6462 82.1282 76.7566C83.1899 80.7267 84.418 84.6515 85.274 88.6941C86.0907 92.5435 87.1343 96.3658 87.9087 100.23C89.4846 108.116 90.8821 115.987 89.5542 124.135C88.9311 127.964 89.4241 131.94 89.8325 135.832C89.9505 136.972 90.994 137.615 91.599 138.492C92.1314 139.265 92.6879 140.103 92.3885 140.942C91.8138 142.553 92.8664 142.68 93.8888 142.87C98.3928 143.699 102.691 145.099 106.56 147.579C111.164 150.53 114.688 154.334 115.813 159.906L115.737 159.966C114.636 158.916 114.458 157.393 113.768 156.132C110.014 149.265 103.717 145.956 96.4902 144.167C93.3353 143.386 90.023 143.253 86.7955 142.746C81.7621 141.956 81.5202 142.227 83.1082 147.121C84.1004 150.177 84.1851 153.308 83.5559 156.421C83.4046 157.169 83.4984 158.346 82.2552 158.548L82.2885 158.578C82.6545 156.503 83.45 154.445 83.1445 152.328C82.7755 149.748 82.2703 147.172 81.8257 144.611C81.3508 141.883 78.6828 140.345 78.6435 137.557C78.6435 137.352 78.3955 137.023 78.2019 136.972C77.0887 136.661 76.4112 135.732 75.5612 135.09C72.0493 132.423 69.2029 129.333 68.4649 124.666C68.0111 121.788 68.114 118.904 67.7752 116.041C67.5392 114.041 67.4787 112.083 66.2264 110.213C64.9621 108.327 64.2452 105.983 64.2149 103.651C64.1907 101.896 63.9003 100.248 63.5041 98.556C62.9414 96.1546 62.6511 93.6869 62.2457 91.2463C62.4091 91.2161 62.5755 91.1829 62.7388 91.1527C63.3256 93.6718 63.132 96.399 64.472 98.9904C65.5973 91.6807 67.0129 84.7239 68.6947 77.8124C68.8732 78.1503 68.97 78.4822 68.9095 78.7808C67.5271 85.8009 66.1357 92.815 65.5761 99.9709C65.3704 102.62 64.9016 105.464 66.1629 107.715C68.5375 111.945 69.7686 116.53 71.3687 121.01C71.5714 121.577 71.8588 122.099 71.4595 122.657C69.9803 121.46 70.5127 119.3 69.1848 117.867C67.8357 125.541 71.4232 131.192 77.5334 135.47C78.4076 136.082 79.6508 136.387 79.793 137.79C80.1257 141.054 83.4893 142.607 86.4688 141.259C89.8385 139.735 89.7538 133.988 88.2444 130.395C87.5638 130.975 87.5154 132.009 86.7139 132.498L86.7532 132.534C86.5838 131.792 86.8742 131.21 87.2462 130.564C88.4138 128.534 89.3152 125.994 88.8131 124.027C88.3503 122.217 88.674 120.859 89.0672 119.363C89.533 117.583 89.5814 115.791 89.3788 114.029C89.0611 111.254 88.5772 108.49 88.0145 105.751C87.2704 102.128 86.369 98.5409 85.5644 94.9298C84.79 91.4514 84.2486 87.9067 83.2322 84.5037C82.5789 82.3165 82.0979 80.0781 81.4597 77.8909C79.9563 72.7533 78.2745 67.7484 75.3404 63.2322C71.9707 58.0494 65.1617 58.0493 62.3516 60.9606C59.8289 63.5731 59.1422 67.2355 57.6661 70.4484C56.7828 72.3701 56.4319 74.5482 54.9437 76.1864L54.9467 76.1834ZM90.2469 138.034C89.3031 138.707 89.7599 139.944 88.9795 140.577C88.6225 140.867 88.1839 141.102 88.4562 141.636C88.683 142.082 89.1549 142.176 89.6207 142.143C90.2892 142.095 91.1029 142.426 91.5385 141.648C91.9166 140.972 91.7533 140.297 91.2784 139.69C90.8912 139.198 90.9971 138.42 90.2469 138.031V138.034Z" fill="currentColor"/>
<path d="M36.8098 5.25819C36.5557 7.10447 34.7498 7.59018 33.6609 8.66115C31.3317 10.9509 28.8967 13.1441 26.3437 15.2076C23.0708 17.8533 21.4404 21.4886 20.9141 25.5915C19.9552 33.049 19.6679 40.5578 19.5015 48.0666C19.4803 49.0712 19.2928 49.8435 18.6394 50.6792C16.9636 52.8181 16.4585 55.5242 16.3798 58.0673C16.2679 61.6392 15.7204 65.193 16.1802 68.8313C16.6793 72.7773 17.2661 76.6539 18.5759 80.4128C18.8481 81.1942 18.9873 82.0208 19.1869 82.8232C18.2099 82.1535 17.9588 81.0373 17.6835 80.0357C15.7386 72.9523 14.7071 65.7753 15.8142 58.4233C15.9775 57.3494 16.1318 56.2724 16.2377 55.1923C16.2951 54.6161 16.2921 53.7865 15.3786 54.3144C12.5201 55.9646 9.38937 57.2498 7.59563 60.3269C4.37113 65.8688 2.96457 72.005 1.59128 78.1562C0.650545 82.3768 0.838093 86.5943 2.58041 90.5433C5.9441 98.1697 6.59696 101.578 8.18548 110.997C8.83885 114.889 10.2968 118.008 11.655 119.589C9.44828 111.282 9.99035 103.992 8.80558 95.9645C8.50309 93.91 8.59686 91.8586 8.50309 89.8072C8.40932 87.6894 8.17641 85.5716 8.17338 83.4538C8.17036 81.517 7.85577 79.5168 8.67854 77.6555C8.89935 77.9934 8.89632 78.3101 8.89935 78.6299C8.94472 85.2457 9.14133 91.8586 9.69186 98.4503C9.95805 101.636 10.678 104.795 10.805 107.983C10.9472 111.522 11.7246 114.961 12.2842 118.409C12.7651 121.378 13.5455 124.371 14.5105 127.297C15.0791 129.029 16.3526 130.561 16.28 132.504L16.3193 132.471C14.2987 130.516 14.0537 127.659 12.7288 125.291C12.1148 129.566 11.2406 133.708 10.3089 137.829C9.2835 142.375 8.24295 146.912 8.12498 151.585C7.97072 157.631 9.56482 163.122 13.5062 167.849C13.9448 168.374 15.0307 168.54 14.7071 169.602L14.7464 169.562C12.8317 169.164 12.0876 167.457 11.1226 166.114C10.4844 165.227 10.0427 165.336 9.33493 165.746L9.24116 165.638C9.53154 164.274 9.30468 162.989 8.79046 161.698C6.98764 157.178 7.03301 152.493 7.53211 147.745C8.28228 140.565 11.0319 133.807 11.9303 126.672C12.1753 124.721 12.2086 122.808 10.8988 120.983C7.89812 116.802 7.30222 111.812 6.63373 106.894C6.27679 104.276 5.24229 101.853 4.55262 99.3372C3.26403 94.631 1.64573 90.0123 0.26034 85.3302C-0.199439 83.7766 0.0274253 82.1535 0.345036 80.5576C1.2283 76.0747 1.88772 71.5766 3.65726 67.2686C4.81881 64.4449 5.89567 61.6513 7.51699 59.0327C9.25024 56.2331 12.0119 55.0204 14.7494 53.7503C15.9291 53.2043 16.5523 52.435 17.2782 51.3881C19.2958 48.495 19.0145 45.3033 18.9268 42.1507C18.7422 35.5228 19.3714 28.9552 20.6358 22.4902C21.2922 19.1295 23.3612 16.2756 26.1471 14.1457C29.5924 11.512 32.8381 8.65813 35.9416 5.63831C36.1564 5.43015 36.5194 5.37584 36.8128 5.25215L36.8098 5.25819Z" fill="currentColor"/>
<path d="M72.7874 36.1956C72.5666 35.0492 73.5739 34.9979 74.2061 34.7204C75.3676 34.2105 75.5219 33.5197 74.9563 32.4487C74.1577 30.9312 73.0415 29.622 72.3337 28.0291C71.6924 26.578 71.4202 25.2506 72.0857 23.7935C73.4166 20.8792 72.6664 18.0978 71.5775 14.9754C69.8987 17.9499 69.0305 20.9426 67.5514 23.6547C65.7637 26.931 64.215 30.3399 62.5604 33.6886C62.276 34.2618 61.9493 34.8048 61.9524 35.4836C61.9735 38.9529 61.9917 42.4192 61.9826 45.8886C61.9826 46.7333 62.2186 47.1466 63.1744 47.2099C64.1847 47.2763 65.1739 47.6142 66.1721 47.8314C68.8551 48.4076 70.3615 47.2672 70.4099 44.534C70.428 43.5958 70.6277 42.8175 71.1964 42.0452C72.0494 40.8837 71.9526 40.7057 70.6337 40.0179C71.402 39.2727 73.217 39.3361 72.5817 37.5079C73.6737 37.6376 73.3259 38.3435 73.102 38.9228C72.8782 39.502 72.7663 40.1747 72.5454 40.6574C71.6622 42.561 71.3597 44.5672 70.8878 46.5643C70.6156 47.7198 69.6174 48.5041 68.111 48.3895C66.3294 48.2568 64.5205 48.5011 62.8084 47.7409C62.3275 47.5267 61.7769 47.4814 61.4079 47.9822C61.0479 48.4679 61.2567 48.9054 61.5501 49.385C62.2821 50.5797 62.9203 51.8136 63.1412 53.2435C63.3075 54.3266 64.9349 54.2662 65.0831 55.4488C63.4709 54.5951 61.6771 54.0219 60.5126 52.4833L60.4641 52.5346C61.0026 52.6402 61.541 52.7427 62.1762 52.8664C62.0855 50.2901 60.0346 48.9687 58.746 47.2763C56.8494 44.7904 54.605 42.5701 52.542 40.2109C52.2244 39.8489 52.0701 39.3421 52.1246 38.6844C54.8137 41.6861 57.5028 44.6849 60.4127 47.9309C59.4629 43.0286 58.5736 38.4461 57.6843 33.8636C59.3812 38.0026 59.6504 42.4856 60.9874 46.7212C61.5743 42.6425 60.8695 38.5969 60.815 34.5454C60.7636 30.4455 60.0649 26.3608 60.5851 21.6697C60.9753 25.9626 61.3141 29.6793 61.6832 33.7158C63.1321 30.8588 64.5023 28.2523 65.7819 25.6066C67.4667 22.1192 69.1667 18.6438 70.6458 15.0568C71.3567 13.3372 71.7166 11.5151 72.4819 9.82869C72.739 9.26455 72.7723 8.8603 72.0947 8.62197C67.3336 6.93558 63.3499 3.57486 58.498 2.163C54.5082 1.00153 50.47 0.244306 46.1747 1.22778C43.295 1.88846 40.9568 3.48737 38.3101 4.50705C38.9755 2.60948 40.8691 2.31383 42.3513 1.70444C50.9328 -1.81919 58.7279 0.515818 66.1993 5.10136C67.6482 5.99132 69.0789 6.94463 70.8092 7.36095C72.5394 7.78029 73.8855 8.7698 72.7874 10.7609C71.4928 13.1049 72.5333 15.3374 72.8903 17.5608C73.22 19.6212 73.4227 21.6425 72.7995 23.6185C71.9133 26.4302 73.3591 28.5299 74.678 30.717C76.6169 33.936 76.2902 34.8561 72.7814 36.2076L72.7874 36.1956Z" fill="currentColor"/>
<path d="M9.33191 165.752C7.69244 168.181 7.12074 170.811 7.75898 173.698C8.43655 176.758 9.86731 179.31 12.5564 181.05C13.0041 181.34 13.9055 181.425 13.476 182.152C13.2279 182.574 12.4233 182.429 11.894 182.073C10.0821 180.86 8.82978 179.077 7.93442 177.228C6.86362 175.023 6.18907 172.573 6.60046 170.009C6.89084 168.193 7.63496 166.666 9.23814 165.647L9.33191 165.755V165.752Z" fill="currentColor"/>
<path d="M55.0224 76.1049C54.6746 78.6088 53.0321 80.5003 51.6921 82.4462C49.8348 85.1462 47.6629 87.6502 45.352 90.0123C42.0307 93.4062 38.8667 96.9329 34.7589 99.4911C33.6881 100.158 32.6475 100.888 31.4981 101.419C29.665 102.264 28.2282 101.856 26.9729 100.233C25.8597 98.7942 25.5589 98.3508 24.7741 96.9633C24.6466 96.6688 24.3752 96.2194 23.678 94.972C22.8288 93.4525 22.8893 93.536 22.4961 92.6369C21.6854 90.7846 20.533 89.047 20.5209 86.9201C22.1089 89.4542 22.8349 92.3926 24.3171 94.972C25.4 96.8575 26.5464 98.6887 28.2161 100.152C29.1962 101.015 30.1188 101.036 31.1926 100.432C35.9749 97.7354 39.9284 94.0579 43.7942 90.2145C47.2274 86.7994 50.2038 83.0707 52.902 79.0764C53.5796 78.0748 53.6038 76.5845 55.0194 76.1049H55.0224Z" fill="currentColor"/>
<path d="M72.7874 174.284C73.8431 172.854 75.6066 173.216 76.992 172.86C79.9805 172.094 82.5214 170.57 84.9958 168.941C88.9009 166.371 92.1889 163.079 95.1623 159.477C95.4497 159.13 95.737 158.771 96.5386 158.753C92.8906 164.153 88.2535 168.202 82.6394 171.553C87.7544 172.857 92.9693 172.64 97.8968 174.088C94.3214 173.931 90.7702 173.708 87.2462 172.935C83.9733 172.217 80.6551 171.87 77.4699 173.493C75.9938 174.247 74.2666 173.644 72.739 174.226L72.7874 174.281V174.284Z" fill="currentColor"/>
</svg>
