<svg width="128" height="210" viewBox="0 0 128 210" fill="none" xmlns="http://www.w3.org/2000/svg">
<path fill-rule="evenodd" clip-rule="evenodd" d="M111.974 158.636C112.667 156.949 113.771 154.233 113.942 152.464L113.944 152.469C113.984 152.048 113.967 151.599 113.949 151.149C113.933 150.746 113.917 150.343 113.944 149.959C113.774 149.981 113.732 150.367 113.706 150.602C113.701 150.651 113.696 150.693 113.691 150.724C113.605 151.268 113.535 151.754 113.469 152.203C113.168 154.271 112.983 155.542 111.975 157.963C108.019 167.467 102.098 174.324 92.6261 178.638C87.9363 180.775 82.877 181.592 77.8287 182.408C76.1953 182.672 74.563 182.935 72.9447 183.243C71.8249 183.457 70.7131 183.71 69.6014 183.964C67.9897 184.333 66.3781 184.701 64.7417 184.945C54.996 186.398 43.5082 185.349 36.1328 178.176C35.9333 177.982 34.6186 176.459 34.5752 176.347C34.5087 176.175 34.5996 176.093 34.7746 176.147C34.9941 176.215 35.512 176.558 36.003 176.884C36.3437 177.11 36.6714 177.327 36.8776 177.438C47.7074 183.245 62.5898 181.341 74.3761 179.655C77.9078 179.149 81.4259 178.455 84.9115 177.708L85.0583 177.676C95.2636 175.488 100.791 174.302 106.945 165.28C112.883 156.575 111.698 149.901 110.035 140.537C109.939 139.999 109.842 139.453 109.744 138.896C109.614 138.152 109.503 137.389 109.391 136.619C109.173 135.125 108.952 133.611 108.586 132.185C105.958 121.956 106.203 125.025 108.049 133.261C109.245 138.601 110.731 146.258 110.966 151.645C111.288 159.033 106.514 167.685 100.419 171.775C94.63 175.658 81.9659 177.677 74.9175 178.7C62.5708 180.492 46.6071 182.664 35.6158 175.709C34.4056 174.944 30.9106 172.571 30.1725 171.519C29.729 170.886 29.3484 169.618 29.0718 168.696C29.0261 168.544 28.9831 168.4 28.9432 168.271C27.5186 163.652 26.2148 159.204 26.0262 154.363C26.0245 154.324 26.0296 154.274 26.0349 154.221C26.0517 154.056 26.071 153.866 25.8919 153.891C25.3681 156.021 25.5649 158.182 26.0642 160.296C26.5057 162.165 27.0582 164.034 27.6111 165.905C28.1471 167.719 28.6835 169.535 29.1196 171.351C29.609 172.598 30.7854 173.403 31.9223 174.181C32.6986 174.712 33.4565 175.23 33.9647 175.868C34.1956 176.158 34.3646 176.496 34.5368 176.839C34.7066 177.178 34.8795 177.523 35.1179 177.835C35.9198 178.888 37.0689 179.861 38.0987 180.689C37.7121 180.697 37.0337 180.372 36.7365 180.151C36.2741 179.807 35.576 179.01 34.914 178.253C34.4766 177.754 34.0549 177.272 33.7272 176.951C33.0151 176.238 33.9395 177.673 34.2674 178.182C34.3084 178.246 34.3401 178.295 34.3581 178.324C34.5806 178.676 34.97 179.321 34.913 179.668C34.7921 179.572 34.7001 179.752 34.6048 179.939C34.5517 180.043 34.4975 180.149 34.4368 180.21C34.354 180.292 32.3759 180.895 32.2049 180.884C31.6149 180.844 31.2394 180.011 30.9297 179.324C30.8171 179.074 30.7131 178.844 30.6107 178.678C29.803 177.371 28.2486 176.542 26.7532 175.744C25.1036 174.864 23.5258 174.022 23.101 172.62C22.793 171.606 23.2882 168.217 23.489 167.026C23.7685 165.365 24.2637 163.896 24.7843 162.352C24.8803 162.068 24.9772 161.78 25.0737 161.489L23.7181 163.523C22.8565 166.216 22.4538 169.646 22.9029 172.477C21.7512 170.834 21.0088 168.965 20.2666 167.098C19.8276 165.993 19.3886 164.888 18.8651 163.831C18.4994 162.12 19.7375 160.482 20.9172 158.921C21.5098 158.137 22.0877 157.373 22.4401 156.628C22.859 155.746 23.0276 154.692 23.1915 153.668C23.2687 153.186 23.3448 152.71 23.4456 152.261C23.2902 152.325 23.1912 152.667 23.1224 152.904C23.1065 152.959 23.0923 153.008 23.0793 153.047C22.946 153.446 22.8347 153.855 22.7234 154.264C22.5491 154.905 22.3745 155.547 22.1146 156.153C21.7603 156.979 21.1142 157.886 20.4522 158.815C19.4004 160.29 18.3084 161.823 18.2817 163.181C18.2629 164.172 18.8148 165.289 19.3127 166.297C19.4972 166.671 19.6742 167.029 19.8122 167.361C19.9823 167.769 20.154 168.205 20.3315 168.655C21.1863 170.824 22.177 173.339 23.7834 174.787C24.5645 175.491 25.5626 175.958 26.5661 176.428C27.672 176.946 28.7845 177.467 29.6203 178.311C29.9197 178.613 30.1829 179.089 30.4499 179.572C30.886 180.36 31.3323 181.167 31.9634 181.267C32.6117 181.369 33.0143 181.155 33.4114 180.944C33.6375 180.825 33.8619 180.706 34.1288 180.646C34.2835 180.613 35.4503 180.516 35.5195 180.545C35.6684 180.606 36.2999 181.344 36.7111 181.824C36.8433 181.979 36.9527 182.107 37.016 182.177C38.1457 183.428 39.348 184.439 40.5433 185.444C41.49 186.24 42.4322 187.033 43.3305 187.938C43.9389 188.55 44.417 189.254 44.8943 189.958C45.5517 190.926 46.2078 191.892 47.2013 192.615C47.8455 193.083 48.5693 193.492 49.3004 193.905C50.1893 194.407 51.0891 194.915 51.87 195.544C52.9022 196.376 53.7843 197.406 54.6631 198.431C55.3183 199.195 55.9716 199.958 56.6838 200.634C58.6226 202.478 66.1012 208.257 68.4579 208.669C69.328 208.821 69.5277 208.618 69.8044 208.337C69.9778 208.16 70.1813 207.953 70.5989 207.783C71.5825 209.378 73.1645 209.557 74.9433 209.384C75.1192 209.367 75.2818 209.29 75.4252 209.222C75.5516 209.162 75.6632 209.109 75.756 209.11C75.8517 209.112 75.9938 209.227 76.1659 209.366C76.384 209.543 76.6503 209.758 76.9309 209.831C77.9593 210.099 78.3585 209.863 78.8304 209.584C79.0813 209.436 79.3528 209.276 79.7503 209.173C79.9381 209.124 80.1222 209.118 80.305 209.111C80.4868 209.104 80.6674 209.098 80.8493 209.051C81.9021 208.779 82.6945 208.041 82.8899 206.954C86.4093 206.825 86.2411 202.86 84.9386 200.468C84.619 199.882 84.1481 199.403 83.6887 198.937C83.401 198.644 83.1178 198.356 82.879 198.05C82.3448 197.362 81.8823 196.721 81.4499 196.122C79.7 193.697 78.4412 191.953 74.9066 190.555C73.7312 190.09 72.6084 189.741 71.5165 189.401C69.1096 188.653 66.8527 187.951 64.5137 186.159C64.4856 186.137 64.4584 186.119 64.4329 186.102C64.3208 186.027 64.2443 185.975 64.2885 185.775C66.653 185.449 68.9999 184.963 71.3475 184.477C72.7381 184.189 74.129 183.901 75.524 183.646C84.3796 182.028 93.6776 180.49 102.615 179.531L105.192 178.584C103.378 178.678 101.084 178.981 99.195 179.23C99.0722 179.246 98.9511 179.262 98.8319 179.277C97.4061 179.465 95.9876 179.719 94.5691 179.972C92.7104 180.305 90.8516 180.637 88.9763 180.82C89.4401 180.632 89.9138 180.458 90.3881 180.283C91.0337 180.045 91.6804 179.807 92.3045 179.534C93.3723 179.069 94.5961 178.488 95.5269 177.866L97.8741 176.553L106.344 177.903C106.227 177.698 105.849 177.595 105.559 177.517C105.487 177.497 105.42 177.479 105.363 177.461C104.693 177.246 104.007 177.079 103.321 176.912C102.926 176.816 102.531 176.719 102.14 176.614L98.2051 176.006C99.8604 175.195 101.301 173.897 102.597 172.595C106.606 168.573 109.811 163.889 111.974 158.636ZM106.751 181.446L106.618 181.856C106.429 182.39 106.302 182.945 106.175 183.5C106.075 183.94 105.974 184.38 105.842 184.81C105.818 184.888 105.757 185.008 105.688 185.14C105.492 185.523 105.536 186.148 105.962 186.059C107.025 183.721 107.504 180.334 108.029 177.461C108.726 173.657 109.153 170.344 110.874 168.991C111.085 168.825 111.155 168.777 111.297 168.677C111.409 168.6 111.565 168.491 111.869 168.271C112.311 167.879 113.138 167.381 113.674 167.404C114.244 167.062 120.148 165.805 120.81 174.654C121.359 181.998 120.245 188.398 118.121 197.882C117.716 199.295 117.293 200.903 116.672 202.123C116.187 203.075 115.643 203.938 115.273 204.955C115.27 204.963 115.233 205.041 115.229 205.05C115.178 205.19 115.201 205.49 115.436 205.461C116.98 202.725 118.265 200.124 119.034 197.052C120.215 192.34 121.012 186.629 121.273 181.788C121.289 181.486 121.307 181.177 121.325 180.862C121.602 176.078 121.952 170.007 117.84 166.902L116.252 166.253C123.168 166.268 123.094 174.104 123.044 179.248C123.043 179.374 123.042 179.499 123.041 179.621C123.037 180.023 123.076 180.403 123.111 180.743C123.139 181.026 123.165 181.281 123.162 181.496C123.151 182.144 122.768 183.635 122.589 184.327C122.428 184.947 122.215 185.56 122.001 186.173C121.718 186.986 121.435 187.8 121.272 188.639C121.415 188.662 121.444 188.528 121.471 188.398C121.481 188.351 121.491 188.305 121.506 188.267C121.924 187.203 122.409 185.827 122.723 184.734C124.445 178.75 124.522 161.873 114.043 166.42C113.686 166.574 113.342 166.689 113.012 166.799C112.173 167.079 111.428 167.327 110.826 168.112C109.935 169.01 109.724 169.466 109.459 170.038C109.424 170.114 109.388 170.192 109.35 170.273C108.369 172.34 107.659 175.856 107.202 178.166C106.989 179.244 106.817 180.347 106.751 181.446ZM40.0339 182.306C39.7521 182.132 39.471 181.959 39.1665 181.788C38.813 181.588 38.4473 181.411 38.0827 181.235C37.4542 180.931 36.8278 180.628 36.2671 180.21C36.1234 180.366 36.3963 180.668 36.5509 180.839C36.5773 180.868 36.6003 180.894 36.6171 180.914C37.8245 182.346 39.3384 183.568 40.8391 184.78C41.7652 185.528 42.6863 186.272 43.5272 187.059C44.4171 187.891 44.8568 188.529 45.3908 189.305C45.5879 189.591 45.7979 189.896 46.0481 190.236C47.0629 191.617 48.649 192.654 50.155 193.456C50.1967 193.478 50.2355 193.502 50.2734 193.526C50.4043 193.609 50.5242 193.684 50.7167 193.639C48.5405 190.92 46.428 188.046 45.3602 184.683C44.9106 184.516 44.4466 184.365 43.9805 184.213C43.0964 183.926 42.205 183.635 41.3903 183.231C41.2953 183.184 41.2531 183.103 41.222 183.043C41.2042 183.009 41.1901 182.982 41.1718 182.972V182.973C40.7574 182.751 40.3949 182.528 40.0339 182.306ZM82.5059 205.946C83.5072 206.699 84.4149 206.446 85.1014 205.437C86.1285 203.93 85.0499 201.573 84.0133 200.302C83.7449 199.973 83.4313 199.711 83.1157 199.447C82.8472 199.222 82.5773 198.996 82.3322 198.727C81.7451 198.081 81.2752 197.341 80.8041 196.6C80.3161 195.832 79.8269 195.062 79.2049 194.392C77.0798 192.105 74.2512 191.264 71.4083 190.419C69.0766 189.726 66.7352 189.03 64.7647 187.531C64.4027 187.255 64.0709 186.949 63.739 186.643C63.5299 186.45 63.3207 186.257 63.1041 186.072C57.2808 186.565 51.2974 186.472 45.698 184.687L47.1335 187.253C51.1726 193.461 55.9037 199.15 61.8572 203.599C63.1773 204.585 67.481 207.797 68.8649 207.992C69.6179 208.099 71.3478 207.194 71.6653 206.516C71.8308 206.165 72.0004 205.214 71.7155 204.934C71.668 204.888 70.6192 204.511 70.4618 204.492C69.8579 204.421 69.4769 204.557 68.9441 204.748L68.8975 204.764C69.4185 203.91 70.474 203.765 71.3736 204.097C71.4291 204.118 71.4524 204.187 71.4725 204.247C71.4902 204.3 71.5053 204.345 71.5378 204.343C71.5832 204.339 71.6365 204.312 71.6929 204.283C71.7695 204.245 71.8519 204.204 71.9285 204.212C71.9439 204.214 71.9757 204.257 72.023 204.321C72.1846 204.538 72.5276 204.999 73.0166 204.907C73.0549 204.9 73.0672 204.861 73.0821 204.815C73.1062 204.74 73.1372 204.643 73.2975 204.621C73.5542 204.586 73.8088 204.635 74.0428 204.68C74.2182 204.714 74.382 204.746 74.5267 204.739C74.7721 204.725 75.0215 204.671 75.2736 204.616C75.5637 204.553 75.8574 204.489 76.1521 204.486C78.1507 204.466 80.4477 206.412 80.0217 208.568C80.8751 208.581 82.0975 208.388 82.2983 207.382C82.4388 206.679 82.064 206.471 81.6105 206.219C81.4246 206.116 81.2255 206.005 81.0433 205.85C80.1112 205.059 78.8073 203.846 78.6649 202.596C78.5523 202.496 78.1961 202.854 77.7925 203.26C77.3201 203.736 76.7829 204.277 76.4954 204.223C76.3643 204.097 76.8162 203.679 76.9901 203.518C77.0087 203.501 77.0242 203.486 77.0354 203.476C77.1668 203.351 77.577 203.054 77.9659 202.773C78.3641 202.485 78.7398 202.214 78.7707 202.16C78.876 201.973 78.8556 201.303 78.8458 200.982C78.8451 200.96 78.8445 200.939 78.844 200.921L79.8195 199.069C79.846 199.399 79.7134 199.728 79.5816 200.054C79.4842 200.296 79.3872 200.537 79.3555 200.776C79.039 203.137 80.2861 204.083 81.8584 205.275C81.9917 205.376 82.1272 205.478 82.2644 205.584C82.3281 205.633 82.3685 205.715 82.4056 205.791C82.4373 205.855 82.4665 205.915 82.5059 205.945V205.946ZM74.7316 205.307C75.5172 205.47 76.3692 206.637 76.3692 207.412C76.3692 207.722 76.2979 207.967 76.2387 208.17C76.0947 208.664 76.0234 208.909 77.2335 209.25C77.8115 209.413 79.213 209.386 79.5495 208.838C80.2197 207.749 77.338 205.159 76.2932 205.034C75.9635 204.995 75.2594 204.995 74.931 205.037C74.7424 205.062 74.5362 205.112 74.7302 205.307H74.7316ZM75.6583 208.679C75.7533 208.136 75.8211 207.087 75.5307 206.612C75.14 205.976 73.1442 205.053 72.4794 205.568C72.3658 205.656 72.2514 205.913 72.1163 206.217C71.8512 206.814 71.5064 207.59 70.9313 207.618C72.1144 208.899 74.0234 209.28 75.6569 208.677L75.6583 208.679Z" fill="#6572A4"/>
<path d="M91.9473 42.5395C91.3734 43.0374 90.6516 42.9248 89.9094 42.8C88.9054 43.6534 89.1008 45.173 88.5459 46.2611C88.2121 46.9164 87.512 47.2692 87.2135 47.778C86.915 48.2868 86.7929 49.128 86.4605 49.7385C85.9911 50.6001 85.0617 51.1713 84.7089 51.9202C84.192 53.0178 84.7409 54.1192 84.4452 55.2616C84.2878 55.8667 83.9044 56.2741 83.6086 56.7883C89.1863 59.6674 95.0869 62.2656 99.7569 66.5571C106.708 72.9475 109.941 88.0565 112.412 97.0478C113.886 102.415 115.843 108.146 116.92 113.569C117.836 118.182 115.926 122.696 114.882 127.137C114.387 129.243 112.579 135.372 111.729 137.351C111.439 137.646 111.525 137.426 111.576 137.199C112.029 135.222 113.882 129.354 114.31 127.378C115.242 123.065 117.056 119.053 116.542 114.489C113.16 103.157 110.858 91.1934 106.64 80.1601C105.615 77.4805 104.408 74.3477 102.983 71.877C97.5033 62.3728 81.9004 57.2455 72.2104 53.2634C71.9702 53.1644 71.7016 52.7899 71.5347 52.9893C72.0747 53.7681 73.0298 54.4927 73.2998 55.3651L73.8398 55.0937C73.8425 55.2402 73.7937 55.403 73.9253 55.5143C74.6349 56.1167 77.3593 56.3636 78.1829 57.1967C78.2019 57.3052 78.0675 57.2686 77.9793 57.2673C75.9483 57.2361 71.1412 55.2185 68.7207 54.7206C65.2474 54.0056 61.6954 53.9201 58.1908 53.4466C54.3566 52.9283 50.7543 52.0008 46.8699 51.8868C35.4934 51.5517 23.133 54.5762 13.31 60.4035C9.01038 62.9543 7.01695 66.6115 5.40782 71.1824C5.16903 71.8595 4.79538 73.3504 4.65563 73.8904C4.27209 75.3751 3.92707 76.0869 3.69361 77.5856C3.64206 77.6453 3.41424 78.9226 3.36675 79.1505C2.19315 84.8246 1.30975 90.5288 0.978695 96.3724C0.7494 100.413 2.26134 104.95 3.02249 108.924C3.99258 113.986 4.60041 124.365 7.22577 128.302C8.91224 130.831 12.3577 134.317 14.6221 136.439C15.4593 137.223 25.2074 145.278 25.5548 146.019C25.6199 146.159 25.6511 146.267 25.6253 146.422C25.4232 146.64 14.9654 138.288 14.6221 137.987C11.1827 134.97 5.65115 129.418 4.55081 124.993C3.27138 119.85 3.02987 114.173 2.03264 108.924C1.56591 106.467 0.397731 103.332 0.17115 101.016C-0.59407 93.2109 1.36104 85.1896 2.97967 77.6419C4.3188 71.398 5.91572 64.895 11.3075 60.8695C15.3629 57.8425 22.1061 54.7667 27.0054 53.5022C30.9957 52.4724 35.9777 52.2241 39.7279 51.0288C40.2177 50.8728 41.9408 49.9909 42.2976 49.6639C42.9543 49.0601 43.3667 47.9245 43.9271 47.2231C44.1143 47.3126 44.2336 47.6262 44.1847 47.7538C43.8578 48.6004 43.0614 49.8328 42.2976 50.343C41.839 50.6496 41.951 50.4748 41.5955 50.8873C44.9807 50.4762 47.5836 50.5526 50.9443 51.193C53.4055 51.6624 55.8246 52.4154 58.3238 52.7682C59.979 53.0016 61.6764 52.9826 63.3262 53.1929C66.6489 53.6162 69.9757 54.2077 73.1642 55.2253C72.2999 54.3502 71.5971 53.1522 70.494 52.5375C69.0084 51.7086 65.6775 50.5404 63.972 49.9692C60.7714 48.8987 57.6196 48.6558 54.3064 48.1701C54.2738 47.934 54.6144 48.0426 54.7785 48.0358C57.0253 47.9517 59.5761 48.166 61.7686 48.645C64.6368 49.2704 67.3463 50.4576 70.0436 51.562C67.87 48.2542 64.5351 46.5908 60.8189 45.5244C57.0918 44.4539 50.5332 44.1093 46.8699 45.4186C45.9337 45.7537 45.1617 46.4131 44.2649 46.8147C45.5186 44.7185 49.114 44.112 51.3893 43.9682C58.2274 43.5367 67.5688 45.1133 70.8631 51.8985C75.0759 53.3543 79.1203 54.7601 83.1743 56.6094C83.8106 55.4737 83.987 54.7064 83.987 53.2616C83.8791 52.3815 84.1109 52.4063 84.1109 51.9202C84.4718 50.9013 85.4853 50.3778 85.952 49.5136C86.2749 48.9166 86.3624 48.0655 86.6555 47.5486C86.8509 47.2053 87.4503 46.8231 87.7108 46.4812C88.6632 45.2275 88.3945 44.2522 89.0186 43.0365C89.7811 41.5495 89.9587 42.6111 91.0753 42.205C91.1747 42.1689 91.4596 42.0869 91.7522 41.9434C91.7603 41.246 92.099 40.7408 91.9375 40.0651C91.9131 39.962 91.8925 39.7595 91.8694 39.6564C91.8111 39.3973 91.635 39.168 91.5671 38.8586C91.0231 36.4124 89.6288 34.6161 90.9218 32.1088C91.2772 31.4182 91.8442 30.8726 92.1576 30.2186C92.8116 28.8524 92.5321 27.1602 92.5443 25.7343C92.5741 22.2175 92.8895 19.8542 91.7363 16.3849C89.2832 9.00139 84.0364 4.61482 76.7207 2.07766C66.7267 -1.38619 55.9407 3.39175 52.4267 13.4102C49.9506 20.4722 52.0094 27.5837 50.9443 34.8357C50.6363 36.9278 49.9052 39.6992 49.1332 41.6706C48.9351 42.1753 48.2715 42.9967 47.9323 43.4214C49.0462 40.0376 50.057 36.6158 50.3717 33.0407C50.8995 27.0316 49.1886 21.595 50.7109 15.4705C53.6972 3.45764 66.8199 -3.23939 78.3185 1.56902C87.9204 5.58371 93.4859 12.5806 93.3882 23.2787C93.3855 23.6342 93.2403 23.9653 93.2403 24.3519C93.2376 26.3803 93.7342 28.2879 92.8659 30.2186C92.3679 31.3244 91.3558 31.9621 91.2106 33.3121C90.9135 36.0731 92.8048 38.4963 92.566 41.1814C92.5117 41.7865 92.4127 42.1352 91.9528 42.5354L91.9473 42.5395Z" fill="#6572A4"/>
<path d="M85.3977 14.3103L80.2865 10.9725H79.6083L79.2433 12.0676L81.0163 21.8208L80.5991 23.6463L77.2611 29.7485L76.8959 31.0003L76.583 34.2339L76.361 35.8003C76.0166 41.0287 76.4163 43.666 78.176 47.8518L78.9621 48.7875L82.4639 50.9377L82.8683 51.0193L79.2139 48.253L78.826 47.7732C76.9584 43.9087 76.5719 41.0992 76.7946 35.8913L77.0702 34.1764L77.3663 31.0003L77.7439 29.7485L81.184 23.6463L81.5004 21.7432L79.8059 12.1785L80.1122 11.5864L85.3977 14.3103Z" fill="#6572A4"/>
<path d="M41.2203 143.713C41.0033 143.956 38.0672 141.996 37.705 141.735C31.9699 137.583 27.7164 131.013 24.2363 124.947L20.5988 116.716C20.6788 119.033 21.5268 121.266 21.6815 123.569C21.7954 125.274 21.6285 126.977 21.8199 128.722C22.3734 133.762 24.452 137.375 26.5279 141.788C27.4857 143.824 29.0854 146.441 26.1602 147.65C26.3773 146.881 27.5414 147.002 27.5088 145.977C27.46 144.433 24.6935 139.899 23.9256 138.149C23.0762 136.213 22.1428 133.728 21.7222 131.669C21.0668 128.457 21.4033 125.194 20.9895 121.954C20.8063 120.521 20.0262 118.154 20.1958 116.79C20.2229 116.572 20.4346 116.495 20.4088 116.173C20.2745 114.507 18.1932 109.578 17.5745 107.594C16.0142 102.596 14.2721 97.5472 12.8231 92.5367C11.6034 88.3184 11.1054 82.9334 10.9562 78.5293C10.8626 75.7778 11.1326 73.0344 11.5057 70.3154C11.739 70.2897 11.6549 70.7835 11.6454 70.93C11.5111 73.052 11.3456 75.1767 11.2357 77.3014C11.8001 82.3514 12.0253 87.3768 13.5042 92.2626C15.0835 97.4794 16.7957 102.73 18.4632 107.927C22.3449 120.022 27.578 132.715 37.8406 140.785C38.5543 141.347 40.6722 142.607 41.0806 143.108C41.2516 143.318 41.238 143.462 41.2176 143.715L41.2203 143.713Z" fill="#6572A4"/>
<path d="M101.325 75.7377C101.382 76.8652 101.695 77.9669 101.853 79.0781C102.408 83.0141 102.88 87.2578 101.774 91.1287C101.048 93.6726 100.199 95.4938 99.4909 98.0526C98.8638 99.3572 97.8175 103.931 97.8854 105.177C97.9424 106.222 98.1009 110.614 98.3369 111.775C98.8891 114.493 100.179 115.608 101.392 118.072L104.31 122.952L103.853 123.07L100.945 118.652L99.157 115.218C100.226 118.286 101.173 121.314 100.609 124.609C100.538 125.022 100.485 125.934 100.039 126.074L100.377 122.748C100.135 118.108 97.5722 114.494 97.3728 109.869C97.2344 106.667 96.4583 104.826 94.3404 102.462C91.0516 98.7906 87.0518 95.4665 83.7535 91.7476C83.0521 90.9566 82.1919 90.0028 81.9219 88.9662C82.0589 88.741 82.2217 89.011 82.3316 89.0992C84.4088 90.8074 86.7411 93.757 88.7044 95.7514C91.0421 98.1258 93.5169 100.343 95.7596 102.807L97.1077 105.177C97.4645 101.61 98.5478 98.3225 99.7295 94.9659C100.008 94.1762 100.464 93.3988 100.744 92.5888C102.268 88.1806 101.86 83.242 101.461 78.6547C101.378 77.7091 101.288 76.7268 101.058 75.8015L101.326 75.7363L101.325 75.7377Z" fill="#6572A4"/>
<path d="M125.298 151.492C127.774 153.626 126.095 157.233 125.793 159.906C126.968 162.498 128.809 165.998 125.546 167.862C125.509 167.33 126.28 167.003 126.544 166.554C127.065 165.666 126.817 163.861 126.396 162.943C125.132 160.186 124.538 158.842 122.078 156.951C121.337 156.381 120.385 156.173 120.052 155.111C120.37 155.059 120.599 155.181 120.872 155.308C121.961 155.811 124.502 157.746 125.208 158.705C125.416 158.988 125.386 159.321 125.612 159.451C125.489 157.512 126.482 155.815 125.954 153.888C125.399 151.865 124.274 151.507 122.391 151.074C122.059 150.998 121.702 151.087 121.372 151.008C120.526 150.808 119.737 150.283 118.838 150.354C118.598 149.479 117.928 148.298 117.394 147.524C116.702 146.518 115.742 145.731 114.963 144.799L115.572 148.532C115.571 152.313 114.926 156.337 112.454 159.317C112.731 158.573 113.225 157.961 113.561 157.237C115.103 153.928 115.66 149.955 114.72 146.398C114.123 144.137 113.376 143.892 112.125 142.209C111.211 140.98 110.609 139.878 110.686 138.287L110.415 138.964C109.737 138.56 110.766 137.797 111.024 137.333C111.518 137.007 110.818 137.854 110.848 138.184C110.887 138.611 111.566 140.047 111.823 140.474C113.731 143.634 116.81 145.106 118.716 148.506C119.111 149.212 119.02 149.861 119.881 150.054C121.589 150.435 123.884 150.277 125.295 151.492H125.298Z" fill="#6572A4"/>
<path d="M103.125 206.459C102.932 206.312 101.127 206.106 100.364 205.734C98.1985 204.681 97.5994 202.31 97.6059 200.075C97.6207 194.507 102.487 192.363 104.598 187.719C104.669 187.958 104.653 188.191 104.555 188.41C104.744 189.166 102.672 192.094 101.294 193.541C99.7879 195.407 99.274 195.575 98.4171 199.101C98.4756 199.168 98.2452 200.721 98.2941 200.819C98.5662 201.364 98.7038 202.341 99.0003 203.047C99.3946 203.984 100.662 205.156 101.644 205.425C102.048 205.536 102.586 205.632 103.024 205.734C104.442 206.066 105.375 207.177 106.799 207.603C108.208 208.025 109.86 207.843 111.238 207.353C113.481 206.56 115.418 204.483 114.894 206.037C114.729 205.925 112.11 207.741 111.559 207.962C111.009 208.184 108.691 208.637 108.087 208.684C105.721 208.312 105.307 207.877 103.125 206.459Z" fill="#6572A4"/>
<path d="M75.8689 19.2758C76.1905 19.5431 76.2841 20.444 76.3139 20.8632C75.8906 20.9311 76.1023 20.7452 76.0494 20.5227C75.7645 19.3016 75.2095 18.9136 73.8663 19.1632C70.952 19.7046 70.4561 23.8258 70.4588 26.31C70.4602 27.7021 71.2504 30.9903 72.4444 31.7908C72.6262 31.9129 73.0273 31.8111 73.2484 31.7908L74.9585 31.0418C74.1621 32.4501 72.3983 33.2886 71.4038 31.5424L69.8042 27.6498L70.8896 36.671C71.1053 38.4633 71.5123 39.6096 72.0455 41.3314C72.0455 42.4661 72.0455 41.859 72.3032 43.3316C72.2706 43.7956 72.1956 43.7974 72.2173 44.2642C72.2241 44.4134 72.0713 44.4969 71.8393 44.4725C71.7091 43.5403 71.4951 42.4971 71.2753 41.6016C71.2549 41.5175 71.1302 41.3475 71.0965 41.2369C69.895 35.3887 68.2565 24.7421 71.0985 20.7384C71.7457 19.8267 73.3589 18.7087 74.4999 18.6992C74.6826 18.6049 75.89 19.1065 75.8676 19.2785L75.8689 19.2758Z" fill="#6572A4"/>
<path d="M54.657 149.545C54.3598 149.513 54.083 149.674 53.7913 149.667C52.4454 149.636 49.8662 149.065 48.3656 148.852C42.4664 148.015 35.7205 146.005 30.4101 149.517C29.3382 150.225 28.5934 151.3 27.1172 151.173L28.7914 150.475C33.9811 145.072 43.0091 147.155 49.6885 148.209C51.0059 148.416 52.8023 148.628 54.041 149.012C54.3001 149.092 54.7031 149.171 54.6583 149.547L54.657 149.545Z" fill="#6572A4"/>
<path d="M102.956 133.81C102.744 134.126 102.163 134.66 101.813 134.782C101.02 135.061 98.1178 135.515 97.2915 135.673C86.3274 137.778 73.5516 132.066 63.924 126.912C61.3325 125.524 58.7343 124.004 56.2812 122.413C56.5295 122.356 56.6571 122.495 56.843 122.596C59.4005 123.972 61.8535 125.593 64.4192 126.959C70.2411 130.059 76.5908 132.488 83.0341 133.987C89.4625 135.482 96.6574 136.153 102.954 133.81H102.956Z" fill="#6572A4"/>
<path d="M88.1669 142.221C88.1994 142.429 87.9132 142.381 87.7598 142.421C85.5917 142.977 81.2759 144.074 79.0793 144.483C67.4558 146.648 57.3356 145.19 46.4868 140.417L44.6172 139.372C45.5289 139.544 46.4328 140.05 47.2903 140.417C57.7537 144.883 69.5011 145.655 80.6674 143.613C83.153 143.159 85.6582 142.407 88.1669 142.055V142.221Z" fill="#6572A4"/>
<path d="M27.1675 153.83C27.409 154.109 28.0141 154.729 28.2828 154.953C29.3261 155.819 31.1456 156.586 32.0261 157.413C32.2405 157.615 32.4304 157.919 32.4006 158.229C32.0655 158.272 31.8172 158.074 31.5458 157.931C29.1457 156.664 25.3345 153.792 24.9736 150.936C24.9003 150.355 24.7674 149.342 25.344 149.004C25.0537 150.753 26.0482 152.538 27.1661 153.83H27.1675Z" fill="#6572A4"/>
<path d="M96.7159 140.186C96.7485 140.432 96.3178 140.546 96.1726 140.524C95.4345 140.409 94.5026 140.146 93.7103 139.987C91.6765 139.581 89.5331 139.317 87.4708 139.087C80.1972 138.274 72.7663 138.885 65.5863 137.535C63.2635 137.098 60.1157 135.981 57.8879 135.206L56.8281 134.351C59.0668 135.057 61.2634 135.957 63.5536 136.511C71.1502 138.346 79.0222 137.619 86.7436 138.421C90.103 138.77 93.4488 139.36 96.7159 140.185V140.186Z" fill="#6572A4"/>
<path d="M99.9718 144.664C100.006 144.904 99.5175 144.973 99.3791 144.943C98.8785 144.834 98.2625 144.76 97.7592 144.664C91.3647 143.437 84.5954 145.756 78.6719 146.832L82.0028 145.756C87.864 144.419 94.0536 142.675 99.9718 144.665V144.664Z" fill="#6572A4"/>
<path d="M55.1921 133.538H53.9376C50.1088 131.591 46.8939 130.372 43.4531 127.772L47.7285 129.808L55.1921 133.538Z" fill="#6572A4"/>
</svg>
