<svg width="250" height="179" viewBox="0 0 250 179" fill="none" xmlns="http://www.w3.org/2000/svg">
<path d="M139.239 0.144531C139.523 1.49783 139.518 2.77547 139.682 4.11445C139.988 6.61247 140.085 9.03397 140.265 11.524C140.882 20.1301 141.405 28.7426 141.833 37.3601L143.507 66.1395C143.682 69.0815 143.881 72.022 144.104 74.9607C144.254 76.8586 144.541 79.6052 144.576 81.451C146.694 79.7417 153.216 74.0472 155.339 77.1924C157.807 80.8503 147.545 89.406 145.415 91.1937C145.46 93.2514 145.733 95.3265 145.756 97.2429C147.171 98.5247 149.056 99.5617 150.832 100.241C151.967 98.1639 156.522 90.1673 155.992 88.2364C155.965 88.1406 155.873 88.0719 155.805 87.9994C155.121 88.1774 152.272 96.0588 151.279 97.2806C150.781 97.3483 150.655 96.706 150.641 96.3152C150.517 93.0212 151.572 89.6565 153.747 87.1694C154.545 86.2552 156.347 84.8457 157.459 85.8479C158.691 86.9594 157.902 90.3956 157.551 91.7432C156.559 95.5499 154.199 97.6985 151.705 100.539C157.909 103.519 166.844 102.725 173.587 102.547C176.915 102.459 181.733 100.813 183.213 104.985C183.236 105.05 183.259 105.115 183.281 105.18C182.484 107.4 179.795 109.423 177.526 109.928C179.964 110.635 180.119 111.314 180.205 113.727C183.696 111.789 186.315 115.097 185.834 118.575C185.656 119.866 182.378 121.506 181.198 122.389C180.991 123.015 180.825 123.619 180.453 124.167C178.933 126.401 176.256 127.339 173.637 127.269C171.949 127.225 170.52 128.244 168.984 128.919C168.981 130.436 169.076 131.986 167.91 133.139C166.162 134.866 162.415 135.839 160.005 135.801C156.846 135.751 153.565 134.556 150.438 134.918C145.989 135.433 141.174 137.913 136.961 137.821C134.833 137.775 132.894 136.976 130.819 136.662C128.369 136.29 116.711 135.475 114.462 135.993C112.571 136.429 110.477 137.56 108.913 138.706C108.066 139.326 107.278 140.017 106.353 140.521C104.716 141.414 102.851 141.905 101.119 142.587C101.153 145.961 100.966 149.335 100.558 152.686C99.8838 158.122 97.3115 169.918 93.5695 173.644C93.2646 173.945 92.9164 174.2 92.5366 174.398C92.3204 174.069 92.4095 174.092 92.1113 173.985L91.9153 173.933C89.3686 175.793 89.0124 173.875 86.5196 173.986C84.9554 174.055 82.7209 175.321 81.1919 175.785C79.0541 176.662 74.8766 177.707 73.1015 179H70.5756C71.4179 178.347 72.8337 177.526 73.7725 177.028C74.9 176.424 76.0551 175.872 77.2339 175.376C80.009 174.223 83.1497 173.462 85.9104 172.171C86.2321 172.02 86.9594 171.917 87.3243 171.899C88.9171 171.824 90.2757 172.49 91.717 173.036C91.8861 173.099 92.2237 173.178 92.3775 173.054C93.0821 172.485 93.8745 170.694 94.2434 169.863C96.9063 163.868 98.1411 156.666 98.7833 150.156C99.0101 147.857 98.8149 145.498 99.1941 143.294L98.3612 144.045C97.3515 150.983 97.374 161.162 93.1915 167.403C92.9017 167.835 92.3337 167.995 91.8439 168.138C91.3931 167.673 90.7952 167.425 90.3652 166.918C88.7748 165.039 88.4936 158.53 88.2601 156.056C88.1158 154.527 87.8971 152.988 87.84 151.453C87.7182 148.177 87.6824 144.794 87.9697 141.529C88.3647 137.04 89.5954 124.384 92.969 121.63C93.3221 121.342 93.7174 121.104 94.1889 121.146L94.2883 121.271L94.171 121.679L94.2315 121.77C95.2877 121.682 94.5079 120.957 96.3857 121.324C95.5072 120.093 94.8191 119.593 93.4258 119.033C91.3523 119.821 91.1581 121.183 89.7989 122.725C89.165 123.527 87.5483 124.204 87.0315 125.027C82.9564 131.511 80.1467 138.827 76.7051 145.608C75.1222 148.762 73.4029 151.845 71.5518 154.85C70.5364 156.479 69.006 158.597 68.1217 160.149L68.1877 160.117C69.0235 159.699 69.6324 159.259 70.4052 158.725C69.8966 159.409 67.5627 161.602 66.7056 161.062C66.6392 160.503 67.9498 158.914 68.3303 158.37C69.2483 157.07 70.1258 155.742 70.9616 154.387C73.1588 150.81 75.1454 147.108 76.9113 143.298C78.9839 138.894 80.8431 134.362 83.2007 130.102C84.1538 128.38 85.0932 126.994 86.1937 125.368C81.6049 128.176 75.2836 129.771 69.9074 130.031C69.639 129.827 68.1031 129.947 67.6341 129.958C70.7276 127.579 75.3662 127.179 79.205 126.07C81.7479 125.328 84.1872 124.268 86.4648 122.915C88.6204 121.628 90.1453 119.257 92.2273 118.246C93.5178 117.619 97.5009 118.142 97.3875 120.169C97.3641 120.587 96.8833 120.952 96.6079 121.221C97.6237 120.752 98.5973 120.195 99.5176 119.559C99.6393 118.21 99.7288 116.814 99.8331 115.461C98.1905 114.101 96.4509 113.002 95.1111 111.236C93.3704 108.944 93.2216 106.266 90.6214 104.584C91.3002 103.793 92.076 103.012 92.8192 102.283C97.0232 106.644 95.0216 109.182 101.707 112.959C102.728 111.365 103.908 109.329 105.305 108.035C106.229 107.18 108.069 105.368 109.061 104.754C110.285 103.995 113.292 103.925 114.654 104.355C116.78 103.601 117.736 103.488 119.836 104.163C119.707 103.63 119.723 103.412 119.731 102.857C117.125 101.584 114.959 99.3151 112.505 97.7808C111.745 97.3058 109.877 96.3413 109.021 96.9004L109.004 97.1094C109.946 98.9871 113.128 100.023 114.943 100.934C112.499 100.724 111.389 100.553 109.141 99.4834C106.45 98.2026 105.303 93.2833 109.494 94.2449C112.39 94.9095 114.787 96.4303 117.151 98.1706C116.258 97.0039 114.711 95.5886 113.648 94.4994C111.629 92.4272 109.627 90.4005 107.495 88.4425C108.092 87.9984 109.179 87.0039 109.696 86.469C113.085 90.1219 117.066 93.2717 119.891 97.4548C120.542 98.4192 120.778 99.347 121.299 100.273L121.292 100.549L121.576 100.706C121.682 100.623 122.116 100.007 122.226 99.851C122.814 99.021 123.369 98.4086 124.12 97.7295L124.385 97.2168L124.29 96.4283C124.213 96.1468 124.398 93.8647 124.431 93.3975C124.494 93.2098 124.633 93.0686 124.76 92.9118C124.745 94.1859 124.665 95.458 124.595 96.7302C125.985 95.637 126.772 95.1369 128.31 94.2536C128.336 85.3758 128.199 76.4987 127.9 67.6263C127.871 66.4049 127.792 65.1851 127.663 63.9701C127.518 62.6417 127.265 61.1116 127.28 59.7926C127.318 56.4109 128.114 52.9909 128.134 49.6055C128.147 47.5501 128.083 45.5044 128.119 43.4463C128.179 40.0524 128.324 36.7477 128.718 33.3781C128.823 32.4814 128.833 31.5295 128.942 30.6251C129.287 33.4715 129.119 36.5281 129.432 39.3539C130.13 45.4545 129.845 51.4934 129.842 57.6129C129.841 60.7147 130.148 63.8136 130.059 66.9178C129.959 70.4072 129.609 73.8922 129.486 77.3779C129.426 79.0809 129.385 80.7855 129.302 82.4881C129.131 86.2271 129.567 89.8964 129.395 93.6345C131.048 92.6168 132.662 91.3359 134.21 90.1518C134.227 82.8654 133.739 75.6406 133.823 68.3534C133.839 66.9926 133.732 65.3963 133.638 64.0294C133.386 60.7444 133.092 57.4628 132.755 54.1855C132.647 53.1975 132.555 52.1199 132.393 51.1473C131.884 48.126 132.283 45.0473 132.245 42.0038C132.23 40.8044 132.05 39.615 131.975 38.4198C131.68 33.7147 131.978 28.9529 132.094 24.2422C132.104 23.8569 132.115 23.4568 132.154 23.0752C132.413 25.0059 132.691 26.9793 132.92 28.9124C133.268 31.8526 134.066 35.1709 134.196 38.0948C134.553 46.1075 134.571 54.1465 134.828 62.1653C134.901 64.6694 135.65 67.2305 135.709 69.7064C135.756 71.6425 135.079 73.8093 135.088 75.7761C134.965 80.3743 134.778 84.9946 134.794 89.5946C136.114 88.6572 137.294 87.4654 138.521 86.5812C138.739 84.3784 138.831 82.0179 140.315 80.3627C141.227 81.6039 141.373 82.372 141.769 83.8367C142.441 83.1266 142.921 82.7077 143.707 82.1127C143.442 80.5755 143.368 78.991 143.18 77.4366C142.635 72.8971 142.144 68.3514 141.707 63.8003L140.317 50.3809C140.216 49.4133 140.145 48.3856 140.014 47.425C139.478 43.4668 139.532 39.5868 139.428 35.6035L139.047 20.2019C138.952 14.9297 138.71 9.59835 138.974 4.34373C139.035 3.13883 139.091 1.30764 139.239 0.144531Z" fill="#6572A4"/>
<path d="M138.321 96.0213C138.402 99.2756 138.646 102.096 139.264 105.298C139.357 105.78 139.404 106.591 139.571 106.99L139.681 106.925C139.766 106.279 139.563 105.113 139.547 104.318L139.457 96.4063C139.454 96.0242 139.416 95.6604 139.523 95.2899C139.639 94.8875 140.018 94.6485 139.911 94.3177C139.786 94.2645 139.448 94.1697 139.453 94.0236C139.52 92.321 139.204 88.6013 139.982 87.186L140.121 87.1309C141.474 88.2908 140.761 104.368 141.768 105.442H141.936C142.901 104.425 142.858 100.258 142.987 98.7861C144.02 99.9934 144.57 100.38 145.833 101.316C145.941 102.561 146.02 103.574 146.033 104.83C143.216 106.449 139 107.219 137.422 109.612C140.766 108.393 143.21 107.599 146.188 105.611C146.279 106.231 146.377 107.071 146.51 107.667C146.137 108.597 145.888 109.161 145.249 109.967C142.476 110.588 136.511 111.452 133.765 111.333C131.872 109.319 130.666 108.095 127.717 108.012C126.347 107.977 124.978 108.142 123.654 108.5C123.119 107.434 122.389 106.478 121.502 105.682C121.498 105.363 121.48 105.034 121.49 104.716C121.509 104.065 121.302 103.946 121.873 103.533C121.912 102.638 121.261 102.311 121.567 100.706C121.673 100.623 122.108 100.007 122.218 99.8512C122.805 99.0212 123.36 98.4088 124.111 97.7297L124.377 97.217L124.56 97.5681C125.162 96.9742 127.465 95.8075 128.318 95.3557C128.354 96.742 128.348 98.8625 128.482 100.179C128.536 99.5397 128.553 98.966 128.569 98.3276C128.578 98.9796 128.497 102.372 128.784 102.698C128.871 102.277 128.898 101.241 128.952 100.736C129.168 98.7116 129.2 96.6627 129.365 94.6369C130.133 94.1697 131.064 93.4635 131.828 92.9333C131.585 93.3135 131.273 93.7305 131.007 94.102C131.875 94.2645 133.353 94.2074 134.1 94.6698C134.217 94.7424 134.192 94.9271 134.209 95.1061C134.257 95.4757 134.252 95.8104 134.477 96.0871L134.533 94.6379C135.81 95.0519 137.094 95.4747 138.321 96.0213Z" fill="#F7F9FF"/>
<path d="M124.377 97.217L124.56 97.5681C124.43 99.4507 124.253 103.324 123.909 104.98C123.702 102.968 124.344 99.9886 124.111 97.7297L124.377 97.217Z" fill="#6572A4"/>
<path d="M128.479 100.179C128.533 99.5398 128.55 98.9661 128.566 98.3276C128.575 98.9797 128.495 102.372 128.781 102.698C128.821 103.327 128.598 104.897 128.517 105.553C128.421 103.852 128.435 101.892 128.479 100.179Z" fill="#6572A4"/>
<path d="M134.209 95.1061C134.257 95.4757 134.252 95.8104 134.477 96.0871C134.52 96.5988 134.397 97.9956 134.213 98.4831C134.143 98.3767 134.205 95.4718 134.209 95.1061Z" fill="#6572A4"/>
<path d="M163.52 105.979C163.638 105.975 163.757 105.974 163.875 105.977C164.803 105.996 166.711 106.386 166.479 107.574C166.378 108.1 166.176 108.72 165.817 109.126C164.276 110.871 162.542 112.442 160.933 114.125C159.279 115.886 158.131 117.621 156.209 119.128C153.559 119.08 150.287 120.026 148.786 122.365C147.884 122.386 147.061 122.224 146.17 122.159C143.093 121.933 139.325 122.074 137.657 125.066C141.539 123.171 146.94 123.794 150.918 125.122L149.942 127.146C152.333 125.124 154.317 123.996 157.321 123.013C159.305 122.365 161.198 121.253 162.937 123.077C163.619 122.455 164.336 121.357 165.068 120.842C167.484 119.172 171.653 117.994 174.572 118.551C178.842 119.367 177.619 121.724 174.634 123.236C173.348 123.887 171.875 124.784 170.608 125.431C166.902 127.348 163.127 129.128 159.292 130.767C157.77 131.425 155.502 132.432 153.952 132.847C152.908 133.127 149.871 132.693 148.496 132.618C147.362 132.565 146.226 132.582 145.094 132.669C141.35 132.939 138.178 133.761 134.565 134.529C132.658 134.934 129.642 134.562 127.61 134.638C125.772 134.708 123.638 134.425 121.772 134.444C119.77 134.384 116.153 133.86 114.277 134.259C112.273 134.684 109.609 137.646 107.822 138.581C105.54 139.777 102.689 140.614 100.387 141.73C96.9102 143.417 93.2941 145.654 90.0263 147.724L90.0171 145.093C89.9702 138.983 91.0261 129.369 93.2169 123.698C94.6898 123.034 96.2058 122.599 97.5994 121.76C99.1536 120.824 100.392 119.632 101.687 118.383C101.918 116.765 101.893 114.076 102.639 112.847C103.902 110.767 105.502 108.122 107.904 107.37C108.418 109.064 110.189 108.647 111.743 109.065C110.118 110.248 111.743 112.466 111.743 112.466C111.743 112.466 113.36 114.695 113.96 115.127C115.586 116.014 117.017 113.694 117.654 113.205C117.938 112.988 116.517 111.85 116.768 111.579C117.739 110.529 120.224 110.068 121.497 109.213C122.079 111.205 122.733 115.43 120.458 116.624C119.331 117.216 116.982 117.625 115.742 117.26C115.052 117.888 114.206 119.027 113.631 119.772C113.952 119.734 114.32 119.739 114.647 119.727C118.078 119.599 120.2 117.845 122.4 115.494C123.728 116.801 127.097 120.267 128.589 120.954C127.799 122.471 127.77 123.248 127.919 124.901C128.117 124.8 128.313 124.695 128.505 124.584C129.835 123.805 130.106 122.633 130.458 121.259C131.151 121.403 131.731 121.467 132.432 121.546C133.117 120.859 133.857 120.026 134.526 119.309C131.186 119.003 129.986 119.261 127.532 116.54C131.582 116.233 133.545 116.817 137.416 118.172C136.888 118.834 136.538 119.583 136.204 120.353C137.351 119.082 138.087 118.184 139.902 117.991C141.783 117.79 143.813 117.599 145.67 118.042C146.31 118.195 146.655 119.127 146.933 119.675C147.421 119.181 147.915 118.722 148.423 118.249C148.11 117.588 148.147 117.307 148.157 116.568C148.877 115.894 151.714 113.858 152.642 114.359C152.849 114.669 152.854 115.135 152.893 115.518C153.343 114.906 153.571 114.635 154.094 114.081L153.663 113.092C154.781 111.795 155.886 111.036 157.509 110.484C157.783 110.931 158.05 111.383 158.309 111.839C158.832 111.242 159.349 110.71 159.876 110.087L158.905 109.052C160.316 107.412 161.328 106.403 163.52 105.979Z" fill="#F7F9FF"/>
<path d="M150.231 103.226C152.597 103.851 154.227 104.219 156.659 104.568C156.641 105.454 156.731 107.501 157.95 107.562C158.925 107.229 158.772 105.603 158.76 104.787C160.21 104.781 161.659 104.807 163.107 104.865C160.812 106.099 159.595 107.614 157.735 109.35C157.2 109.85 155.825 110.256 155.212 110.748C154.414 111.24 153.533 112.398 152.725 112.755C150.869 113.579 149.243 114.011 147.735 115.481C147.238 115.964 146.944 116.131 146.251 115.916L145.803 115.702C145.562 115.956 143.776 115.84 143.325 115.845C142.004 115.87 140.685 115.966 139.375 116.133C141.276 114.236 143.319 112.52 145.141 110.672C144.708 111.888 144.257 112.996 143.923 114.251C144.984 113.224 145.665 111.216 146.112 110.844C146.171 111.011 146.191 111.101 146.302 111.244C146.389 110.954 146.434 109.967 146.568 109.687C147.142 108.485 148.404 107.279 149.036 106.126C148.965 105.97 148.961 105.888 148.928 105.72C149.01 105.234 149.935 103.717 150.231 103.226Z" fill="#F7F9FF"/>
<path d="M145.805 115.702C146.904 113.858 149.863 112.092 151.781 111.184C150.991 112.16 150.677 112.45 149.692 113.235C148.414 114.255 146.982 114.481 146.252 115.916L145.805 115.702Z" fill="#6572A4"/>
<path d="M148.93 105.72C149.166 105.486 149.518 105.071 149.804 105C149.655 105.367 149.288 105.801 149.037 106.126C148.967 105.97 148.963 105.888 148.93 105.72Z" fill="#6572A4"/>
<path d="M174.008 111.897C175.055 111.807 176.296 112.046 177.246 112.504C177.899 113.364 177.953 113.799 178.031 114.853C177.33 115.362 176.696 115.957 176.143 116.623C173.019 116.02 169.78 116.592 167.051 118.233C164.855 119.535 164.723 120.069 162.175 120.306C160.989 120.537 159.815 120.857 158.648 121.172C158.791 120.599 159.041 120.153 159.397 119.694C160.989 117.634 163.711 117.495 165.866 116.418C166.392 116.156 167.178 115.476 167.681 115.117C169.918 113.525 171.237 112.265 174.008 111.897Z" fill="#F7F9FF"/>
<path d="M167.461 116.113C167.847 116.085 167.983 116.122 168.253 116.31L168.258 116.525C167.975 117.069 167.239 117.541 166.731 117.899C166.504 117.812 165.949 117.457 165.711 117.313C166.348 116.683 166.649 116.494 167.461 116.113Z" fill="#6572A4"/>
<path d="M151.523 78.5044C152.543 78.3845 152.915 78.8682 153.415 79.6266C153.424 79.852 153.427 80.0774 153.423 80.3028C153.333 83.7594 147.76 88.5789 145.356 90.8688C145.295 89.8279 145.208 88.7889 145.096 87.7528C145.093 87.7015 145.126 87.538 145.136 87.48C145.448 87.4742 146.765 88.163 147.149 88.3506L148.331 86.9634C147.278 86.2968 146.691 85.8325 145.778 85.0005C145.48 85.2105 145.156 85.4687 144.863 85.6942C144.856 84.6784 144.742 83.3453 144.609 82.3382C147.169 80.7188 148.392 79.2039 151.523 78.5044Z" fill="#F7F9FF"/>
<path d="M175.371 104.452C176.53 104.289 179.656 104.35 180.539 105.077C180.842 105.327 181.033 105.688 181.065 106.079C181.095 106.485 180.916 106.852 180.656 107.152C179.001 109.056 169.816 109.967 166.994 110.134L165.672 110.257C165.966 109.881 166.319 109.453 166.659 109.124C168.249 107.583 169.372 107.259 168.271 104.929C169.543 104.897 170.816 104.895 172.089 104.922C172.002 105.647 171.158 107.551 171.465 107.97C171.676 107.928 171.738 107.894 171.898 107.757C173.13 106.697 173.199 106.168 173.35 104.706C174.011 104.581 174.7 104.522 175.371 104.452Z" fill="#F7F9FF"/>
<path d="M123.954 109.451C132.441 107.734 130.224 111.709 135.217 112.87C137.194 112.898 140.262 112.198 142.203 111.709C142.673 111.617 143.273 111.406 143.74 111.256C142.756 112.192 139.493 115.222 138.757 116.165C133.459 114.289 130.511 114.097 124.926 114.214C124.532 113.616 124.368 113.466 123.797 113.048C124.264 111.46 124.184 111.102 123.954 109.451Z" fill="#F7F9FF"/>
<path d="M179.603 116.645C180.127 116.615 180.672 116.739 181.165 116.905C182.077 117.211 183.073 117.821 183.488 118.732C183.632 119.048 183.71 119.413 183.565 119.746C183.027 120.98 173.94 125.856 172.347 126.613C170.799 127.35 169.245 127.97 167.619 128.511C166.854 128.73 166.199 128.885 165.422 129.055C169.635 126.986 174.2 124.268 178.208 121.795C180.544 120.353 179.578 117.771 177.168 116.836L179.603 116.645Z" fill="#F7F9FF"/>
<path d="M111.3 104.925C114.943 104.453 119.36 106.697 121.523 109.424C120.97 109.717 117.279 112.017 117.064 112.022C115.961 110.475 116.029 109.213 115.143 108.77C114.256 108.326 113.535 108.034 113.074 108.326C112.613 108.618 111.005 109.509 111.005 110.248C110.067 109.926 107.839 108.103 106.867 107.882C107.827 107.04 110.14 105.453 111.3 104.925Z" fill="#F7F9FF"/>
<path d="M165.804 130.145C165.943 130.161 166.098 130.146 166.191 130.254C169.572 134.123 160.087 133.569 158.493 133.475L156.812 133.434C158.694 132.402 160.348 132.158 162.364 131.481C163.516 131.095 164.653 130.57 165.804 130.145Z" fill="#F7F9FF"/>
<path d="M143.69 83.1343C143.974 83.438 144.035 86.2193 143.944 86.7417L144.224 87.0252C144.437 88.3195 144.519 90.1083 144.742 91.3669C144.075 91.9386 143.59 92.5548 143.033 93.2281L142.903 93.231C142.764 92.906 142.759 91.0147 142.686 90.4739C142.424 88.5353 142.192 86.643 141.82 84.7189C142.405 84.1955 143.085 83.6451 143.69 83.1343Z" fill="#F7F9FF"/>
<path d="M161.839 113.948C162.403 114.046 163.719 114.571 164.463 114.714C165.241 114.863 165.978 114.816 166.621 114.962L166.6 115.09C166.185 115.281 165.325 115.499 164.855 115.64C163.7 115.988 163.049 116.375 162.088 117.037L160.698 118.063C159.794 118.008 159.17 118 158.266 118.031C159.459 116.226 160.184 115.376 161.839 113.948Z" fill="#F7F9FF"/>
<path d="M138.297 87.7529C138.393 88.0402 138.261 92.825 138.271 93.6192C137.411 93.3271 136.314 93.1007 135.413 92.8908C134.251 92.648 134.617 91.7454 134.692 90.7364C135.626 89.8096 137.239 88.5965 138.297 87.7529Z" fill="#F7F9FF"/>
<path d="M153.556 120.786C154.934 120.669 156.012 121.038 157.323 121.412C155.952 121.991 154.587 122.582 153.227 123.186C152.722 123.418 150.284 122.604 149.57 122.407C150.873 121.437 151.998 121.075 153.556 120.786Z" fill="#F7F9FF"/>
<path d="M170.642 111.702C170.746 111.683 170.892 111.694 171.004 111.696C170.885 112.036 168.476 113.379 168.048 113.559C167.276 113.468 166.719 113.315 165.997 113.053L164.453 112.377C166.554 112.309 168.565 111.949 170.642 111.702Z" fill="#F7F9FF"/>
<path d="M138.614 134.914C139.677 134.806 141.371 134.963 142.486 135.024C141.636 135.504 140.982 135.701 140.063 135.948C138.526 136.257 137.652 136.081 136.141 135.831C137.092 135.358 137.606 135.144 138.614 134.914Z" fill="#F7F9FF"/>
<path d="M146.18 101.564C147.166 102.056 147.946 102.427 148.966 102.837C148.688 103.116 148.348 103.373 148.039 103.621C147.512 103.963 146.96 104.302 146.427 104.638C146.313 103.61 146.316 102.609 146.18 101.564Z" fill="#F7F9FF"/>
<path d="M144.795 92.0981C144.942 92.8256 145.157 95.6621 145.276 96.6188L145.136 96.6207L144.808 96.2609C144.467 95.8439 144.115 95.3235 143.799 94.8804C143.737 93.5018 143.954 93.1691 144.795 92.0981Z" fill="#F7F9FF"/>
<path d="M178.675 123.943C178.82 123.923 178.817 123.946 178.972 123.986L179.011 124.17C178.406 125.615 176.944 125.832 175.557 125.946L175.359 125.923C175.547 125.631 178.23 124.184 178.675 123.943Z" fill="#F7F9FF"/>
<path d="M113.616 109.805C113.73 109.834 113.893 109.852 113.952 109.96C114.457 110.889 114.815 111.769 115.416 112.649L115.272 112.751C115.092 112.811 114.96 112.845 114.777 112.889C114.028 112.493 113.252 110.574 113.616 109.805Z" fill="#F7F9FF"/>
<path d="M148.28 103.93L148.339 104.077C147.841 105.149 147.241 106.235 146.682 107.28C146.593 106.971 146.493 105.793 146.453 105.411C146.932 104.976 147.753 104.355 148.28 103.93Z" fill="#F7F9FF"/>
<path d="M134.091 91.1528C134.285 91.3463 134.226 92.3621 134.227 92.6707C133.737 92.6359 133.26 92.571 132.773 92.5081L132.641 92.3776C132.978 91.9809 133.66 91.4885 134.091 91.1528Z" fill="#F7F9FF"/>
<path d="M124.844 82.9983L125.26 67.5525C125.484 59.7737 125.762 52.0199 125.65 44.2326C125.608 41.3347 125.253 38.4669 125.249 35.565C125.239 26.6059 125.046 17.5883 125.45 8.63779C125.55 6.4236 125.595 3.05715 126.103 0.976074L126.173 1.03238C126.789 9.23816 127.302 17.5598 127.333 25.7872C127.341 28.1165 127.269 30.4386 127.259 32.7659C127.284 39.4777 127.215 46.1896 127.052 52.8994C126.892 57.937 126.536 62.7402 126.277 67.7282L125.706 77.6369C125.632 79.0638 125.591 82.3559 125.318 83.6638C125.218 82.6616 125.389 81.7087 125.292 80.8206C125.096 81.3063 125.063 82.2553 124.871 82.9073L124.844 82.9983Z" fill="#6572A4"/>
<path d="M124.84 82.9979L124.867 82.907C125.059 82.255 125.092 81.3059 125.288 80.8203C125.385 81.7084 125.214 82.6613 125.314 83.6635C125.291 85.7928 125.036 88.1135 124.926 90.2544C124.885 91.0651 124.743 92.1437 124.751 92.9118C124.624 93.0686 124.485 93.2098 124.422 93.3975C124.507 90.0348 124.718 86.3925 124.84 82.9979Z" fill="#6572A4"/>
<path d="M124.287 96.4287L124.382 97.2171L124.116 97.7299C123.365 98.409 122.81 99.0213 122.223 99.8514C122.113 100.007 121.678 100.623 121.573 100.707L121.289 100.549L121.295 100.273C122.045 98.6083 123.072 98.2532 124.22 96.9676C124.246 96.7576 124.268 96.5777 124.287 96.4287Z" fill="#6572A4"/>
<path d="M67.628 129.958C68.097 129.947 69.6329 129.827 69.9013 130.031C69.2652 130.148 67.9061 130.538 67.3734 130.449L67.3204 130.319L67.628 129.958Z" fill="#6572A4"/>
<path d="M92.1022 173.985C92.4004 174.092 92.3113 174.069 92.5275 174.398C92.238 174.518 92.0905 174.608 91.7765 174.601C91.75 174.337 91.8997 174.251 92.1022 173.985Z" fill="#6572A4"/>
<path d="M139.009 52.794C138.937 52.2522 138.908 51.6013 138.86 51.047C138.236 43.7923 136.965 36.6358 135.922 29.4383C135.348 25.4768 134.111 21.6663 133.062 17.8066C131.843 13.4072 130.869 8.94352 130.143 4.43611C129.963 3.25027 129.59 1.09094 129.555 0C130.234 2.33143 131.153 4.67912 132.074 6.9293C132.507 7.98628 133.425 9.27031 133.721 10.3645C134.295 12.4824 134.789 14.6947 135.286 16.8309C136.5 21.8708 137.466 26.9673 138.18 32.102C138.476 34.1025 138.846 36.4569 139.006 38.4484C139.345 42.6811 139.246 47.0516 139.239 51.3092C139.119 51.8969 139.008 52.188 139.009 52.794Z" fill="#6572A4"/>
<path d="M179.705 89.8224C180.218 89.7914 180.709 89.8572 180.996 90.3341C181.485 92.3628 175.21 97.2994 173.676 98.2485C172.664 98.8744 171.258 99.6289 170.172 100.186C171.64 98.677 173.687 97.0382 175.319 95.619C176.7 94.4098 177.728 93.4898 178.959 92.1084C176.833 93.1261 174.043 95.3027 172.295 96.8738C172.412 96.601 172.544 96.3349 172.69 96.0766C174.233 93.3379 176.59 90.6863 179.705 89.8224Z" fill="#6572A4"/>
<path d="M85.6562 69.8535C85.7438 69.8598 85.8311 69.87 85.9178 69.8839C87.0822 70.0679 89.4342 71.1147 90.3039 71.9143C90.567 72.0768 91.6518 73.0474 91.8451 73.0918C94.1256 73.6157 95.095 74.7262 96.446 76.59C95.5286 76.4522 93.412 76.2728 92.6671 76.0047C90.7547 75.3168 86.9214 71.4402 85.6562 69.8535Z" fill="#6572A4"/>
<path d="M175.251 78.395L175.328 78.4492C174.218 79.3586 173.914 79.4069 172.76 80.5523C170.774 82.5229 167.379 86.7379 165.076 87.9791L164.956 87.8165C164.518 83.6741 172.175 79.9187 175.251 78.395Z" fill="#6572A4"/>
<path d="M69.3047 163.534C73.4624 158.5 77.4583 152.773 80.1143 146.795C80.8326 145.186 81.494 143.552 82.097 141.896C82.4116 141.043 82.7916 139.751 83.1823 139.003L83.2487 139.019C83.0894 140.26 82.8743 141.814 82.4693 143C80.0599 150.059 74.6057 158.355 69.655 163.865L69.3047 163.534Z" fill="#6572A4"/>
<path d="M69.3047 163.534L69.655 163.865C68.7762 164.926 65.964 168.206 65 168.764C65.0245 168.592 68.8508 164.086 69.3047 163.534Z" fill="#6572A4"/>
<path d="M139.236 51.3096C139.24 51.7371 139.305 54.7453 139.235 54.9156C139.054 54.2238 138.977 53.509 139.006 52.7944C139.005 52.1884 139.116 51.8973 139.236 51.3096Z" fill="#6572A4"/>
</svg>
