<svg width="250" height="179" viewBox="0 0 250 179" fill="none" xmlns="http://www.w3.org/2000/svg">
<path d="M190.866 67.8927C190.268 67.1066 190.015 64.7202 191.034 64.4909C191.279 64.8566 190.571 66.4151 190.996 67.0156L191.194 66.9524C191.834 66.2779 192.287 65.283 192.688 64.4482C196.978 64.655 194.303 66.9457 192.919 68.6083L192.999 68.7203C193.27 68.6776 193.419 68.6551 193.684 68.7211C197.458 69.6577 192.025 74.5057 191.01 75.6469C190.655 76.0469 189.949 76.3584 189.729 76.7817C190.424 77.0489 194.113 76.4646 191.829 79.3658C189.955 81.7458 186.956 83.8548 184.619 85.8565C182.915 87.3168 181.523 88.7892 179.964 90.4037C176.287 92.7533 169.85 96.7131 165.64 97.3563C167.151 96.0207 169.023 95.2779 170.83 94.3908C173.405 93.1252 176.026 91.8848 178.53 90.4792C180.605 89.3153 181.799 87.4317 183.628 86.0928L183.762 85.9966L183.638 85.6859C182.473 86.4724 181.153 87.2906 180.052 88.1372C178.379 89.4258 177.36 90.4081 175.399 91.2919C172.331 92.7205 169.339 94.3667 166.11 95.4158C165.404 95.6455 163.021 96.223 162.807 96.8411C161.803 99.7223 160.853 102.589 159.587 105.383C159.16 106.326 158.868 107.385 158.444 108.328L161.705 111.819C161.742 108.638 163.469 99.8743 165.78 97.7577L165.937 97.7719C165.989 98.2554 165.8 98.8034 165.638 99.2585C164.892 101.354 164.179 103.456 163.697 105.63C163.561 106.238 163.423 106.873 163.207 107.458C165.249 108.825 167.75 111.743 168.225 114.218L168.143 114.424C167.422 116.236 167.112 118.171 166.422 119.984C165.891 121.381 165.354 122.914 164.707 124.261C163.208 127.384 162.9 130.801 162.215 134.156C161.82 136.086 161.703 137.96 161.094 139.859C159.821 143.832 158.025 147.582 156.391 151.414C154.212 156.035 152.373 160.832 149.559 165.109C147.603 168.081 144.94 168.538 141.68 167.932C140.553 170.351 138.282 173.453 135.707 174.556C135.328 174.719 133.828 175.066 133.469 174.859L133.502 174.706C133.798 174.529 133.804 174.521 134.132 174.42C135.021 174.311 135.09 174.12 135.573 173.39C139.782 170.886 143.687 160.862 145.956 156.434C148.135 152.18 150.853 147.224 152.349 142.705C154.859 135.127 155.751 126.903 159.211 119.601C160.131 117.647 161.28 116.026 161.785 113.891C159.718 112.188 158.744 110.994 156.985 109.128C154.904 106.92 151.24 104.728 148.33 103.899C147.456 103.649 145.943 103.407 144.995 103.244L144.459 103.102C145.162 102.062 145.227 103.262 145.966 102.357L146.221 102.448C150.472 102.218 155.007 104.98 157.927 107.842C158.457 105.38 159.186 103.48 160.23 101.188C161.323 98.7914 161.973 96.0152 164.681 94.8382C168.739 93.0771 172.778 91.3619 176.83 89.5866C178.214 88.9806 179.485 87.365 180.8 86.5599C182.538 85.3315 184.764 84.137 185.928 82.3321C186.693 81.1475 189.316 79.4751 188.509 78.1874L188.354 78.1531C187.55 78.9487 186.881 80.6509 185.882 81.5938C184.402 82.9895 182.772 83.9806 181.157 85.2057C180.22 85.9189 179.475 86.689 178.599 87.459C180.783 83.7126 183.489 83.041 186.148 80.3304C187.69 78.7574 189.969 74.2774 191.142 72.2337C190.884 71.8502 190.63 71.4097 190.388 71.0107C189.823 72.1152 187.675 75.9057 186.851 76.6999C184.187 79.2694 181.352 81.6375 178.756 84.3437C180.352 81.3608 181.78 80.1936 184.408 78.1983C185.163 77.626 185.991 77.0457 186.608 76.3206C187.497 75.2744 190.179 69.4173 190.866 67.8927Z" fill="#F0F4FF"/>
<path d="M190.074 77.3125C190.983 77.5968 191.088 77.63 191.924 78.0932C190.436 80.5562 188.452 81.5604 186.423 83.537L186.188 83.2187C187.537 81.5013 189.51 79.3545 190.074 77.3125Z" fill="#25252F"/>
<path d="M186.191 83.2188L186.427 83.5371C185.633 84.3717 184.612 85.1833 183.757 85.9971L183.633 85.6865C184.473 84.8497 185.354 84.0829 186.191 83.2188Z" fill="#25252F"/>
<path d="M162.018 114.469C163.654 115.932 164.759 116.278 166.897 116.026C165.697 118.133 163.043 124.618 162.473 126.968C161.611 130.527 161.015 135.17 160.2 138.798C159.928 140.008 158.982 142.615 158.472 143.8C156.994 147.229 155.526 150.647 153.904 154.011C152.693 156.525 151.695 159.136 150.347 161.618C149.676 162.853 149.09 164.43 148.27 165.608C147.995 166.004 147.442 166.213 147.006 166.397C144.723 166.964 144.383 166.644 142.281 166.942C142.968 165.651 143.775 164.225 144.372 162.901C147.383 156.22 151.299 149.908 153.604 142.934C154.747 139.475 155.462 135.758 156.277 132.204C156.902 129.428 157.631 126.677 158.466 123.955C158.807 122.828 159.209 121.522 159.649 120.441C160.47 118.418 161.394 116.568 162.018 114.469Z" fill="#25252F"/>
<path d="M162.971 108.916C163.81 109.702 166.768 113.527 166.581 114.538C166.234 114.709 166.026 114.658 165.608 114.67C164.396 114.573 162.924 113.91 162.187 112.897C162.095 112.781 161.935 112.387 161.987 112.256C162.425 111.147 162.696 110.073 162.971 108.916Z" fill="#25252F"/>
<path d="M192.551 69.2002C197.173 69.2717 189.949 75.5667 189.328 76.8893C189.328 76.8897 189.318 77.3605 189.317 77.4063C189.34 77.8473 189.405 77.6668 189.193 77.9875L188.964 77.9959L188.806 77.8278C188.709 76.6961 193.17 71.6249 192.551 69.2002Z" fill="#25252F"/>
<path d="M192.887 64.874C193.363 65.0342 193.855 65.1509 194.094 65.5918C194.189 66.4196 193.037 67.4211 192.438 68.5758L192.368 68.8146C191.864 68.9794 192.082 69.0091 191.682 68.8472C191.558 68.2732 192.632 65.6376 192.887 64.874Z" fill="#25252F"/>
<path d="M191.352 69.1353C191.677 69.1863 191.859 69.1746 192.086 69.4055C192.294 70.1883 191.767 70.8837 191.376 71.6583C190.996 71.468 190.823 71.084 190.594 70.7139C190.85 70.208 191.105 69.6493 191.352 69.1353Z" fill="#25252F"/>
<path d="M142.271 63.7516C142.096 63.0333 142.05 60.8598 142.188 60.0962L142.282 60.2794L142.159 60.3322L142.308 60.3961C142.376 60.7391 142.423 61.2305 142.468 61.589C143.359 67.1021 146.582 69.6158 150.198 73.6158C151.493 75.0478 153.159 76.3045 154.451 77.6897C156.276 75.84 157.912 73.9104 159.932 72.2465C161.53 70.9309 164.071 70.6318 165.65 69.6658C169.245 67.4676 171.267 65.5465 175.588 64.4815C174.744 65.0963 173.548 65.8493 172.612 66.3284C173.259 68.0117 173.991 68.778 175.736 67.6379L175.912 67.6575C175.874 68.3044 174.212 68.9433 173.744 68.8712C172.508 68.6808 171.952 67.7553 172.359 66.5715C171.466 66.3516 167.459 69.6599 166.326 70.2203C165.018 70.9631 161.443 72.2114 160.486 73.1158C158.644 74.8537 153.06 80.1516 152.75 82.5198C152.5 86.0431 151.319 88.4594 150.03 91.6568C149.232 93.6334 148.866 96.2061 148.086 98.3293C147.559 99.7645 146.657 101.223 146.213 102.449L145.957 102.358C146.054 101.686 146.889 99.3641 147.109 98.5568C147.703 96.3691 148.092 94.1464 148.755 91.9915C149.135 90.3299 150.691 87.7955 150.953 86.2356C151.611 82.3032 151.441 81.5124 153.972 78.2892C151.382 76.9824 150.8 75.6334 148.699 73.9303C145.036 73.7368 142.832 74.9337 139.699 76.5774C137.596 77.6812 135.376 78.4923 133.535 80.0323C133.14 80.3627 132.674 80.7007 132.262 81.0212C131.217 81.8186 129.976 83.9735 129.203 85.1243C130.626 79.613 133.565 78.1127 138.55 75.7731C142.006 74.1513 144.475 72.5169 148.473 73.4466C145.957 70.7052 142.892 67.4527 142.271 63.7516Z" fill="#F0F4FF"/>
<path d="M142.281 63.7516C142.106 63.0333 142.06 60.8598 142.198 60.0962L142.292 60.2794L142.169 60.3322L142.317 60.3961C142.386 60.7391 142.433 61.2305 142.478 61.589C142.068 62.3414 142.314 62.8949 142.281 63.7516Z" fill="#F0F4FF"/>
<path d="M132.266 81.021C133.248 81.6839 134.832 86.0287 135.055 87.2746C135.718 90.555 135.205 94.2392 135.899 97.4923C136.368 99.6909 136.58 102.533 137.177 104.632C138.265 108.449 139.025 111.157 139.316 115.152C140.489 112.227 142.882 105.485 144.454 103.103L144.99 103.245C144.659 103.472 144.432 104.014 144.299 104.401C142.316 110.194 140.323 115.902 138.063 121.601C137.05 124.156 135.028 124.915 134.323 127.196C133.878 128.632 134.55 130.313 132.716 131.372C132.666 131.32 132.579 131.176 132.535 131.11L132.727 131.03C132.587 130.716 132.628 130.189 132.53 129.713C132.678 129.735 132.581 129.73 132.818 129.666C132.98 127.436 132.804 125.938 134.538 124.246C134.964 123.711 135.709 123.173 136.048 122.591C137.227 120.564 138.387 118.081 138.91 115.797C138.926 115.725 138.235 114.494 138.184 114.189C138.021 113.23 137.758 112.262 137.516 111.319C137.16 109.81 136.507 108.2 136.224 106.688C135.795 104.405 135.767 102.09 135.027 99.8474C134.882 99.4076 134.652 98.4702 134.61 98.0272C134.302 94.727 134.75 91.3612 134.216 88.0764C133.812 85.8405 132.707 83.503 132.293 81.2398C132.284 81.1665 132.274 81.0943 132.266 81.021Z" fill="#F0F4FF"/>
<path d="M132.819 129.666C132.874 130.203 132.982 130.568 132.728 131.03C132.588 130.716 132.629 130.189 132.531 129.713C132.68 129.735 132.583 129.731 132.819 129.666Z" fill="#25252F"/>
<path d="M119.905 25.4172C120.569 22.7143 121.65 19.6976 122.868 17.2298C129.721 3.33937 150.216 -4.17313 164.421 2.42195C167.162 3.69476 169.95 5.50269 172.451 7.18887C174.646 8.64774 176.803 10.1638 178.917 11.7357C181.9 13.9952 184.77 16.8598 185.296 20.692C185.217 21.0388 185.27 21.2261 184.888 21.3419C181.665 15.1577 177.739 12.6517 172.053 8.82221C168.514 6.43837 165.007 3.88455 160.875 2.64772C152.672 0.0209358 144.478 1.22615 136.969 5.22233C128.643 9.42427 125.206 13.7827 121.843 22.3541C121.482 23.2752 120.526 25.9913 119.944 26.5874C119.731 27.0158 119.733 27.1502 119.858 27.6572L119.149 27.5394C118.721 28.4928 119.182 30.7428 119.467 31.7153L120.031 34.1424L119.843 34.2976C120.438 36.524 120.836 38.4466 121.234 40.7162C118.958 38.593 118.282 33.4669 117.614 30.4763C117.492 29.9325 117.439 28.0437 117.219 27.742L116.957 27.7866C116.232 28.3883 116.399 29.5398 116.485 30.3915C116.803 33.5375 117.304 36.9657 119.276 39.5527C119.54 39.8986 119.965 40.1588 120.148 40.5432C118.104 41.5097 116.449 37.2206 115.896 35.8929C111.431 36.1058 107.001 39.4872 104.924 43.3201C103.274 46.2546 103.602 49.252 106.883 50.8465C110.916 52.8064 115.878 50.6773 117.491 46.5969C117.779 45.8673 117.704 44.7766 118.091 43.9411L118.285 43.8853C118.598 44.1973 118.582 45.2623 118.519 45.7163C118.041 50.0091 113.261 53.6148 108.958 52.9291C103.249 52.0196 100.341 48.9873 101.215 43.2892C100.091 43.0372 99.1281 42.8101 98.2669 42.0065C95.2719 39.2118 96.4166 34.7245 98.8692 32.0199C101.248 29.3972 104.305 28.1123 107.793 27.7964C109.009 27.6863 110.195 27.8146 111.398 27.7178L111.537 27.7055C105.593 26.2424 100.561 26.6491 95.7115 30.8876C95.3017 31.2457 94.193 32.6512 93.8594 32.7275C93.8927 32.4977 93.9609 32.4472 94.0919 32.2529C98.3938 25.8759 106.599 24.5666 113.401 27.5179C113.731 27.6612 114.864 28.6153 115.271 28.9066C115.631 28.7513 115.451 27.9998 115.896 27.5716C117.307 26.2151 117.963 25.5882 119.905 25.4172Z" fill="#F0F4FF"/>
<path d="M119.125 31.5488C118.771 29.8605 118.756 28.9039 117.773 27.503C117.966 27.0528 119.191 26.3938 119.701 26.3774L119.947 26.5875C119.733 27.0158 119.736 27.1503 119.86 27.6573L119.152 27.5394C118.724 28.4928 119.184 30.7428 119.47 31.7154L119.125 31.5488Z" fill="#25252F"/>
<path d="M119.698 26.3774L119.944 26.5875C119.73 27.0158 119.733 27.1503 119.857 27.6573L119.148 27.5394C119.314 26.9531 119.336 26.8641 119.698 26.3774Z" fill="#F0F4FF"/>
<path d="M119.125 31.5483L119.47 31.7149L120.033 34.142L119.845 34.2972C119.601 33.5664 119.326 32.3294 119.125 31.5483Z" fill="#25252F"/>
<path d="M108.095 28.7945C110.624 28.544 113.047 28.6728 115.252 29.9733C115.38 32.0492 115.383 33.3911 115.899 35.4084C110.682 35.5377 104.553 39.8122 103.382 45.0518C103.032 46.6224 103.41 47.8364 103.966 49.2845C100.476 44.8825 103.483 38.9189 107.895 36.4114C110.242 35.1469 112.632 34.4881 115.198 33.8852C112.225 33.6698 109.254 34.3284 106.654 35.7792C103.736 37.4107 102.272 39.4872 101.38 42.6138C94.816 40.3775 98.1074 33.234 102.371 30.7648C104.435 29.5698 105.73 29.1283 108.095 28.7945Z" fill="#25252F"/>
<path d="M136.628 38.1885C136.525 38.6142 136.341 38.789 136.067 39.1486C136.475 39.3813 136.35 39.2239 136.542 39.5683C136.129 41.4082 136.145 42.7433 135.998 44.5991C135.984 44.7699 135.811 45.0544 135.716 45.2022L135.984 45.2914C135.685 45.8643 135.389 46.41 135.134 47.0042C134.194 49.782 133.764 51.2925 133.692 54.3026C133.578 58.9442 135.632 64.0887 133.754 68.4847L133.405 68.4112C134.177 65.0984 133.998 63.699 132.866 60.4598C131.21 55.7239 130.507 51.8447 131.698 46.8692C128.733 49.9855 125.786 51.2009 121.642 49.3417C117.207 54.2729 114.327 56.194 107.822 58.016C114.419 60.3722 116.45 63.1345 119.509 69.0595C120.734 71.4339 121.994 73.8178 123.316 76.1403C124.869 78.8689 129.362 86.4715 132.413 87.2886C132.606 87.34 132.508 87.2831 132.665 87.4735L132.493 87.6835C131.907 87.8541 131.34 87.8574 130.755 87.678C125.68 86.1204 119.306 71.8122 116.714 67.194C114.462 63.181 111.889 61.1974 107.667 59.3947C106.246 58.7881 104.818 58.2202 103.328 57.8011C100.11 59.0006 98.4749 61.1152 95.7573 62.9977C91.7473 65.7754 87.1969 68.1023 83.9146 71.788C81.2532 74.7766 79.8034 78.8833 77.9627 82.4035C75.7353 86.9944 73.2069 92.398 71.3892 97.1607C70.1478 100.714 69.3635 104.392 68.2766 107.999C67.0091 112.206 65.5476 116.409 64.3936 120.642C62.9509 125.936 62.7577 131.549 61.8487 136.953C60.6234 144.234 59.0481 151.361 56.869 158.424C56.0923 160.938 55.4533 163.696 54.5391 166.138C54.7126 164.241 55.2391 162.323 55.6577 160.461C57.4834 152.34 59.3389 144.257 60.5044 136.007C61.0759 131.962 61.3875 127.856 62.125 123.828C63.1043 118.479 65.0377 113.389 66.6361 108.209C67.9077 104.185 68.9054 99.5289 70.4685 95.6785C72.3687 91.0755 74.6207 86.5995 76.8735 82.1628C79.3236 77.3387 81.6416 72.7291 85.5783 68.8858C88.4943 66.039 91.8895 64.1054 95.2698 61.8931C97.7762 60.2526 100.015 58.344 102.829 57.167C104.363 56.5103 105.808 57.2581 107.264 57.8412C111.031 56.2759 114.447 54.5987 117.614 51.9981C118.802 51.022 119.88 49.9492 121.039 48.9332C119.308 47.4796 119.028 45.3514 119.603 43.2342C119.722 42.7978 120.053 42.5812 120.442 42.4032C121.193 42.6132 120.011 45.8492 121.403 47.1779C122.683 48.3998 123.166 48.559 124.994 48.767C127.366 49.2012 130.748 47.2993 131.933 45.2064C133.496 42.4443 133.904 40.475 136.628 38.1885Z" fill="#F0F4FF"/>
<path d="M136.062 39.1489C136.47 39.3817 136.346 39.2243 136.537 39.5686C136.125 41.4086 136.14 42.7437 135.994 44.5995C135.98 44.7703 135.807 45.0548 135.711 45.2025L135.98 45.2918C135.681 45.8647 135.385 46.4104 135.129 47.0046L134.841 46.9229C133.409 49.1672 132.994 53.2779 133.147 55.8749C133.214 57.0138 133.387 58.1408 133.38 59.2879L133.378 59.4427C132.824 57.6399 132.275 55.6705 132.054 53.8046C131.455 48.7478 132.912 43.1757 136.062 39.1489Z" fill="#25252F"/>
<path d="M135.706 45.2021L135.974 45.2914C135.675 45.8643 135.379 46.41 135.124 47.0042L134.836 46.9225C135.065 46.3278 135.398 45.7619 135.706 45.2021Z" fill="#F0F4FF"/>
<path d="M118.884 170.001C116.891 168.315 115.728 166.739 114.142 164.691C108.138 156.938 102.232 149.218 97.3286 140.71C94.625 136.299 91.8409 131.966 89.429 127.383C87.2944 123.327 85.4171 119.132 83.5064 114.968C83.0989 114.079 81.3486 110.53 81.4495 109.862L81.6397 109.8C82.6403 110.521 87.8396 121.017 88.777 122.802C89.9455 124.992 91.1309 127.173 92.3331 129.345C93.9218 132.193 95.6193 134.668 97.3215 137.417C99.892 141.536 102.304 145.842 105.106 149.811C108.283 154.313 111.712 158.672 114.859 163.203C115.71 164.429 116.411 165.728 117.407 166.854C118.587 168.18 119.957 169.327 121.475 170.256C126.303 173.19 129.988 174.747 135.567 173.391C135.084 174.12 135.015 174.312 134.126 174.42C133.777 174.247 133.141 174.597 132.684 174.689C128.132 175.609 123.053 172.898 119.262 170.307C119.063 171.495 117.53 178.865 116.46 179L116.313 178.795C116.046 177.112 118.184 171.761 118.884 170.001Z" fill="#F0F4FF"/>
<path d="M113.527 82.4463C117.243 84.5093 121.357 91.9322 122.477 96.0528C122.909 97.641 123.299 99.4579 123.77 101.023C123.999 101.785 124.954 101.815 125.235 103.002C125.888 105.757 125.468 108.77 126.245 111.428C126.887 113.25 127.982 114.666 128.78 116.452C129.824 118.79 129.468 121.625 130.158 123.859C130.774 125.852 131.912 127.457 132.528 129.713C132.626 130.189 132.585 130.716 132.725 131.03L132.533 131.11C132.577 131.176 132.664 131.32 132.714 131.372C132.549 131.907 132.699 132.13 132.682 132.666C132.647 133.786 132.573 135.391 132.167 136.428L131.635 136.75C130.883 135.062 131.519 131.313 130.858 129.396C130.246 127.617 129.239 126.231 128.704 124.498C128.112 122.579 128.175 120.389 127.776 118.466C127.368 116.501 126.035 114.761 125.261 112.934C124.784 111.808 124.663 110.694 124.342 109.529C124.093 108.626 123.343 107.255 122.806 106.47C120.586 103.226 117.917 100.189 115.423 97.1477C114.791 96.3755 114.066 95.6644 113.47 94.8758L113.406 94.7905L113.531 94.7281L113.828 95.0628C114.049 95.0464 113.966 95.0749 114.089 95.0213C117.306 98.1388 123.147 104.844 124.543 108.919C124.496 107.248 124.574 105.528 124.348 103.884C124.211 102.884 122.978 101.741 122.732 100.883C121.504 96.6194 120.199 92.8718 117.853 89.0357C117.121 87.8423 116.355 86.6708 115.555 85.5211C114.964 84.6745 113.957 83.3389 113.527 82.4463Z" fill="#F0F4FF"/>
<path d="M136.964 37.9585C138.857 34.8653 141.641 33.1384 145.337 35.116C146.786 35.8915 146.958 37.2679 147.943 38.2346L147.873 38.6127C147.74 39.3784 148.495 39.7876 149.036 40.2184C152.962 43.346 157.876 41.0594 161.765 39.088L161.832 38.907L161.776 38.7968L162.058 38.6347C162.248 38.7672 162.312 38.8232 162.483 38.9813C161.933 39.3773 157.801 41.9453 157.791 41.9588L157.701 42.2249C156.697 42.1637 155.31 42.7489 154.274 42.8743C151.169 43.2506 148.498 41.7872 147.222 39.0165C146.953 39.084 147.088 39.0416 146.82 39.1456C146.519 38.9646 145.983 37.6937 145.702 37.2847C144.007 34.8162 139.784 35.048 138.327 37.6687C136.854 40.3194 137.192 44.3603 137.927 47.2108C138.203 48.195 140.367 52.068 141.329 52.7793C142.014 53.2862 143.724 52.6708 144.265 52.829C144.296 53.0567 144.323 52.9701 144.16 53.1747C143.682 53.7693 143.03 54.2168 142.26 54.3339C141.502 54.4494 140.677 54.0957 140.097 53.6395C139.236 52.9619 138.721 52.0358 138.211 51.0937C137.598 49.9584 136.94 48.8302 136.606 47.5726C136.413 46.8393 136.282 46.0553 136.192 45.2997C136.146 45.278 136.099 45.2562 136.054 45.2345L135.987 45.2922L135.719 45.2029C135.814 45.0552 135.987 44.7706 136.001 44.5999C136.148 42.7441 136.132 41.409 136.545 39.569C136.353 39.2247 136.478 39.3821 136.07 39.1493C136.344 38.7898 136.528 38.615 136.631 38.1892L136.964 37.9585Z" fill="#F0F4FF"/>
<path d="M136.624 38.1887L136.957 37.958C136.878 38.3471 136.691 39.2244 136.538 39.5685C136.346 39.2241 136.471 39.3816 136.062 39.1488C136.336 38.7892 136.521 38.6144 136.624 38.1887Z" fill="#25252F"/>
<path d="M176.224 71.4597C177.407 70.741 180.185 69.0906 181.06 68.3098C183.233 66.375 184.859 63.6171 188.007 62.8778C189.341 62.5643 189.565 62.7948 190.209 63.9872C190.314 64.1794 190.385 63.8555 190.779 63.8543L190.725 64.0473C190.153 64.4665 189.848 65.7147 189.33 66.3454C187.569 68.4921 185.912 70.7904 184.189 72.9537C183.154 74.2538 181.016 75.6704 179.721 76.808C178.643 77.7548 177.758 78.6968 176.735 79.6806C177.806 76.9896 179.105 75.8606 181.497 74.2965C183.492 72.9915 184.189 71.7446 185.55 69.8814C186.821 68.1437 188.372 66.4996 189.566 64.6957C189.776 64.3864 189.734 64.3418 189.645 64.1026C189.256 63.8232 189.462 63.8862 189.025 63.8538C188.098 64.278 187.98 65.6762 187.653 65.7131C187.56 64.7675 187.643 64.6911 188.022 63.8084C184.64 65.1891 183.822 66.9018 181.203 69.0938C180.066 70.0457 176.868 71.859 175.501 72.7296C173.288 74.138 169.552 74.9487 167.111 76.0374C166.723 76.1876 165.464 77.4291 164.75 77.8011L164.845 77.7353L164.862 77.5997C165.958 76.3812 167.059 75.0037 168.389 74.053C169.559 73.2156 170.983 72.8888 172.24 72.2164C172.782 71.9242 173.974 70.9331 174.492 70.509C175.416 69.3991 176.475 68.1076 176.98 66.7575L177.202 66.8343C177.136 67.7905 177.008 68.6193 176.38 69.3772C176.154 69.6499 176.088 69.678 176.183 69.8591C176.519 70.3805 176.34 70.8579 176.224 71.4597Z" fill="#F0F4FF"/>
<path d="M175.515 70.3716L175.628 70.4183C175.528 70.8763 175.543 71.118 175.538 71.5924C174.262 72.5312 169.901 74.4357 168.414 74.8841C171.202 72.8868 172.766 73.094 175.515 70.3716Z" fill="#25252F"/>
<path d="M176.98 66.7578L177.203 66.8346C177.137 67.7907 177.008 68.6196 176.38 69.3775C176.154 69.6502 176.088 69.6783 176.183 69.8593C175.953 70.0493 175.781 70.1605 175.629 70.4183L175.515 70.3716C175.576 70.1893 175.567 70.2911 175.504 70.0655L175.266 70.0893C174.981 70.3143 174.851 70.4669 174.492 70.5093C175.416 69.3994 176.476 68.1078 176.98 66.7578Z" fill="#F0F4FF"/>
<path d="M187.211 25.7646C185.18 33.0019 174.544 36.7853 167.785 37.8525C166.351 38.0791 163.739 38.4743 162.479 38.9807C162.308 38.8227 162.244 38.7667 162.054 38.6341L161.772 38.7962C157.9 39.3215 152.685 39.4288 149.148 37.6974C151.91 37.7783 155.424 37.9858 158.182 37.8014C167.255 37.1949 177.584 35.3514 184.533 29.0891C185.793 27.9543 186.305 27.0826 187.211 25.7646Z" fill="#F0F4FF"/>
<path d="M186.338 29.3011C186.471 29.0036 186.586 28.2865 186.674 27.913C186.958 27.6812 186.799 27.7367 187.176 27.7551L187.33 27.8265C187.531 28.5438 188.021 28.6805 188.297 29.2186L187.98 29.4849C187.841 29.2389 187.768 29.0368 187.525 28.9064C187.64 29.5279 187.814 29.7454 187.933 30.2136L187.556 30.5212C188.204 34.3699 187.028 44.1248 184.552 47.3171C181.887 50.7543 179.825 52.8086 180.759 57.4691C181.106 59.1958 182.184 64.083 181.205 65.7051C180.548 66.7921 178.472 67.1023 177.211 66.8343L176.988 66.7575L176.961 66.3843L177.255 66.509L177.349 66.4244L177.267 65.9711C177.732 65.9183 180.612 66.0517 180.601 65.3367C180.556 62.6311 179.89 59.8388 179.685 57.1213C179.401 53.3655 180.656 51.4279 182.833 48.5627C185.945 44.3035 186.525 37.9284 186.964 32.805C187.011 32.2569 186.982 29.7838 186.631 29.4031L186.551 29.3179L186.338 29.3011Z" fill="#F0F4FF"/>
<path d="M187.172 27.7554L187.326 27.8268C187.527 28.5442 188.017 28.6808 188.293 29.219L187.976 29.4852C187.837 29.2392 187.764 29.0372 187.52 28.9068C187.636 29.5282 187.81 29.7458 187.929 30.2139L187.552 30.5215C187.383 29.5875 187.075 29.2298 187.01 28.1553C187.001 27.9235 187.011 28.0164 187.172 27.7554Z" fill="#25252F"/>
<path d="M186.336 29.3011C186.469 29.0036 186.585 28.2865 186.673 27.913C186.956 27.6812 186.797 27.7367 187.174 27.7551C187.014 28.0161 187.004 27.9232 187.012 28.155C186.928 28.791 186.981 28.8833 186.549 29.3179L186.336 29.3011Z" fill="#F0F4FF"/>
<path d="M137.092 33.1994C139.964 32.9615 142.941 32.9454 145.85 32.6913C150.854 32.2541 155.877 31.1076 160.446 29.0117C162.27 28.1957 164.037 27.2612 165.737 26.2143C166.198 25.926 167.932 24.7044 168.257 24.623L168.269 24.7096C158.184 33.338 147.233 34.0586 134.592 33.6705C133.507 33.7232 132.045 33.9177 131.016 33.8733L131.065 33.8099C132.676 33.3285 135.374 33.2447 137.092 33.1994Z" fill="#F0F4FF"/>
<path d="M134.592 33.6703C133.507 33.723 132.045 33.9174 131.016 33.8731L131.065 33.8097C132.676 33.3283 135.374 33.2445 137.092 33.1992C137.492 33.2524 137.56 33.1944 137.835 33.4052C137.405 33.6588 135.359 33.5268 134.592 33.6703Z" fill="#F0F4FF"/>
<path d="M108.875 72.4854C110.254 72.5632 112.511 74.3146 113.544 75.2011C118.362 79.3339 120.869 84.3002 122.569 90.3066C122.815 91.1784 123.315 93.0171 123.366 93.8682C122.937 93.2731 122.185 90.3558 121.675 89.3068C117.829 81.3938 115.715 77.8508 108.875 72.4854Z" fill="#F0F4FF"/>
<path d="M82.9375 86.8358C85.6808 78.2286 94.0176 71.135 103.203 70.9793C103.641 70.9718 104.622 70.8944 104.957 71.1648C104.629 71.4671 103.91 71.4145 103.461 71.4646C93.3282 72.5959 87.3237 78.4281 83.1901 87.2208L82.9375 86.8358Z" fill="#F0F4FF"/>
<path d="M163.583 42.2251C172.636 41.7829 182.136 37.7281 186.337 29.3013L186.55 29.318L186.631 29.4032C183.692 35.3965 179.254 39.1405 172.893 41.3295C168.927 42.6663 164.704 43.0713 160.553 42.5126C159.915 42.5509 158.311 42.3596 157.695 42.2242L157.786 41.9581C159.102 42.3241 162.077 42.1754 163.583 42.2251Z" fill="#F0F4FF"/>
<path d="M157.786 41.958C159.102 42.324 162.077 42.1754 163.583 42.225C162.552 42.4823 161.121 42.1138 160.553 42.5126C159.915 42.5509 158.311 42.3596 157.695 42.2241L157.786 41.958Z" fill="#F0F4FF"/>
<path d="M107.547 100.294C110.309 104.39 113.411 108.096 117.414 111.086C120.604 113.469 126.179 117.144 127.602 120.963L127.554 121.037C126.964 120.475 126.492 119.781 125.937 119.175C123.257 116.252 120.049 114.228 116.947 111.832C113.265 108.987 109.913 104.793 107.548 100.784L107.547 100.294Z" fill="#F0F4FF"/>
<path d="M121.398 81.9048C121.898 82.5841 122.725 85.1306 123.068 86.0614C125.726 93.2754 127.648 101.448 127.622 109.18C127.265 108.768 127.058 106.759 126.979 106.172C126.072 99.4765 124.553 92.8794 122.59 86.4158C122.182 85.0715 121.611 83.2765 121.398 81.9048Z" fill="#F0F4FF"/>
<path d="M119.143 27.5396L119.851 27.6574C119.924 28.0994 120.057 29.1943 120.218 29.5067L120.11 29.7099C120.212 29.7936 120.332 29.8964 120.436 29.9735C120.967 32.3586 121.796 35.0685 122.263 37.3954C123.095 41.544 122.169 42.6927 125.395 45.9576C124.581 45.4859 123.782 44.7808 123.384 43.9269C121.967 40.8881 120.91 37.3368 120.025 34.1425L119.461 31.7155C119.175 30.7429 118.715 28.493 119.143 27.5396Z" fill="#F0F4FF"/>
<path d="M131.633 136.75L132.165 136.428L132.203 136.588C132.409 137.435 132.734 138.37 133.04 139.183C134.618 143.38 135.888 147.715 135.941 152.232C135.95 153.113 135.935 154.718 135.574 155.535L135.415 155.655C135.152 155.589 135.169 155.596 134.985 155.399C135.195 154.938 135.149 155.129 135.056 154.576C135.112 154.485 135.211 154.337 135.206 154.221C134.942 149.005 133.853 143.97 132.259 139.005C132.078 138.442 131.942 137.076 131.633 136.75Z" fill="#F0F4FF"/>
<path d="M156.451 10.545C157.345 10.5328 158.242 10.5108 159.135 10.5479L159.139 10.6529C156.923 10.6449 155.417 10.8356 153.251 11.192C143.383 12.8155 135.45 17.7132 128.947 25.1894C127.304 27.0788 125.911 29.0329 124.45 31.0642L123.07 33.0171C123.757 31.2511 126.928 27.0644 128.238 25.4641C134.116 18.2867 141.985 13.197 151.125 11.2571C152.716 10.9193 154.807 10.6999 156.451 10.545Z" fill="#F0F4FF"/>
<path d="M133.195 132.02C135.328 132.244 137.59 133.878 139.085 135.33C142.525 138.668 143.781 142.986 143.805 147.687C143.495 147.425 143.191 144.41 142.975 143.702C141.713 139.571 139.183 135.9 135.548 133.492C134.844 133.026 133.759 132.595 133.195 132.02Z" fill="#F0F4FF"/>
<path d="M181.176 21.3843L181.274 21.4733C181.319 22.9672 177.898 26.8576 176.747 27.8786C172.279 31.837 166.337 34.4926 160.453 35.4908C159.076 35.7242 157.588 35.6611 156.202 35.6091L156.148 35.6005C156.309 35.4462 157.356 35.4701 157.688 35.4502C159.543 35.3248 161.38 35.0136 163.172 34.5214C168.97 32.9401 174.964 29.5961 178.863 24.9668C179.751 23.9121 180.488 22.5847 181.176 21.3843Z" fill="#F0F4FF"/>
<path d="M187.933 30.2139C187.814 29.7457 187.64 29.5282 187.525 28.9067C187.768 29.0371 187.842 29.2392 187.98 29.4852C190.35 34.934 190.631 38.8356 188.639 44.4758C187.377 48.0444 187.295 49.9998 188.157 53.6609C185.41 47.4655 189.216 43.8381 189.393 37.7808C189.487 34.5265 188.861 33.1091 187.933 30.2139Z" fill="#F0F4FF"/>
<path d="M187.328 27.8271C189.534 29.0294 191.162 32.0227 191.862 34.4529C192.808 37.7318 192.494 41.7926 190.821 44.8523C190.792 44.8885 190.764 44.9247 190.734 44.9609C190.654 44.6188 190.988 43.8286 191.12 43.4616C192.638 39.2437 191.413 32.4698 188.295 29.2193C188.019 28.6811 187.529 28.5445 187.328 27.8271Z" fill="#F0F4FF"/>
<path d="M142.098 36.7392C144.484 36.6496 146.163 39.7901 145.049 40.2219C144.905 40.0806 144.883 40.0959 144.821 39.9115C144.387 38.6008 143.237 37.2743 141.715 37.4705C140.827 37.5848 140.435 38.0066 139.922 38.6997C139.402 39.6175 139.261 40.034 139.022 41.0693C138.887 41.6588 138.828 42.7694 138.575 43.2026C138.174 42.4711 138.688 39.9625 139.083 39.1652C139.78 37.7579 140.7 37.244 142.098 36.7392Z" fill="#F0F4FF"/>
<path d="M122.609 36.7129C123.11 36.8352 124.615 37.8257 125.251 38.1072C127.522 39.1128 129.872 39.0474 132.254 38.4982C132.908 38.3472 133.485 38.092 134.084 37.9641L133.997 38.1224C133.874 38.2013 133.749 38.2775 133.622 38.3509C131.482 39.5861 128.869 39.7358 126.469 39.1852C125.25 38.9055 123.234 37.8281 122.609 36.7129Z" fill="#F0F4FF"/>
<path d="M117.368 41.4048L117.507 41.5397C118.136 44.7078 115.912 50.966 112.064 50.3262L111.852 50.1701L111.907 50.047C116.227 49.3033 116.983 45.0127 117.368 41.4048Z" fill="#F0F4FF"/>
<path d="M185.299 20.6919C186.904 22.7115 188.677 24.5258 188.059 27.3814L187.914 27.4624C187.315 26.8239 186.278 21.9503 185.459 21.7339L185.214 22.0524C185.001 21.8591 184.973 21.6259 184.891 21.3419C185.272 21.226 185.22 21.0388 185.299 20.6919Z" fill="#F0F4FF"/>
<path d="M114.386 36.6362L114.479 36.6767C114.309 36.772 114.141 36.8693 113.973 36.9689C110.147 39.2511 106.608 44.601 109.303 48.9407C108.858 48.71 108.5 48.2925 108.309 47.8281C106.649 43.8 110.639 38.0536 114.386 36.6362Z" fill="#F0F4FF"/>
<path d="M134.988 155.399C133.806 154.224 133.104 148.38 132.945 146.549C133.301 147.566 133.626 149.451 133.88 150.558C134.228 152.078 134.557 153.111 135.06 154.576C135.152 155.128 135.198 154.938 134.988 155.399Z" fill="#F0F4FF"/>
<path d="M147.938 38.2344C149.838 38.9733 151.643 39.9803 153.664 40.4608C154.537 40.668 155.426 40.8193 156.308 40.9742L156.301 41.1052C153.874 41.2019 150.075 39.5844 147.867 38.6124L147.938 38.2344Z" fill="#F0F4FF"/>
<path d="M139.174 26.3983C137.646 27.0596 135.418 27.6805 133.785 28.3162C133.075 28.5922 131.695 29.2276 131.188 29.403C132.066 28.5378 137.393 26.7379 138.79 26.2422L139.174 26.3983Z" fill="#F0F4FF"/>
<path d="M113.417 94.7905C112.831 94.1484 110.073 91.254 109.938 90.7476C110.409 91.0265 113.703 94.5181 114.1 95.0213C113.976 95.0749 114.06 95.0464 113.838 95.0628L113.542 94.7281L113.417 94.7905Z" fill="#F0F4FF"/>
<path d="M82.9352 86.8354L83.1878 87.2205C82.6631 88.4905 82.1643 89.8687 81.6696 91.1595L81.5249 91.2284L81.5787 91.3443L81.5277 91.4143L81.5156 91.4154L81.6102 91.2776L81.5279 91.1901C81.8732 89.6576 82.3853 88.2979 82.9352 86.8354Z" fill="#F0F4FF"/>
<path d="M176.964 66.3843C176.43 65.0651 175.985 65.4874 175.703 64.8429C175.908 64.6431 175.782 64.7187 176.143 64.704C176.771 64.9536 176.991 65.3962 177.27 65.9711L177.352 66.4244L177.257 66.509L176.964 66.3843Z" fill="#F0F4FF"/>
<path d="M133.405 68.4111L133.755 68.4846C133.386 69.3419 132.938 70.3225 132.227 70.9425C132.394 70.2712 133.107 69.26 133.405 68.4111Z" fill="#F0F4FF"/>
<path d="M190.788 63.855C191.663 63.8045 191.738 63.8077 192.445 64.3037L192.43 64.3959C191.721 64.4609 191.616 64.0294 190.734 64.048L190.788 63.855Z" fill="#F0F4FF"/>
<path d="M121.742 41.1748L122.053 41.2149L122.095 41.4042C121.853 41.7244 121.661 41.9419 121.391 42.2405L121.23 42.2857L121.164 42.163C121.322 41.6874 121.433 41.587 121.742 41.1748Z" fill="#F0F4FF"/>
<path d="M107.547 100.785C107.063 100.035 106.87 99.5665 106.555 98.7417C106.938 99.2974 107.219 99.7032 107.546 100.295L107.547 100.785Z" fill="#F0F4FF"/>
</svg>
