<svg width="250" height="179" viewBox="0 0 250 179" fill="none" xmlns="http://www.w3.org/2000/svg">
<g clip-path="url(#clip0_3616_12743)">
<path d="M139.878 15.7798C139.898 15.8201 139.916 15.8605 139.935 15.9009C144.224 21.3156 147.51 30.7621 145.499 37.715C143.396 42.7988 145.125 46.2699 148.239 50.4286C148.666 50.9982 149.62 52.2643 149.823 53.0095C150.307 54.7788 149.27 56.2752 147.703 57.0742C146.958 57.4541 145.312 57.8883 144.975 58.6842C144.693 60.043 145.718 61.0874 145.532 62.5315C145.367 63.8153 143.96 64.0205 143.761 64.6416C143.917 65.5235 144.214 66.312 144.053 67.2153C143.895 68.0909 142.05 68.8004 141.913 69.5414C141.353 72.5699 142.212 75.3806 139.002 77.4785C133.842 80.8504 126.704 75.4873 121.696 78.1502C119.687 79.5331 116.58 86.8659 115.743 89.337C120.054 91.8391 123.307 93.8897 126.155 98.172C130.451 104.631 133.064 112.068 136.292 119.071C140.478 128.154 145.362 136.777 150.961 145.057C151.975 146.47 152.952 148.71 154.103 149.95C155.631 151.596 158.3 151.658 158.711 154.507C159.369 159.087 161.742 159.264 165.595 161.103C167.938 162.228 170.253 163.409 172.539 164.646C176.291 166.693 180.42 169.809 183.918 172.315C186.373 174.074 191.443 177.052 193.388 179.184C192.376 179.237 190.447 179.453 189.583 178.981C183.45 175.637 178.212 170.934 172.181 167.412C169.977 166.125 167.738 164.907 165.471 163.734C163.387 162.615 160.582 161.582 158.789 160.056C157.108 158.626 156.946 155.963 156.079 153.99C155.154 153.475 153.795 152.762 153.087 152.004C151.456 150.26 150.319 147.871 149.07 145.834L141.363 133.267C141.923 135.01 142.665 136.844 143.116 138.595C144.054 142.23 144.581 146.047 144.971 149.777C145.627 156.052 146.528 162.293 147.437 168.535C147.547 169.293 147.623 170.178 147.615 170.944C149.982 172.448 152.083 173.888 154.521 175.328C156.519 176.51 159.23 177.897 161.077 179.173C156.854 179.398 156.875 179.542 153.17 177.364C151.323 176.283 149.506 175.153 147.72 173.975C146.932 173.461 145.266 172.258 144.503 171.893C140.86 170.15 139.186 171.205 138.391 166.468C133.059 166.543 129.357 168.869 125.484 172.496C124.589 173.335 123.567 174.679 123 175.78C126.036 175.235 127.612 174.145 130.216 172.53C131.067 172 131.87 171.434 132.8 171.06C130.904 173.271 126.861 175.963 123.889 176.519C123.218 176.644 122.208 176.079 122.435 175.427C123.335 172.847 125.984 170.596 128.118 168.984C131.295 166.77 134.418 165.513 138.235 165.796L138.357 165.682C137.62 163.382 127.387 162.082 125.096 161.658C119.395 160.601 110.265 157.851 106.811 152.982L106.968 153.055C108.22 153.654 109.828 154.894 111.062 155.673C113.267 157.068 115.312 157.882 117.715 158.77C122.61 160.581 128.692 160.784 133.424 162.56C131.469 158.766 132.052 156.565 129 152.732C126.572 149.601 123.546 147.042 120.787 144.221C114.458 137.748 107.905 130.763 104.019 122.498C103.501 121.398 102.533 119.021 103.53 118.05C104.216 117.845 104.772 118.075 105.392 118.428C109.557 120.81 113.329 124.697 115.599 128.897C114.501 127.97 113.174 126.266 112.188 125.144C110.434 123.151 108.46 121.362 106.304 119.813C105.682 119.372 104.71 118.655 103.953 118.658C102.421 119.669 107.577 126.856 108.475 128.151C112.645 134.168 117.983 138.8 122.86 144.117C120.141 138.222 118.908 133.24 116.766 127.304C113.955 119.519 108.396 110.349 102.462 104.587C101.167 103.329 98.8223 101.74 97.287 100.66C98.2828 100.948 99.653 101.356 100.543 101.936C106.569 105.909 111.096 111.974 114.608 118.181C119.421 126.688 121.09 136.33 125.411 145.017C127.225 148.663 131.319 151.214 132.86 155.257C133.59 157.173 134.07 158.973 134.658 160.925C138.543 162.77 140.601 162.546 140.713 167.501C141.147 168.105 141.241 168.232 141.808 168.708C143.815 169.046 144.053 169.016 145.785 169.984C144.596 165.13 144.116 159.228 143.408 154.233C142.595 148.501 142.388 142.615 140.564 137.022C138.711 131.38 136.034 125.522 133.332 120.228C132.005 117.629 128.857 111.712 128.14 109.098C129.849 110.876 132.977 116.509 134.225 118.784C133.65 116.778 131.973 113.632 131.056 111.61C127.391 103.536 124.32 96.5878 116.375 91.7895C117.983 94.1713 120.401 97.4934 120.006 100.504C119.802 102.058 118.09 101.968 117.008 101.416C110.013 97.8407 104.778 91.4409 98.2665 87.1512C95.9171 85.6026 93.4225 84.1719 90.8584 83.0584C88.4461 82.0066 85.6756 82.2087 83.7044 80.7322C81.6499 82.9227 79.345 86.6736 77.4778 89.2489C75.0466 92.6021 72.2292 96.2008 70.281 99.8181C66.3998 107.024 64.5227 115.594 63.1965 123.619C62.3999 128.438 61.5905 133.726 61.8041 138.62C62.0382 143.983 62.2938 150.409 62.5898 155.618C62.7726 158.836 63.8943 176.891 63.0361 178.996L62.7909 179.206L62.5316 179.137C61.7367 177.365 61.3262 167.522 61.1342 165.01C60.7234 158.844 60.1543 152.657 59.8847 146.483C59.7063 142.396 59.2533 137.778 59.5899 133.721C60.3766 124.244 62.083 113.343 65.4679 104.464C66.4397 101.933 67.6069 99.4819 68.9591 97.1336C70.6454 94.2631 73.0058 91.1879 75.0264 88.5257C76.891 86.0699 80.3095 80.5913 82.6637 78.9325C83.4326 78.8531 84.2835 78.7455 85.0468 78.7218C87.8347 74.4138 90.558 70.2131 91.117 64.9015C89.601 65.9194 87.6552 67.0978 86.613 68.5897C85.7682 69.7989 85.144 71.6123 84.6166 73.0124C84.5526 73.0473 84.4886 73.0823 84.4245 73.1174C84.2595 72.9178 84.1445 72.7548 84.2187 72.4698C84.915 69.793 85.9769 67.2322 88.3269 65.5893C88.8316 65.2365 89.4156 64.9939 89.7586 64.5745C89.5231 64.4614 89.6488 64.4779 89.3802 64.5392L89.0649 64.2466C88.692 63.9741 87.6072 63.7176 87.114 63.5095C81.9163 61.3166 80.9804 57.0667 80.9385 52.0348C79.8247 56.5406 77.7137 60.7015 80.2071 65.0552C80.3789 65.3552 80.8458 66.1982 80.8458 66.4588C78.5822 67.3617 77.2947 63.0099 76.5885 61.5669C75.5835 59.5133 78.3553 49.93 79.6517 49.1837C80.0275 50.3395 78.7286 53.5321 78.381 54.8132C77.5966 57.7045 77.3562 59.7237 78.0503 62.6735C78.0449 58.2881 78.8053 55.5196 80.2931 51.4407C81.0596 49.3387 80.0679 46.6212 79.0753 44.7574C78.9394 44.5025 78.9138 44.4657 78.8863 44.1426C79.6666 43.69 80.6451 45.0542 81.0229 45.5887C83.1083 48.539 82.3596 51.6409 82.951 54.8928C83.1694 56.1251 83.6189 57.3051 84.2759 58.3703C85.9954 61.1132 88.6029 62.0919 91.5975 62.7717C93.535 61.5785 93.9373 60.6915 94.7875 58.6471C95.0563 61.4103 94.49 61.9569 92.6607 63.9087C92.3247 69.9236 91.004 74.4906 86.8347 79.1184C88.5864 79.6549 89.9622 79.9376 91.7219 80.6537C98.6874 83.4874 104.021 88.0283 109.483 93.0325C112.105 95.4366 115.425 98.3134 118.552 99.9533C117.65 97.1076 116.001 94.9193 114.718 92.2299C114.485 93.1218 114.29 94.2544 114.072 95.196C114.001 94.0894 113.884 92.5425 114.017 91.4459C114.421 88.1151 116.083 84.6919 117.417 81.826C121.392 73.2845 125.014 76.1407 132.566 77.1462C134.067 77.346 135.925 77.5236 137.38 76.9672C138.353 76.5948 138.938 76.161 139.529 75.3655C141.122 73.2213 140.148 71.2804 140.783 69.1046C141.034 68.2444 142.462 67.4144 142.824 66.5324C143.154 65.7287 142.818 65.0046 142.514 64.2459C143.283 63.478 143.853 62.8186 144.559 61.9878C143.274 57.4292 143.933 57.3954 147.685 55.7861C148.243 55.6014 148.944 54.0207 148.699 53.5687C146.924 50.2833 144.094 47.1953 143.36 43.3916C143.005 41.551 144.363 38.3346 144.645 36.3837C145.473 30.6466 143.289 21.9812 139.921 17.3716C137.779 24.0595 130.064 31.6658 124.043 35.25C121.191 36.9474 119.917 36.5297 117.434 39.3344C114.905 42.1922 110.17 43.3401 106.964 40.8109C107.099 41.5555 107.256 42.3525 107.047 43.0898C106.338 43.2073 105.133 39.3245 102.869 38.9843C96.572 38.0022 95.6898 46.2263 98.481 50.1349C99.7644 51.9323 102.422 55.1553 104.65 55.8111C105.989 56.2053 106.663 55.1854 107.635 54.5328C108.358 55.1764 107.569 56.4529 106.999 56.905C103.871 59.3871 100.508 55.1734 98.6245 53.232C98.6307 54.6699 98.7164 56.1369 99.1545 57.5104C100.69 62.3229 102.886 65.5822 100.957 70.8369C100.201 72.8959 99.0439 73.9715 97.0592 74.8664C100.437 72.2906 100.345 67.5895 98.6466 64.0525C97.5057 61.6763 95.9521 59.5291 95.288 56.9253C94.7756 54.9164 94.5603 52.8048 94.8913 50.7455C95.0416 49.8267 95.3129 48.7992 95.4162 47.8636C95.3089 45.1534 95.0055 42.5243 96.4622 40.062C98.2965 36.9614 101.883 36.0286 104.902 38.0155C105.922 38.8769 106.188 39.3054 106.865 40.4578C111.03 42.7719 114.801 40.8652 117.958 37.9011C116.694 38.3775 114.217 39.0727 112.862 38.8455L113.2 38.7548C111.295 38.844 109.128 39.1255 107.269 39.0488C110.513 38.2124 113.159 37.871 116.427 36.7595C119.227 35.8318 121.909 34.5794 124.418 33.0278C129.336 29.9349 135.086 24.0556 138.048 19.0417C138.667 17.9931 139.246 16.8384 139.878 15.7798Z" fill="#F0F4FF"/>
<path d="M95.9245 48.9141C96.2069 49.2067 97.4775 51.7778 98.0752 52.5779C97.8447 55.2531 97.9252 56.651 98.7196 59.2701C99.4016 61.519 100.746 63.8011 100.567 66.1623C98.0879 58.8156 94.8445 57.7347 95.9245 48.9141Z" fill="#25252F"/>
<path d="M73.8548 31.1471C74.6508 29.7329 75.1835 29.5727 76.7237 28.9867C76.8046 28.956 77.4112 28.7368 77.4106 28.7387C78.2042 26.3464 79.0535 21.6934 79.865 19.4867C82.9475 11.106 91.2948 3.57406 99.8524 1.32451C108.374 -0.915358 118.313 -0.22278 126.566 2.71103C128.482 3.39232 130.381 4.01953 132.165 5.00611C133.962 6.00026 138.212 9.54279 138.822 11.4443C148.443 13.8232 151.854 24.0594 148.712 32.6C148.026 34.4657 147.794 35.7717 146.593 37.4429C148.359 31.2827 148.129 25.3735 144.213 19.9574C143.796 19.3817 143.062 18.7846 142.79 18.1552C143.028 18.08 143.146 18.1554 143.372 18.303C147.39 20.9401 148.111 26.3855 148.574 30.5727C149.049 27.9314 149.276 25.7446 148.622 23.0801C147.398 18.1 143.94 14.2509 139.215 12.3322L138.981 12.387C138.919 12.6582 138.939 12.6892 138.784 12.9157C138.132 12.3813 137.826 11.7549 137.244 11.237C133.926 8.27933 130.896 6.62262 126.718 5.15212C119.809 2.71984 112.787 1.49632 105.458 2.28653C97.6159 3.09559 90.7098 6.61828 85.7706 12.8187C83.3524 15.8544 81.6637 19.0213 80.7574 22.8074C80.1562 25.3194 79.8423 27.4479 78.7042 29.7851C78.1718 30.8781 78.371 33.8185 78.5107 35.0895C78.6357 36.1984 78.8349 37.2977 79.107 38.3799C79.3216 39.2366 80.4557 42.6494 80.3932 43.176L80.2322 43.3168C79.8155 43.1911 79.108 41.9977 78.8937 41.5687C77.2275 38.2326 76.8921 34.1356 77.2003 30.4952C76.7545 30.7604 76.227 31.0548 75.8145 31.3567C75.0314 34.0832 75.9239 37.9695 77.1258 40.4802C77.3779 41.007 78.3705 42.8688 78.4632 43.2753C76.9304 43.2617 75.4309 39.9646 75.047 38.6626L74.7449 38.5677C75.1595 39.9037 75.4879 40.9454 76.2046 42.161C76.6296 42.8816 78.0083 44.0483 78.0783 44.5672C77.7079 44.8679 77.9196 44.7596 77.3879 44.8279C76.0433 44.3753 75.077 43.1303 74.459 41.8981C72.9129 38.8157 72.5615 35.2702 73.4725 31.9441C67.1525 29.7617 60.2934 32.5026 57.8601 39.006C57.2509 40.6338 56.9628 42.4572 56.3874 44.0902C55.5986 41.408 56.0574 38.8851 57.3737 36.4396C59.0033 33.3775 61.8076 31.1094 65.1426 30.1559C67.7683 29.3911 71.6188 29.362 73.8548 31.1471Z" fill="#F0F4FF"/>
<path d="M74.7417 38.5678C74.5902 37.9949 74.5476 37.9004 74.5556 37.3213L74.6984 37.3889C74.8471 37.8393 74.9333 38.2001 75.0437 38.6627L74.7417 38.5678Z" fill="#F0F4FF"/>
<path d="M63.842 36.4428C64.4557 36.3941 65.0938 36.3255 65.2371 37.051C64.9069 38.0155 63.1041 39.1492 62.3817 39.9604C57.9796 44.9044 57.4325 51.2865 63.1174 55.3223C62.8023 54.7749 62.3239 53.9874 62.1317 53.4041C60.366 48.0436 62.5466 41.2292 68.0736 39.0602C68.7566 38.7921 70.1253 38.2876 70.802 38.4377C70.852 38.6991 68.4788 39.7827 67.9037 40.1474C65.7093 41.4553 64.4122 43.3087 63.455 45.6285C62.5712 47.7702 61.4081 54.6504 64.3616 55.6818C64.3957 55.643 64.4299 55.6042 64.464 55.5655C64.1508 55.0087 63.715 54.178 63.4951 53.6138C62.8245 51.8946 62.8099 50.7465 63.0328 48.972C63.6881 50.5302 63.9959 52.3797 64.9709 53.7644C67.2761 57.0384 71.4966 54.8078 72.8403 51.8762C73.3736 50.7128 73.4973 49.8989 73.6259 48.6323C73.7085 47.8559 73.4208 46.5673 73.9882 46.1161L74.2056 46.1982C75.0399 47.8512 74.2155 52.1898 72.9913 53.668C71.5298 55.4326 70.2465 55.811 68.14 56.1139C69.2252 56.3819 70.3859 56.6806 71.5045 56.6385C72.86 56.5933 74.135 55.9842 75.0223 54.9584C76.7867 52.9295 76.6921 50.3294 76.493 47.8525C76.7103 48.4786 76.8929 49.0731 77.0981 49.7203C78.1678 53.108 76.393 57.7356 72.6918 58.5742C70.0908 59.1635 67.7969 58.15 65.6687 56.788C65.1308 56.887 64.471 57.0133 63.9297 57.0096C59.391 56.9786 56.9798 52.2294 56.9829 48.2646C56.9863 43.8822 58.6952 41.3003 61.5812 38.3319C58.2024 40.4941 58.304 41.3896 56.6172 44.8765C57.4207 40.2874 59.359 37.8852 63.842 36.4428Z" fill="#F0F4FF"/>
<path d="M72.9375 138.629C73.6141 139.085 79.9518 149.562 80.8734 151.089C86.8825 161.047 93.4581 170.183 100.868 179.192C99.7762 179.233 98.7366 179.22 97.6464 179.209C94.352 174.965 90.3792 168.88 86.6287 165.337C85.4991 164.254 84.2582 163.408 83.0496 162.442C78.9729 159.183 72.7867 154.862 70.9922 149.83C71.6647 150.391 72.3942 151.193 72.9415 151.88C76.7393 156.655 81.7618 159.816 86.3674 163.772C84.1386 160.378 73.0123 141.392 72.9375 138.629Z" fill="#F0F4FF"/>
<path d="M87.7448 98.9757C89.1018 98.8579 89.7459 98.9112 91.0842 99.1159C90.1563 99.4409 89.1013 99.7486 88.1538 100.036C75.5301 103.862 71.7452 116.58 71.5231 128.418L71.5502 131.316C68.7141 118.864 74.2572 102.45 87.7448 98.9757Z" fill="#F0F4FF"/>
<path d="M103.759 9.75342L103.937 9.77637C103.803 9.95674 101.001 11.046 100.6 11.2295C99.3818 11.7907 98.1909 12.4092 97.0314 13.0831C94.3895 14.6015 91.9451 16.44 89.7534 18.5572C85.6658 22.5529 80.8946 29.9325 79.4265 35.5018L79.3599 35.5764L79.2812 35.452C79.3944 33.0892 80.6836 30.1045 81.7629 28.0437C85.7188 20.4898 91.599 14.5166 99.5347 11.1681C100.839 10.6176 102.392 10.1756 103.759 9.75342Z" fill="#F0F4FF"/>
<path d="M104.906 38.0156C105.433 37.717 106.338 37.57 106.957 37.359C108.334 36.8824 109.683 36.3266 110.997 35.6946C115.693 33.4226 119.864 30.1944 123.241 26.2169C124.215 25.0849 125.169 23.6734 126.074 22.6631C124.204 28.7725 111.503 38.5238 104.906 38.0156Z" fill="#F0F4FF"/>
<path d="M154.86 157.089L154.972 157.203C154.94 157.655 154.42 158.496 154.189 158.971C152.96 161.499 152.155 164.331 151.656 167.094C153.869 165.022 154.529 163.143 157.398 161.469C157.145 161.963 156.912 162.309 156.61 162.765C155.46 164.309 154.228 165.934 152.88 167.313C152.409 167.795 151.749 168.483 151.084 168.066C150.895 167.773 150.869 167.558 150.888 167.21C151.087 163.776 152.335 159.507 154.86 157.089Z" fill="#F0F4FF"/>
<path d="M108.398 60.5688C108.619 60.8117 109.47 62.809 109.675 63.2894C111.8 68.2697 117.297 71.3453 121.828 74.1242C120.213 73.7952 117.46 72.3236 116.002 71.4273C112.243 69.1181 108.632 65.2231 108.398 60.5688Z" fill="#F0F4FF"/>
<path d="M96.977 25.4165L97.0133 25.4279C96.7984 25.6707 91.7702 28.0327 90.839 28.593C87.041 30.8779 83.9435 34.0367 80.3273 36.555L80.2582 36.5115L80.2422 36.3697C84.1577 31.6118 91.0619 27.1195 96.977 25.4165Z" fill="#F0F4FF"/>
<path d="M80.7812 43.479C82.2667 43.6096 83.1773 46.2374 83.893 47.5803C85.005 49.7772 86.1705 52.1344 88.1393 53.699C89.0271 54.4046 90.1531 54.9413 90.9798 55.7371C85.9682 54.3289 84.4329 50.5936 82.3371 46.2509C81.9435 45.4353 80.9988 44.2974 80.7812 43.479Z" fill="#F0F4FF"/>
<path d="M117.797 39.7451L117.901 39.9677C117.36 42.088 115.098 43.5296 113.057 44.0678C111.385 44.5088 110.023 44.1448 108.583 43.2688C108.239 43.0125 108.133 43.0376 108.078 42.7276C108.587 42.5917 110.172 43.1317 110.921 43.2137C114.138 43.5653 115.636 41.4259 117.797 39.7451Z" fill="#F0F4FF"/>
<path d="M93.344 84.6699L93.4334 84.7316C93.3303 85.3588 92.6954 86.8474 92.4462 87.5173C91.9477 88.8905 91.4808 90.2737 91.0459 91.668C90.3828 93.8166 90.1013 95.8907 89.5398 97.7453C88.2564 96.1351 91.5459 86.2782 93.344 84.6699Z" fill="#F0F4FF"/>
<path d="M81.5156 40.833C83.8978 41.6608 86.2052 44.2308 89.1364 44.3989C89.5569 44.4229 91.9624 44.6499 92.0821 44.7272L92.0198 44.8848C88.8502 46.1233 83.0172 43.8104 81.5156 40.833Z" fill="#F0F4FF"/>
<path d="M83.1094 69.4897C83.7696 65.8765 85.7209 64.9673 89.0631 64.2466L89.3785 64.5391C89.0759 64.7734 88.132 65.1616 87.7592 65.3173C85.206 66.384 84.3625 67.0629 83.1094 69.4897Z" fill="#F0F4FF"/>
</g>
<defs>
<clipPath id="clip0_3616_12743">
<rect width="250" height="179" fill="white"/>
</clipPath>
</defs>
</svg>
