<svg width="250" height="179" viewBox="0 0 250 179" fill="none" xmlns="http://www.w3.org/2000/svg">
<path d="M120.703 12.5059C125.928 7.01785 129.45 4.79028 136.526 2.15257C140.903 0.52084 147.143 -0.63049 151.744 0.378316C153.284 0.716196 154.659 1.61304 156.177 1.9045C157.105 2.08284 158.112 1.97592 159.056 2.03788C161.127 2.17369 163.408 2.92181 165.283 3.7841C167.217 4.6738 169.251 5.75834 170.848 7.17056C174.082 10.0284 181.33 20.4729 182.722 24.5465C183.198 25.9417 183.722 27.5178 183.838 28.9837C183.913 29.9494 183.784 30.9655 183.974 31.9148C184.266 33.3846 185.082 34.854 185.594 36.27C187.103 40.4426 187.038 46.0263 185.134 50.0637C184.226 51.9897 182.645 54.9204 180.501 55.6864C180.172 56.8619 179.925 57.6983 179.492 58.8447L180.603 59.4972C180.62 63.0557 180.07 65.5475 179.382 68.9811C179.069 70.5962 179.26 72.8572 178.692 74.3663C177.579 77.3248 176.191 79.9834 175.337 83.0586C179.556 88.9374 179.816 98.0403 180.413 105.087C180.517 106.313 180.363 108.063 180.516 109.236C180.844 111.761 181.784 114.085 182.125 116.666C182.793 121.715 182.826 126.878 183.59 131.9C183.808 133.336 184.915 136.243 185.472 137.714C186.275 139.839 186.744 141.407 187.376 143.576C186.386 146.383 187.867 147.114 188.103 149.643C188.357 152.375 187.194 155.389 186.113 157.853C184.073 162.503 182.081 167.445 178.974 171.524C177.314 173.701 172.811 175.952 170.006 176.207C165.877 176.234 160.135 170.839 157.17 168.289C152.875 164.596 152.465 161.647 150.971 156.52C150.72 155.657 150.72 154.311 150.49 153.732C149.851 152.004 148.103 149.515 147.855 147.755C147.531 145.443 147.983 142.432 149.388 140.575C149.425 140.527 149.354 139.617 149.33 139.481C147.843 131.148 147.47 122.658 146.215 114.306C145.992 112.888 145.694 111.482 145.322 110.095C144.668 107.705 144.461 108.18 144.328 105.477C141.672 107.36 138.478 108.732 136.346 111.067C135.664 111.813 135.209 112.93 134.739 113.801C133.02 116.983 132.121 120.378 130.782 123.712C129.651 126.524 128.398 129.302 127.31 132.14C124.658 139.057 122.055 145.812 118.958 152.555C122.85 157.731 117.848 160.484 114.682 163.85C114.365 164.187 113.867 165.25 113.637 165.717C111.646 169.77 108.949 173.538 105.787 176.765C105.024 177.541 103.869 178.34 102.97 179C104.264 176.306 106.732 173.53 108.481 171.067C110.211 168.699 111.538 166.088 113.112 163.624C113.834 162.493 114.944 161.54 115.824 160.527C116.763 159.448 117.656 158.345 118.662 157.327C117.981 157.109 116.951 156.764 116.353 156.362C114.343 154.922 112.057 152.604 110.407 150.766C107.012 146.985 98.7116 139.843 97.5039 135.019C96.9029 135.745 94.5061 138.579 94.2289 139.118C93.9571 139.647 93.8592 140.279 93.6856 140.846C93.2938 142.124 89.2275 145.496 88.0989 146.961C87.0937 148.266 86.4238 150.631 84.9734 151.401L84.8618 151.93C84.6844 151.931 84.5726 151.93 84.3934 151.92C80.2816 156.335 78.4695 162.414 76.3127 167.794C76.5451 164.823 77.1467 161.064 78.7085 158.442L78.4802 158.42C78.3153 158.802 78.0403 159.318 77.833 159.682C75.8473 163.181 74.5338 166.863 73.6292 170.772C73.4001 171.762 73.2957 173.094 72.9457 174.042L72.7863 174.105C72.4633 173.86 72.1955 173.427 72.1779 173.03C71.9271 167.388 75.2416 160.526 78.195 156.123L77.8608 155.975C74.6768 158.582 71.9722 162.599 70.1002 166.226C69.8402 166.729 68.9414 169.204 68.6343 169.305C67.8403 168.902 68.974 166.5 69.2032 165.89C70.8404 161.527 73.7044 157.757 77.2474 154.747C79.5526 152.788 82.3713 151.45 84.5036 149.301C84.6697 149.132 84.9677 148.323 85.0662 148.063C81.0947 149.344 75.5376 153.083 72.6323 155.987C72.3998 156.22 72.0227 156.59 71.7246 156.581L71.6506 156.361C71.9041 155.448 72.6895 154.855 73.321 154.177C75.9319 151.376 79.3613 149.217 82.901 147.798C83.5015 147.557 84.7527 147.421 85.3978 147.332C85.9973 146.843 86.7839 145.552 87.492 144.764C88.9603 143.083 90.7484 141.635 92.1465 139.909C92.1667 139.884 92.7392 137.658 92.7381 137.622C92.4189 137.714 92.5568 137.737 92.289 137.656C91.9673 136.831 92.2241 133.924 92.2092 132.842C92.1677 129.846 91.296 127.797 92.7442 125.015C92.1143 120.492 87.1262 114.636 84.3963 111.187C83.1129 109.55 81.8491 107.899 80.6049 106.233C79.5906 104.886 76.8736 101.65 77.3624 99.9718C77.8118 99.4708 78.5728 99.6892 79.0635 100.02C82.0938 102.059 85.7871 104.863 86.9874 108.419C86.2327 107.652 85.5533 106.823 84.8119 106.052C82.8239 103.952 80.5902 102.1 78.1587 100.532C80.3971 104.442 84.2977 108.627 87.1218 112.216C88.7475 114.281 90.5531 116.18 91.8515 118.539C91.8272 118.098 91.7966 117.658 91.7598 117.218C91.5389 114.639 90.6285 110.67 89.9139 108.124C88.9679 104.754 87.2746 101.079 85.9192 97.8145C83.9717 93.1249 82.1971 88.1539 79.3177 83.9395C78.2758 82.4145 76.8775 81.3081 75.4757 80.1343C77.8526 80.82 79.5292 82.3739 80.8993 84.3973C83.511 88.2705 85.2454 92.5872 87.0691 96.8608C88.9026 101.157 90.9468 105.411 91.9621 110.002C92.2789 111.434 92.2601 112.996 92.71 114.403C92.6807 111.704 92.7357 108.943 92.572 106.257C92.4149 103.677 91.9375 101.189 91.8754 98.5917C93.6391 102.796 94.2504 109.935 93.7359 114.474C93.5147 116.427 92.923 116.939 93.0206 119.251C93.1219 121.653 94.0323 121.92 94.3623 124.117C94.6434 125.33 93.5468 126.918 93.6496 127.996C93.9304 130.935 94.2571 133.76 93.8515 136.728C94.7438 135.678 95.9344 134.228 97.0229 133.397C97.1713 133.284 98.1811 133.031 98.6294 132.784C99.3757 131.699 100.363 129.809 101.029 128.621C102.426 126.156 103.81 123.682 105.181 121.202C108.825 114.616 112.675 108.033 115.97 101.27C116.282 100.629 116.817 99.497 116.945 98.8154C117.111 97.9332 115.158 97.2074 114.629 96.7705C112.258 94.5061 110.568 91.769 109.161 88.8313C108.028 86.5501 106.79 84.2787 105.619 82.0227C104.163 79.2148 99.1805 71.2142 102.657 68.5326C101.821 68.3915 101.111 68.2789 100.273 68.539C98.7575 69.0092 97.7362 69.8457 96.1412 70.2587C94.4633 70.6932 92.7789 71.1587 91.1062 71.6125C89.5257 72.0414 87.8835 72.6166 86.3008 73.0041C84.9173 73.3378 83.4898 73.4729 82.1058 73.7997C77.2691 74.9417 71.9392 76.8904 69.0379 81.1636C68.4455 82.0359 68.0534 83.2596 67.646 84.2354C66.9516 85.8989 66.2966 87.5867 65.7994 89.3176C64.3011 94.6867 63.7105 100.566 63.1731 106.104C62.8728 109.2 62.4924 113.28 62.5104 116.392C62.65 119.899 63.1858 123.385 63.2293 126.899C63.2644 129.737 63.2291 132.492 63.0427 135.325C62.8512 138.236 62.5856 141.339 62.8847 144.236C63.4368 149.586 64.5203 154.913 65.1106 160.264C65.4297 163.093 64.9101 165.828 65.0762 168.641C65.3124 170.634 65.9891 172.536 66.6526 174.418C66.8619 175.011 67.6644 176.735 67.4826 177.253L67.3107 177.228C65.6337 176.015 64.2197 172.782 63.6548 170.792C62.6561 167.272 63.7191 164.44 63.3209 161.063C62.9045 157.531 62.4274 153.947 61.9614 150.422C61.6384 147.976 61.2055 145.606 61.0523 143.135C60.8397 139.707 61.3252 136.392 61.6222 132.99C61.7932 130.786 61.8918 128.578 61.9178 126.368C61.9573 123.798 61.8593 120.95 61.7605 118.374C61.7135 117.149 61.2461 115.724 61.2325 114.36C61.1984 110.937 61.3772 107.425 61.7028 104.02C62.1415 99.4309 62.6704 93.9526 63.935 89.5392C64.6464 87.0563 66.9002 82.2218 68.1723 79.9685C70.2793 76.2361 76.4935 73.3875 80.5498 72.4035C82.1907 72.0054 84.3322 71.7257 85.9135 71.2932C88.5186 70.5808 91.0532 69.8644 93.6826 69.1925C94.2869 65.6726 92.6387 64.9981 92.5686 62.0009C92.4019 54.8673 99.9033 49.7534 103.949 45.2234C102.93 44.9107 102.113 44.4678 101.374 43.6785C99.3693 41.5378 98.8925 36.4507 98.996 33.7162C99.2893 27.3066 102.135 21.2784 106.903 16.9681C110.562 13.6018 113.282 13.0688 118.025 13.2466C116.253 8.71417 112.61 8.04272 108.583 10.2933C110.227 8.11256 112.902 6.35354 115.715 6.45079C119.312 6.57504 120.849 9.24195 120.703 12.5059Z" fill="#6572A4"/>
<path d="M77.8658 155.975C78.242 155.598 78.6052 155.215 79.0188 154.881C78.79 155.241 78.4568 155.804 78.1999 156.122L77.8658 155.975Z" fill="#F7F9FF"/>
<path d="M78.482 158.42C78.6551 158.046 78.8223 157.58 79.1563 157.376C79.1378 157.752 78.8975 158.101 78.7103 158.442L78.482 158.42Z" fill="#6572A4"/>
<path d="M110.842 36.7465C110.819 37.0089 110.801 37.2717 110.787 37.5347C110.754 38.1257 110.708 39.3449 111.096 39.7792C111.701 39.4217 111.712 37.3923 111.817 36.6502C112.44 32.2227 114.046 26.8595 115.777 22.7571C118.109 17.2299 123.269 11.1917 128.192 7.74493C130.297 6.27084 133.104 5.07729 135.461 4.13518C140.4 2.16042 145.609 1.07137 150.946 1.55314C151.846 1.63433 153.083 1.68841 153.898 2.03659C154.011 2.35136 154.197 2.79101 154.566 2.8346C157.975 3.2377 161.193 3.74951 164.329 5.27957C166.008 6.09943 168.587 7.55136 169.94 8.91453C173.892 12.9001 176.953 18.0217 179.956 22.745C182.035 25.9947 182.136 30.1825 183.077 33.5587C184.423 38.3933 185.372 41.7894 184.471 46.9361C184.124 48.9099 184.044 49.5135 183.143 51.4243C183.517 46.3728 182.121 43.2643 178.161 40.031C178.011 40.3258 177.855 40.6177 177.692 40.9065C178.385 41.6925 179.202 42.6696 179.828 43.4943C181.265 45.3887 182.809 50.2889 182.019 52.6003C181.802 52.2169 181.755 51.0609 181.639 50.5451C181.391 49.4395 180.851 48.1024 180.209 47.1723C178.586 44.8179 176.069 42.9301 174.14 40.832C173.296 39.9129 172.391 38.1281 171.676 36.9945C171.462 37.3429 171.411 37.4584 171.257 37.8401C172.668 44.1015 179.062 45.4985 180.128 51.4293C180.2 51.8245 178.93 57.5654 178.773 58.5734L178.722 58.7541C178.338 58.8446 178.17 58.8255 177.901 59.0612L177.98 59.2619C178.596 59.4947 179.099 59.2428 179.549 59.4685C179.61 59.6565 179.657 59.6879 179.554 59.8097C179 60.4647 178.585 60.4206 177.992 61.1754L177.904 61.291L177.755 61.2609C177.362 62.7822 177.355 64.4265 179.182 64.8052C178.97 66.6052 178.616 68.53 178.378 70.3429C178.236 71.4308 178.051 73.3792 177.779 74.3636C177.275 76.1871 176.029 78.2097 175.298 80.0121C174.505 81.9695 174.14 83.6475 173.552 85.6406C173.419 86.0901 172.577 87.2003 172.33 87.737C172.106 88.2264 171.952 89.1832 171.707 89.5372C171.138 90.3617 170.217 91.1672 169.528 91.9382C168.019 93.6407 166.557 95.3852 165.144 97.1686C163.427 99.3333 162.002 101.06 161.585 103.927C161.439 104.915 161.458 105.919 161.639 106.9C161.911 108.413 162.497 109.934 162.935 111.419C164.572 116.963 166.552 122.424 168.764 127.765C169.53 129.616 170.122 130.295 169.806 132.414C169.1 137.253 165.37 141.08 162.11 144.486C160.516 146.152 157.903 149.282 155.341 148.843C153.518 148.53 152.611 147.274 151.617 145.893C151.663 144.168 151.181 141.457 150.931 139.659L149.811 131.358C148.919 124.946 148.449 116.201 146.357 110.178L148.047 111.653C147.704 109.658 146.965 108.997 146.179 107.202C145.844 106.438 145.703 105.359 145.567 104.524C147.732 102.99 149.257 101.554 150.962 99.5171C151.929 98.3796 152.774 97.1444 153.485 95.8316C153.928 95.0008 154.701 93.3697 155.215 92.6671C158.643 87.9817 166.258 80.4983 165.678 74.248L165.67 74.1585C165.985 73.6432 166.597 73.4876 167.153 73.2954C167.602 73.3919 167.951 73.5169 168.387 73.4124C168.691 73.1652 168.61 73.3153 168.691 72.9804C168.199 72.045 166.757 72.3786 165.966 72.5215C166.281 69.9566 167.092 65.2059 169.044 63.5674C169.518 63.1427 170.619 62.9655 170.987 62.4624C173.015 59.6878 172.377 58.8064 176.041 58.281L176.111 58.0002C176.014 57.7895 175.96 57.642 175.698 57.5837C173.112 57.0103 171.317 59.0047 171.005 61.403C170.965 61.7152 170.812 61.9326 170.545 62.0842C170.457 62.0791 169.806 62.0382 169.774 62.0471C168.528 62.408 167.705 63.6473 166.996 64.6397C166.67 63.4944 166.344 62.9793 165.351 62.2848C164.608 61.7659 164.517 62.1873 164.122 62.0452C164.361 61.1832 164.894 60.8572 165.183 59.5797L165.214 59.4349C164.824 57.5568 163.621 56.5175 161.673 56.4912C159.48 56.4617 157.624 58.0802 156.14 59.5386L156.159 59.3402C156.353 57.5018 155.172 55.7944 153.229 55.8625C150.116 55.9717 147.388 58.5269 145.214 60.5377C142.632 62.9269 139.819 65.1212 137.316 67.5879C135.831 68.9064 134.449 71.0412 132.955 72.2796C131.378 73.5885 129.992 74.4877 128.466 75.9624C129.242 72.0555 131.464 69.3664 131.022 65.394C130.863 63.9664 130.09 61.8041 128.964 60.8112C128.485 60.3894 127.861 60.4658 127.277 60.5566C125.779 61.6075 127.168 64.6052 125.82 66.7456C125.481 66.3351 125.262 66.1044 124.878 65.7334C125.42 64.5814 126.46 62.3486 126.31 61.0487L126.183 60.9441C125.764 61.2184 125.184 62.9554 125.058 63.5169C124.479 66.1242 122.37 67.7875 121.293 70.0349C120.741 71.1895 120.6 72.7422 119.947 74.0711L119.557 74.0591C119.331 73.6976 119.23 73.1306 119.124 72.7009L119.428 73.0047L119.56 72.9174C119.642 72.5469 119.689 72.3955 119.82 72.0385C119.798 71.0306 119.511 69.3031 119.431 68.2603C119.348 67.1706 119.384 62.804 118.919 62.2217C118.714 62.6661 118.793 62.6692 118.451 62.9242C116.37 62.7017 114.777 61.4118 113.964 59.5232C112.421 55.9412 111.762 52.2916 111.492 48.4199C111.322 45.9808 110.82 42.2869 113.634 41.1554C113.998 41.2255 114.361 41.2977 114.725 41.372C115.232 41.4764 115.993 41.6171 116.396 41.9763C117.81 43.2339 119.583 47.0602 120.043 48.843C120.379 50.3643 120.051 52.4315 121.091 53.7317C123.091 56.2327 126.272 55.2839 128.48 53.7896C128.402 53.3266 128.552 53.3267 128.414 53.0204C126.244 53.8468 122.913 54.8561 121.606 52.1999C121.215 51.4042 121.121 50.8441 120.937 49.9765C122.433 52.0169 123.711 53.3404 126.449 52.665C126.945 52.5426 127.582 52.4476 127.874 51.9922C127.745 51.462 125.44 51.6922 124.547 51.1621C122.739 50.0873 123.029 48.8801 121.699 47.6675C121.566 47.5464 121.27 47.4285 121.179 47.2048C119.08 43.2286 118.426 39.9302 113.215 40.1628C108.985 42.554 110.005 47.4596 110.393 51.4897C110.497 52.5697 110.639 54.5113 110.941 55.5271C111.68 58.0103 112.649 60.9931 114.34 62.9942C114.549 63.2277 115.235 63.6443 115.509 63.8136C112.938 66.7463 109.813 67.6839 106.13 68.3471C105.25 67.8117 104.782 67.6542 103.817 67.3487C107.861 65.6096 109.979 58.0237 109.378 54.0197C109.122 54.7073 108.622 56.7534 108.435 57.5258C107.659 60.7181 106.585 63.3326 104.434 65.8745C104.033 66.3489 103.585 66.7299 103.157 67.1978C99.3293 66.8428 98.6574 68.0629 95.2394 68.8243C95.233 67.8667 95.2372 66.7048 95.3868 65.7612C96.5363 58.5104 98.4923 52.767 104.433 48.097C101.643 51.7172 99.4839 55.4361 98.6664 60.0046C98.2702 62.2188 98.6975 63.719 99.5374 65.7703C99.563 64.3856 99.4844 62.6935 99.7295 61.2963C100.486 56.9827 102.628 52.4751 105.144 48.9204C105.854 47.9167 106.942 46.9822 107.616 46.0464L107.319 46.0249L107.278 45.9205L108.041 44.9333C108.351 44.5292 108.682 44.142 108.61 43.6102L108.446 43.5483C107.627 43.9083 105.696 45.9134 104.885 46.6656L104.551 46.5362C107.671 43.0112 108.963 41.0192 110.842 36.7465Z" fill="#F7F9FF"/>
<path d="M123.68 48.9891C124.047 49.0199 124.189 49.0484 124.559 48.9814L124.64 48.8521C124.513 48.6756 124.455 48.5921 124.352 48.4021C124.819 48.1288 130.075 48.7515 131.585 48.5387C135.519 47.9846 138.841 47.1427 142.547 45.7272C148.058 43.623 153.057 41.8825 157.822 38.3135C160.28 36.473 162.872 33.4867 165.306 32.2753C163.146 34.6214 160.702 37.2965 158.149 39.2915C152.639 43.5588 146.16 46.3842 139.584 48.5791C137.397 49.3091 134.791 49.3607 132.745 50.1169C134.619 50.0589 136.539 50.2375 138.437 50.0393C148.386 49.0009 157.998 45.291 166.589 40.2912C168.708 39.0586 169.917 36.6448 172.009 35.3225C171.823 35.8503 171.573 36.3719 171.343 36.8841C171.211 37.0828 171.032 37.3341 170.918 37.5365C170.298 38.3798 169.369 39.5632 168.573 40.2294C164.282 43.8215 157.736 46.6143 152.493 48.5226C146.725 50.6221 138.579 52.3353 132.486 51.4253C130.841 51.1797 129.97 50.7341 128.582 50.4174C126.304 49.8979 125.852 49.9929 123.68 48.9891Z" fill="#6572A4"/>
<path d="M173.74 60.8338C173.964 60.308 176.418 58.2546 176.925 58.4883L177.055 58.8852C177.416 59.1686 177.869 58.5721 178.777 58.5733L178.726 58.7539C178.342 58.8445 178.174 58.8254 177.905 59.061L177.984 59.2617C178.6 59.4946 179.103 59.2426 179.553 59.4683C179.614 59.6563 179.661 59.6877 179.558 59.8096C179.004 60.4645 178.589 60.4204 177.996 61.1753L177.908 61.2909L177.759 61.2608C177.962 60.3543 179.02 60.2421 179.276 59.6792L179.149 59.5648C178.69 59.5496 178.033 59.5245 177.67 59.8569C177.475 60.036 177.381 60.2997 177.338 60.554C177.123 61.8092 177.13 63.1447 176.993 64.4155C176.816 66.0594 176.513 67.6838 176.428 69.338C176.361 70.6618 176.464 71.9882 176.436 73.3123C176.414 74.3633 176.303 75.4457 176.07 76.4716C175.892 77.2617 173.608 84.1919 173.342 84.4466L173.12 84.3399C172.414 83.1969 175.267 76.3963 175.448 74.3703C175.882 69.5341 175.621 64.3773 176.375 59.5902C175.703 60.1056 174.946 60.6184 174.253 61.126C174.109 61.0755 174.186 61.0969 173.987 61.0633L173.825 61.0368L173.74 60.8338Z" fill="#6572A4"/>
<path d="M177.694 40.9061C177.17 40.346 175.738 39.201 175.7 38.5116C176.28 38.4262 177.695 39.6579 178.162 40.0306C178.012 40.3254 177.856 40.6173 177.694 40.9061Z" fill="#6572A4"/>
<path d="M174.39 62.7648C174.661 63.0646 174.875 63.1968 174.851 63.5892L174.635 63.68C173.427 63.3082 173.462 61.825 173.74 60.8338L173.825 61.0368L173.987 61.0633C174.186 61.0969 174.109 61.0755 174.253 61.126C174.338 61.5562 174.366 62.3053 174.39 62.7648Z" fill="#6572A4"/>
<path d="M128.412 53.0201C128.978 52.7197 129.62 52.5606 130.247 52.4295C129.638 52.9585 129.181 53.3949 128.478 53.7893C128.4 53.3262 128.55 53.3263 128.412 53.0201Z" fill="#6572A4"/>
<path d="M119.82 72.0385C120.035 72.8888 119.732 73.6894 119.947 74.0711L119.557 74.0591C119.331 73.6976 119.23 73.1306 119.124 72.7009L119.428 73.0047L119.56 72.9174C119.642 72.5469 119.689 72.3955 119.82 72.0385Z" fill="#6572A4"/>
<path d="M170.918 37.5365C171.032 37.3341 171.211 37.0828 171.343 36.8841L171.675 36.9943C171.461 37.3427 171.41 37.4582 171.255 37.8399C171.158 37.6621 171.112 37.673 170.918 37.5365Z" fill="#F7F9FF"/>
<path d="M169.765 64.6389C170.094 64.1262 171.653 62.6567 172.168 62.4126C172.917 63.3077 172.555 65.8938 172.319 66.9617C171.453 70.8711 171.994 75.2936 171.741 79.1342C171.607 81.1669 170.011 86.9048 169.177 88.8909C169.113 87.891 169.045 86.7315 169.198 85.7389C169.549 83.4676 170.529 81.2755 170.757 78.9753C171.062 75.8714 170.486 71.9408 170.968 68.902C171.052 68.7591 170.964 68.334 170.942 68.1181C170.476 67.7882 170.444 67.719 170.186 67.2161C169.98 67.3477 169.787 67.4607 169.597 67.6135C169.501 66.3756 169.547 65.8602 169.765 64.6389Z" fill="#6572A4"/>
<path d="M170.006 64.7431C170.341 64.4697 171 64.3992 171.454 64.3094C171.348 65.2137 171.143 67.3269 170.945 68.1181C170.48 67.7882 170.447 67.719 170.189 67.2161C169.984 67.3477 169.791 67.4607 169.6 67.6135C169.504 66.3757 169.551 65.8602 169.769 64.6389L170.006 64.7431Z" fill="#F7F9FF"/>
<path d="M169.769 64.6389L170.006 64.7431C170.157 65.5362 170.116 66.3918 170.189 67.2161C169.984 67.3477 169.791 67.4607 169.6 67.6135C169.504 66.3757 169.551 65.8602 169.769 64.6389Z" fill="#6572A4"/>
<path d="M160.258 10.8098C161.379 10.7751 163.071 12.5215 163.754 13.3415C167.405 17.7186 169.912 23.7419 170.79 29.3469C170.991 30.633 170.775 32.5048 170.678 33.8141L170.567 33.8953L170.424 33.828C170.302 33.3641 170.347 32.4756 170.326 31.9501C170.287 31.1523 170.206 30.357 170.084 29.5677C169.567 26.3359 167.432 21.3217 165.895 18.4062C164.735 16.2057 162.908 13.8485 161.176 12.0695C160.811 11.694 160.408 11.2945 160.258 10.8098Z" fill="#6572A4"/>
<path d="M169.06 73.5689C169.328 73.5181 169.211 73.4874 169.43 73.6155C169.558 75.0161 167.691 78.8675 167.205 80.4298C166.569 82.474 166.122 84.6513 165.484 86.6685C165.239 87.4425 163.341 91.2887 162.818 91.6563C163.005 89.0516 164.333 88.5411 164.798 86.5603C165.407 83.9599 165.715 81.2503 166.811 78.6918C167.159 77.8794 166.699 77.5516 166.294 76.7784C166.605 74.6475 166.89 73.9495 169.06 73.5689Z" fill="#6572A4"/>
<path d="M167.972 74.7726L168.091 74.8324C168.099 75.1503 167.354 76.9527 167.172 77.4975L166.982 77.3389C166.776 76.2208 167.066 75.4475 167.972 74.7726Z" fill="#F7F9FF"/>
<path d="M149.966 37.9438L150.058 37.9639L150.046 38.057C148.943 38.5588 147.598 39.3819 146.647 39.8079C143.021 41.4324 136.126 43.6046 132.161 43.2484C132.084 43.2253 131.924 43.1455 131.845 43.1092L131.852 42.9655C132.145 42.8112 137.902 41.8964 139.041 41.6178C142.793 40.7004 146.304 39.1171 149.966 37.9438Z" fill="#6572A4"/>
<path d="M113.411 50.3231L113.831 50.4109C113.879 51.2678 113.926 51.7402 114.072 52.5843C115.39 53.3267 116.55 53.8552 117.437 55.1007C117.54 54.1645 117.601 54.0093 118.04 53.2112C118.243 54.3664 118.809 56.6812 118.3 57.6506C117.954 57.913 118.141 57.8457 117.726 57.8819C116.921 57.516 116.558 55.6279 115.937 55.1617C113.88 53.6165 112.741 53.3884 113.411 50.3231Z" fill="#6572A4"/>
<path d="M113.21 43.0925C116.321 42.9276 118.806 47.1782 117.974 49.8579L117.378 48.8459C116.538 47.1875 114.636 42.9315 112.235 44.751L112.12 44.8393L111.939 44.681L111.935 44.4174C112.3 43.7123 112.514 43.4637 113.21 43.0925Z" fill="#6572A4"/>
<path d="M170.186 67.2161C170.444 67.719 170.476 67.7882 170.942 68.1181C170.964 68.334 171.052 68.7591 170.968 68.902L170.884 68.8062C170.503 68.7085 170.348 68.6434 169.982 68.4894C169.681 68.1893 169.694 68.0515 169.597 67.6135C169.787 67.4607 169.98 67.3477 170.186 67.2161Z" fill="#6572A4"/>
<path d="M113.409 50.3232C113.67 49.5978 113.83 49.1443 114.319 48.5138C114.068 49.2561 113.919 49.6316 113.829 50.411L113.409 50.3232Z" fill="#6572A4"/>
<path d="M152.647 56.971C153.541 57.1978 153.722 57.3056 154.441 57.8739C154.725 57.9962 155.278 59.0745 155.134 59.3436C152.715 63.8429 148.203 66.8415 145.245 70.9788C144.11 72.566 142.598 73.9636 141.378 75.4856C140.881 76.1706 139.996 76.957 139.516 77.6057C138.691 78.7191 135.864 79.2604 135.649 80.5723L135.787 80.7475C138.635 81.2057 145.16 72.6656 146.753 70.6401C148.118 69.2593 149.717 67.6132 151.094 66.2886C152.541 64.8949 159.024 56.1627 161.032 57.0696L161.118 57.3307L161.221 57.4056C161.575 57.3196 162.069 57.5402 162.363 57.7386C163.466 58.4842 163.565 59.507 163.564 60.6219C161.549 64.2132 159.054 65.8716 156.564 69.0099C155.036 70.9334 153.896 73.3141 152.327 75.0974C149.644 78.149 146.329 80.5287 144.42 84.2485C144.202 84.6728 143.836 85.3054 143.929 85.7549C144.593 85.8536 145.905 83.5196 146.304 82.9314C148.262 80.0336 151.02 77.825 153.285 75.1911C154.693 73.5534 155.638 71.4207 157.188 69.8618C159.214 67.5668 161.88 65.0863 163.64 62.7398C164.67 63.4325 164.994 63.744 165.51 64.9351C165.034 65.9902 164.699 66.5845 163.789 67.3743L163.547 67.6651C163.7 67.8203 163.627 67.7719 163.745 67.8381C164.527 67.4039 164.744 67.1885 165.393 66.5511C164.254 69.4815 161.21 72.8919 159.393 75.5408C158.044 77.5086 156.794 79.5571 155.372 81.4721C154.62 82.4839 153.27 83.5063 152.487 84.3972C151.291 85.7581 148.67 88.7524 148.556 90.5978C148.525 91.0904 148.432 91.6418 148.366 92.1302L148.45 92.0083C149.259 90.8121 149.654 89.4792 150.528 88.3239C151.218 87.4123 152.197 86.823 152.98 86.0175C155.048 83.8695 156.907 81.5302 158.532 79.031C159.312 77.824 160.929 74.6128 162.381 74.1693C162.502 74.1349 162.581 74.1889 162.641 74.2794C163.175 75.0795 164.588 74.8102 164.805 75.8411C164.864 76.1211 164.651 76.3979 164.463 76.5734L164.59 76.8009C164.621 80.0303 156.882 88.8249 154.82 91.7363C151.849 95.8083 147.546 102.162 143.106 104.712C134.39 109.716 133.409 114.23 129.574 122.768C124.916 133.135 121.288 143.914 116.933 154.44C114.084 151.907 112 149.613 109.352 146.962C107.394 145.008 105.466 143.023 103.571 141.009C101.705 139.027 100.032 137.458 98.9351 134.914C99.2119 133.703 100.311 132.344 100.985 131.244L104.762 124.959C108.304 119.007 111.557 112.736 114.755 106.592C116.049 104.107 117.679 101.627 118.591 98.9791C119.757 95.5909 118.828 88.4783 118.635 84.6427C118.579 83.539 118.431 82.3393 118.558 81.2437C118.802 79.1313 120.263 77.1338 120.888 75.0916C121.405 73.4031 121.487 71.3685 122.329 69.8202C122.698 69.1423 123.958 66.9802 124.623 66.7906C125.146 67.0179 125.225 67.0889 125.783 66.9603L125.82 66.7456C127.168 64.6052 125.779 61.6075 127.277 60.5566L127.315 60.846C128.489 61.5558 129.242 63.2907 129.541 64.5383C130.347 67.8945 129.186 70.5955 128.074 73.665C127.846 74.2929 127.591 76.1113 127.501 76.8147C126.876 77.2741 124.172 79.2216 123.783 79.7508L123.836 79.9349C124.031 80.2113 124.088 80.3564 124.355 80.546C127.138 78.2319 130.55 75.9081 133.094 73.3611C136.44 70.0109 139.184 66.6988 142.957 63.7201C146.039 61.2872 148.524 57.898 152.647 56.971Z" fill="#F7F9FF"/>
<path d="M125.822 66.7456C127.171 64.6052 125.781 61.6075 127.279 60.5565L127.317 60.8461C127.69 62.6752 128.038 66.1448 125.785 66.9605L125.822 66.7456Z" fill="#6572A4"/>
<path d="M160.267 61.9699C160.708 62.0078 161.39 61.9455 161.468 62.4497C161.145 62.7587 160.37 62.8336 159.943 62.7877C157.774 62.5544 158.559 59.7509 159.541 58.6756C159.991 58.1823 160.591 57.7484 161.118 57.3307L161.221 57.4056C160.308 58.8037 158.21 60.5719 160.267 61.9699Z" fill="#6572A4"/>
<path d="M163.89 77.7968C160.561 80.6776 160.209 75.3621 162.239 75.0963C162.378 75.7084 161.399 76.4256 161.954 77.3648C162.365 77.6455 163.183 77.8383 163.67 77.6996L163.89 77.7968Z" fill="#6572A4"/>
<path d="M161.038 65.5566C161.638 66.9927 162.061 67.7954 163.787 67.3741L163.546 67.6649C163.699 67.8201 163.626 67.7717 163.744 67.8379C163.307 68.3164 161.69 68.5253 161.244 67.8908C160.814 67.2789 160.991 66.2605 161.038 65.5566Z" fill="#6572A4"/>
<path d="M123.836 79.9349C124.031 80.2113 124.088 80.3564 124.355 80.546C123.59 81.3001 122.782 82.115 121.949 82.784C122.623 81.1443 123.339 80.89 123.836 79.9349Z" fill="#6572A4"/>
<path d="M164.465 76.5736L164.592 76.8011C164.349 77.2023 164.219 77.4586 163.89 77.7968L163.67 77.6996L164.465 76.5736Z" fill="#6572A4"/>
<path d="M152.21 57.3511L152.303 57.3817C152.405 57.5337 152.391 57.4545 152.117 57.7043C151.498 58.2696 150.711 59.2789 150.697 60.1477C150.675 61.5049 152.631 61.2252 153.104 61.6997C153.057 62.0326 153.049 61.9481 152.781 62.2502C148.917 62.8269 149.251 59.1745 152.21 57.3511Z" fill="#6572A4"/>
<path d="M164.905 113.363C164.559 112.16 162.285 105.91 162.413 105.097C163.468 98.4286 171.329 94.1298 173.411 87.8816C173.788 86.7494 174.601 85.4134 175.057 84.282C175.303 84.9088 175.541 85.5373 175.784 86.1654C177.148 89.6954 177.701 93.6372 178.085 97.392C178.429 100.549 178.681 103.715 178.843 106.887C178.956 108.863 178.968 110.822 179.115 112.802C179.276 114.948 179.605 117.092 179.977 119.212C180.096 117.919 180.062 116.495 180.186 115.285C180.442 114.796 180.224 114.512 180.603 113.892C180.813 115.437 180.78 116.937 180.896 118.479C181.175 122.18 181.378 125.943 182.033 129.598C182.617 132.727 183.407 135.814 184.398 138.84C184.822 140.135 185.389 141.176 185.745 142.551C186.129 144.03 185.502 144.288 185.577 145.664C185.651 147.056 186.892 148.892 186.881 150.231C186.867 151.851 186.43 153.579 185.891 155.093C185.193 157.056 184.079 158.753 183.183 160.585C181.657 163.704 180.241 166.827 178.48 169.831C178.282 170.17 178.002 170.477 178.06 170.771L178.243 170.841C178.443 170.92 178.489 170.94 178.672 171.065C178.668 171.454 178.335 171.717 178.051 171.967C177.805 171.915 177.898 171.952 177.695 171.775C176.8 172.078 175.428 172.881 174.565 173.275C172.785 174.086 169.379 175.328 167.522 174.144C163.278 171.44 158.082 167.365 155.103 163.262C154.688 162.691 153.86 160.53 153.773 160.015C153.627 159.145 151.904 154.756 151.899 154.396C152.047 154.199 152.347 153.913 152.249 153.641C151.604 151.838 150.198 149.963 149.567 148.193C148.886 146.283 149.432 143.037 149.559 140.983C149.749 141.908 150.198 143.276 150.298 144.023C149.835 144.464 149.97 143.882 149.656 144.476C149.952 147.583 153.097 150.837 156.429 150.232C160.067 149.573 162.578 146.033 165.112 143.603C168.626 140.163 171.787 135.712 171.389 130.602C171.333 129.878 170.704 129.135 170.721 128.618C171.639 128.816 172.11 130.872 172.428 131.655C172.947 132.932 173.454 134.212 174.032 135.465C174.701 137.145 176.085 138.531 176.78 139.806C178.641 143.223 178.238 148.775 177.173 152.402C176.591 154.384 175.779 156.572 175.089 158.549C175.752 157.461 176.643 156.024 177.148 154.886C178.529 151.772 179.603 147.013 179.051 143.63C179.384 144.218 179.772 144.983 180.216 145.461L180.406 145.485C180.706 145.029 180.62 144.104 180.61 143.534C181.368 144.635 182.209 145.868 182.734 147.092C183.565 149.032 184.031 150.747 184.99 152.652C185.278 148.211 183.577 144.256 180.156 141.412C179.525 140.888 179.202 140.263 178.804 139.573C181.56 140.893 182.748 141.904 184.68 144.255C184.532 143.304 184.496 142.715 183.891 141.919C182.487 140.072 180.188 139.244 178.08 138.476C176.237 135.711 174.767 133.56 173.758 130.333C173.22 128.613 172.459 127.404 170.538 127.029C170.359 126.993 170.18 126.962 169.999 126.935C168.157 122.628 166.939 118.734 165.341 114.439C166.452 113.189 167.456 112.108 168.657 110.942C169.813 109.821 171.356 108.533 172.406 107.372C169.61 108.191 166.621 111.069 164.905 113.363Z" fill="#F7F9FF"/>
<path d="M175.196 94.4494C174.133 98.8386 170.234 104.818 167.377 108.3C167.1 107.642 167.605 107.977 167.168 107.097C168.533 104.979 170.087 103.145 171.466 100.897C172.74 98.8187 173.91 96.3914 175.196 94.4494Z" fill="#6572A4"/>
<path d="M167.168 107.097C167.605 107.977 167.1 107.642 167.377 108.3C167.331 108.414 166.029 110.445 165.87 110.698C166.108 109.236 166.482 108.394 167.168 107.097Z" fill="#6572A4"/>
<path d="M117.028 64.0983L118.431 63.6638C118.241 66.7102 118.114 69.7831 119.126 72.7006C119.232 73.1302 119.332 73.6973 119.559 74.0588C120.042 75.646 117.649 79.0767 117.382 81.025C116.659 86.2904 118.209 92.443 117.299 97.5737C115.884 95.6128 114.068 93.8346 112.75 91.6343C111.051 88.7449 109.605 85.6949 108.073 82.7104C105.954 78.5801 102.934 74.7376 102.779 69.9533C108.545 70.0999 113.613 69.0561 117.028 64.0983Z" fill="#F7F9FF"/>
<path d="M115.935 14.4574C116.765 14.415 117.786 14.1878 118.284 14.9585C118.283 15.3993 114.983 20.6481 114.537 21.6142C112.505 26.0157 111.755 30.1023 110.843 34.7501C110.39 37.0609 106.601 42.481 105.036 44.0456C104.587 43.8365 104.151 43.5908 103.716 43.3547C101.736 41.9134 101.357 40.03 100.961 37.767C100.817 36.946 100.538 35.8607 100.504 35.0321C100.3 29.9611 102.347 24.3354 105.582 20.4131C108.627 16.8535 111.336 14.9212 115.935 14.4574Z" fill="#F7F9FF"/>
<path d="M112.681 18.8719C113.238 18.8501 113.497 18.8457 114.048 18.9055L114.176 19.1412L114.325 19.0303L114.339 19.0626C114.093 19.2474 111.572 20.253 110.832 20.6353C107.001 22.6142 105.171 26.1198 103.337 29.88C103.167 30.2955 102.907 30.8151 102.713 31.2322C102.8 25.9989 107.406 19.9197 112.681 18.8719Z" fill="#6572A4"/>
<path d="M100.642 50.225C100.749 50.4569 100.653 50.4331 100.339 50.7716C99.2829 51.9147 98.3887 53.1964 97.6811 54.581C96.1685 57.5551 95.4773 60.5818 94.4119 63.7358C94.1932 64.3831 94.116 65.4564 93.9115 66.0447L93.8541 66.2054C93.6375 65.5369 93.5511 62.8412 93.5768 62.081C93.7373 57.3453 97.4094 53.2998 100.642 50.225Z" fill="#F7F9FF"/>
<path d="M114.904 7.40425C117.879 7.3071 120.092 9.57079 119.814 12.6248C119.78 12.9919 119.674 13.744 119.39 13.9643C119.233 13.7501 119.251 13.3744 119.222 13.0662C118.834 9.78663 116.122 8.01783 113.006 7.84716C113.72 7.63437 114.168 7.53963 114.904 7.40425Z" fill="#F7F9FF"/>
<path d="M165.595 68.906C165.722 69.0929 165.405 72.2387 165.403 72.7395L164.899 73.4753C164.104 73.2736 163.69 73.2083 162.885 73.1672C162.605 73.1645 162.7 73.1809 162.444 73.0876C162.591 72.4205 165.087 69.9904 165.595 68.906Z" fill="#F7F9FF"/>
<path d="M179.527 60.7326L179.619 60.8901C179.59 61.7644 179.558 62.8746 179.271 63.7092C179.168 64.0087 179.129 63.9552 178.849 64.0691C178.339 63.1435 178.444 62.8282 178.5 61.7697C178.845 61.3156 179.107 61.1043 179.527 60.7326Z" fill="#F7F9FF"/>
<path d="M180.191 115.285C180.184 114.12 180.212 113.004 180.375 111.848C180.442 112.531 180.52 113.213 180.608 113.892C180.229 114.512 180.447 114.797 180.191 115.285Z" fill="#F7F9FF"/>
<path d="M104.551 46.5362L104.885 46.6656C104.186 47.2772 103.501 47.7484 102.706 48.2215C103.29 47.6264 103.906 47.0641 104.551 46.5362Z" fill="#F7F9FF"/>
<path d="M180.996 53.3176C181.44 53.9416 180.864 54.7253 180.544 55.305C180.519 54.771 180.798 53.8073 180.996 53.3176Z" fill="#F7F9FF"/>
<path d="M84.3962 151.92C84.5754 151.929 84.6872 151.931 84.8646 151.929L84.9762 151.401L84.9857 151.514C85.0956 152.985 84.8819 154.644 85.0142 156.128C85.4835 161.389 87.1504 167.711 89.0285 172.646C85.8075 167.867 84.5888 162.845 84.2894 157.122C84.1994 155.402 84.4585 153.451 84.3962 151.92Z" fill="#6572A4"/>
<path d="M95.8246 145.786C96.1883 146.059 96.6005 146.3 97.0534 146.388C97.6376 146.998 98.2136 147.671 98.7788 148.302C101.773 151.645 105.43 155.091 107.461 159.12C103.939 155.126 99.8256 151.373 96.5817 147.138C96.3091 146.782 96.0311 146.196 95.8246 145.786Z" fill="#6572A4"/>
<path d="M95.179 144.346C95.818 144.967 96.5091 145.681 97.0534 146.388C96.6005 146.3 96.1883 146.059 95.8246 145.786C95.5734 145.275 95.3959 144.871 95.179 144.346Z" fill="#6572A4"/>
</svg>
