<svg width="250" height="179" viewBox="0 0 250 179" fill="none" xmlns="http://www.w3.org/2000/svg">
<path d="M60.0494 21.9719C60.7043 20.59 62.4183 18.6588 63.238 17.3715C67.9165 9.91377 73.902 4.89037 82.2491 2.00287C91.2052 -1.09518 99.1594 -0.275616 108.043 2.26266C116.743 4.74847 123.845 7.84031 130.246 14.4314C131.084 15.2952 131.676 16.7979 132.491 17.7184C134.93 19.5385 136.848 21.2323 137.941 24.2481C138.905 26.9068 138.645 29.3385 137.657 32.0506C138.62 35.6161 138.767 39.5279 139.471 43.1676C139.775 44.7505 140.136 47.3816 139.585 48.8904C138.716 51.271 137.134 53.0429 136.387 55.5315C137.081 55.6274 138.011 55.6637 138.574 55.9919C138.715 56.5665 138.185 56.7462 137.736 57.0054C137.06 56.9736 136.333 56.9531 135.664 56.9003C135.886 58.7927 136.106 60.0362 136.797 61.9631C137.659 64.366 139.424 67.0231 139.847 69.5214C139.929 70.0078 139.417 70.8614 139.161 71.2926C140.967 73.9719 143.223 77.4929 144.698 80.3275C147.113 84.9685 147.292 87.3123 151.063 91.361C152.145 90.8023 153.012 90.3406 154.198 89.9945C156.229 91.3659 158.816 94.3001 160.73 95.9811C161.49 96.6486 162.951 98.7346 163.669 99.6133C165.023 101.244 166.464 102.801 167.983 104.278C170.334 106.532 173.941 108.748 176.415 110.977C178.897 113.212 181.002 115.838 183.56 118.099C188.866 122.78 194.401 126.933 198.964 132.41C202.531 136.509 204.926 141.466 208.18 145.792C209.799 147.943 211.067 150.124 212.525 152.319C215.588 156.932 216.823 161.27 213.342 166.176C212.285 167.665 211.059 169.279 209.591 170.433C205.152 173.717 197.551 175.685 192.219 176.674C179.519 179.067 166.539 179.617 153.682 178.309C150.52 177.983 147.311 177.428 144.154 177.023C137.433 176.163 130.676 175.11 123.94 174.421C121.955 174.228 119.962 174.115 117.966 174.083C116.4 174.043 112.022 174.217 110.821 173.771L110.685 173.57C111.537 172.777 121.949 172.575 123.908 172.738C132.472 173.446 141.159 174.885 149.667 176.011C164.526 177.979 179.609 177.445 194.292 174.432C198.367 173.593 205.73 171.703 208.903 168.926C210.75 167.016 213.667 164.102 213.788 161.355C213.762 160.322 213.777 158.192 213.318 157.297C211.824 154.387 209.957 151.19 207.97 148.572C205.051 144.725 202.695 140.658 199.988 136.679C198.595 134.633 196.836 132.727 195.161 130.915C191.048 126.552 186.286 123.086 181.882 119C179.48 116.934 177.523 114.318 175.127 112.262C172.733 110.208 170.039 108.371 167.68 106.311C164.511 103.545 162.002 100.49 159.507 97.1374C158.76 96.1329 157.165 95.0813 156.307 94.1232C155.357 93.2053 154.626 92.2567 153.754 91.3188C152.386 92.3584 151.013 93.1407 149.656 94.1417C145.852 96.9491 142.423 100.233 139.502 103.955C138.545 105.175 137.953 106.816 137.087 107.975C139.109 109.755 141.01 111.613 142.962 113.462C143.743 114.201 144.856 114.951 145.67 115.708C146.434 116.419 147.185 117.172 147.959 117.861C148.751 118.564 149.903 119.229 150.644 119.976C151.988 121.327 153.237 122.698 154.597 124.043C156.293 125.719 158.251 127.35 159.843 129.098C160.97 130.335 161.879 132.357 162.972 133.698C163.815 134.73 165.115 135.18 165.738 136.271C166.287 137.237 166.426 138.591 166.81 139.644C167.708 140.095 168.232 140.288 168.824 141.122L168.883 141.38L169.303 141.512C169.515 142.244 169.81 142.697 170.289 143.292C170.72 143.396 172.891 143.96 173.179 143.905C173.47 143.982 173.584 144.018 173.887 144.05C174.871 144.456 176.4 144.819 177.469 145.15C178.657 145.517 180.819 147.136 181.874 147.277C185.575 147.764 189.402 147.671 193.087 148.402C195.449 148.858 197.392 149.806 199.507 150.885L199.241 151.141C193.689 149.022 192.46 149.122 186.417 148.618C191.833 150.673 200.574 153.909 203.094 159.492C202.204 158.788 201.398 157.887 200.336 157.068C195.508 153.347 191.176 151.582 185.498 149.594C189.634 152.42 192.986 154.608 195.596 159.106C195.851 159.546 196.51 160.278 196.596 160.73C195.362 159.713 194.2 157.985 192.77 156.797C187.848 152.707 182.183 149.438 176.344 146.855C174.468 146.025 170.309 145.321 168.151 144.916C161.025 143.582 153.389 142.061 146.856 138.805C146.456 138.605 144.224 136.727 143.647 136.294C137.994 136.007 135.629 132.152 131.047 129.581C129.181 128.534 125.497 127.428 123.315 126.611C123.271 126.333 123.273 126.336 123.155 126.081C118.846 123.912 116.899 122.857 111.705 124.36C110.798 124.621 109.423 125.254 108.535 125.238L108.439 125.083C109.114 124.273 110.224 123.78 111.163 123.316C108.28 122.34 105.784 121.743 102.856 120.992C101.12 120.548 99.1975 119.229 97.5445 118.644C96.3462 118.219 94.0053 118.096 92.6247 117.95C92.3028 117.527 92.177 117.52 91.6546 117.376C93.0051 117.438 94.272 117.455 95.5986 117.723C83.238 109.897 67.7756 121.836 54.9995 117.147C52.515 116.235 52.0798 114.128 53.1879 111.868C51.7406 113.212 50.3959 114.023 50.2148 116.072C50.1509 115.85 50.1268 115.564 50.0958 115.328L49.9237 115.243L49.8144 115.25C48.5839 115.937 42.4284 124.616 41.7632 126.152C38.1746 134.442 36.3679 144.634 35.7336 153.618C35.1797 161.464 37.1429 169.502 37.9239 177.3C35.2283 171.447 33.7642 159.971 34.0311 153.433C34.1644 150.166 34.8573 146.293 35.317 143.031C35.8307 139.383 36.6961 136.266 37.5909 132.817C39.3457 126.051 41.6146 122.525 46.1026 117.177C48.2528 114.615 49.8143 112.879 52.5616 110.783C53.6393 109.797 55.755 110.175 56.7704 109.368C65.1 102.744 69.3666 93.8452 70.9689 83.4967C69.1694 84.5639 68.2685 86.3468 67.3183 88.1138L67.0783 87.6869C67.3116 86.7117 68.6285 84.6708 69.4054 84.0171C69.9158 83.5876 70.5442 83.2589 71.1042 82.7285L71.1032 82.5113L70.7749 82.524L70.6563 82.1819C70.1996 81.9358 68.3852 81.734 67.7834 81.5829C61.1895 79.9288 59.3093 74.1861 60.5072 68.2175C56.9087 72.6693 52.5861 72.7201 47.9513 69.8736C47.4387 69.87 46.9262 69.8608 46.4136 69.8464C41.6802 69.7004 38.6774 66.3391 37.7115 61.8462C37.3738 60.2756 37.5025 58.8184 37.5529 57.2312L37.2741 56.6481C37.8182 55.6338 38.5487 54.8989 39.3508 54.0962C30.7831 44.5215 46.9833 31.81 57.5064 39.4762C57.2476 38.3089 56.9553 37.0983 56.7754 35.9198C56.7349 35.7832 56.7005 35.6447 56.6725 35.5049C55.7544 31.0913 57.5394 25.6395 60.0494 21.9719Z" fill="#6572A4"/>
<path d="M56.7754 35.9198C56.7349 35.7832 56.7005 35.6447 56.6725 35.5049C55.7544 31.0913 57.5394 25.6395 60.0494 21.9719C60.2341 22.5886 60.2354 22.3371 60.0762 22.9288C60.1574 23.6273 59.0619 26.4779 58.7552 27.195C58.1532 28.602 57.6891 34.9647 57.2278 35.604L56.7754 35.9198Z" fill="#6572A4"/>
<path d="M60.0772 22.9294C60.1585 23.6278 59.063 26.4785 58.7562 27.1955C58.1542 28.6025 57.6901 34.9652 57.2288 35.6046C56.7358 30.5783 57.9313 27.2434 60.0772 22.9294Z" fill="#F7F9FF"/>
<path d="M58.6316 39.5498C57.7222 30.7012 62.1921 20.4672 67.6317 13.6997C74.9377 4.61003 88.094 -0.179212 99.5642 1.83085C92.5351 2.64219 86.3567 5.32412 80.8337 9.72274C78.2323 11.7946 75.2427 14.391 73.4478 17.2348L73.6444 17.3234C73.587 17.4687 73.4757 17.7233 73.4438 17.8644C80.0819 9.93181 88.6619 3.73894 99.3147 2.37997C102.108 2.02886 104.67 2.96713 107.311 3.66462C114.501 5.56408 121.492 8.48327 127.106 13.4838C127.941 14.2274 131.587 17.5141 131.581 18.4687L131.868 18.449C131.972 18.8592 131.952 19.034 131.948 19.463L132.143 18.7381C133.503 18.7084 137.077 24.2815 136.789 25.9713C136.503 27.6404 136.764 29.7536 136.436 31.4459C135.95 34.3314 133.438 37.7814 131.378 39.8841C131.244 40.0192 131.106 40.1495 130.961 40.275C131.588 38.9631 132.327 37.7181 132.942 36.5041C133.879 34.6565 135.041 30.6003 135.255 28.5171L135.167 28.699C134.515 30.0687 134.106 31.6685 133.601 33.1093C130.875 40.9023 124.87 46.8219 116.658 48.436C121.866 48.6492 125.708 46.2928 129.436 42.8517C130.158 42.1842 130.852 41.4859 131.515 40.7586L131.707 41.2135C130.448 42.7298 129.502 43.4841 128.168 44.8406L128.133 45.3602C133.758 41.7599 134.453 38.8418 137.138 33.4822C137.818 37.7453 138.011 41.8761 138.763 46.4039C136.836 47.2244 135.839 48.3754 134.442 49.8759C135.936 49.1328 137.088 48.5481 138.654 47.974C137.821 50.8755 134.611 54.4807 134.487 56.927C134.308 60.4703 136.232 63.4896 135.252 67.7092C134.259 66.7807 133.285 65.8657 132.317 64.914C131.607 64.216 130.418 62.7712 129.693 62.2323C125.874 59.3985 122.039 57.1086 117.515 55.7317C116.914 56.1667 116.655 56.3533 116.135 56.878C112.898 55.3924 112.084 53.5802 108.663 53.8314C109.627 51.7111 110.452 50.5561 112.662 49.7183L112.78 49.6741C112.601 51.4806 112.867 52.6472 112.794 54.2753C113.442 52.315 114.771 47.8268 110.739 49.416C110.371 49.5609 109.725 50.1672 109.477 50.4842C108.156 52.1715 107.662 54.2437 106.569 56.1048L105.172 55.0042C105.892 52.3684 106.877 49.4568 109.366 47.9744C110.945 47.034 113.197 46.7349 114.151 48.7334C114.683 49.8478 114.633 51.1907 114.907 52.4108C115.04 51.9025 115.114 51.1681 115.451 50.9559C115.656 51.1372 115.686 51.1532 115.841 51.3747L116.098 51.2253C115.65 50.631 115.524 50.4914 115.427 49.7514C115.326 48.5006 114.637 47.6697 113.879 46.7363C114.838 46.5776 115.795 46.3621 116.733 46.159C119.729 45.5104 125.218 42.3722 126.759 39.7336L126.229 40.0876C126.129 39.8841 126.145 39.9426 126.133 39.8663C123.02 42.7625 119.711 44.8312 115.458 45.7377C113.59 46.1359 113.505 46.2825 111.679 45.9024C111.032 45.7678 106.839 47.5158 106.477 48.0564C106.472 48.397 106.537 48.4388 106.363 48.6189C106.164 49.6025 105.175 51.205 104.863 52.3141C104.722 52.8126 104.559 54.1424 104.3 54.3361C103.618 54.2811 102.868 54.203 102.191 54.2099C100.996 54.9095 100.852 55.1593 100.112 56.3567L100.239 56.5473C100.574 56.9166 100.538 57.9529 100.808 58.5617C101.193 59.4291 101.975 60.6138 102.558 61.3561L102.14 61.511C101.311 60.9582 100.317 60.4903 99.2822 60.7315C98.6979 60.8692 98.1951 61.2399 97.8904 61.7575C95.7145 65.4581 102.462 71.1315 104.329 73.73C106.299 76.4707 108.815 78.614 110.898 81.138C112.832 83.4819 114.36 86.1246 116.396 88.5296C113.429 86.9625 111.882 85.3699 109.496 83.1399C108.005 81.7469 104.578 80.3962 102.547 81.0935C97.755 82.7391 101.911 85.1267 103.661 87.0861C104.741 88.2945 105.342 90.3206 106.436 91.5686C108.402 93.4455 111.05 94.7592 113.19 96.5456C111.981 96.3327 108.292 95.4847 107.382 96.5053C104.166 100.114 103.143 107.736 102.016 112.391C101.483 114.591 102.442 117.456 103.003 119.301C94.0102 115.539 91.2404 112.302 80.7062 113.629C73.4561 114.543 60.6804 118.962 54.3047 115.066L53.886 113.39C55.8412 111.413 58.2636 109.989 60.226 108.13C68.5609 100.234 71.2123 92.7669 72.7757 81.7553C74.1279 81.5728 75.9211 81.2923 77.0113 80.4096L77.015 80.2509C76.8747 80.2486 76.7151 80.2377 76.5799 80.2547L76.3806 79.7642L76.38 79.6887C76.1129 79.3879 74.3262 79.5529 73.7333 79.5627C70.7948 79.6114 68.8 78.4441 66.3214 77.0963C67.4024 78.144 68.6763 79.3235 70.1653 79.7777C70.761 79.9594 71.4458 79.9435 71.9352 80.2648L71.7862 80.4111C69.1616 81.2291 64.7642 79.02 63.1915 76.8422C61.1072 73.9558 61.1867 70.5683 61.6731 67.227C62.5506 66.3409 63.2557 65.4089 63.9959 64.4152L64.1911 64.4619C64.32 64.274 64.3843 63.8688 64.4414 63.6217C64.6111 62.8568 64.8054 62.9482 64.8634 61.8652L64.8707 61.7101L64.9897 61.6098C65.2263 61.9491 65.7434 63.8805 66.0011 64.4655C67.8362 68.6324 69.7025 70.297 73.539 72.3829C71.5142 70.6055 69.4727 68.9287 68.0713 66.5855C66.2865 63.6013 64.9767 60.8805 65.7065 57.387C70.8201 63.4718 76.4525 66.0414 84.3458 66.1694C82.8687 65.7918 81.1181 65.5261 79.6011 65.1405C73.0113 63.4653 70.4777 61.2981 65.8011 56.7616L66.0876 54.9326L66.1039 54.5893C66.119 54.0513 66.1255 53.1435 66.387 52.7363L66.7136 52.5519C65.9023 52.3118 65.9279 49.4862 65.6309 48.4423L65.6078 48.2845C65.4171 47.764 64.9766 46.7862 65.0708 46.3113L65.0596 46.0504L64.8599 46.0662L64.6639 45.854L64.3777 45.5856L64.5424 45.3631C64.2071 44.8597 63.7777 43.887 63.5012 43.3057C65.7691 36.661 69.7361 30.7894 74.2206 25.4557C80.8655 17.5522 88.1 12.6351 98.0347 9.76617L97.9273 9.30243C84.3144 12.8774 74.5972 22.0069 67.2227 33.8126C65.5346 36.5151 64.0749 39.7905 63.2051 42.8594C61.5935 40.9201 61.1055 40.1696 58.6316 39.5498Z" fill="#F7F9FF"/>
<path d="M82.1411 60.62C90.3842 60.1206 95.2697 56.3808 101.521 51.5424C102.748 50.5931 105.133 48.7339 106.474 48.0566C106.469 48.3972 106.534 48.439 106.36 48.6191C105.4 49.1964 103.642 50.6793 102.708 51.4507C99.6179 54.003 96.5167 56.805 92.9322 58.6622C90.2442 60.0549 85.0416 61.5491 82.1411 60.62Z" fill="#6572A4"/>
<path d="M91.4695 19.7742L91.5487 19.9921C82.7621 25.1981 76.1392 32.4854 69.4955 40.107C68.2431 41.5438 65.7392 44.3498 64.6604 45.8545L64.3742 45.586L64.5388 45.3636C66.0524 42.9131 69.5059 39.1993 71.5167 36.9698C77.5456 30.2852 83.3921 24.0537 91.4695 19.7742Z" fill="#6572A4"/>
<path d="M91.708 54.0493L92.1421 54.2511C85.9416 57.2119 79.9 58.1536 73.0716 57.0347C70.4591 56.6066 68.4834 56.1623 66.0864 54.9326L66.1027 54.5894C75.784 57.5467 82.0969 57.5115 91.708 54.0493Z" fill="#6572A4"/>
<path d="M69.5338 75.3284L69.8428 75.1331C72.4932 77.307 74.0974 77.6951 77.39 78.2785C80.5493 78.8382 82.5406 78.1322 85.6252 77.6353C85.3067 77.9376 84.7302 78.5462 84.3622 78.7023L84.0648 78.6108C83.8797 78.7545 83.7041 78.9313 83.4963 78.9851C82.8924 78.9224 81.2564 79.2777 80.5593 79.2749C76.0049 79.2558 73.3029 78.6872 69.8212 75.7798L69.5338 75.3284Z" fill="#6572A4"/>
<path d="M91.6951 37.8362L91.8158 38.0508C84.8631 42.5035 75.3965 47.1711 67.2258 48.3716L67.1997 48.0647C74.1803 46.9012 85.622 41.6069 91.6951 37.8362Z" fill="#6572A4"/>
<path d="M131.579 18.469L131.866 18.4493C131.97 18.8595 131.949 19.0343 131.945 19.4632C131.941 20.281 131.405 22.3933 131.179 23.2248C129.692 28.6613 127.223 34.1192 122.996 37.9661C123.768 36.7403 125.089 35.3676 125.992 33.885C129.084 28.8038 130.478 24.1884 131.579 18.469Z" fill="#6572A4"/>
<path d="M64.434 63.6218C65.3973 68.0308 65.4344 70.3107 68.2855 74.2752C68.569 74.6578 69.0213 75.1605 69.0862 75.5968C68.0442 74.7221 67.3796 74.1148 66.5849 72.9923C65.1219 70.9255 63.7346 67.0029 64.1837 64.462C64.3126 64.2741 64.3769 63.8689 64.434 63.6218Z" fill="#6572A4"/>
<path d="M124.678 49.8441C124.834 50.189 124.713 50.0824 124.983 50.2656C124.401 50.9712 124.097 51.5115 123.367 52.107C120.58 54.3759 118.354 53.9216 116.096 51.2254C115.648 50.6311 115.522 50.4915 115.425 49.7515C115.824 49.9617 115.939 49.9275 116.091 50.2476L116.022 50.4903C116.821 51.8684 119.674 52.7568 121.193 52.5972C122.441 52.4661 123.942 50.7645 124.678 49.8441Z" fill="#F7F9FF"/>
<path d="M66.7123 52.5521C71.6905 54.6678 76.2729 55.1046 81.6448 54.5264C82.9985 54.3806 84.9127 53.7945 86.0703 53.794C85.0029 54.7689 77.8765 55.2459 76.0891 55.1643C72.7281 54.992 69.4324 54.1675 66.3858 52.7365L66.7123 52.5521Z" fill="#6572A4"/>
<path d="M128.16 44.841L128.125 45.3605C124.241 47.8111 124.2 50.8849 118.304 51.0964C119.556 50.7346 120.771 50.4999 121.885 49.7915C124.079 48.3972 126.148 46.4974 128.16 44.841Z" fill="#6572A4"/>
<path d="M83.4963 78.9851C83.7041 78.9313 83.8797 78.7545 84.0648 78.6108L84.3622 78.7023C80.3005 82.365 79.5903 82.8105 78.1946 88.0662C78.1813 84.0133 80.3366 81.2695 83.4963 78.9851Z" fill="#6572A4"/>
<path d="M116.093 50.2476C117.108 51.3065 119.094 52.1297 120.586 52.0992C122.584 52.0582 123.532 50.7122 124.77 49.3633L124.889 49.3965L124.68 49.844C123.944 50.7645 122.443 52.4661 121.195 52.5972C119.676 52.7568 116.823 51.8684 116.024 50.4903L116.093 50.2476Z" fill="#6572A4"/>
<path d="M97.9273 9.30243C98.9181 9.07906 104.942 7.78482 105.618 8.04366C105.058 8.42242 99.639 9.23108 98.0347 9.76617L97.9273 9.30243Z" fill="#6572A4"/>
<path d="M73.4451 17.2347L73.6417 17.3233C73.5843 17.4686 73.473 17.7233 73.4412 17.8644C72.086 19.4011 70.6931 21.9001 69.3802 23.5886C69.6945 22.357 72.5252 18.281 73.4451 17.2347Z" fill="#6572A4"/>
<path d="M100.107 56.357L100.235 56.5476C99.0808 58.1921 96.7106 60.3488 94.9249 61.2047C97.0436 59.5124 98.2129 58.1469 100.107 56.357Z" fill="#6572A4"/>
<path d="M68.2899 74.2749C68.4944 73.8701 68.3459 73.9787 68.6637 73.8221L69.8404 75.133L69.5314 75.3283L69.8188 75.7798L69.3007 75.8015L69.0907 75.5965C69.0258 75.1601 68.5735 74.6574 68.2899 74.2749Z" fill="#F7F9FF"/>
<path d="M68.6585 73.8221L69.8353 75.133L69.5262 75.3283C69.1288 74.892 68.7566 74.4116 68.6585 73.8221Z" fill="#6572A4"/>
<path d="M126.128 39.8666C126.821 39.1725 127.661 38.0619 128.425 37.2532L128.48 37.2919C128.072 37.9581 127.326 39.2546 126.755 39.7339L126.224 40.0879C126.124 39.8844 126.14 39.9429 126.128 39.8666Z" fill="#6572A4"/>
<path d="M91.7002 54.0491C92.6067 53.6108 93.521 53.1888 94.4426 52.7834L94.5185 52.8333C93.7676 53.4473 92.9907 53.808 92.1342 54.2509L91.7002 54.0491Z" fill="#6572A4"/>
<path d="M93.8002 18.4051C93.1423 18.9319 92.2979 19.6538 91.5487 19.9921L91.4695 19.7742C91.9921 19.3631 93.1758 18.7302 93.8002 18.4051Z" fill="#6572A4"/>
<path d="M65.6026 48.2846C65.9307 48.1874 66.8143 48.1087 67.1939 48.0648L67.2201 48.3716C66.5774 48.4412 66.2749 48.4585 65.6257 48.4424L65.6026 48.2846Z" fill="#6572A4"/>
<path d="M91.6925 37.8363C92.0382 37.5573 92.2264 37.3388 92.6504 37.2911C92.6185 37.6555 92.1217 37.8759 91.8131 38.0509L91.6925 37.8363Z" fill="#F7F9FF"/>
<path d="M127.318 23.0513C127.362 23.4182 127.137 23.8217 126.979 24.1468C126.327 25.4904 125.245 26.7374 124.347 27.9294C122.331 30.6095 119.833 32.8682 117.158 34.8749C107.113 42.4094 95.4864 45.0294 83.8691 49.1037C83.854 48.9335 84.2099 48.7784 84.3664 48.7017C88.7389 46.5579 93.4634 45.1802 98.0812 43.6639C109.591 39.8846 120.747 33.5572 127.318 23.0513Z" fill="#6572A4"/>
<path d="M95.9465 63.2398C95.9859 63.4752 95.8752 63.7222 95.7683 63.9398C93.7442 68.0601 90.2202 70.4226 86.1303 71.9843L86.1106 71.9313C86.2355 71.6301 87.398 70.9994 87.7817 70.7747C91.0012 68.8883 93.6024 66.1339 95.9465 63.2398Z" fill="#6572A4"/>
<path d="M89.6161 73.7769C89.6402 74.2772 88.9686 74.84 88.637 75.2083C86.4392 77.6504 82.8402 77.8446 79.8524 77.1016C79.739 77.0041 79.7582 76.9933 79.6841 76.8479C84.4902 77.5077 86.1273 76.3562 89.6161 73.7769Z" fill="#6572A4"/>
<path d="M86.7973 77.3151L86.8468 77.4249C83.7044 79.987 83.0803 81.5749 82.1431 85.3861L82.0489 85.2769C82.2182 81.5042 83.736 79.3543 86.7973 77.3151Z" fill="#6572A4"/>
<path d="M62.6409 66.7237C62.9483 67.1832 62.6352 67.6428 62.6047 68.2501C62.5012 70.3054 63.0405 72.0837 63.771 73.9737C62.2912 72.034 61.5943 69.0059 62.6409 66.7237Z" fill="#6572A4"/>
<path d="M103.77 76.2843C104.219 76.9127 104.757 79.2356 104.904 80.0355C104.23 79.5149 103.818 77.1467 103.77 76.2843Z" fill="#6572A4"/>
<path d="M104.225 32.2597C103.65 32.6825 103.418 32.8644 102.772 33.179L102.797 32.9209L102.596 33.2284L102.526 33.1572C102.919 32.6815 103.45 32.4461 103.993 32.1473L104.225 32.2597Z" fill="#F7F9FF"/>
<path d="M127.456 74.0134C122.992 71.6743 120.355 66.609 116.36 63.4478C113.618 61.2771 110.145 59.3463 108.018 56.6191C107.654 56.1069 108.165 54.802 109.112 54.6221C110.715 54.2529 112.055 55.6526 113.398 56.4706C116.319 58.2508 119.174 60.2592 122.025 62.1672C126.69 65.2905 127.084 70.584 133.032 72.0509C128.694 69.0303 127.35 66.0558 123.871 62.2795C123.103 61.4449 120.929 60.394 120.061 59.5224C120.095 59.3127 120.048 59.3439 120.158 59.2573C120.499 58.9908 120.581 58.3186 120.669 57.8734C125.584 60.5147 128.933 62.3841 132.396 66.7743C133.424 68.0773 136.184 69.7217 137.327 71.1249C139.629 73.8854 142.449 78.9604 144.107 82.1654C146.688 87.1565 145.761 88.0367 150.277 91.9643C145.456 95.0527 139.956 100.322 137.088 105.282C133.814 102.858 131.909 102.795 128.11 102.095C126.342 101.769 123.685 100.203 122.053 99.8263C117.487 98.7707 115.356 96.8084 111.931 93.8062C111.419 93.3569 108.837 91.9739 108.655 91.5378C108.753 91.0876 108.809 91.04 109.068 90.6438L108.983 90.5141C108.56 90.7815 108.343 91.0873 108.017 91.4669C107.261 90.5861 105.355 88.0487 105.134 86.9686C106.314 84.6867 104.941 83.4303 102.978 82.2832L102.692 82.1138C109.193 81.7149 110.735 87.7971 116.719 89.6362C117.222 90.5861 118.934 94.0534 119.909 94.1832C120.415 92.2806 113.495 82.3949 111.894 80.5811C109.415 77.7733 106.333 75.1733 104.207 71.8785C103.287 70.4412 98.4954 65.9386 98.6221 64.258L98.8747 64.3529L99.1396 64.1673C98.4274 63.458 98.1891 63.0827 98.6686 62.0198C98.855 61.6066 99.0776 61.4241 99.5062 61.2883C100.34 61.3316 101.245 62.5178 101.867 63.1683L102.156 62.9157C103.16 63.0109 107.403 67.7999 108.396 68.7149C109.546 69.7742 111.056 71.0247 112.184 72.1157C114.382 74.2427 117.642 78.1359 120.44 79.4166C118.168 74.3096 115.735 72.888 111.881 69.066C110.403 67.6009 109.03 65.8581 107.411 64.3508C104.772 61.8938 102.877 60.5981 101.202 57.2405C105.545 61.8451 105.824 57.0367 106.188 56.9235C108.02 58.0085 110.289 60.2314 112.109 61.6078C113.493 62.6553 115.588 63.9328 116.84 65.0103C119.634 67.4171 122.082 72.0855 125.488 73.6511C125.922 73.8507 126.96 73.9568 127.456 74.0134Z" fill="#F7F9FF"/>
<path d="M99.1396 64.1673C98.4274 63.458 98.1891 63.0827 98.6686 62.0198C98.855 61.6066 99.0776 61.4241 99.5062 61.2883C100.34 61.3316 101.245 62.5178 101.867 63.1683C102.149 63.597 102.205 63.6608 102.159 64.1652C101.433 65.4119 100.054 64.9368 99.1396 64.1673Z" fill="#F7F9FF"/>
<path d="M102.152 62.9159C103.82 65.0204 100.679 66.6122 98.8714 64.3531L99.1364 64.1675C100.051 64.9371 101.43 65.4123 102.155 64.1655C102.202 63.6612 102.146 63.5972 101.864 63.1686L102.152 62.9159Z" fill="#6572A4"/>
<path d="M111.813 55.8003C112.049 55.9664 112.124 56.2619 112.219 56.5204C112.543 57.4097 111.593 57.935 110.88 58.0629C110 58.2207 109.57 57.8722 108.915 57.4269C108.707 57.2904 108.705 57.2728 108.553 57.0838C109.092 56.8093 110.442 58.1635 111.584 57.1171C111.855 56.6209 111.806 56.3667 111.813 55.8003Z" fill="#6572A4"/>
<path d="M115.262 65.9463L115.348 66.0351C115.301 66.3451 114.514 67.0575 114.232 67.3486C114.097 67.2226 114.157 67.2943 114.112 67.0644C114.413 66.5393 114.785 66.3073 115.262 65.9463Z" fill="#6572A4"/>
<path d="M122.655 64.3455L122.741 64.5639C122.322 64.9986 121.91 65.1551 121.369 65.4254L121.245 65.2773C121.571 64.9074 122.207 64.6009 122.655 64.3455Z" fill="#6572A4"/>
<path d="M108.549 97.1204C109.093 97.0929 113.982 97.7286 114.305 97.9533C116.751 99.6658 119.683 100.656 122.593 101.592C123.955 102.031 125.843 103.092 127.183 103.43C131.021 104.396 132.979 103.994 136.411 106.517C136.194 107.074 135.727 107.905 135.434 108.46C136.139 109.2 136.95 109.848 137.673 110.57C140.625 113.526 143.883 116.108 146.837 119.047C147.5 119.679 148.423 120.233 149.055 120.877C150.528 122.289 152.031 124.137 153.521 125.489C156.827 128.487 159.505 130.996 161.645 134.972C161.944 135.525 163.502 136.275 163.961 136.921C164.692 137.951 164.589 139.17 165.232 140.23C166.466 141.872 167.035 141.087 168.237 143.121C166.988 142.801 165.616 142.583 164.341 142.352C159.135 141.377 152.578 139.579 147.784 137.264C146.918 136.846 145.538 135.226 144.671 134.843C142.947 134.082 142.004 134.73 140.15 133.677C136.942 131.858 134.465 129.462 131.302 127.668C129.556 126.676 126.927 126.698 125.552 125.928C123.396 124.722 122.043 123.421 119.564 122.468C117.465 121.246 114.132 122.262 112.214 121.725C109.705 121.022 106.93 120.262 104.392 119.605C101.566 114.257 104.644 108.241 105.836 102.829C106.262 100.892 106.912 98.3511 108.549 97.1204Z" fill="#F7F9FF"/>
<path d="M42.2535 51.8359C40.2364 49.5804 38.3646 46.6725 40.1083 43.8031C43.4697 38.2721 50.9695 37.3407 56.1893 40.0442C53.6202 39.6449 51.6154 39.7641 49.1848 40.8472C47.7613 41.4816 45.7903 42.9762 45.2381 44.4736L45.4541 44.9394C48.2012 41.0919 54.3872 39.4029 58.3477 42.2109C61.2296 44.2543 62.8732 50.273 63.4167 53.6845C63.8127 56.169 63.3481 60.426 62.4712 62.8013C62.7792 62.6935 62.8978 62.5802 63.1546 62.3878C62.9727 63.6477 61.3997 65.6622 60.3826 66.367C56.626 68.9704 51.2402 67.3416 48.7348 63.7399C46.8571 61.0407 46.6646 59.6786 46.5778 56.5893C49.6032 63.2172 59.5773 65.778 62.5272 57.9777C57.633 64.4409 50.9975 62.3758 46.99 56.1918C49.179 57.6148 52.6938 58.617 55.1289 57.273L55.2208 56.8236C52.6112 57.389 48.0029 57.788 47.0962 54.4313L46.6803 54.7511C46.6255 55.1891 45.7234 56.2143 45.32 56.9248C43.6105 59.937 44.5652 64.2279 46.4344 66.9584C46.7364 67.3996 47.6895 68.2492 48.1397 68.8501C46.1247 68.9729 44.4957 68.6683 42.8307 67.3509C41.4792 66.2816 41.4579 64.6472 41.1357 63.1953C41.0163 63.0818 40.9433 62.5166 40.8938 62.2932L40.8338 62.4899L40.6746 62.2194C40.487 63.0715 40.8255 64.768 40.9956 65.6768C38.3353 62.0319 37.4798 56.8997 41.2767 53.6961C41.9063 53.6647 42.4269 53.6743 43.0223 53.4632L42.9247 53.3442C41.4678 53.2218 41.2376 53.242 39.832 53.6542C38.2224 50.5012 38.0569 48.8052 38.8997 45.4889C38.9602 48.9546 39.3626 49.8503 42.2535 51.8359Z" fill="#F7F9FF"/>
<path d="M46.6828 54.751C45.31 48.9403 54.5858 42.7816 59.8752 46.0357C54.1544 44.4726 47.1391 48.1283 47.0987 54.4312L46.6828 54.751Z" fill="#6572A4"/>
<path d="M40.6722 62.2195C40.8286 59.074 42.2968 56.838 45.2992 55.8123C42.4303 57.6974 41.1045 59.6479 41.1333 63.1954C41.0139 63.0819 40.9409 62.5167 40.8914 62.2933L40.8315 62.49L40.6722 62.2195Z" fill="#6572A4"/>
<path d="M55.2218 56.8239C55.6924 56.629 57.6342 55.6465 57.7998 55.6425C57.1159 56.3862 56.0665 56.9178 55.1299 57.2734L55.2218 56.8239Z" fill="#6572A4"/>
<path d="M45.2394 44.4739L45.4554 44.9396C45.0863 45.6208 44.9019 45.9993 44.4037 46.5955C44.6874 45.7041 44.8266 45.305 45.2394 44.4739Z" fill="#6572A4"/>
<path d="M54.9093 47.3829C57.0421 47.1838 58.2357 47.2674 60.1577 48.1778C56.19 47.3187 52.825 47.7188 49.8568 50.6695C48.4512 52.1054 48.3502 52.6431 47.4902 54.4162C48.0873 50.3964 50.9926 48.0504 54.9093 47.3829Z" fill="#6572A4"/>
<path d="M44.732 43.9431C44.8078 44.2856 44.415 45.1641 44.269 45.5269C43.1864 48.2186 43.5139 50.3356 45.0468 52.8135L44.9111 53.0011C42.2902 50.6249 42.8263 46.5964 44.732 43.9431Z" fill="#6572A4"/>
<path d="M45.8684 57.9545C46.0208 58.381 46.1843 59.5101 46.2545 59.9855C46.6533 62.6872 48.5594 65.1578 50.7441 66.7188C53.1446 68.4342 56.0797 68.4238 58.8865 67.9207C58.4449 68.2268 57.9871 68.5093 57.5328 68.7965C50.3997 72.6066 44.0003 65.1809 45.8684 57.9545Z" fill="#F7F9FF"/>
<path d="M102.505 54.8507C103.359 54.8992 105.492 56.5543 105.579 57.4683C105.322 57.9355 104.868 58.1478 104.402 58.4447C102.974 58.8523 99.9128 56.5924 102.505 54.8507Z" fill="#F7F9FF"/>
<path d="M102.56 61.3563C105.824 64.0787 108.744 66.8935 111.609 70.0297C113.324 71.9075 116.369 74.1516 117.58 76.3166C114.307 73.2899 111.294 69.9922 107.914 67.021C105.888 65.2398 104.357 63.2673 102.142 61.5112L102.56 61.3563Z" fill="#F7F9FF"/>
<path d="M59.1071 40.93C62.2069 42.8652 64.1475 47.007 64.4626 50.5573L64.4203 51.5908C64.3656 51.6387 64.268 51.7377 64.2098 51.7583C63.612 48.5162 62.3442 45.184 60.3164 42.5483C59.8937 41.9988 59.4959 41.5055 59.1071 40.93Z" fill="#F7F9FF"/>
<path d="M136.554 64.6867C137.016 64.9879 139.354 69.6901 138.466 70.4467L136.148 68.5064C136.299 67.2349 136.434 65.9615 136.554 64.6867Z" fill="#F7F9FF"/>
<path d="M101.888 82.682C102.798 82.986 104.86 84.8554 105.08 85.8595C104.945 86.2949 105.065 86.1066 104.652 86.4021C103.467 85.3008 102.32 84.3225 101.083 83.2787C101.249 82.9364 101.495 82.8955 101.888 82.682Z" fill="#F7F9FF"/>
<path d="M116.908 56.8873C117.853 57.0754 118.967 57.3171 119.671 57.9707C119.791 58.487 119.692 58.49 119.509 59.0414C118.892 58.9412 117.098 57.8501 116.784 57.2649L116.908 56.8873Z" fill="#F7F9FF"/>
<path d="M134.471 37.0588C133.754 38.7527 132.966 39.8553 131.71 41.2136L131.518 40.7586C132.548 39.5618 133.533 38.3277 134.471 37.0588Z" fill="#F7F9FF"/>
<path d="M76.3806 79.7642L76.5799 80.2547C75.9823 80.4849 75.0289 80.7106 74.3827 80.8828C73.8551 80.5913 73.275 80.357 72.7202 80.1159C74.1535 80.2156 75.0876 80.413 76.3806 79.7642Z" fill="#F7F9FF"/>
<path d="M134.428 19.9738C135.238 20.4318 136.307 21.5697 136.301 22.5485C136.086 22.3624 134.559 20.3084 134.428 19.9738Z" fill="#6572A4"/>
<path d="M64.4581 50.5577C64.6236 51.4659 64.6641 52.4935 64.4905 53.4014L64.3868 53.3621C64.3069 52.8121 64.2571 52.3108 64.2052 51.7587C64.2635 51.7381 64.361 51.6391 64.4158 51.5912L64.4581 50.5577Z" fill="#F7F9FF"/>
<path d="M68.7353 121.077C69.6544 120.607 71.5059 120.089 72.531 119.796C78.7415 118.001 85.1931 117.184 91.6546 117.376C92.177 117.52 92.3028 117.527 92.6247 117.95L90.424 117.729C92.3437 118.958 95.3366 121.76 96.5763 122.359C99.704 123.873 103.147 123.085 106.052 126.421L105.782 126.57C102.214 123.97 100.28 124.222 96.56 122.858C95.6719 122.533 91.2132 118.739 90.1454 117.797C82.4668 117.651 76.1035 119.519 68.7353 121.077Z" fill="#6572A4"/>
<path d="M173.179 143.905C176.575 140.28 182.95 138.12 187.89 137.972C190.75 137.886 192.921 138.307 195.568 139.357C193.805 139.163 192.603 138.831 190.744 138.742C184.681 138.514 178.726 140.39 173.887 144.05C173.584 144.018 173.47 143.982 173.179 143.905Z" fill="#6572A4"/>
<path d="M106.058 126.421C106.407 126.336 106.681 126.277 107.036 126.216C106.568 126.71 105.881 127.303 105.501 127.832C103.359 130.812 101.865 134.505 100.626 137.939C100.172 139.198 99.8442 140.587 99.3551 141.775C99.8304 137.548 100.68 134.344 102.817 130.612C103.61 129.227 104.49 127.554 105.788 126.571L106.058 126.421Z" fill="#6572A4"/>
<path d="M156.928 95.2302L157.074 95.2938C156.934 95.6269 151.476 99.4992 150.654 100.194C147.193 103.122 144.317 106.315 141.674 109.987L141.569 110.044L141.538 109.876C144.035 104.831 151.88 97.4627 156.928 95.2302Z" fill="#6572A4"/>
<path d="M37.2789 56.6478L37.5577 57.2309C35.0399 62.2183 35.5288 65.4079 37.6017 70.2815C36.5257 68.7694 35.7458 67.5909 35.3936 65.7129C34.8442 62.7824 35.6401 59.1159 37.2789 56.6478Z" fill="#6572A4"/>
<path d="M63.0612 92.2597C63.1824 87.1472 65.4196 83.3078 70.6544 82.182L70.773 82.524C65.8765 83.9952 64.1834 87.6869 63.0612 92.2597Z" fill="#6572A4"/>
<path d="M168.826 141.122C169.857 137.995 172.892 136.15 175.68 134.669C176.227 134.379 179.344 132.85 179.783 132.85C179.119 134.023 170.264 136.826 169.305 141.512L168.885 141.38L168.826 141.122Z" fill="#6572A4"/>
<path d="M49.9302 115.243L50.1023 115.329C50.1333 115.564 50.1574 115.851 50.2213 116.072C51.3168 119.743 54.5 120.47 57.9313 121.225C58.6082 121.375 59.2611 121.341 59.9693 121.505L60.0506 121.654C59.4815 122.012 58.4838 121.772 57.8446 121.68C54.626 121.22 49.2441 119.446 49.9302 115.243Z" fill="#6572A4"/>
<path d="M174.216 128.431C179.18 126.39 183.606 126.29 188.71 127.844C187.295 127.728 185.958 127.449 184.555 127.283C181.333 126.901 177.494 127.276 174.492 128.598L174.216 128.431Z" fill="#6572A4"/>
<path d="M174.495 128.598C174.022 128.793 173.115 129.178 172.634 129.192L172.645 129.032L172.723 128.987L172.705 129.191L172.739 128.977C173.269 128.757 173.66 128.588 174.219 128.43L174.495 128.598Z" fill="#F7F9FF"/>
<path d="M67.0827 87.6871L67.3228 88.114C67.1415 88.6325 67.0326 89.0701 66.6966 89.5005C66.5239 89.1152 66.9287 88.0969 67.0827 87.6871Z" fill="#6572A4"/>
<path d="M199.511 150.885C200.368 151.34 200.719 151.476 201.425 152.123L199.246 151.141L199.511 150.885Z" fill="#6572A4"/>
</svg>
