<svg width="250" height="179" viewBox="0 0 250 179" fill="none" xmlns="http://www.w3.org/2000/svg">
<path d="M88.8139 21.7551C93.9858 12.2233 100.823 4.92568 111.383 1.75929C122.653 -1.70307 135.265 0.0925279 145.477 5.85023C149.877 8.33144 154.947 11.7712 158.441 15.3915C160.189 17.2016 161.06 19.9117 160.885 22.3367C160.864 22.625 163.134 24.2526 163.371 24.6387C166.99 28.8664 167.87 35.4004 165.288 40.3012C166.81 33.3949 165.752 27.7976 160.34 22.8817C163.228 28.7621 164.159 37.7126 162.242 44.0645C162.027 44.779 160.83 47.1451 160.416 47.9678C158.845 51.0931 160.905 54.7614 162.336 57.7616L162.427 57.9505C164.691 57.9381 167.89 57.7869 170.073 58.1085C171.725 58.3519 175.223 61.3125 176.607 62.4065C178.496 63.8989 181.704 65.6411 182.886 67.6198C182.94 68.6168 182.965 69.3915 182.938 70.3883C183.818 71.3212 184.594 72.3305 184.493 73.7333C184.289 76.5861 183.073 79.3402 182.282 82.0388C181.301 85.3797 180.367 89.4891 179.898 92.9079C179.756 93.9282 180.912 97.3428 181.267 98.5038C182.843 103.675 184.606 108.787 186.552 113.83C187.989 117.535 189.551 121.077 190.966 124.83C191.99 127.565 192.902 130.341 193.698 133.151C196.724 135.373 197.904 136.677 198.615 140.721C198.966 142.72 198.688 145.585 198.817 147.738C198.926 149.588 199.394 151.843 199.448 153.581C199.577 157.783 199.989 164.875 197.565 168.438C195.675 171.217 190.219 173.202 187.009 173.678C186.659 173.73 186.409 173.808 186.102 173.645L185.979 173.201C185.261 173.228 184.465 173.488 183.825 173.483C182.855 173.454 181.887 173.313 180.915 173.305C176.655 173.268 172.525 172.834 168.34 172.022C163.54 171.091 158.963 169.265 154.324 167.717C148.15 165.725 142.038 163.538 135.999 161.163C135.935 161.84 135.863 162.545 135.842 163.221C135.698 167.673 134.301 172.029 132.336 175.996C131.904 176.869 131.313 178.367 130.608 178.997L130.359 179C129.805 178.251 130.671 175.87 131 175.02C132.849 170.237 134.411 165.872 134.926 160.726C129.642 158.767 124.303 156.401 119.11 154.192C113.923 151.986 108.892 149.419 103.676 147.225C101.849 149.511 88.3326 152.695 85.8132 151.706L85.7277 151.508C86.3149 150.973 87.6839 150.751 88.4619 150.617C93.4341 149.761 98.2595 148.639 103.005 146.888C101.63 146.417 97.4614 145.16 96.5458 144.327L96.4871 144.053C98.7536 142.357 116.007 150.791 119.054 152.122C127.822 155.957 136.698 159.539 145.669 162.864C151.38 164.946 157.138 166.694 162.901 168.855C170.118 171.561 178.855 172.875 186.569 172.7C189.165 172.199 192.664 170.397 194.805 168.968C196.59 167.777 197.755 165.899 197.919 163.903C198.398 158.11 197.835 152.298 197.265 146.534C197.007 143.931 197.634 140.362 197.058 137.848C195.724 136.802 194.292 135.647 192.902 134.695C186.76 130.487 176.424 127.578 169.373 130.983C169.334 132.218 169.285 133.451 169.225 134.684C175.006 133.176 183.872 134.841 188.648 138.522C183.088 136.255 175.297 134.007 169.278 135.395C169.261 135.947 169.221 136.641 169.231 137.18C171.331 139.443 172.601 139.595 175.042 141.31C179.558 144.486 183.374 149.359 184.817 154.716C181.26 148.822 177.849 144.318 171.867 140.56C173.354 143.831 174.542 146.98 175.527 150.441C175.734 151.169 177.509 157.61 177.681 157.714L177.816 156.587C177.867 156.714 178.013 157.888 178.097 158.259C178.244 157.561 178.262 156.739 178.316 156.021C178.493 156.831 178.586 158.718 177.982 159.341L177.673 159.265C175.865 157.498 174.334 150.103 173.351 147.272C172.569 145.019 172.038 143.305 171.041 140.987C170.337 140.48 169.283 140.154 168.644 139.563C167.421 138.434 166.273 136.609 164.875 135.751C164.337 135.422 163.396 135.799 162.796 135.981C159.413 134.631 155.364 130.691 152.052 128.827C150.314 127.849 148.362 127.836 146.941 126.752C146.063 126.081 145.183 123.922 144.492 122.789C143.713 122.579 140.78 122.252 140.408 121.983C132.586 116.336 128.493 106.924 120.728 101.217C118.327 99.4487 115.728 97.9681 112.983 96.8061C111.332 96.1237 106.492 94.8244 105.811 94.2734L105.983 94.1755C112.877 94.4416 118.494 96.9653 123.773 101.361C123.589 100.5 123.464 99.5696 123.33 98.6944C121.881 96.9639 119.406 95.3868 117.553 93.5545C110.885 86.9602 104.017 79.5232 95.0172 76.2055C95.0458 76.216 94.6808 76.4366 94.406 76.4332L94.2523 75.8993C93.5312 75.4178 91.6237 74.7843 90.7213 74.4546C88.6262 75.8658 87.1707 78.3783 85.7849 80.4431C85.3359 81.1121 84.414 82.9711 83.6217 82.9816C82.9659 82.1208 83.7094 80.9766 84.1296 80.1697L83.9763 79.8453C82.5214 81.7825 82.039 82.589 79.8899 83.7477C86.1622 75.4383 88.3098 69.3582 84.648 59.2246C82.3814 52.9522 77.2411 40.5758 83.9389 35.4065C82.5826 33.779 82.6787 32.1984 82.026 30.8967L81.9481 30.6118C82.0876 30.2213 82.077 27.379 82.0994 26.692C66.174 29.602 61.057 45.6951 61.2934 60.0594C61.468 70.666 68.3396 85.7192 59.8131 94.5463C65.0844 83.3528 61.3137 75.396 60.0629 63.7002C59.4809 58.2574 59.6925 53.0372 61.0937 47.7077L60.7559 47.7659C60.277 49.2177 59.8878 50.4591 59.5741 51.9568C59.3117 53.21 59.1074 54.7486 58.7362 55.9435C58.602 47.4668 62.3578 38.5549 68.2149 32.4791C72.3391 28.2007 76.5416 26.1294 82.4892 25.8205C82.8417 25.1511 83.2078 24.2058 83.9328 24.0771C87.1032 23.5142 85.4539 21.3983 88.8139 21.7551Z" fill="#6572A4"/>
<path d="M84.481 35.9792C86.8602 37.8531 86.3172 36.7479 88.2699 37.7578L88.3006 37.9384C88.6081 39.824 88.4604 42.7562 88.5214 44.7451C88.7688 52.8159 92.6508 59.4876 99.8986 63.1516C96.2779 64.0685 95.023 64.9573 94.1208 68.7366C95.6212 66.4204 96.4093 65.3021 99.0717 64.2924C97.9594 65.2876 95.8043 67.8097 96.3397 69.4075C96.6609 69.7101 96.5167 69.6945 96.8283 69.7156C97.1149 69.1047 97.0657 68.7429 97.2714 68.1299C97.9235 66.1867 98.7805 65.4966 100.502 64.6047C98.6986 69.9878 98.1623 69.9973 95.3178 74.557C90.9102 72.988 88.7513 72.9056 85.935 77.2955L85.7115 77.1272C88.8459 70.9387 88.6181 65.6686 86.4968 59.3074C84.4265 53.0991 78.6984 41.5645 84.481 35.9792Z" fill="#F7F9FF"/>
<path d="M60.7539 47.7656C61.1119 46.2531 61.7271 44.9956 62.3394 43.591C62.5508 43.1061 62.3553 42.3923 62.8292 42.2202C62.9546 42.1746 63.0705 42.0723 63.1627 41.9912C62.8476 43.0438 62.3326 44.1836 61.9335 45.231C61.6746 45.9105 61.351 47.1326 61.0917 47.7074L60.7539 47.7656Z" fill="#F7F9FF"/>
<path d="M85.7138 77.1271L85.9373 77.2953L84.1201 80.1696L83.9667 79.8452C84.1307 79.4392 85.4124 77.5574 85.7138 77.1271Z" fill="#F7F9FF"/>
<path d="M88.7829 26.2573C88.8166 25.5621 88.8265 24.3364 89.1275 23.7585C93.2528 15.8357 99.6366 8.00688 107.991 4.54451C117.917 0.282883 129.334 0.856398 139.262 4.87043C145.668 7.46004 152.813 12.1812 157.887 16.9606C158.894 17.9087 159.919 20.0359 160.093 21.4479L159.995 21.5605C158.773 22.9885 157.885 24.624 156.472 25.9222C151.299 30.6703 145.088 34.6469 138.393 36.83C136.772 37.3584 129.489 39.7133 128.211 39.1716C127.703 39.243 127.4 39.4707 127.033 39.8454C129.912 40.7741 132.51 39.9103 135.416 39.2803C131.125 41.5816 125.509 43.5179 120.63 42.0341C120.408 41.966 120.189 41.8899 119.974 41.8062C116.394 35.7522 108.871 37.2846 107.314 43.9057C106.498 47.377 107.43 49.5983 108.163 52.8579C106.128 57.347 107.118 64.0133 111.088 67.2406C107.696 61.7156 108.125 59.4617 108.457 53.3642C110.116 56.5205 114.464 62.5021 118.807 60.8173C119.551 60.5287 121.013 58.3185 119.865 57.8119C119.432 58.3564 118.251 59.9088 117.433 59.7408C110.616 58.3422 105.362 46.161 110.534 40.8019C112.588 38.6738 116.392 38.9166 118.134 41.1674C118.53 41.6792 120.114 44.091 120.299 44.1398L120.427 43.9175C120.208 43.682 119.95 42.9299 119.816 42.5925C124.336 44.8162 130.672 43.6448 134.651 40.824C135.381 40.306 136.266 39.2845 137.081 38.9319C138.955 38.1223 140.965 37.5789 142.834 36.746C148.315 34.3018 154.733 29.9014 158.584 25.2858C156.68 29.5883 152.601 33.5749 148.716 36.1426C145.82 38.0554 140.287 40.6738 136.807 40.7144C136.883 40.7891 136.934 40.8806 137.04 40.8863C146.538 41.3917 157.516 32.3106 159.87 23.8197C160.269 25.0785 160.983 27.103 161.225 28.402C162.059 32.8784 162.706 39.3182 161.386 43.7249C160.708 45.9871 158.495 48.7315 158.816 51.2724C159.172 54.0955 160.847 57.0799 162.235 59.5122C162.675 60.2827 163.412 61.5516 163.603 62.3433L163.476 62.497C162.738 61.963 162.076 60.127 160.97 59.228C160.176 58.4692 158.645 57.4839 157.467 57.6658C152.576 58.4211 155.895 64.6189 156.929 67.2553C156.916 67.2231 156.485 68.3866 156.476 68.5522C156.424 69.5786 156.587 70.6475 156.703 71.6658C155.973 72.4049 155.678 72.6085 154.808 73.1965C153.369 73.2872 150.456 72.7257 149.519 73.6161L149.64 73.7599C150.537 73.7445 153.167 73.9481 153.999 74.1806C155.634 76.9221 151.884 76.7222 150.985 79.0568C150.498 80.3229 150.21 82.9226 149.71 83.7712C145.733 90.523 135.91 80.4547 130.31 82.6359C127.186 83.8922 122.506 92.0887 121.208 94.8651C119.896 93.3934 118.19 91.9368 116.795 90.4831C110.839 84.2738 104.644 78.1984 96.4819 75.0213C99.4453 71.5072 100.957 68.9274 101.951 64.3994L102.29 64.2341C103.286 63.7537 103.787 63.3225 104.451 62.4169C105.238 61.3428 107.623 57.0074 106.215 56.0315C105.572 56.5659 104.07 63.5684 101.805 62.9767C101.714 62.8403 97.4342 59.6615 96.7559 59.0651C90.624 53.6736 90.5057 47.8248 89.9438 40.3887C89.8356 38.9552 89.4493 37.5681 89.355 36.1393L89.5086 36.0259C89.6562 35.7424 89.6559 35.7883 89.9052 35.5642C89.2742 33.7366 88.8837 32.8841 88.8507 30.9264L88.7797 30.7312C88.5778 30.218 88.717 27.8592 88.7497 27.2514C90.1305 25.7789 91.4552 23.8225 92.7458 22.5735C99.4805 16.0561 106.384 12.3927 115.408 10.4049C112.369 10.2222 108.009 11.5385 105.209 12.8101C98.6214 15.8013 93.0077 20.3807 88.7829 26.2573Z" fill="#F7F9FF"/>
<path d="M144.269 29.3636C140.992 34.1058 133.619 37.6198 128.204 39.1716C127.696 39.243 127.393 39.4707 127.026 39.8455C126.451 40.0667 124.489 39.852 123.789 39.7889C130.589 38.4043 139.263 34.2369 144.269 29.3636Z" fill="#6572A4"/>
<path d="M88.7797 30.7312C88.9049 30.6993 89.0311 30.6674 89.1563 30.6355C90.6931 31.4444 92.1129 32.3393 93.7449 32.9737C97.7821 34.5431 102.73 34.3872 106.867 33.1174C101.824 35.988 92.8461 35.2915 88.8507 30.9264L88.7797 30.7312Z" fill="#6572A4"/>
<path d="M120.425 43.9176L120.664 43.6787C122.363 43.8776 123.927 45.0356 126.202 44.8748C127.704 44.7687 129.336 43.734 129.822 43.7499L129.656 44.0048C127.238 46.8456 124.637 46.6213 121.618 44.7389C121.266 44.5191 120.761 44.089 120.425 43.9176Z" fill="#6572A4"/>
<path d="M89.5057 36.0258C89.6532 35.7423 89.6529 35.7881 89.9022 35.5641C91.7547 39.2986 94.2075 41.5564 97.3349 44.1737C93.7855 42.557 90.9852 39.6428 89.5057 36.0258Z" fill="#6572A4"/>
<path d="M113.328 41.0017C113.539 40.9725 113.751 40.9518 113.963 40.9397C117.166 40.7361 118.662 44.3074 117.532 46.9398C117.177 47.7673 116.705 48.2223 116.087 48.873C116.807 46.0412 117.881 44.5597 115.085 42.2486C114.208 41.9904 112.878 42.1361 112.195 42.7714C110.527 44.3246 110.621 47.2286 110.444 49.3581C109.769 45.9268 109.844 42.6251 113.328 41.0017Z" fill="#6572A4"/>
<path d="M118.269 49.1839C118.632 49.8776 117.278 51.6841 118.673 52.8026C119.394 53.3811 119.337 54.6302 118.376 55.1865C116.479 55.3498 115.604 53.403 114.285 52.9057C114.019 52.7802 113.753 52.6294 113.492 52.4892L113.436 52.2931C115.537 51.5998 116.255 53.6537 118.012 53.9996C117.974 52.3214 115.592 52.6512 118.269 49.1839Z" fill="#6572A4"/>
<path d="M119.854 61.3472C120.368 62.3017 120.761 64.9628 121.098 66.1728C121.926 69.1528 123.714 71.2448 125.526 73.6616C124.972 73.4432 124.108 72.6217 123.663 72.1703C120.653 69.1203 119.92 65.4361 119.854 61.3472Z" fill="#6572A4"/>
<path d="M115.045 46.1172C115.514 46.0491 115.671 46.0506 116.146 46.0725C116.14 46.2843 115.855 46.3515 115.58 46.5105C113.968 47.4422 113.454 47.742 112.403 49.2263C112.175 49.6414 112.276 49.6072 111.926 49.7863L112.033 49.8721L111.857 49.9974L111.839 49.7081L112.016 49.703L111.89 49.5576C112.479 48.0303 113.661 46.9153 115.045 46.1172Z" fill="#6572A4"/>
<path d="M154.193 61.7821C154.339 62.3098 153.701 63.7524 154.077 64.4341C154.391 65.0045 155.015 65.1709 155.334 65.7967L155.223 66.0752C153.012 65.3642 152.989 63.4335 154.193 61.7821Z" fill="#6572A4"/>
<path d="M155.054 73.8335C155.494 73.8673 155.76 73.821 156.044 74.2086C156.504 74.892 157.8 75.2162 157.578 76.1941C157.271 77.5432 158.895 78.1557 159.912 78.5096C159.884 84.0401 160.812 85.3561 163.444 89.8483C163.297 93.0665 163.328 94.8637 165.108 97.5187C165.677 98.5667 166.012 99.957 166.19 101.12C167.312 108.479 168.076 115.97 168.472 123.403C168.58 125.422 168.743 127.63 168.724 129.619C167.466 131.143 167.672 134.33 167.793 136.308C166.235 134.506 165.162 134.241 162.898 134.703C159.801 132.145 155.773 128.88 152.298 126.887C151.941 126.681 149.82 126.105 149.28 125.963C147.378 125.463 147.187 124.435 146.306 122.769C146.252 122.692 146.197 122.616 146.14 122.542C145.045 121.122 142.709 121.028 141.01 120.784C138.643 118.016 136.125 115.501 133.729 112.678C131.143 109.627 128.03 105.126 125.156 102.508C124.83 99.0366 124.28 97.9476 121.791 95.2726C122.202 94.5369 122.651 93.8226 123.136 93.1326C124.28 91.5074 128.562 85.4869 129.79 84.6394C133.973 81.7514 141.215 88.285 146.725 87.28C147.688 87.11 148.592 86.6974 149.353 86.0807C152.354 83.6783 150.535 81.1508 152.514 78.2617C155.525 77.2585 155.34 76.8314 155.054 73.8335Z" fill="#F7F9FF"/>
<path d="M162.746 58.4885C165.607 58.9414 167.473 58.9686 170.386 58.8236C173.973 62.113 177.252 64.7178 181.343 67.3052C182.394 67.9701 181.645 71.7203 181.715 73.0339L181.89 73.1578C182.484 72.7008 182.19 72.2345 182.681 71.7527C183.114 71.9929 183.439 73.2971 183.356 73.7234C182.105 80.1819 179.128 86.1968 178.964 92.9399C178.915 94.9674 179.958 98.0563 180.519 100.075C183.612 111.19 188.292 121.741 192.504 132.46C190.702 131.298 189.017 130.387 186.987 129.677C180.811 127.513 175.812 127.084 169.564 129.286C169.64 126.886 169.826 123.643 169.741 121.291C169.478 113.965 168.712 106.407 167.142 99.2388C166.702 97.2325 165.924 96.3657 165.117 94.5286C164.578 93.2983 164.454 92.3001 164.257 90.9976C164.656 91.5793 165.311 92.9359 166.042 92.5883C166.538 91.3042 163.64 87.3272 162.894 86.0681C160.236 81.5851 161.738 77.0031 160.66 72.7274C159.69 68.883 157.333 66.4076 156.02 62.0129C156.685 62.7498 157.558 63.4366 158.534 63.0014C160.437 62.154 160.189 60.6676 159.687 59.2558C161.89 61.8862 162.551 63.6216 163.852 66.6569C164.694 68.6216 167.186 71.222 169.104 72.1399C169.704 72.4266 171.116 72.7628 171.461 71.961C171.106 71.18 170.219 71.1024 169.437 70.8859C170.815 70.5313 171.826 70.2582 173.039 69.4403C173.439 69.1707 174.764 68.2562 174.853 67.8316C174.008 67.7286 172.2 68.8435 171.303 69.2546C171.675 66.4665 171.819 66.6854 173.741 64.8836C173.954 64.6841 173.97 64.4856 173.91 64.2154C172.685 63.8395 171.739 65.534 171.064 66.4052C170.021 64.8956 168.445 63.9752 168.278 62.6735C168.233 62.9295 168.159 63.3556 168.025 63.5778C166.999 63.2613 165.611 63.0074 164.538 62.7802C164.233 60.9442 163.636 60.1277 162.746 58.4885Z" fill="#F7F9FF"/>
<path d="M168.026 63.5775C167.69 62.7565 167.808 61.8734 168.218 61.1073L168.418 61.0574C168.583 61.5505 168.389 62.1329 168.279 62.6732C168.234 62.9292 168.16 63.3553 168.026 63.5775Z" fill="#6572A4"/>
<path d="M164.112 63.5699C165.489 63.989 166.563 64.2998 167.965 64.6034C168.188 64.9756 168.75 65.7855 169.075 66.0339C170.535 67.1481 170.742 66.9203 170.305 68.727L170.226 68.8467C169.709 68.8142 168.907 67.7376 168.001 67.4015C166.833 66.9681 166.437 66.9673 165.173 66.9135C164.62 65.7294 164.392 64.8321 164.112 63.5699Z" fill="#F7F9FF"/>
<path d="M158.28 58.0606L158.392 58.0565C159.172 58.6327 159.514 60.3199 159.866 61.335C159.005 61.9149 158.2 62.267 157.245 62.6592C155.146 60.9045 154.985 58.414 158.28 58.0606Z" fill="#F7F9FF"/>
<path d="M87.8178 23.0643C88.0613 23.3123 87.4133 25.6875 87.3323 26.2769C87.0683 28.2567 87.0119 30.2587 87.1643 32.2503C87.223 32.9854 87.6493 35.5676 87.5889 35.9306L87.3693 35.6841C86.6367 33.0108 85.9265 30.3649 85.9109 27.5631C85.8994 25.4903 86.4405 24.4768 87.8178 23.0643Z" fill="#F7F9FF"/>
<path d="M157.885 71.6488C159.249 71.7438 159.996 72.2751 159.522 73.9762C159.473 74.1547 159.228 74.1386 159.023 74.1806C158.245 74.0567 157.701 74.0642 157.208 73.4708C157.138 72.8075 157.547 72.2787 157.885 71.6488Z" fill="#F7F9FF"/>
<path d="M84.5048 25.4249C84.9123 25.7701 84.537 26.4422 84.5042 27.1319C84.3791 29.7583 85.0469 32.2656 85.4607 34.7941C84.0793 33.0962 83.4982 27.4434 84.5048 25.4249Z" fill="#F7F9FF"/>
<path d="M166.226 68.0581C167.537 67.9572 167.781 68.4893 168.925 69.0513C169.336 69.253 169.893 69.3824 170.197 69.6626L170.053 69.9959C169.643 70.2327 169.548 70.2807 169.095 70.4123C167.982 70.2009 167.02 68.9141 166.226 68.0581Z" fill="#F7F9FF"/>
<path d="M157.458 68.3837C157.971 68.6805 158.555 70.0547 158.848 70.65C158.154 70.6254 158.061 70.7005 157.569 70.3531C157.301 69.784 157.424 69.0462 157.458 68.3837Z" fill="#F7F9FF"/>
<path d="M159.751 75.1864C159.993 75.5553 160.097 76.628 159.704 76.9566L159.338 76.7738C158.913 76.3788 158.632 76.2011 158.596 75.6778C158.905 75.3223 159.273 75.302 159.751 75.1864Z" fill="#F7F9FF"/>
<path d="M75.7846 89.0966C76.8635 87.8183 80.9392 83.2121 82.4423 83.3524C82.2875 83.8803 80.4657 85.7126 79.9885 86.2256C71.1046 95.7767 64.6654 107.317 60.3987 119.583C56.919 129.586 54.6367 139.078 53.2957 149.559C52.4893 155.564 51.9965 161.565 51.1357 167.555C50.9132 169.102 50.6235 172.3 50.0403 173.675C49.4112 146.133 56.1029 113.849 73.4383 91.9256L73.3074 91.5408C73.4974 91.217 75.1794 89.2927 75.5358 88.8754L75.7846 89.0966Z" fill="#6572A4"/>
<path d="M75.5337 88.8752L75.7825 89.0964C75.0149 90.0515 74.2328 90.9946 73.4362 91.9254L73.3053 91.5406C73.4953 91.2168 75.1773 89.2925 75.5337 88.8752Z" fill="#F7F9FF"/>
<path d="M81.5265 56.3444C85.764 63.9424 83.7954 76.5895 79.4294 83.829C78.3946 85.5449 76.8364 87.319 75.5379 88.8758C75.1815 89.293 73.4995 91.2173 73.3095 91.5411C69.6197 95.2246 67.893 96.8507 62.8991 97.7024C62 97.8556 59.037 100.125 57.5368 99.9479C56.842 100.023 53.7069 99.3075 53.6335 98.3854C54.1352 98.339 54.0482 98.7383 54.9291 98.6181C56.4501 98.4105 57.4951 97.8555 58.7315 96.9396C62.0017 94.5171 64.0553 90.9219 65.1394 87.0434C65.3764 86.1951 65.5477 85.3125 65.8666 84.4863C65.9048 88.9013 64.6064 92.8676 61.4779 96.0695C60.6372 96.9289 59.6909 97.6778 58.662 98.2983L58.7506 98.6373C62.7535 97.1501 66.511 93.5443 69.7022 90.6992C68.6472 93.0853 67.4667 94.0022 65.594 95.8022C70.3001 93.2015 74.4443 88.4477 77.2504 83.9265C83.0399 74.5983 83.8323 66.7691 81.5265 56.3444Z" fill="#6572A4"/>
<path d="M58.6561 98.2979L58.7447 98.6369C58.1205 99.035 57.0746 99.3167 56.3413 99.5401L58.6561 98.2979Z" fill="#F7F9FF"/>
<path d="M95.8328 95.567L96.0061 95.6402C95.1951 96.3966 93.9314 96.9335 92.9772 97.7857C89.7734 100.647 86.7711 105.013 85.5124 109.149C82.7721 118.156 86.052 129.962 90.1507 138.059C90.7413 139.221 91.3753 140.362 92.0514 141.477C92.3996 142.045 93.8823 144.133 93.8432 144.59C91.332 141.823 89.8765 139.661 88.3133 136.181C83.8457 126.236 81.0896 113.874 87.1038 103.937C89.1712 100.521 92.1857 97.2389 95.8328 95.567Z" fill="#6572A4"/>
<path d="M67.5439 61.6989C65.843 50.7993 69.6116 37.3629 79.3819 31.23C80.153 30.746 81.0438 30.5715 81.9405 30.6116L82.0185 30.8966C71.6651 34.5337 66.6612 51.777 67.8511 61.6985L67.5439 61.6989Z" fill="#6572A4"/>
<path d="M108.21 149.589C107.805 151.197 107.185 152.133 106.18 153.452C100.891 160.386 94.236 165.851 87.154 170.847L86.7207 170.602C93.0304 165.496 98.676 160.807 104.048 154.652C105.449 153.047 107.113 151.413 108.21 149.589Z" fill="#6572A4"/>
<path d="M142.161 124.685L142.219 124.712L142.25 124.838C137.517 128.416 116.85 132.314 110.841 131.681L110.612 131.464C110.836 131.324 112.985 131.332 113.542 131.253C122.621 129.956 133.87 128.543 142.161 124.685Z" fill="#6572A4"/>
<path d="M77.57 59.785C77.7501 60.1166 77.9262 60.7889 77.9905 61.1732C79.5359 70.4164 76.7134 80.2136 71.7426 87.9319C71.7058 87.9718 71.5816 88.0203 71.5234 88.0477C71.4981 87.3819 74.5931 80.9606 75.0551 79.8069C75.6755 78.2528 76.2001 76.6619 76.626 75.0433C78.1792 69.0317 77.8447 65.7067 77.57 59.785Z" fill="#6572A4"/>
<path d="M140.987 131.63L141.097 131.664C140.953 131.934 140.159 132.304 139.85 132.479C130.966 137.511 121.185 139.658 111.095 140.421C110.918 140.396 111.015 140.427 110.821 140.288C111.384 140.013 116.681 139.346 117.684 139.18C119.358 138.899 121.023 138.57 122.678 138.194C129.791 136.599 134.487 134.695 140.987 131.63Z" fill="#6572A4"/>
<path d="M177.806 156.587C177.575 155.492 177.528 153.795 177.309 152.548C176.917 150.329 176.297 148.447 175.576 146.32C177.166 149.321 178.096 152.629 178.305 156.021C178.251 156.739 178.233 157.561 178.086 158.259C178.002 157.889 177.856 156.714 177.806 156.587Z" fill="#6572A4"/>
<path d="M83.743 172.98C84.1711 172.439 86.0872 171.077 86.7268 170.602L87.16 170.847C85.976 171.633 84.9753 172.276 83.743 172.98Z" fill="#6572A4"/>
<path d="M67.5426 61.6986L67.8498 61.6982C67.9702 62.2988 68.1532 62.9201 68.056 63.5083L67.9169 63.465C67.637 62.8039 67.6237 62.4095 67.5426 61.6986Z" fill="#6572A4"/>
</svg>
