<svg width="250" height="179" viewBox="0 0 250 179" fill="none" xmlns="http://www.w3.org/2000/svg">
<path d="M191.335 67.8927C190.736 67.1066 190.483 64.7202 191.503 64.4909C191.747 64.8566 191.04 66.4151 191.465 67.0156L191.663 66.9524C192.303 66.2779 192.756 65.283 193.157 64.4482C197.447 64.655 194.771 66.9457 193.388 68.6083L193.468 68.7203C193.738 68.6776 193.888 68.6551 194.153 68.7211C197.926 69.6577 192.493 74.5057 191.479 75.6469C191.124 76.0469 190.417 76.3584 190.197 76.7817C190.893 77.0489 194.582 76.4646 192.297 79.3658C190.424 81.7458 187.424 83.8548 185.088 85.8565C183.384 87.3168 181.991 88.7891 180.432 90.4037C176.756 92.7533 170.319 96.713 166.109 97.3562C167.619 96.0206 169.492 95.2779 171.299 94.3908C173.874 93.1252 176.494 91.8848 178.999 90.4792C181.074 89.3153 182.267 87.4317 184.097 86.0928L184.231 85.9965L184.107 85.6859C182.942 86.4724 181.622 87.2906 180.521 88.1372C178.847 89.4258 177.829 90.4081 175.867 91.2919C172.799 92.7205 169.807 94.3667 166.579 95.4157C165.872 95.6454 163.49 96.223 163.275 96.841C162.272 99.7222 161.322 102.589 160.056 105.383C159.629 106.326 159.337 107.385 158.913 108.328L162.174 111.819C162.21 108.638 163.938 99.8743 166.249 97.7577L166.406 97.7719C166.458 98.2554 166.269 98.8034 166.107 99.2584C165.361 101.354 164.648 103.456 164.165 105.63C164.03 106.238 163.891 106.873 163.676 107.458C165.717 108.825 168.219 111.743 168.694 114.218L168.612 114.424C167.891 116.236 167.581 118.171 166.891 119.984C166.36 121.381 165.823 122.914 165.176 124.261C163.677 127.384 163.369 130.801 162.684 134.156C162.289 136.086 162.172 137.96 161.563 139.859C160.29 143.832 158.493 147.582 156.86 151.413C154.681 156.035 152.842 160.832 150.028 165.109C148.072 168.081 145.409 168.538 142.149 167.932C141.022 170.351 138.751 173.452 136.176 174.556C135.797 174.719 134.297 175.066 133.938 174.859L133.97 174.706C134.266 174.529 134.273 174.521 134.601 174.419C135.49 174.311 135.559 174.12 136.042 173.39C140.251 170.886 144.156 160.862 146.425 156.434C148.604 152.18 151.321 147.224 152.817 142.705C155.328 135.127 156.22 126.903 159.679 119.601C160.6 117.647 161.748 116.026 162.253 113.891C160.186 112.188 159.213 110.994 157.454 109.128C155.373 106.92 151.708 104.728 148.799 103.899C147.924 103.649 146.412 103.407 145.464 103.244L144.928 103.102C145.631 102.062 145.696 103.262 146.435 102.357L146.69 102.448C150.941 102.218 155.476 104.98 158.396 107.842C158.926 105.38 159.655 103.48 160.699 101.188C161.791 98.7914 162.441 96.0152 165.15 94.8382C169.208 93.0771 173.247 91.3619 177.299 89.5866C178.682 88.9806 179.954 87.365 181.269 86.5599C183.007 85.3315 185.233 84.137 186.397 82.3321C187.161 81.1475 189.785 79.4751 188.978 78.1874L188.822 78.1531C188.018 78.9487 187.349 80.6509 186.351 81.5938C184.871 82.9895 183.241 83.9806 181.626 85.2057C180.689 85.9189 179.944 86.689 179.067 87.459C181.252 83.7126 183.958 83.0409 186.617 80.3304C188.159 78.7574 190.437 74.2774 191.611 72.2337C191.353 71.8501 191.098 71.4096 190.856 71.0107C190.292 72.1152 188.144 75.9057 187.32 76.6999C184.656 79.2694 181.821 81.6375 179.225 84.3437C180.821 81.3608 182.249 80.1936 184.877 78.1983C185.631 77.626 186.46 77.0457 187.077 76.3206C187.966 75.2744 190.647 69.4173 191.335 67.8927Z" fill="#6572A4"/>
<path d="M190.543 77.3125C191.451 77.5968 191.557 77.63 192.393 78.0932C190.905 80.5562 188.921 81.5604 186.892 83.537L186.656 83.2187C188.006 81.5013 189.978 79.3545 190.543 77.3125Z" fill="#F7F9FF"/>
<path d="M186.66 83.2188L186.896 83.5371C186.101 84.3717 185.081 85.1833 184.226 85.9971L184.102 85.6865C184.942 84.8497 185.823 84.0829 186.66 83.2188Z" fill="#F7F9FF"/>
<path d="M162.487 114.469C164.123 115.931 165.228 116.278 167.365 116.025C166.165 118.132 163.512 124.618 162.942 126.967C162.08 130.527 161.484 135.17 160.668 138.797C160.397 140.007 159.451 142.615 158.94 143.799C157.463 147.229 155.994 150.647 154.373 154.011C153.162 156.524 152.164 159.135 150.815 161.617C150.144 162.852 149.559 164.43 148.739 165.608C148.464 166.004 147.91 166.213 147.475 166.396C145.192 166.964 144.852 166.643 142.75 166.941C143.436 165.65 144.244 164.225 144.841 162.9C147.852 156.219 151.768 149.907 154.073 142.933C155.216 139.474 155.931 135.757 156.746 132.203C157.371 129.427 158.1 126.676 158.935 123.955C159.276 122.828 159.677 121.522 160.117 120.44C160.939 118.418 161.863 116.568 162.487 114.469Z" fill="#F7F9FF"/>
<path d="M163.44 108.916C164.279 109.702 167.237 113.527 167.05 114.538C166.703 114.709 166.495 114.658 166.077 114.67C164.864 114.573 163.393 113.91 162.656 112.897C162.564 112.781 162.404 112.387 162.455 112.256C162.894 111.147 163.165 110.073 163.44 108.916Z" fill="#F7F9FF"/>
<path d="M193.012 69.2002C197.634 69.2717 190.41 75.5667 189.789 76.8893C189.789 76.8897 189.779 77.3605 189.778 77.4063C189.801 77.8473 189.866 77.6667 189.654 77.9875L189.424 77.9959L189.267 77.8278C189.17 76.6961 193.631 71.6249 193.012 69.2002Z" fill="#F7F9FF"/>
<path d="M193.356 64.8743C193.832 65.0345 194.324 65.1512 194.563 65.5921C194.658 66.4199 193.506 67.4214 192.906 68.5761L192.837 68.8149C192.333 68.9797 192.551 69.0094 192.151 68.8475C192.026 68.2735 193.101 65.6379 193.356 64.8743Z" fill="#F7F9FF"/>
<path d="M191.82 69.1351C192.146 69.1862 192.328 69.1745 192.555 69.4054C192.763 70.1882 192.236 70.8835 191.845 71.6582C191.465 71.4679 191.291 71.0838 191.062 70.7138C191.319 70.2079 191.574 69.6491 191.82 69.1351Z" fill="#F7F9FF"/>
<path d="M142.748 63.7516C142.573 63.0333 142.527 60.8598 142.664 60.0962L142.759 60.2794L142.636 60.3322L142.784 60.3961C142.852 60.739 142.9 61.2305 142.945 61.589C143.836 67.1021 147.059 69.6158 150.675 73.6158C151.969 75.0478 153.636 76.3045 154.927 77.6897C156.752 75.8399 158.388 73.9104 160.409 72.2465C162.006 70.9309 164.547 70.6318 166.127 69.6658C169.722 67.4676 171.744 65.5465 176.064 64.4815C175.221 65.0963 174.025 65.8493 173.089 66.3284C173.736 68.0117 174.467 68.778 176.213 67.6379L176.389 67.6575C176.35 68.3044 174.688 68.9433 174.221 68.8712C172.984 68.6808 172.429 67.7553 172.836 66.5715C171.943 66.3516 167.935 69.6599 166.802 70.2203C165.494 70.9631 161.919 72.2114 160.962 73.1158C159.121 74.8537 153.537 80.1516 153.227 82.5198C152.977 86.0431 151.796 88.4594 150.506 91.6568C149.709 93.6334 149.343 96.2061 148.563 98.3293C148.036 99.7644 147.134 101.223 146.689 102.449L146.434 102.358C146.531 101.686 147.366 99.3641 147.586 98.5568C148.18 96.3691 148.568 94.1464 149.231 91.9915C149.612 90.3299 151.167 87.7955 151.429 86.2356C152.087 82.3032 151.918 81.5124 154.449 78.2892C151.858 76.9824 151.276 75.6334 149.175 73.9303C145.512 73.7368 143.309 74.9337 140.176 76.5774C138.073 77.6812 135.853 78.4923 134.011 80.0323C133.616 80.3627 133.15 80.7007 132.739 81.0212C131.694 81.8186 130.452 83.9735 129.68 85.1243C131.103 79.613 134.041 78.1126 139.026 75.7731C142.483 74.1512 144.951 72.5169 148.95 73.4466C146.434 70.7052 143.368 67.4527 142.748 63.7516Z" fill="#6572A4"/>
<path d="M142.75 63.7516C142.575 63.0333 142.529 60.8598 142.666 60.0962L142.761 60.2794L142.638 60.3322L142.786 60.3961C142.854 60.739 142.902 61.2305 142.947 61.589C142.536 62.3414 142.783 62.8949 142.75 63.7516Z" fill="#6572A4"/>
<path d="M132.734 81.021C133.717 81.6839 135.301 86.0287 135.524 87.2746C136.186 90.555 135.674 94.2392 136.368 97.4923C136.836 99.6909 137.049 102.533 137.646 104.632C138.734 108.449 139.494 111.157 139.784 115.151C140.958 112.227 143.351 105.485 144.923 103.103L145.458 103.245C145.127 103.472 144.901 104.014 144.768 104.401C142.784 110.194 140.792 115.902 138.532 121.601C137.518 124.156 135.497 124.915 134.791 127.196C134.347 128.632 135.019 130.313 133.184 131.372C133.135 131.32 133.048 131.176 133.004 131.11L133.195 131.03C133.056 130.716 133.096 130.189 132.998 129.713C133.147 129.735 133.05 129.73 133.287 129.666C133.448 127.435 133.272 125.938 135.007 124.246C135.433 123.711 136.177 123.173 136.516 122.591C137.696 120.564 138.856 118.081 139.379 115.797C139.395 115.725 138.704 114.494 138.653 114.189C138.49 113.23 138.227 112.262 137.985 111.319C137.628 109.81 136.976 108.2 136.692 106.688C136.263 104.405 136.236 102.09 135.495 99.8474C135.35 99.4076 135.12 98.4702 135.079 98.0272C134.771 94.727 135.218 91.3612 134.685 88.0764C134.281 85.8405 133.175 83.503 132.762 81.2398C132.753 81.1665 132.743 81.0943 132.734 81.021Z" fill="#6572A4"/>
<path d="M133.288 129.666C133.343 130.203 133.451 130.568 133.197 131.03C133.057 130.716 133.098 130.188 133 129.713C133.149 129.734 133.052 129.73 133.288 129.666Z" fill="#F7F9FF"/>
<path d="M120.381 25.4172C121.045 22.7143 122.127 19.6975 123.344 17.2298C130.198 3.33937 150.693 -4.17313 164.898 2.42195C167.639 3.69476 170.426 5.50268 172.928 7.18886C175.122 8.64774 177.28 10.1638 179.394 11.7357C182.376 13.9952 185.246 16.8597 185.773 20.692C185.694 21.0388 185.747 21.2261 185.365 21.3419C182.142 15.1577 178.216 12.6517 172.53 8.82221C168.991 6.43837 165.484 3.88454 161.351 2.64772C153.148 0.0209358 144.954 1.22614 137.445 5.22233C129.119 9.42426 125.682 13.7827 122.32 22.3541C121.958 23.2752 121.003 25.9913 120.421 26.5874C120.207 27.0158 120.21 27.1502 120.334 27.6572L119.626 27.5394C119.198 28.4928 119.658 30.7427 119.944 31.7153L120.508 34.1423L120.319 34.2976C120.914 36.524 121.313 38.4465 121.71 40.7162C119.434 38.593 118.758 33.4669 118.09 30.4763C117.969 29.9325 117.915 28.0437 117.695 27.742L117.433 27.7866C116.709 28.3883 116.876 29.5398 116.962 30.3915C117.28 33.5374 117.78 36.9657 119.753 39.5527C120.016 39.8985 120.441 40.1588 120.625 40.5431C118.58 41.5097 116.926 37.2206 116.373 35.8928C111.907 36.1058 107.478 39.4871 105.401 43.3201C103.75 46.2546 104.078 49.252 107.359 50.8465C111.392 52.8064 116.355 50.6773 117.967 46.5969C118.256 45.8673 118.18 44.7766 118.567 43.9411L118.761 43.8853C119.075 44.1973 119.059 45.2623 118.996 45.7163C118.518 50.009 113.737 53.6147 109.434 52.9291C103.726 52.0195 100.817 48.9873 101.692 43.2892C100.568 43.0371 99.6046 42.8101 98.7434 42.0065C95.7485 39.2118 96.8932 34.7245 99.3458 32.0199C101.724 29.3972 104.782 28.1122 108.27 27.7963C109.485 27.6863 110.671 27.8146 111.875 27.7178L112.014 27.7054C106.07 26.2424 101.037 26.6491 96.1881 30.8876C95.7783 31.2457 94.6696 32.6512 94.3359 32.7274C94.3693 32.4977 94.4375 32.4472 94.5685 32.2529C98.8704 25.8759 107.076 24.5666 113.877 27.5178C114.207 27.6611 115.34 28.6153 115.748 28.9066C116.108 28.7513 115.928 27.9998 116.373 27.5716C117.783 26.2151 118.439 25.5882 120.381 25.4172Z" fill="#6572A4"/>
<path d="M119.594 31.5488C119.24 29.8605 119.225 28.9039 118.242 27.503C118.435 27.0528 119.66 26.3938 120.17 26.3774L120.416 26.5875C120.202 27.0158 120.205 27.1503 120.329 27.6573L119.621 27.5394C119.193 28.4928 119.653 30.7428 119.939 31.7153L119.594 31.5488Z" fill="#F7F9FF"/>
<path d="M120.166 26.3773L120.412 26.5873C120.199 27.0156 120.202 27.1501 120.326 27.6571L119.617 27.5393C119.783 26.953 119.805 26.8639 120.166 26.3773Z" fill="#6572A4"/>
<path d="M119.594 31.5488L119.939 31.7153L120.502 34.142L120.314 34.2972C120.07 33.5664 119.795 32.3298 119.594 31.5488Z" fill="#F7F9FF"/>
<path d="M108.563 28.7945C111.093 28.544 113.515 28.6728 115.721 29.9733C115.849 32.0492 115.852 33.3911 116.368 35.4084C111.151 35.5376 105.021 39.8122 103.851 45.0518C103.5 46.6224 103.878 47.8364 104.435 49.2845C100.944 44.8825 103.952 38.9189 108.363 36.4114C110.711 35.1469 113.101 34.4881 115.667 33.8852C112.694 33.6698 109.722 34.3284 107.122 35.7792C104.205 37.4107 102.74 39.4872 101.849 42.6138C95.2848 40.3775 98.5762 33.234 102.84 30.7648C104.904 29.5698 106.198 29.1283 108.563 28.7945Z" fill="#F7F9FF"/>
<path d="M137.089 38.1885C136.986 38.6142 136.801 38.789 136.528 39.1486C136.936 39.3813 136.811 39.2239 137.003 39.5683C136.59 41.4082 136.606 42.7433 136.459 44.5991C136.445 44.7699 136.272 45.0544 136.177 45.2022L136.445 45.2914C136.146 45.8643 135.85 46.41 135.595 47.0042C134.655 49.782 134.225 51.2925 134.153 54.3026C134.039 58.9442 136.093 64.0887 134.215 68.4847L133.865 68.4112C134.638 65.0984 134.458 63.6989 133.326 60.4598C131.671 55.7239 130.968 51.8447 132.159 46.8692C129.194 49.9855 126.247 51.2009 122.103 49.3416C117.668 54.2729 114.788 56.194 108.283 58.016C114.88 60.3722 116.911 63.1345 119.969 69.0595C121.195 71.4339 122.455 73.8178 123.777 76.1402C125.33 78.8689 129.823 86.4715 132.874 87.2886C133.067 87.34 132.969 87.2831 133.126 87.4735L132.954 87.6835C132.368 87.8541 131.801 87.8574 131.216 87.678C126.141 86.1204 119.767 71.8122 117.175 67.194C114.923 63.181 112.35 61.1974 108.128 59.3947C106.707 58.7881 105.278 58.2201 103.789 57.8011C100.571 59.0006 98.9358 61.1151 96.2183 62.9977C92.2082 65.7754 87.6578 68.1022 84.3755 71.788C81.7141 74.7766 80.2643 78.8833 78.4236 82.4034C76.1963 86.9943 73.6679 92.398 71.8502 97.1606C70.6088 100.713 69.8245 104.392 68.7375 107.999C67.4701 112.206 66.0086 116.409 64.8545 120.642C63.4118 125.936 63.2187 131.549 62.3096 136.953C61.0844 144.234 59.509 151.361 57.33 158.424C56.5532 160.938 55.9142 163.696 55 166.138C55.1736 164.241 55.7001 162.323 56.1186 160.461C57.9443 152.34 59.7999 144.257 60.9654 136.007C61.5368 131.962 61.8485 127.856 62.5859 123.828C63.5653 118.479 65.4986 113.389 67.097 108.209C68.3687 104.185 69.3663 99.5288 70.9294 95.6785C72.8296 91.0755 75.0816 86.5995 77.3345 82.1628C79.7846 77.3387 82.1026 72.729 86.0392 68.8858C88.9552 66.039 92.3504 64.1054 95.7307 61.8931C98.2371 60.2526 100.476 58.344 103.29 57.167C104.824 56.5103 106.269 57.2581 107.725 57.8412C111.492 56.2759 114.908 54.5987 118.075 51.9981C119.263 51.022 120.341 49.9492 121.5 48.9332C119.769 47.4796 119.489 45.3514 120.064 43.2342C120.183 42.7978 120.514 42.5812 120.903 42.4032C121.654 42.6132 120.472 45.8492 121.864 47.1779C123.144 48.3998 123.627 48.559 125.455 48.767C127.827 49.2012 131.209 47.2993 132.394 45.2064C133.957 42.4443 134.365 40.475 137.089 38.1885Z" fill="#6572A4"/>
<path d="M136.531 39.1488C136.939 39.3816 136.815 39.2242 137.006 39.5685C136.594 41.4085 136.609 42.7436 136.463 44.5994C136.448 44.7701 136.276 45.0547 136.18 45.2024L136.448 45.2917C136.149 45.8646 135.853 46.4103 135.598 47.0045L135.31 46.9228C133.878 49.1671 133.463 53.2778 133.616 55.8748C133.683 57.0137 133.856 58.1407 133.849 59.2878L133.847 59.4426C133.293 57.6398 132.744 55.6704 132.522 53.8045C131.924 48.7477 133.381 43.1756 136.531 39.1488Z" fill="#F7F9FF"/>
<path d="M136.183 45.2021L136.451 45.2914C136.152 45.8643 135.856 46.41 135.601 47.0042L135.312 46.9225C135.541 46.3278 135.875 45.7619 136.183 45.2021Z" fill="#6572A4"/>
<path d="M119.353 170.001C117.36 168.315 116.197 166.739 114.611 164.691C108.607 156.938 102.701 149.218 97.7973 140.71C95.0938 136.299 92.3097 131.966 89.8978 127.383C87.7632 123.327 85.8858 119.132 83.9752 114.968C83.5676 114.079 81.8174 110.53 81.9183 109.862L82.1084 109.8C83.109 110.521 88.3083 121.017 89.2458 122.802C90.4142 124.992 91.5996 127.173 92.8018 129.345C94.3905 132.193 96.0881 134.668 97.7903 137.417C100.361 141.536 102.773 145.842 105.575 149.811C108.752 154.313 112.18 158.672 115.328 163.203C116.178 164.429 116.88 165.728 117.876 166.854C119.055 168.18 120.426 169.327 121.943 170.255C126.771 173.19 130.457 174.747 136.036 173.39C135.553 174.12 135.483 174.312 134.595 174.42C134.246 174.247 133.61 174.597 133.152 174.689C128.6 175.609 123.522 172.898 119.731 170.307C119.532 171.495 117.998 178.865 116.928 179L116.782 178.795C116.515 177.112 118.653 171.761 119.353 170.001Z" fill="#6572A4"/>
<path d="M114.003 82.4463C117.72 84.5093 121.834 91.9322 122.954 96.0527C123.385 97.641 123.775 99.4579 124.247 101.023C124.476 101.785 125.43 101.815 125.711 103.002C126.364 105.757 125.944 108.77 126.722 111.428C127.364 113.25 128.459 114.666 129.257 116.452C130.301 118.79 129.945 121.625 130.635 123.859C131.251 125.852 132.388 127.457 133.004 129.713C133.102 130.189 133.062 130.716 133.201 131.03L133.01 131.11C133.054 131.176 133.141 131.32 133.19 131.372C133.025 131.907 133.176 132.13 133.158 132.666C133.123 133.786 133.05 135.391 132.644 136.428L132.111 136.75C131.36 135.062 131.996 131.313 131.335 129.396C130.723 127.617 129.716 126.231 129.181 124.498C128.588 122.579 128.652 120.389 128.253 118.466C127.844 116.501 126.512 114.761 125.738 112.934C125.261 111.808 125.139 110.694 124.819 109.529C124.57 108.626 123.82 107.255 123.282 106.47C121.062 103.226 118.393 100.189 115.9 97.1477C115.267 96.3754 114.543 95.6644 113.946 94.8758L113.883 94.7905L114.007 94.7281L114.304 95.0628C114.526 95.0464 114.442 95.0749 114.566 95.0213C117.783 98.1387 123.624 104.844 125.02 108.919C124.973 107.248 125.05 105.528 124.824 103.884C124.687 102.884 123.455 101.741 123.208 100.883C121.981 96.6194 120.675 92.8718 118.329 89.0357C117.598 87.8423 116.832 86.6708 116.032 85.5211C115.44 84.6745 114.434 83.3389 114.003 82.4463Z" fill="#6572A4"/>
<path d="M137.425 37.9581C139.318 34.8648 142.102 33.1379 145.798 35.1156C147.247 35.891 147.419 37.2674 148.404 38.2341L148.334 38.6122C148.201 39.3779 148.955 39.7871 149.497 40.218C153.423 43.3455 158.337 41.0589 162.226 39.0875L162.293 38.9065L162.237 38.7963L162.519 38.6342C162.709 38.7667 162.773 38.8227 162.943 38.9808C162.393 39.3768 158.262 41.9448 158.252 41.9583L158.162 42.2244C157.158 42.1632 155.771 42.7484 154.735 42.8738C151.63 43.2501 148.959 41.7867 147.683 39.016C147.414 39.0835 147.549 39.0411 147.281 39.1451C146.98 38.9641 146.444 37.6932 146.162 37.2842C144.468 34.8157 140.245 35.0475 138.788 37.6682C137.315 40.3189 137.653 44.3598 138.387 47.2103C138.664 48.1945 140.828 52.0675 141.79 52.7788C142.475 53.2857 144.185 52.6703 144.726 52.8285C144.757 53.0562 144.784 52.9696 144.621 53.1742C144.143 53.7688 143.49 54.2162 142.72 54.3334C141.963 54.4489 141.138 54.0952 140.558 53.639C139.696 52.9614 139.182 52.0353 138.672 51.0932C138.059 49.9579 137.401 48.8297 137.067 47.5721C136.874 46.8388 136.743 46.0548 136.653 45.2992C136.607 45.2775 136.56 45.2557 136.515 45.2341L136.448 45.2917L136.18 45.2024C136.276 45.0547 136.448 44.7701 136.463 44.5994C136.609 42.7436 136.594 41.4085 137.006 39.5685C136.815 39.2242 136.939 39.3816 136.531 39.1488C136.805 38.7893 136.989 38.6145 137.092 38.1887L137.425 37.9581Z" fill="#6572A4"/>
<path d="M137.092 38.1887L137.425 37.9581C137.346 38.3471 137.159 39.2244 137.006 39.5685C136.815 39.2242 136.939 39.3816 136.531 39.1488C136.805 38.7893 136.989 38.6145 137.092 38.1887Z" fill="#F7F9FF"/>
<path d="M176.693 71.4602C177.876 70.7415 180.653 69.0911 181.529 68.3103C183.701 66.3755 185.327 63.6176 188.476 62.8783C189.81 62.5648 190.033 62.7953 190.678 63.9877C190.782 64.1799 190.854 63.856 191.248 63.8548L191.194 64.0478C190.622 64.4669 190.317 65.7151 189.799 66.3459C188.038 68.4925 186.381 70.7909 184.657 72.9542C183.622 74.2543 181.485 75.6709 180.19 76.8085C179.112 77.7553 178.227 78.6972 177.204 79.6811C178.275 76.9901 179.574 75.8611 181.966 74.297C183.961 72.992 184.657 71.7451 186.019 69.8819C187.29 68.1442 188.841 66.5001 190.034 64.6962C190.244 64.3869 190.203 64.3422 190.114 64.1031C189.725 63.8236 189.931 63.8867 189.494 63.8543C188.567 64.2785 188.449 65.6766 188.121 65.7136C188.029 64.768 188.111 64.6916 188.491 63.8089C185.108 65.1895 184.291 66.9023 181.672 69.0943C180.534 70.0462 177.337 71.8594 175.969 72.73C173.757 74.1385 170.02 74.9491 167.579 76.0379C167.192 76.188 165.933 77.4296 165.219 77.8016L165.313 77.7357L165.331 77.6002C166.427 76.3817 167.528 75.0042 168.858 74.0535C170.028 73.216 171.452 72.8893 172.709 72.2169C173.251 71.9246 174.443 70.9336 174.961 70.5095C175.885 69.3996 176.944 68.1081 177.449 66.758L177.671 66.8348C177.605 67.791 177.476 68.6198 176.848 69.3777C176.623 69.6504 176.557 69.6785 176.651 69.8595C176.988 70.381 176.809 70.8583 176.693 71.4602Z" fill="#6572A4"/>
<path d="M175.984 70.3711L176.097 70.4178C175.997 70.8758 176.012 71.1175 176.007 71.5919C174.731 72.5307 170.37 74.4352 168.883 74.8836C171.67 72.8863 173.235 73.0935 175.984 70.3711Z" fill="#F7F9FF"/>
<path d="M177.449 66.758L177.671 66.8348C177.605 67.791 177.476 68.6198 176.848 69.3777C176.623 69.6504 176.557 69.6785 176.651 69.8595C176.421 70.0495 176.25 70.16 176.097 70.4178L175.984 70.3711C176.044 70.1889 176.036 70.2906 175.973 70.065L175.734 70.0888C175.449 70.3138 175.319 70.4671 174.961 70.5095C175.885 69.3996 176.944 68.1081 177.449 66.758Z" fill="#6572A4"/>
<path d="M187.672 25.7646C185.641 33.0019 175.005 36.7852 168.246 37.8525C166.812 38.0791 164.2 38.4743 162.94 38.9807C162.769 38.8227 162.705 38.7667 162.515 38.6341L162.233 38.7962C158.361 39.3215 153.146 39.4288 149.609 37.6974C152.37 37.7782 155.885 37.9857 158.643 37.8014C167.716 37.1949 178.045 35.3514 184.994 29.0891C186.254 27.9543 186.766 27.0826 187.672 25.7646Z" fill="#6572A4"/>
<path d="M186.806 29.3012C186.939 29.0037 187.055 28.2866 187.143 27.9131C187.427 27.6813 187.267 27.7368 187.644 27.7552L187.798 27.8266C188 28.544 188.489 28.6806 188.765 29.2188L188.448 29.485C188.31 29.239 188.236 29.037 187.993 28.9066C188.109 29.528 188.282 29.7456 188.401 30.2137L188.025 30.5213C188.673 34.37 187.497 44.1249 185.021 47.3172C182.355 50.7544 180.294 52.8087 181.228 57.4692C181.574 59.1959 182.652 64.0831 181.673 65.7052C181.017 66.7921 178.941 67.1024 177.679 66.8344L177.457 66.7576L177.429 66.3844L177.723 66.5091L177.818 66.4245L177.735 65.9712C178.201 65.9184 181.08 66.0518 181.069 65.3368C181.024 62.6312 180.359 59.8389 180.153 57.1214C179.869 53.3656 181.124 51.428 183.301 48.5628C186.413 44.3036 186.993 37.9285 187.432 32.8051C187.479 32.257 187.451 29.784 187.1 29.4032L187.02 29.318L186.806 29.3012Z" fill="#6572A4"/>
<path d="M187.648 27.7554L187.802 27.8268C188.004 28.5442 188.493 28.6808 188.769 29.219L188.452 29.4852C188.314 29.2392 188.24 29.0372 187.997 28.9068C188.113 29.5282 188.286 29.7458 188.405 30.2139L188.029 30.5215C187.86 29.5875 187.552 29.2298 187.487 28.1553C187.478 27.9235 187.488 28.0164 187.648 27.7554Z" fill="#F7F9FF"/>
<path d="M186.805 29.3011C186.938 29.0036 187.053 28.2865 187.141 27.913C187.425 27.6812 187.266 27.7367 187.643 27.7551C187.482 28.0161 187.472 27.9232 187.481 28.155C187.396 28.791 187.449 28.8833 187.018 29.3179L186.805 29.3011Z" fill="#6572A4"/>
<path d="M137.553 33.1994C140.425 32.9615 143.402 32.9454 146.31 32.6913C151.315 32.2541 156.338 31.1076 160.907 29.0117C162.731 28.1957 164.498 27.2612 166.198 26.2143C166.659 25.926 168.392 24.7044 168.718 24.623L168.73 24.7096C158.645 33.338 147.694 34.0586 135.053 33.6705C133.968 33.7232 132.506 33.9176 131.477 33.8733L131.526 33.8099C133.137 33.3285 135.835 33.2447 137.553 33.1994Z" fill="#6572A4"/>
<path d="M135.053 33.6705C133.968 33.7232 132.506 33.9176 131.477 33.8733L131.526 33.8099C133.137 33.3285 135.835 33.2447 137.553 33.1994C137.952 33.2526 138.021 33.1944 138.296 33.4052C137.866 33.6588 135.819 33.527 135.053 33.6705Z" fill="#6572A4"/>
<path d="M109.344 72.4854C110.722 72.5632 112.98 74.3146 114.013 75.2011C118.83 79.3339 121.337 84.3002 123.037 90.3066C123.284 91.1784 123.784 93.0171 123.835 93.8682C123.405 93.2731 122.654 90.3558 122.144 89.3068C118.297 81.3938 116.183 77.8508 109.344 72.4854Z" fill="#6572A4"/>
<path d="M83.3984 86.8363C86.1417 78.2291 94.4785 71.1355 103.664 70.9797C104.102 70.9723 105.083 70.8949 105.418 71.1653C105.09 71.4676 104.371 71.415 103.922 71.4651C93.7891 72.5964 87.7846 78.4286 83.651 87.2213L83.3984 86.8363Z" fill="#6572A4"/>
<path d="M164.051 42.2256C173.105 41.7834 182.605 37.7281 186.806 29.3012L187.02 29.318L187.1 29.4032C184.162 35.3964 179.722 39.141 173.362 41.33C169.395 42.6668 165.172 43.0718 161.022 42.5131C160.384 42.5514 158.78 42.3601 158.164 42.2247L158.254 41.9585C159.571 42.3245 162.545 42.1759 164.051 42.2256Z" fill="#6572A4"/>
<path d="M158.254 41.9585C159.571 42.3245 162.545 42.1759 164.051 42.2256C163.021 42.4828 161.59 42.1143 161.022 42.5131C160.384 42.5514 158.78 42.3601 158.164 42.2247L158.254 41.9585Z" fill="#6572A4"/>
<path d="M108.016 100.294C110.777 104.39 113.88 108.096 117.883 111.086C121.073 113.469 126.648 117.144 128.071 120.963L128.023 121.037C127.433 120.475 126.961 119.781 126.406 119.175C123.726 116.252 120.517 114.228 117.415 111.832C113.733 108.987 110.382 104.793 108.017 100.784L108.016 100.294Z" fill="#6572A4"/>
<path d="M121.875 81.9048C122.374 82.5841 123.202 85.1306 123.545 86.0614C126.202 93.2754 128.124 101.448 128.099 109.18C127.741 108.768 127.535 106.759 127.455 106.172C126.548 99.4765 125.029 92.8794 123.066 86.4158C122.658 85.0715 122.087 83.2765 121.875 81.9048Z" fill="#6572A4"/>
<path d="M119.619 27.5396L120.328 27.6574C120.4 28.0994 120.533 29.1943 120.695 29.5067L120.586 29.7099C120.689 29.7935 120.808 29.8964 120.913 29.9735C121.443 32.3586 122.272 35.0684 122.739 37.3954C123.572 41.544 122.646 42.6927 125.872 45.9576C125.058 45.4859 124.259 44.7808 123.861 43.9269C122.443 40.8881 121.387 37.3363 120.502 34.142L119.937 31.7155C119.652 30.7429 119.192 28.493 119.619 27.5396Z" fill="#6572A4"/>
<path d="M132.102 136.75L132.634 136.428L132.671 136.588C132.878 137.435 133.203 138.37 133.508 139.183C135.087 143.38 136.356 147.715 136.409 152.232C136.419 153.113 136.404 154.717 136.043 155.535L135.883 155.655C135.621 155.589 135.638 155.596 135.453 155.399C135.663 154.938 135.617 155.129 135.525 154.576C135.581 154.485 135.68 154.337 135.674 154.221C135.41 149.005 134.321 143.97 132.727 139.005C132.547 138.442 132.411 137.076 132.102 136.75Z" fill="#6572A4"/>
<path d="M156.919 10.545C157.814 10.5328 158.71 10.5108 159.603 10.5479L159.608 10.6529C157.391 10.6449 155.885 10.8356 153.719 11.192C143.852 12.8155 135.919 17.7132 129.416 25.1894C127.772 27.0788 126.379 29.0329 124.919 31.0642L123.539 33.0171C124.226 31.2511 127.397 27.0644 128.707 25.4641C134.584 18.2867 142.454 13.197 151.594 11.2571C153.185 10.9193 155.276 10.6999 156.919 10.545Z" fill="#6572A4"/>
<path d="M133.664 132.02C135.797 132.244 138.059 133.878 139.554 135.33C142.993 138.668 144.25 142.985 144.274 147.687C143.964 147.424 143.66 144.41 143.443 143.702C142.182 139.57 139.652 135.899 136.017 133.492C135.313 133.026 134.227 132.595 133.664 132.02Z" fill="#6572A4"/>
<path d="M181.645 21.3843L181.743 21.4733C181.788 22.9672 178.367 26.8576 177.215 27.8786C172.748 31.8369 166.806 34.4926 160.922 35.4908C159.544 35.7242 158.057 35.6611 156.671 35.6091L156.617 35.6005C156.778 35.4462 157.825 35.4701 158.157 35.4502C160.012 35.3248 161.849 35.0136 163.641 34.5214C169.439 32.9401 175.433 29.5961 179.332 24.9668C180.219 23.9121 180.956 22.5847 181.645 21.3843Z" fill="#6572A4"/>
<path d="M188.401 30.2137C188.282 29.7456 188.109 29.528 187.993 28.9066C188.236 29.037 188.31 29.239 188.448 29.485C190.818 34.9338 191.1 38.8356 189.108 44.4758C187.846 48.0444 187.764 49.9998 188.626 53.6609C185.878 47.4655 189.684 43.8381 189.861 37.7808C189.956 34.5265 189.33 33.1089 188.401 30.2137Z" fill="#6572A4"/>
<path d="M187.797 27.8271C190.002 29.0294 191.63 32.0227 192.331 34.4529C193.277 37.7318 192.963 41.7926 191.289 44.8522C191.261 44.8885 191.232 44.9247 191.203 44.9609C191.122 44.6188 191.457 43.8286 191.589 43.4616C193.107 39.2437 191.881 32.4698 188.764 29.2193C188.488 28.6811 187.998 28.5445 187.797 27.8271Z" fill="#6572A4"/>
<path d="M142.567 36.7392C144.952 36.6496 146.632 39.7901 145.518 40.2219C145.374 40.0806 145.352 40.0959 145.29 39.9115C144.856 38.6008 143.706 37.2743 142.184 37.4705C141.296 37.5848 140.903 38.0066 140.391 38.6997C139.87 39.6175 139.73 40.034 139.491 41.0693C139.356 41.6588 139.297 42.7694 139.044 43.2026C138.643 42.4711 139.156 39.9625 139.551 39.1652C140.249 37.7579 141.168 37.244 142.567 36.7392Z" fill="#6572A4"/>
<path d="M123.078 36.7128C123.579 36.8351 125.084 37.8256 125.72 38.1071C127.991 39.1127 130.34 39.0473 132.723 38.4981C133.377 38.3471 133.954 38.0919 134.553 37.9641L134.466 38.1223C134.343 38.2012 134.218 38.2775 134.091 38.3508C131.951 39.586 129.337 39.7357 126.938 39.1851C125.719 38.9054 123.703 37.828 123.078 36.7128Z" fill="#6572A4"/>
<path d="M117.837 41.4048L117.975 41.5397C118.605 44.7078 116.38 50.966 112.533 50.3262L112.32 50.1701L112.376 50.047C116.696 49.3033 117.452 45.0126 117.837 41.4048Z" fill="#6572A4"/>
<path d="M185.767 20.6919C187.372 22.7115 189.146 24.5258 188.527 27.3814L188.382 27.4624C187.784 26.8239 186.747 21.9503 185.928 21.7339L185.683 22.0524C185.469 21.8591 185.442 21.6259 185.359 21.3419C185.741 21.226 185.688 21.0388 185.767 20.6919Z" fill="#6572A4"/>
<path d="M114.854 36.6357L114.948 36.6762C114.778 36.7715 114.609 36.8688 114.442 36.9684C110.616 39.2506 107.077 44.6005 109.772 48.9402C109.327 48.7095 108.969 48.292 108.778 47.8276C107.118 43.7995 111.108 38.0532 114.854 36.6357Z" fill="#6572A4"/>
<path d="M135.457 155.399C134.274 154.224 133.572 148.381 133.414 146.55C133.769 147.566 134.095 149.452 134.349 150.559C134.697 152.078 135.026 153.112 135.528 154.577C135.621 155.129 135.667 154.939 135.457 155.399Z" fill="#6572A4"/>
<path d="M148.406 38.2339C150.307 38.9728 152.111 39.9798 154.133 40.4603C155.005 40.6675 155.894 40.8188 156.776 40.9737L156.77 41.1047C154.343 41.2014 150.544 39.5839 148.336 38.6119L148.406 38.2339Z" fill="#6572A4"/>
<path d="M139.642 26.3988C138.115 27.0601 135.887 27.681 134.253 28.3167C133.544 28.5927 132.163 29.2281 131.656 29.4035C132.535 28.5382 137.862 26.7384 139.259 26.2427L139.642 26.3988Z" fill="#6572A4"/>
<path d="M113.886 94.7905C113.3 94.1484 110.541 91.254 110.406 90.7476C110.878 91.0265 114.171 94.5181 114.569 95.0213C114.445 95.0749 114.529 95.0464 114.307 95.0628L114.01 94.7281L113.886 94.7905Z" fill="#6572A4"/>
<path d="M83.404 86.8359L83.6565 87.221C83.1318 88.4909 82.6331 89.8692 82.1384 91.16L81.9936 91.2289L82.0474 91.3448L81.9965 91.4148L81.9844 91.4159L82.079 91.2781L81.9967 91.1906C82.342 89.6581 82.8541 88.2984 83.404 86.8359Z" fill="#6572A4"/>
<path d="M177.433 66.3843C176.899 65.0651 176.453 65.4874 176.172 64.8429C176.376 64.6431 176.251 64.7187 176.612 64.704C177.24 64.9536 177.46 65.3962 177.738 65.9711L177.821 66.4244L177.726 66.509L177.433 66.3843Z" fill="#6572A4"/>
<path d="M133.873 68.4111L134.223 68.4846C133.855 69.3419 133.407 70.3225 132.695 70.9425C132.863 70.2712 133.575 69.26 133.873 68.4111Z" fill="#6572A4"/>
<path d="M191.249 63.855C192.124 63.8045 192.199 63.8077 192.906 64.3037L192.89 64.3959C192.182 64.4609 192.076 64.0294 191.195 64.048L191.249 63.855Z" fill="#6572A4"/>
<path d="M122.211 41.1748L122.522 41.215L122.564 41.4042C122.322 41.7244 122.129 41.9419 121.859 42.2405L121.699 42.2857L121.633 42.163C121.791 41.6874 121.901 41.587 122.211 41.1748Z" fill="#6572A4"/>
<path d="M108.017 100.784C107.533 100.034 107.338 99.5665 107.023 98.7417C107.407 99.2974 107.688 99.7027 108.016 100.294L108.017 100.784Z" fill="#6572A4"/>
</svg>
