<svg width="250" height="179" viewBox="0 0 250 179" fill="none" xmlns="http://www.w3.org/2000/svg">
<path d="M70.1634 12.9806C70.5138 11.9021 71.2302 9.80575 71.8859 8.88601C72.8844 7.48508 76.4073 5.89511 78.0389 5.277C79.2814 4.80637 81.1961 4.45485 82.4038 3.90888C84.1067 3.14143 85.781 1.39955 87.653 1.08773C89.2966 0.814131 89.6412 2.31966 89.6838 3.55957C91.8098 2.87779 94.1759 2.25341 96.3966 1.88308C96.766 1.8215 98.2143 2.16749 98.4529 2.06867C98.6285 1.99603 99.1206 1.1627 99.5679 1.17659C100.653 1.21211 101.751 1.66307 102.821 1.82605C105.28 2.20105 108.13 2.05687 110.257 3.54421C110.49 3.11796 110.939 2.23485 111.506 2.27147C113.034 2.3698 114.561 3.36476 116.107 3.79396C118.893 4.56731 121.642 5.7239 124.218 7.01581C124.943 7.38626 126.954 9.39056 127.802 10.0479C128.813 10.8386 129.813 11.819 130.841 12.5701C132.61 13.8636 134.165 14.9162 135.484 16.7017C136.229 17.5126 136.893 18.5846 137.642 19.3691C142.266 24.2111 145.93 30.7902 152.107 33.8342C153.336 34.4401 154.81 35.0203 155.86 35.8633C158.045 37.6176 159.887 39.7837 162.147 41.4643C163.997 42.8564 165.898 44.1593 167.784 45.5037L178.009 52.8279C178.791 52.2498 179.978 51.4124 180.917 51.1704C182.92 51.7872 185.728 55.0605 187.113 56.6346C192.044 62.2162 199.037 65.1473 204.019 70.5755C208.001 74.9135 211.794 79.5493 215.657 83.9848C217.958 87.039 217.225 92.4471 215.459 95.3847C210.793 103.148 204.105 108.693 197.129 114.242C190.97 119.14 184.907 123.247 178.007 127.082C170.869 131.049 163.441 134.35 156.27 138.209C152.066 140.498 147.971 142.977 143.996 145.639C143.811 146.54 143.53 147.51 143.258 148.39C141.233 154.92 140.42 161.741 139.029 168.417C138.571 170.617 138.164 173.202 137.39 175.29C136.89 171.113 138.237 165.912 138.964 161.772C139.871 156.603 140.723 151.142 142.871 146.328C139.977 148.501 134.803 152.196 132.576 154.828C134.153 150.731 141.752 145.634 145.4 143.187C157.197 135.275 170.626 130.268 182.671 122.778C186.312 120.514 189.916 118.366 193.324 115.741C195.629 113.967 197.857 112.193 200.055 110.292C200.876 109.626 201.764 109.097 202.586 108.43C208.601 103.553 215.504 97.098 216.037 88.9036C216.085 88.1624 215.695 85.6317 215.26 85.0835C213.565 82.9831 211.659 81.0474 209.84 79.0393C207.065 75.9747 204.213 72.1319 201.119 69.4001C197.528 66.2285 193.185 63.9629 189.559 60.7101C186.43 57.9025 184.141 54.9226 181.231 51.9609C178.949 55.5582 177.415 56.1676 174.87 58.9326C171.384 62.7172 168.113 66.0042 164.475 69.6186C167.28 72.5408 170.409 75.1761 172.867 78.423C173.166 78.8152 173.358 79.4796 173.593 79.9238C174.094 80.8688 175.155 81.5326 175.997 82.1551C176.8 84.4936 175.813 84.4628 178.335 85.8493C182.109 83.2106 189.71 79.8644 194.317 79.9597C194.756 80.2141 194.793 80.2066 195.31 80.2765C189.846 81.1415 183.928 82.999 179.443 86.3163C180.538 86.4233 181.461 86.5142 182.571 86.5302C183.904 86.5486 185.626 86.1148 186.859 86.0865C191.341 85.9857 197.027 85.3331 200.882 87.8773C195.443 86.588 189.81 86.3139 184.27 87.0722C189.653 87.6929 195.558 90.2937 200.991 91.1528C201.608 91.2499 202.471 91.3778 203.062 91.5216C200.009 92.6204 188.777 89.0941 185.37 88.3972C183.396 87.9904 181.383 87.7937 179.367 87.8109C178.487 87.8134 176.797 87.865 176.031 88.2522C173.78 89.3879 171.497 89.5796 169.05 90.113L157.515 92.7212C158.204 93.3333 158.352 93.5152 158.902 94.2502C156.575 93.584 154.981 92.1091 152.796 92.3611L152.657 92.4471C151.611 93.1133 151.42 93.8483 150.166 93.9257C146.949 94.1236 143.647 93.6787 140.393 93.6135C135.942 93.5262 131.819 93.997 127.517 95.1302C125.978 95.5358 124.256 96.3974 122.803 96.7858C121.706 96.277 120.901 95.7706 119.875 95.2531C116.574 95.6845 114.924 96.5916 111.885 97.656C107.78 99.0928 104.098 100.828 100.359 103.015C101.725 101.329 108.843 97.6769 111.102 96.8411C109.069 95.9967 104.818 93.7438 102.848 93.8618C91.5933 94.5366 80.2218 101.729 68.7781 101.013C63.9973 100.714 57.0095 96.4441 59.3594 91.2155C60.6913 88.2522 61.5833 89.4358 62.4518 88.5668C59.9889 88.8729 52.7095 91.4995 51.2626 90.5432C51.5263 89.6447 62.0229 87.6917 63.4584 87.9572L63.3408 88.117C64.0237 87.6315 65.6366 86.5695 66.0246 85.9415L66.2261 85.7608C68.7943 84.2809 72.0936 77.2198 73.1701 74.3831C73.7323 72.9019 74.2321 70.809 74.5743 69.2214C71.8432 68.7948 70.9253 67.1309 70.5021 64.6365C67.827 64.44 67.1466 64.1055 64.9631 62.5953C61.9599 62.7697 59.8864 61.4671 58.0782 59.2175C57.1602 62.012 56.6837 62.1792 56.2123 65.4523C55.9715 65.7895 55.474 65.8986 55.0576 66.0459C55.0675 67.3611 55.1514 67.9949 54.8066 69.2702C52.1034 70.4957 51.8656 70.9818 51.3406 73.8523C52.8859 73.1535 53.8167 72.9758 55.4675 72.6324C53.8335 73.3971 50.6739 74.6689 49.7817 76.2291C48.6307 78.242 48.1355 79.7534 46.5282 81.6333C49.4044 80.3629 52.5567 78.9892 55.7672 78.9811C56.0382 79.1459 56.1104 79.2237 56.4132 79.3028C49.8768 80.477 43.8818 83.8381 40.0331 89.3067C38.4065 91.6175 35.2576 97.1287 34.6205 99.8266C34.1196 101.947 34.3108 108.294 34.7601 110.5C35.6653 114.947 36.7579 119.522 37.5915 124.003C38.4994 128.756 38.8155 133.895 40.0523 138.562C40.7175 141.072 41.9261 143.997 42.7753 146.524C44.4652 151.555 45.6169 156.424 46.7573 161.6C47.5025 164.981 48.2928 167.765 48.6319 171.272C48.6131 171.789 48.6455 172.554 48.4097 172.985C46.3085 167.224 45.2499 159.54 43.5563 153.526C42.2758 148.978 40.7142 144.931 39.3429 140.468C37.8234 135.525 37.4632 129.882 36.4086 124.808C35.0772 117.126 32.4336 109.715 33.2936 101.839C33.5578 97.8896 35.6803 94.5759 37.3581 91.1983C39.5452 86.7944 42.3275 85.0233 45.3993 81.6244C47.3713 79.4425 47.5832 76.4905 50.1261 74.2313C50.6566 71.1062 50.8066 69.7512 54.0959 68.5277C53.7531 66.9231 53.2577 65.8818 55.0625 65.0095C55.5279 62.464 56.1289 60.8278 57.5579 58.6128C55.2204 55.6254 55.4506 53.462 56.2892 49.9888C54.8123 47.7132 54.9994 44.5889 55.998 42.1644C57.2421 39.144 59.227 37.2136 62.2126 35.9569C61.0446 34.7539 61.7329 34.5922 61.3576 33.2206C60.915 31.603 58.9181 28.8539 61.627 27.9733C62.648 27.6416 63.6574 27.8067 64.6029 28.3095C63.8931 24.1506 63.739 23.2619 65.2546 19.2306C66.7874 15.1533 65.5616 14.8367 70.1634 12.9806Z" fill="#6572A4"/>
<path d="M85.8695 6.68675C88.8427 4.85809 91.2749 3.87247 94.8085 3.40431C93.9027 3.76357 92.7279 4.08326 91.8966 4.53434C88.5149 6.2557 83.9102 10.0534 82.7564 13.8C84.9996 10.1604 88.2845 7.1967 91.9678 5.02672C91.4628 7.46489 92.3463 8.49943 93.9094 10.1188L94.0388 10.3331C95.144 10.5893 96.1887 11.1338 97.3012 11.4172C98.7585 11.7886 100.224 11.9466 101.627 12.5107C102.723 12.9514 103.854 13.3221 104.985 13.6594C106.168 14.0124 107.394 14.2629 108.548 14.6914C109.904 15.5322 111.272 16.5841 112.725 17.48L112.563 17.4245C111.425 17.0268 109.591 15.886 108.517 15.649C103.449 14.5317 98.3156 13.5784 93.1177 13.2419C89.1973 12.9881 90.1979 16.3497 92.234 18.2656C94.0199 19.9463 97.7286 20.1318 99.8884 21.2469C101.841 22.1618 103.587 22.6474 105.672 23.0161C106.37 23.1395 108.258 24.7438 109.006 25.0685C112.615 26.4693 114.274 27.8332 117.229 30.053C114.72 30.617 108.429 32.975 106.499 34.4883C110.13 33.0193 113.874 31.8424 117.53 30.4742C120.253 32.8918 120.547 33.912 120.464 37.3825C116.647 37.2727 115.462 36.6578 111.979 35.2264C108.901 33.9614 102.407 34.1762 102.537 38.7379C102.529 39.5513 103.148 40.144 103.851 40.4494C106.196 41.4681 108.577 42.4519 110.93 43.4589C111.444 43.6789 112.829 44.0444 113.203 44.334L113.434 44.4838C114.154 44.3636 114.672 44.553 115.388 44.7349C113.875 46.1434 112.889 46.5581 111.106 47.5524C103.902 51.5718 94.6287 52.1764 86.7624 49.684C93.4116 54.004 105.818 52.1239 112.071 47.9406C112.303 47.7852 113.612 46.8417 113.748 46.8869C113.526 47.7938 108.125 51.3221 107.066 52.004C105.355 53.1064 102.334 54.1402 100.373 54.9774L100.632 55.2034C103.188 54.5368 104.944 54.1019 107.326 52.9163C102.732 57.206 101.049 59.1709 94.379 58.9423C96.7273 59.6956 98.8227 59.8224 101.107 58.6609C103.157 57.5603 104.205 56.5932 105.851 54.9767C108.624 52.0236 109.633 51.3334 112.901 48.9084C111.965 51.2907 111.386 54.001 112.26 56.471C112.726 52.5739 113.592 48.1891 116.318 45.195C117.096 45.55 117.875 45.9547 118.639 46.341C116.597 47.9672 115.088 51.4184 114.736 53.9569C114.41 56.3255 114.38 57.5733 115.832 59.5765C114.354 55.7809 115.76 50.0853 118.642 47.2989L118.916 47.2043C119.162 47.4768 119.104 47.524 119.199 47.9315C119.257 47.3532 119.162 47.2385 119.471 46.8946C119.862 46.8914 120.382 47.2439 120.749 47.446C120.164 48.6147 119.68 49.4644 119.33 50.7374C120.436 49.7272 120.642 48.8827 121.341 47.6285C122.667 48.0726 123.903 48.2823 125.293 48.4022C125.671 48.6565 125.457 48.5734 125.987 48.5625C127.627 48.9037 129.347 49.2085 130.968 49.5724C130.493 50.4043 129.718 51.7103 129.497 52.6098C128.588 56.3063 129.466 59.563 128.4 63.4169C127.22 67.6841 125.574 71.7662 123.237 75.5464C122.157 77.2913 120.974 78.9067 119.899 80.6597C118.477 82.98 117.825 85.8813 114.908 86.6606C112.148 87.3981 108.012 86.1567 105.443 85.0726C106.088 82.9376 106.788 81.066 107.498 78.9738C104.909 81.5306 102.373 89.1077 102.841 92.7434C97.6047 92.6856 93.3797 94.4015 88.4493 95.8199C80.3828 98.1404 68.7237 103.204 61.4877 96.6593C59.8319 95.1598 60.0474 93.0052 60.6913 91.0989C62.4335 90.107 64.1426 89.168 65.7598 87.9241C70.2917 84.4384 73.1465 78.7232 74.8106 73.3865C75.0303 72.6818 75.5032 69.6266 75.906 69.3527C76.4945 68.9527 78.5206 69.2142 79.1885 68.9539L79.2162 68.7951C78.9017 68.5913 78.1637 68.4688 77.7707 68.4254C75.3243 68.1546 74.2672 66.4934 73.1092 64.5337C74.1135 64.399 75.0298 64.1899 75.9823 63.8348C76.7224 66.9094 78.2995 68.46 81.5136 69.041C82.6149 69.24 85.089 69.5928 86.0978 69.2414L86.1844 69.0488C85.7098 68.6966 84.6478 68.5017 83.9762 68.0705C81.6014 66.5461 80.4241 63.6332 79.9216 61.0231C80.8451 59.6776 81.2473 58.7203 81.9657 57.2746C81.8112 62.8159 84.1188 67.4695 90.0648 68.3562C90.3985 68.2808 90.8388 68.3091 91.168 68.3998C91.4471 68.3191 91.3608 68.3631 91.5853 68.1459L91.2125 67.8829C91.6576 67.4526 95.5538 67.5889 96.5274 66.4794C96.6355 66.3562 97.95 65.5466 98.0496 65.0242C97.8222 65.0478 96.8422 65.7849 96.4982 65.9437C90.5913 68.6726 85.8372 63.1532 83.4069 58.6302C83.5205 59.199 83.6863 59.7563 83.9021 60.2951C85.3639 63.9721 87.9511 65.8131 91.4397 67.3346C89.8667 67.4524 88.5111 67.4806 87.0935 66.617C84.7368 65.1813 83.2557 62.5374 82.6332 59.9189C82.4493 59.1449 82.3708 58.1668 82.1932 57.5236L82.1406 57.3386C82.6167 56.3302 82.9547 55.4547 83.3501 54.4192C84.8272 57.1362 87.1557 59.1106 89.9487 60.3893C86.9549 57.926 85.9089 56.7338 83.6752 53.6725C84.0326 52.8361 84.251 51.9381 84.4349 51.0515C88.0337 54.2744 90.7466 55.3817 95.6118 55.2601L95.5365 55.0025C90.9803 54.5775 88.1489 53.1614 84.6029 50.4779C84.6682 47.1943 84.7502 46.4937 83.4179 43.4551L83.2838 43.2563L83.3798 43.0599C84.0654 42.8561 85.1862 42.7594 85.9021 42.7578C90.1743 42.1928 99.8669 38.8608 102.786 35.9826C102.604 35.9882 97.4272 38.3968 96.6913 38.7178C91.9937 40.7664 87.8367 41.666 82.7429 42.284C82.2944 41.5103 81.1881 39.8708 81.6353 38.9746L81.4442 38.8493C81.3327 38.798 81.0618 38.62 81.1323 38.4798C84.1539 32.4663 89.2625 27.7807 94.6594 23.8552C95.6536 23.132 97.0602 22.525 97.716 21.9456L97.5898 21.8882C90.7128 24.6507 83.8749 31.4053 80.6641 38.0362C79.3146 36.0311 78.1182 35.2111 75.9562 34.1218C76.113 29.3871 76.807 26.957 78.8676 22.6753C79.2307 21.9207 80.2697 20.1753 80.4967 19.6117C80.3023 19.6583 78.6342 22.058 78.4073 22.4114C76.795 24.9224 75.5648 27.8423 75.0646 30.7867C74.8722 31.919 75.0488 32.7381 75.2814 33.8465C73.6551 33.2641 73.1747 33.1722 71.4396 33.0045C71.2814 32.2967 71.1493 31.5832 71.0433 30.8656C70.4689 26.9248 71.3009 21.0683 73.7486 17.8154C76.7901 16.5352 79.7939 15.3023 78.8659 11.3444C81.7202 10.1494 84.5018 9.6184 85.8695 6.68675Z" fill="#F7F9FF"/>
<path d="M93.9094 10.1188L94.0388 10.3331C88.6318 13.7128 83.2154 20.9731 80.6629 26.8631C79.603 29.3091 78.7177 32.0989 77.9119 34.6445C77.909 32.4603 79.3559 28.1969 80.2193 26.0932C82.4638 20.6243 88.376 12.4189 93.9094 10.1188Z" fill="#6572A4"/>
<path d="M101.107 58.6609C103.157 57.5603 104.205 56.5932 105.851 54.9767L106.346 55.2474L106.437 55.346C104.897 57.3242 101.06 60.7636 98.5653 61.1289C94.3958 61.7395 89.1806 59.0614 86.8333 55.6701L86.5321 55.2351C89.1146 57.4117 91.6417 59.3983 95.0329 60.1827C97.632 60.7839 99.1435 60.5966 101.301 58.936L101.107 58.6609Z" fill="#6572A4"/>
<path d="M101.107 58.6609C103.157 57.5603 104.205 56.5932 105.851 54.9767L106.346 55.2474C105.633 55.7267 105.069 56.2619 104.387 56.779C103.379 57.5271 102.35 58.2464 101.301 58.936L101.107 58.6609Z" fill="#F7F9FF"/>
<path d="M81.4442 38.8493C82.5826 37.5357 83.5357 35.9902 84.6717 34.7451C89.6553 29.2827 96.2525 25.1758 103.21 22.7328C103.271 22.7327 103.332 22.7327 103.393 22.7327C96.7273 25.9822 91.6388 28.8807 86.1609 34.0151C84.6704 35.4122 82.8156 37.9202 81.6353 38.9746L81.4442 38.8493Z" fill="#6572A4"/>
<path d="M113.203 44.334L113.434 44.4838C112.743 45.2042 110.428 46.0651 109.436 46.4439C104.885 48.1819 100.005 48.845 95.1474 48.5984C94.6873 48.5751 93.5964 48.3747 93.1981 48.1923C94.2487 48.039 95.6602 48.2608 96.7415 48.2213C101.744 48.0387 106.647 46.9499 111.245 44.9781C111.87 44.7101 112.52 44.4445 113.203 44.334Z" fill="#6572A4"/>
<path d="M86.8684 42.9671C90.6998 42.3378 94.3671 41.5269 97.9217 39.9016C98.3882 39.6884 99.012 39.3947 99.5063 39.3087L99.5045 39.3201C98.2226 40.1668 97.3062 40.5412 95.961 41.1581C91.6295 43.1445 88.7696 43.5796 84.0788 43.4309C83.7756 43.4144 83.6872 43.3756 83.4179 43.4551L83.2838 43.2563L83.3798 43.0599C84.0654 42.8561 85.1862 42.7594 85.9021 42.7578L85.9684 42.8941L86.8684 42.9671Z" fill="#6572A4"/>
<path d="M83.4179 43.4551L83.2838 43.2563L83.3798 43.0599C84.0654 42.8561 85.1862 42.7594 85.9021 42.7578L85.9684 42.8941L86.8684 42.9671L86.7473 42.9863C85.8154 43.1271 84.9174 43.0745 84.0383 43.2877L84.0788 43.4309C83.7756 43.4144 83.6872 43.3756 83.4179 43.4551Z" fill="#F7F9FF"/>
<path d="M83.7667 65.0718C85.6006 67.4504 85.7283 68.0966 88.7504 69.3169C89.2273 69.0247 89.7209 68.7815 90.0648 68.3562C90.3985 68.2808 90.8388 68.3091 91.168 68.3998C87.9103 69.1535 86.1085 74.1486 86.195 77.1517C85.3105 74.6478 87.0389 71.5056 88.6104 69.6119C85.5546 68.9945 84.6802 68.0056 83.7667 65.0718Z" fill="#6572A4"/>
<path d="M125.293 48.4022C125.671 48.6565 125.457 48.5734 125.987 48.5625C125.831 49.2021 125.667 49.9432 125.279 50.4889C124.788 50.3237 125.03 50.3231 124.525 50.5214C123.321 51.1526 121.942 51.8091 120.995 50.4554C121.046 50.4656 121.098 50.4758 121.148 50.486L121.387 50.5291C123.39 50.9024 124.7 49.8874 126.014 48.5495C123.952 49.7721 123.406 49.9967 120.978 49.9857L120.787 49.7136L120.846 49.534C122.386 49.4327 123.895 49.0491 125.293 48.4022Z" fill="#6572A4"/>
<path d="M124.525 50.5214C125.03 50.3231 124.788 50.3237 125.279 50.4889C124.511 51.9798 121.68 54.1502 120.552 52.0989L120.608 51.9469C122.301 52.6071 123.236 51.9059 124.402 50.6563L124.525 50.5214Z" fill="#6572A4"/>
<path d="M118.642 47.2989L118.916 47.2043C119.162 47.4768 119.104 47.524 119.199 47.9315C118.436 49.8451 118.247 50.4139 116.75 51.8531C117.426 50.2604 118.08 48.9505 118.642 47.2989Z" fill="#6572A4"/>
<path d="M100.632 55.2034C100.058 55.2923 99.8107 55.3615 99.2437 55.2975L99.2276 55.1909C99.7122 55.0369 99.858 55.0309 100.373 54.9774L100.632 55.2034Z" fill="#F7F9FF"/>
<path d="M95.5365 55.0025C96.0126 54.9993 96.3392 54.9542 96.7772 55.1361C96.4891 55.3126 95.9784 55.2708 95.6118 55.2601L95.5365 55.0025Z" fill="#F7F9FF"/>
<path d="M111.648 50.6649L111.748 50.759C111.778 51.2301 111.548 51.475 111.42 51.9362C110.398 55.6086 110.303 56.8437 111.944 60.1876C111.875 59.6298 111.646 58.6321 112.063 58.2187C113.159 59.1341 112.95 64.3027 114.927 64.2496C115.87 63.792 115.998 62.6297 116.768 61.8356C117.478 62.4408 116.554 64.7677 115.509 65.0187C112.366 65.8749 113 63.132 112.159 62.0302C109.464 58.4976 108.743 54.7847 111.648 50.6649Z" fill="#6572A4"/>
<path d="M104.715 44.488C104.536 44.9412 102.009 45.5329 101.481 45.6655C96.2232 46.9855 89.9667 47.152 84.8148 45.313C84.6329 45.1971 84.7209 45.2787 84.5839 45.0372C84.959 44.9453 86.6283 45.3499 87.1844 45.4511C88.9507 45.756 90.7359 45.9396 92.5275 46.0005C97.0717 46.1263 100.351 45.5094 104.715 44.488Z" fill="#6572A4"/>
<path d="M101.129 60.2742L101.232 60.4267C99.1387 65.7989 91.9285 66.9594 87.6519 63.3335C87.4354 63.1058 87.4496 63.1229 87.3551 62.8226C87.5187 62.7986 89.3789 63.8877 90.1091 64.1447C91.3941 64.5947 92.7646 64.7511 94.1187 64.6023C97.2823 64.246 99.228 62.6536 101.129 60.2742Z" fill="#6572A4"/>
<path d="M100.189 34.7744C102.001 33.9139 113.067 28.2191 113.978 28.3785C112.873 29.7316 102.693 33.8573 100.28 35.0282L100.189 34.7744Z" fill="#6572A4"/>
<path d="M82.4999 11.4982L82.5871 11.5882C77.9484 17.2207 76.703 21.1751 75.1352 28.1296C75.1173 27.8903 75.1128 27.6501 75.1221 27.4102C75.2902 22.1773 78.6819 15.0721 82.4999 11.4982Z" fill="#6572A4"/>
<path d="M91.7911 68.4385C92.0559 68.4097 92.2329 68.4134 92.5 68.4145L92.5015 68.519C92.3287 68.6192 92.1569 68.7208 91.9859 68.8239C89.9534 70.0237 89.2462 71.7503 88.6647 73.9084C88.6289 74.2241 88.7021 74.105 88.5148 74.3095C88.304 71.7982 89.5578 69.6044 91.7911 68.4385Z" fill="#6572A4"/>
<path d="M116.442 53.1378C117.654 53.4405 117.139 56.2006 116.741 57.0128L116.423 57.1164C116.37 56.4591 116.5 55.586 116.57 54.9121C116.245 54.5644 115.869 54.2134 115.525 53.8783L116.442 53.1378Z" fill="#6572A4"/>
<path d="M100.28 35.0282C99.7789 35.3228 99.0184 35.7521 98.4616 35.8519L98.4924 35.7072L98.5858 35.8471L98.6109 35.6074C98.9448 35.3635 99.7846 34.9755 100.189 34.7744L100.28 35.0282Z" fill="#6572A4"/>
<path d="M99.3581 1.85803C104.531 3.34647 110.055 4.32594 115.186 5.80627C119.709 7.11108 123.383 12.537 128.349 14.1156C128.318 14.0797 128.287 14.0432 128.255 14.0077C126.922 12.5174 118.668 6.27431 116.918 5.48216C115.962 5.04939 111.606 4.16972 111.364 3.73659C111.31 3.63949 111.341 3.51572 111.33 3.40534C111.439 3.29546 111.566 3.11847 111.805 3.19848C115.572 4.45794 119.947 5.90644 123.511 7.5704C124.23 7.90594 126.779 10.4878 127.477 11.071C128.433 11.8752 129.411 12.6531 130.412 13.4038C131.731 14.3804 133.057 15.1479 134.122 16.4409C138.363 21.5941 142.162 26.8459 146.901 31.5675C150.164 34.818 154.016 35.1849 156.982 38.1968C160.71 41.9819 164.614 44.6444 168.851 47.7102C171.876 49.9326 174.927 52.122 178.001 54.278C173.927 58.098 170.131 62.0023 166.422 66.1806C165.888 66.7814 165.28 67.3986 164.785 68.0252C159.23 62.5036 145.018 48.1766 137.051 48.038C135.599 48.0126 134.151 48.3615 132.695 48.368C130.446 48.3782 128.19 47.7762 125.985 47.3853C124.585 47.1373 123.085 47.0375 121.744 46.5526C119.64 45.7912 118.084 44.5581 115.686 43.817C113.758 43.2207 109.657 42.4233 108.173 41.0579L107.881 40.984C107.228 40.859 104.48 39.7253 103.797 39.3912C103.558 39.2483 103.434 38.9962 103.471 38.7301C103.787 36.4406 104.876 35.9701 106.899 35.6501C111.507 34.9211 114.902 38.2203 119.272 38.3657C120.16 38.3953 120.963 38.3545 121.628 37.7047C121.841 36.969 121.403 37.6228 121.435 37.1791C121.478 36.6139 121.44 35.7123 121.418 35.1699C122.418 36.2759 123.578 37.413 124.794 38.281C123.928 36.7964 123.085 36.1127 122.126 34.7988C121.272 33.6292 120.745 32.3176 119.67 31.1829C118.256 29.8766 115.844 27.1322 114.034 26.3663C110.863 25.1694 107.777 22.7432 104.628 21.7711C102.695 21.1743 100.817 20.4824 98.9471 19.8596C95.6828 18.7722 94.101 19.0748 91.6907 16.2541C94.0533 16.7695 95.2966 17.0999 96.2416 14.6103C97.749 14.26 106.365 16.1194 108.391 16.6269C109.535 16.9133 117.271 21.0033 118.37 20.1552C118.198 19.4339 116.097 18.614 115.29 18.058C114.484 17.4175 112.553 16.5914 111.847 15.9416C109.431 13.7175 107.201 13.1734 104.101 12.3412C103.093 12.0704 101.854 11.4633 100.807 11.2116C97.7288 10.4718 95.0232 10.4643 93.068 7.62792C95.0834 7.95363 97.0495 8.2791 97.9074 5.9985C100.963 6.36834 103.327 6.83159 106.317 7.52935C108.29 7.95105 110.157 8.07396 112.057 8.79397C113.681 9.40951 121.036 14.8858 122.427 14.5781L122.387 14.3628C121.133 12.9086 114.743 9.15299 112.807 8.11022C110.622 6.9336 105.793 6.74026 103.242 5.82876C102.444 5.54361 100.831 5.60593 99.8062 5.26288C99.2959 4.83798 99.143 4.29656 99.0273 3.66505L98.9914 3.51215C99.1973 2.83995 99.2506 2.53846 99.3581 1.85803Z" fill="#F7F9FF"/>
<path d="M103.985 36.9482C104.896 36.5564 105.397 36.3669 106.372 36.1315C109.185 36.9182 110.601 38.5851 108.173 41.0579L107.881 40.984C108.415 39.7968 109.452 37.9687 107.52 37.3003C106.414 36.9178 105.143 36.9349 103.985 36.9482Z" fill="#6572A4"/>
<path d="M98.9914 3.51215C101.067 3.48081 101.517 4.44946 103.422 3.23253L103.619 3.30234C103.475 4.99149 100.934 4.44504 99.9053 4.04374C99.6091 3.92562 99.3163 3.79927 99.0273 3.66505L98.9914 3.51215Z" fill="#6572A4"/>
<path d="M125.601 15.9258C127.324 15.7321 128.819 17.2682 129.304 18.7979C128.856 18.6559 127.946 17.5207 127.309 17.094C126.785 16.7422 125.992 16.3118 125.601 15.9258Z" fill="#6572A4"/>
<path d="M121.373 21.2323C122.621 21.3662 124.359 22.1554 124.985 23.262C124.204 22.8449 121.551 21.8579 121.373 21.2323Z" fill="#6572A4"/>
<path d="M130.493 14.8954C131.632 15.0053 132.045 15.8711 132.385 16.8247C131.84 16.5548 130.827 15.4164 130.493 14.8954Z" fill="#6572A4"/>
<path d="M136.391 49.1846C143.101 48.3703 158.785 63.8583 163.67 68.5536C163.646 68.7589 163.457 69.9636 163.509 70.0422C165.951 73.7071 170.507 76.3837 172.438 80.3666C173.025 81.5748 173.945 82.0509 174.951 82.7875C175.189 85.091 175.22 85.3196 177.22 86.6631C177.016 86.6987 176.595 86.7958 176.423 86.8155C175.38 86.9347 174.748 87.7668 173.702 87.9917C172.049 88.3482 170.371 88.6124 168.712 88.9492C165.96 89.5281 163.235 90.2324 160.547 91.0608C159.438 91.4074 157.984 91.845 156.976 92.3612C156.161 91.8658 154.479 91.0239 153.618 91.0362C152.257 91.0546 151.17 92.0662 150.18 92.843C150.005 92.9806 149.693 92.5898 149.609 92.5922C149.285 92.6009 148.777 92.6156 148.449 92.6156C144.464 92.6144 140.911 92.1682 136.889 92.3636C133.918 92.5013 130.346 93.1724 127.491 94.0598C126.077 94.4974 124.711 95.1906 123.196 95.6134L123.013 95.6638C121.992 95.2016 121.412 94.533 120.337 94.0217C117.279 94.1299 115.456 94.8476 112.809 96.137C109.732 95.37 106.172 93.004 103.849 92.7152C103.968 90.3614 104.5 88.1712 105.13 85.917C107.935 87.698 114.675 89.2983 117.372 86.5266C119.031 84.8219 120.114 82.042 121.455 80.0046C125.147 74.3947 128.901 68.3163 129.798 61.5469C130.1 59.2187 129.999 56.3834 130.007 54.0383C130.79 54.1686 132.3 54.4428 132.791 53.6222C132.632 53.4816 130.932 53.1258 130.387 52.9423C130.82 51.9101 131.509 50.6231 132.022 49.6018C133.72 49.5918 134.73 49.4381 136.391 49.1846Z" fill="#F7F9FF"/>
<path d="M63.5044 44.0978C63.2932 43.4909 63.0884 42.904 62.9479 42.2785C61.7781 37.0648 67.1965 33.8224 71.7815 34.3186C74.0449 34.5636 76.0475 35.4641 77.8584 36.7773C74.426 35.4912 72.023 35.0047 68.7838 37.102C69.8477 36.8435 70.2279 36.6066 71.3959 36.5078L71.5226 36.8069C68.9159 37.7291 67.3196 38.5202 65.7467 40.818C68.1622 38.5985 71.2598 37.0723 74.5898 37.1634C77.8662 37.2531 79.0939 39.0476 80.7943 41.3514C83.1805 44.5842 84.1162 47.6929 83.0689 51.6019C82.9737 48.8624 82.3668 46.4487 80.2754 44.5145C80.1019 44.3538 79.9259 44.1959 79.7473 44.0407C81.7475 47.4498 82.8992 49.5963 81.9432 53.65C80.451 59.9776 75.6822 64.8132 68.7884 63.0944C68.6148 63.0512 68.4188 62.8706 68.2808 62.7579L68.1175 62.9435C67.5229 62.9649 66.3853 62.5069 65.9006 62.175C63.8254 60.753 63.1427 57.8718 63.4129 55.4982C63.6584 53.3424 64.903 51.6187 66.0702 49.8693C61.701 52.5293 61.5408 57.6495 63.9092 61.7403C59.0726 60.1296 56.7254 56.6853 56.8497 51.6744C58.4136 49.7585 60.6206 49.0746 62.9756 48.802C59.3177 50.1089 57.4396 51.4764 57.255 55.5787C58.3591 52.2572 59.8848 50.2159 63.6362 49.279C64.1493 49.1509 64.8537 49.4361 65.2879 49.0547L65.2001 48.8091C64.0647 47.7837 61.644 48.0859 60.2593 48.4948C58.8942 48.8978 58.2507 49.652 57.2624 50.588L57.1467 50.5634C57.1565 49.2054 56.4293 48.3241 56.392 47.3487C56.275 44.2888 57.2513 41.8353 59.1179 39.5492L59.41 39.2408L59.3238 41.3843L59.0369 41.8944C59.5169 44.0656 60.3539 45.418 62.2278 46.7162C63.6443 47.6974 65.0145 47.7029 66.6495 47.7242C66.6757 46.0066 66.6271 44.7967 68.017 43.5553C70.5432 41.299 73.7169 40.8508 76.8769 41.646C74.5423 40.4741 72.9146 40.1912 70.4385 41.0517C67.3507 42.1249 65.7512 43.7488 65.9268 47.0936C65.6429 47.0048 65.4617 46.4401 65.3503 46.1687L65.008 45.6305L64.7812 45.4926C63.8852 43.8665 63.917 42.1686 64.1928 40.3631C64.2699 39.8584 64.5419 39.0819 64.5006 38.6121L64.3059 38.6974C63.2426 40.4232 63.3498 42.1935 63.5044 44.0978Z" fill="#F7F9FF"/>
<path d="M68.1175 62.9435C65.8001 61.5501 64.8839 59.4587 64.6579 56.869C64.5664 55.8213 64.8039 53.1224 65.4777 52.3591L65.56 52.4961C65.2365 53.7526 65.1145 55.052 65.1985 56.3463C65.3627 59.1457 66.212 60.9181 68.2808 62.7579L68.1175 62.9435Z" fill="#6572A4"/>
<path d="M65.008 45.6305C64.7445 43.8108 64.7498 42.8056 65.3426 41.0428C65.2841 42.6906 65.2136 44.5264 65.3503 46.1687L65.008 45.6305Z" fill="#6572A4"/>
<path d="M59.41 39.2408L59.3238 41.3843L59.0369 41.8944C58.9849 40.9798 59.0346 40.4685 59.1179 39.5492L59.41 39.2408Z" fill="#6572A4"/>
<path d="M66.7952 47.6507C67.3562 47.935 67.217 48.5908 67.3817 49.2011C68.8714 54.7195 72.4752 56.555 77.7781 57.0716C73.3887 58.3005 70.3893 56.1414 67.9227 52.7383C68.4291 53.8994 68.8461 54.5301 69.5605 55.5649C70.6909 56.9734 71.6191 57.6492 73.3335 58.2694C75.4339 59.0293 76.2964 58.4385 78.3347 58.2889L78.4135 58.3715C72.7177 62.3615 64.7435 54.0765 66.7952 47.6507Z" fill="#6572A4"/>
<path d="M70.154 45.8177C70.3228 45.8079 70.4917 45.8027 70.6607 45.8023C74.6626 45.8089 79.6357 49.7277 79.6302 53.8782L79.4983 53.9915C79.3524 53.8387 79.0099 52.704 78.8859 52.3949C77.9954 50.4963 76.5753 48.8918 74.7943 47.772C72.2378 46.1638 70.3826 46.0751 67.5296 46.6975C68.417 46.1486 69.1529 46.0201 70.154 45.8177Z" fill="#6572A4"/>
<path d="M70.179 44.0983C71.2761 43.9735 72.3868 44.0439 73.4592 44.3061C76.0461 44.9498 77.8608 46.4894 79.2022 48.7267C77.9995 47.4601 77.6321 47.1171 76.1345 46.2392C73.9091 45.0473 71.1815 44.2036 68.6574 45.2362C67.8566 45.5637 67.4523 46.2648 66.9963 46.3931L66.9283 46.2009C67.4956 44.505 68.5733 44.3969 70.179 44.0983Z" fill="#6572A4"/>
<path d="M77.6016 11.8166L77.805 11.888C79.5586 14.011 74.8319 16.5927 73.2365 16.9024C73.0921 16.9304 70.0691 19.204 69.7871 19.4674C69.8599 19.6081 69.9212 19.7164 70.0001 19.8526C68.4781 21.894 67.5008 23.6701 66.6515 26.0937C66.4363 26.7075 65.9993 28.7132 65.7588 29.0658C65.4994 28.8501 65.4873 28.5017 65.4131 28.1478C65.3596 27.4247 64.895 23.7361 65.0329 23.282C65.7453 20.8617 66.4499 18.3404 67.2572 15.9613C67.5747 15.0254 72.4959 12.5962 73.2393 12.7057C73.2648 13.0262 73.2589 13.6166 73.5813 13.7421C75.6222 14.5364 76.6617 13.0591 77.6016 11.8166Z" fill="#F7F9FF"/>
<path d="M84.2898 4.56759C84.5007 4.60323 84.5108 4.64244 84.7109 4.75687C85.2317 5.59929 84.7947 6.7651 84.0853 7.66148C82.6597 9.46261 79.2338 9.2308 77.8371 10.9144C77.7716 10.9935 73.4386 11.3419 72.9089 11.7648C72.7684 11.8772 71.4815 12.1607 71.3537 12.1644C71.6813 11.1842 72.3341 9.70253 72.8111 8.8011C74.1615 8.1278 78.8364 5.54927 79.9601 5.69713C80.368 6.64354 80.5772 6.77333 81.5999 6.43779C82.6811 6.08319 83.4234 5.26326 84.2898 4.56759Z" fill="#F7F9FF"/>
<path d="M70.0975 23.0217C70.2314 22.6757 70.2441 22.349 70.3639 21.9927C70.74 20.8747 71.2319 20.2528 71.9502 19.3664C70.1064 24.5925 69.5339 27.5712 71.166 32.9739C69.0503 33.1066 68.6313 33.153 66.6266 33.8168C66.6223 33.1939 66.6368 32.5711 66.6702 31.949C66.8073 29.7917 67.9854 24.3648 69.5322 23.0108L69.9125 22.6999L70.0719 22.778L70.0975 23.0217Z" fill="#F7F9FF"/>
<path d="M69.5322 23.0108L69.9125 22.6999L70.0719 22.778L70.0975 23.0217C69.3268 26.577 69.3472 28.1036 69.8729 31.587L69.7899 31.5855C68.6306 29.4111 69.0357 25.3468 69.5322 23.0108Z" fill="#6572A4"/>
<path d="M61.6923 28.8268C63.4765 28.6518 64.2571 29.1968 65.7135 30.1227C65.5906 31.8037 65.5728 32.5355 65.8494 34.1844C65.1771 34.691 63.2936 36.3821 62.6636 35.1847C62.4042 33.6291 62.201 33.045 61.6563 31.525C62.0652 31.9967 63.0355 33.6357 63.506 33.6475C63.8739 31.668 59.8414 30.9583 61.6923 28.8268Z" fill="#F7F9FF"/>
<path d="M59.41 39.2408C60.3316 38.1259 62.0432 37.1558 63.3256 36.4798C60.8193 40.2247 61.5411 44.039 64.3846 47.3361C61.8596 45.7495 60.0699 44.4116 59.3238 41.3843L59.41 39.2408Z" fill="#F7F9FF"/>
<path d="M79.5144 61.3778C79.7553 61.6646 79.8816 63.0803 80.0184 63.6001C80.6418 65.9687 81.5793 67.2733 83.6242 68.5567L81.0844 67.9605C78.9084 66.936 77.5704 65.79 76.5968 63.585C77.8734 62.8775 78.4641 62.387 79.5144 61.3778Z" fill="#F7F9FF"/>
<path d="M87.63 2.02202C88.9477 2.06332 89.1745 3.60253 88.0726 4.13829C87.3203 4.5042 86.6092 4.80446 85.8607 5.20159C85.4016 4.63559 85.7856 4.37588 84.5134 3.68586C85.6082 3.01711 86.4515 2.51969 87.63 2.02202Z" fill="#F7F9FF"/>
<path d="M91.9291 13.516C93.0848 13.9892 95.3197 14.0812 95.6777 15.126C95.5305 15.6606 95.6105 15.4725 95.1986 15.8986C93.7699 16.0574 89.7186 15.7356 91.9291 13.516Z" fill="#F7F9FF"/>
<path d="M93.0011 4.91348C93.2633 4.94532 97.2331 5.95035 97.3099 5.99841C97.2069 6.36567 97.048 6.39959 96.7083 6.70637C95.4131 7.44937 91.8574 7.58285 93.0011 4.91348Z" fill="#F7F9FF"/>
<path d="M97.1889 2.92702C98.4644 2.73934 98.0036 3.87601 98.4707 5.10008L98.5344 5.26244L95.5222 4.59369C94.9049 4.48024 93.9345 4.39899 93.2827 4.32697C95.0187 3.71438 95.1811 3.26146 97.1889 2.92702Z" fill="#F7F9FF"/>
<path d="M72.1992 64.6052C72.2999 64.605 72.4005 64.6047 72.5013 64.6045C73.0336 64.787 73.3593 66.6995 73.7131 67.0341C74.3294 67.6169 74.8489 67.9522 75.3114 68.4813L74.9762 68.5418C74.7446 68.4553 74.5152 68.3627 74.2884 68.2644C73.3631 67.8589 71.1193 65.8274 71.6194 64.7393L72.1992 64.6052Z" fill="#F7F9FF"/>
<path d="M76.1337 11.9022L76.3392 11.9444L76.3686 12.1155C75.8698 12.8318 75.2914 13.0716 74.4754 13.3068C74.1696 13.0524 74.1569 13.0791 74.0233 12.7143L74.1562 12.4555C74.7163 12.1131 75.4681 12.0317 76.1337 11.9022Z" fill="#F7F9FF"/>
<path d="M82.4838 4.77414L82.564 4.83756L82.5432 5.05327C81.9424 5.64422 81.4101 5.83928 80.5788 5.89016C80.4421 5.57699 80.4464 5.7321 80.5707 5.40958C81.131 5.05032 81.8231 4.93785 82.4838 4.77414Z" fill="#F7F9FF"/>
<path d="M71.3959 36.5078C72.2159 36.3592 73.0563 36.4258 73.8836 36.5049C73.0947 36.5896 72.3074 36.6903 71.5226 36.8069L71.3959 36.5078Z" fill="#F7F9FF"/>
<path d="M153.856 94.1862C155.124 94.9016 155.669 98.2988 155.699 99.6705C155.97 111.716 149.038 124.894 141.221 133.681L141.058 133.74C141.179 133.252 142.549 131.69 142.926 131.142C149.257 121.943 154.934 111.497 155.204 100.091C155.26 97.6486 154.981 96.3371 153.856 94.1862Z" fill="#6572A4"/>
<path d="M58.206 71.2571C63.4573 70.8408 67.9252 73.3514 70.6964 77.728C69.8803 76.9524 69.2688 76.4616 68.3745 75.7662C65.4245 73.5345 62.7524 72.0024 58.9069 72.0895C57.2812 72.1262 55.729 72.3445 54.0634 72.3633C55.5546 71.7372 56.6247 71.5694 58.206 71.2571Z" fill="#6572A4"/>
<path d="M158.973 95.4733C159.746 95.6515 160.162 96.5758 160.411 97.2616C162.507 103.059 160.913 109.232 158.426 114.635L158.249 114.92C158.171 114.722 158.718 113.256 158.831 112.895C160.213 108.455 161.379 103.257 160.013 98.6911C159.681 97.5824 159.198 96.6065 158.973 95.4733Z" fill="#6572A4"/>
<path d="M182.54 69.8814L182.613 69.9528C182.404 70.3837 181.613 71.1439 181.259 71.5363C178.805 74.2607 177.103 77.6315 175.526 80.9125L175.404 80.8017C175.412 80.2921 176.065 78.961 176.302 78.4749C177.934 75.1168 179.56 72.2447 182.54 69.8814Z" fill="#6572A4"/>
<path d="M48.6319 171.272C48.8413 172.361 48.9531 174.146 49.1579 175.425C48.9013 174.674 48.5519 173.747 48.4097 172.985C48.6455 172.554 48.6131 171.789 48.6319 171.272Z" fill="#6572A4"/>
<path d="M55.7672 78.9811C56.5307 78.9046 57.0897 78.81 57.8538 78.9136L57.8994 79.0109C57.3318 79.2022 56.9959 79.2273 56.4132 79.3028C56.1104 79.2237 56.0382 79.1459 55.7672 78.9811Z" fill="#6572A4"/>
<path d="M194.317 79.9597C195.206 79.9194 195.906 79.9141 196.796 79.936C196.303 80.0675 195.816 80.2178 195.31 80.2765C194.793 80.2066 194.756 80.2141 194.317 79.9597Z" fill="#6572A4"/>
</svg>
