<svg width="250" height="179" viewBox="0 0 250 179" fill="none" xmlns="http://www.w3.org/2000/svg">
<path d="M121.643 1C122.498 2.15575 124.137 4.21603 124.728 5.38936C126.409 8.72738 127.156 12.6613 128.773 16.0672C129.812 18.2563 131.022 20.4031 132.138 22.5576C134.313 26.7446 136.429 30.9617 138.486 35.2079C139.976 38.3114 140.94 41.6477 142.421 44.6861C143.275 46.1103 144.496 47.3944 145.388 48.7932C150.681 57.0984 157.33 64.45 161.41 73.4948C162.829 76.6403 164.156 79.8725 165.725 82.9313C169.309 89.9239 174.161 96.1791 177.159 103.486C177.842 105.145 178.373 106.783 179.125 108.422C179.071 107.442 178.805 106.602 178.804 105.614C178.8 102.68 180.29 99.6223 180.999 96.8428C182.961 89.1571 184.008 82.7844 189.906 76.9384C193.434 73.4419 198.684 70.3347 203.817 70.2732C205.914 70.248 207.283 70.8447 208.73 72.3169C206.67 66.447 203.651 65.0242 200.443 60.1473C199.45 58.6373 198.559 56.7905 197.611 55.2356C196.381 53.2145 195.225 51.3993 194.122 49.3001C192.062 45.3771 190.164 41.3886 187.926 37.5648C185.03 32.617 181.255 28.4703 177.973 23.8108C175 19.5912 172.97 15.0837 170.575 10.5346C169.607 8.69746 167.929 5.88535 167.511 3.82939C167.432 3.43843 167.505 3.37875 167.698 3.15173C168.997 3.34497 170.06 6.02677 170.727 7.06501C174.362 12.7315 176.848 18.8793 181.093 24.1666C184.068 27.871 187.078 31.7914 189.613 35.8202C192.259 40.0266 194.283 44.7931 196.758 49.1168C198.545 52.2446 200.792 55.1418 202.581 58.2823C203.464 59.5761 203.518 60.0156 203.929 61.5463C203.858 61.6289 203.729 61.7973 203.648 61.8464C207.152 65.509 212.274 71.1532 210.352 76.7438C211.765 78.7811 213.991 80.1535 215.297 82.2297C216.257 83.7579 216.696 85.5868 217.284 87.2767C218.284 90.1526 220.141 92.1799 222.161 94.3711C225.523 98.0157 229.163 101.401 232.678 104.898C234.807 107.017 237.975 109.364 239.269 112.099C240.303 114.286 239.925 116.632 240.495 118.899C241.629 123.403 246.671 134.471 245.067 138.698C243.971 141.583 240.394 145.087 238.041 147.111C236.976 148.025 235.781 148.841 234.776 149.817C233.514 151.042 232.722 152.635 231.306 153.735C230.265 154.544 229.027 155.059 227.832 155.598C230.692 156.548 233.739 156.628 234.443 159.851C235.857 166.319 230.826 168.133 225.676 169.342C224.246 172.963 220.648 176.133 216.819 173.596C216.199 174.543 215.782 175.169 215.044 176.048C212.475 176.825 210.973 176.84 208.368 176.413L207.419 175.459C203.637 178.956 200.514 178.872 196.18 176.145C194.823 177.592 194.041 178.063 192.228 178.31C188.489 178.821 186.283 177.369 183.33 175.565C182.961 175.338 179.663 175.175 178.804 175.11C176.272 174.934 173.78 174.385 171.409 173.481C166.443 171.552 163.798 169.085 159.492 166.247C155.154 163.388 149.628 160.252 144.874 158.172C142.255 157.18 139.4 155.979 136.706 155.268C126.979 152.697 114.055 151.282 112.68 138.804C111.986 139.16 110.979 139.76 110.207 139.379C108.594 138.557 107.382 135.968 106.672 134.298C104.763 129.808 101.501 126.723 98.8435 122.858C97.9699 121.587 96.9851 117.514 96.2951 115.74C94.8373 115.01 93.4104 113.807 92.0254 112.843C90.8103 115.051 89.1494 117.436 87.8248 119.644C86.2505 122.269 84.7576 124.941 83.2302 127.573C73.7661 143.88 59.1843 149.861 42.2735 155.898C36.5596 157.939 29.4436 160.815 23.5846 162.334C27.4597 159.075 36.6898 155.399 41.5082 153.55C54.7325 148.474 67.8763 143.957 76.9667 132.339C80.4388 127.902 82.8058 123.424 85.8715 118.78C87.2522 116.689 89.3325 114.218 90.8718 112.078C88.0502 110.797 86.8684 110.844 85.3586 108.208C80.6996 107.268 80.8173 105.28 78.2271 101.732C75.6263 98.1689 72.4735 94.8194 69.6951 91.3713C68.9818 90.4857 67.7971 88.9799 66.9319 88.2751C65.2437 93.817 62.9017 100.232 59.2045 104.855C58.2327 106.07 56.9781 106.685 55.5271 107.168C48.037 105.387 46.4025 102.163 41.1568 97.4297C36.2734 93.0227 30.4239 89.1735 25.7658 84.4357C22.2127 80.8219 19.3023 76.6688 15.6311 73.1604C13.1734 70.7773 6.30557 65.0151 5 62.4182L5.11517 62.177C7.0736 61.6613 18.9164 72.9147 20.6613 74.8974C23.9743 78.6619 27.1057 82.5076 31.0513 85.7131C34.8788 88.8229 38.7453 91.9555 42.5078 95.1499C46.132 98.2131 48.115 101.695 52.2986 104.199C52.0595 103.357 51.8231 102.513 51.6894 101.646C50.2012 92.0053 55.1532 66.8667 60.9634 59.12C62.5788 56.9661 64.343 55.888 67.0124 55.5141C65.3034 54.544 62.3202 52.9292 60.8047 51.7447C57.8994 49.4744 55.2086 46.6413 52.3452 44.2277C49.7103 42.0066 46.4079 39.5674 44.0412 37.1246C41.2742 34.2684 38.651 30.8907 36.0111 27.9199C32.8558 24.3689 30.4862 22.7468 28.3072 18.4834C35.0064 22.2343 39.9079 29.2717 45.0915 34.653C47.9654 37.6366 52.0928 40.5208 55.311 43.3557C57.2856 45.0952 60.4755 48.2866 62.3745 49.6419C67.2799 53.1425 69.4009 52.5516 72.347 58.3631C74.2766 59.4419 80.9582 61.6572 83.0493 61.6883C90.2317 61.7955 93.5706 64.6727 99.2008 68.6305C104.068 72.0525 106.948 75.0577 110.127 80.3728C115.771 76.8672 119.734 72.444 124.868 68.3398C127.137 66.5263 140.116 58.036 142.326 60.6163C142.363 61.7366 141.136 61.6254 140.342 61.6518C140.715 62.4907 141.089 63.5842 141.415 64.4603C141.49 64.3353 141.566 64.2097 141.64 64.0837C145.751 57.0938 143.412 55.5152 141.141 49.0262C138.181 40.5684 134.612 32.7965 130.566 24.7904C128.173 20.0537 125.893 15.875 124.485 10.6831C123.611 7.46028 122.499 4.27355 121.643 1Z" fill="#6572A4"/>
<path d="M201.297 58.188C201.797 58.4684 202.053 58.4698 202.577 58.2824C203.46 59.5762 203.514 60.0157 203.924 61.5464C203.461 61.127 201.741 58.8026 201.297 58.188Z" fill="#6572A4"/>
<path d="M203.649 61.8466C202.919 61.0934 201.358 59.06 201.133 58.0879L201.303 58.1881C201.747 58.8027 203.467 61.1272 203.93 61.5465C203.859 61.6292 203.731 61.7976 203.649 61.8466Z" fill="#F7F9FF"/>
<path d="M138.259 62.5317C138.415 63.2597 138.602 64.0211 138.859 64.7222C142.434 74.4667 146.617 83.4952 152.096 92.329C153.092 94.1572 154.846 95.8546 155.835 97.6356C158.802 102.975 162.248 107.873 166.057 112.654C170.798 118.686 177.504 122.881 182.873 128.202C189.973 135.237 195.464 140.731 204.611 145.172C200.166 149.549 204.6 157.074 210.178 157.706C211.212 160.459 211.783 161.892 215.022 160.837C216.969 163.129 221.457 163.871 223.592 167.669C223.803 168.056 223.904 168.318 223.788 168.778C223.36 170.272 222.44 171.165 221.159 172.029C220.288 172.617 219.181 172.973 218.118 172.785C216.7 172.536 218.139 171.432 216.895 169.751C215.894 168.403 214.826 167.82 213.642 166.68C211.368 164.487 209.401 161.889 206.485 160.458C205.824 160.132 204.44 159.969 203.77 159.68C202.757 159.244 201.67 158.573 200.579 158.372L200.508 158.533C201.326 160.61 204.789 161.972 206.624 162.942C207.751 163.537 211.276 166.344 211.362 167.627L210.851 168.058C211.036 168.496 211.067 168.607 211.353 168.978L212.992 168.778L215.045 170.234C213.92 170.385 212.676 170.548 211.819 171.4C211.87 171.628 211.987 172.089 212.001 172.302L212.196 172.265C213.778 171.953 214.433 171.025 215.461 171.438C216.084 172.626 214.808 174.142 214.031 174.962C212.702 174.865 208.668 174.736 207.74 174.217C207.679 173.895 207.342 172.047 207.191 171.867C205.732 170.13 204.179 168.658 203.002 166.67C201.596 164.298 199.713 163.371 197.199 162.516C196.65 162.328 194.967 161.488 194.68 160.879C194.336 160.041 193.885 159.905 193.093 159.481C195.405 164.347 196.844 162.934 200.383 166.3C201.185 167.065 202.499 169.295 203.265 170.283C203.93 171.142 204.512 171.68 205.29 172.428L205.394 172.683C205.613 172.911 205.638 173.025 205.769 173.312C205.716 174.126 205.195 174.965 204.816 175.73C200.62 175.985 200.301 176.03 196.624 174.026L196.5 173.48C195.955 171.002 193.28 167.476 191.291 165.977C190.803 165.612 190.288 165.288 189.749 165.006C188.553 164.39 187.176 163.965 185.944 163.397C185.355 163.127 184.476 162.35 183.889 162.435L183.792 162.777C184.367 165.422 189.653 165.797 191.245 168.264C192.403 170.061 194.728 172.142 194.61 174.557C194.544 175.962 192.812 176.023 191.805 176.071C188.829 176.4 186.24 175.027 183.904 173.341C182.229 172.132 181.649 171.861 179.64 171.537L181.243 173.093C178.072 172.438 175.668 172.263 172.57 171.204C167.238 169.382 164.135 166.426 159.565 163.412C155.435 160.703 151.094 158.329 146.585 156.314C143.717 155.063 140.705 153.864 137.675 152.959C132.169 151.314 123.424 150.18 119.067 146.19C112.924 140.564 114.903 130.799 115.622 123.557C115.802 121.742 116.413 119.78 116.294 117.913C115.946 112.245 113.791 106.577 111.657 101.4C114.685 103.594 117.546 105.552 121.543 105.104C122.804 104.963 123.883 104.407 124.648 103.367L124.775 103.191C125.118 102.722 125.255 100.627 125.399 99.8036C123.772 95.3128 119.058 90.6268 115.702 87.367C114.051 85.7632 112.831 84.0196 111.5 82.1461C117.093 79.0374 120.184 75.6443 124.915 71.4576C129.365 67.5201 133.142 65.3446 138.259 62.5317Z" fill="#F7F9FF"/>
<path d="M220.643 170.542C218.631 169.493 217.208 168.192 218.85 165.974C219.232 165.46 219.378 165.356 219.979 165.248C220.42 165.473 220.428 165.488 220.717 165.903C220.502 166.643 218.288 166.932 220.05 168.639C221.293 168.511 220.598 167.262 223.587 167.669C223.798 168.056 223.899 168.318 223.783 168.778C223.672 168.514 223.718 168.607 223.508 168.392C222.566 168.466 221.361 169.851 220.643 170.542Z" fill="#6572A4"/>
<path d="M202.403 174.893C200.533 173.67 199.467 170.494 202.491 170.101L202.563 170.254C202.116 170.695 201.727 171.144 201.313 171.612C201.562 172.111 201.906 172.687 202.184 173.182C203.362 172.626 204.008 172.564 205.288 172.428L205.392 172.683C204.32 173.414 203.602 174.122 202.403 174.893Z" fill="#6572A4"/>
<path d="M211.348 168.978L212.987 168.778L215.04 170.234C213.915 170.385 212.671 170.548 211.814 171.4C211.343 170.957 210.767 169.876 210.914 169.207L211.348 168.978Z" fill="#F7F9FF"/>
<path d="M209.641 169.433C210.107 168.765 210.267 168.611 210.846 168.058C211.032 168.496 211.062 168.607 211.348 168.978L210.914 169.207C210.767 169.876 211.343 170.957 211.814 171.4C211.865 171.628 211.983 172.089 211.996 172.302C210.329 172.12 210.03 170.809 209.641 169.433Z" fill="#6572A4"/>
<path d="M121.837 112.344C123.217 112.665 123.761 120.089 124.879 121.713C126.646 124.28 128.663 125.768 130.665 127.981C130.538 128.309 130.101 128.507 129.775 128.705C127.249 127.873 124.543 125.229 123.156 123.029C121.345 120.158 121.497 117.932 121.394 114.706C121.368 113.88 121.045 113.425 121.244 112.565C121.466 112.493 121.621 112.431 121.837 112.344Z" fill="#6572A4"/>
<path d="M191.55 170.634C192.181 170.616 192.664 170.485 192.833 171.163C192.314 172.181 190.43 173.117 190.679 174.199C191.389 174.501 192.968 173.802 193.825 173.716C193.811 174.129 193.848 174.328 193.621 174.674C191.002 176.324 187.409 173.091 191.55 170.634Z" fill="#6572A4"/>
<path d="M202.435 71.9668C203.401 71.8613 203.971 71.8832 204.951 71.9174C206.022 73.1666 207.401 76.0603 208.875 77.864C210.438 79.7762 212.712 81.9492 213.991 83.6148C215.112 85.5943 215.166 88.2241 216.522 90.0806C221.855 97.2468 228.449 103.42 234.771 109.743C239.703 114.675 237.92 118.396 238.263 124.756C238.511 129.413 239.093 134.349 238.766 138.991C238.209 141.053 236.054 143.562 235.115 145.252C232.267 150.386 231.567 151.406 226.741 154.578C227.712 152.166 228.372 149.483 229.247 146.997C230.05 144.72 231.519 141.842 232.012 139.558C232.599 136.839 232.31 132.982 232.528 130.1C232.728 127.457 232.878 124.755 233.04 122.108C233.068 121.663 233.031 121.192 232.861 120.777L232.648 120.815C231.379 122.592 230.624 131.136 230.51 133.568C230.462 134.591 230.587 137.629 230.414 138.482C229.946 140.769 228.389 143.624 227.547 145.889C226.558 148.554 225.892 150.973 225.117 153.682C224.072 153.628 223.635 153.525 222.82 154.22C221.84 155.05 221.236 156.241 221.145 157.522C221.113 158.036 221.148 158.969 221.485 159.355C222.394 158.44 223.132 155.132 224.457 155.245C224.66 156.136 223.441 160.11 223.143 161.289C222.616 160.96 222.056 160.559 221.54 160.206C221.026 159.518 219.245 156.324 219.248 155.598C219.273 149.927 220.639 144.392 222.061 138.94C222.481 137.331 221.956 133.164 221.914 131.25C221.883 129.879 222.181 125.465 221.953 124.482C221.659 124.682 221.604 124.766 221.252 124.785C221.165 124.712 221.034 124.608 220.991 124.503C219.966 121.996 219.76 121.844 220.341 119.277C220.15 118.71 220.296 118.899 219.825 118.547C218.065 118.532 217.195 123.19 214.913 124.864L214.76 124.976C215.282 123.011 215.375 121.961 215.484 119.983C214.376 121.946 214.231 122.923 213.429 124.962C213.312 123.634 213.172 120.854 212.616 119.731L212.651 119.874L212.448 120.029C212.049 123.962 212.956 129.116 214.317 132.828C216.143 137.81 217.033 140.7 216.316 146.102C215.566 147.125 214.431 148.149 213.483 149C213.559 146.667 213.797 145.997 211.594 144.908L209.184 145.501C208.857 143.446 207.975 141.335 207.353 139.336C206.268 135.852 205.372 132.154 203.64 128.914C201.905 125.671 199.705 123.361 198.696 119.68C197.881 116.702 197.243 114.185 196.869 111.054C196.34 106.606 196.463 101.47 195.16 97.1848C194.737 96.2072 194.057 95.241 193.51 94.3312C192.425 92.5288 191.307 90.7614 190.088 89.0535C189.081 87.645 187.976 86.4181 186.867 85.0994C189.939 78.9142 195.569 73.5266 202.435 71.9668Z" fill="#F7F9FF"/>
<path d="M229.867 110.14C230.037 110.136 230.216 110.133 230.381 110.184C233.456 111.157 233.313 114.049 232.705 116.572C232.521 116.674 232.371 116.742 232.181 116.831C232.001 116.546 231.954 115.058 231.92 114.611C231.761 112.56 231.133 111.649 229.867 110.14Z" fill="#6572A4"/>
<path d="M66.6608 57.4272C73.2302 61.5207 78.8834 63.6019 86.729 64.1483C89.5245 64.343 94.0203 67.7626 96.3329 69.3955C99.6585 71.7437 103.603 74.0837 106.259 77.2202C108.747 80.1586 110.353 83.8506 112.893 86.7773C114.496 88.6462 116.222 90.267 117.937 92.0301C118.958 93.0801 119.902 94.4424 120.753 95.6381L120.792 95.7596C122.413 97.3671 126.294 102.318 121.874 103.226C117.656 104.093 113.322 100.183 110.616 97.393C109.312 96.0478 108.173 93.8346 106.791 92.4843C105.407 91.2226 98.7794 85.4385 97.3439 85.7739C97.2454 86.0833 97.2097 86.1891 97.3694 86.5489C98.3747 88.815 99.1483 89.3332 101.254 90.3374C103.469 91.2322 102.715 93.1054 103.341 94.6069C105.419 99.5942 105.45 104.271 105.894 109.532C105.986 110.621 106.661 112.602 106.921 113.796C107.447 116.212 108.063 118.685 108.746 121.074L109.498 121.454C110.067 122.6 112.057 126.273 112.266 127.367C112.85 130.414 111.787 133.898 112.16 137.271C111.634 137.532 111.077 137.837 110.554 138.113C110.026 136.957 109.48 135.809 108.917 134.671C109.59 135.289 110.79 136.491 111.55 136.85L111.73 136.733C112.049 134.628 109.63 133.784 108.712 132.99C106.651 131.209 105.114 127.817 103.372 125.756C101.043 123.002 99.7374 120.728 98.8614 117.219C97.4328 112.373 95.0236 105.932 91.0128 102.681C91.9456 105.303 92.7456 106.707 94.0518 109.165C94.4197 109.857 95.0765 111.86 95.3524 112.673C92.7244 110.789 89.6693 109.651 87.2346 107.766C86.2876 107.033 84.9697 104.463 83.9068 103.318L83.7542 103.156C83.8945 104.269 84.1824 105.492 84.4155 106.6C81.4782 103.966 81.2685 102.179 79.0205 99.1221C77.2552 96.7216 75.4404 94.8271 73.5059 92.5761C70.3024 88.8487 66.949 84.3058 63.2784 81.0739C62.0841 80.0226 58.3638 78.2683 56.7812 77.4151C58.4663 71.2218 60.3945 60.3205 66.6608 57.4272Z" fill="#F7F9FF"/>
<path d="M118.209 96.3291C119 96.874 119.254 96.7389 120.185 96.6721C119.805 97.3908 118.735 98.3746 118.128 98.9881C118.898 100.619 119.38 101.487 120.534 102.865C120.066 102.865 119.516 102.792 119.043 102.743L118.969 102.687C116.206 100.577 115.387 99.0209 118.209 96.3291Z" fill="#6572A4"/>
<path d="M120.746 95.6381L120.785 95.7596C120.54 96.0762 120.318 96.3025 120.178 96.672C119.247 96.7388 118.994 96.8739 118.203 96.329C119.289 95.5664 119.42 95.5832 120.746 95.6381Z" fill="#6572A4"/>
<path d="M145.355 52.3208C145.763 52.7534 147.733 56.2765 148.336 57.1469C150.917 60.8191 153.653 64.3661 155.904 68.2611C158.125 72.0144 159.856 75.8962 161.569 79.8977C164.376 86.4704 168.487 92.3655 172.164 98.4612C173.747 101.085 176.935 108.846 179.423 110.288C179.754 110.294 180.095 110.28 180.402 110.427C184.623 112.453 188.925 109.488 191.829 106.568C192.738 105.653 193.661 104.637 194.117 103.454C194.736 110.167 194.498 115.4 197.055 122.057C198.432 125.644 200.629 127.934 202.313 131.286C203.872 134.39 204.73 137.814 206.016 141.114C206.427 142.231 206.637 143.056 206.926 144.197C205.462 143.102 203.281 141.987 201.715 140.952C199.628 139.574 197.348 138.03 195.397 136.461C191.225 133.096 187.664 128.963 183.69 125.375C178.426 120.596 172.293 116.485 167.811 110.901C165.755 108.337 163.737 105.452 161.725 102.819C160.444 101.143 159.258 98.7419 158.07 96.9345C156.546 94.6198 155.001 92.2299 153.591 89.8496C149.187 82.4299 145.409 74.657 142.297 66.6112C146.207 61.8876 147.075 58.1266 145.355 52.3208Z" fill="#F7F9FF"/>
<path d="M56.4024 79.374C60.003 81.4105 62.8465 83.4628 65.5441 86.5737C63.0254 91.3544 62.3179 95.4375 59.2086 100.424C58.391 101.752 57.0752 104.552 55.303 104.24C55.097 104.096 54.9133 103.945 54.779 103.728C52.4044 99.9017 55.2909 83.8878 56.4024 79.374Z" fill="#F7F9FF"/>
<path d="M186.074 87.1323C188.26 89 191.966 95.994 193.098 98.8385C193.561 99.9995 193.766 101.072 193.919 102.305C191.627 104.177 190.393 106.14 187.707 107.585C185.246 108.583 180.308 110.754 180.91 105.455C181.175 103.125 182.616 100.298 183.168 97.9628C184.036 94.3037 184.933 90.7284 186.074 87.1323Z" fill="#F7F9FF"/>
<path d="M209.308 146.286C211.972 145.877 212.142 146.679 212.571 149.279C212.737 150.279 212.945 151.312 213.161 152.303C212.423 152.59 209.928 153.311 209.675 153.867C210.526 154.339 211.306 153.988 212.219 154.419C213.23 153.835 215.047 152.998 215.048 152.376L214.595 152.118C214.398 151.668 214.49 150.738 214.507 150.201C215.109 149.541 216.04 148.918 216.598 148.271C216.979 147.826 217.149 146.844 217.677 146.306L218.043 146.432C218.407 147.114 217.726 150.132 217.774 151.429C217.847 153.372 217.854 153.761 218.265 155.652C218.135 155.413 218.004 155.175 217.871 154.939C217.663 154.557 217.603 154.299 217.209 154.134L217.076 154.418C217.232 156.975 219.058 159.971 220.77 161.896C221.053 162.214 222.086 162.032 222.469 162.825C222.254 163.278 222.416 163.124 222.009 163.34C221.133 163.014 220.749 165.422 220.359 164.585C218.304 164.503 218.351 165.299 216.598 164.585C215.908 164.304 214.422 163.673 213.51 163.34C213.013 162.848 210.33 162.088 210.015 161.374C208.132 160.823 207.029 158.965 205.263 158.442C202.626 157.663 199.216 143.921 198.13 142.694C198.106 142.644 198.083 142.595 198.06 142.544C197.975 142.347 197.895 142.148 197.819 141.946C197.418 140.857 205.442 146.438 206.699 146.045C207.485 146.135 207.374 146.825 207.511 147.411C207.83 148.769 208.077 152.617 209.01 153.494L209.229 153.368C209.981 151.192 209.547 148.543 209.308 146.286Z" fill="#F7F9FF"/>
<path d="M218.499 122.809C218.849 123.263 219.891 125.979 220.484 127.016C219.848 130.145 219.981 132.294 220.453 135.345C218.96 135.448 218.676 135.501 217.247 136.024C216.93 135.044 214.156 127.626 214.757 127.096C216.699 125.38 217.239 125.249 218.499 122.809Z" fill="#F7F9FF"/>
<path d="M227.657 162.459C228.841 161.357 230.129 159.733 231.805 159.523C232.305 159.848 232.48 160.305 232.657 160.877C233.611 163.966 228.151 167.953 225.437 167.328C225.141 167.003 225.15 167.003 224.959 166.6C224.218 166.3 222.888 166.118 222.703 164.976C223.02 164.534 222.868 164.622 223.319 164.416C224.116 163.345 224.275 163.067 224.775 161.836C225.893 162.225 226.468 162.359 227.657 162.459Z" fill="#F7F9FF"/>
<path d="M223.319 164.416C223.981 165.057 224.451 165.834 224.959 166.6C224.218 166.3 222.888 166.118 222.703 164.976C223.02 164.534 222.868 164.622 223.319 164.416Z" fill="#6572A4"/>
<path d="M240.01 123.101C240.45 123.456 243.556 135.171 243.661 136.795C243.744 138.113 241.251 140.943 240.322 142.094C239.646 142.967 239.172 143.457 238.391 144.248C239.119 142.795 240.069 141.367 240.453 139.774C241.168 136.822 240.371 126.429 240.01 123.101Z" fill="#F7F9FF"/>
<path d="M107.547 107.503C108.526 107.948 108.915 108.302 109.766 108.981C110.509 108.681 110.956 108.419 111.65 108.024C112.106 109.147 113.475 112.826 113.266 113.892L112.797 114.17C111.634 114.622 110.466 115.061 109.293 115.487C108.957 112.579 107.776 110.086 107.547 107.503Z" fill="#F7F9FF"/>
<path d="M113.385 116.169L113.621 116.255C114.22 117.791 113.695 123.592 113.484 125.361C113.161 124.671 112.751 123.918 112.398 123.234C111.308 121.349 109.983 119.552 109.336 117.49C110.922 117.348 112.027 116.957 113.385 116.169Z" fill="#F7F9FF"/>
<path d="M217.919 138.261C218.503 137.484 218.796 136.792 219.807 136.704C219.978 136.758 220.509 136.858 220.534 137.029C220.917 139.541 218.989 142.112 218.742 144.628C218.671 145.343 218.543 146.006 218.044 146.432C217.663 145.721 218.146 144.051 218.191 143.139C218.272 141.465 218.268 139.91 217.919 138.261Z" fill="#F7F9FF"/>
<path d="M108.616 101.396L108.968 101.419C109.565 101.983 111.613 106.302 110.933 106.933L110.414 106.857C109.506 106.404 108.52 105.852 107.542 105.627C107.544 104.255 107.183 103.053 107.412 101.986C107.853 101.497 107.92 101.597 108.616 101.396Z" fill="#F7F9FF"/>
<path d="M226.188 156.716C227.428 157.592 228.306 157.931 229.73 158.449C228.742 159.089 228.441 159.372 227.718 160.269C227.448 160.724 227.412 160.872 226.972 161.122C226.37 161.199 225.796 160.835 225.211 160.564C225.654 159.233 225.89 158.082 226.188 156.716Z" fill="#F7F9FF"/>
<path d="M104.477 92.5591C105.105 92.8666 108.098 98.7373 108.434 99.6505C107.825 99.6952 107.313 99.7902 106.833 99.4677C106.357 97.9612 105.879 96.4477 105.364 94.9539C105.077 94.1191 104.636 93.4252 104.477 92.5591Z" fill="#F7F9FF"/>
<path d="M208.18 73.7505C208.89 74.1479 209.1 74.7351 209.27 75.4969C208.799 75.087 208.366 74.3487 208.18 73.7505Z" fill="#6572A4"/>
<path d="M73.3559 103.372L73.5028 103.565C73.4544 105.514 71.3161 109.44 70.2615 111.206C62.8617 123.6 52.0874 135.382 39.668 142.885C36.3956 144.862 34.1428 146.119 30.409 147.081L30.3281 146.922C31.3458 146.194 32.7468 145.548 33.8541 144.876C35.4944 143.878 37.0873 142.849 38.6707 141.764C47.6113 135.55 55.5357 127.993 62.1625 119.36C65.0151 115.621 67.8105 111.76 70.2535 107.746C71.219 106.16 71.998 104.674 73.3559 103.372Z" fill="#6572A4"/>
<path d="M87.5441 16.208L87.6917 16.3574C88.099 18.6572 82.7964 35.1529 81.5489 38.2728C80.7687 40.224 79.0994 44.7226 77.9655 46.709C76.5741 49.1462 75.2302 52.7648 72.4336 53.6622L72.2279 53.2737C72.1501 52.0219 75.5938 46.5825 76.4231 44.8232C79.2511 38.8242 81.3314 32.9044 83.5215 26.6682C84.6747 23.3848 85.8909 19.1819 87.5441 16.208Z" fill="#6572A4"/>
<path d="M121.167 61.918L121.242 61.9485L121.26 62.1175C117.488 65.8772 111.89 73.1342 107.111 74.4807L106.953 74.2346C110.296 71.4942 117.291 63.4038 121.167 61.918Z" fill="#6572A4"/>
</svg>
