<svg width="250" height="179" viewBox="0 0 250 179" fill="none" xmlns="http://www.w3.org/2000/svg">
<g clip-path="url(#clip0_3616_11285)">
<path d="M181.731 0.00607014C182.645 -0.0575208 184.644 0.38041 185.119 1.23104C187.389 5.30575 189.326 10.5595 190.549 15.0718C191.134 17.2812 189.954 22.021 190.433 23.9599C192.126 30.7923 190.893 37.7586 191.496 44.7473C191.579 47.4193 191.999 50.1861 191.917 52.8535C191.644 61.693 191.171 70.3284 191.198 79.1861C192.649 79.809 193.249 80.4042 193.842 81.8413C192.827 84.9994 188.136 90.2957 185.904 93.0195C184.839 94.3197 183.549 95.3662 182.544 96.9045C184.175 95.988 186.736 94.0339 188.123 92.3C189.689 90.3407 192.863 84.7276 195.311 89.935C196.388 92.2266 194.204 96.2841 193.175 98.6024C193.237 98.986 193.288 99.3722 193.328 99.7584C193.736 103.766 193.089 105.115 190.644 108.145C190.776 109.134 190.802 109.703 190.765 110.65C190.577 115.553 186.616 115.364 184.416 118.156C183.306 119.986 182.339 123.891 180.799 125.269C179.136 126.758 175.236 127.038 173.055 127.592C171.961 127.87 169.781 127.753 168.575 127.686C165.691 129.13 162.815 131.683 160.394 133.823C158.829 135.208 156.516 136.896 155.09 138.293C148.652 144.602 142.468 151.248 135.86 157.382C132.767 160.252 128.95 162.492 125.367 164.733C121.567 167.149 117.727 169.502 113.848 171.789C110.557 173.757 107.503 175.748 104.034 177.429C95.7426 181.447 91.0701 177.139 85.5104 171.471C83.4961 169.442 81.5619 167.333 79.7119 165.153C78.0978 166.049 76.6057 167.1 74.689 167.079C71.6425 167.041 69.4831 163.042 69.6511 160.314C67.537 157.473 65.744 158.348 63.2198 156.734C61.0265 155.331 61.3953 152.401 59.9366 149.905C58.9277 148.179 54.2018 143.219 54 142.026C55.6479 142.554 59.2297 147.377 60.7163 148.541C62.57 149.991 62.7923 154.511 63.6608 155.202C66.2514 157.262 67.7026 156.075 70.3048 159.197C71.064 155.2 71.5978 152.786 74.4144 149.59C72.9482 153.425 71.5138 156.441 71.3593 160.589C71.249 161.587 71.0625 162.362 71.4069 163.345C72.6996 167.041 76.2718 165.123 78.8289 164.252C78.5124 163.866 78.3104 163.555 77.8821 163.304C77.5189 163.488 77.5963 163.778 77.4063 164.35L77.1801 164.371C76.6381 163.984 76.4325 163.653 76.0347 163.12C75.3054 154.152 84.9704 142.902 90.9773 136.953C92.319 135.623 93.8205 134.403 95.4374 133.473C98.0953 131.944 97.9355 133.786 98.7233 135.364L98.8494 135.262C99.2033 133.786 99.0314 132.591 98.5692 131.156C97.0406 126.407 94.3561 131.765 93.0375 127.308C90.9557 127.283 89.0411 127.745 87.1959 128.694C80.592 132.091 77.2934 136.644 74.9462 143.449C77.1718 141.99 78.7645 140.244 80.7268 138.5C83.1597 136.339 85.8469 134.157 88.6158 132.443C88.5767 132.496 88.5377 132.549 88.4988 132.602C87.3086 133.786 85.9404 134.945 84.7156 136.093C82.0449 138.598 79.4889 141.238 76.7375 143.644C76.3044 143.977 75.6181 144.499 75.0688 144.535C74.2724 144.598 73.4726 143.571 73.6009 142.832C74.9507 135.055 83.6054 125.975 91.6134 125.851C89.4763 124.678 90.9909 122.83 89.0272 119.823C88.2404 119.007 85.6217 116.943 84.6579 116.425C78.1963 112.945 75.5479 105.697 71.5503 99.9188C70.3113 98.1282 67.747 95.3662 67.0317 93.3967C71.8987 95.894 77.4394 108.223 81.441 112.61C83.0063 115.034 88.0381 116.234 89.4763 118.157C91.2596 120.541 89.9406 122.181 92.5557 125.035C92.9441 121.195 93.1531 117.735 93.9602 113.893C94.834 109.733 95.9243 105.666 96.3757 101.428C97.1564 94.1008 96.2769 87.0205 96.9798 79.6486C97.519 73.5141 99.7837 67.7643 100.347 61.6339C100.556 59.3568 100.778 57.386 100.565 55.0867C100.538 54.7998 100.605 54.6069 100.772 54.3855C101.289 54.3537 101.081 54.316 101.561 54.5474C102.227 55.3501 101.616 57.1234 101.649 58.1684C101.779 61.7662 101.058 65.3199 100.347 68.8487C99.7459 71.7372 99.2171 74.6311 98.7366 77.5872C98.3195 80.1523 98.392 80.8335 98.2511 83.4128C100.788 80.9138 102.452 80.4253 104.71 77.7361C106.694 75.565 109.286 73.2209 112.109 72.2556C112.663 72.0662 114.062 71.8461 114.265 72.5816C114.043 73.1732 114.195 72.8366 113.536 73.1768C113.456 73.2178 113.584 73.4651 113.295 73.6423L113.144 73.3271C112.753 73.1453 110.973 74.2226 110.632 74.4849C108.655 75.9753 106.676 77.343 105.048 79.2091C102.844 81.7698 101.164 82.9273 98.2511 85.3547C98.1715 88.0041 97.8151 91.6808 97.7656 94.3725C98.2856 94.375 100.036 94.1922 100.511 94.3725C104.301 95.8142 107.161 100.703 110.502 103.071C112.095 104.199 114.933 103.592 117.029 104.534C118.955 105.4 119.776 106.605 121.403 107.635C123.008 108.652 125.331 109.579 127.091 110.342C124.963 106.554 124.597 101.897 124.93 97.6292C125.198 94.2051 125.648 91.404 128.345 89.0452C127.447 91.5907 126.736 92.2124 126.297 95.2452C126.647 95.8361 126.977 96.2274 127.405 96.7616C125.783 100.822 126.738 106.55 128.592 110.471C129.024 111.385 130.031 112.437 130.742 113.15C129.757 110.977 128.782 108.835 128.328 106.483C128.219 105.915 128.057 105.359 127.904 104.801C128.64 105.528 129.359 106.271 130.061 107.029C130.266 108.541 131.081 111.054 131.765 112.457C133.28 115.56 134.281 116.517 137.328 117.651C137.328 116.425 136.44 114.803 136.118 113.512C135.361 110.483 136.139 106.376 136.603 103.317C138.545 97.4914 141.458 93.1222 144.856 88.753C145.988 87.7475 146.991 86.2691 148.254 85.3547C148.584 85.6358 148.979 85.9343 149.358 86.1981C149.321 85.5727 149.264 84.9316 149.216 84.3055C143.524 83.7004 141.91 87.9224 139.031 91.6658L138.06 91.1803C139.251 88.0344 142.821 84.9203 145.827 83.4128C143.229 82.2393 139.798 80.9236 137.511 79.2091C135.966 80.21 133.582 82.3121 132.298 83.7265C131.736 84.3463 131.189 85.5454 130.505 86.0915C130.096 85.8965 129.961 85.2613 130.144 84.8836C131.356 82.3845 133.053 79.8182 135.509 78.4155C135.416 78.0145 135.317 77.6148 135.212 77.2167C134.538 74.6872 132.981 75.8696 131.223 74.4848C129.08 72.7975 129.361 69.9828 127.256 68.1434C124.113 65.3975 120.892 64.9523 118.333 61.3836C117.462 60.1438 116.754 58.7968 116.227 57.3758C115.127 54.3295 115.206 52.8836 112.074 51.0691C112.597 51.8158 113.467 52.9258 113.655 53.7676C114.434 57.2508 111.977 63.2002 110.144 66.118C111.032 63.3952 111.723 60.1492 112.383 57.3441C112.588 56.4694 112.707 54.8914 112.503 53.9904C112.345 52.842 110.974 51.5697 110.632 50.6232C108.421 44.5035 104.368 39.3134 98.9699 35.6843C97.6779 34.8157 96.1865 34.0606 94.8736 33.1064C93.9868 32.462 91.9594 30.6649 91.0168 30.4934C90.886 30.797 91.131 31.1671 91.3168 31.4948C94.9091 37.833 98.9127 45.2593 98.8251 52.7267C98.8131 53.7398 99.1792 58.1371 99.0291 58.3652C98.5495 57.702 98.007 50.1298 97.3929 48.2332C95.3122 41.9349 92.3258 35.6285 88.9086 29.9471C88.3098 28.9515 81.9327 28.9766 80.4577 28.1626C78.8452 27.2724 74.0979 26.1976 72.8856 25.0299C73.4996 23.8574 78.6186 25.8983 79.7649 26.2669C82.5355 27.158 85.4202 26.9067 88.1921 27.5191C89.0949 27.7186 90.4442 29.2041 91.454 29.6474C91.6023 29.6288 92.1705 29.562 92.2543 29.6116C93.4542 30.3239 94.7578 31.4553 95.9762 32.1177C100.416 34.5315 103.786 37.0165 106.896 41.05C107.681 42.0679 108.931 43.6553 109.502 44.8063C110.344 46.4997 110.826 48.2679 111.764 49.9753C118.622 52.7981 115.569 55.8723 119.624 60.7612C121.983 63.6045 125.648 64.6259 128.403 67.1823C130.718 69.33 129.623 71.9301 131.957 73.6831C132.963 74.4388 134.019 74.114 134.903 74.5892C135.966 75.1603 136.393 77.0039 136.71 78.107C137.394 78.2505 139.01 79.1141 139.728 79.4443C141.426 80.2187 143.134 80.9707 144.851 81.7002C148.119 83.0783 150.98 82.9482 151.152 87.1821C152.951 88.7328 156.405 90.6742 158.55 91.9267C160.5 89.8519 162.336 90.2815 164.275 91.9267C170.273 87.0893 174.44 62.8114 176.412 54.7701C174.704 52.2661 174.272 49.5536 173.111 47.1221C170.672 42.0145 170.505 40.2237 170.945 34.641C169.042 34.8754 168.141 35.0155 165.897 34.9457C163.467 35.9517 163.682 36.0418 161.223 35.9517C159.671 34.961 159.976 34.6487 159.353 32.9558C161.317 31.1726 167.183 28.0641 169.823 28.8366C169.832 28.3167 169.925 26.4509 170.036 25.9648C170.546 23.7167 173.526 24.6409 174.944 25.05L173.45 23.8205C171.524 23.7584 170.193 23.42 168.4 22.826C164.962 23.4067 164.401 24.3429 160.662 20.7589C161.41 19.8491 161.877 19.7793 163.093 19.2874C163.657 19.0588 165.43 17.6825 165.897 17.6023C168.64 17.1316 170.945 16.8533 174.944 17.2278C176.728 17.2601 179.001 19.3766 180.067 20.7589C180.011 19.1306 179.822 16.7646 180.056 15.1932C177.947 13.8021 177.326 12.5085 175.8 11.3771C173.019 9.50919 169.851 8.59626 168.897 4.96617C168.651 4.02904 169.303 3.27444 170.223 3.07993C171.47 2.81643 172.53 3.53228 173.627 3.86362C176.957 4.86923 179.108 7.072 181.937 8.87662C181.311 6.69625 179.716 3.42865 180.436 1.1928C180.661 0.490854 181.123 0.281288 181.731 0.00607014Z" fill="#6572A4"/>
<path d="M162.755 98.7829C165.19 102.745 166.972 100.147 169.618 98.1354C171.104 97.0065 172.985 95.4707 174.472 94.0933C176.178 92.5139 177.636 91.4472 179.169 89.7261C180.978 87.7105 182.03 86.3191 183.923 84.384C185.327 82.9326 189.466 80.1357 191.68 80.6626C192.706 81.6042 190.126 84.0522 189.402 84.7606C189.202 85.1131 189.28 85.1116 188.987 85.2287C189.011 86.1509 184.661 91.5897 183.887 91.6721C183.467 91.2614 183.49 90.4711 183.046 89.7261C182.406 89.3281 181.801 89.8196 181.842 90.5122C182.28 91.3477 183.131 91.7944 183.923 92.2591C183.481 92.6543 183.052 93.0649 182.636 93.4897C181.875 94.2762 180.286 96.1827 181.842 97.3476C184.534 99.1794 183.887 98.7829 185.638 97.3476C186.201 97.1056 187.19 96.471 187.565 95.9754C189.054 94.0085 190.413 92.4007 191.831 90.3822C193.296 88.2983 194.836 91.0658 193.637 91.6824C193.164 91.4648 192.696 91.2396 192.232 91.004C192.799 91.5845 193.284 92.178 193.803 92.7984C193.346 94.0599 192.035 96.1646 191.323 97.3476C190.761 96.7645 190.28 96.4465 189.619 95.9754L190.997 98.1354C189.22 100.026 187.294 102.012 185.213 103.803C185.799 104.37 185.95 104.285 186.609 104.774C188.96 103.506 189.946 102.223 191.824 100.368C191.784 100.611 191.742 100.855 191.697 101.099C190.733 106.333 189.256 107.328 185.213 110.114C185.659 110.644 185.708 111.01 186.124 111.57C187.306 110.543 187.683 110.756 188.781 109.595C188.604 110.68 188.775 112.652 188.065 113.512C186.33 115.617 181.555 117.721 179.169 119.338C176.261 121.309 173.653 123.444 170.589 125.163C168.14 126.537 167.491 126.351 165.248 128.076C162.874 129.903 160.197 131.899 157.966 133.902C154.154 137.322 150.326 141.35 146.801 145.068C143.659 148.381 139.031 153.194 135.635 156.233C130.696 160.653 104.206 177.61 98.739 178.08C96.2317 178.295 92.9837 176.055 90.8941 174.681C89.2645 173.612 87.9988 172.003 86.6422 170.614C83.7464 167.652 80.5353 163.768 77.3784 161.088C77.4707 160.452 77.7262 159.289 77.8639 158.661C79.2124 152.667 82.6633 148.155 86.6023 143.611C89.0785 140.755 92.6192 136.903 95.8262 134.873C97.2597 136.783 97.8372 136.591 99.71 138.06C101.029 137.832 102.735 137.081 104.079 136.815C108.603 135.942 113.658 134.89 118.158 133.902C121.392 133.214 128.635 131.916 131.265 130.504C140.122 125.747 146.897 119.146 154.855 113.027C154.366 112.468 153.923 110.397 154.083 109.628C154.735 106.478 156.92 106.803 156.995 103.317C157.06 100.351 158.529 99.0352 160.656 96.9666C160.473 96.6448 160.278 96.3371 160.082 96.0243C159.722 93.007 163.566 89.9858 163.309 94.7641C163.238 96.0951 162.639 97.1339 162.742 98.6104L162.755 98.7829Z" fill="#F7F9FF"/>
<path d="M188.984 85.2284C188.3 84.7289 187.974 84.5174 187.565 83.7897L187.641 83.6804C188.358 83.9262 188.591 84.4277 189.399 84.7603C189.199 85.1128 189.277 85.1114 188.984 85.2284Z" fill="#6572A4"/>
<path d="M176.654 101.516C177.126 101.948 177.484 102.558 177.84 103.098C177.575 103.422 177.304 103.743 177.029 104.058C176.514 104.635 176.162 104.988 175.379 105.035C174.657 104.618 174.433 104.367 173.979 103.717C175.598 103.166 176.085 103.234 176.654 101.516Z" fill="#6572A4"/>
<path d="M181.033 106.786C182.25 107.732 181.848 109.798 179.954 109.488L178.644 108.522C179.886 108.118 180.495 108.055 181.033 106.786Z" fill="#6572A4"/>
<path d="M181.618 15.891C180.32 14.3416 178.876 13.3508 177.335 12.0776C176.459 11.3479 175.64 10.3187 174.722 9.65986C174.04 9.1698 173.095 8.86819 172.361 8.3883C170.518 7.18406 170.484 4.4548 173.269 5.16331C176.489 5.98291 179.298 7.30287 181.914 9.36495C183.069 10.2738 184.607 11.0686 185.44 12.3591C186.372 13.8213 186.263 16.4036 186.751 18.0715C187.314 20.4931 189.294 24.4297 189.519 26.6131C190.013 31.4362 189.897 36.3135 190.005 41.1772L190.49 50.4011C190.601 53.2406 190.927 58.2981 190.49 61.0814C189.487 56.5216 190.256 55.9899 186.209 52.5338C187.033 54.2097 187.597 55.3716 187.845 57.2753C188.172 59.7664 188.323 62.0132 188.548 64.4797C189.199 65.1074 189.164 65.5527 190.005 65.9361C189.885 67.4411 190.002 69.7606 190.005 71.2763C190.008 74.009 189.974 75.8351 190.005 78.5583C185.956 80.0713 181.484 85.318 178.57 88.3708C178.047 88.9183 176.659 90.5649 176.12 90.9202L175.991 90.8391C175.748 91.0451 175.845 91.0245 175.571 91.0863C174.618 93.5475 170.816 95.3188 168.682 96.7155C167.897 97.2291 165.391 99.3492 164.613 99.1459C164.513 97.2098 165.643 96.3769 164.691 94.0367C170.192 88.8709 173.932 73.019 175.494 65.7202C175.793 64.3219 177.3 55.5853 177.781 55.1078L177.977 55.2378C178.517 56.7016 178.254 62.6829 178.308 64.5887C178.92 65.0951 179.528 65.6054 180.132 66.1196C179.883 63.2189 180.138 57.8797 179.424 55.5515C176.885 53.3816 176.202 52.7256 174.863 49.6538C172.978 45.3325 172.298 42.8958 172.727 38.1532C172.794 37.4106 172.687 36.0858 172.933 35.462L173.149 35.429C173.896 36.4317 172.439 38.2189 175.131 40.5893C175.256 38.8527 175.401 37.247 174.582 35.797C173.614 34.0828 172.526 33.3671 170.627 33.6173C169.885 33.5366 168.874 33.7527 168.14 33.8922C166.136 34.273 164.125 33.9193 162.345 35.0156C162.021 35.215 161.054 34.3965 160.849 33.8922C160.904 33.7138 161.094 33.0963 161.223 32.956C162.211 31.8741 161.282 32.5762 162.531 31.8326C163.991 30.9638 166.511 30.5021 168.14 30.0114C169.805 29.5103 175.42 29.5563 177.868 29.5259C176.094 28.2037 177.586 26.8447 176.367 25.092C175.452 23.7746 173.816 22.9699 172.519 22.052C169.774 22.1673 169.946 22.8829 167.579 21.7217C165.336 22.052 165.178 22.4185 162.531 20.9727C163.829 20.3466 166.358 19.0038 167.579 18.7259C169.036 18.3945 175.238 18.5401 176.741 18.7259C177.926 19.5645 179.124 21.166 180.106 22.2834C181.016 23.3054 182.512 24.1426 183.491 25.0993L183.651 24.7278C183.111 24.0484 182.562 23.3762 182.004 22.7116C181.677 20.2471 181.846 18.0877 181.618 15.891Z" fill="#F7F9FF"/>
<path d="M183.491 25.0993L183.651 24.7278C184.345 25.5464 184.92 26.2497 185.566 27.1097C184.801 26.586 184.127 25.7879 183.491 25.0993Z" fill="#6572A4"/>
<path d="M97.7681 95.5498C98.3265 95.6888 99.6455 95.6846 100.023 95.8339C104.099 97.4417 106.63 102.183 110.383 104.43C112.915 105.947 116.271 104.891 118.857 106.418C120.291 107.265 120.878 108.565 122.266 109.534C124.269 110.934 126.153 111.056 128.273 111.985C128.603 112.131 129.571 113.231 130.023 113.562C134.265 116.676 134.474 118.154 139.79 118.979C140.365 118.371 140.505 118.095 140.831 117.351C142.151 118.382 142.976 118.859 144.414 119.662C143.165 120.785 141.601 121.924 140.277 122.999C137.54 125.222 135.37 126.97 132.291 128.709C126.357 131.693 121.973 132.159 115.424 133.498C110.218 134.525 105.024 135.612 99.843 136.755C100.539 133.553 100.801 128.245 96.2765 127.721C95.6819 127.651 95.0217 128.158 94.4031 127.746C94.4473 126.842 93.9357 125.931 93.3989 125.164C94.3788 121.273 94.1034 117.927 94.8553 113.998C95.6815 109.68 96.9402 105.313 97.2826 100.89C97.4186 99.1343 97.6912 97.3056 97.7681 95.5498Z" fill="#F7F9FF"/>
<path d="M148.814 87.3997C149.329 87.6293 151.07 88.6875 151.697 89.0503C153.719 90.2185 156.286 91.4247 158.123 92.7995C157.775 94.37 157.435 95.8967 157.191 97.4543C156.999 98.6746 156.513 102.571 156.171 103.454C154.148 108.686 152.48 106.782 152.431 113.123C150.223 114.701 147.378 117.2 145.28 118.997L144.13 118.268C143.073 117.478 139.293 114.682 138.154 115.452C138.201 115.86 138.785 116.296 139.129 116.614L139.098 116.825C138.761 117.11 138.745 117.148 138.326 117.205C135.95 114.399 137.557 103.432 139.302 100.197C141.804 95.5568 144.449 90.5403 148.814 87.3997Z" fill="#F7F9FF"/>
<path d="M183.739 1.75034C185.39 2.29499 188.391 12.067 188.859 13.9436C189.159 15.1458 188.969 18.4334 188.587 19.7031L188.48 19.7286L188.391 19.2677C187.861 16.7174 188.268 13.9081 186.359 12.34C185.631 11.6183 184.342 10.7649 183.905 9.82382C182.882 7.6244 180.926 3.33188 183.739 1.75034Z" fill="#F7F9FF"/>
<path d="M181.448 118.852C181.528 118.932 182.254 120.486 182.24 120.621C181.681 125.515 176.599 126.116 173.089 126.62L172.53 125.422C172.692 125.097 180.381 119.69 181.448 118.852Z" fill="#F7F9FF"/>
<path d="M172.948 25.9793C173.862 26.1292 175.801 26.6085 175.573 27.7926C175.266 28.1822 175.186 28.1892 174.722 28.4119C173.671 28.6436 172.97 28.5056 171.908 28.4076C172.113 27.2314 172.054 26.7806 172.948 25.9793Z" fill="#F7F9FF"/>
<path d="M90.9456 36.6368C91.5799 37.0235 93.146 42.7408 93.5101 43.8048C98.1838 57.4626 98.6417 70.3834 95.5535 84.4665C95.4677 84.8576 95.4306 85.2621 95.1706 85.551C95.0574 85.0871 95.329 83.0602 95.3332 82.3846C96.3153 78.0729 96.2619 73.1103 96.3153 68.3635C96.396 61.1605 95.2118 53.9445 93.5101 47.0028C93.0598 45.166 90.4032 38.092 90.9456 36.6368Z" fill="#6572A4"/>
<path d="M75.616 100.03C75.4466 99.6314 75.058 98.9555 74.7945 98.581C70.8047 92.9041 67.3789 85.9283 60.8183 82.8482C60.2988 82.6044 58.4737 81.7207 58.3389 81.3109L58.5037 81.1919C60.1476 81.394 64.318 83.8115 65.5213 84.8609C70.0466 88.8075 73.3463 94.5634 75.8422 99.9519L75.616 100.03Z" fill="#6572A4"/>
<path d="M75.8447 99.9517C76.0454 100.288 76.7246 101.774 76.7393 102.127C76.1792 101.315 76.0211 100.945 75.6186 100.03L75.8447 99.9517Z" fill="#F7F9FF"/>
</g>
<defs>
<clipPath id="clip0_3616_11285">
<rect width="250" height="179" fill="white"/>
</clipPath>
</defs>
</svg>
