<svg width="250" height="217" viewBox="0 0 250 217" fill="none" xmlns="http://www.w3.org/2000/svg">
<path d="M146.035 46.5224C153.836 47.6047 160.993 50.0455 167.11 55.218C167.065 55.5034 166.955 55.7573 166.796 55.9788C160.626 50.9208 154.739 48.6096 146.958 47.4426C147.272 51.3919 147.594 55.6078 147.86 59.573C146.848 60.3693 141.468 65.2733 141.097 66.0875C133.655 82.3951 131.798 94.6865 148.778 104.95C150.755 103.351 152.49 101.024 154.397 99.5585C155.637 99.5412 158.401 100.022 159.601 100.175L159.506 100.307C158.538 100.328 155.248 100.266 154.595 100.442C153.628 101.326 149.608 105.345 148.778 105.655C146.56 105.361 140.915 100.085 139.408 98.3056C131.405 88.8556 135.502 75.5799 140.217 65.684C140.632 64.8124 145.964 59.9033 147.02 59.0518C146.718 54.7689 146.257 50.8828 146.035 46.5224Z" fill="#F0F4FF"/>
<path d="M186.842 103.163C187.28 103.339 187.064 103.322 187.51 103.244L187.656 103.075C188.149 104.222 189.085 106.324 190.42 106.929C190.605 107.014 191.246 106.933 191.545 106.964C191.179 107.194 189.887 107.944 189.725 108.228C188.001 108.243 186.733 105.624 185.914 104.308C186.242 103.854 186.439 103.566 186.842 103.163Z" fill="#F0F4FF"/>
<path d="M188.381 101.974L188.871 102.228C188.54 102.46 187.983 102.88 187.657 103.075L187.512 103.244C187.066 103.322 187.282 103.339 186.844 103.163C187.291 102.605 187.774 102.354 188.381 101.974Z" fill="#F0F4FF"/>
<path d="M174.266 106.002L174.511 106.334C173.575 107.179 172.578 108.117 171.488 108.749L171.344 108.441C171.873 107.937 173.628 106.531 174.266 106.002Z" fill="#F0F4FF"/>
<path d="M168.039 108.831L168.083 109.069L168.353 109.138C167.578 109.802 166.865 110.366 166.054 110.987L165.914 110.555C166.743 109.945 167.381 109.624 168.039 108.831Z" fill="#F0F4FF"/>
<path fill-rule="evenodd" clip-rule="evenodd" d="M105.231 24.5896C120.073 11.7234 142.351 19.9012 156.029 30.3758C161.748 34.7543 164.755 38.8879 167.505 45.5057C170.014 51.5466 169.761 54.6773 169.37 61.0369C169.136 64.858 169.496 69.0008 169.077 72.8982C167.474 75.2124 166.014 75.5055 164.254 77.1629C164.623 79.2303 165.004 81.2363 165.42 83.3328C166.189 87.198 167.515 91.3472 167.676 95.2732C167.738 96.8065 165.217 99.361 163.824 99.8357C163.516 99.949 162.818 100.09 162.63 100.301C163.19 100.93 164.835 100.583 165.648 100.895C166.133 101.081 166.652 101.521 167.047 101.856C169.32 97.8653 172.165 99.9129 174.675 102.196C178.217 96.6762 180.107 97.299 184.103 101.99C186.402 100.72 189.808 99.2232 192.341 100.178C198.911 102.654 190.969 108.786 188.691 110.496C188.659 112.169 188.515 115.579 188.635 117.129C188.964 121.406 190.432 123.094 187.764 127.175L187.085 126.664L187.179 126.148L187.396 126.01L187.282 125.147C187.552 124.566 187.186 120.948 187.137 119.975C187.016 117.319 186.945 114.66 186.922 112.001C185.001 113.15 183.512 114.693 181.665 115.855L184.253 117.407C183.819 117.703 183.311 118.009 182.862 118.294C181.964 117.818 181.11 117.01 180.126 117.459C179.576 118.226 179.724 119.288 179.735 120.262C179.024 120.753 178.477 121.567 177.943 122.263C177.935 121.843 177.963 120.581 177.793 120.293L177.374 120.383L177.312 120.211C179.037 115.341 186.545 111.971 190.213 108.677C190.008 108.421 189.987 108.435 189.725 108.228L189.725 108.226C189.889 107.943 191.179 107.194 191.545 106.964L191.843 106.903C192.396 106.488 193.047 104.512 193.257 103.866C192.077 102.328 190.877 101.421 188.869 102.227L188.379 101.974C185.935 101.751 180.408 104.721 178.717 106.391C175.115 109.946 174.036 110.349 169.168 111.691C166.029 112.556 161.331 116.671 159.191 119.152C156.808 121.946 156.404 126.917 155.557 130.427C154.826 133.458 155.616 134.284 152.792 136.412C153.558 129.238 154.538 124.453 159.007 118.701C156.433 115.56 159.738 110.799 153.952 112.328L153.536 112.116C155.271 109.9 157.011 109.873 159.541 110.412C159.559 110.214 159.574 110.015 159.586 109.817C159.737 107.32 158.68 107.005 156.46 106.87C158.891 104.07 158.314 105.503 161.484 103.993C161.095 101.974 160.74 102.102 159.64 100.526C158.358 100.525 155.728 100.6 154.592 100.442C155.245 100.266 158.535 100.328 159.502 100.306L159.597 100.176C160.291 99.9487 162.561 99.3189 162.578 99.3338C163.212 99.3989 165.407 97.9392 165.979 97.6316C167.034 96.1407 164.34 88.3399 163.953 86.2137C163.522 83.8493 162.666 81.3874 162.583 78.9217L162.578 78.7127C163.945 76.6895 165.484 75.6345 167.403 74.16C167.357 70.5629 167.468 66.7035 167.551 63.0955C167.6 60.9532 167.938 58.8094 167.936 56.5799L166.792 55.9793C166.951 55.7579 167.061 55.5037 167.105 55.2185C167.373 55.4419 167.415 55.527 167.758 55.5594C167.914 55.261 167.994 55.1207 167.922 54.7684C165.237 41.5748 158.41 32.7839 146.232 27.0457C136.823 22.6123 130.599 19.4542 119.749 19.9559C112.842 20.2461 106.713 23.6732 102.093 28.7976L101.586 28.1131C102.67 26.7123 103.915 25.7331 105.231 24.5896ZM162.495 110.919C162.142 111.309 161.704 111.817 161.342 112.186L159.516 112.657C159.905 114.227 160.157 115.111 160.823 116.598L160.972 116.686C161.951 115.716 162.868 114.904 163.902 113.995C163.66 113.232 163.152 111.267 162.495 110.919ZM161.413 108.313C161.289 108.706 161.184 109.046 161.003 109.42C160.697 110.049 159.607 111.1 159.531 111.725C159.674 111.852 159.602 111.841 159.719 111.836L159.745 111.679L159.919 111.644L159.968 111.585C160.924 110.961 161.393 110.672 162.472 110.275C162.22 109.548 162.056 108.7 161.413 108.313ZM163.352 102.718C161.354 103.89 164.791 108.504 165.408 109.938C165.522 110.204 165.685 110.305 165.933 110.412L165.966 110.517C165.949 110.53 165.931 110.542 165.914 110.555L166.054 110.987C166.106 111.115 166.204 111.353 166.263 111.468C166.774 112.457 169.091 110.578 169.642 110.19L169.557 110.121C169.596 110.092 169.631 110.067 169.66 110.047L168.372 108.995L168.101 108.926L168.058 108.687C167.191 107.093 165.755 104.563 164.713 103.116C164.2 102.867 163.901 102.644 163.352 102.718ZM174.266 106.002C173.389 104.881 169.482 100.37 167.854 101.635C167.177 103.027 170.269 108.069 171.343 108.441L171.488 108.749C171.706 109.06 171.736 109.056 172.044 109.258C172.172 109.271 172.311 109.269 172.458 109.255C172.695 109.231 172.953 109.173 173.221 109.095C173.407 109.04 173.597 108.974 173.788 108.903C174.268 108.725 174.753 108.512 175.181 108.318C175.4 108.219 175.604 108.125 175.785 108.047L175.786 108.046C175.364 107.473 174.94 106.902 174.511 106.334L174.266 106.002ZM177.011 100.123C175.332 101.56 177.584 104.825 178.524 106.19L180.09 104.96C180.592 104.574 181.337 104.03 181.782 103.622C180.653 102.002 179.183 100.019 177.011 100.123Z" fill="#F0F4FF"/>
<path d="M119.348 113.395C110.758 107.857 111.334 106.33 116.627 98.073L117.065 98.221C115.626 100.997 114.624 102.485 114.744 105.624C115.537 106.908 116.471 107.903 117.658 108.839C120.585 111.147 142.522 125.338 145.195 125.93C146.273 126.168 147.462 125.848 148.36 125.24C149.163 124.696 149.726 123.979 150.146 123.112C150.259 123.258 150.486 123.573 150.602 123.692C145.821 130.015 142.957 128.427 137.122 124.864C133.979 122.945 131.085 120.961 128.034 118.923C126.485 117.911 124.922 116.921 123.347 115.953C122.536 115.448 120.217 113.907 119.477 113.692C119.405 113.604 119.39 113.514 119.348 113.395Z" fill="#F0F4FF"/>
<path d="M121.635 86.5734C120.383 87.15 118.257 88.2749 116.885 87.6888C114.005 86.4575 112.444 81.9262 110.9 79.4016C110.016 77.9572 109.936 75.7124 109.725 74.1118C109.41 70.7253 108.589 67.3064 109.858 64.0098C111.556 59.5989 117.192 53.6469 122.464 55.5667C124.951 56.472 126.593 59.3988 126.938 61.9355C126.31 62.5901 125.759 63.1451 125.094 63.7608C124.903 61.7532 124.383 59.6163 122.736 58.3891C119.337 55.8907 115.243 56.488 112.715 59.8755C110.388 62.9936 110.294 66.0789 111.185 69.7708C111.833 72.3604 111.373 74.5788 112.458 77.0859C113.078 78.5193 114.626 80.3435 115.113 81.6249C116.974 86.5277 119.849 86.6788 123.866 83.3157C122.183 87.2928 120.398 92.5319 118.158 96.2129L118.012 95.8292C119.628 92.7489 120.084 89.8597 121.635 86.5734Z" fill="#F0F4FF"/>
<path d="M87.6328 66.9464C89.3626 62.4419 88.8999 61.1469 89.0655 56.5568C89.1717 53.6147 90.2178 49.0781 91.3775 46.3957C91.4307 47.6897 90.5586 48.7287 90.5809 49.7172C91.0767 49.6348 91.5713 48.1651 91.7397 47.6928L92.0265 47.4683C91.4998 50.2645 91.2283 51.8723 91.0518 54.6327C90.7963 58.6256 91.7562 61.3771 89.5827 64.9315C89.1331 65.6667 89.0656 66.8131 88.5016 67.5193C88.5951 66.9555 88.323 66.4774 88.5016 65.9312C88.1633 66.2285 88.1072 66.5565 87.6328 66.9464Z" fill="#F0F4FF"/>
<path d="M87.6328 66.9464C88.1072 66.5565 88.1633 66.2285 88.5016 65.9312C88.323 66.4774 88.5947 66.888 88.5013 67.4518C87.7138 69.1194 84.3826 74.3181 83.6104 75.9715C79.967 83.7711 74.3484 93.4509 65.5638 96.1049C65.3515 95.9109 64.9555 95.7448 64.6797 95.6083C67.0105 94.4661 69.1298 94.0241 71.3475 92.3222C73.0012 91.2086 74.0156 89.6107 75.2639 88.1461C79.2202 83.5037 81.6274 78.0262 84.4038 72.6633C85.3872 70.7636 86.593 68.8688 87.6328 66.9464Z" fill="#F0F4FF"/>
<path d="M153.542 112.116L153.958 112.328C153.551 112.773 153.174 116.237 153.015 117.107C152.533 119.745 152.127 121.423 150.604 123.692C150.489 123.573 150.261 123.258 150.148 123.112C151.793 119.213 150.855 115.03 153.542 112.116Z" fill="#F0F4FF"/>
<path d="M96.4938 35.3847L97.1344 35.9861C94.9241 40.0591 93.1034 42.9265 92.0241 47.4683L91.7373 47.6928C91.5689 48.1652 91.0743 49.6348 90.5785 49.7172C90.5562 48.7287 91.4283 47.6897 91.3751 46.3958C91.6629 44.4452 95.3974 37.2532 96.4938 35.3847Z" fill="#F0F4FF"/>
<path d="M109.328 120.878C111.982 118.29 112.881 117.586 116.265 116.175L116.525 116.961C113.715 119.469 112.348 119.431 109.765 121.175L109.328 120.878Z" fill="#F0F4FF"/>
<path d="M101.586 28.1131L102.093 28.7976C99.9516 31.3208 98.804 33.1608 97.1327 35.9861L96.4922 35.3847C97.9218 32.785 99.6302 30.3468 101.586 28.1131Z" fill="#F0F4FF"/>
<path d="M109.325 120.878L109.762 121.175C108.554 122.407 107.946 122.868 107.106 124.376L106.797 124.59L106.211 124.369C107.225 123.185 108.264 122.021 109.325 120.878Z" fill="#F0F4FF"/>
<path d="M119.266 113.175C119.308 113.293 119.404 113.604 119.476 113.692C119.011 114.618 117.35 116.218 116.525 116.961L116.265 116.175C117.584 115.213 118.24 114.429 119.266 113.175Z" fill="#F0F4FF"/>
<path d="M118.012 95.8292L118.158 96.2129L117.063 98.2211L116.625 98.0731C117.09 97.3758 117.568 96.5517 118.012 95.8292Z" fill="#F0F4FF"/>
<path d="M60.4062 96.0264C60.9786 95.319 61.4151 94.9038 62.0777 94.2697C62.6012 94.5622 64.1934 95.5115 64.6772 95.6086C64.953 95.7451 65.349 95.9112 65.5613 96.1052C66.3954 96.8023 69.027 98.2722 70.0434 98.8682C72.7032 100.403 75.3353 101.986 77.9383 103.615C88.3111 110.14 97.1254 116.173 106.213 124.37L106.798 124.59L107.107 124.376C107.04 124.909 106.956 125.005 107.368 125.519C108.895 127.427 111.165 129.843 111.899 132.201C111.074 133.71 109.685 135.985 109.2 137.576C108.713 139.174 108.871 141.595 108.629 143.337C107.736 149.78 107.42 156.275 106.333 162.694C106.009 164.611 105.866 167.082 105.042 168.845C106.04 169.955 107.397 172.165 108.237 173.462C109.743 175.798 111.267 178.123 112.808 180.436L119.534 190.497C120.582 192.061 122.292 194.417 123.11 195.98C122.179 196.451 121.624 196.632 120.624 196.964C119.452 194.859 117.612 192.271 116.253 190.232L107.7 177.393C105.724 174.464 103.384 171.257 101.658 168.187C100.327 172.925 96.7697 185.994 93.4628 189.487L93.029 189.432C96.0352 183.713 99.4459 173.061 100.83 166.618C100.202 165.448 96.8832 158.793 97.0946 157.878L97.6165 157.619C97.9018 157.258 98.6943 153.941 98.8818 153.153C100.644 145.753 101.337 134.579 97.3281 127.848C98.076 126.869 98.2645 126.554 99.2223 125.781C102.698 134.379 102.575 142.551 100.583 151.51C100.193 153.268 99.6422 155.001 99.2041 156.762C100.331 159.871 102.494 164.433 104.141 167.318C105.354 160.481 106.393 153.615 107.259 146.726C107.495 144.757 107.271 141.256 107.686 139.559C107.927 138.576 109.858 134.875 110.396 133.767C109.126 131.999 108.503 130.812 106.892 129.077C103.249 125.153 98.8194 121.613 94.5484 118.386C87.2284 112.913 79.6446 107.8 71.8245 103.065C69.6423 101.75 67.4351 100.477 65.2039 99.2463C64.1111 98.6459 61.2733 97.2111 60.4525 96.5031L60.4062 96.0264Z" fill="#F0F4FF"/>
<path d="M181.475 133.147L182.27 133.674C181.929 133.96 181.087 134.846 180.77 135.174C177.682 138.37 173.427 142.857 171.27 146.674C169.838 149.207 167.959 154.445 167.516 157.426C167.15 159.89 166.615 162.581 166.376 165.046C165.366 175.389 165.702 185.646 165.622 196.014C164.995 196.819 164.72 197.069 163.943 197.749C164.275 190.524 163.433 182.479 163.872 175.279C164.329 167.775 165.8 155.104 168.361 148.227C169.71 144.602 178.625 135.763 181.475 133.147Z" fill="#F0F4FF"/>
<path d="M131.539 188.462C132.37 186.891 133.515 183.885 134.226 182.17L138.92 170.877C141.278 165.242 143.603 159.594 145.895 153.931C146.795 151.697 148.32 148.29 148.822 146.056C149.393 143.518 147.063 139.976 148.887 137.078C149.933 135.417 150.701 133.819 152.18 132.387C152.102 132.697 150.788 135.028 150.51 135.618C150.083 137.148 149.435 139.945 150.101 141.439L150.306 141.595C151.278 141.367 151.223 139.29 152.039 138.598L152.261 138.661C152.78 139.619 152.147 141.853 151.2 142.372L150.505 142.318C150.429 142.494 150.412 142.445 150.509 142.654C151.08 143.88 150.098 146.255 149.506 147.33C149.332 147.956 148.037 150.86 147.709 151.641L143.635 161.426L137.101 177.243C135.832 180.366 134.578 183.645 133.18 186.711C132.934 187.253 132.021 188.023 131.539 188.462Z" fill="#F0F4FF"/>
<path d="M149.509 147.33C149.377 146.203 150.775 144.055 150.43 143.279C149.435 141.053 149.087 138.23 150.192 135.74L150.513 135.618C150.086 137.148 149.438 139.945 150.103 141.439L150.309 141.595C151.28 141.367 151.226 139.29 152.042 138.598L152.264 138.661C152.782 139.618 152.15 141.853 151.203 142.372L150.507 142.318C150.431 142.494 150.415 142.445 150.512 142.654C151.083 143.88 150.101 146.255 149.509 147.33Z" fill="#F0F4FF"/>
<path d="M161.217 132.364C161.24 132.655 160.981 133.576 160.878 133.904C159.794 137.426 159.292 138.838 160.767 142.371C160.269 142.776 159.691 143.327 159.206 143.763L159.032 143.645C157.552 139.145 158.617 136.073 161.217 132.364Z" fill="#F0F4FF"/>
<path d="M185.493 106.059C185.828 106.274 186.471 107.291 186.58 107.691C186.893 108.838 185.142 110.514 184.116 110.71L183.781 110.219C183.134 109.496 182.892 108.544 182.594 107.632C182.875 107.152 182.996 106.897 183.388 106.49L183.655 106.484C183.892 106.794 183.943 106.865 184.239 107.143C184.835 107.019 185.104 106.563 185.493 106.059Z" fill="#F0F4FF"/>
<path d="M93.0342 189.432L93.4681 189.487C91.6739 192.395 86.124 197.31 83.0859 198.864C84.0639 197.807 85.4357 196.421 86.6146 195.608C89.5574 193.58 91.1261 192.466 93.0342 189.432Z" fill="#F0F4FF"/>
<path d="M182.977 127.763C184.405 125.897 184.977 125.566 187.285 125.147L187.4 126.009L187.182 126.148C186.967 126.192 187.011 126.164 186.828 126.273C185.632 126.983 184.304 127.362 182.977 127.763Z" fill="#F0F4FF"/>
<path d="M181.469 133.147C183.754 130.969 185.458 129.429 187.085 126.664L187.764 127.175C186.76 128.965 183.776 132.289 182.263 133.675L181.469 133.147Z" fill="#F0F4FF"/>
<path d="M60.4579 96.503C59.5961 97.4736 57.0758 99.2673 56 100.145C56.9929 99.0072 59.2159 97.0329 60.4116 96.0263L60.4579 96.503Z" fill="#F0F4FF"/>
</svg>
