<svg width="250" height="179" viewBox="0 0 250 179" fill="none" xmlns="http://www.w3.org/2000/svg">
<path d="M60.0494 21.9719C60.7043 20.59 62.4183 18.6588 63.238 17.3715C67.9165 9.91377 73.902 4.89037 82.2491 2.00287C91.2052 -1.09518 99.1594 -0.275616 108.043 2.26266C116.743 4.74847 123.845 7.84031 130.246 14.4314C131.084 15.2952 131.676 16.7979 132.491 17.7184C134.93 19.5385 136.848 21.2323 137.941 24.2481C138.905 26.9068 138.645 29.3385 137.657 32.0506C138.62 35.6161 138.767 39.5279 139.471 43.1676C139.775 44.7505 140.136 47.3816 139.585 48.8904C138.716 51.271 137.134 53.0429 136.387 55.5315C137.081 55.6274 138.011 55.6637 138.574 55.9919C138.715 56.5665 138.185 56.7462 137.736 57.0054C137.06 56.9736 136.333 56.9531 135.664 56.9003C135.886 58.7927 136.106 60.0362 136.797 61.9631C137.659 64.366 139.424 67.0231 139.847 69.5214C139.929 70.0078 139.417 70.8614 139.161 71.2926C140.967 73.9719 143.223 77.4929 144.698 80.3275C147.113 84.9685 147.292 87.3123 151.063 91.361C152.145 90.8023 153.012 90.3406 154.198 89.9945C156.229 91.3659 158.816 94.3001 160.73 95.9811C161.49 96.6486 162.951 98.7346 163.669 99.6133C165.023 101.244 166.464 102.801 167.983 104.278C170.334 106.532 173.941 108.748 176.415 110.977C178.897 113.212 181.002 115.838 183.56 118.099C188.866 122.78 194.401 126.933 198.964 132.41C202.531 136.509 204.926 141.466 208.18 145.792C209.799 147.943 211.067 150.124 212.525 152.319C215.588 156.932 216.823 161.27 213.342 166.176C212.285 167.665 211.059 169.279 209.591 170.433C205.152 173.717 197.551 175.685 192.219 176.674C179.519 179.067 166.539 179.617 153.682 178.309C150.52 177.983 147.311 177.428 144.154 177.023C137.433 176.163 130.676 175.11 123.94 174.421C121.955 174.228 119.962 174.115 117.966 174.083C116.4 174.043 112.022 174.217 110.821 173.771L110.685 173.57C111.537 172.777 121.949 172.575 123.908 172.738C132.472 173.446 141.159 174.885 149.667 176.011C164.526 177.979 179.609 177.445 194.292 174.432C198.367 173.593 205.73 171.703 208.903 168.926C210.75 167.016 213.667 164.102 213.788 161.355C213.762 160.322 213.777 158.192 213.318 157.297C211.824 154.387 209.957 151.19 207.97 148.572C205.051 144.725 202.695 140.658 199.988 136.679C198.595 134.633 196.836 132.727 195.161 130.915C191.048 126.552 186.286 123.086 181.882 119C179.48 116.934 177.523 114.318 175.127 112.262C172.733 110.208 170.039 108.371 167.68 106.311C164.511 103.545 162.002 100.49 159.507 97.1374C158.76 96.1329 157.165 95.0813 156.307 94.1232C155.357 93.2053 154.626 92.2567 153.754 91.3188C152.386 92.3584 151.013 93.1407 149.656 94.1417C145.852 96.9491 142.423 100.233 139.502 103.955C138.545 105.175 137.953 106.816 137.087 107.975C139.109 109.755 141.01 111.613 142.962 113.462C143.743 114.201 144.856 114.951 145.67 115.708C146.434 116.419 147.185 117.172 147.959 117.861C148.751 118.564 149.903 119.229 150.644 119.976C151.988 121.327 153.237 122.698 154.597 124.043C156.293 125.719 158.251 127.35 159.843 129.098C160.97 130.335 161.879 132.357 162.972 133.698C163.815 134.73 165.115 135.18 165.738 136.271C166.287 137.237 166.426 138.591 166.81 139.644C167.708 140.095 168.232 140.288 168.824 141.122L168.883 141.38L169.303 141.512C169.515 142.244 169.81 142.697 170.289 143.292C170.72 143.396 172.891 143.96 173.179 143.905C173.47 143.982 173.584 144.018 173.887 144.05C174.871 144.456 176.4 144.819 177.469 145.15C178.657 145.517 180.819 147.136 181.874 147.277C185.575 147.764 189.402 147.671 193.087 148.402C195.449 148.858 197.392 149.806 199.507 150.885L199.241 151.141C193.689 149.022 192.46 149.122 186.417 148.618C191.833 150.673 200.574 153.909 203.094 159.492C202.204 158.788 201.398 157.887 200.336 157.068C195.508 153.347 191.176 151.582 185.498 149.594C189.634 152.42 192.986 154.608 195.596 159.106C195.851 159.546 196.51 160.278 196.596 160.73C195.362 159.713 194.2 157.985 192.77 156.797C187.848 152.707 182.183 149.438 176.344 146.855C174.468 146.025 170.309 145.321 168.151 144.916C161.025 143.582 153.389 142.061 146.856 138.805C146.456 138.605 144.224 136.727 143.647 136.294C137.994 136.007 135.629 132.152 131.047 129.581C129.181 128.534 125.497 127.428 123.315 126.611C123.271 126.333 123.273 126.336 123.155 126.081C118.846 123.912 116.899 122.857 111.705 124.36C110.798 124.621 109.423 125.254 108.535 125.238L108.439 125.083C109.114 124.273 110.224 123.78 111.163 123.316C108.28 122.34 105.784 121.743 102.856 120.992C101.12 120.548 99.1975 119.229 97.5445 118.644C96.3462 118.219 94.0053 118.096 92.6247 117.95C92.3028 117.527 92.177 117.52 91.6546 117.376C93.0051 117.438 94.272 117.455 95.5986 117.723C83.238 109.897 67.7756 121.836 54.9995 117.147C52.515 116.235 52.0798 114.128 53.1879 111.868C51.7406 113.212 50.3959 114.023 50.2148 116.072C50.1509 115.85 50.1268 115.564 50.0958 115.328L49.9237 115.243L49.8144 115.25C48.5839 115.937 42.4284 124.616 41.7632 126.152C38.1746 134.442 36.3679 144.634 35.7336 153.618C35.1797 161.464 37.1429 169.502 37.9239 177.3C35.2283 171.447 33.7642 159.971 34.0311 153.433C34.1644 150.166 34.8573 146.293 35.317 143.031C35.8307 139.383 36.6961 136.266 37.5909 132.817C39.3457 126.051 41.6146 122.525 46.1026 117.177C48.2528 114.615 49.8143 112.879 52.5616 110.783C53.6393 109.797 55.755 110.175 56.7704 109.368C65.1 102.744 69.3666 93.8452 70.9689 83.4967C69.1694 84.5639 68.2685 86.3468 67.3183 88.1138L67.0783 87.6869C67.3116 86.7117 68.6285 84.6708 69.4054 84.0171C69.9158 83.5876 70.5442 83.2589 71.1042 82.7285L71.1032 82.5113L70.7749 82.524L70.6563 82.1819C70.1996 81.9358 68.3852 81.734 67.7834 81.5829C61.1895 79.9288 59.3093 74.1861 60.5072 68.2175C56.9087 72.6693 52.5861 72.7201 47.9513 69.8736C47.4387 69.87 46.9262 69.8608 46.4136 69.8464C41.6802 69.7004 38.6774 66.3391 37.7115 61.8462C37.3738 60.2756 37.5025 58.8184 37.5529 57.2312L37.2741 56.6481C37.8182 55.6338 38.5487 54.8989 39.3508 54.0962C30.7831 44.5215 46.9833 31.81 57.5064 39.4762C57.2476 38.3089 56.9553 37.0983 56.7754 35.9198C56.7349 35.7832 56.7005 35.6447 56.6725 35.5049C55.7544 31.0913 57.5394 25.6395 60.0494 21.9719Z" fill="#F0F4FF"/>
<path d="M56.7738 35.9197C56.7333 35.7831 56.6989 35.6446 56.6709 35.5048C55.7529 31.0913 57.5378 25.6394 60.0478 21.9718C60.2326 22.5885 60.2343 22.3373 60.075 22.9291C60.1563 23.6275 59.0608 26.4782 58.7541 27.1952C58.1521 28.6022 57.6879 34.9649 57.2266 35.6043L56.7738 35.9197Z" fill="#F0F4FF"/>
<path d="M60.0763 22.9287C60.1575 23.6272 59.062 26.4779 58.7553 27.1949C58.1533 28.6019 57.6892 34.9646 57.2279 35.6039C56.7349 30.5777 57.9304 27.2428 60.0763 22.9287Z" fill="#25252F"/>
<path d="M58.625 39.5498C57.7156 30.7012 62.1855 20.4672 67.6251 13.6997C74.9311 4.61003 88.0873 -0.179216 99.5575 1.83085C92.5285 2.64219 86.3501 5.32412 80.827 9.72273C78.2257 11.7946 75.2361 14.391 73.4411 17.2348L73.6378 17.3234C73.5803 17.4687 73.469 17.7233 73.4372 17.8644C80.0753 9.93181 88.6552 3.73894 99.3081 2.37997C102.102 2.02886 104.663 2.96712 107.304 3.66462C114.495 5.56408 121.485 8.48327 127.099 13.4837C127.935 14.2274 131.58 17.5141 131.575 18.4687L131.862 18.449C131.966 18.8592 131.945 19.034 131.941 19.463L132.137 18.7381C133.497 18.7084 137.07 24.2815 136.782 25.9713C136.496 27.6404 136.758 29.7536 136.429 31.4459C135.944 34.3314 133.432 37.7814 131.371 39.8841C131.238 40.0192 131.099 40.1495 130.955 40.275C131.582 38.9631 132.32 37.7181 132.936 36.5041C133.872 34.6565 135.034 30.6003 135.248 28.5171L135.161 28.699C134.509 30.0687 134.099 31.6685 133.595 33.1093C130.869 40.9023 124.863 46.8219 116.651 48.436C121.86 48.6492 125.702 46.2928 129.429 42.8517C130.152 42.1842 130.846 41.4859 131.509 40.7586L131.7 41.2135C130.441 42.7298 129.495 43.484 128.161 44.8406L128.126 45.3602C133.751 41.7599 134.447 38.8418 137.131 33.4821C137.812 37.7453 138.004 41.8761 138.756 46.4039C136.829 47.2244 135.832 48.3754 134.436 49.8759C135.929 49.1328 137.081 48.5481 138.647 47.974C137.814 50.8755 134.604 54.4807 134.48 56.927C134.301 60.4703 136.225 63.4896 135.246 67.7092C134.253 66.7807 133.278 65.8657 132.311 64.914C131.6 64.216 130.412 62.7712 129.687 62.2323C125.867 59.3985 122.032 57.1086 117.508 55.7317C116.907 56.1667 116.648 56.3533 116.128 56.878C112.891 55.3924 112.077 53.5802 108.657 53.8314C109.62 51.7111 110.445 50.5561 112.655 49.7183L112.774 49.6741C112.595 51.4806 112.86 52.6472 112.787 54.2753C113.435 52.315 114.764 47.8268 110.732 49.416C110.364 49.5609 109.718 50.1672 109.47 50.4842C108.149 52.1715 107.656 54.2437 106.562 56.1048L105.165 55.0042C105.885 52.3684 106.871 49.4568 109.359 47.9744C110.938 47.034 113.19 46.7349 114.144 48.7334C114.677 49.8478 114.627 51.1907 114.9 52.4108C115.034 51.9025 115.108 51.1681 115.445 50.9559C115.65 51.1372 115.679 51.1532 115.834 51.3747L116.092 51.2253C115.643 50.631 115.518 50.4914 115.421 49.7514C115.319 48.5006 114.631 47.6697 113.872 46.7363C114.832 46.5776 115.788 46.3621 116.726 46.159C119.722 45.5104 125.211 42.3722 126.753 39.7336L126.222 40.0876C126.122 39.8841 126.138 39.9426 126.126 39.8663C123.013 42.7625 119.705 44.8312 115.452 45.7377C113.584 46.1359 113.499 46.2825 111.673 45.9024C111.026 45.7678 106.832 47.5158 106.47 48.0564C106.465 48.397 106.53 48.4388 106.356 48.6189C106.157 49.6025 105.169 51.205 104.856 52.3141C104.716 52.8126 104.552 54.1424 104.293 54.3361C103.611 54.2811 102.862 54.203 102.184 54.2099C100.989 54.9095 100.845 55.1593 100.105 56.3567L100.233 56.5473C100.567 56.9166 100.531 57.9529 100.801 58.5617C101.187 59.4291 101.969 60.6138 102.551 61.3561L102.133 61.511C101.304 60.9582 100.311 60.4903 99.2756 60.7315C98.6913 60.8692 98.1885 61.2398 97.8838 61.7575C95.7079 65.4581 102.455 71.1315 104.323 73.73C106.293 76.4707 108.809 78.614 110.891 81.138C112.825 83.4819 114.353 86.1246 116.389 88.5296C113.422 86.9625 111.875 85.3699 109.489 83.1399C107.999 81.7469 104.571 80.3961 102.54 81.0935C97.7483 82.7391 101.905 85.1267 103.655 87.0861C104.734 88.2945 105.336 90.3206 106.429 91.5686C108.395 93.4455 111.043 94.7592 113.183 96.5456C111.975 96.3327 108.285 95.4847 107.376 96.5053C104.16 100.114 103.136 107.736 102.009 112.391C101.476 114.591 102.436 117.456 102.996 119.301C94.0036 115.539 91.2338 112.302 80.6995 113.629C73.4495 114.543 60.6738 118.962 54.2981 115.066L53.8794 113.39C55.8346 111.413 58.257 109.989 60.2194 108.13C68.5543 100.234 71.2057 92.7669 72.7691 81.7553C74.1213 81.5728 75.9145 81.2923 77.0047 80.4096L77.0084 80.2509C76.8681 80.2486 76.7085 80.2377 76.5733 80.2547L76.374 79.7642L76.3733 79.6887C76.1062 79.3879 74.3195 79.5528 73.7267 79.5627C70.7882 79.6114 68.7934 78.4441 66.3148 77.0963C67.3957 78.144 68.6697 79.3235 70.1587 79.7777C70.7543 79.9594 71.4392 79.9435 71.9285 80.2648L71.7796 80.4111C69.155 81.2291 64.7576 79.02 63.1849 76.8422C61.1006 73.9558 61.1801 70.5683 61.6665 67.227C62.5439 66.3409 63.249 65.4089 63.9893 64.4152L64.1844 64.4619C64.3134 64.274 64.3777 63.8688 64.4348 63.6216C64.6045 62.8568 64.7988 62.9482 64.8568 61.8652L64.864 61.71L64.983 61.6098C65.2197 61.9491 65.7368 63.8805 65.9945 64.4655C67.8295 68.6324 69.6959 70.297 73.5324 72.3829C71.5075 70.6055 69.4661 68.9287 68.0647 66.5855C66.2799 63.6013 64.9701 60.8805 65.6999 57.387C70.8135 63.4718 76.4458 66.0414 84.3391 66.1694C82.8621 65.7918 81.1115 65.5261 79.5945 65.1405C73.0046 63.4653 70.4711 61.2981 65.7945 56.7616L66.081 54.9326L66.0973 54.5893C66.1124 54.0513 66.1188 53.1435 66.3804 52.7363L66.707 52.5519C65.8957 52.3118 65.9213 49.4862 65.6243 48.4423L65.6012 48.2845C65.4105 47.764 64.97 46.7862 65.0642 46.3112L65.053 46.0504L64.8533 46.0662L64.6573 45.854L64.3711 45.5856L64.5358 45.3631C64.2005 44.8597 63.7711 43.887 63.4946 43.3057C65.7625 36.661 69.7295 30.7894 74.214 25.4557C80.8588 17.5522 88.0934 12.635 98.0281 9.76617L97.9207 9.30243C84.3077 12.8774 74.5905 22.0069 67.2161 33.8126C65.528 36.5151 64.0683 39.7905 63.1985 42.8594C61.5869 40.9201 61.0989 40.1696 58.625 39.5498Z" fill="#25252F"/>
<path d="M82.1358 60.6194C90.3789 60.12 95.2644 56.3802 101.516 51.5418C102.743 50.5925 105.128 48.7332 106.468 48.056C106.464 48.3966 106.528 48.4384 106.355 48.6184C105.395 49.1958 103.637 50.6787 102.703 51.4501C99.6126 54.0024 96.5114 56.8044 92.9269 58.6616C90.2389 60.0543 85.0363 61.5484 82.1358 60.6194Z" fill="#F0F4FF"/>
<path d="M91.4629 19.7742L91.5421 19.9921C82.7555 25.1981 76.1326 32.4854 69.4889 40.107C68.2365 41.5438 65.7326 44.3498 64.6538 45.8545L64.3676 45.5861L64.5322 45.3636C66.0458 42.9132 69.4993 39.1994 71.5101 36.9698C77.539 30.2852 83.3855 24.0537 91.4629 19.7742Z" fill="#F0F4FF"/>
<path d="M91.7022 54.0495L92.1363 54.2513C85.9358 57.2121 79.8941 58.1538 73.0658 57.0349C70.4532 56.6068 68.478 56.1622 66.081 54.9326L66.0973 54.5893C75.7786 57.5467 82.0911 57.5117 91.7022 54.0495Z" fill="#F0F4FF"/>
<path d="M69.529 75.3281L69.838 75.1328C72.4884 77.3068 74.0927 77.6949 77.3852 78.2782C80.5445 78.838 82.5358 78.132 85.6204 77.6351C85.302 77.9374 84.7254 78.546 84.3574 78.702L84.06 78.6106C83.8749 78.7542 83.6993 78.9311 83.4915 78.9849C82.8876 78.9222 81.2516 79.2775 80.5545 79.2746C76.0001 79.2556 73.2981 78.6869 69.8164 75.7796L69.529 75.3281Z" fill="#F0F4FF"/>
<path d="M91.6879 37.8364L91.8085 38.051C84.8559 42.5037 75.3892 47.1713 67.2186 48.3718L67.1924 48.0649C74.1731 46.9014 85.6148 41.6071 91.6879 37.8364Z" fill="#F0F4FF"/>
<path d="M131.575 18.4687L131.862 18.449C131.966 18.8592 131.945 19.034 131.941 19.463C131.937 20.2808 131.401 22.3932 131.174 23.2246C129.688 28.6612 127.219 34.119 122.992 37.966C123.764 36.7401 125.084 35.3674 125.987 33.8849C129.08 28.8036 130.474 24.1881 131.575 18.4687Z" fill="#F0F4FF"/>
<path d="M64.4334 63.622C65.3967 68.031 65.4337 70.3108 68.2848 74.2754C68.5683 74.6579 69.0206 75.1606 69.0856 75.597C68.0436 74.7223 67.3789 74.115 66.5842 72.9925C65.1212 70.9256 63.7339 67.003 64.183 64.4622C64.3119 64.2743 64.3762 63.8691 64.4334 63.622Z" fill="#F0F4FF"/>
<path d="M124.671 49.8446C124.828 50.1895 124.706 50.0829 124.976 50.2661C124.394 50.9717 124.09 51.512 123.36 52.1075C120.573 54.3765 118.347 53.9222 116.09 51.2259C115.641 50.6316 115.515 50.492 115.418 49.752C115.817 49.9622 115.932 49.9281 116.084 50.2481L116.015 50.4908C116.815 51.8689 119.668 52.7573 121.186 52.5977C122.434 52.4666 123.936 50.765 124.671 49.8446Z" fill="#25252F"/>
<path d="M66.707 52.5519C71.6852 54.6675 76.2682 55.1051 81.64 54.5268C82.9937 54.381 84.9079 53.7949 86.0656 53.7944C84.9981 54.7694 77.8717 55.2463 76.0844 55.1647C72.7233 54.9925 69.427 54.1673 66.3804 52.7363L66.707 52.5519Z" fill="#F0F4FF"/>
<path d="M128.159 44.8404L128.124 45.36C124.24 47.8106 124.199 50.8844 118.303 51.0959C119.555 50.7341 120.77 50.4994 121.884 49.791C124.078 48.3967 126.147 46.4968 128.159 44.8404Z" fill="#F0F4FF"/>
<path d="M83.4929 78.9857C83.7007 78.9318 83.8763 78.755 84.0613 78.6114L84.3588 78.7028C80.2971 82.3655 79.5872 82.8112 78.1915 88.0668C78.1782 84.0139 80.3332 81.2701 83.4929 78.9857Z" fill="#F0F4FF"/>
<path d="M116.088 50.2475C117.103 51.3064 119.089 52.1296 120.581 52.0991C122.58 52.0581 123.527 50.7121 124.766 49.3632L124.884 49.3964L124.675 49.844C123.94 50.7644 122.438 52.466 121.19 52.5971C119.672 52.7567 116.819 51.8683 116.019 50.4902L116.088 50.2475Z" fill="#F0F4FF"/>
<path d="M97.9207 9.30243C98.9115 9.07906 104.936 7.78502 105.612 8.04387C105.051 8.42263 99.6323 9.23107 98.0281 9.76617L97.9207 9.30243Z" fill="#F0F4FF"/>
<path d="M73.4436 17.2348L73.6403 17.3234C73.5828 17.4687 73.4715 17.7234 73.4397 17.8645C72.0845 19.4012 70.6916 21.9003 69.3787 23.5887C69.693 22.3571 72.5237 18.2811 73.4436 17.2348Z" fill="#F0F4FF"/>
<path d="M100.105 56.3567L100.233 56.5473C99.0787 58.1918 96.7086 60.3487 94.9229 61.2046C97.0416 59.5123 98.2109 58.1466 100.105 56.3567Z" fill="#F0F4FF"/>
<path d="M68.2893 74.2746C68.4938 73.8698 68.3453 73.9784 68.663 73.8218L69.8398 75.1328L69.5308 75.3281L69.8182 75.7795L69.3001 75.8013L69.0901 75.5962C69.0252 75.1599 68.5729 74.6572 68.2893 74.2746Z" fill="#25252F"/>
<path d="M68.6575 73.8218L69.8342 75.1328L69.5252 75.3281C69.1278 74.8917 68.7556 74.4114 68.6575 73.8218Z" fill="#F0F4FF"/>
<path d="M126.124 39.8666C126.817 39.1725 127.657 38.062 128.421 37.2532L128.476 37.2919C128.068 37.9581 127.322 39.2546 126.751 39.7339L126.22 40.088C126.12 39.8844 126.137 39.943 126.124 39.8666Z" fill="#F0F4FF"/>
<path d="M91.6999 54.0493C92.6064 53.6109 93.5207 53.189 94.4423 52.7835L94.5182 52.8334C93.7673 53.4474 92.9904 53.8081 92.1339 54.2511L91.6999 54.0493Z" fill="#F0F4FF"/>
<path d="M93.7973 18.405C93.1394 18.9317 92.2953 19.6535 91.5462 19.9918L91.467 19.7739C91.9896 19.3628 93.1729 18.7301 93.7973 18.405Z" fill="#F0F4FF"/>
<path d="M65.5997 48.2852C65.9277 48.188 66.8114 48.1093 67.191 48.0654L67.2171 48.3722C66.5744 48.4418 66.2719 48.4591 65.6227 48.443L65.5997 48.2852Z" fill="#F0F4FF"/>
<path d="M91.6848 37.8369C92.0305 37.558 92.2188 37.3395 92.6427 37.2917C92.6108 37.6562 92.1141 37.8766 91.8054 38.0515L91.6848 37.8369Z" fill="#25252F"/>
<path d="M127.313 23.0508C127.357 23.4177 127.132 23.8213 126.975 24.1464C126.322 25.49 125.24 26.737 124.343 27.929C122.327 30.609 119.828 32.8678 117.153 34.8745C107.108 42.4089 95.4816 45.0289 83.8643 49.1033C83.8492 48.9331 84.2051 48.778 84.3615 48.7012C88.7341 46.5575 93.4585 45.1798 98.0764 43.6635C109.586 39.8841 120.742 33.5568 127.313 23.0508Z" fill="#F0F4FF"/>
<path d="M95.9461 63.2398C95.9855 63.4751 95.8748 63.7221 95.7679 63.9397C93.7438 68.06 90.2198 70.4225 86.1299 71.9842L86.1102 71.9312C86.2351 71.63 87.3976 70.9993 87.7813 70.7746C91.0008 68.8882 93.602 66.1339 95.9461 63.2398Z" fill="#F0F4FF"/>
<path d="M89.6111 73.7767C89.6352 74.277 88.9635 74.8398 88.632 75.2081C86.4341 77.6502 82.8351 77.8444 79.8474 77.1014C79.7339 77.0039 79.7532 76.9931 79.6791 76.8477C84.4852 77.5075 86.1223 76.356 89.6111 73.7767Z" fill="#F0F4FF"/>
<path d="M86.7941 77.3154L86.8435 77.4252C83.7011 79.9873 83.077 81.5752 82.1398 85.3864L82.0456 85.2772C82.2149 81.5045 83.7328 79.3546 86.7941 77.3154Z" fill="#F0F4FF"/>
<path d="M62.6372 66.7239C62.9446 67.1833 62.6316 67.643 62.601 68.2503C62.4975 70.3055 63.0368 72.0839 63.7674 73.9739C62.2875 72.0342 61.5907 69.006 62.6372 66.7239Z" fill="#F0F4FF"/>
<path d="M103.766 76.2842C104.215 76.9126 104.752 79.2355 104.9 80.0354C104.226 79.5148 103.814 77.1467 103.766 76.2842Z" fill="#F0F4FF"/>
<path d="M104.225 32.2596C103.65 32.6824 103.418 32.8642 102.772 33.1789L102.797 32.9208L102.596 33.2283L102.526 33.1571C102.919 32.6813 103.449 32.446 103.993 32.1472L104.225 32.2596Z" fill="#25252F"/>
<path d="M127.454 74.0134C122.99 71.6743 120.353 66.609 116.358 63.4478C113.616 61.2771 110.143 59.3463 108.016 56.6191C107.652 56.1069 108.163 54.802 109.11 54.6221C110.713 54.2529 112.053 55.6526 113.396 56.4706C116.317 58.2508 119.172 60.2592 122.023 62.1672C126.688 65.2904 127.082 70.584 133.03 72.0509C128.692 69.0303 127.348 66.0558 123.869 62.2795C123.101 61.4449 120.927 60.394 120.059 59.5223C120.093 59.3127 120.046 59.3439 120.156 59.2573C120.497 58.9908 120.579 58.3186 120.667 57.8734C125.582 60.5147 128.931 62.3841 132.394 66.7743C133.422 68.0773 136.182 69.7217 137.325 71.1249C139.627 73.8854 142.447 78.9604 144.105 82.1654C146.686 87.1565 145.759 88.0367 150.275 91.9643C145.454 95.0527 139.954 100.322 137.087 105.282C133.812 102.858 131.908 102.795 128.109 102.095C126.34 101.769 123.683 100.203 122.051 99.8263C117.485 98.7707 115.354 96.8083 111.929 93.8062C111.417 93.3569 108.835 91.9739 108.653 91.5378C108.752 91.0876 108.807 91.04 109.066 90.6438L108.981 90.514C108.558 90.7815 108.341 91.0873 108.016 91.4669C107.259 90.5861 105.353 88.0487 105.132 86.9686C106.312 84.6867 104.939 83.4303 102.976 82.2832L102.69 82.1138C109.191 81.7149 110.733 87.797 116.717 89.6362C117.22 90.5861 118.932 94.0534 119.907 94.1832C120.413 92.2806 113.493 82.3949 111.892 80.5811C109.413 77.7733 106.331 75.1732 104.205 71.8785C103.285 70.4412 98.4935 65.9386 98.6202 64.258L98.8727 64.3529L99.1377 64.1673C98.4254 63.458 98.1872 63.0826 98.6667 62.0197C98.8531 61.6066 99.0757 61.4241 99.5042 61.2883C100.338 61.3316 101.243 62.5177 101.865 63.1683L102.154 62.9157C103.158 63.0109 107.401 67.7999 108.394 68.7149C109.544 69.7742 111.054 71.0247 112.182 72.1157C114.38 74.2427 117.64 78.1359 120.438 79.4166C118.166 74.3096 115.733 72.888 111.879 69.066C110.401 67.6009 109.028 65.858 107.409 64.3508C104.77 61.8938 102.876 60.598 101.2 57.2405C105.543 61.8451 105.822 57.0367 106.186 56.9235C108.018 58.0085 110.288 60.2314 112.107 61.6078C113.491 62.6553 115.586 63.9328 116.838 65.0103C119.632 67.4171 122.081 72.0854 125.486 73.6511C125.92 73.8507 126.958 73.9568 127.454 74.0134Z" fill="#25252F"/>
<path d="M99.1377 64.1673C98.4254 63.458 98.1872 63.0826 98.6667 62.0197C98.8531 61.6066 99.0757 61.4241 99.5042 61.2883C100.338 61.3316 101.243 62.5177 101.865 63.1683C102.148 63.597 102.203 63.6609 102.157 64.1652C101.432 65.412 100.052 64.9368 99.1377 64.1673Z" fill="#25252F"/>
<path d="M102.148 62.9158C103.816 65.0202 100.675 66.612 98.8673 64.353L99.1322 64.1674C100.047 64.9369 101.426 65.4121 102.151 64.1653C102.197 63.661 102.142 63.5971 101.859 63.1684L102.148 62.9158Z" fill="#F0F4FF"/>
<path d="M111.811 55.8C112.047 55.966 112.122 56.2616 112.217 56.52C112.541 57.4093 111.591 57.9347 110.878 58.0626C109.998 58.2204 109.569 57.8718 108.913 57.4266C108.705 57.2901 108.703 57.2724 108.552 57.0834C109.09 56.809 110.44 58.1632 111.582 57.1168C111.853 56.6205 111.804 56.3664 111.811 55.8Z" fill="#F0F4FF"/>
<path d="M115.261 65.9463L115.347 66.0351C115.3 66.345 114.513 67.0575 114.231 67.3486C114.096 67.2226 114.156 67.2942 114.111 67.0644C114.412 66.5393 114.784 66.3073 115.261 65.9463Z" fill="#F0F4FF"/>
<path d="M122.651 64.346L122.737 64.5644C122.318 64.9992 121.905 65.1556 121.365 65.4259L121.241 65.2778C121.567 64.908 122.203 64.6015 122.651 64.346Z" fill="#F0F4FF"/>
<path d="M108.549 97.1205C109.093 97.093 113.982 97.7287 114.304 97.9534C116.75 99.6659 119.683 100.657 122.592 101.592C123.955 102.031 125.843 103.092 127.182 103.43C131.021 104.396 132.979 103.994 136.411 106.517C136.194 107.074 135.726 107.905 135.434 108.46C136.139 109.2 136.95 109.849 137.672 110.571C140.625 113.526 143.882 116.108 146.836 119.047C147.5 119.679 148.423 120.234 149.055 120.877C150.528 122.289 152.03 124.137 153.521 125.489C156.827 128.487 159.504 130.996 161.644 134.972C161.944 135.526 163.501 136.275 163.961 136.922C164.691 137.951 164.589 139.17 165.232 140.23C166.466 141.872 167.035 141.087 168.237 143.121C166.988 142.801 165.616 142.583 164.341 142.352C159.135 141.377 152.577 139.579 147.784 137.264C146.917 136.846 145.537 135.226 144.671 134.843C142.947 134.082 142.004 134.73 140.149 133.678C136.942 131.858 134.465 129.462 131.302 127.668C129.556 126.676 126.926 126.699 125.552 125.928C123.396 124.723 122.043 123.421 119.564 122.469C117.465 121.247 114.132 122.262 112.214 121.725C109.705 121.023 106.93 120.262 104.392 119.605C101.566 114.257 104.644 108.241 105.835 102.829C106.262 100.892 106.912 98.3512 108.549 97.1205Z" fill="#25252F"/>
<path d="M42.2491 51.8356C40.2321 49.58 38.3602 46.6722 40.1039 43.8027C43.4653 38.2718 50.9651 37.3404 56.1849 40.0439C53.6158 39.6445 51.611 39.7637 49.1804 40.8469C47.7569 41.4812 45.786 42.9759 45.2337 44.4733L45.4497 44.939C48.1968 41.0916 54.3829 39.4025 58.3433 42.2106C61.2253 44.2539 62.8688 50.2727 63.4123 53.6842C63.8083 56.1687 63.3438 60.4256 62.4668 62.801C62.7748 62.6932 62.8934 62.5799 63.1502 62.3874C62.9683 63.6474 61.3953 65.6619 60.3783 66.3667C56.6216 68.9701 51.2358 67.3412 48.7304 63.7395C46.8528 61.0403 46.6602 59.6782 46.5734 56.589C49.5989 63.2168 59.5729 65.7776 62.5228 57.9773C57.6287 64.4405 50.9931 62.3754 46.9856 56.1915C49.1746 57.6145 52.6894 58.6167 55.1245 57.2727L55.2164 56.8232C52.6068 57.3887 47.9985 57.7877 47.0918 54.4309L46.676 54.7507C46.6211 55.1887 45.719 56.214 45.3156 56.9244C43.6062 59.9367 44.5608 64.2275 46.43 66.958C46.732 67.3992 47.6851 68.2489 48.1353 68.8498C46.1203 68.9725 44.4913 68.668 42.8263 67.3505C41.4748 66.2813 41.4536 64.6469 41.1313 63.195C41.0119 63.0814 40.9389 62.5162 40.8894 62.2929L40.8295 62.4895L40.6702 62.2191C40.4826 63.0711 40.8211 64.7676 40.9912 65.6765C38.3309 62.0316 37.4754 56.8993 41.2723 53.6958C41.9019 53.6644 42.4225 53.6739 43.0179 53.4628L42.9203 53.3439C41.4634 53.2214 41.2332 53.2416 39.8276 53.6538C38.218 50.5009 38.0525 48.8048 38.8953 45.4886C38.9558 48.9543 39.3582 49.8499 42.2491 51.8356Z" fill="#25252F"/>
<path d="M46.676 54.7507C45.3031 48.94 54.5791 42.7818 59.8685 46.0359C54.1478 44.4728 47.1323 48.128 47.0918 54.4309L46.676 54.7507Z" fill="#F0F4FF"/>
<path d="M40.6715 62.2194C40.828 59.0739 42.2961 56.8379 45.2985 55.8122C42.4297 57.6972 41.1039 59.6478 41.1327 63.1953C41.0133 63.0817 40.9403 62.5166 40.8908 62.2932L40.8308 62.4899L40.6715 62.2194Z" fill="#F0F4FF"/>
<path d="M55.2185 56.8237C55.6891 56.6288 57.6309 55.6463 57.7965 55.6422C57.1126 56.386 56.0632 56.9176 55.1266 57.2731L55.2185 56.8237Z" fill="#F0F4FF"/>
<path d="M45.2337 44.4733L45.4497 44.939C45.0806 45.6202 44.8962 45.9996 44.398 46.5958C44.6817 45.7044 44.8209 45.3044 45.2337 44.4733Z" fill="#F0F4FF"/>
<path d="M54.9049 47.3822C57.0377 47.1831 58.2313 47.2668 60.1533 48.1771C56.1856 47.318 52.8206 47.7181 49.8524 50.6688C48.4468 52.1047 48.3458 52.6425 47.4858 54.4155C48.0828 50.3957 50.9882 48.0498 54.9049 47.3822Z" fill="#F0F4FF"/>
<path d="M44.7313 43.9426C44.8071 44.2851 44.4144 45.1636 44.2683 45.5264C43.1857 48.2181 43.5132 50.3351 45.0461 52.813L44.9104 53.0006C42.2895 50.6244 42.8256 46.5959 44.7313 43.9426Z" fill="#F0F4FF"/>
<path d="M45.8608 57.9544C46.0133 58.3809 46.1767 59.51 46.247 59.9853C46.6457 62.6871 48.5518 65.1576 50.7365 66.7187C53.137 68.434 56.0721 68.4236 58.879 67.9205C58.4373 68.2267 57.9795 68.5091 57.5252 68.7963C50.3922 72.6064 43.9927 65.1807 45.8608 57.9544Z" fill="#25252F"/>
<path d="M102.505 54.8505C103.359 54.8991 105.491 56.5542 105.579 57.4681C105.321 57.9354 104.867 58.1477 104.401 58.4446C102.973 58.8522 99.9123 56.5923 102.505 54.8505Z" fill="#25252F"/>
<path d="M102.553 61.3559C105.818 64.0783 108.738 66.8931 111.602 70.0293C113.318 71.907 116.362 74.1511 117.573 76.3162C114.3 73.2895 111.287 69.9918 107.907 67.0205C105.881 65.2394 104.35 63.2668 102.135 61.5107L102.553 61.3559Z" fill="#25252F"/>
<path d="M59.1009 40.9299C62.2008 42.8651 64.1414 47.0069 64.4565 50.5572L64.4142 51.5907C64.3594 51.6386 64.2619 51.7376 64.2037 51.7582C63.6058 48.5161 62.3381 45.1839 60.3103 42.5482C59.8876 41.9987 59.4897 41.5055 59.1009 40.9299Z" fill="#25252F"/>
<path d="M136.552 64.686C137.015 64.9872 139.353 69.6894 138.465 70.446L136.147 68.5057C136.298 67.2343 136.432 65.9608 136.552 64.686Z" fill="#25252F"/>
<path d="M101.882 82.6815C102.792 82.9856 104.853 84.8549 105.073 85.859C104.938 86.2944 105.058 86.1061 104.645 86.4017C103.46 85.3003 102.313 84.322 101.076 83.2783C101.242 82.9359 101.489 82.895 101.882 82.6815Z" fill="#25252F"/>
<path d="M116.902 56.8875C117.847 57.0757 118.961 57.3174 119.665 57.9709C119.785 58.4873 119.686 58.4902 119.503 59.0416C118.886 58.9414 117.092 57.8503 116.778 57.2652L116.902 56.8875Z" fill="#25252F"/>
<path d="M134.464 37.0588C133.747 38.7527 132.959 39.8553 131.703 41.2136L131.511 40.7586C132.541 39.5618 133.526 38.3277 134.464 37.0588Z" fill="#25252F"/>
<path d="M76.374 79.7642L76.5733 80.2547C75.9757 80.4849 75.0233 80.7104 74.3771 80.8825C73.8495 80.5911 73.2693 80.3568 72.7145 80.1157C74.1479 80.2154 75.081 80.413 76.374 79.7642Z" fill="#25252F"/>
<path d="M134.426 19.9743C135.236 20.4322 136.305 21.5701 136.3 22.549C136.084 22.3628 134.557 20.3088 134.426 19.9743Z" fill="#F0F4FF"/>
<path d="M64.4551 50.5578C64.6206 51.466 64.6611 52.4936 64.4876 53.4015L64.3838 53.3622C64.3039 52.8122 64.2542 52.3109 64.2023 51.7588C64.2605 51.7382 64.3581 51.6392 64.4128 51.5913L64.4551 50.5578Z" fill="#25252F"/>
<path d="M68.7326 121.076C69.6517 120.607 71.5032 120.089 72.5284 119.796C78.7389 118.001 85.1909 117.184 91.6524 117.376C92.1748 117.519 92.3006 117.526 92.6224 117.95L90.4213 117.729C92.3411 118.958 95.3339 121.76 96.5736 122.359C99.7013 123.872 103.144 123.085 106.05 126.42L105.78 126.57C102.211 123.97 100.277 124.222 96.5573 122.858C95.6692 122.533 91.2105 118.739 90.1428 117.797C82.4642 117.65 76.1009 119.518 68.7326 121.076Z" fill="#F0F4FF"/>
<path d="M173.179 143.905C176.575 140.28 182.949 138.121 187.889 137.972C190.749 137.886 192.92 138.307 195.567 139.357C193.804 139.163 192.602 138.831 190.744 138.742C184.681 138.514 178.726 140.39 173.887 144.05C173.584 144.018 173.47 143.982 173.179 143.905Z" fill="#F0F4FF"/>
<path d="M106.05 126.42C106.399 126.335 106.674 126.276 107.029 126.216C106.561 126.709 105.874 127.303 105.494 127.832C103.352 130.811 101.858 134.504 100.619 137.939C100.165 139.197 99.8372 140.586 99.3481 141.775C99.8234 137.547 100.673 134.344 102.81 130.612C103.603 129.226 104.482 127.553 105.78 126.57L106.05 126.42Z" fill="#F0F4FF"/>
<path d="M156.924 95.2301L157.069 95.2936C156.929 95.6268 151.471 99.4991 150.649 100.194C147.188 103.122 144.312 106.315 141.67 109.987L141.565 110.044L141.534 109.876C144.031 104.831 151.875 97.4626 156.924 95.2301Z" fill="#F0F4FF"/>
<path d="M37.2752 56.648L37.554 57.2311C35.0362 62.2185 35.5251 65.4082 37.5981 70.2817C36.522 68.7697 35.7421 67.5912 35.3899 65.7132C34.8405 62.7826 35.6364 59.1162 37.2752 56.648Z" fill="#F0F4FF"/>
<path d="M63.0603 92.2596C63.1814 87.1472 65.4187 83.3078 70.6535 82.1819L70.7721 82.524C65.8755 83.9952 64.1825 87.6869 63.0603 92.2596Z" fill="#F0F4FF"/>
<path d="M168.821 141.122C169.852 137.995 172.887 136.15 175.675 134.669C176.222 134.379 179.339 132.85 179.779 132.85C179.114 134.023 170.259 136.826 169.301 141.512L168.88 141.38L168.821 141.122Z" fill="#F0F4FF"/>
<path d="M49.9272 115.243L50.0993 115.329C50.1303 115.564 50.1544 115.851 50.2183 116.072C51.3138 119.743 54.4971 120.47 57.9283 121.225C58.6052 121.375 59.2582 121.341 59.9664 121.505L60.0476 121.654C59.4785 122.012 58.4809 121.772 57.8417 121.68C54.6231 121.22 49.2411 119.446 49.9272 115.243Z" fill="#F0F4FF"/>
<path d="M174.215 128.431C179.18 126.39 183.606 126.29 188.709 127.844C187.294 127.728 185.957 127.449 184.554 127.283C181.332 126.901 177.494 127.276 174.491 128.598L174.215 128.431Z" fill="#F0F4FF"/>
<path d="M174.491 128.598C174.018 128.794 173.111 129.178 172.63 129.193L172.641 129.033L172.719 128.988L172.701 129.192L172.735 128.977C173.265 128.757 173.656 128.589 174.215 128.431L174.491 128.598Z" fill="#25252F"/>
<path d="M67.0797 87.6871L67.3197 88.114C67.1385 88.6325 67.0296 89.07 66.6936 89.5005C66.5208 89.1152 66.9257 88.0968 67.0797 87.6871Z" fill="#F0F4FF"/>
<path d="M199.507 150.885C200.364 151.34 200.714 151.476 201.42 152.124L199.241 151.141L199.507 150.885Z" fill="#F0F4FF"/>
</svg>
