<svg width="250" height="192" viewBox="0 0 250 192" fill="none" xmlns="http://www.w3.org/2000/svg">
<g clip-path="url(#clip0_3659_10009)">
<path d="M167.913 0.0163574C169.032 -0.0911273 170.159 0.353366 170.968 1.14722C171.331 1.5087 171.636 1.92365 171.875 2.37671C172.135 2.86763 172.457 3.71547 172.658 4.25073C174.02 7.88224 175.71 11.5841 176.712 15.3318C177.525 18.3753 176.531 22.5812 176.756 25.7205C176.82 26.6243 177.271 27.4823 177.455 28.365C177.917 33.7101 177.716 39.07 177.815 44.4236C177.896 48.7879 178.432 53.2398 178.393 57.6042C178.319 65.7741 177.361 73.938 177.498 82.1189C177.514 83.0742 177.5 84.0557 177.611 85.0046C179.59 85.9675 181.088 87.36 179.669 89.6726C177.35 93.4508 174.298 96.9061 171.434 100.28C170.597 101.257 168.763 102.991 168.221 103.902C170.922 102.908 172.359 101.156 174.255 99.1453C175.703 97.6098 177.467 93.2153 180.12 94.4851C183.975 96.3305 181.739 101.683 180.367 104.297C180.116 104.784 179.849 105.265 179.568 105.736C180.407 110.328 180.091 112.505 176.949 115.917C177.272 118.222 177.502 120.214 176.004 122.219C174.565 124.144 172.561 124.719 170.77 125.911C169.38 128.634 168.393 131.687 166.716 134.201C165.66 135.783 163.124 135.686 161.544 136.152C158.494 137.054 156.645 137.423 153.47 136.969C149.467 139.005 146.908 141.58 143.571 144.485C141.532 146.26 139.616 147.581 137.628 149.542C130.687 156.386 124.122 163.708 116.845 170.195C114.766 172.048 111.88 173.819 109.498 175.34C106.428 177.3 103.338 179.229 100.228 181.124C95.8517 183.788 89.662 187.723 85.1797 189.982C83.8808 190.643 82.5302 191.197 81.1416 191.638C76.8037 193 72.2582 191.975 69.2891 188.439L69.29 188.437C68.8817 187.956 68.3837 187.232 68 186.705L69.8496 187.744L69.8486 187.745C76.0171 190.752 78.4658 190.408 84.4277 187.232C87.2882 185.709 90.2457 184.166 93.1045 182.551C98.7154 179.415 104.178 176.019 109.475 172.377C112.144 170.563 114.892 168.73 117.324 166.591C119.493 164.642 121.399 162.385 123.358 160.228C130.604 152.257 138.475 144.872 146.795 138.037C149.43 135.871 153.035 134.809 155.962 133.099C158.996 131.327 161.733 128.921 164.688 127.007C166.838 125.529 175.928 120.922 174.91 117.868C174.349 118.097 171.822 120.121 171.091 120.627L169.885 118.934C171.841 117.683 173.674 116.24 175.372 114.659C176.302 113.794 178.758 108.992 177.89 108.199C177.548 108.299 176.827 109.128 176.547 109.423C174.839 111.22 172.924 112.525 170.857 113.863C170.353 113.351 169.746 112.816 169.21 112.325C171.782 110.171 175.052 107.752 177.407 105.459L175.92 103.116L177.974 104.329C178.537 103.085 179.695 101.131 180.383 99.8337C180.01 99.1711 179.428 98.4078 178.974 97.7771C179.427 98.0516 179.661 98.2531 180.17 98.3123C180.64 98.118 180.454 98.2688 180.738 97.8269C180.809 97.1899 180.421 96.3024 179.825 96.1794C178.15 95.9042 177.438 98.4293 176.712 99.2449C175.832 100.231 174.298 103.332 173.326 103.882C171.645 104.74 170.079 105.823 168.476 106.788C167.606 107.311 164.849 107.163 164.707 106.121C164.345 103.466 168.705 100.845 169.65 99.0427L169.466 98.7312V98.7292C168.507 98.2304 167.605 97.6998 167.843 96.5095C168.136 96.1325 167.953 96.245 168.388 96.1296C169.307 96.4729 169.118 97.6443 169.753 98.4568C171.193 97.5599 174.417 93.1929 175.346 91.6394C174.734 91.0421 173.835 90.6653 173.729 89.8826L173.937 89.6863C174.677 89.8145 174.919 90.7774 175.68 90.658C176.714 90.4947 178.499 87.8024 178.383 86.906C177.054 84.5965 171.713 90.583 170.78 91.489C167.668 94.5228 164.769 97.8164 161.979 101.145C159.925 103.598 158.252 103.852 155.633 105.414C154.014 106.38 152.916 107.646 151.077 108.444C149.105 108.164 147.318 107.604 147.194 105.217C147.105 103.48 148.226 101.685 147.726 100.008C147.542 99.3909 146.315 98.709 145.766 99.1736C144.259 100.451 143.776 102.345 144.864 104.058C144.749 104.292 144.088 104.586 143.797 104.748C142.913 106.194 142.063 109.28 142.101 110.952C142.191 114.921 139.02 116.144 138.505 119.714C138.388 120.528 139.452 121.389 140.005 121.929C136.915 124.45 133.808 126.949 130.686 129.43C125.228 133.767 118.033 139.534 111.617 142.26C110.14 142.887 103.491 144.085 101.471 144.541C94.575 146.095 87.4599 147.387 80.5674 149.002C79.9628 148.391 79.2887 147.559 78.7197 146.891C83.4341 146.063 89.1094 144.84 93.7988 143.832C99.8927 142.523 108.778 141.228 114.107 138.373C118.277 136.139 123.554 131.55 127.336 128.451C126.166 127.602 124.56 126.621 123.321 125.817C122.368 131.657 111.617 121.498 110.076 119.886C107.103 119.264 102.973 118.203 101.791 115.058C103.926 116.369 106.767 117.614 109.062 118.589C105.999 113.325 106.025 107.766 106.997 101.88C107.76 102.593 108.444 103.306 109.167 104.057C108.565 105.6 108.148 107.672 108.304 109.309C108.825 114.785 108.886 117.721 112.921 121.513C111.165 118.093 110.588 116.233 109.835 112.576C110.612 113.418 111.363 114.188 112.121 115.06C112.607 118.817 114.556 123.759 118.095 125.619C118.707 125.941 119.369 126.162 120.024 126.379C117.985 122.578 117.464 120.568 117.892 116.364C119.205 103.473 121.544 99.4129 131.047 91.4187C131.703 91.8398 132.078 92.285 132.817 91.9119C133.362 90.8056 131.646 90.1914 130.602 90.3748C126.057 91.1731 123.552 95.5612 121.099 99.0388C120.408 98.4452 119.803 97.8242 119.161 97.1794C121.199 93.5387 123.373 90.5811 127.234 88.8445C124.363 87.3893 121.316 86.9172 119.878 84.1189C122.403 85.4906 125.68 86.7908 128.332 87.9919C132.208 89.7466 133.94 88.563 134.655 93.699C137.278 95.424 139.913 97.1296 142.562 98.8142C142.663 98.6908 142.766 98.5697 142.874 98.4509C144.787 96.3305 146.135 97.1288 147.854 98.8484C152.45 94.1681 155.54 82.0352 157.214 75.5164C158.758 69.3837 160.167 63.2176 161.439 57.0232C159.777 54.5417 159.022 52.7694 158.018 49.989C157.249 47.8617 156.121 46.1963 155.817 43.825C155.569 41.8869 156.161 39.3975 155.795 37.6033C153.766 37.6276 153.247 38.6264 150.026 38.2341C149.047 39.3282 146.294 40.1224 144.937 39.5115C143.368 38.8048 142.506 37.0613 141.916 35.5486C142.084 35.4072 142.256 35.2715 142.434 35.1423C144.797 33.4094 150.404 30.3576 153.338 29.6443C153.758 29.5423 154.39 29.6339 154.826 29.7009C155.025 25.5436 156.844 25.7097 160.227 27.0623C159.642 26.3382 159.483 26.1072 158.733 25.5457C156.24 25.3186 155.568 25.1564 153.207 24.4285C150.826 25.4284 149.041 25.8316 146.426 25.7117C145.307 24.9886 142.995 22.3574 143.114 21.0212C143.393 20.8037 149.914 18.144 150.576 17.9851C152.503 17.5234 159.757 17.8484 161.73 18.0574C163.219 19.2247 164.506 20.7603 165.739 22.197C165.759 20.1576 165.542 18.1793 165.697 16.158C163.116 14.5418 162.62 13.2624 160.732 11.8611C157.972 10.1084 154.878 9.10688 153.841 5.63647C153.536 4.62083 153.678 3.42525 154.972 3.33472C157.572 3.1527 160.677 5.01874 163.042 6.03101C163.212 6.1038 163.84 6.60249 164.479 7.12183L165.969 8.33765L166.852 8.90894C167.156 9.10598 167.462 9.29955 167.735 9.45776C167.657 9.77192 167.745 9.65146 167.515 9.85522L166.019 8.75269L166.018 8.74976C163.97 7.3289 159.222 5.30509 156.778 5.29761C156.218 5.95199 156.201 6.071 155.866 6.83081C156.345 8.0405 156.957 9.00711 158.227 9.40405C160.339 10.0649 160.931 11.26 162.48 12.6882C164.078 14.1594 166.172 15.3211 167.413 17.199C167.426 19.49 167.384 22.2078 167.834 24.4363C168.483 25.2207 169.207 26.061 169.798 26.8806C170.16 27.3065 170.67 27.828 170.872 28.3259C170.47 28.1383 170.046 27.612 169.727 27.2693C167.388 24.8128 165.185 22.2412 162.787 19.8533C160.815 19.5139 154.775 19.4166 152.678 19.8201C151.155 20.1133 146.998 22.1724 145.257 22.7302C144.893 22.8464 144.769 22.9622 144.659 23.2634C144.923 23.6643 145.182 23.7288 145.684 23.821C148.274 24.2968 149.31 23.6548 151.348 22.2996C154.089 23.8793 154.662 23.7621 157.771 23.7341C162.753 27.2755 161.671 29.3802 164.887 32.6189C161.573 32.4162 157.027 31.4966 153.786 31.8464C152.557 31.9793 143.717 36.734 144.007 37.8816C145.315 38.7568 148.267 36.735 148.552 36.6921C149.499 36.5493 152.818 35.8727 153.615 35.8982C155.379 35.9546 157.774 35.8983 159.014 37.2927C160.719 39.2125 160.452 41.2381 160.393 43.5378C157.421 40.7076 159.315 40.7666 158.437 38.0408C158.054 37.9998 158.217 37.9521 157.922 38.1531C157.913 38.2165 157.879 38.4463 157.88 38.5369C157.914 41.0762 157.538 44.636 157.934 47.0632C158.156 48.4315 159.364 51.243 159.864 52.5847C160.446 53.9147 160.985 55.5429 161.889 56.6863C162.824 57.8697 164.135 58.6136 165.096 59.8113C165.541 62.1422 165.553 68.2682 165.644 70.9822L163.93 69.3708C163.835 67.4217 164.114 60.4441 163.401 59.238L163.188 59.2126C162.614 60.2495 161.718 65.8094 161.357 67.448C159.15 77.4847 156.153 93.0961 149.238 100.885C149.96 102.899 149.236 104.311 149.028 106.505C149.72 106.886 151.834 104.973 152.584 104.434C154.932 102.747 156.774 102.097 159.01 100.163C162.939 96.7635 170.825 85.9456 175.538 84.7126C175.709 80.0862 175.719 75.4571 175.89 70.8542C172.352 69.0549 174.759 65.6082 174.224 62.0974C173.831 59.5301 173.456 58.7783 172.373 56.4529C173.744 57.6448 174.114 57.938 175.018 59.5271C175.723 60.7644 175.053 64.8631 176.057 65.1843C176.273 64.8055 176.32 60.7995 176.309 60.0154C176.228 54.4298 175.944 48.8518 175.832 43.2644C175.73 38.1235 176.024 32.837 175.432 27.7214C175.219 25.8801 174.095 23.5566 173.504 21.6648C172.77 19.3187 172.508 17.869 172.24 15.4304C171.888 12.2225 169.84 11.5475 167.518 9.85522C167.748 9.65158 167.659 9.77157 167.737 9.45776C167.736 9.45718 167.735 9.45639 167.734 9.45581C167.394 7.42752 163.637 0.427933 167.913 0.0163574ZM107.017 147.327C107.541 147.778 108.151 148.386 108.662 148.872C105.779 150.806 102.452 153.371 99.6182 155.441L82.3809 168.031L80.7656 166.728C87.4721 161.915 94.0459 156.874 100.725 152.019C102.833 150.487 104.953 148.917 107.017 147.327ZM166.525 129.069C163.631 131.253 161.601 132.492 158.523 134.407L158.53 134.604C160.929 134.326 163.813 133.831 165.428 131.829C165.831 131.329 166.685 129.699 166.525 129.069ZM132.043 93.821C126.171 98.2965 120.729 107.471 119.858 114.864C119.609 116.988 119.055 124.714 120.944 125.785L121.39 125.657C121.752 124.749 120.477 123.787 121.144 123.47C122.63 123.895 125.819 126.143 127.206 127.086L128.194 127.727C130.469 125.86 133.948 123.178 135.998 121.27C136.069 117.96 136.523 116.581 138.522 113.944C141.579 109.914 140.469 104.248 142.251 99.5066L135.382 95.6248C134.858 95.3297 132.527 93.9852 132.043 93.821ZM166.669 114.693C168.34 115.978 167.324 117.581 165.385 117.478C164.881 117.095 164.534 116.694 164.102 116.237L164.499 116.203C165.875 116.083 166.178 116.044 166.669 114.693ZM162.042 108.929C162.513 109.442 162.859 110.044 163.234 110.634C162.516 111.556 161.819 112.81 160.548 112.741C159.886 112.247 159.622 111.925 159.07 111.312C160.717 110.867 161.518 110.663 162.042 108.929ZM169.151 33.8484C169.607 34.2266 170.243 34.8622 170.692 35.283C170.451 36.3824 170.251 37.2571 169.914 38.3406C169.596 38.1689 168.833 37.324 168.523 37.0056C168.949 35.692 169.095 35.226 169.151 33.8484ZM157.79 27.8416C157.405 28.5807 157.038 29.1389 157.101 29.9773C157.689 31.0405 159.23 30.7051 160.264 30.4666C160.705 30.1474 160.769 30.1329 160.997 29.6609C160.997 28.3174 158.867 27.8718 157.79 27.8416ZM169.64 1.59351C168.979 2.04701 168.109 2.70513 168.019 3.61108C167.84 5.38903 169.013 9.51759 169.966 10.9324C170.263 11.3731 172.174 12.9242 172.645 13.3962C174.457 15.2139 174.077 18.0405 174.618 20.6365L174.787 21.1492C175.325 20.7177 175.41 16.1622 175.258 15.4089C174.743 12.8488 171.511 2.77177 169.64 1.59351Z" fill="#F0F4FF"/>
</g>
<defs>
<clipPath id="clip0_3659_10009">
<rect width="250" height="192" fill="white"/>
</clipPath>
</defs>
</svg>
