<svg width="250" height="177" viewBox="0 0 250 177" fill="none" xmlns="http://www.w3.org/2000/svg">
<path d="M47.91 42.8379C47.8458 43.2047 47.8676 43.2304 47.6339 43.5337C45.0839 45.3359 42.2539 47.5366 39.9702 49.6751L39.5315 49.6599C41.2729 47.8069 45.7154 44.4924 47.91 42.8379Z" fill="#F0F4FF"/>
<path d="M191.684 56.889C194.966 59.7595 198.254 62.8257 201.439 65.8115C207.625 71.6068 220.496 81.1275 209.001 88.9449C208.944 88.8426 208.814 88.615 208.906 88.5023C210.952 85.986 213.346 83.0746 211.914 79.8894C210.747 77.409 208.924 74.7524 206.914 72.8894C203.441 69.6714 199.927 66.065 196.414 62.8894C194.407 61.0754 192.663 59.4981 190.914 57.3894L191.684 56.889Z" fill="#F0F4FF"/>
<path d="M118.355 18.1524C118.858 18.5456 120.372 20.1797 120.864 20.6947L125.882 25.9444L124.295 27.4574C122.465 25.7935 118.495 21.5522 116.781 19.6595L118.355 18.1524Z" fill="#F0F4FF"/>
<path d="M106.07 19.4488C106.891 19.4713 109.162 19.8686 110.084 20.0094C109.62 20.4203 109.022 20.8787 108.531 21.2724C107.928 21.4913 105.429 21.3881 104.664 21.3756L106.07 19.4488Z" fill="#F0F4FF"/>
<path d="M100.375 65.4851C100.943 66.4151 99.3537 70.773 100.763 72.7832C102.428 75.1568 104.087 76.3475 106.176 78.245L104.159 80.1044C103.895 80.0452 103.753 79.9468 103.553 79.7633C98.7041 75.3214 95.5618 71.3552 100.375 65.4851Z" fill="#F0F4FF"/>
<path fill-rule="evenodd" clip-rule="evenodd" d="M74.3165 0.16962C74.8637 -0.0563293 75.6861 -0.0772734 76.1993 0.236026C76.9204 0.644082 76.9378 1.18021 77.6818 1.32685C78.8562 0.980789 79.9085 0.194569 81.1417 0.0914946C82.9604 -0.0600621 99.4533 1.49614 100.458 2.0163C101.407 2.50755 102.167 3.38353 103.174 3.75165C104.606 4.27541 106.147 4.13498 107.528 4.84442C109.217 5.71139 110.806 6.88179 112.372 7.95185C115.339 9.99092 118.266 12.0888 121.148 14.2448C125.576 17.5825 129.249 21.6187 134.085 24.3991C136.727 25.9184 139.825 25.5489 142.221 26.8288C149.007 30.4466 155.044 34.6354 162.427 37.1237C165.933 38.3059 169.887 40.5854 173.373 41.6032C188.262 45.9491 200.516 56.1389 212.881 65.0612C215.658 67.0638 219.024 68.8331 221.433 71.3835C226.491 76.8091 227.96 83.3301 223.77 89.7458C214.403 104.084 196.616 117.177 181.414 124.712C177.33 134.219 162.969 139.149 154.388 143.489C153.009 144.186 149.379 147.338 148.709 147.418C143.591 148.026 140.686 149.419 136.439 152.59L136.174 152.368C137.017 151.636 138.019 151.048 138.914 150.328C139.469 150.1 139.389 149.425 139.44 149.362C142.483 145.651 142.955 139.278 143.256 134.621L145.158 133.674C144.67 138.485 143.252 144.561 140.826 148.782C142.516 147.903 144.206 146.765 145.995 146.171C147.21 145.766 148.778 145.813 149.991 145.257C151.835 144.412 153.622 142.436 155.35 141.523C158.48 139.885 161.79 138.297 164.991 136.845C166.157 136.317 170.886 134.346 171.415 133.389C173.318 129.946 173.281 121.161 172.636 117.634L173.702 116.409C174.111 121.297 173.962 128.163 172.636 132.912C174.717 131.634 178.023 129.669 178.915 127.389C179.494 125.903 180.307 123.964 180.415 122.389C181.749 102.922 168.679 88.5337 151.415 81.8893C150.347 82.5726 147.864 84.2829 146.916 85.112C153.608 88.6568 159.51 96.7006 163.615 102.894C163.155 103.582 163.397 102.711 162.915 103.389C160.358 99.5374 155.915 92.3893 150.915 88.8893C145.915 85.3894 144.415 86.8894 147.915 89.8893C151.415 92.8893 158.829 102.709 160.634 106.242L159.915 107.889C159.392 106.974 158.422 104.925 157.915 103.889C156.972 101.986 155.517 100.19 154.388 98.3893C151.163 93.2365 147.039 89.2017 140.886 87.779C144.677 90.1865 145.967 90.3718 149.008 94.3122C148.384 95.0363 148.564 94.176 147.915 94.8893C140.447 84.8314 132.525 86.9115 122.073 91.5104C122.459 91.7138 122.843 91.9197 123.226 92.1276C134.295 98.1699 138.971 108.082 142.353 119.637C141.538 120.709 140.755 116.574 139.915 117.634C137.642 108.291 133.256 102.398 125.915 95.8893C123.111 93.4032 119.866 93.0144 116.272 92.3288C122.449 95.1275 125.442 97.7024 128.81 103.703L127.415 103.889C123.946 99.0144 120.989 96.5376 115.415 93.8708C109.708 91.0879 102.484 91.4555 96.4874 93.5485C97.7433 94.391 100.274 95.725 101.682 96.5417L99.4152 97.3893C85.1714 89.304 72.3161 84.0176 55.4152 85.3893C50.3443 85.8009 47.3579 86.3798 42.4152 86.8893C45.9151 84.7996 44.123 85.7023 48.7111 84.7995C55.9072 77.0055 47.3832 72.2158 40.4152 71.8893L40.8478 70.7302C44.2599 70.9964 46.0451 71.7554 49.1056 73.071C47.7861 72.1024 46.6976 71.457 45.2804 70.6677C45.8437 70.2587 46.4436 69.7787 47.0011 69.3513C49.2288 70.1745 51.4829 70.0734 53.4152 71.3893C49.6124 66.4894 36.7961 65.0742 30.9152 64.8893C30.4951 65.4506 29.8941 66.8758 29.4152 67.3893C30.2524 67.4052 34.2754 67.7871 35.1144 67.8727C34.4463 68.5565 34.1247 68.7321 33.4152 69.3893C30.9383 69.5342 27.3249 68.5524 25.4152 69.8893C24.7242 70.3731 24.2148 71.8456 23.6544 72.3112C23.1625 72.2175 23.2588 72.3138 23.0001 72.0085C22.9816 70.849 25.2222 69.253 26.1427 68.7067C26.5804 67.4989 26.5996 67.5805 27.5948 66.7712C28.613 65.9432 29.4879 64.1767 30.7472 63.7761C30.974 63.2833 30.6945 61.7912 30.7989 61.2907C31.7155 56.9066 36.3525 52.3325 39.5315 49.6599L39.9702 49.6751C35.9498 53.6871 31.8647 57.7554 33.1456 63.8747C40.5018 64.1006 47.8579 64.7632 53.7032 69.57C53.6768 67.9483 53.7861 66.0632 53.8448 64.4225C49.0448 61.1977 43.5204 59.2028 37.7618 58.6159L39.9298 56.8972C45.2885 57.9315 49.0362 59.133 53.839 61.6325C53.7771 57.8764 53.8487 54.2764 52.8722 50.6227C52.8282 50.5328 52.645 49.6887 52.6017 49.652C51.5549 48.7689 50.3187 47.8391 50.5792 46.2897C50.6915 45.6223 51.1598 45.3563 51.6632 44.9831C51.379 43.7108 51.1167 42.5953 50.9503 41.2985C49.848 41.9762 48.7061 42.7958 47.6339 43.5337C47.8093 43.3061 47.8403 43.2347 47.8722 43.0583L47.91 42.8379L48.2716 42.5241C49.1275 41.8071 50.062 41.1828 50.8624 40.4606C49.6979 33.2905 50.9216 25.7596 55.2384 19.7849C55.5981 19.2898 55.9637 18.7985 56.3351 18.3122C53.4955 14.4312 59.1236 8.68457 62.6984 7.51728C63.1554 7.36797 65.6855 7.52098 65.6778 7.56122C66.0796 7.01773 66.345 6.13586 66.7911 5.60419C67.2585 5.04762 67.7762 4.64131 68.3107 4.15985C70.1696 2.70798 72.1217 1.07618 74.3165 0.16962ZM82.4816 2.52314C82.1002 2.12527 80.4307 2.30775 79.8068 2.33075C78.2487 3.0169 78.1181 3.2637 78.2804 4.987C88.9612 6.64799 92.942 7.38786 102.174 13.6267C101.462 14.1688 100.684 14.7912 99.965 15.3073C97.3136 13.7552 93.0903 11.2101 90.2921 10.1833C89.0592 11.1794 87.8707 12.2342 86.4845 13.0075C87.096 11.5974 87.9212 10.6851 88.6212 9.42255C85.7677 8.45004 82.8278 7.74875 79.8419 7.32685C79.3597 7.74853 78.9889 8.15163 78.3566 8.27216L78.2091 8.14032C78.4033 7.65236 78.5999 7.5434 79.0079 7.18036C77.3688 6.8927 74.9768 6.36778 74.2892 8.51923C74.5692 10.6764 78.9522 10.5282 80.1886 11.2429C83.0831 12.9161 83.9672 13.438 87.3595 14.027C88.8959 16.0961 90.265 17.1866 92.5362 18.4177C93.273 18.8171 94.1613 19.3495 94.8292 19.8679C96.991 22.0665 98.486 23.7726 101.1 25.5651C101.33 28.3778 102.239 29.379 104.52 30.9372C103.744 31.5331 102.963 32.1224 102.177 32.7048C102.295 33.9573 102.459 35.0201 101.555 36.0759C100.252 37.5966 97.0368 37.8639 95.1505 37.9616C95.0286 37.9676 94.9063 37.9717 94.7843 37.9743C94.3121 40.4469 94.1357 41.797 91.7823 43.153C91.6607 42.3559 91.5147 41.5059 91.4122 40.7116C92.2094 39.5053 92.5021 38.8893 92.9611 37.5163C89.9681 36.7055 87.7427 36.9037 84.6964 36.9606C87.8928 38.4571 87.6021 40.5191 86.6739 43.4811C89.792 43.6232 92.9826 43.5934 96.1085 43.5368C99.4596 43.4761 101.261 43.7791 104.366 44.9675C104.923 44.2308 105.93 42.7781 106.618 42.3083L106.86 42.3513C107.186 43.13 106.816 44.3755 106.635 45.2321C108.695 45.2381 110.755 45.2565 112.815 45.2868C115.421 45.3485 118.645 45.8747 121.089 44.9811C122.615 44.4233 123.808 44.5816 125.417 43.8893C132.64 45.6148 138.892 51.5186 144.917 55.8893C148.792 58.7003 158.671 63.4187 160.917 67.3893C163.367 71.7193 165.554 74.4428 168.417 78.3893C171.896 78.3746 180.755 78.3261 183.84 77.4899C182.46 78.825 180.607 78.9732 178.917 79.8893C172.242 78.8976 162.59 79.3074 156.395 82.5817C159.926 84.3914 161.961 85.5502 165.165 87.904C176.641 96.8968 182.665 107.917 181.108 122.705C185.816 120.748 190.356 118.408 194.681 115.71C204.198 109.787 218.139 98.6409 222.891 88.0427C224.324 84.8468 225.262 82.1468 223.917 78.8893C222.971 76.5423 221.265 73.6249 219.417 71.8893C216.93 69.554 214.18 67.8549 211.417 65.8893C202.175 59.3172 194.469 52.7093 184.417 47.3893C181.255 45.716 175.326 43.6363 171.917 42.3893C166.374 40.3254 161.32 38.2941 155.917 35.8893C150.228 33.2908 143.596 28.3127 137.917 26.8893C127.747 24.3406 122.679 16.4348 114.417 11.3893C114.838 12.2033 114.385 13.9353 114.839 14.697C114.225 15.4762 113.61 16.2758 112.963 17.027C112.174 15.1044 111.4 13.1751 110.643 11.2399C109.774 11.1315 109.453 11.0678 108.614 10.822C108.138 11.2367 107.763 11.5815 107.226 11.9255C103.406 11.186 97.3575 6.27623 93.6896 4.0329C92.8109 4.66722 92.0385 5.38158 90.9435 5.35712C90.7538 4.81626 91.2899 4.48279 91.6837 4.1706L92.5577 3.46942C89.7177 3.16515 86.3523 2.68261 83.5548 2.51825C83.0515 2.88018 82.6341 3.33828 82.1378 3.30829L82.0255 3.11103C82.2079 2.81054 82.239 2.78155 82.4816 2.52314ZM123.844 44.6911C121.413 46.4546 120.866 46.695 117.974 47.5056C114.984 53.6145 119.719 54.058 117.691 59.7448C115.531 65.7995 115.452 71.7578 114.947 78.069C114.685 81.1695 112.622 85.3619 109.434 86.3493C105.534 87.6093 100.906 86.4024 97.1652 85.1569C96.6928 87.3628 96.1783 90.3716 95.6564 92.444C100.249 90.3744 105.717 89.9016 110.658 90.8386C113.897 89.2695 116.494 89.6233 119.885 90.696C123.459 89.1941 126.875 87.7424 130.734 87.1159C131.291 87.0557 133.862 86.803 134.192 86.6891C137.767 85.4533 137.521 85.1843 141.277 85.404C142.408 84.6295 143.483 84.2838 144.888 84.5339C145.406 84.6288 145.922 84.7465 146.43 84.8874C147.965 83.5001 149.368 82.1047 150.834 80.6491C152.217 80.9401 153.283 81.3316 154.615 81.7907C159.334 79.6698 161.602 79.2242 166.733 78.4401C164.996 76.2859 163.646 74.2074 162.163 71.8854C161.358 70.6239 159.959 67.827 158.981 66.9206C155.545 63.7372 150.927 61.2414 147.045 58.57C145.062 57.2047 143.324 55.7537 141.448 54.3884C136.557 50.8254 129.784 46.1638 123.844 44.6911ZM96.9142 45.6706C96.7849 50.6276 96.9722 54.7859 99.6427 59.1882C100.279 60.2367 100.898 61.5702 102.153 61.9743L102.405 61.9069C102.7 61.0937 102.142 60.3906 101.655 59.7663C102.325 59.1318 103.092 58.3673 103.777 57.7692C105.118 61.269 103.913 63.1776 100.638 64.7038C96.8539 61.9592 95.9143 57.5581 95.1739 53.1872C94.0284 58.1391 92.7425 64.446 91.4083 69.2575C81.0282 65.169 66.6785 62.931 55.8624 66.5182C55.4234 73.7662 54.3534 78.5757 50.2579 84.6227C52.4663 84.3428 54.9419 84.0344 57.1671 83.9479C66.717 83.1799 77.0176 85.3327 85.9044 88.7556C88.4548 89.738 91.8381 91.5056 94.045 92.2897C94.4446 89.1753 95.6372 82.5823 98.2159 80.6227C98.5173 80.3938 98.3902 80.4411 98.7169 80.444C98.8665 80.9964 98.7085 81.3184 98.4298 81.8073C98.2442 82.1286 98.0536 82.4472 97.8575 82.7624C101.332 83.8568 104.936 84.9656 108.62 84.9411C110.516 84.9285 111.886 84.0458 112.346 82.1481C113.224 78.5229 113.231 74.7319 113.504 71.0261C113.646 69.2893 113.887 67.5615 114.227 65.8522C112.347 64.9559 111.165 63.9092 110.501 61.862C109.023 57.3032 110.042 51.8204 110.068 47.0339C107.419 47.0797 105.238 47.5415 102.612 47.2009C101.831 48.3553 101.379 48.8312 100.24 49.6413L101.293 46.5153C99.5932 46.0029 98.6794 45.8646 96.9142 45.6706ZM70.9259 7.37274C63.0194 11.8821 56.321 17.1138 53.6603 26.3229C50.8405 36.0834 54.704 44.7161 55.7159 54.3356C56.0209 57.2353 56.0638 62.3758 55.9386 65.2897C58.1826 64.6957 59.9932 64.2532 62.295 63.9499C70.9952 62.8035 82.3193 64.6261 90.5021 67.736C90.9779 65.6829 91.4713 63.2761 92.0216 61.2692C92.9283 57.4012 94.0647 53.1046 94.6788 49.2087C94.7902 48.5025 94.6655 46.345 94.6271 45.5397C90.1717 45.563 82.8259 46.2052 79.1886 43.2028C77.2283 41.5847 78.9528 39.7383 80.3995 38.3767C83.0265 35.904 87.041 34.415 90.6818 34.4782C93.9637 34.7977 96.3102 36.3953 100.171 35.0925C100.041 33.6155 99.4515 29.3016 98.9894 28.0007C96.6242 26.1993 95.3478 24.4825 93.3956 22.3151C92.6642 21.503 90.743 20.9233 89.8771 20.1735C88.1583 18.9088 86.8891 17.3485 85.3634 15.9665C81.8879 15.2793 81.449 14.7145 78.3556 13.2741C75.3619 11.88 72.4767 12.6405 70.7501 8.9704L71.1212 7.54462L71.0196 7.38837L70.9259 7.37274ZM111.545 47.0309C110.831 52.3869 109.549 60.9561 114.436 64.6247L115.02 62.6032C115.829 59.9135 116.407 58.3247 115.641 55.53C114.657 51.94 114.729 50.5221 116.793 47.4333C115.145 47.2684 113.17 47.0208 111.545 47.0309ZM81.5655 38.4001C78.9354 41.416 82.1101 42.4685 84.6886 43.0222C84.9423 42.9072 84.9836 42.9704 85.0548 42.6852C85.6976 40.1095 84.4299 39.1234 82.17 38.5368C81.97 38.4852 81.7683 38.4396 81.5655 38.4001ZM61.7609 9.1706C60.7052 9.47355 60.1131 9.82583 59.3097 10.5964C58.5187 11.3551 56.7393 13.8568 58.0216 14.7233C58.7046 14.742 59.156 14.3753 59.714 13.9684L59.8077 13.9206C60.3928 13.6262 60.8906 13.6159 61.4171 13.1872C62.0381 12.6816 63.6239 11.8749 63.9474 11.1608C64.7394 9.41176 62.8032 9.13323 61.7609 9.1706ZM75.2745 4.82782C75.3395 3.40953 75.5195 1.7567 73.4952 2.02021C72.273 2.57848 72.3141 2.91355 71.2872 3.77509C70.9095 3.62797 70.3825 3.44402 70.007 3.70087C68.482 4.74456 65.5355 6.6805 66.7862 8.87372C67.1906 8.98712 67.0678 8.94447 67.5724 8.67157C69.9162 7.09624 72.4535 5.16582 75.2745 4.82782Z" fill="#F0F4FF"/>
<path d="M133.151 155.243C132.141 156.383 131.698 158.068 131.071 159.464C128.558 165.065 125.621 170.919 121.205 175.288C120.761 175.726 119.945 176.704 119.328 176.369C119.353 176.251 119.377 176.133 119.401 176.017C120.628 174.82 121.857 173.497 122.853 172.14C125.366 168.72 127.503 164.61 129.183 160.738C129.887 159.114 131.466 155.185 131.673 153.499C132.24 148.826 132.173 144.014 133.854 139.54C134.127 138.812 135.155 136.642 136.128 137.081C136.163 137.638 135.221 139.558 135.06 140.484C134.494 143.757 134.413 147.082 133.997 150.375C133.885 151.264 132.976 154.095 133.141 154.708C133.064 155.099 133.021 154.936 133.151 155.243Z" fill="#F0F4FF"/>
<path d="M177.604 111.767L177.778 112.005C177.992 114.91 177.864 124.845 176.156 127.706C175.981 127.998 175.327 127.981 174.922 128.023C175.052 127.184 175.889 125.766 176.022 124.743C176.513 120.95 176.206 116.745 175.92 112.959C176.472 112.541 177.034 112.159 177.604 111.767Z" fill="#F0F4FF"/>
<path d="M136.169 152.368L136.434 152.589C135.324 153.461 134.214 154.319 133.146 155.243C133.016 154.936 133.058 155.099 133.136 154.708C133.903 154.204 135.39 152.977 136.169 152.368Z" fill="#F0F4FF"/>
</svg>
