<svg width="250" height="160" viewBox="0 0 250 160" fill="none" xmlns="http://www.w3.org/2000/svg">
<path fill-rule="evenodd" clip-rule="evenodd" d="M45.3027 11.0616C57.2603 7.47846 72.342 5.72641 84.6211 8.0587C88.7766 8.84844 92.8038 10.1997 96.5908 12.0743C103.167 15.292 110.067 20.3534 114.08 26.5929C115.268 28.4398 116.03 30.7122 117.146 32.6036C119.214 31.6762 119.684 31.8336 121.663 31.5724C123.393 31.344 131.424 32.3792 132.244 31.7315C132.456 31.1621 132.435 31.4021 132.345 30.8175C130.51 27.9386 120.809 28.4595 121.972 22.3761C122.203 21.171 123.258 20.1636 124.262 19.5548C127.193 17.7755 130.127 18.6475 133.039 19.9503C134.456 16.2237 137.619 12.4388 141.233 10.6202C143.688 9.38467 148.017 10.3404 147.533 13.7726C147.301 15.3706 146.554 16.8741 146.158 18.4366C145.686 20.7087 145.439 23.5215 145.299 25.838C146.271 27.2201 149.736 32.1174 150.758 32.8614C155.911 36.6081 154.485 36.8286 155.925 42.5245C157.204 47.5841 159.638 53.6387 161.693 58.4786C162.392 60.0524 162.406 62.0934 163.237 63.7081C164.424 66.0136 166.348 68.0951 167.996 70.1261C171.278 74.1777 174.643 78.1617 178.088 82.0753C181.977 86.4983 185.877 91.0017 189.977 95.2188C197.163 102.609 205.091 109.367 211.475 117.481C212.357 118.602 213.249 119.72 214.127 120.847C218.044 125.866 221.8 131.01 225.385 136.272C227.979 140.096 232.597 147.165 234.113 151.397L232.423 153.495C231.353 151.578 230.387 149.586 229.347 147.651C222.633 135.157 213.641 124.022 204.22 113.45C199.49 108.145 193.677 103.218 188.648 98.0958C182.041 91.247 175.775 84.0823 169.871 76.6271C167.511 73.6923 165.042 70.763 162.825 67.7208C160.653 64.7406 155.413 49.9195 154.467 46.1554C153.911 43.9464 153.732 40.2141 152.757 38.3331C151.816 36.5209 148.709 34.5424 147.147 32.9962C146.27 32.1288 145.561 31.0686 144.836 30.0763L144.692 30.1085C144.21 31.8012 145.179 36.6186 146.113 38.1349C147.11 39.7505 147.885 40.3235 149.396 41.4034C148.066 42.0452 146.626 42.4589 145.22 42.9161C143.107 37.2066 142.874 35.0381 142.449 28.9728L143.486 28.1398C143.654 27.1994 143.715 26.7229 143.749 25.7706C142.447 26.4573 141.55 26.6924 140.122 27.0655C140.871 27.234 141.708 27.4027 142.441 27.6085L140.543 29.1876C138.581 28.5973 137.624 27.9933 136.029 26.6905C136.463 26.2246 136.947 25.7275 137.364 25.255C137.822 25.6285 138.367 26.0499 138.802 26.4366C139.373 25.8954 140.006 25.2672 140.59 24.754L143.706 24.8302C143.781 22.0058 144.526 20.8106 144.688 18.6358C144.508 18.68 144.47 18.6471 144.358 18.8067C143.255 20.384 140.307 19.9097 139.081 18.7218C137.198 16.8975 138.457 14.5543 139.771 12.9884C139.533 14.15 139.038 15.6387 139.707 16.712C140.478 17.9504 142.588 18.6755 143.852 17.7892C145.176 16.8584 145.399 13.8578 144.481 12.5929C144.008 11.9706 143.001 11.8246 142.258 11.7745C140.415 11.6507 139.272 12.2327 137.875 13.3302C132.04 17.8932 135.524 25.794 133.846 32.0011C133.447 33.475 132.933 35.2164 132.175 36.5646C129.848 40.711 129.128 42.0022 129.52 46.8595C129.52 47.211 129.475 47.2112 129.475 47.4132C130.347 56.452 132.494 62.8014 138.414 69.796C137.859 70.2476 137.087 70.8349 136.573 71.3058L135.217 69.4962L133.665 70.9649C135.228 76.5211 137.185 79.1239 142.294 81.9845L143.078 82.419C142.874 81.834 142.644 81.11 142.413 80.5489L143.443 79.169L145.217 80.9063L144.442 77.7413C145.1 77.1664 145.762 76.5946 146.425 76.0274C151.39 88.513 156.664 100.875 162.244 113.102C163.898 116.777 165.572 120.442 167.266 124.1C168.032 125.76 169.13 128.331 169.973 129.876C168.844 123.541 167.664 117.215 166.431 110.899C165.479 106.014 164.5 100.925 163.267 96.1095C163.759 95.5467 164.274 94.9333 164.779 94.3878C167.283 106.514 169.573 118.684 171.646 130.891C172.645 136.954 174.179 146.284 174.146 152.304C173.626 152.759 173.154 153.187 172.59 153.589C172.923 150.004 172.122 142.664 171.103 139.079C170.503 136.968 169.116 133.761 168.225 131.684L163.769 121.481L148.624 87.8116C146.556 87.6197 146.316 87.1663 145.281 85.5245C141.032 84.9816 137.849 82.4527 135.303 79.1778C134.409 78.0369 133.645 76.8 133.026 75.4903C132.706 74.8011 132.164 73.2166 131.804 72.4532C131.7 72.4377 131.598 72.4219 131.495 72.4063C130.895 73.0207 130.948 75.7873 131.325 76.1993C134.964 80.1673 132.71 82.2457 127.488 85.3409C129.84 86.3766 132.606 88.0988 131.083 91.1515C130.114 93.0952 128.122 93.6714 126.414 94.7071C127.183 98.0409 128.06 99.941 128.392 103.479C129.052 110.548 123.801 114.876 116.922 113.829C106.279 112.209 95.84 110.13 85.0811 109.298C83.1109 109.142 80.6423 108.605 78.9717 107.604C74.3486 104.726 77.5365 97.9427 77.8838 93.7696C78.1037 91.1274 77.8372 88.2706 77.8184 85.6095C75.5313 87.0034 73.3388 87.7358 70.626 87.0353C66.8314 86.0552 59.5544 80.7143 56.8418 77.9835C55.8311 76.9685 54.9476 75.8354 54.2109 74.6095C50.06 67.7226 50.2276 58.2806 57.8789 53.5177C62.6589 50.542 66.8059 52.3418 70.4922 56.0851C69.7374 56.676 69.1738 57.1023 68.499 57.794C66.4081 55.9944 63.7791 54.0348 60.8184 54.3614C55.6762 54.9288 52.9235 58.4954 53.623 63.586C54.4384 69.5185 56.6089 75.3129 61.6709 78.9874C65.0524 81.4419 70.0143 85.77 74.502 85.6905C75.9788 85.5825 77.2325 84.7871 78.2275 83.7999C77.8529 82.6673 77.4615 81.8764 76.9492 80.8058C77.6083 80.2341 78.3565 79.5492 79.0244 79.0079C79.333 79.6576 79.5785 80.2684 79.6904 80.9815C80.058 83.3247 80.0513 91.9806 79.6504 94.2218C79.3749 95.7623 78.7364 97.2331 78.3867 98.7579C77.4979 102.635 79.4357 105.074 83.0625 106.361C88.3147 108.225 93.9322 108.042 99.3818 108.769C104.681 109.475 120.753 113.147 125.029 111.108C125.75 110.764 126.177 110.172 126.426 109.433C127.293 106.844 126.122 101.282 125.479 98.587C125.242 97.5937 124.567 96.1908 124.739 95.1817C125.05 93.3791 131.104 92.4399 129.783 89.8038C129.125 88.4911 126.598 87.5515 125.258 87.171C125.142 87.1379 125.024 87.1058 124.906 87.0753C126.591 85.4007 128.598 84.1534 130.306 82.4679C132.43 80.3718 130.404 79.1361 129.465 77.1427C128.154 77.6761 123.233 79.4919 122.488 80.1466C120.263 82.1052 117.382 85.7161 115.326 87.9776C105.207 86.4632 97.0616 81.4729 90.9697 73.2901C86.9321 67.8667 84.2259 61.6623 82.4229 55.1808C82.099 54.0169 81.453 51.7073 81.6602 50.5743C81.8616 49.4726 82.5072 47.6658 82.8779 46.547L85.2119 39.5284L75.1416 25.7296C86.5064 21.0963 95.1268 20.8999 107.218 22.298C97.2802 13.2435 84.1603 8.43174 70.6865 8.89952C60.7428 9.31225 49.0518 10.5986 39.8643 14.7569C38.1842 15.5173 33.2804 20.0993 32.3398 21.5685C29.9214 23.7053 28.747 25.418 27.2344 28.1124C22.3529 36.8079 22.3151 44.2892 22.6406 53.9523C22.758 57.4359 23.0484 61.9371 23.9482 65.3282C24.3252 66.749 26.3168 68.8921 27.2676 70.1476C28.1749 71.3369 28.9643 72.611 29.623 73.9522C34.1912 83.2418 34.7512 92.1294 32.4121 102.092C31.3487 106.621 30.1236 110.414 27.7598 114.463C41.4854 117.642 59.3822 123.93 71.9307 130.007C73.697 122.387 74.0468 115.677 75.1758 108.237C75.7011 107.849 76.235 107.445 76.7646 107.065C76.5789 114.191 74.8789 123.519 73.0557 130.542C77.4154 132.635 81.6736 134.929 85.8164 137.42C86.9349 135.31 88.1697 133.263 89.5146 131.288C91.4312 128.483 94.7367 124.379 95.8203 121.367C96.5575 119.318 96.743 115.353 97.2764 113.074C97.9736 112.509 98.675 111.947 99.3799 111.391C99.1739 114.537 98.5265 118.911 97.2637 121.833C96.6343 123.289 94.7961 125.41 93.7412 126.739C90.7337 130.525 88.0912 134.565 86.9316 139.311C93.6082 141.706 101.014 145.623 106.475 150.112L104.279 152.034C93.8139 143.563 77.4858 135.594 63.4971 136.797C60.2344 137.077 56.2791 138.358 53.1963 139.44C56.5928 135.953 60.5097 135.227 65.2256 135.154C69.2912 135.092 74.6553 135.724 78.7119 136.37C68.0296 130.119 31.4039 115.169 19.6846 115.263C18.4812 116.14 17.4895 116.904 16.3438 117.853L16 117.836C17.6773 116.271 19.548 114.421 21.2422 112.928L26.8643 114.235C32.2767 103.182 34.2649 84.6637 26.7021 74.0255C25.2275 71.9511 23.5945 69.9098 22.6123 67.5382C19.9169 60.7339 20.1971 44.2133 21.6611 37.212C22.139 35.0361 22.8818 32.9259 23.874 30.9288C27.7412 22.9996 36.6907 13.6423 45.3027 11.0616ZM108.445 23.6017C104.49 23.1442 96.6769 22.2846 92.6729 22.7628C86.7067 23.2998 82.6855 23.8672 77.0391 26.1866L86.627 39.2462C85.7241 42.037 83.7842 47.5534 83.0156 50.6271C82.9026 51.079 83.0948 52.3309 83.2002 52.7862C86.478 66.9583 95.1565 80.9158 109.83 85.3673C111.534 85.8842 113.104 86.2484 114.83 86.5909C116.679 84.5796 120.022 80.4625 121.987 79.0255C122.735 78.4792 128.117 76.4232 129.336 75.9386L129.249 73.0372C129.744 72.5262 130.139 72.1106 130.69 71.6554C131.523 71.0381 133.51 69.8662 133.677 69.0802C132.445 67.6764 126.969 73.6197 125.523 74.2071C123.126 75.1788 122.171 73.6373 121.318 71.878C123.437 69.591 124.445 69.3419 127.073 67.8224C127.673 67.4749 128.034 66.7311 128.616 66.5626C128.932 66.8035 128.836 66.6773 128.921 67.1554C128.456 68.6677 123.509 69.8707 123.395 71.5079C123.766 72.0872 124.26 72.2053 124.963 72.3468C127.103 72.7773 128.743 69.8372 130.332 68.8302C131.078 68.3569 133.129 68.0353 133.559 67.5831C133.467 66.6117 130.237 61.3237 129.004 60.3273C126.226 58.081 119.237 55.2408 118.557 51.4913C118.333 49.3503 120.206 45.8684 119.817 43.8497C119.048 39.8492 116.016 36.0341 114.193 32.3898C112.715 29.4323 111.005 25.7973 108.445 23.6017ZM122.188 52.9405C124.408 54.4557 126.643 55.9497 128.893 57.422C128.61 56.0174 128.438 55.1586 128.409 53.6993C127.09 53.5805 123.09 52.9391 122.188 52.9405ZM121.474 48.7696C121.319 49.3116 121.133 49.7333 121.245 50.2716C122.244 51.3388 126.287 52.074 127.77 52.1251C127.89 52.1291 128.01 52.1316 128.131 52.1329C128.147 51.5183 128.242 51.5916 127.972 51.1534C125.613 50.4232 123.635 50.0314 121.474 48.7696ZM122.219 41.9454C122.514 43.6771 122.569 44.1505 122.313 45.9259C123.455 46.8085 126.527 49.0049 127.902 48.837L128.017 48.6554C128.058 46.3565 128.154 44.6289 128.688 42.3702C126.529 42.2696 124.372 42.1277 122.219 41.9454ZM131.583 34.2521C127.69 33.8663 125.653 32.8925 121.527 33.171C120.218 33.3072 119.169 33.5267 117.922 33.963C118.719 35.355 120.331 38.0181 120.924 39.3536C121.974 39.4589 123.136 39.5534 124.172 39.6856C124.106 38.287 123.977 37.0122 123.832 35.6183C124.228 35.1959 124.804 34.543 125.207 34.1603C125.27 34.9943 125.324 36.148 125.438 36.9523L125.636 39.8224C126.932 39.7208 128.265 39.6309 129.557 39.506C130.224 37.7854 130.96 35.9807 131.583 34.2521ZM125.646 20.0323C124.589 20.2158 122.993 20.8373 123.47 22.1856C124.309 24.5606 127.005 25.8527 129.238 26.5187C129.221 25.3746 129.197 23.5922 130.606 23.2081L130.817 23.3692C130.723 23.7465 130.713 23.7675 130.536 24.1163C130.133 26.3476 130.265 26.892 132.493 27.586C132.47 25.7963 132.433 24.0488 132.527 22.2589C130.32 20.9436 128.247 20.1171 125.646 20.0323Z" fill="#F0F4FF"/>
<path d="M143.528 59.631C143.901 59.9378 144.706 62.6136 145.585 63.3694C150.928 67.9682 154.862 68.8167 157.607 76.0309C157.079 76.4566 156.546 76.9419 156.034 77.3924C154.905 74.8388 153.721 72.6079 151.696 70.6165C148.041 67.0225 143.799 66.2451 141.773 61.0213L143.528 59.631Z" fill="#F0F4FF"/>
</svg>
