<svg width="250" height="179" viewBox="0 0 250 179" fill="none" xmlns="http://www.w3.org/2000/svg">
<path d="M138.692 0.144878C138.974 1.49817 138.969 2.77582 139.132 4.1148C139.435 6.61282 139.531 9.03431 139.71 11.5243C140.323 20.1304 140.842 28.7429 141.267 37.3604L142.929 66.1398C143.102 69.0818 143.3 72.0223 143.522 74.961C143.67 76.8589 143.955 79.6055 143.989 81.4513C146.092 79.7419 152.567 74.0475 154.673 77.1926C157.123 80.8506 146.936 89.4062 144.823 91.194C144.867 93.2517 145.138 95.3267 145.161 97.2432C146.566 98.525 148.437 99.562 150.199 100.241C151.327 98.1641 155.848 90.1676 155.322 88.2367C155.295 88.1409 155.203 88.0722 155.136 87.9996C154.457 88.1776 151.629 96.0591 150.643 97.2809C150.149 97.3486 150.024 96.7062 150.01 96.3154C149.887 93.0214 150.935 89.6568 153.093 87.1696C153.885 86.2554 155.674 84.8459 156.778 85.8481C158.001 86.9597 157.218 90.3959 156.869 91.7435C155.884 95.5502 153.541 97.6988 151.067 100.539C157.225 103.52 166.094 102.725 172.787 102.547C176.09 102.459 180.873 100.813 182.342 104.985C182.365 105.05 182.387 105.115 182.409 105.181C181.619 107.4 178.95 109.424 176.697 109.929C179.117 110.635 179.271 111.314 179.356 113.728C182.822 111.789 185.421 115.097 184.943 118.575C184.767 119.866 181.513 121.506 180.342 122.39C180.136 123.016 179.971 123.619 179.602 124.167C178.094 126.402 175.436 127.339 172.837 127.269C171.161 127.225 169.743 128.244 168.218 128.92C168.215 130.437 168.309 131.986 167.152 133.139C165.417 134.866 161.698 135.839 159.305 135.801C156.169 135.751 152.912 134.557 149.808 134.919C145.392 135.433 140.613 137.914 136.431 137.822C134.319 137.775 132.394 136.976 130.334 136.662C127.902 136.29 116.331 135.475 114.097 135.993C112.22 136.43 110.142 137.56 108.59 138.706C107.749 139.326 106.967 140.017 106.048 140.522C104.424 141.415 102.572 141.905 100.853 142.587C100.887 145.961 100.701 149.335 100.296 152.686C99.6269 158.123 97.0736 169.918 93.3592 173.644C93.0565 173.945 92.7109 174.2 92.3339 174.398C92.1193 174.069 92.2078 174.092 91.9118 173.985L91.7172 173.933C89.1892 175.793 88.8357 173.875 86.3613 173.986C84.8086 174.056 82.5905 175.321 81.0729 175.785C78.9507 176.662 74.8041 177.708 73.0421 179H70.5347C71.3709 178.347 72.7762 177.527 73.7081 177.028C74.8273 176.424 75.9738 175.872 77.144 175.376C79.8986 174.223 83.0162 173.463 85.7565 172.171C86.0758 172.02 86.7978 171.917 87.16 171.899C88.7411 171.824 90.0897 172.49 91.5203 173.036C91.6882 173.099 92.0233 173.178 92.176 173.054C92.8754 172.486 93.6619 170.694 94.0281 169.863C96.6714 163.868 97.8971 156.667 98.5346 150.156C98.7597 147.857 98.566 145.498 98.9424 143.294L98.1156 144.045C97.1134 150.983 97.1356 161.162 92.984 167.403C92.6963 167.835 92.1325 167.995 91.6463 168.138C91.1988 167.673 90.6053 167.425 90.1785 166.918C88.5999 165.039 88.3206 158.53 88.0889 156.056C87.9457 154.527 87.7286 152.989 87.6719 151.453C87.551 148.178 87.5155 144.794 87.8006 141.529C88.1928 137.04 89.4143 124.385 92.7631 121.63C93.1136 121.342 93.506 121.104 93.974 121.147L94.0727 121.271L93.9563 121.68L94.0163 121.771C95.0647 121.683 94.2906 120.957 96.1547 121.325C95.2826 120.093 94.5996 119.593 93.2165 119.033C91.1583 119.821 90.9656 121.183 89.6164 122.725C88.9872 123.527 87.3824 124.205 86.8694 125.027C82.8243 131.511 80.0353 138.827 76.6191 145.608C75.0479 148.762 73.3412 151.845 71.5038 154.85C70.4959 156.479 68.9767 158.598 68.099 160.149L68.1645 160.117C68.994 159.699 69.5985 159.259 70.3656 158.725C69.8607 159.409 67.5441 161.602 66.6932 161.062C66.6273 160.503 67.9283 158.914 68.306 158.37C69.2172 157.07 70.0883 155.742 70.9179 154.387C73.0989 150.81 75.0709 147.108 76.8237 143.298C78.8811 138.895 80.7266 134.362 83.0668 130.102C84.0129 128.38 84.9454 126.995 86.0377 125.368C81.4827 128.177 75.208 129.771 69.8714 130.031C69.605 129.827 68.0805 129.947 67.6149 129.959C70.6856 127.579 75.29 127.179 79.1005 126.071C81.6247 125.329 84.046 124.268 86.3069 122.915C88.4465 121.628 89.9603 119.257 92.0269 118.246C93.3079 117.619 97.2616 118.142 97.149 120.17C97.1258 120.587 96.6486 120.952 96.3752 121.221C97.3835 120.752 98.3499 120.196 99.2635 119.559C99.3843 118.211 99.4731 116.815 99.5766 115.461C97.9462 114.101 96.2193 113.002 94.8894 111.237C93.1616 108.944 93.0138 106.266 90.4328 104.585C91.1066 103.793 91.8767 103.013 92.6144 102.283C96.7874 106.644 94.8006 109.182 101.437 112.96C102.45 111.365 103.622 109.329 105.009 108.035C105.926 107.18 107.752 105.368 108.737 104.754C109.951 103.996 112.937 103.925 114.289 104.355C116.399 103.601 117.348 103.489 119.432 104.163C119.304 103.63 119.32 103.412 119.328 102.857C116.741 101.584 114.591 99.3153 112.155 97.781C111.401 97.306 109.546 96.3415 108.697 96.9007L108.68 97.1096C109.615 98.9874 112.774 100.023 114.575 100.935C112.149 100.724 111.048 100.554 108.816 99.4836C106.145 98.2028 105.006 93.2836 109.167 94.2452C112.04 94.9098 114.421 96.4305 116.767 98.1709C115.88 97.0042 114.344 95.5889 113.29 94.4996C111.286 92.4274 109.298 90.4007 107.182 88.4427C107.774 87.9987 108.853 87.0042 109.366 86.4692C112.731 90.1221 116.682 93.272 119.487 97.455C120.133 98.4195 120.368 99.3472 120.884 100.273L120.878 100.549L121.159 100.706C121.264 100.623 121.696 100.007 121.805 99.8512C122.388 99.0212 122.939 98.4089 123.684 97.7298L123.948 97.217L123.853 96.4286C123.777 96.1471 123.961 93.865 123.994 93.3977C124.056 93.2101 124.194 93.0688 124.32 92.9121C124.305 94.1862 124.225 95.4583 124.156 96.7304C125.535 95.6373 126.317 95.1371 127.844 94.2539C127.869 85.3761 127.734 76.499 127.436 67.6266C127.408 66.4052 127.33 65.1854 127.201 63.9704C127.057 62.642 126.807 61.1119 126.821 59.7929C126.859 56.4112 127.649 52.9912 127.669 49.6058C127.681 47.5505 127.619 45.5047 127.655 43.4466C127.714 40.0527 127.858 36.748 128.249 33.3784C128.353 32.4818 128.363 31.5298 128.471 30.6254C128.814 33.4718 128.647 36.5284 128.957 39.3543C129.65 45.4548 129.367 51.4937 129.365 57.6131C129.364 60.715 129.668 63.8139 129.579 66.9181C129.48 70.4075 129.134 73.8924 129.011 77.3782C128.952 79.0812 128.911 80.7857 128.828 82.4884C128.658 86.2274 129.092 89.8967 128.921 93.6347C130.561 92.617 132.164 91.3362 133.7 90.1521C133.717 82.8657 133.232 75.6408 133.316 68.3537C133.332 66.9929 133.226 65.3965 133.132 64.0297C132.882 60.7447 132.59 57.4631 132.256 54.1857C132.149 53.1978 132.057 52.1202 131.896 51.1476C131.391 48.1263 131.788 45.0476 131.75 42.0041C131.735 40.8047 131.556 39.6154 131.482 38.4201C131.189 33.715 131.485 28.9533 131.6 24.2425C131.609 23.8572 131.62 23.4571 131.66 23.0755C131.917 25.0063 132.193 26.9796 132.42 28.9127C132.765 31.8529 133.557 35.1712 133.686 38.0951C134.041 46.1078 134.058 54.1468 134.314 62.1656C134.386 64.6697 135.13 67.2307 135.189 69.7067C135.234 71.6428 134.563 73.8095 134.571 75.7764C134.45 80.3746 134.264 84.9949 134.28 89.5949C135.59 88.6575 136.762 87.4656 137.979 86.5814C138.196 84.3787 138.287 82.0182 139.76 80.363C140.666 81.6042 140.811 82.3723 141.203 83.8369C141.87 83.1269 142.347 82.708 143.127 82.113C142.864 80.5758 142.79 78.9912 142.604 77.4369C142.063 72.8974 141.575 68.3517 141.142 63.8005L139.762 50.3812C139.662 49.4136 139.591 48.3859 139.462 47.4253C138.929 43.4671 138.983 39.5871 138.88 35.6038L138.502 20.2023C138.407 14.93 138.167 9.59869 138.429 4.34407C138.489 3.13917 138.545 1.30798 138.692 0.144878Z" fill="#F0F4FF"/>
<path d="M137.79 96.0211C137.87 99.2755 138.112 102.095 138.725 105.298C138.818 105.78 138.865 106.591 139.03 106.99L139.14 106.925C139.224 106.278 139.022 105.113 139.006 104.318L138.917 96.4062C138.915 96.024 138.877 95.6603 138.983 95.2898C139.098 94.8873 139.474 94.6484 139.368 94.3176C139.244 94.2644 138.908 94.1695 138.914 94.0235C138.979 92.3208 138.666 88.6012 139.438 87.1859L139.576 87.1307C140.919 88.2907 140.212 104.368 141.211 105.442H141.378C142.336 104.425 142.293 100.257 142.421 98.786C143.446 99.9933 143.992 100.38 145.246 101.316C145.353 102.561 145.432 103.574 145.445 104.83C142.649 106.449 138.464 107.219 136.897 109.612C140.217 108.393 142.643 107.599 145.598 105.611C145.689 106.231 145.786 107.071 145.918 107.667C145.548 108.596 145.3 109.161 144.666 109.967C141.914 110.588 135.993 111.452 133.267 111.333C131.388 109.319 130.191 108.095 127.264 108.012C125.903 107.977 124.545 108.142 123.231 108.5C122.7 107.434 121.975 106.478 121.095 105.682C121.09 105.363 121.073 105.033 121.082 104.716C121.102 104.065 120.896 103.946 121.462 103.533C121.501 102.638 120.855 102.311 121.159 100.706C121.264 100.623 121.696 100.007 121.805 99.8512C122.388 99.0212 122.939 98.4089 123.684 97.7298L123.948 97.217L124.13 97.568C124.728 96.974 127.013 95.8073 127.86 95.3556C127.896 96.7419 127.89 98.8624 128.023 100.179C128.076 99.5396 128.093 98.9659 128.109 98.3274C128.118 98.9794 128.038 102.372 128.323 102.698C128.409 102.277 128.436 101.241 128.49 100.736C128.704 98.7115 128.735 96.6625 128.899 94.6368C129.662 94.1695 130.586 93.4633 131.345 92.9332C131.103 93.3134 130.794 93.7303 130.529 94.1018C131.391 94.2643 132.858 94.2073 133.6 94.6697C133.716 94.7422 133.691 94.927 133.707 95.106C133.755 95.4755 133.751 95.8103 133.973 96.0869L134.03 94.6378C135.297 95.0518 136.571 95.4746 137.79 96.0211Z" fill="#25252F"/>
<path d="M123.941 97.2172L124.123 97.5683C123.994 99.4509 123.819 103.324 123.477 104.98C123.272 102.967 123.909 99.9888 123.678 97.7299L123.941 97.2172Z" fill="#F0F4FF"/>
<path d="M128.02 100.179C128.073 99.5397 128.09 98.9661 128.106 98.3276C128.115 98.9796 128.035 102.372 128.32 102.698C128.359 103.327 128.138 104.897 128.057 105.553C127.962 103.852 127.977 101.891 128.02 100.179Z" fill="#F0F4FF"/>
<path d="M133.705 95.106C133.753 95.4755 133.748 95.8103 133.971 96.0869C134.014 96.5987 133.892 97.9956 133.709 98.4832C133.64 98.3768 133.701 95.4717 133.705 95.106Z" fill="#F0F4FF"/>
<path d="M162.803 105.979C162.92 105.975 163.038 105.974 163.155 105.977C164.077 105.996 165.97 106.386 165.741 107.574C165.64 108.1 165.439 108.72 165.083 109.126C163.553 110.871 161.832 112.442 160.235 114.125C158.593 115.886 157.454 117.621 155.546 119.128C152.915 119.08 149.667 120.026 148.178 122.365C147.283 122.386 146.465 122.224 145.581 122.159C142.526 121.933 138.786 122.074 137.131 125.066C140.983 123.171 146.346 123.794 150.294 125.122L149.325 127.146C151.698 125.124 153.667 123.996 156.65 123.013C158.619 122.365 160.498 121.253 162.224 123.077C162.902 122.455 163.613 121.357 164.34 120.842C166.737 119.172 170.876 117.994 173.773 118.551C178.012 119.367 176.798 121.724 173.835 123.236C172.558 123.887 171.096 124.784 169.838 125.431C166.16 127.348 162.413 129.128 158.606 130.767C157.095 131.425 154.844 132.432 153.305 132.847C152.27 133.127 149.254 132.693 147.89 132.618C146.764 132.565 145.636 132.582 144.513 132.669C140.796 132.939 137.647 133.761 134.062 134.529C132.169 134.934 129.174 134.562 127.157 134.638C125.333 134.708 123.214 134.425 121.363 134.444C119.376 134.384 115.785 133.86 113.922 134.259C111.934 134.684 109.289 137.646 107.515 138.581C105.25 139.777 102.42 140.614 100.135 141.73C96.684 143.417 93.0945 145.654 89.8508 147.724L89.8417 145.093C89.7952 138.983 90.8433 129.369 93.0179 123.698C94.48 123.034 95.9848 122.599 97.3681 121.76C98.9108 120.824 100.14 119.632 101.425 118.383C101.655 116.765 101.63 114.076 102.37 112.847C103.624 110.767 105.212 108.122 107.597 107.37C108.107 109.064 109.865 108.647 111.408 109.065C109.794 110.248 111.408 112.466 111.408 112.466C111.408 112.466 113.012 114.695 113.608 115.127C115.222 116.014 116.642 113.694 117.275 113.205C117.557 112.988 116.147 111.85 116.395 111.579C117.359 110.529 119.826 110.068 121.089 109.213C121.668 111.205 122.316 115.43 120.059 116.624C118.94 117.216 116.608 117.625 115.377 117.26C114.692 117.888 113.853 119.027 113.282 119.772C113.6 119.734 113.966 119.739 114.29 119.727C117.696 119.599 119.802 117.845 121.986 115.494C123.304 116.801 126.649 120.267 128.13 120.954C127.345 122.471 127.316 123.248 127.465 124.901C127.661 124.8 127.855 124.695 128.046 124.584C129.366 123.805 129.635 122.633 129.985 121.259C130.673 121.403 131.248 121.467 131.944 121.546C132.623 120.859 133.359 120.026 134.022 119.309C130.708 119.003 129.516 119.261 127.08 116.54C131.1 116.233 133.049 116.817 136.891 118.172C136.367 118.835 136.019 119.583 135.688 120.353C136.827 119.082 137.557 118.184 139.359 117.991C141.226 117.79 143.241 117.599 145.084 118.042C145.719 118.195 146.062 119.127 146.338 119.675C146.823 119.181 147.313 118.722 147.817 118.249C147.506 117.589 147.543 117.307 147.554 116.568C148.268 115.894 151.084 113.858 152.005 114.359C152.21 114.669 152.215 115.135 152.254 115.518C152.701 114.906 152.927 114.635 153.446 114.081L153.019 113.092C154.128 111.795 155.225 111.036 156.836 110.484C157.108 110.931 157.373 111.383 157.63 111.839C158.149 111.242 158.663 110.71 159.186 110.087L158.222 109.052C159.622 107.412 160.627 106.403 162.803 105.979Z" fill="#25252F"/>
<path d="M149.606 103.225C151.954 103.851 153.572 104.219 155.987 104.568C155.969 105.453 156.058 107.5 157.268 107.562C158.236 107.228 158.084 105.603 158.072 104.787C159.511 104.781 160.949 104.807 162.386 104.865C160.109 106.098 158.901 107.613 157.055 109.35C156.523 109.85 155.159 110.255 154.55 110.748C153.758 111.24 152.883 112.397 152.082 112.755C150.239 113.578 148.625 114.011 147.128 115.48C146.634 115.964 146.343 116.13 145.655 115.916L145.211 115.702C144.971 115.955 143.198 115.839 142.75 115.845C141.439 115.87 140.13 115.966 138.83 116.132C140.716 114.235 142.745 112.52 144.553 110.671C144.123 111.887 143.676 112.996 143.345 114.251C144.398 113.223 145.073 111.216 145.517 110.843C145.576 111.011 145.595 111.101 145.706 111.244C145.792 110.954 145.837 109.967 145.97 109.686C146.54 108.485 147.792 107.279 148.419 106.125C148.349 105.97 148.345 105.887 148.312 105.719C148.393 105.234 149.312 103.717 149.606 103.225Z" fill="#25252F"/>
<path d="M145.211 115.702C146.301 113.858 149.239 112.092 151.143 111.183C150.359 112.159 150.047 112.45 149.069 113.235C147.801 114.255 146.379 114.481 145.655 115.916L145.211 115.702Z" fill="#F0F4FF"/>
<path d="M148.313 105.72C148.547 105.485 148.897 105.07 149.18 105C149.033 105.367 148.668 105.801 148.42 106.126C148.35 105.97 148.346 105.888 148.313 105.72Z" fill="#F0F4FF"/>
<path d="M173.212 111.896C174.251 111.806 175.483 112.045 176.426 112.504C177.074 113.364 177.127 113.798 177.205 114.853C176.51 115.362 175.88 115.957 175.331 116.623C172.229 116.019 169.015 116.592 166.306 118.233C164.126 119.535 163.995 120.069 161.466 120.306C160.289 120.537 159.123 120.856 157.965 121.172C158.107 120.599 158.355 120.153 158.708 119.694C160.289 117.634 162.991 117.495 165.129 116.418C165.651 116.156 166.431 115.476 166.931 115.117C169.151 113.525 170.461 112.265 173.212 111.896Z" fill="#25252F"/>
<path d="M166.709 116.113C167.091 116.085 167.227 116.122 167.494 116.311L167.499 116.526C167.218 117.069 166.488 117.541 165.983 117.899C165.758 117.812 165.207 117.457 164.971 117.314C165.603 116.683 165.903 116.495 166.709 116.113Z" fill="#F0F4FF"/>
<path d="M150.889 78.5044C151.902 78.3844 152.272 78.8681 152.768 79.6266C152.777 79.852 152.78 80.0774 152.776 80.3028C152.686 83.7593 147.154 88.5789 144.768 90.8687C144.707 89.8278 144.621 88.7888 144.51 87.7527C144.508 87.7015 144.54 87.538 144.55 87.4799C144.859 87.4741 146.167 88.1629 146.548 88.3506L147.721 86.9633C146.676 86.2968 146.094 85.8324 145.188 85.0005C144.891 85.2104 144.57 85.4687 144.279 85.6941C144.272 84.6783 144.159 83.3453 144.027 82.3382C146.568 80.7188 147.781 79.2038 150.889 78.5044Z" fill="#25252F"/>
<path d="M174.562 104.452C175.713 104.289 178.816 104.35 179.692 105.077C179.993 105.327 180.182 105.688 180.214 106.079C180.243 106.485 180.066 106.852 179.808 107.152C178.165 109.056 169.047 109.967 166.247 110.134L164.934 110.257C165.226 109.881 165.577 109.453 165.914 109.124C167.492 107.583 168.607 107.259 167.514 104.929C168.777 104.897 170.041 104.895 171.304 104.922C171.218 105.647 170.38 107.551 170.684 107.97C170.894 107.928 170.956 107.894 171.114 107.757C172.337 106.697 172.406 106.168 172.556 104.706C173.212 104.581 173.896 104.522 174.562 104.452Z" fill="#25252F"/>
<path d="M123.519 109.451C131.942 107.734 129.742 111.709 134.699 112.87C136.661 112.898 139.706 112.198 141.633 111.709C142.099 111.617 142.695 111.406 143.159 111.256C142.181 112.192 138.943 115.222 138.212 116.165C132.953 114.289 130.027 114.097 124.483 114.214C124.092 113.616 123.929 113.466 123.362 113.048C123.826 111.46 123.747 111.102 123.519 109.451Z" fill="#25252F"/>
<path d="M178.761 116.646C179.281 116.616 179.822 116.739 180.312 116.906C181.217 117.211 182.205 117.821 182.617 118.732C182.76 119.049 182.838 119.413 182.694 119.746C182.16 120.98 173.14 125.856 171.559 126.614C170.022 127.351 168.479 127.971 166.865 128.512C166.106 128.73 165.456 128.885 164.684 129.055C168.867 126.986 173.398 124.269 177.376 121.795C179.695 120.354 178.737 117.772 176.344 116.836L178.761 116.646Z" fill="#25252F"/>
<path d="M110.965 104.925C114.58 104.453 118.965 106.698 121.112 109.424C120.564 109.717 116.9 112.017 116.686 112.022C115.592 110.476 115.659 109.213 114.779 108.77C113.899 108.326 113.183 108.034 112.725 108.326C112.268 108.618 110.672 109.509 110.672 110.248C109.741 109.926 107.529 108.103 106.565 107.883C107.518 107.04 109.814 105.453 110.965 104.925Z" fill="#25252F"/>
<path d="M165.067 130.144C165.205 130.16 165.36 130.146 165.452 130.253C168.808 134.123 159.393 133.569 157.811 133.475L156.142 133.433C158.01 132.402 159.652 132.157 161.652 131.481C162.796 131.095 163.925 130.57 165.067 130.144Z" fill="#25252F"/>
<path d="M143.111 83.1343C143.394 83.4381 143.454 86.2193 143.364 86.7417L143.642 87.0252C143.853 88.3196 143.935 90.1083 144.156 91.3669C143.494 91.9386 143.012 92.5548 142.459 93.2282L142.33 93.2311C142.193 92.906 142.188 91.0148 142.115 90.474C141.855 88.5353 141.624 86.6431 141.256 84.7189C141.836 84.1956 142.511 83.6451 143.111 83.1343Z" fill="#25252F"/>
<path d="M161.13 113.948C161.689 114.046 162.996 114.571 163.735 114.714C164.507 114.863 165.238 114.816 165.876 114.962L165.856 115.09C165.444 115.281 164.591 115.499 164.124 115.64C162.977 115.987 162.331 116.375 161.378 117.037L159.997 118.062C159.1 118.008 158.481 118 157.583 118.03C158.768 116.226 159.487 115.376 161.13 113.948Z" fill="#25252F"/>
<path d="M137.757 87.7528C137.852 88.0402 137.722 92.8249 137.731 93.6192C136.878 93.327 135.789 93.1006 134.894 92.8907C133.741 92.6479 134.105 91.7453 134.179 90.7363C135.107 89.8095 136.708 88.5964 137.757 87.7528Z" fill="#25252F"/>
<path d="M152.909 120.785C154.277 120.668 155.347 121.038 156.648 121.411C155.288 121.991 153.932 122.582 152.582 123.186C152.081 123.418 149.661 122.604 148.952 122.407C150.245 121.436 151.362 121.075 152.909 120.785Z" fill="#25252F"/>
<path d="M169.865 111.703C169.968 111.683 170.113 111.694 170.224 111.696C170.106 112.036 167.715 113.379 167.29 113.559C166.524 113.468 165.97 113.315 165.254 113.053L163.721 112.377C165.807 112.309 167.803 111.949 169.865 111.703Z" fill="#25252F"/>
<path d="M138.08 134.914C139.135 134.806 140.816 134.963 141.923 135.024C141.08 135.504 140.43 135.701 139.518 135.948C137.992 136.258 137.124 136.082 135.624 135.831C136.568 135.358 137.079 135.144 138.08 134.914Z" fill="#25252F"/>
<path d="M145.586 101.564C146.565 102.056 147.339 102.427 148.351 102.837C148.075 103.116 147.738 103.373 147.432 103.621C146.908 103.963 146.361 104.302 145.831 104.638C145.718 103.61 145.721 102.609 145.586 101.564Z" fill="#25252F"/>
<path d="M144.21 92.0983C144.355 92.8258 144.569 95.6622 144.687 96.6189L144.548 96.6209L144.222 96.261C143.884 95.844 143.535 95.3236 143.221 94.8805C143.16 93.502 143.375 93.1692 144.21 92.0983Z" fill="#25252F"/>
<path d="M177.841 123.942C177.985 123.923 177.982 123.945 178.136 123.986L178.175 124.169C177.574 125.615 176.122 125.831 174.746 125.946L174.55 125.922C174.736 125.63 177.399 124.184 177.841 123.942Z" fill="#25252F"/>
<path d="M113.258 109.804C113.371 109.833 113.533 109.852 113.592 109.96C114.093 110.889 114.448 111.769 115.045 112.649L114.902 112.751C114.723 112.811 114.592 112.845 114.411 112.889C113.667 112.493 112.897 110.574 113.258 109.804Z" fill="#25252F"/>
<path d="M147.671 103.93L147.73 104.077C147.236 105.149 146.639 106.234 146.085 107.28C145.996 106.97 145.897 105.793 145.858 105.411C146.333 104.975 147.148 104.354 147.671 103.93Z" fill="#25252F"/>
<path d="M133.579 91.1531C133.773 91.3466 133.713 92.3623 133.714 92.6709C133.228 92.6361 132.754 92.5713 132.271 92.5084L132.14 92.3778C132.475 91.9812 133.152 91.4888 133.579 91.1531Z" fill="#25252F"/>
<path d="M124.406 82.9983L124.819 67.5525C125.042 59.7738 125.318 52.02 125.207 44.2327C125.165 41.3347 124.812 38.467 124.809 35.5651C124.798 26.606 124.607 17.5884 125.008 8.6379C125.107 6.42372 125.152 3.05726 125.656 0.976194L125.725 1.0325C126.337 9.23827 126.847 17.5599 126.877 25.7873C126.885 28.1166 126.814 30.4387 126.804 32.766C126.828 39.4778 126.76 46.1896 126.599 52.8995C126.439 57.9371 126.086 62.7403 125.829 67.7283L125.262 77.637C125.188 79.0639 125.148 82.356 124.877 83.6639C124.777 82.6617 124.947 81.7088 124.851 80.8207C124.657 81.3063 124.624 82.2553 124.433 82.9074L124.406 82.9983Z" fill="#F0F4FF"/>
<path d="M124.402 82.998L124.429 82.9071C124.62 82.2551 124.653 81.3061 124.847 80.8204C124.943 81.7085 124.773 82.6614 124.873 83.6636C124.85 85.7929 124.597 88.1137 124.488 90.2545C124.447 91.0652 124.306 92.1438 124.313 92.912C124.188 93.0687 124.05 93.2099 123.987 93.3976C124.072 90.0349 124.281 86.3926 124.402 82.998Z" fill="#F0F4FF"/>
<path d="M123.853 96.4286L123.948 97.217L123.684 97.7298C122.939 98.4089 122.388 99.0212 121.805 99.8512C121.696 100.007 121.264 100.623 121.159 100.706L120.878 100.549L120.884 100.273C121.628 98.6081 122.647 98.2529 123.787 96.9673C123.813 96.7573 123.835 96.5776 123.853 96.4286Z" fill="#F0F4FF"/>
<path d="M67.6137 129.959C68.0792 129.947 69.6038 129.827 69.8702 130.031C69.2388 130.149 67.8897 130.538 67.361 130.449L67.3083 130.32L67.6137 129.959Z" fill="#F0F4FF"/>
<path d="M91.9089 173.985C92.2048 174.093 92.1164 174.069 92.331 174.398C92.0437 174.518 91.8972 174.608 91.5855 174.601C91.5592 174.337 91.7078 174.251 91.9089 173.985Z" fill="#F0F4FF"/>
<path d="M138.466 52.794C138.394 52.2521 138.366 51.6013 138.318 51.047C137.7 43.7922 136.437 36.6358 135.402 29.4383C134.833 25.4768 133.604 21.6663 132.564 17.8065C131.353 13.4072 130.386 8.94351 129.666 4.43611C129.487 3.25027 129.117 1.09094 129.082 0C129.756 2.33143 130.668 4.67912 131.583 6.92929C132.012 7.98627 132.924 9.2703 133.218 10.3645C133.787 12.4824 134.278 14.6947 134.771 16.8309C135.976 21.8708 136.935 26.9672 137.644 32.102C137.937 34.1025 138.305 36.4568 138.463 38.4483C138.8 42.6811 138.702 47.0516 138.695 51.3091C138.575 51.8968 138.465 52.1879 138.466 52.794Z" fill="#F0F4FF"/>
<path d="M178.867 89.8223C179.376 89.7914 179.864 89.8572 180.148 90.3341C180.633 92.3627 174.405 97.2994 172.882 98.2484C171.877 98.8743 170.482 99.6289 169.404 100.186C170.861 98.6769 172.893 97.0382 174.513 95.619C175.884 94.4097 176.904 93.4897 178.126 92.1083C176.016 93.126 173.247 95.3027 171.512 96.8737C171.628 96.6009 171.758 96.3349 171.903 96.0766C173.436 93.3379 175.775 90.6862 178.867 89.8223Z" fill="#F0F4FF"/>
<path d="M85.5029 69.8536C85.5899 69.8599 85.6765 69.8701 85.7626 69.884C86.9184 70.068 89.253 71.1148 90.1164 71.9144C90.3775 72.0769 91.4543 73.0475 91.6462 73.0919C93.9098 73.6159 94.8721 74.7263 96.2132 76.5901C95.3025 76.4523 93.2016 76.2729 92.4621 76.0048C90.5638 75.3169 86.7588 71.4404 85.5029 69.8536Z" fill="#F0F4FF"/>
<path d="M174.444 78.395L174.52 78.4492C173.419 79.3585 173.117 79.4069 171.971 80.5523C170 82.5229 166.63 86.7378 164.344 87.979L164.224 87.8165C163.79 83.6741 171.391 79.9186 174.444 78.395Z" fill="#F0F4FF"/>
<path d="M69.2711 163.535C73.3982 158.501 77.3647 152.774 80.0011 146.796C80.7141 145.187 81.3706 143.553 81.9692 141.897C82.2815 141.043 82.6587 139.752 83.0465 139.004L83.1124 139.02C82.9543 140.261 82.7408 141.814 82.3388 143C79.9471 150.06 74.5331 158.356 69.6188 163.865L69.2711 163.535Z" fill="#F0F4FF"/>
<path d="M69.2734 163.534L69.6211 163.865C68.7488 164.927 65.9569 168.206 65 168.764C65.0243 168.592 68.8229 164.087 69.2734 163.534Z" fill="#F0F4FF"/>
<path d="M138.697 51.3092C138.701 51.7367 138.765 54.7449 138.696 54.9152C138.516 54.2234 138.439 53.5086 138.468 52.7941C138.467 52.188 138.577 51.8969 138.697 51.3092Z" fill="#F0F4FF"/>
</svg>
