<svg width="250" height="179" viewBox="0 0 250 179" fill="none" xmlns="http://www.w3.org/2000/svg">
<path d="M121.685 0C122.548 1.16609 124.202 3.24478 124.799 4.42861C126.495 7.79648 127.249 11.7656 128.88 15.2019C129.928 17.4105 131.149 19.5765 132.275 21.7503C134.469 25.9748 136.604 30.2296 138.68 34.5138C140.183 37.645 141.156 41.0111 142.65 44.0767C143.511 45.5137 144.743 46.8092 145.644 48.2205C150.983 56.6 157.692 64.0173 161.808 73.143C163.24 76.3166 164.579 79.5778 166.162 82.6638C169.778 89.719 174.674 96.0301 177.699 103.402C178.387 105.076 178.923 106.729 179.682 108.383C179.627 107.393 179.359 106.547 179.358 105.549C179.354 102.589 180.858 99.5041 181.572 96.6998C183.552 88.9454 184.608 82.5157 190.56 76.6174C194.119 73.0896 199.416 69.9547 204.595 69.8926C206.71 69.8672 208.092 70.4692 209.551 71.9546C207.474 66.0322 204.427 64.5966 201.19 59.6762C200.189 58.1527 199.29 56.2893 198.334 54.7205C197.092 52.6813 195.926 50.8499 194.813 48.732C192.734 44.7739 190.82 40.7497 188.561 36.8917C185.639 31.8997 181.831 27.716 178.52 23.0147C175.52 18.7575 173.471 14.2096 171.056 9.61983C170.079 7.76629 168.386 4.92903 167.964 2.85469C167.884 2.46023 167.958 2.40002 168.152 2.17097C169.464 2.36594 170.535 5.07172 171.208 6.11924C174.876 11.8364 177.384 18.0392 181.667 23.3737C184.669 27.1113 187.706 31.0667 190.264 35.1315C192.933 39.3756 194.975 44.1847 197.472 48.547C199.276 51.7028 201.542 54.6259 203.347 57.7945C204.238 59.0998 204.293 59.5433 204.707 61.0876C204.636 61.171 204.506 61.3409 204.424 61.3904C207.959 65.0858 213.128 70.7804 211.188 76.421C212.614 78.4766 214.86 79.8613 216.177 81.956C217.146 83.4978 217.588 85.3432 218.182 87.0481C219.191 89.9498 221.065 91.9952 223.102 94.206C226.495 97.8832 230.167 101.298 233.714 104.827C235.862 106.964 239.058 109.332 240.363 112.093C241.407 114.299 241.025 116.666 241.6 118.954C242.745 123.497 247.832 134.664 246.214 138.929C245.108 141.84 241.499 145.376 239.125 147.417C238.05 148.34 236.845 149.163 235.831 150.148C234.557 151.383 233.758 152.991 232.329 154.1C231.28 154.917 230.03 155.437 228.825 155.98C231.71 156.938 234.784 157.019 235.494 160.271C236.921 166.797 231.845 168.627 226.649 169.847C225.207 173.501 221.576 176.698 217.713 174.139C217.087 175.094 216.666 175.726 215.922 176.613C213.33 177.397 211.815 177.413 209.187 176.982L208.229 176.018C204.413 179.548 201.262 179.462 196.89 176.711C195.521 178.17 194.731 178.647 192.902 178.896C189.13 179.411 186.904 177.946 183.924 176.126C183.552 175.897 180.225 175.732 179.358 175.667C176.803 175.489 174.289 174.935 171.897 174.024C166.886 172.077 164.218 169.587 159.874 166.724C155.497 163.839 149.921 160.676 145.125 158.577C142.482 157.576 139.601 156.364 136.884 155.647C127.069 153.053 114.03 151.626 112.642 139.036C111.943 139.396 110.926 140.001 110.148 139.617C108.52 138.787 107.297 136.175 106.581 134.49C104.655 129.959 101.364 126.848 98.6826 122.948C97.8012 121.665 96.8076 117.556 96.1114 115.766C94.6405 115.03 93.2009 113.816 91.8036 112.843C90.5776 115.07 88.9018 117.477 87.5654 119.705C85.977 122.353 84.4708 125.049 82.9297 127.705C73.381 144.157 58.6688 150.192 41.6067 156.283C35.8418 158.342 28.6621 161.244 22.7508 162.777C26.6605 159.489 35.9731 155.779 40.8346 153.914C54.1772 148.793 67.4385 144.235 76.6101 132.514C80.1133 128.037 82.5015 123.519 85.5946 118.833C86.9877 116.723 89.0865 114.23 90.6396 112.071C87.7928 110.778 86.6005 110.826 85.0771 108.167C80.3765 107.218 80.4952 105.213 77.8819 101.632C75.2578 98.0377 72.0768 94.6583 69.2736 91.1793C68.5538 90.2859 67.3586 88.7666 66.4857 88.0555C64.7823 93.6469 62.4195 100.12 58.6892 104.784C57.7087 106.01 56.4429 106.63 54.9789 107.117C47.4218 105.321 45.7726 102.068 40.4801 97.2919C35.553 92.8455 29.6512 88.9618 24.9515 84.1817C21.3666 80.5356 18.4302 76.3454 14.7261 72.8056C12.2465 70.4012 5.31725 64.5874 4 61.9674L4.1162 61.724C6.09214 61.2037 18.0408 72.5577 19.8014 74.5582C23.1439 78.3563 26.3033 82.2364 30.2842 85.4706C34.1459 88.6082 38.047 91.7688 41.8432 94.9918C45.4998 98.0823 47.5005 101.595 51.7215 104.122C51.4803 103.272 51.2418 102.42 51.1069 101.546C49.6054 91.819 54.6016 66.4556 60.4638 58.6397C62.0936 56.4665 63.8736 55.3787 66.5668 55.0015C64.8426 54.0228 61.8327 52.3935 60.3036 51.1984C57.3724 48.9078 54.6576 46.0494 51.7686 43.6142C49.1101 41.3732 45.7781 38.9122 43.3903 36.4476C40.5985 33.5659 37.9519 30.158 35.2884 27.1606C32.1049 23.5779 29.7141 21.9412 27.5156 17.6398C34.2747 21.4242 39.2201 28.5245 44.4499 33.9539C47.3495 36.9642 51.5139 39.8741 54.7608 42.7344C56.7531 44.4895 59.9716 47.7094 61.8876 49.0768C66.8368 52.6087 68.9767 52.0126 71.9492 57.876C73.896 58.9644 80.6374 61.1995 82.7472 61.2309C89.9938 61.3391 93.3625 64.242 99.043 68.2352C103.954 71.6878 106.859 74.7198 110.067 80.0825C115.761 76.5455 119.76 72.0828 124.94 67.9419C127.229 66.1122 140.324 57.546 142.553 60.1493C142.591 61.2796 141.353 61.1675 140.552 61.1941C140.929 62.0405 141.305 63.1438 141.635 64.0277C141.711 63.9016 141.787 63.7749 141.862 63.6478C146.01 56.5954 143.65 55.0026 141.358 48.4556C138.372 39.9222 134.771 32.0808 130.689 24.0031C128.275 19.2241 125.974 15.008 124.553 9.76968C123.671 6.51804 122.55 3.30282 121.685 0Z" fill="#F0F4FF"/>
<path d="M202.055 57.6992C202.559 57.9821 202.818 57.9835 203.346 57.7944C204.237 59.0998 204.291 59.5433 204.706 61.0876C204.238 60.6645 202.503 58.3193 202.055 57.6992Z" fill="#F0F4FF"/>
<path d="M204.422 61.391C203.685 60.631 202.11 58.5794 201.883 57.5986L202.054 57.6998C202.503 58.3199 204.238 60.6651 204.705 61.0882C204.634 61.1716 204.504 61.3415 204.422 61.391Z" fill="#25252F"/>
<path d="M138.451 62.0811C138.609 62.8155 138.798 63.5837 139.057 64.2911C142.663 74.1227 146.885 83.232 152.412 92.1448C153.417 93.9893 155.186 95.7018 156.185 97.4987C159.179 102.886 162.655 107.827 166.498 112.651C171.281 118.737 178.047 122.97 183.464 128.338C190.628 135.437 196.168 140.979 205.397 145.461C200.912 149.876 205.386 157.469 211.013 158.107C212.057 160.884 212.633 162.33 215.901 161.265C217.865 163.577 222.393 164.326 224.547 168.158C224.761 168.549 224.862 168.814 224.745 169.277C224.314 170.785 223.385 171.686 222.092 172.557C221.214 173.15 220.097 173.51 219.024 173.32C217.594 173.069 219.046 171.955 217.79 170.259C216.781 168.899 215.703 168.311 214.509 167.161C212.214 164.948 210.23 162.326 207.288 160.882C206.621 160.554 205.224 160.389 204.548 160.098C203.526 159.658 202.429 158.981 201.328 158.779L201.257 158.941C202.082 161.037 205.576 162.41 207.428 163.389C208.565 163.99 212.121 166.822 212.208 168.116L211.692 168.551C211.879 168.992 211.91 169.105 212.199 169.48L213.853 169.277L215.924 170.746C214.789 170.899 213.533 171.064 212.669 171.922C212.72 172.153 212.839 172.618 212.853 172.833L213.049 172.795C214.646 172.481 215.306 171.544 216.343 171.961C216.973 173.16 215.685 174.689 214.901 175.517C213.56 175.419 209.49 175.288 208.554 174.765C208.492 174.44 208.152 172.576 207.999 172.394C206.527 170.642 204.961 169.156 203.774 167.15C202.355 164.757 200.454 163.822 197.919 162.96C197.364 162.77 195.666 161.922 195.377 161.307C195.029 160.462 194.575 160.325 193.776 159.897C196.109 164.807 197.56 163.381 201.13 166.777C201.94 167.548 203.266 169.798 204.038 170.796C204.71 171.663 205.297 172.206 206.082 172.96L206.186 173.217C206.408 173.447 206.432 173.563 206.565 173.852C206.512 174.674 205.985 175.52 205.604 176.292C201.37 176.549 201.048 176.594 197.338 174.572L197.213 174.022C196.663 171.521 193.964 167.964 191.958 166.451C191.466 166.083 190.945 165.756 190.402 165.471C189.195 164.85 187.805 164.421 186.562 163.848C185.969 163.576 185.081 162.792 184.489 162.877L184.391 163.223C184.972 165.891 190.305 166.269 191.911 168.759C193.079 170.572 195.425 172.671 195.307 175.108C195.24 176.525 193.492 176.587 192.477 176.636C189.473 176.967 186.861 175.582 184.505 173.882C182.815 172.662 182.229 172.388 180.203 172.061L181.82 173.631C178.62 172.97 176.195 172.794 173.069 171.725C167.689 169.887 164.558 166.904 159.948 163.864C155.781 161.13 151.402 158.735 146.852 156.701C143.958 155.439 140.919 154.23 137.862 153.317C132.307 151.657 123.483 150.513 119.088 146.488C112.89 140.811 114.886 130.958 115.612 123.652C115.794 121.821 116.41 119.841 116.29 117.958C115.939 112.238 113.765 106.52 111.612 101.297C114.666 103.511 117.553 105.486 121.586 105.034C122.859 104.892 123.947 104.331 124.719 103.281L124.847 103.104C125.193 102.63 125.331 100.517 125.477 99.6862C123.835 95.1552 119.079 90.4274 115.693 87.1384C114.027 85.5203 112.796 83.761 111.453 81.8708C117.096 78.7343 120.215 75.3109 124.988 71.0867C129.478 67.114 133.289 64.9191 138.451 62.0811Z" fill="#25252F"/>
<path d="M221.571 171.059C219.542 170.001 218.106 168.687 219.763 166.45C220.148 165.932 220.296 165.826 220.902 165.717C221.347 165.944 221.355 165.96 221.646 166.378C221.43 167.125 219.196 167.416 220.973 169.139C222.227 169.009 221.526 167.749 224.542 168.16C224.755 168.55 224.856 168.815 224.74 169.279C224.627 169.012 224.674 169.106 224.462 168.89C223.512 168.964 222.296 170.362 221.571 171.059Z" fill="#F0F4FF"/>
<path d="M203.169 175.448C201.283 174.214 200.207 171.01 203.258 170.613L203.331 170.767C202.879 171.212 202.487 171.665 202.069 172.138C202.32 172.641 202.668 173.223 202.948 173.722C204.136 173.16 204.789 173.098 206.08 172.961L206.185 173.218C205.104 173.956 204.379 174.67 203.169 175.448Z" fill="#F0F4FF"/>
<path d="M212.196 169.48L213.85 169.277L215.921 170.746C214.786 170.899 213.53 171.064 212.666 171.923C212.191 171.476 211.61 170.385 211.758 169.71L212.196 169.48Z" fill="#25252F"/>
<path d="M210.469 169.939C210.939 169.265 211.101 169.109 211.685 168.551C211.872 168.993 211.903 169.105 212.191 169.48L211.754 169.71C211.606 170.385 212.187 171.476 212.662 171.923C212.713 172.153 212.832 172.618 212.846 172.833C211.163 172.649 210.861 171.327 210.469 169.939Z" fill="#F0F4FF"/>
<path d="M121.882 112.339C123.274 112.663 123.823 120.153 124.951 121.791C126.734 124.381 128.769 125.883 130.789 128.116C130.66 128.447 130.219 128.646 129.891 128.846C127.342 128.006 124.612 125.339 123.213 123.119C121.386 120.223 121.539 117.976 121.435 114.722C121.408 113.888 121.083 113.429 121.284 112.562C121.508 112.489 121.664 112.426 121.882 112.339Z" fill="#F0F4FF"/>
<path d="M192.215 171.152C192.852 171.134 193.34 171.001 193.509 171.686C192.986 172.713 191.086 173.657 191.336 174.748C192.053 175.053 193.646 174.348 194.511 174.261C194.497 174.678 194.534 174.879 194.305 175.228C191.662 176.892 188.038 173.631 192.215 171.152Z" fill="#F0F4FF"/>
<path d="M203.199 71.6007C204.174 71.4943 204.749 71.5164 205.738 71.551C206.819 72.8113 208.21 75.7309 209.697 77.5507C211.273 79.48 213.568 81.6724 214.859 83.353C215.99 85.3501 216.044 88.0035 217.412 89.8766C222.793 97.1068 229.446 103.335 235.824 109.715C240.8 114.691 239.001 118.445 239.347 124.862C239.598 129.561 240.185 134.541 239.855 139.224C239.293 141.305 237.118 143.836 236.171 145.542C233.298 150.722 232.592 151.75 227.723 154.951C228.703 152.517 229.368 149.81 230.251 147.301C231.061 145.005 232.544 142.101 233.041 139.797C233.632 137.054 233.341 133.162 233.561 130.254C233.763 127.587 233.914 124.861 234.078 122.191C234.106 121.741 234.069 121.266 233.897 120.848L233.682 120.886C232.402 122.679 231.64 131.299 231.525 133.753C231.477 134.785 231.603 137.85 231.428 138.711C230.957 141.018 229.385 143.898 228.536 146.184C227.538 148.873 226.866 151.313 226.084 154.047C225.03 153.992 224.589 153.888 223.767 154.59C222.778 155.427 222.169 156.628 222.077 157.921C222.044 158.44 222.08 159.381 222.419 159.77C223.337 158.847 224.081 155.51 225.418 155.623C225.623 156.523 224.393 160.532 224.092 161.721C223.561 161.39 222.996 160.985 222.475 160.629C221.957 159.935 220.159 156.712 220.162 155.979C220.187 150.258 221.566 144.673 223 139.173C223.424 137.55 222.894 133.345 222.852 131.414C222.821 130.031 223.122 125.577 222.891 124.586C222.595 124.788 222.539 124.872 222.184 124.891C222.097 124.817 221.965 124.712 221.921 124.607C220.887 122.078 220.68 121.923 221.265 119.334C221.072 118.762 221.22 118.952 220.745 118.597C218.969 118.582 218.091 123.282 215.789 124.971L215.635 125.084C216.161 123.102 216.255 122.043 216.365 120.046C215.247 122.027 215.1 123.013 214.292 125.07C214.174 123.73 214.032 120.925 213.471 119.792L213.507 119.937L213.301 120.092C212.899 124.061 213.814 129.261 215.188 133.006C217.03 138.032 217.927 140.948 217.205 146.399C216.448 147.431 215.303 148.464 214.346 149.323C214.423 146.969 214.663 146.293 212.44 145.195L210.009 145.792C209.678 143.72 208.789 141.589 208.161 139.573C207.066 136.058 206.163 132.326 204.415 129.057C202.665 125.785 200.445 123.454 199.426 119.741C198.604 116.736 197.961 114.197 197.584 111.038C197.05 106.55 197.174 101.368 195.86 97.0443C195.433 96.0579 194.746 95.0831 194.194 94.1652C193.099 92.3466 191.972 90.5634 190.741 88.8403C189.726 87.4192 188.611 86.1813 187.492 84.8508C190.592 78.6103 196.272 73.1745 203.199 71.6007Z" fill="#25252F"/>
<path d="M230.875 110.116C231.046 110.112 231.227 110.109 231.394 110.161C234.496 111.143 234.352 114.06 233.738 116.605C233.552 116.708 233.401 116.777 233.21 116.867C233.028 116.579 232.981 115.078 232.947 114.627C232.786 112.558 232.152 111.639 230.875 110.116Z" fill="#F0F4FF"/>
<path d="M66.2101 56.9326C72.8382 61.0626 78.5419 63.1625 86.4577 63.7138C89.2782 63.9102 93.8142 67.3603 96.1474 69.0079C99.5028 71.3771 103.482 73.738 106.162 76.9025C108.673 79.8672 110.293 83.5922 112.856 86.5451C114.473 88.4307 116.214 90.0661 117.945 91.8449C118.975 92.9043 119.927 94.2787 120.786 95.4851L120.825 95.6077C122.461 97.2295 126.376 102.225 121.917 103.141C117.661 104.015 113.288 100.071 110.559 97.2557C109.243 95.8985 108.094 93.6655 106.699 92.3032C105.303 91.0302 98.6159 85.1943 97.1675 85.5327C97.0681 85.8449 97.0321 85.9516 97.1932 86.3146C98.2075 88.6011 98.988 89.1239 101.112 90.137C103.347 91.0398 102.587 92.9298 103.218 94.4447C105.314 99.4766 105.346 104.195 105.794 109.504C105.887 110.602 106.568 112.601 106.83 113.805C107.361 116.243 107.982 118.739 108.671 121.149L109.43 121.532C110.004 122.688 112.012 126.394 112.223 127.498C112.812 130.572 111.74 134.087 112.116 137.491C111.585 137.754 111.023 138.062 110.495 138.34C109.963 137.173 109.412 136.015 108.844 134.867C109.523 135.491 110.734 136.703 111.501 137.066L111.682 136.947C112.004 134.824 109.564 133.972 108.637 133.171C106.557 131.374 105.007 127.952 103.249 125.873C100.9 123.094 99.5824 120.799 98.6986 117.259C97.2572 112.37 94.8265 105.872 90.7799 102.591C91.721 105.237 92.5281 106.653 93.846 109.133C94.2171 109.831 94.8799 111.852 95.1582 112.673C92.5067 110.771 89.4243 109.623 86.9678 107.721C86.0124 106.982 84.6827 104.389 83.6103 103.234L83.4563 103.07C83.5979 104.193 83.8883 105.427 84.1235 106.545C81.1599 103.888 80.9484 102.085 78.6803 99.0003C76.8992 96.5784 75.0682 94.6669 73.1164 92.3957C69.8843 88.635 66.5009 84.0515 62.7974 80.7907C61.5925 79.73 57.8389 77.96 56.2422 77.0992C57.9423 70.8505 59.8877 59.8517 66.2101 56.9326Z" fill="#25252F"/>
<path d="M118.225 96.1816C119.023 96.7314 119.279 96.5951 120.218 96.5277C119.835 97.2528 118.756 98.2454 118.143 98.8644C118.92 100.51 119.406 101.386 120.57 102.776C120.098 102.776 119.543 102.702 119.066 102.653L118.992 102.597C116.203 100.467 115.377 98.8975 118.225 96.1816Z" fill="#F0F4FF"/>
<path d="M120.785 95.484L120.824 95.6066C120.576 95.926 120.353 96.1543 120.212 96.5271C119.272 96.5945 119.016 96.7308 118.219 96.1811C119.314 95.4116 119.446 95.4286 120.785 95.484Z" fill="#F0F4FF"/>
<path d="M145.609 51.7793C146.02 52.2158 148.008 55.7703 148.617 56.6486C151.221 60.3536 153.981 63.9323 156.252 67.8621C158.493 71.649 160.239 75.5655 161.968 79.6028C164.8 86.2343 168.948 92.182 172.658 98.3322C174.254 100.979 177.471 108.81 179.982 110.265C180.315 110.271 180.659 110.257 180.969 110.405C185.228 112.449 189.569 109.458 192.498 106.512C193.416 105.588 194.347 104.563 194.807 103.37C195.431 110.143 195.192 115.423 197.771 122.139C199.16 125.758 201.377 128.068 203.076 131.45C204.649 134.583 205.515 138.037 206.813 141.367C207.227 142.493 207.439 143.326 207.73 144.477C206.253 143.373 204.053 142.248 202.473 141.203C200.367 139.812 198.067 138.255 196.098 136.672C191.889 133.277 188.296 129.107 184.287 125.487C178.976 120.665 172.787 116.517 168.266 110.883C166.191 108.297 164.155 105.386 162.126 102.729C160.833 101.038 159.637 98.6154 158.437 96.7919C156.9 94.4565 155.341 92.0452 153.919 89.6437C149.475 82.1576 145.664 74.3152 142.523 66.1974C146.469 61.4316 147.344 57.637 145.609 51.7793Z" fill="#25252F"/>
<path d="M55.8626 79.0752C59.4954 81.1299 62.3643 83.2005 65.086 86.3392C62.5448 91.1627 61.831 95.2823 58.6938 100.314C57.8689 101.653 56.5414 104.478 54.7533 104.164C54.5455 104.018 54.3602 103.865 54.2247 103.647C51.8288 99.7864 54.7411 83.6294 55.8626 79.0752Z" fill="#25252F"/>
<path d="M186.691 86.9033C188.896 88.7877 192.636 95.8443 193.778 98.7142C194.245 99.8856 194.452 100.968 194.606 102.211C192.293 104.1 191.049 106.081 188.339 107.539C185.856 108.545 180.873 110.736 181.481 105.39C181.748 103.039 183.202 100.187 183.759 97.8307C184.635 94.1388 185.54 90.5315 186.691 86.9033Z" fill="#25252F"/>
<path d="M210.137 146.585C212.826 146.172 212.997 146.981 213.43 149.605C213.597 150.613 213.807 151.656 214.025 152.656C213.281 152.946 210.763 153.672 210.508 154.234C211.366 154.71 212.153 154.355 213.075 154.791C214.095 154.202 215.928 153.357 215.928 152.729L215.472 152.469C215.273 152.015 215.366 151.077 215.383 150.535C215.991 149.869 216.93 149.241 217.492 148.587C217.877 148.139 218.048 147.148 218.581 146.605L218.95 146.732C219.318 147.42 218.631 150.465 218.679 151.774C218.752 153.734 218.76 154.127 219.174 156.034C219.044 155.793 218.911 155.553 218.777 155.315C218.567 154.929 218.506 154.67 218.109 154.503L217.975 154.789C218.132 157.369 219.975 160.393 221.702 162.335C221.987 162.655 223.029 162.472 223.416 163.271C223.199 163.729 223.363 163.573 222.952 163.791C222.068 163.463 221.681 165.892 221.287 165.047C219.214 164.965 219.262 165.768 217.492 165.047C216.796 164.764 215.297 164.127 214.377 163.791C213.875 163.295 211.169 162.528 210.851 161.808C208.951 161.252 207.838 159.377 206.056 158.85C203.396 158.064 199.956 144.199 198.859 142.961C198.836 142.911 198.812 142.861 198.789 142.81C198.703 142.61 198.622 142.41 198.546 142.206C198.141 141.107 206.237 146.739 207.505 146.342C208.298 146.432 208.186 147.129 208.324 147.72C208.647 149.09 208.896 152.972 209.837 153.857L210.058 153.73C210.816 151.534 210.379 148.863 210.137 146.585Z" fill="#25252F"/>
<path d="M219.408 122.897C219.762 123.356 220.813 126.095 221.411 127.142C220.769 130.299 220.903 132.468 221.38 135.545C219.874 135.65 219.587 135.703 218.145 136.23C217.826 135.242 215.027 127.758 215.632 127.223C217.592 125.492 218.137 125.359 219.408 122.897Z" fill="#25252F"/>
<path d="M228.647 162.903C229.841 161.791 231.14 160.152 232.832 159.94C233.337 160.269 233.513 160.729 233.692 161.307C234.654 164.423 229.145 168.446 226.407 167.815C226.108 167.487 226.117 167.487 225.924 167.081C225.176 166.778 223.835 166.594 223.648 165.443C223.968 164.996 223.815 165.085 224.27 164.878C225.074 163.796 225.234 163.516 225.739 162.274C226.866 162.667 227.447 162.802 228.647 162.903Z" fill="#25252F"/>
<path d="M224.27 164.877C224.938 165.523 225.412 166.307 225.924 167.08C225.176 166.777 223.835 166.593 223.648 165.442C223.968 164.995 223.815 165.084 224.27 164.877Z" fill="#F0F4FF"/>
<path d="M241.11 123.193C241.554 123.552 244.688 135.371 244.794 137.009C244.878 138.34 242.363 141.195 241.425 142.356C240.743 143.237 240.265 143.731 239.477 144.53C240.212 143.064 241.17 141.623 241.557 140.016C242.279 137.037 241.475 126.551 241.11 123.193Z" fill="#25252F"/>
<path d="M107.461 107.455C108.449 107.904 108.842 108.262 109.699 108.947C110.449 108.643 110.901 108.379 111.601 107.981C112.061 109.114 113.442 112.825 113.231 113.901L112.758 114.182C111.585 114.638 110.406 115.081 109.223 115.511C108.884 112.577 107.692 110.062 107.461 107.455Z" fill="#25252F"/>
<path d="M113.351 116.199L113.589 116.285C114.193 117.836 113.664 123.688 113.451 125.473C113.125 124.777 112.711 124.017 112.355 123.327C111.256 121.425 109.918 119.612 109.266 117.531C110.866 117.389 111.98 116.993 113.351 116.199Z" fill="#25252F"/>
<path d="M218.825 138.488C219.414 137.703 219.71 137.005 220.73 136.916C220.903 136.97 221.439 137.072 221.464 137.244C221.85 139.779 219.905 142.373 219.656 144.911C219.584 145.633 219.455 146.302 218.952 146.731C218.567 146.014 219.054 144.329 219.1 143.409C219.182 141.719 219.177 140.151 218.825 138.488Z" fill="#25252F"/>
<path d="M108.541 101.294L108.897 101.316C109.499 101.886 111.565 106.244 110.879 106.88L110.356 106.803C109.44 106.346 108.445 105.79 107.458 105.562C107.46 104.178 107.096 102.965 107.327 101.889C107.772 101.396 107.839 101.496 108.541 101.294Z" fill="#25252F"/>
<path d="M227.166 157.109C228.416 157.993 229.303 158.336 230.739 158.858C229.742 159.504 229.438 159.789 228.709 160.694C228.437 161.153 228.401 161.303 227.957 161.555C227.349 161.633 226.77 161.266 226.18 160.992C226.627 159.649 226.865 158.488 227.166 157.109Z" fill="#25252F"/>
<path d="M104.367 92.377C105.001 92.6872 108.021 98.6104 108.36 99.5317C107.746 99.5769 107.229 99.6727 106.745 99.3473C106.264 97.8274 105.782 96.3003 105.263 94.7932C104.973 93.9509 104.528 93.2508 104.367 92.377Z" fill="#25252F"/>
<path d="M209 73.4004C209.716 73.8014 209.928 74.3938 210.1 75.1624C209.625 74.7488 209.188 74.004 209 73.4004Z" fill="#F0F4FF"/>
<path d="M72.9672 103.287L73.1154 103.481C73.0665 105.448 70.9091 109.409 69.8451 111.191C62.3792 123.696 51.5085 135.583 38.9781 143.153C35.6765 145.148 33.4035 146.416 29.6363 147.387L29.5547 147.227C30.5814 146.492 31.995 145.84 33.1122 145.162C34.7671 144.155 36.3743 143.117 37.9719 142.022C46.9924 135.753 54.9877 128.128 61.6737 119.418C64.5518 115.645 67.3722 111.75 69.837 107.7C70.8112 106.1 71.5971 104.6 72.9672 103.287Z" fill="#F0F4FF"/>
<path d="M87.2827 15.3438L87.4316 15.4945C87.8425 17.8149 82.4925 34.458 81.2338 37.6058C80.4466 39.5745 78.7624 44.1133 77.6183 46.1175C76.2145 48.5765 74.8586 52.2274 72.0371 53.1328L71.8294 52.7409C71.7509 51.4778 75.2254 45.9899 76.0622 44.2148C78.9155 38.1621 81.0143 32.1895 83.2241 25.8975C84.3876 22.5847 85.6147 18.3442 87.2827 15.3438Z" fill="#F0F4FF"/>
<path d="M121.208 61.4629L121.284 61.4937L121.302 61.6642C117.496 65.4575 111.848 72.7794 107.026 74.138L106.867 73.8896C110.24 71.1247 117.297 62.962 121.208 61.4629Z" fill="#F0F4FF"/>
</svg>
