<svg width="250" height="159" viewBox="0 0 250 159" fill="none" xmlns="http://www.w3.org/2000/svg">
<g clip-path="url(#clip0_3659_9974)">
<path fill-rule="evenodd" clip-rule="evenodd" d="M92.3916 10.1347C100.277 2.85869 114.469 -2.02576 125.061 0.825151C129.491 2.01779 136.978 6.75541 140.359 9.873C142.028 9.8478 142.812 9.99695 143.984 11.2656C145.972 13.4179 148.05 15.5715 149.958 17.7949C151.683 19.804 154.361 22.0868 155.73 24.2587C157.739 27.4411 159.019 31.1815 161.074 34.3535C162.734 37.0225 164.937 39.4968 166.477 42.2246C167.815 44.5968 168.528 47.4558 169.725 49.9101C172.579 56.524 177.013 61.1152 182.122 66.0683C187.965 71.7334 194.224 74.7538 201.374 78.4199L220.344 88.1123C223.048 89.5068 229.242 92.5745 231.554 94.2314C238.136 98.9496 245.216 105.392 250.002 111.86C249.312 112.52 248.321 113.529 247.612 114.117C243.985 109.006 238.608 102.518 233.544 98.7626C230.088 96.1991 224.012 93.1821 220.062 91.0732L202.452 81.6367C189.204 74.5242 174.978 67.0378 167.263 53.4765C167.655 52.9887 167.808 52.9569 167.895 52.3916C167.499 51.1807 165.872 48.5963 165.168 47.413C164.62 47.8914 163.974 48.4898 163.378 48.8818C163.398 48.2412 163.442 47.4554 163.422 46.8261C161.571 45.2143 160.357 43.9281 158.494 42.0986C156.942 40.5724 154.464 38.4428 153.012 36.8261C150.707 34.2894 148.555 31.769 146.129 29.3496C145.017 28.2612 142.856 26.6838 141.547 25.8603C138.058 23.3685 137.852 25.5467 136.812 25.8701C136.264 26.5618 137.331 28.0386 138.483 29.3037C138.762 29.3811 139.043 29.4583 139.325 29.539L139.182 30.04C139.773 30.6374 140.302 31.1204 140.55 31.3437C141.388 32.0994 142.752 31.6078 143.042 31.8418C142.773 32.1138 142.458 33.4188 142.544 33.7685C143.04 35.8022 144.305 37.6373 146.053 38.8203C147.425 39.7483 148.079 39.0962 149.522 38.8203L147.528 40.3154C149.449 44.1694 148.545 42.846 152.513 43.3066C149.26 44.7031 150.71 45.4662 152.015 48.789C153.132 51.6327 155.367 51.3564 157.996 51.2812C157.444 51.958 157.537 51.9284 156.999 52.6152C155.747 52.5754 156.418 52.4182 155.163 52.2392C154.962 52.7726 154.741 53.3338 154.564 53.872C155.448 54.881 156.202 55.5693 156.596 56.8662L156.539 57.1855C156.327 57.2743 155.646 57.5036 155.655 57.6562C155.82 60.3344 157.288 64.5808 158.699 66.7568C159.771 68.4092 160.903 69.0079 162.184 69.7607C161.478 69.6556 160.777 69.4699 160.121 69.6757C159.467 70.3457 160.24 71.3286 160.641 72.0478L158.903 74.1181C157.504 71.3325 157.688 70.3606 156.743 67.5918C156.294 66.2753 154.513 64.0191 154.235 62.4287C153.956 60.8376 154.252 59.6741 154.024 58.0556C153.615 57.5887 152.086 55.8697 152.731 55.2382C153.271 54.7098 154.302 53.2704 153.604 52.6152C152.084 52.4327 151.826 54.1635 151.33 55.2431C150.469 57.115 150.348 58.4264 150.363 60.4384C149.03 61.8781 148.643 62.5033 148.635 64.5595C148.622 67.5686 151.359 71.3501 153.583 73.248C155.702 75.0553 159.798 78.7101 162.734 78.5244C163.951 78.4472 164.954 77.5395 165.9 77.5371C166.12 77.764 166.113 77.8591 166.198 78.166C166.613 78.3585 167.407 78.3678 167.874 78.3789C170.452 78.4399 172.632 77.5061 174.761 76.1337L173.308 77.5517C176.557 80.6992 180.064 83.6826 183.336 86.7919L181.647 88.4462C178.354 85.3421 174.785 81.8348 171.435 78.8525C170.224 79.2821 168.984 79.7378 167.768 80.1386C172.28 82.3563 177.086 87.6934 180.752 91.3232L194.957 105.448C198.052 108.531 201.165 111.596 204.296 114.644C205.884 116.19 207.629 117.709 209.095 119.352C210.892 121.364 211.676 124.204 213.03 126.508C215.971 131.751 222.904 142.178 229.477 142.743C228.795 143.406 227.984 144.235 227.277 144.847C222.867 142.642 218.579 140.092 215.542 136.107C212.475 132.083 210.751 127.107 207.842 123.015C205.43 127.569 204.45 132.273 204.871 137.391C204.964 138.517 204.833 142.022 206.078 142.492C209.048 143.616 212.301 144.389 215.37 145.235C220.044 146.541 224.729 147.812 229.423 149.051C234.703 150.434 244.12 152.931 249.32 151.242C248.111 152.64 246.979 153.442 245.098 153.588C238.642 154.093 211.55 147.635 205.739 144.504C204.964 145.85 204.388 146.603 202.796 147.038C202.708 147.062 202.62 147.085 202.532 147.104C199.794 146.549 196.654 145.615 193.957 144.83C187.171 142.853 180.198 141.199 173.438 139.173C174.375 138.289 175.057 137.592 175.924 136.639C182.673 138.521 189.402 140.477 196.107 142.508C193.062 135.405 194.967 128.104 199.25 122.017C198.166 124.972 196.059 131.156 196.59 134.347C196.763 135.389 197.649 137.443 197.788 138.71C197.882 139.571 197.814 139.995 197.835 140.819C198.385 141.795 198.673 141.493 199.506 142.223C198.469 137.776 199.022 132.343 202.107 128.786C200.48 132.952 200.256 137.849 202.088 141.991C202.169 142.175 202.252 142.359 202.337 142.543C201.98 143.07 201.645 143.551 201.331 144.107C201.681 144.624 202.545 144.6 203.076 144.347C203.272 144.139 203.504 143.799 203.438 143.489C201.884 136.197 202.724 128.211 207.213 122.093C200.176 113.835 192.123 108.049 185.357 99.9443C184.461 100.368 183.196 100.937 182.436 101.525C180.376 103.119 180.1 104.287 177.604 105.329C180.289 102.624 181.53 101.401 184.716 99.206L181.32 95.6416C174.851 98.6396 174.799 100.705 172.104 107.192C170.053 112.131 171.481 114.425 166.646 117.853L166.729 117.693C167.428 116.314 167.949 114.439 168.529 112.902C170.239 108.375 171.833 102.388 175.061 98.6962C176.289 97.292 178.884 95.7199 180.483 94.8066C179.23 93.5742 177.965 92.354 176.688 91.1464C174.882 92.67 170.914 96.3378 169.072 97.2763C171.017 95.1435 172.997 92.9544 175.187 91.0771C172.245 91.008 171.413 90.9544 168.62 90.3623C165.855 89.7758 161.369 87.211 158.964 87.6406C154.642 88.4126 149.782 90.9909 145.735 92.7431C147.347 91.5556 149.19 90.1302 150.871 89.0947C145.332 88.7628 144.476 91.6358 140.447 92.7412C141.687 91.9322 143.032 91.097 144.167 90.166C143.446 89.9004 142.655 89.6292 141.947 89.3457C141.058 89.8892 135.739 93.311 135.219 93.1972C134.962 92.5634 134.89 92.3173 134.728 91.6611C132.27 92.6886 129.556 93.7007 126.878 93.9824C120.188 94.6854 111.518 91.9175 105.451 89.4248C102.193 88.0668 99.0129 86.5291 95.9258 84.8183C89.5676 94.1227 85.834 107.548 82.1982 118.224C79.3495 126.432 76.4421 134.622 73.4775 142.791L70.7783 150.276C69.9521 152.6 69.1377 155.036 67.9414 157.21C67.4989 158.014 66.3862 158.85 65.6143 159.343C70.8146 146.125 76.0114 131.613 80.7344 118.21C82.8308 112.149 85.0244 106.121 87.3154 100.13C89.4985 94.4222 92.4036 85.8939 97.3926 82.3369L97.3906 82.3339C100.323 80.3272 102.494 79.6034 104.714 76.7568L105.061 76.9111C102.71 79.9105 100.95 81.0508 97.5186 82.5019L97.5205 82.5048C98.7104 82.746 101.089 84.2237 102.278 84.7939C107.411 87.2548 112.883 90.3253 118.528 91.3164C120.84 91.7223 124.212 91.7232 126.548 91.705C128.885 91.6868 131.834 91.5143 134.067 90.8564C135.031 90.5729 135.959 89.9706 136.346 89.0332C137.204 86.9521 137.289 84.5206 137.978 82.3183C139.221 78.3396 140.92 74.5085 142.166 70.5507C142.775 68.621 142.635 65.2395 143.232 63.2753C144.038 60.6331 144.619 59.112 145.097 56.3984C145.755 52.6638 144.497 45.2315 146.053 42.2441L146.129 42.0986C145.007 40.9533 143.979 39.8423 143.06 38.5224C142.044 37.2101 140.978 34.8932 139.836 33.7685C137.923 31.8837 136.509 31.1526 135.371 29.6572C128.312 27.926 122.673 27.5965 116.02 29.6093C115.764 29.9286 115.498 30.2193 115.215 30.4707C111.738 33.5626 113.044 36.5632 111.039 40.7041C112.224 39.8044 113.582 38.1165 114.643 37.4003L114.641 37.4013C116.616 35.6211 119.721 33.7899 122.02 32.3349L122.089 32.5097L122.165 32.8076C122.87 33.1757 123.27 33.1154 123.958 33.3408C123.536 34.0119 122.981 34.9121 122.269 35.2939C121.301 35.288 121.802 34.2548 121.092 33.8876C119.58 33.964 116.383 36.247 115.291 37.3427L115.026 37.3662L115.296 37.3427C116.183 37.616 117.374 37.1277 117.963 37.6064C117.913 38.2971 116.502 40.127 115.784 40.0898C115.234 39.2865 115.985 37.8077 115.077 37.5097C113.729 38 110.193 43.4088 108.188 44.8642L107.711 44.6494C111.395 40.4863 109.46 37.1383 111.308 34.0166C111.78 33.2183 112.615 32.59 113.274 31.9423C113.966 31.2624 114.818 30.0193 115.657 28.54L115.655 28.5332C115.658 28.5325 115.66 28.5309 115.662 28.5302C117.465 25.3514 119.206 21.0823 119.148 18.9345C119.136 18.4641 119.041 18.2343 118.716 17.915C118.099 18.0031 117.977 18.313 117.312 18.6894L117.036 18.5927C116.85 17.7243 117.855 17.4868 117.168 16.7207C116.238 16.5382 114.742 17.5865 114.424 18.4443C114.756 18.7975 115.854 18.8833 116.579 19.3681L116.596 19.5703C115.762 20.2581 113.749 19.9899 112.711 19.9062C113.85 18.3048 115.231 16.3784 117.049 15.5605C122.277 13.2087 121.781 18.9861 120.157 21.9296C119.128 23.6404 118.194 26.1361 117.009 28.1503C123.008 26.5763 128.303 26.8662 134.528 28.29C134.291 27.8119 134.066 27.2633 133.85 26.6191C134.637 24.6607 136.042 23.7012 137.658 22.4306C134.293 20.03 134.799 16.9915 137.368 14.2412C137.255 13.4989 137.406 12.7947 137.513 12.0478C136.961 10.7614 132.798 7.77496 131.497 6.94624C124.384 2.41754 119.137 1.07354 110.812 3.03999C105.197 4.36625 104.662 3.92918 99.1787 6.91988C98.2793 7.51039 91.7117 12.4887 91.1562 13.3994C87.5546 19.3035 86.3094 25.7965 86.7754 32.6289C86.8514 33.7432 86.8739 35.0623 87.0986 36.121L87.3154 36.1513C87.9213 35.5817 88.1119 34.4349 88.374 33.6533C89.5776 30.0643 91.584 26.6987 93.3203 23.3349L93.7402 22.375C93.8942 22.0434 94.0614 21.7228 94.2402 21.4814C94.6146 21.6505 95.0212 21.8459 95.4287 21.9169C96.2215 22.0552 97.1115 21.38 97.6367 22.0322C97.3064 23.5507 94.3795 22.5032 93.5205 23.332L93.4443 23.4179C93.0588 24.5802 92.6798 25.7459 92.2363 26.8916C91.9467 27.6393 91.2269 28.2394 91.1562 28.8496C91.8327 29.2025 92.6694 28.1789 93.5332 28.1875C93.9132 28.6835 93.3478 29.6407 92.9131 29.9716C92.1956 30.5176 91.0812 30.4339 90.459 31.1425C89.6446 32.1924 89.4328 34.4883 88.959 35.7714C88.2966 37.5645 87.2925 38.9552 86.7959 40.7832C86.5774 41.5879 86.7462 41.8927 86.0566 41.9834C85.8159 41.8699 85.7455 41.797 85.5352 41.6376L85.5342 41.6386L85.5332 41.6376C84.5829 41.1809 83.9221 40.6965 83.1377 41.6298C82.8138 42.7558 83.4129 43.5289 84.0527 44.3828L84.4736 44.5625L84.4746 44.5615C83.7965 47.0581 83.7405 49.0393 83.2881 51.5087C83.0461 52.8299 81.9258 54.6087 81.4492 55.8925C80.191 58.7882 78.725 62.3222 78.3828 65.4687C78.326 65.9927 78.5105 67.4826 78.5791 68.039C79.2855 67.096 80.0208 66.0787 80.7432 65.1562C81.1556 67.0011 76.5389 73.6175 73.6553 77.331C69.6685 82.4649 65.5631 87.7879 61.2031 92.6142C58.8407 95.2292 42.2702 111.448 39.2705 114.407C39.2697 114.408 39.2694 114.408 39.2686 114.409C39.2174 114.46 39.1701 114.506 39.127 114.549L38.9541 114.679C38.91 114.71 38.8589 114.742 38.8047 114.779C32.3524 119.96 22.2439 129.511 16.8311 135.466L16.9043 135.492C14.0841 138.643 10.5284 143.244 7.98926 146.672C5.22115 151.125 3.84961 154.435 0 158.234C1.67967 145.275 7.61843 138.131 17.5107 129.949L17.8379 130.135C15.6397 132.17 12.7909 134.706 10.751 136.815C6.87361 140.827 4.13693 147.355 3.04297 152.793C5.8278 148.332 9.21594 143.786 12.458 139.626C13.1758 138.705 15.3363 136 16.1279 135.22L16.1348 135.222L16.1357 135.22C19.5637 130.979 24.062 126.546 27.9297 122.693C29.4678 121.16 31.3255 119.664 32.7646 118.106L32.7637 118.105C31.1361 117.7 27.1631 121.811 25.7578 122.951C26.0263 122.61 26.0531 122.597 26.1035 122.181L26.9395 121.293C27.5385 113.994 31.9623 104.732 37.2188 99.664C38.7283 98.2086 40.0341 97.1564 41.6309 95.8857C48.5091 90.4116 53.2705 90.8503 61.3174 90.8261C64.6641 87.338 67.8489 83.1948 70.8545 79.4062C72.7973 76.9571 74.4488 74.0654 76.2334 71.4677L75.7305 71.3134L75.8564 71.0419C76.1201 65.5329 74.0529 61.0075 70.5908 56.8251C71.3471 55.1278 72.3214 54.0586 73.9248 53.1103C76.4409 51.6223 78.5884 52.7733 80.8438 54.0742C81.3361 52.4543 81.5905 49.3341 81.7852 47.5742C81.6951 47.4629 81.6477 47.3954 81.5635 47.2822L81.4346 47.1123C80.7446 46.1803 80.6318 44.8759 80.5811 43.7412C80.4061 39.824 81.1572 37.7329 84.4814 35.7548C84.5038 26.9169 85.4808 16.5117 92.3916 10.1347ZM59.4072 93.0918C53.6195 92.078 46.9597 92.3665 42.1758 96.1162C36.9792 100.189 29.7951 110.75 29.6973 117.537C30.4789 117.115 32.634 115.787 33.2832 115.592L33.3984 115.682L33.0117 116.287L33.1104 116.431C35.1243 116.461 36.7957 114.95 38.3408 113.742C40.7306 111.433 57.2215 95.558 59.4072 93.0918ZM145.896 61.4726C144.165 65.2055 144.513 66.7271 143.788 70.3671C143.176 73.4335 140.964 77.225 140.026 80.2812C139.365 82.0816 139.313 84.2761 138.735 86.2324C138.387 87.4151 136.839 90.2548 136.852 90.9873C137.809 91.0205 142.146 87.4586 143.738 86.8076C147.576 89.5773 148.124 86.4643 152.057 86.8652C152.543 86.9149 153.371 87.3034 153.833 87.5136C156.491 86.5514 158.092 85.9257 160.98 85.8554C166.077 85.9296 168.524 88.5166 174.213 88.832C171.282 86.3041 168.85 83.9783 165.378 82.1591C163.276 80.6846 159.549 81.2884 157.625 80.4433C153.417 78.5936 149.395 73.7156 147.28 69.6884C146.473 68.1506 146.972 62.3423 145.896 61.4726ZM79.8857 56.3232C78.3875 54.5998 76.0205 53.0084 74.7832 56.875C74.6484 57.298 76.0095 58.3131 76.0967 58.7949C76.6369 60.1547 76.8861 61.3742 77.207 62.7744C77.9721 61.4457 79.4342 58.3068 79.7246 56.8388L79.8857 56.3232ZM148.888 53.5976C148.3 54.0042 147.722 54.4273 147.158 54.8662C147.073 55.6686 146.967 56.5181 146.953 57.3203C147.29 57.9205 147.704 58.7479 148.171 59.2226C148.456 59.2511 148.345 59.2974 148.535 59.1562L150.691 55.6572C150.101 54.9725 149.501 54.2578 148.888 53.5976ZM147.479 43.6269C147.22 44.7344 147.18 46.1819 147.164 47.3349L149.49 49.1142C149.83 48.6115 149.279 46.1226 149.189 45.3007C148.661 44.7482 148.07 44.0948 147.479 43.6269ZM139.053 14.8945C138.568 15.0542 136.932 15.5702 136.602 15.9502C136.485 16.9451 137.774 18.2563 138.495 19.0566C139.635 20.3192 141.285 21.9912 143.059 22.3408C143.403 22.4086 143.88 22.1591 144.253 22.0595C144.099 22.4913 143.539 22.9485 143.736 23.3847C144.708 25.5253 147.817 29.1593 149.711 30.4296C150.396 30.1689 150.995 29.9447 151.658 29.6269C151.211 30.0759 150.65 30.6081 150.228 31.0654C152.168 34.0283 157.197 39.2912 160.019 41.457C160.758 41.9703 162.187 41.0356 162.979 41.457C161.443 38.8848 157.098 31.5988 156 29.6269C155.102 28.0141 140.353 14.9366 139.053 14.8945ZM139.763 11.7587C139.369 12.1825 139.23 12.2847 139.102 12.8388C139.328 13.7422 140.78 13.7943 141.664 14.3017C143.089 15.1215 144.132 16.3589 145.415 17.2578L145.642 17.2558C145.324 16.2383 140.923 11.8678 139.763 11.7587Z" fill="#F0F4FF"/>
<path d="M218.136 121.11C225.023 126.937 229.927 129.337 238.409 132.289C237.711 132.698 236.87 133.32 236.193 133.793C235.494 133.747 232.695 132.392 231.945 132.042C226.428 129.466 220.839 126.87 216.047 123.069L218.136 121.11Z" fill="#F0F4FF"/>
<path d="M180.06 126.651C179.429 128.489 179.087 130.683 180.364 132.31L178.638 133.367L178.218 133.482L177.98 133.27C177.5 131.917 177.596 130.138 178.072 128.789C178.452 127.713 179.132 127.239 179.956 126.519L180.06 126.651Z" fill="#F0F4FF"/>
<path d="M26.0996 122.181C26.0492 122.597 26.0215 122.61 25.7529 122.951C25.1326 123.489 23.5874 124.699 23.3555 125.401L23.3574 125.402C23.4798 126.305 22.7656 126.863 22.1846 127.527C20.6735 127.728 20.5567 127.724 19.4043 128.718L19.4062 128.719C18.9309 129.155 18.329 129.738 17.8428 130.135L17.5156 129.949L19.0488 128.586L19.1387 128.619L19.0469 128.585C20.2342 127.404 21.4698 126.271 22.751 125.192C23.4593 124.436 25.2564 122.931 26.0996 122.181Z" fill="#F0F4FF"/>
<path d="M122.023 32.3349C123.92 31.1747 127.864 27.98 129.474 28.7138C133.574 30.5855 125.036 38.3746 123.471 40.3251C122.762 41.2094 121.947 41.64 121.254 42.5283C119.694 44.6308 118.858 46.1044 117.029 48.0263C116.923 50.02 116.554 53.7201 115.907 55.5556C114.176 60.4683 108.188 73.4424 105.065 76.9111L104.719 76.7568C105.873 74.8939 107.153 72.1296 108.12 70.0859C110.124 65.8535 112.327 61.4624 113.702 56.9873C114.33 54.9435 113.448 51.969 114.474 50.2812C115.309 48.9062 116.87 47.4249 117.747 45.9736C118.395 44.9014 118.723 43.1849 119.549 42.3183C120.403 41.4224 122.005 41.0657 123.024 40.2695C124.087 39.439 124.045 38.2389 124.847 37.3144C125.739 36.2865 127.388 35.6801 128.089 34.4365C128.559 33.6022 128.598 32.4695 128.363 31.5517L128.124 31.4111C127.399 31.546 126.511 32.1648 125.595 32.4775L125.439 32.5293L123.699 31.9716C122.971 32.1151 122.766 32.2158 122.093 32.5097L122.023 32.3349Z" fill="#F0F4FF"/>
<path d="M177.188 72.3105C177.564 74.389 171.719 75.9189 170.262 76.2783L170.242 76.1103C170.741 74.4128 174.515 73.7778 175.886 73.1777C176.384 72.9591 176.765 72.65 177.188 72.3105Z" fill="#F0F4FF"/>
<path d="M88.0391 49.913C88.0279 50.2486 87.8613 50.7735 87.7451 51.0966C86.2374 55.2881 85.0502 61.7445 80.8135 63.9755C80.7827 63.8182 81.7894 62.5015 82.041 62.0781C83.4962 59.6284 84.1725 56.5717 85.04 53.8681C85.7653 51.6083 85.9461 51.0389 88.0391 49.913Z" fill="#F0F4FF"/>
<path d="M105.34 47.3828C104.711 48.5091 104.401 50.3546 103.031 50.8564L102.819 50.7138C102.603 49.2783 103.992 47.9116 104.989 47.0761L105.34 47.3828Z" fill="#F0F4FF"/>
<path d="M106.852 13.1064C107.674 13.364 108.789 13.0672 109.287 13.6123C109.513 15.624 107.151 14.7131 106.113 14.3525C105.093 15.4212 104.747 16.1048 104.11 17.4462C104.998 17.4976 106.104 17.4789 107.009 17.4892C106.302 18.4684 105.97 18.7344 104.934 19.3437C104.362 19.2811 103.791 19.2115 103.222 19.1347C102.285 20.0221 101.549 21.675 100.714 22.7421C99.7861 23.9277 98.7955 24.797 97.9844 26.0654C98.816 26.0474 99.9882 25.8685 100.744 26.0576C101.258 26.8692 99.1407 28.4185 98.5127 28.8222L96.6631 28.833C96.1336 30.2754 96.2784 31.6351 95.4912 33.2607C94.4361 35.2938 93.339 37.8558 92.0801 39.747C89.9405 42.9616 89.0128 43.6524 88.7402 47.6796C87.8935 48.3849 87.2996 48.77 86.3838 49.3652C86.3473 48.4476 86.3801 47.5469 86.4033 46.6298C87.7639 44.9478 89.897 42.1043 90.9668 40.2871C92.991 36.8482 94.0128 32.1696 95.6299 28.705C96.1542 27.5758 96.787 26.4998 97.5186 25.4921C98.7149 23.8297 103.222 18.6659 100.802 16.6533C99.8611 16.8335 99.4811 18.0746 98.7773 18.7597C97.951 19.5641 96.8797 19.379 95.7969 19.3349C95.1578 19.973 94.7668 20.5568 94.248 21.2841C95.0451 18.3563 96.8116 15.269 99.8496 14.0546C101.954 13.2136 103.13 15.4714 103.613 17.1748C104.505 15.5748 105.598 14.0409 106.708 12.5859L106.852 13.1064Z" fill="#F0F4FF"/>
<path d="M96.9121 44.9111C97.2869 44.9834 97.139 44.8988 97.3945 45.1279C96.4748 47.0997 96.6019 47.468 95.0098 49.0009L94.793 49.0781L94.6328 48.8896C94.6944 47.4091 95.6965 45.746 96.9121 44.9111Z" fill="#F0F4FF"/>
<path d="M108.188 44.8642C107.231 45.8641 106.415 46.5086 105.343 47.3818L104.992 47.0751C106.049 46.2308 106.739 45.5874 107.711 44.6494L108.188 44.8642Z" fill="#F0F4FF"/>
<path d="M107.542 11.6201C111.265 7.73602 114.174 10.2045 113.764 14.5195C113.467 17.64 110.15 21.7364 108.972 25.0302C110.558 23.4187 111.283 22.1724 112.508 20.2822C112.886 20.7386 113.089 21.0594 113.613 21.3339C113.995 21.3607 114.219 21.3549 114.603 21.3388L114.692 21.5175C114.099 22.4644 111.658 22.9555 110.872 23.581C110.26 24.0683 109.564 25.8291 109.007 26.5312C107.888 27.9418 106.355 28.9771 105.281 30.3798C104.949 30.8139 104.697 31.8999 104.546 32.4843L104.13 31.8789L103.975 31.8906C103.629 32.7616 103.676 33.438 103.395 34.2197C102.273 37.3372 100.426 41.1753 97.7969 43.2119C98.8204 41.1395 99.9182 39.1383 100.957 37.0849C101.345 36.3185 101.6 34.3006 102.09 33.4892C103.274 31.5272 105.001 29.8618 106.295 27.9384C107.184 26.6161 106.918 25.4813 107.523 24.2265C108.006 23.2251 109.099 21.9831 109.722 21.0273C111.305 18.5976 112.241 15.9843 111.301 13.1621C110.875 12.7552 110.541 12.9299 109.97 13.0449C109.618 12.4074 110.289 12.0084 109.779 11.5732C109.087 11.5189 108.428 11.8606 107.776 12.1298L107.778 12.1337C107.282 12.5061 107.158 12.5737 106.854 13.1064L106.711 12.5859L107.545 11.6259L107.542 11.6201Z" fill="#F0F4FF"/>
<path d="M108.049 30.0263C109.366 30.8146 106.518 33.6235 104.626 32.5996L104.56 32.5039C105.388 31.7871 107.116 30.1371 108.049 30.0263Z" fill="#F0F4FF"/>
<path d="M104.56 32.5039C104.551 32.5109 104.544 32.5185 104.536 32.5253C104.54 32.512 104.542 32.4982 104.546 32.4843L104.56 32.5039Z" fill="#F0F4FF"/>
</g>
<defs>
<clipPath id="clip0_3659_9974">
<rect width="250" height="159" fill="white"/>
</clipPath>
</defs>
</svg>
