<svg width="250" height="179" viewBox="0 0 250 179" fill="none" xmlns="http://www.w3.org/2000/svg">
<path d="M120.638 12.5059C125.858 7.01785 129.376 4.79028 136.443 2.15257C140.816 0.52084 147.049 -0.63049 151.645 0.378316C153.183 0.716196 154.557 1.61304 156.073 1.9045C157 2.08284 158.006 1.97592 158.949 2.03788C161.018 2.17369 163.296 2.92181 165.17 3.7841C167.102 4.6738 169.133 5.75833 170.728 7.17056C173.959 10.0284 181.199 20.4729 182.589 24.5465C183.065 25.9417 183.588 27.5178 183.704 28.9837C183.78 29.9494 183.65 30.9655 183.84 31.9148C184.132 33.3846 184.947 34.854 185.458 36.27C186.966 40.4426 186.901 46.0263 184.999 50.0637C184.092 51.9897 182.512 54.9204 180.371 55.6864C180.043 56.8619 179.795 57.6983 179.363 58.8447L180.473 59.4972C180.49 63.0557 179.941 65.5475 179.253 68.9811C178.941 70.5961 179.131 72.8572 178.564 74.3663C177.452 77.3248 176.066 79.9834 175.212 83.0586C179.427 88.9374 179.687 98.0403 180.283 105.087C180.387 106.313 180.233 108.063 180.386 109.236C180.713 111.761 181.653 114.085 181.993 116.666C182.66 121.715 182.693 126.878 183.456 131.9C183.674 133.336 184.78 136.243 185.336 137.714C186.139 139.839 186.607 141.407 187.239 143.576C186.249 146.383 187.729 147.114 187.965 149.643C188.218 152.375 187.057 155.389 185.977 157.853C183.938 162.503 181.949 167.445 178.845 171.524C177.188 173.701 172.689 175.952 169.887 176.207C165.763 176.234 160.027 170.839 157.065 168.289C152.775 164.596 152.366 161.647 150.873 156.52C150.622 155.657 150.622 154.311 150.392 153.732C149.755 152.004 148.008 149.515 147.76 147.755C147.436 145.443 147.888 142.432 149.292 140.575C149.328 140.527 149.258 139.617 149.234 139.481C147.749 131.148 147.375 122.658 146.122 114.306C145.9 112.888 145.602 111.482 145.231 110.095C144.577 107.705 144.37 108.18 144.237 105.477C141.584 107.36 138.393 108.732 136.263 111.067C135.583 111.813 135.128 112.93 134.659 113.801C132.941 116.983 132.043 120.378 130.706 123.712C129.576 126.524 128.324 129.302 127.237 132.14C124.589 139.057 121.988 145.812 118.894 152.555C122.782 157.731 117.786 160.484 114.624 163.85C114.307 164.187 113.809 165.25 113.58 165.717C111.591 169.77 108.897 173.538 105.738 176.765C104.976 177.541 103.822 178.34 102.925 179C104.217 176.306 106.682 173.53 108.429 171.067C110.158 168.699 111.483 166.088 113.055 163.624C113.776 162.493 114.885 161.54 115.764 160.527C116.702 159.448 117.594 158.345 118.599 157.327C117.919 157.109 116.89 156.764 116.293 156.362C114.285 154.922 112.002 152.604 110.354 150.766C106.962 146.985 98.6705 139.843 97.4641 135.019C96.8638 135.745 94.4696 138.579 94.1927 139.118C93.9211 139.647 93.8234 140.279 93.65 140.846C93.2586 142.124 89.1968 145.496 88.0694 146.961C87.0652 148.266 86.3961 150.631 84.9473 151.401L84.8358 151.93C84.6586 151.931 84.5469 151.93 84.3679 151.92C80.2606 156.335 78.4504 162.414 76.296 167.794C76.5282 164.823 77.1291 161.064 78.6892 158.442L78.4612 158.42C78.2965 158.802 78.0217 159.318 77.8147 159.682C75.8311 163.18 74.519 166.863 73.6155 170.772C73.3866 171.762 73.2823 173.094 72.9327 174.042L72.7735 174.105C72.4508 173.86 72.1833 173.427 72.1657 173.03C71.9152 167.388 75.2261 160.526 78.1763 156.123L77.8425 155.975C74.6619 158.582 71.9602 162.599 70.0903 166.226C69.8306 166.729 68.9328 169.204 68.626 169.305C67.8329 168.902 68.9653 166.5 69.1943 165.89C70.8297 161.527 73.6906 157.757 77.2297 154.747C79.5323 152.788 82.348 151.45 84.478 149.301C84.6439 149.132 84.9416 148.323 85.04 148.063C81.0728 149.344 75.5218 153.083 72.6196 155.987C72.3874 156.22 72.0107 156.59 71.7129 156.582L71.639 156.361C71.8922 155.448 72.6768 154.855 73.3075 154.177C75.9156 151.376 79.3412 149.217 82.8772 147.798C83.477 147.557 84.7268 147.421 85.3713 147.332C85.9701 146.843 86.7558 145.552 87.4631 144.764C88.9298 143.083 90.716 141.635 92.1126 139.909C92.1328 139.884 92.7046 137.658 92.7036 137.622C92.3847 137.714 92.5225 137.737 92.2549 137.656C91.9336 136.831 92.1901 133.924 92.1752 132.842C92.1337 129.846 91.263 127.797 92.7096 125.015C92.0804 120.492 87.0978 114.636 84.3708 111.187C83.0888 109.55 81.8264 107.899 80.5835 106.233C79.5703 104.886 76.8563 101.65 77.3446 99.9718C77.7934 99.4708 78.5537 99.6892 79.0438 100.02C82.0708 102.059 85.7601 104.863 86.9591 108.419C86.2052 107.652 85.5266 106.823 84.7859 106.052C82.8001 103.952 80.5688 102.1 78.14 100.532C80.3759 104.442 84.2723 108.627 87.0933 112.216C88.7172 114.281 90.5209 116.18 91.8179 118.539C91.7936 118.098 91.7631 117.658 91.7262 117.218C91.5057 114.639 90.5962 110.67 89.8824 108.124C88.9374 104.754 87.2459 101.079 85.8921 97.8145C83.9467 93.1249 82.174 88.1539 79.2978 83.9395C78.257 82.4145 76.8602 81.3081 75.4599 80.1343C77.8343 80.82 79.509 82.3739 80.8776 84.3973C83.4865 88.2705 85.219 92.5872 87.0407 96.8608C88.8722 101.157 90.9141 105.411 91.9284 110.002C92.2448 111.434 92.226 112.996 92.6755 114.403C92.6462 111.704 92.7011 108.943 92.5376 106.257C92.3807 103.677 91.9038 101.189 91.8418 98.5917C93.6035 102.796 94.2141 109.935 93.7003 114.474C93.4793 116.427 92.8883 116.939 92.9857 119.251C93.0869 121.653 93.9963 121.92 94.326 124.117C94.6068 125.33 93.5114 126.918 93.6141 127.996C93.8945 130.935 94.2209 133.76 93.8157 136.728C94.707 135.678 95.8963 134.228 96.9836 133.397C97.1319 133.284 98.1406 133.031 98.5884 132.784C99.3338 131.699 100.32 129.808 100.985 128.621C102.381 126.156 103.763 123.682 105.132 121.202C108.773 114.616 112.619 108.033 115.91 101.27C116.222 100.629 116.756 99.497 116.884 98.8154C117.05 97.9332 115.099 97.2074 114.57 96.7705C112.202 94.5061 110.514 91.769 109.109 88.8313C107.977 86.5501 106.74 84.2787 105.571 82.0227C104.116 79.2149 99.1389 71.2143 102.612 68.5326C101.777 68.3915 101.068 68.2789 100.23 68.539C98.7163 69.0092 97.6962 69.8457 96.1029 70.2587C94.4268 70.6932 92.7443 71.1587 91.0734 71.6125C89.4946 72.0413 87.8542 72.6166 86.2732 73.004C84.8913 73.3378 83.4653 73.4729 82.0828 73.7996C77.2514 74.9417 71.9273 76.8905 69.0292 81.1636C68.4374 82.0359 68.0458 83.2596 67.6388 84.2354C66.9451 85.8989 66.2908 87.5867 65.7941 89.3176C64.2975 94.6867 63.7075 100.566 63.1707 106.104C62.8708 109.2 62.4908 113.28 62.5088 116.392C62.6482 119.899 63.1834 123.385 63.2269 126.899C63.2619 129.737 63.2267 132.492 63.0405 135.325C62.8492 138.236 62.5839 141.339 62.8827 144.236C63.4341 149.586 64.5165 154.913 65.1061 160.264C65.4249 163.093 64.9058 165.828 65.0718 168.641C65.3077 170.634 65.9837 172.536 66.6464 174.418C66.8555 175.011 67.6571 176.735 67.4756 177.253L67.3038 177.228C65.6287 176.015 64.2162 172.782 63.6519 170.792C62.6543 167.272 63.7161 164.44 63.3183 161.063C62.9025 157.531 62.4258 153.947 61.9604 150.422C61.6377 147.976 61.2053 145.606 61.0522 143.135C60.8398 139.707 61.3249 136.392 61.6215 132.99C61.7923 130.786 61.8908 128.578 61.9168 126.368C61.9563 123.798 61.8584 120.95 61.7597 118.374C61.7128 117.149 61.2458 115.724 61.2323 114.36C61.1982 110.937 61.3767 107.425 61.702 104.02C62.1402 99.4309 62.6686 93.9526 63.9318 89.5392C64.6424 87.0563 66.8937 82.2218 68.1645 79.9685C70.2692 76.2361 76.4766 73.3875 80.5285 72.4035C82.1676 72.0054 84.3068 71.7257 85.8864 71.2932C88.4887 70.5808 91.0204 69.8644 93.647 69.1925C94.2506 65.6726 92.6042 64.9981 92.5342 62.0009C92.3677 54.8673 99.8609 49.7534 103.902 45.2234C102.885 44.9107 102.068 44.4678 101.33 43.6785C99.3275 41.5378 98.8512 36.4507 98.9546 33.7162C99.2475 27.3066 102.09 21.2784 106.853 16.9681C110.508 13.6018 113.225 13.0688 117.963 13.2466C116.193 8.71417 112.554 8.04272 108.531 10.2933C110.173 8.11257 112.846 6.35354 115.655 6.45079C119.248 6.57504 120.784 9.24195 120.638 12.5059Z" fill="#F0F4FF"/>
<path d="M77.8474 155.976C78.2232 155.599 78.586 155.215 78.9992 154.881C78.7706 155.242 78.4378 155.804 78.1812 156.123L77.8474 155.976Z" fill="#25252F"/>
<path d="M78.4629 158.42C78.6358 158.046 78.8029 157.58 79.1366 157.376C79.118 157.752 78.878 158.101 78.691 158.442L78.4629 158.42Z" fill="#F0F4FF"/>
<path d="M110.788 36.7465C110.765 37.0089 110.747 37.2717 110.732 37.5347C110.699 38.1257 110.654 39.3449 111.041 39.7792C111.646 39.4217 111.657 37.3923 111.762 36.6502C112.384 32.2227 113.988 26.8595 115.718 22.7571C118.047 17.2299 123.201 11.1917 128.119 7.74493C130.222 6.27084 133.025 5.07729 135.379 4.13518C140.314 2.16042 145.517 1.07137 150.848 1.55314C151.747 1.63433 152.982 1.68841 153.797 2.03659C153.909 2.35136 154.096 2.79101 154.464 2.8346C157.869 3.2377 161.084 3.74951 164.216 5.27957C165.894 6.09943 168.47 7.55136 169.821 8.91453C173.769 12.9001 176.827 18.0217 179.827 22.745C181.903 25.9947 182.004 30.1825 182.944 33.5587C184.289 38.3933 185.237 41.7894 184.336 46.9361C183.99 48.9099 183.91 49.5135 183.01 51.4243C183.384 46.3728 181.989 43.2643 178.034 40.031C177.883 40.3258 177.727 40.6177 177.565 40.9065C178.257 41.6925 179.073 42.6696 179.698 43.4943C181.134 45.3887 182.677 50.2889 181.887 52.6003C181.671 52.2169 181.623 51.0609 181.507 50.5451C181.26 49.4395 180.72 48.1024 180.079 47.1723C178.458 44.8179 175.944 42.9301 174.017 40.832C173.174 39.9129 172.27 38.1281 171.555 36.9945C171.342 37.3429 171.291 37.4584 171.136 37.8401C172.547 44.1015 178.933 45.4985 179.998 51.4293C180.07 51.8245 178.802 57.5654 178.645 58.5734L178.593 58.7541C178.21 58.8446 178.042 58.8255 177.774 59.0612L177.853 59.2619C178.468 59.4947 178.97 59.2428 179.42 59.4685C179.481 59.6565 179.528 59.6879 179.425 59.8097C178.871 60.4647 178.457 60.4206 177.864 61.1754L177.777 61.291L177.627 61.2609C177.235 62.7822 177.229 64.4265 179.053 64.8052C178.842 66.6052 178.488 68.53 178.25 70.3429C178.108 71.4308 177.923 73.3792 177.652 74.3636C177.149 76.1871 175.904 78.2097 175.173 80.0121C174.381 81.9695 174.017 83.6475 173.43 85.6406C173.297 86.0901 172.455 87.2003 172.209 87.737C171.985 88.2264 171.831 89.1832 171.587 89.5372C171.018 90.3617 170.098 91.1672 169.409 91.9382C167.903 93.6407 166.442 95.3852 165.031 97.1686C163.315 99.3333 161.891 101.06 161.476 103.927C161.33 104.915 161.348 105.919 161.529 106.9C161.801 108.413 162.386 109.934 162.824 111.419C164.459 116.963 166.437 122.424 168.647 127.765C169.412 129.616 170.003 130.295 169.687 132.414C168.982 137.253 165.256 141.08 162 144.486C160.408 146.152 157.798 149.282 155.238 148.843C153.417 148.53 152.511 147.274 151.518 145.893C151.565 144.168 151.083 141.457 150.833 139.659L149.715 131.358C148.823 124.946 148.354 116.201 146.264 110.178L147.952 111.653C147.61 109.658 146.871 108.997 146.086 107.202C145.751 106.438 145.61 105.359 145.475 104.524C147.637 102.99 149.161 101.554 150.864 99.5171C151.83 98.3796 152.674 97.1445 153.384 95.8316C153.827 95.0008 154.599 93.3697 155.112 92.6671C158.537 87.9817 166.143 80.4983 165.564 74.248L165.556 74.1585C165.87 73.6432 166.482 73.4876 167.037 73.2954C167.486 73.3919 167.834 73.5169 168.27 73.4124C168.574 73.1652 168.493 73.3153 168.574 72.9804C168.082 72.045 166.642 72.3786 165.851 72.5215C166.166 69.9566 166.976 65.2059 168.926 63.5674C169.4 63.1427 170.5 62.9655 170.867 62.4624C172.893 59.6878 172.256 58.8064 175.915 58.281L175.986 58.0002C175.889 57.7895 175.835 57.642 175.573 57.5837C172.99 57.0103 171.196 59.0047 170.885 61.403C170.845 61.7152 170.692 61.9326 170.426 62.0842C170.338 62.0791 169.687 62.0382 169.656 62.0471C168.411 62.408 167.589 63.6473 166.881 64.6397C166.554 63.4944 166.229 62.9793 165.237 62.2848C164.495 61.7659 164.404 62.1873 164.01 62.0452C164.249 61.1832 164.781 60.8572 165.07 59.5797L165.1 59.4349C164.711 57.5568 163.509 56.5175 161.563 56.4912C159.373 56.4617 157.519 58.0802 156.036 59.5386L156.055 59.3402C156.249 57.5018 155.069 55.7944 153.128 55.8625C150.019 55.9717 147.294 58.5269 145.122 60.5377C142.543 62.9269 139.733 65.1212 137.233 67.5879C135.75 68.9064 134.369 71.0412 132.877 72.2796C131.302 73.5885 129.917 74.4877 128.393 75.9624C129.167 72.0555 131.387 69.3664 130.946 65.394C130.787 63.9664 130.014 61.8041 128.889 60.8112C128.412 60.3894 127.788 60.4658 127.205 60.5566C125.708 61.6075 127.096 64.6052 125.749 66.7456C125.41 66.3351 125.192 66.1044 124.808 65.7334C125.349 64.5814 126.389 62.3486 126.239 61.0487L126.112 60.9441C125.693 61.2184 125.114 62.9554 124.988 63.5169C124.41 66.1242 122.303 67.7875 121.228 70.0349C120.676 71.1895 120.535 72.7422 119.883 74.0711L119.494 74.0591C119.267 73.6976 119.166 73.1306 119.061 72.7009L119.364 73.0047L119.496 72.9174C119.578 72.5469 119.625 72.3955 119.756 72.0385C119.734 71.0306 119.448 69.3031 119.368 68.2603C119.284 67.1706 119.32 62.804 118.856 62.2217C118.651 62.6661 118.73 62.6692 118.388 62.9243C116.31 62.7017 114.719 61.4118 113.906 59.5232C112.365 55.9412 111.706 52.2916 111.437 48.4199C111.267 45.9808 110.765 42.2869 113.577 41.1554C113.94 41.2255 114.303 41.2977 114.666 41.372C115.173 41.4764 115.933 41.6171 116.336 41.9763C117.748 43.2339 119.519 47.0602 119.979 48.843C120.314 50.3643 119.987 52.4315 121.026 53.7317C123.024 56.2327 126.201 55.2839 128.406 53.7896C128.329 53.3266 128.478 53.3267 128.34 53.0204C126.173 53.8468 122.846 54.8561 121.54 52.1999C121.149 51.4042 121.056 50.8441 120.872 49.9765C122.366 52.0169 123.642 53.3404 126.378 52.665C126.873 52.5426 127.51 52.4476 127.801 51.9922C127.672 51.462 125.369 51.6922 124.478 51.1621C122.672 50.0873 122.961 48.8801 121.633 47.6675C121.5 47.5464 121.204 47.4285 121.114 47.2048C119.016 43.2286 118.364 39.9302 113.158 40.1628C108.933 42.554 109.952 47.4596 110.339 51.4897C110.443 52.5697 110.585 54.5113 110.887 55.5271C111.625 58.0103 112.592 60.9931 114.282 62.9942C114.491 63.2277 115.176 63.6443 115.449 63.8136C112.881 66.7463 109.76 67.6839 106.08 68.3471C105.201 67.8117 104.734 67.6542 103.77 67.3487C107.81 65.6096 109.926 58.0237 109.325 54.0197C109.07 54.7073 108.571 56.7534 108.383 57.5258C107.608 60.7181 106.535 63.3326 104.387 65.8745C103.986 66.3489 103.538 66.7299 103.111 67.1978C99.2875 66.8428 98.6164 68.0629 95.2021 68.8243C95.1957 67.8667 95.1999 66.7048 95.3493 65.7612C96.4976 58.5104 98.4515 52.767 104.385 48.097C101.599 51.7172 99.442 55.4361 98.6253 60.0046C98.2295 62.2188 98.6564 63.719 99.4954 65.7703C99.521 64.3856 99.4425 62.6935 99.6873 61.2963C100.443 56.9827 102.583 52.4751 105.096 48.9204C105.805 47.9167 106.892 46.9822 107.565 46.0464L107.268 46.0249L107.227 45.9205L107.99 44.9333C108.299 44.5292 108.63 44.142 108.559 43.6102L108.395 43.5483C107.576 43.9083 105.648 45.9134 104.837 46.6656L104.504 46.5362C107.62 43.0112 108.91 41.0192 110.788 36.7465Z" fill="#25252F"/>
<path d="M123.612 48.9891C123.978 49.0199 124.12 49.0484 124.489 48.9814L124.57 48.8521C124.444 48.6756 124.386 48.5921 124.283 48.4021C124.749 48.1288 129.999 48.7515 131.508 48.5387C135.438 47.9846 138.756 47.1427 142.458 45.7272C147.963 43.623 152.957 41.8825 157.716 38.3135C160.172 36.473 162.761 33.4867 165.192 32.2753C163.035 34.6214 160.594 37.2965 158.043 39.2915C152.539 43.5588 146.067 46.3842 139.498 48.5791C137.313 49.3091 134.711 49.3607 132.667 50.1169C134.539 50.0589 136.457 50.2375 138.353 50.0393C148.29 49.0009 157.892 45.291 166.474 40.2912C168.59 39.0586 169.799 36.6448 171.889 35.3225C171.702 35.8503 171.453 36.3719 171.222 36.8841C171.091 37.0828 170.912 37.3341 170.798 37.5365C170.178 38.3798 169.251 39.5632 168.456 40.2294C164.169 43.8215 157.63 46.6143 152.394 48.5226C146.632 50.6221 138.494 52.3353 132.408 51.4253C130.764 51.1797 129.895 50.7341 128.508 50.4174C126.233 49.8979 125.782 49.9929 123.612 48.9891Z" fill="#F0F4FF"/>
<path d="M173.617 60.8338C173.841 60.308 176.292 58.2546 176.799 58.4883L176.928 58.8852C177.289 59.1686 177.742 58.5721 178.649 58.5733L178.597 58.7539C178.214 58.8445 178.046 58.8254 177.778 59.061L177.857 59.2618C178.472 59.4946 178.974 59.2426 179.424 59.4683C179.485 59.6563 179.532 59.6877 179.429 59.8096C178.875 60.4645 178.461 60.4204 177.868 61.1753L177.781 61.2909L177.631 61.2608C177.835 60.3543 178.891 60.2421 179.147 59.6792L179.021 59.5648C178.562 59.5496 177.905 59.5245 177.543 59.857C177.348 60.036 177.255 60.2997 177.212 60.554C176.997 61.8092 177.003 63.1447 176.866 64.4155C176.69 66.0594 176.388 67.6838 176.302 69.338C176.235 70.6618 176.338 71.9882 176.311 73.3123C176.289 74.3633 176.177 75.4457 175.944 76.4716C175.767 77.2617 173.485 84.1919 173.22 84.4466L172.998 84.3399C172.293 83.1969 175.143 76.3963 175.324 74.3703C175.757 69.5341 175.496 64.3773 176.25 59.5902C175.578 60.1056 174.822 60.6184 174.129 61.126C173.986 61.0755 174.063 61.0969 173.864 61.0633L173.702 61.0368L173.617 60.8338Z" fill="#F0F4FF"/>
<path d="M177.566 40.9061C177.043 40.346 175.613 39.201 175.575 38.5116C176.154 38.4262 177.568 39.6579 178.035 40.0306C177.884 40.3254 177.729 40.6173 177.566 40.9061Z" fill="#F0F4FF"/>
<path d="M174.266 62.7648C174.537 63.0647 174.751 63.1968 174.727 63.5892L174.511 63.68C173.304 63.3082 173.34 61.825 173.617 60.8338L173.702 61.0368L173.864 61.0633C174.063 61.0969 173.986 61.0755 174.129 61.126C174.214 61.5562 174.242 62.3053 174.266 62.7648Z" fill="#F0F4FF"/>
<path d="M128.338 53.0201C128.904 52.7197 129.545 52.5606 130.171 52.4295C129.563 52.9585 129.106 53.3949 128.405 53.7893C128.327 53.3262 128.476 53.3263 128.338 53.0201Z" fill="#F0F4FF"/>
<path d="M119.756 72.0385C119.971 72.8888 119.668 73.6894 119.883 74.0711L119.494 74.0591C119.267 73.6976 119.166 73.1306 119.061 72.7009L119.364 73.0047L119.496 72.9174C119.578 72.5469 119.625 72.3955 119.756 72.0385Z" fill="#F0F4FF"/>
<path d="M170.798 37.5365C170.912 37.3341 171.091 37.0828 171.222 36.8841L171.554 36.9943C171.34 37.3427 171.29 37.4582 171.135 37.8399C171.038 37.6621 170.992 37.673 170.798 37.5365Z" fill="#25252F"/>
<path d="M169.647 64.6389C169.975 64.1262 171.533 62.6567 172.047 62.4126C172.795 63.3077 172.433 65.8938 172.198 66.9617C171.333 70.8711 171.874 75.2936 171.62 79.1342C171.486 81.1669 169.892 86.9048 169.059 88.8909C168.995 87.891 168.927 86.7315 169.081 85.7389C169.431 83.4676 170.41 81.2755 170.637 78.9753C170.942 75.8714 170.367 71.9408 170.848 68.902C170.932 68.7591 170.844 68.334 170.822 68.1181C170.357 67.7882 170.324 67.719 170.067 67.2161C169.861 67.3477 169.669 67.4607 169.478 67.6135C169.383 66.3756 169.429 65.8602 169.647 64.6389Z" fill="#F0F4FF"/>
<path d="M169.887 64.7431C170.222 64.4697 170.88 64.3992 171.334 64.3094C171.228 65.2137 171.023 67.3269 170.826 68.1181C170.36 67.7882 170.328 67.719 170.07 67.2161C169.865 67.3477 169.672 67.4607 169.482 67.6135C169.386 66.3757 169.432 65.8602 169.65 64.6389L169.887 64.7431Z" fill="#25252F"/>
<path d="M169.65 64.6389L169.887 64.7431C170.038 65.5362 169.997 66.3918 170.07 67.2161C169.865 67.3477 169.672 67.4607 169.482 67.6135C169.386 66.3757 169.432 65.8602 169.65 64.6389Z" fill="#F0F4FF"/>
<path d="M160.15 10.8098C161.269 10.7751 162.959 12.5215 163.642 13.3415C167.289 17.7186 169.793 23.7419 170.67 29.3469C170.871 30.633 170.655 32.5048 170.559 33.8141L170.448 33.8953L170.305 33.828C170.183 33.3641 170.228 32.4756 170.207 31.9501C170.168 31.1523 170.087 30.357 169.965 29.5677C169.448 26.3359 167.316 21.3217 165.781 18.4062C164.622 16.2057 162.797 13.8485 161.067 12.0695C160.702 11.694 160.3 11.2945 160.15 10.8098Z" fill="#F0F4FF"/>
<path d="M168.942 73.5689C169.21 73.5181 169.093 73.4874 169.312 73.6155C169.44 75.0161 167.574 78.8675 167.089 80.4298C166.454 82.474 166.007 84.6513 165.37 86.6685C165.126 87.4425 163.229 91.2887 162.707 91.6563C162.893 89.0516 164.22 88.5411 164.685 86.5603C165.293 83.9599 165.601 81.2503 166.696 78.6918C167.043 77.8794 166.584 77.5516 166.179 76.7784C166.49 74.6476 166.775 73.9495 168.942 73.5689Z" fill="#F0F4FF"/>
<path d="M167.855 74.7726L167.974 74.8324C167.982 75.1503 167.238 76.9527 167.056 77.4975L166.867 77.3389C166.661 76.2208 166.95 75.4475 167.855 74.7726Z" fill="#25252F"/>
<path d="M149.869 37.9438L149.961 37.9639L149.949 38.057C148.848 38.5588 147.504 39.3819 146.553 39.8079C142.931 41.4324 136.045 43.6046 132.084 43.2484C132.007 43.2253 131.847 43.1455 131.768 43.1092L131.775 42.9655C132.068 42.8112 137.818 41.8964 138.956 41.6178C142.704 40.7004 146.211 39.1171 149.869 37.9438Z" fill="#F0F4FF"/>
<path d="M113.353 50.3231L113.773 50.4109C113.821 51.2678 113.869 51.7403 114.015 52.5843C115.331 53.3267 116.489 53.8552 117.375 55.1007C117.478 54.1645 117.539 54.0093 117.978 53.2112C118.18 54.3664 118.746 56.6812 118.238 57.6506C117.892 57.913 118.079 57.8457 117.664 57.8819C116.86 57.516 116.497 55.6279 115.877 55.1617C113.822 53.6165 112.685 53.3884 113.353 50.3231Z" fill="#F0F4FF"/>
<path d="M113.153 43.0925C116.261 42.9276 118.743 47.1782 117.912 49.8579L117.316 48.8459C116.477 47.1875 114.578 42.9315 112.179 44.751L112.065 44.8393L111.883 44.681L111.879 44.4174C112.244 43.7123 112.458 43.4637 113.153 43.0925Z" fill="#F0F4FF"/>
<path d="M170.067 67.2161C170.324 67.719 170.357 67.7882 170.822 68.1181C170.844 68.334 170.932 68.7591 170.848 68.902L170.764 68.8062C170.383 68.7085 170.229 68.6434 169.864 68.4894C169.563 68.1893 169.575 68.0515 169.478 67.6135C169.669 67.4607 169.861 67.3477 170.067 67.2161Z" fill="#F0F4FF"/>
<path d="M113.352 50.3232C113.613 49.5978 113.773 49.1443 114.261 48.5138C114.01 49.2561 113.861 49.6316 113.772 50.411L113.352 50.3232Z" fill="#F0F4FF"/>
<path d="M152.547 56.971C153.44 57.1978 153.621 57.3056 154.339 57.8739C154.623 57.9962 155.176 59.0745 155.031 59.3436C152.615 63.8429 148.108 66.8415 145.153 70.9788C144.02 72.566 142.509 73.9636 141.291 75.4856C140.794 76.1706 139.91 76.957 139.43 77.6057C138.606 78.7191 135.783 79.2604 135.568 80.5723L135.706 80.7475C138.55 81.2057 145.069 72.6656 146.66 70.6401C148.023 69.2593 149.62 67.6132 150.996 66.2886C152.442 64.8949 158.917 56.1627 160.923 57.0696L161.009 57.3307L161.112 57.4056C161.466 57.3196 161.959 57.5402 162.253 57.7386C163.355 58.4842 163.453 59.507 163.452 60.6219C161.439 64.2132 158.947 65.8716 156.459 69.0099C154.934 70.9334 153.795 73.3141 152.228 75.0974C149.548 78.149 146.236 80.5287 144.329 84.2485C144.111 84.6728 143.746 85.3054 143.839 85.7549C144.502 85.8536 145.813 83.5196 146.211 82.9314C148.167 80.0336 150.922 77.825 153.185 75.1911C154.59 73.5534 155.534 71.4207 157.084 69.8618C159.107 67.5668 161.77 65.0863 163.528 62.7398C164.557 63.4325 164.88 63.744 165.396 64.9351C164.92 65.9902 164.586 66.5845 163.677 67.3743L163.436 67.6651C163.588 67.8203 163.516 67.7719 163.633 67.8381C164.414 67.4039 164.631 67.1885 165.279 66.5511C164.142 69.4815 161.1 72.8919 159.286 75.5408C157.938 77.5086 156.69 79.5571 155.269 81.4721C154.518 82.4839 153.17 83.5063 152.387 84.3972C151.192 85.7581 148.574 88.7524 148.461 90.5978C148.43 91.0904 148.336 91.6418 148.271 92.1302L148.354 92.0083C149.162 90.8121 149.557 89.4792 150.431 88.3239C151.12 87.4123 152.097 86.823 152.879 86.0175C154.945 83.8695 156.803 81.5302 158.425 79.031C159.205 77.824 160.82 74.6128 162.271 74.1693C162.392 74.1349 162.471 74.1889 162.531 74.2794C163.064 75.0795 164.475 74.8102 164.692 75.8411C164.751 76.1211 164.538 76.3979 164.35 76.5734L164.477 76.8009C164.508 80.0303 156.777 88.8249 154.718 91.7363C151.75 95.8083 147.451 102.162 143.017 104.712C134.31 109.716 133.33 114.23 129.499 122.768C124.847 133.135 121.222 143.914 116.872 154.44C114.026 151.907 111.945 149.613 109.299 146.962C107.343 145.008 105.418 143.023 103.525 141.009C101.66 139.027 99.9899 137.458 98.8938 134.914C99.1702 133.703 100.268 132.344 100.941 131.244L104.714 124.959C108.252 119.007 111.502 112.736 114.696 106.592C115.989 104.107 117.618 101.627 118.528 98.9791C119.693 95.5909 118.765 88.4783 118.572 84.6427C118.516 83.539 118.368 82.3393 118.495 81.2437C118.739 79.1313 120.198 77.1338 120.823 75.0916C121.339 73.4031 121.421 71.3685 122.262 69.8202C122.63 69.1423 123.889 66.9802 124.554 66.7906C125.076 67.0179 125.155 67.0889 125.713 66.9603L125.749 66.7456C127.096 64.6052 125.708 61.6075 127.205 60.5566L127.243 60.846C128.415 61.5558 129.168 63.2907 129.466 64.5383C130.272 67.8945 129.112 70.5955 128.001 73.665C127.773 74.293 127.519 76.1113 127.428 76.8147C126.804 77.2741 124.104 79.2216 123.714 79.7508L123.768 79.9349C123.963 80.2113 124.019 80.3564 124.286 80.546C127.066 78.2319 130.475 75.9081 133.015 73.3611C136.357 70.0109 139.099 66.6988 142.867 63.7201C145.946 61.2872 148.429 57.898 152.547 56.971Z" fill="#25252F"/>
<path d="M125.752 66.7456C127.099 64.6052 125.711 61.6075 127.207 60.5565L127.245 60.8461C127.617 62.6752 127.965 66.1448 125.715 66.9605L125.752 66.7456Z" fill="#F0F4FF"/>
<path d="M160.159 61.9699C160.599 62.0078 161.281 61.9455 161.359 62.4497C161.036 62.7587 160.261 62.8336 159.835 62.7877C157.668 62.5544 158.452 59.7509 159.434 58.6756C159.883 58.1823 160.483 57.7484 161.009 57.3307L161.112 57.4056C160.2 58.8037 158.104 60.5719 160.159 61.9699Z" fill="#F0F4FF"/>
<path d="M163.778 77.7968C160.452 80.6776 160.101 75.3621 162.129 75.0963C162.268 75.7084 161.29 76.4256 161.844 77.3648C162.255 77.6455 163.072 77.8383 163.558 77.6996L163.778 77.7968Z" fill="#F0F4FF"/>
<path d="M160.929 65.5566C161.528 66.9927 161.951 67.7954 163.675 67.3741L163.434 67.6649C163.587 67.8202 163.514 67.7717 163.632 67.8379C163.195 68.3164 161.58 68.5253 161.135 67.8908C160.705 67.2789 160.882 66.2605 160.929 65.5566Z" fill="#F0F4FF"/>
<path d="M123.768 79.9349C123.963 80.2113 124.019 80.3564 124.286 80.546C123.522 81.3001 122.714 82.115 121.882 82.784C122.555 81.1443 123.271 80.89 123.768 79.9349Z" fill="#F0F4FF"/>
<path d="M164.352 76.5736L164.479 76.8011C164.236 77.2023 164.106 77.4586 163.778 77.7968L163.558 77.6996L164.352 76.5736Z" fill="#F0F4FF"/>
<path d="M152.111 57.3511L152.203 57.3817C152.305 57.5337 152.292 57.4545 152.018 57.7043C151.399 58.2696 150.613 59.2789 150.599 60.1477C150.577 61.5049 152.532 61.2252 153.004 61.6997C152.957 62.0326 152.948 61.9481 152.681 62.2502C148.821 62.8269 149.155 59.1745 152.111 57.3511Z" fill="#F0F4FF"/>
<path d="M164.791 113.363C164.446 112.16 162.174 105.91 162.303 105.097C163.356 98.4286 171.209 94.1298 173.288 87.8816C173.665 86.7494 174.477 85.4134 174.933 84.282C175.178 84.9088 175.416 85.5373 175.659 86.1654C177.021 89.6954 177.573 93.6372 177.958 97.392C178.301 100.549 178.553 103.715 178.714 106.887C178.828 108.863 178.839 110.822 178.987 112.802C179.147 114.948 179.476 117.092 179.848 119.212C179.967 117.919 179.932 116.495 180.056 115.285C180.312 114.796 180.094 114.512 180.473 113.892C180.682 115.437 180.649 116.937 180.765 118.479C181.044 122.18 181.247 125.943 181.901 129.598C182.485 132.727 183.274 135.814 184.263 138.84C184.687 140.135 185.254 141.176 185.609 142.551C185.992 144.03 185.366 144.288 185.441 145.664C185.516 147.056 186.755 148.892 186.744 150.231C186.73 151.851 186.293 153.579 185.754 155.093C185.058 157.056 183.944 158.753 183.05 160.585C181.525 163.704 180.111 166.827 178.352 169.831C178.154 170.17 177.874 170.477 177.932 170.771L178.115 170.841C178.315 170.92 178.361 170.94 178.544 171.065C178.54 171.454 178.207 171.717 177.924 171.967C177.678 171.915 177.77 171.952 177.568 171.775C176.674 172.078 175.304 172.881 174.442 173.275C172.663 174.086 169.261 175.328 167.406 174.144C163.167 171.44 157.976 167.365 155 163.262C154.586 162.691 153.759 160.53 153.672 160.015C153.526 159.145 151.805 154.756 151.8 154.396C151.947 154.199 152.247 153.913 152.15 153.641C151.505 151.838 150.101 149.963 149.47 148.193C148.79 146.283 149.336 143.037 149.463 140.983C149.652 141.908 150.101 143.276 150.201 144.023C149.739 144.464 149.873 143.882 149.56 144.476C149.855 147.583 152.997 150.837 156.325 150.232C159.959 149.573 162.467 146.033 164.999 143.603C168.508 140.163 171.667 135.712 171.269 130.602C171.213 129.878 170.585 129.135 170.602 128.618C171.518 128.816 171.989 130.872 172.306 131.655C172.825 132.932 173.331 134.212 173.909 135.465C174.577 137.145 175.959 138.531 176.654 139.806C178.513 143.223 178.11 148.775 177.046 152.402C176.465 154.384 175.654 156.572 174.965 158.549C175.627 157.461 176.517 156.024 177.021 154.886C178.401 151.772 179.474 147.013 178.923 143.63C179.255 144.218 179.642 144.983 180.086 145.461L180.276 145.485C180.576 145.029 180.49 144.104 180.48 143.534C181.237 144.635 182.076 145.868 182.602 147.092C183.432 149.032 183.897 150.747 184.855 152.652C185.143 148.211 183.444 144.256 180.026 141.412C179.396 140.888 179.073 140.263 178.675 139.573C181.428 140.893 182.615 141.904 184.545 144.255C184.397 143.304 184.361 142.715 183.757 141.919C182.354 140.072 180.058 139.244 177.952 138.476C176.112 135.711 174.643 133.56 173.636 130.333C173.098 128.613 172.338 127.404 170.418 127.029C170.24 126.993 170.061 126.962 169.881 126.935C168.04 122.628 166.824 118.734 165.227 114.439C166.337 113.189 167.34 112.108 168.54 110.942C169.694 109.821 171.236 108.533 172.284 107.372C169.491 108.191 166.506 111.069 164.791 113.363Z" fill="#25252F"/>
<path d="M175.072 94.4494C174.01 98.8386 170.115 104.818 167.261 108.3C166.984 107.642 167.488 107.977 167.053 107.097C168.416 104.979 169.968 103.145 171.345 100.897C172.619 98.8187 173.787 96.3914 175.072 94.4494Z" fill="#F0F4FF"/>
<path d="M167.053 107.097C167.488 107.977 166.984 107.642 167.261 108.3C167.215 108.414 165.915 110.445 165.756 110.698C165.994 109.236 166.367 108.394 167.053 107.097Z" fill="#F0F4FF"/>
<path d="M116.967 64.0983L118.368 63.6638C118.179 66.7102 118.052 69.7831 119.063 72.7006C119.168 73.1302 119.269 73.6973 119.495 74.0588C119.977 75.646 117.587 79.0767 117.32 81.025C116.599 86.2904 118.147 92.443 117.238 97.5737C115.824 95.6128 114.01 93.8346 112.693 91.6343C110.996 88.7449 109.552 85.6949 108.022 82.7104C105.905 78.5801 102.888 74.7376 102.734 69.9533C108.493 70.0999 113.556 69.0561 116.967 64.0983Z" fill="#25252F"/>
<path d="M115.876 14.4574C116.704 14.415 117.724 14.1878 118.221 14.9585C118.221 15.3993 114.924 20.6481 114.479 21.6142C112.449 26.0157 111.699 30.1023 110.789 34.7501C110.336 37.0609 106.551 42.481 104.988 44.0456C104.54 43.8365 104.104 43.5908 103.669 43.3547C101.691 41.9134 101.313 40.03 100.917 37.767C100.773 36.946 100.495 35.8607 100.461 35.0321C100.257 29.9611 102.302 24.3354 105.534 20.4131C108.575 16.8535 111.281 14.9212 115.876 14.4574Z" fill="#25252F"/>
<path d="M112.625 18.8719C113.181 18.8501 113.44 18.8457 113.99 18.9055L114.118 19.1412L114.267 19.0303L114.281 19.0626C114.035 19.2474 111.517 20.253 110.778 20.6354C106.951 22.6142 105.123 26.1198 103.291 29.88C103.121 30.2955 102.861 30.8151 102.668 31.2322C102.754 25.9989 107.355 19.9197 112.625 18.8719Z" fill="#F0F4FF"/>
<path d="M100.599 50.225C100.706 50.4569 100.61 50.4331 100.296 50.7716C99.2412 51.9147 98.348 53.1964 97.6411 54.581C96.1302 57.5551 95.4398 60.5818 94.3755 63.7358C94.157 64.3831 94.0799 65.4564 93.8756 66.0447L93.8183 66.2054C93.6019 65.5369 93.5156 62.8412 93.5413 62.081C93.7016 57.3453 97.3697 53.2998 100.599 50.225Z" fill="#25252F"/>
<path d="M114.845 7.40425C117.817 7.3071 120.028 9.57079 119.75 12.6248C119.716 12.9919 119.61 13.744 119.327 13.9643C119.169 13.7501 119.187 13.3744 119.159 13.0662C118.771 9.78663 116.062 8.01783 112.949 7.84716C113.662 7.63437 114.11 7.53963 114.845 7.40425Z" fill="#25252F"/>
<path d="M165.481 68.906C165.608 69.0929 165.292 72.2387 165.29 72.7395L164.785 73.4753C163.992 73.2736 163.578 73.2083 162.774 73.1672C162.494 73.1645 162.589 73.1809 162.333 73.0876C162.481 72.4205 164.974 69.9904 165.481 68.906Z" fill="#25252F"/>
<path d="M179.398 60.7326L179.49 60.8901C179.461 61.7644 179.429 62.8746 179.142 63.7092C179.039 64.0087 179 63.9552 178.72 64.0691C178.211 63.1435 178.316 62.8282 178.372 61.7697C178.716 61.3156 178.978 61.1043 179.398 60.7326Z" fill="#25252F"/>
<path d="M180.061 115.285C180.054 114.12 180.082 113.004 180.245 111.848C180.312 112.531 180.39 113.213 180.478 113.892C180.099 114.512 180.317 114.797 180.061 115.285Z" fill="#25252F"/>
<path d="M104.504 46.5362L104.837 46.6656C104.139 47.2772 103.455 47.7484 102.66 48.2215C103.244 47.6264 103.859 47.0641 104.504 46.5362Z" fill="#25252F"/>
<path d="M180.865 53.3176C181.309 53.9416 180.733 54.7253 180.414 55.305C180.388 54.771 180.667 53.8073 180.865 53.3176Z" fill="#25252F"/>
<path d="M84.3707 151.92C84.5497 151.929 84.6614 151.931 84.8386 151.929L84.95 151.401L84.9595 151.514C85.0694 152.985 84.8559 154.644 84.988 156.128C85.4569 161.389 87.1219 167.711 88.9979 172.646C85.7805 167.867 84.5631 162.845 84.264 157.122C84.1741 155.402 84.4329 153.451 84.3707 151.92Z" fill="#F0F4FF"/>
<path d="M95.7867 145.786C96.1499 146.059 96.5617 146.3 97.0141 146.388C97.5977 146.998 98.1731 147.671 98.7377 148.302C101.728 151.645 105.382 155.091 107.41 159.12C103.893 155.126 99.7833 151.373 96.5429 147.138C96.2706 146.782 95.9929 146.196 95.7867 145.786Z" fill="#F0F4FF"/>
<path d="M95.1418 144.346C95.78 144.967 96.4704 145.681 97.0141 146.388C96.5617 146.3 96.1499 146.059 95.7867 145.786C95.5358 145.275 95.3585 144.871 95.1418 144.346Z" fill="#F0F4FF"/>
</svg>
