<svg width="250" height="191" viewBox="0 0 250 191" fill="none" xmlns="http://www.w3.org/2000/svg">
<path d="M110.578 150.916C110.742 151.53 109.386 154.842 109.139 155.594C106.464 163.745 102.637 172.857 101.746 181.404L98.0361 184.465C97.9037 183.652 98.8408 180.071 99.1309 179.036C101.782 169.578 104.715 158.906 110.578 150.916ZM83.5889 6.11206C85.6948 5.89544 91.4747 6.03194 93.4551 6.18433C109.014 7.38214 126.258 11.8892 139.073 20.9431C142.741 23.535 145.328 26.4277 148.168 29.821C148.915 30.7133 150.03 30.7877 150.942 32.0339C152.289 33.8747 153.443 35.8053 154.684 37.7097C156.563 40.5675 158.478 43.4019 160.428 46.2117C162.629 49.4117 162.755 50.1736 166.368 52.0173C167.946 52.8221 175.894 60.0912 176.482 61.3855C179.678 68.4371 181.587 75.6848 184.573 82.8123C184.886 84.729 186.518 87.2592 186.949 88.947C188.661 95.6448 187.662 104.132 187.739 110.948C187.786 115.822 188.088 122.965 191.717 126.771C197.929 133.286 204.199 140.214 210.356 146.818C215.943 152.797 221.715 158.6 227.663 164.219C231.164 167.52 235.62 171.747 239.735 174.107L238.161 175.765C235.031 173.243 232.07 171.326 228.994 168.79C219.225 160.731 211.267 150.91 202.661 141.721C197.727 136.454 190.709 132.683 187.739 125.94C187.25 131.489 185.797 127.601 186.949 136.569V141.721C184.574 136.569 184.223 135.093 184.573 129.594L185.797 122.343C185.16 116.701 185.377 105.97 185.344 99.9617L183.522 101.569C183.569 99.1597 183.672 96.7812 183.745 94.3757C183.846 91.1435 182.515 89.8905 180.432 87.782L181.588 85.9421C180.263 83.5258 177.987 80.0811 176.482 77.6873C173.142 72.3402 169.742 67.0299 166.286 61.7576C165.434 61.7208 163.706 61.5954 163.339 60.7634C163.62 60.1578 164.265 59.9446 164.899 59.614C160.304 53.2722 156.143 46.0406 150.804 40.1218C148.972 39.829 146.623 39.4422 145.171 38.1375C143.33 36.4847 145.636 34.7484 145.597 33.4041L145.345 33.28C142.387 33.6554 142.836 36.9146 142.846 39.0935C143.749 40.3885 145.424 42.3266 146.456 43.5945L153.343 52.0154C161.473 61.9244 165.568 68.5914 173.494 78.6052L172.994 79.4285C166.833 71.9104 162.588 68.9884 156.479 61.3855C154.245 63.1232 153.94 63.1328 151.171 63.1853C152.45 61.9783 153.738 60.7788 155.032 59.5867C151.207 54.8369 147.351 50.109 143.47 45.405C142.606 45.8623 141.585 46.2784 140.683 46.6716L138.522 45.9187C139.643 45.2016 140.857 44.3333 141.964 43.575C140.654 42.0353 139.362 40.4806 138.086 38.9109C137.479 38.9564 136.868 38.9865 136.258 39.0007C133.955 39.0396 129.234 37.8975 129.204 34.9783C129.414 34.6369 129.444 34.6589 129.771 34.4626C132.1 33.0707 131.964 35.5168 133.89 36.0173C134.289 36.1205 134.92 36.0634 135.313 35.8298C135.149 35.5836 134.97 35.3461 134.779 35.1189C134.453 34.7352 133.271 33.4567 132.889 33.2332C130.416 31.7917 128.436 33.7552 128.451 36.0925C128.485 41.8925 132.344 45.9387 136.008 49.8572C137.091 56.0122 140.008 58.6136 143.44 63.4832C144.756 65.3482 146.173 68.4896 147.151 70.6111C147.886 71.068 148.684 71.4718 149.426 71.9255C156.089 75.9981 158.178 79.0971 163.994 84.3064L162.828 84.3855C155.575 78.7945 150.128 77.3831 142.582 72.2449C141.123 73.4768 139.595 74.6257 138.005 75.6853C138.825 74.7164 140.757 72.6816 140.74 71.571L140.347 71.5496C138.288 72.4522 135.443 75.2409 134.265 77.1462C133.268 78.8983 132.94 80.6487 132.311 82.5251C131.923 83.6774 131.75 83.7206 130.714 84.3064C132.299 86.919 132.85 88.116 133.678 91.0095C135.124 89.5663 135.06 89.8098 136.771 88.947C136.853 88.544 135.626 85.8839 135.345 85.1775L138.88 81.0906C140.364 87.5574 142.121 92.4666 149.502 93.5251L146.797 96.0769C146.92 96.5736 147.052 97.0689 147.188 97.5623C148.294 101.504 150.476 103.428 153.888 105.341C152.588 106.238 151.04 107.178 149.697 108.038C145.617 105.592 146.846 104.82 144.44 102.164C143.94 102.073 143.906 102.051 143.429 102.179C143.371 102.825 143.683 103.239 143.978 103.908L141.828 105.178C139.944 101.1 139.773 102.577 136.771 99.532C134.71 97.4447 135.755 96.0393 132.311 94.3835C130.102 86.3719 128.128 82.0537 120.202 78.4392C121.962 83.4264 118.329 87.45 113.7 89.7332C114.759 92.4667 115.035 93.8351 115.661 96.7087L118.896 95.3796C118.116 96.378 116.676 98.2694 116.973 99.532C118.004 99.9188 120.939 97.8916 121.999 97.572C122.625 97.3837 121.856 98.3273 122.494 98.2029C121.526 99.8356 121.367 100.655 120.202 102.164C122.866 104.912 124.997 107.685 126.994 110.948C127.389 111.597 128.185 112.793 128.494 113.483C130.48 117.894 133.31 121.555 137.161 124.611L135.345 125.94C138.99 131.904 142.165 137.032 148.322 140.721C151.11 142.391 154.181 143.484 156.661 145.734C165.953 154.162 174.45 168.75 180.681 179.586C179.692 180.758 181.696 180.645 180.681 181.796C171.896 168.523 163.873 155.362 151.02 145.658C150.178 153.32 147.314 156.034 139.487 155.409C129.309 154.596 119.483 151.8 109.787 148.744C110.881 147.853 111.985 146.724 113.004 145.734C120.86 149.895 131.758 150.961 140.559 152.004C148.337 152.926 147.989 151.036 148.322 143.884C145.338 141.985 141.319 140.069 139.094 137.493C135.564 133.407 133.331 129.043 131.591 124.04C131.283 123.153 128.206 120.805 127.492 119.236C126.413 116.862 125.749 114.322 124.264 112.208C121.486 107.996 117.333 105.576 114.71 101.508C114.423 101.062 113.882 99.2362 113.7 98.6404C112.03 102.647 109.97 106.972 108.161 110.948L98.6875 131.733C98.4581 131.511 98.2241 131.294 97.9854 131.082C82.9348 117.736 53.4537 118.013 34.4111 119.095C29.3974 132.502 25.6139 143.43 11 148.188C11.7428 147.491 13.2746 145.982 14.1455 145.507C17.3338 143.767 20.3815 142.594 22.7549 139.65C29.0365 131.747 31.5206 121.379 34.1826 111.802C36.5114 103.424 39.4894 94.4156 39.6094 85.6765C39.6571 82.2035 38.364 78.3285 37.583 74.9617C33.5268 57.4767 35.7316 38.5656 48.3506 24.9167C55.1856 17.5653 63.8756 10.0505 73.8057 7.44312C77.1298 6.57045 80.187 6.32962 83.5889 6.11206ZM119.445 109.887C119.593 110.133 118.652 113.14 118.512 113.738C117.636 117.471 115.882 126.317 116.901 129.893C117.955 133.59 126.537 138.216 129.726 139.972L127.078 142.279C111.473 133.575 112.139 127.575 116.808 111.432C117.604 110.912 118.609 110.369 119.445 109.887ZM144.599 31.7087C133.253 18.2674 105.443 7.27154 88.1621 8.94312C72.1672 9.62343 63.168 10.3966 52.2207 22.7546C44.4871 30.7029 39.8874 40.2637 39.1357 51.3601C38.9321 54.3668 38.702 57.2749 38.7891 60.3875C38.974 66.9876 41.0726 72.8694 42.6768 79.1667C43.0756 80.7324 42.5394 83.674 42.5234 85.3162C41.4614 96.1128 38.7728 107.558 34.9531 117.703C52.7962 116.297 74.6315 116.833 90.9922 124.761C93.5005 125.977 96.0067 127.662 98.2617 129.302C100.872 123.48 103.846 117.297 106.304 111.482L110.898 101.382C111.506 100.043 112.881 97.1832 113.275 95.8513C112.223 90.7504 108.73 87.142 107.848 82.2156C107.379 79.5969 111.22 74.9239 113.855 74.5457C116.53 74.1623 119.825 75.295 122.305 76.2458C124.26 71.3042 127.204 66.6658 132.208 64.3748C137.23 62.0743 139.454 65.5514 140.109 70.0574L143.328 68.8054C140.803 65.2552 138.518 61.8533 136.495 58.0105C135.727 57.0694 134.711 50.3711 133.162 50.3699C129.777 46.7975 127.995 42.7303 126.495 37.5818C126.872 34.5877 129.708 30.3354 133.162 30.9382C135.714 31.3841 139.037 34.5929 140.77 36.5867C141.922 34.2715 142.448 33.2914 144.599 31.7087ZM138.806 91.9324C137.344 92.805 136.737 93.1952 135.125 93.7419C135.483 94.2211 137.502 95.806 138.134 96.3523C139.091 97.1961 140.007 98.0875 140.874 99.0232C141.657 99.6453 142.673 99.5016 143.738 99.5027C143.558 98.3732 143.226 96.5981 143.162 95.5144C142.501 95.0929 138.874 92.0758 138.806 91.9324ZM110.156 79.1033C110.296 80.722 112.736 84.9765 113.554 86.822C114.675 86.5237 114.914 86.4505 115.905 85.8689C117.814 82.8315 112.957 79.3339 110.156 79.1033ZM133.749 67.4529C133.464 67.468 133.181 67.4905 132.898 67.5193C127.668 68.6336 125.615 72.4557 124.359 77.2693C126.386 78.7626 127.245 79.918 128.859 81.8767L129.129 82.1267C129.232 82.0502 130.982 78.487 131.475 77.8308C132.956 75.8562 134.4 74.662 136.259 73.0867C136.293 70.9021 136.909 67.2925 133.749 67.4529ZM170.219 60.1052C171.055 61.3868 176.676 69.676 177.493 70.1912C175.942 65.2307 175.726 62.8044 170.635 60.2712C170.451 60.1803 170.415 60.1718 170.219 60.1052Z" fill="#F0F4FF"/>
</svg>
