<svg width="250" height="170" viewBox="0 0 250 170" fill="none" xmlns="http://www.w3.org/2000/svg">
<path d="M112.449 110.426C112.87 109.707 113.659 109.173 114.236 108.599C114.89 107.95 114.937 107.984 114.955 107.133L115.034 107.759L115.137 107.813L115.244 107.689L115.728 107.362C115.687 107.641 115.674 107.529 115.861 107.814C115.927 107.848 116.072 107.927 116.136 107.947C115.835 108.145 115.532 108.34 115.227 108.533L114.848 114.506C114.811 115.106 114.806 116.246 114.744 116.764C114.718 116.617 114.7 116.677 114.766 116.579L114.735 116.753C114.512 114.32 114.84 111.853 114.905 109.42C114.911 109.16 114.929 109.034 114.779 108.886L114.725 108.877L114.752 108.601C114.205 108.381 113.178 110.213 112.449 110.426Z" fill="#F0F4FF"/>
<path d="M125.669 105.495L125.931 105.549C125.942 106.417 125.895 108.985 125.729 109.765C125.669 108.342 125.649 106.919 125.669 105.495Z" fill="#F0F4FF"/>
<path d="M138.04 113.152L138.163 112.958L138.308 113.246C138.455 114.044 138.503 114.764 138.57 115.569C138.522 115.707 138.449 115.947 138.386 116.069C138.225 115.124 138.225 114.19 138.04 113.152Z" fill="#F0F4FF"/>
<path d="M119.513 112.511C119.803 112.905 119.39 112.786 119.751 113.358C119.77 114.112 119.656 115.194 119.566 115.965C119.431 115.136 119.495 113.368 119.513 112.511Z" fill="#F0F4FF"/>
<path d="M131.318 115.516C131.417 116.601 131.468 118.435 131.506 119.585C131.383 119.113 131.195 118.482 131.153 118.014C131.34 117.744 131.238 116.12 131.318 115.516Z" fill="#F0F4FF"/>
<path d="M138.41 117.332L138.69 117.165C138.76 117.89 138.834 118.615 138.912 119.34C138.8 119.471 138.791 119.464 138.714 119.615C138.67 118.854 138.608 118.068 138.41 117.332Z" fill="#F0F4FF"/>
<path d="M119.872 37.879C119.891 37.6406 119.888 37.2288 120.014 37.0527C120.145 37.6431 120.113 38.7708 120.107 39.418C119.983 38.9304 120.078 38.3915 119.967 37.8255L119.872 37.879Z" fill="#F0F4FF"/>
<path d="M135.584 123.569C135.954 123.554 135.877 123.588 136.258 123.811C135.179 124.82 134.07 125.773 132.971 126.756C132.565 127.119 131.46 128.077 131.151 128.501C131.115 128.395 130.974 128.187 130.908 128.081C131.677 127.362 132.439 126.559 133.221 125.825C133.916 125.173 134.978 124.255 135.584 123.569Z" fill="#F0F4FF"/>
<path fill-rule="evenodd" clip-rule="evenodd" d="M131.211 5.48564C131.997 12.5674 132.392 20.4418 132.818 27.6003L134.532 56.8118L135.963 81.6558C136.06 83.4426 136.185 85.2284 136.339 87.0117C136.456 88.3027 136.676 90.0431 136.708 91.2971C139.054 89.4899 143.249 85.6901 146.469 85.9113C148.055 86.0199 148.988 87.4879 148.563 88.9854C147.066 94.2639 141.227 98.1762 137.596 101.934C137.727 104.064 137.855 106.278 138.056 108.401C139.67 109.706 141.458 110.782 143.369 111.595C144.311 109.874 150.11 99.5808 148.787 98.4054C147.628 98.6137 145.231 107.36 143.73 108.158C143.581 108.132 143.513 108.156 143.458 108.043C143.036 106.895 143.25 104.637 143.515 103.505C144.147 100.797 145.638 97.8505 147.937 96.2313C148.863 95.5801 150.325 95.5027 150.838 96.6779C151.656 98.5539 151.004 101.08 150.417 102.968C149.755 104.961 148.576 107.155 147.159 108.705C145.961 110.017 145.365 110.542 144.379 112.04C146.396 112.736 148.06 113.214 150.14 113.602C158.396 115.139 166.72 113.512 174.987 113.803C176.32 113.851 178.685 115.977 177.962 117.46C177.215 119.252 174.919 120.697 173.229 121.482C172.829 121.665 172.426 121.841 172.02 122.011C174.429 122.64 174.912 123.469 174.884 125.937C175.921 125.545 176.898 125.203 178.074 125.522C180.056 126.061 181.683 129.965 180.71 131.669C180.084 132.769 176.987 134.643 175.777 135.372C175.272 137.53 174.526 138.153 172.722 139.353C170.653 140.728 168.686 140.411 166.467 140.73C165.712 140.838 163.681 141.969 162.765 142.319C162.958 143.561 162.967 145.301 162.143 146.324C160.678 148.143 156.932 149.39 154.748 149.701C151.302 150.192 146.548 148.337 143.306 148.68C138.526 149.278 134.166 151.381 129.35 151.846C126.427 152.128 124.29 150.773 121.585 150.546C117.104 150.169 112.442 149.899 107.94 149.742C106.883 149.704 105.738 149.714 104.693 149.883C102.75 150.404 99.9323 151.597 98.343 152.878C95.8549 154.883 94.6501 155.338 91.6626 156.296C90.4509 156.672 89.2738 157.153 88.1445 157.732C86.4408 158.616 84.7771 159.668 83.1221 160.646C79.0659 163.043 75.0868 165.666 71 168C71.6538 167.246 72.4194 166.45 73.2188 165.855C76.2447 163.6 79.6256 161.588 82.8724 159.662C84.6955 158.581 86.6704 157.374 88.5588 156.461C91.4637 155.056 94.643 154.051 97.4962 152.572C99.596 151.483 102.365 148.025 104.732 147.965C106.971 147.908 109.611 148.12 111.855 148.22C116.072 148.407 120.263 148.619 124.486 148.518C126.281 148.475 127.757 147.848 129.493 147.505C132.276 146.953 135.085 146.542 137.916 146.344C139.423 146.239 140.724 146.342 142.184 146.418C143.07 146.465 145.74 146.83 146.403 146.646C147.653 146.299 149.613 145.472 150.852 144.958C154.725 143.36 158.537 141.616 162.279 139.732C164.203 138.777 166.19 137.779 168.052 136.727C169.363 135.986 173.593 133.897 171.264 132.157C169.544 130.871 167.062 131.043 165.029 131.238C161.906 131.604 159.056 132.774 157.084 135.32C156.894 135.565 156.712 135.815 156.538 136.072C154.031 133.833 151.822 135.554 149.141 136.476C146.459 137.399 144.713 138.579 142.559 140.363C142.874 139.413 143.043 138.998 143.603 138.174C139.044 136.866 133.863 136.312 129.322 137.962C132.479 133.982 136.762 135.167 141.116 135.265C143.164 132.669 145.857 131.968 149.029 131.864C151.216 130.263 152.778 127.995 154.643 126.014C155.885 124.693 160.159 121.028 160.297 119.432C160.321 119.127 160.219 118.825 160.014 118.597C159.5 118.027 158.125 117.804 157.381 117.799C155.579 117.787 154.344 118.531 153.09 119.773C152.749 120.111 152.319 120.599 152.043 120.991C152.529 121.458 152.741 121.675 153.15 122.206C152.649 122.722 151.915 123.437 151.483 123.984C151.104 123.401 150.895 123.009 150.581 122.385C149.754 122.796 146.637 124.486 146.649 125.154C146.684 127.053 147.172 125.951 145.696 127.87C145.657 127.483 145.661 127.155 145.473 126.822C144.496 126.207 141.305 128.019 140.694 128.973C140.436 129.375 140.453 129.663 140.57 130.113C140.625 130.432 140.885 130.908 140.695 131.084C140.256 131.493 139.689 131.946 139.255 132.35C138.998 131.896 138.511 131.093 138.323 130.641C136.002 130.306 131.312 129.943 129.406 131.438C128.77 131.937 128.263 132.686 127.72 133.265C127.938 132.718 128.83 131.124 128.736 130.787C128.003 129.954 123.044 129.047 121.677 128.997C120.42 128.952 119.601 128.938 118.366 129.238C121.419 131.874 121.643 131.727 125.794 131.999L123.683 134.395L121.387 134.124C121.318 135.336 120.525 137.512 119.276 137.865C118.918 137.81 119.068 137.882 118.802 137.653C118.362 136.643 119.014 134.63 119.772 133.808C117.798 132.915 114.56 129.516 112.903 127.927C110.197 130.986 107.583 132.506 103.426 132.411C104.137 131.648 104.876 130.762 105.577 130.037C109.689 129.854 113.03 129.566 112.801 124.328C112.777 123.776 112.717 122.736 112.366 122.295C111.407 120.443 108.64 117.911 107.024 117.609C106.266 117.467 104.622 117.431 103.806 117.443C102.819 117.14 100.794 116.331 96.8007 119.392C94.8592 119.994 92.9935 123.204 91.8933 124.691C90.8593 126.088 91.0172 128.929 90.7967 130.778C89.8993 131.847 87.2669 134.249 86.0233 134.821C81.4258 136.935 76.51 137.983 71.9279 140.229L71.765 140.205C71.4551 136.433 85.3076 135.35 88.4125 132.177C88.4951 130.723 88.604 129.195 88.6614 127.745C86.9616 126.627 84.0377 124.185 83.0667 122.439C81.3157 119.29 81.899 118.471 78.7961 116.1C79.4998 115.416 80.4646 114.387 81.163 113.777C82.0772 114.674 82.7707 115.468 83.3951 116.611C84.3937 118.438 84.9237 120.217 86.3325 121.823C87.6829 123.362 89.0864 124.224 90.7992 125.268C91.914 123.039 93.4078 121.022 95.2129 119.305C95.7959 118.758 96.4833 118.258 97.0579 117.734C97.8539 117.007 98.059 116.462 99.1527 116.098C101.081 115.456 102.895 115.856 104.822 115.808C105.698 115.787 106.983 115.281 108.029 115.356C108.916 115.419 109.21 115.532 110.063 115.825C110.037 115.296 110.02 114.799 109.949 114.273C108.785 113.601 107.834 112.955 106.749 112.175C105.627 111.367 99.651 106.156 98.5258 108.056C98.4752 109.683 103.798 111.791 105.209 112.21C102.155 112.129 96.3355 111.288 96.1589 106.973C96.1128 105.843 96.7329 104.699 98.0081 104.928C101.486 105.383 104.344 107.387 107.248 109.145C104.133 105.751 100.305 102.072 97.005 98.8172C97.7955 98.1431 98.5561 97.4985 99.3115 96.7856C102.328 99.7152 105.388 102.658 108.145 105.841C109.705 107.643 110.797 109.257 111.649 111.498C111.882 111.152 112.157 110.698 112.452 110.426C113.181 110.211 114.207 108.381 114.754 108.6L114.727 108.877C113.395 110.198 112.824 110.923 111.814 112.502C111.892 113.589 112.294 114.59 112.309 115.072C112.207 115.104 112.115 115.135 112.014 115.171C111.932 115.694 111.995 116.683 111.993 117.261C112.91 118.346 113.528 119.111 114.14 120.391C119.362 119.311 121.459 119.621 125.122 123.446C128.121 123.562 131.035 123.079 133.988 122.606C134.843 122.469 136.58 122.206 137.356 121.94C138.035 121.223 138.497 120.605 138.716 119.615C138.794 119.465 138.802 119.471 138.914 119.34C138.836 118.615 138.763 117.89 138.692 117.164L138.413 117.333C135.96 118.959 131.961 120.74 129.134 121.601C130.306 119.657 131.905 119.337 133.889 118.479C135.358 117.843 136.977 117.345 138.314 116.459C138.44 116.376 138.391 116.213 138.388 116.069C138.451 115.947 138.524 115.707 138.572 115.569C138.505 114.764 138.457 114.044 138.309 113.246L138.165 112.958L138.041 113.152C137.9 112.572 137.299 112.213 136.84 111.811C136.114 111.176 135.564 110.54 134.961 109.798C134.901 111.542 134.816 115.655 133.965 117.081L133.81 117.171C133.556 117.007 133.483 116.634 133.417 116.336C133.066 114.759 133.169 112.549 133.065 111.091C132.873 108.411 133.023 99.5404 132 97.5073L131.855 97.4178C131.032 98.0243 131.144 103.668 131.146 104.969C131.479 105.126 131.595 105.108 131.749 105.386C131.621 105.668 131.394 105.848 131.168 106.07C131.083 108.255 131.262 110.612 131.265 112.812C131.266 113.444 131.375 114.938 131.318 115.516C131.238 116.12 131.34 117.744 131.153 118.014C130.498 115.987 129.995 109.268 130.015 106.994C128.923 106.486 127.091 105.811 125.931 105.549L125.669 105.495C124.92 105.153 123.252 104.982 122.398 104.965L122.839 103.854C122.004 104.465 121.165 105.067 120.32 105.664C120.292 106.981 120.036 112.232 119.751 113.358C119.39 112.786 119.803 112.905 119.513 112.511C119.488 112.192 119.45 111.866 119.417 111.547L119.312 106.278C118.363 106.838 117.145 107.406 116.138 107.946C116.073 107.927 115.93 107.848 115.863 107.815C115.676 107.529 115.688 107.64 115.729 107.362L115.732 107.362C116.975 106.39 117.923 105.86 119.302 105.09C119.143 96.2255 119.182 87.3646 118.965 78.5047C118.92 76.6809 118.803 74.7216 118.657 72.8994C118.521 71.1857 118.203 69.6049 118.236 67.8583C118.296 64.4717 119.085 61.0552 119.135 57.6727C119.165 55.6893 119.024 53.6786 119.052 51.6696C119.129 47.0631 119.403 42.4616 119.874 37.8788C119.893 37.6404 119.89 37.2287 120.016 37.0527C120.147 37.6431 120.115 38.7712 120.109 39.4183C120.27 41.426 120.194 43.5635 120.393 45.5191C121.127 52.7311 120.748 59.9315 120.827 67.1656C120.86 70.128 121.178 73.0795 121.051 76.0496C120.775 82.696 120.208 89.3458 120.235 96.0009C120.276 98.9368 120.46 101.542 120.368 104.492C122.215 103.308 123.991 102.014 125.686 100.619C125.71 98.9269 125.517 96.6037 125.458 94.845L125.223 85.1789C125.11 81.5187 125.288 77.8451 125.072 74.192C124.815 69.8401 124.476 65.483 124.021 61.1477C123.811 59.1553 123.253 57.2309 123.375 55.206C123.412 53.0274 123.646 50.8145 123.569 48.6362C123.528 47.4593 123.146 46.2285 123.131 45.0195C123.076 40.2804 123.039 35.4804 123.263 30.7473C123.321 30.542 123.416 30.4038 123.523 30.2203C123.972 33.2216 124.405 36.2252 124.823 39.231C125.112 41.3176 125.415 43.4792 125.588 45.5771C125.676 46.9465 125.635 48.3213 125.689 49.6926C125.944 56.2308 126.04 62.7842 126.163 69.3266C126.237 71.0477 126.434 72.7643 126.628 74.4737C126.777 75.7824 127.132 77.2214 127.113 78.5304C127.075 81.0625 126.479 83.6105 126.411 86.1467C126.349 88.4813 126.389 90.8266 126.369 93.1639C126.333 95.5358 126.245 97.9072 126.104 100.275C127.499 99.132 128.871 97.9615 130.219 96.7632C130.327 95.4255 130.647 92.7455 131.196 91.5515C132.485 88.7481 133.427 92.9532 133.685 93.8773C134.291 93.2746 135.068 92.6719 135.735 92.1248C135.672 90.93 135.44 89.2453 135.306 88.0143L134.409 79.8362C133.498 71.4728 132.637 63.1039 131.825 54.7304C131.163 47.568 131.165 40.4855 130.968 33.3001L130.72 21.531C130.612 16.0544 130.523 11.133 130.772 5.64887L131.211 5.48564ZM134.372 148.788C133.016 148.725 131.556 148.677 130.201 148.763C129.17 148.956 128.625 149.14 127.811 149.814C129.26 150.19 130.614 150.138 132.08 149.856C133.078 149.617 133.555 149.43 134.372 148.788ZM159.626 143.631C158.185 144.211 156.725 144.745 155.249 145.232C152.86 145.992 152.197 145.923 149.882 147.189L151.427 147.252C153.353 147.282 155.31 147.309 157.228 147.089C158.24 146.974 160.67 146.761 160.774 145.406C160.809 144.944 160.074 143.843 159.626 143.631ZM176.499 129.633C175.382 129.154 173.955 129.135 172.766 129.267C172.52 129.312 172.248 129.321 172.079 129.461C173.05 130.183 173.979 130.879 174.158 132.165C174.248 132.814 174.014 133.419 173.616 133.922C172.411 135.445 163.656 139.952 161.269 141.254C160.503 141.672 159.669 142.049 158.946 142.532C160.055 142.233 161.201 141.941 162.288 141.579C163.587 141.126 164.86 140.648 166.101 140.049C167.907 139.178 177.819 133.822 178.44 132.628C178.62 132.281 178.617 131.896 178.485 131.535C178.174 130.683 177.312 129.981 176.499 129.633ZM173.316 136.913C172.853 137.173 169.903 138.773 169.711 139.006L169.819 139.069C171.176 139.082 173.446 138.842 173.489 137.027L173.316 136.913ZM150.255 134.385C149.173 133.665 147.836 133.508 146.558 133.596C144.56 133.801 143.685 134.214 142.062 135.403C142.665 135.538 145.44 136.26 145.788 136.202C147.204 135.616 148.886 134.994 150.255 134.385ZM171.527 124.649C170.78 124.066 168.967 123.994 168.038 124.066C165.509 124.282 163.441 126.124 161.441 127.544C160.819 127.985 160.17 128.58 159.493 128.959C156.818 130.142 152.772 130.581 151.834 133.895C153.468 133.501 154.579 133.239 156.231 133.054C158.018 132.882 158.255 132.42 159.78 131.456C163.389 129.175 166.306 128.44 170.551 129.134C171.315 128.311 171.766 127.868 172.687 127.17C172.509 126.146 172.447 125.369 171.527 124.649ZM155.26 126.157C153.796 127.559 152.338 128.772 151.444 130.629L154.078 130.656C154.506 130.304 155.01 129.867 155.449 129.542C156.155 129.067 156.588 128.77 157.377 128.421C158.174 128.069 159.637 127.997 160.218 127.453L160.169 127.374C157.856 127.041 157.654 127.293 155.26 126.157ZM114.541 121.404C114.758 122.881 114.877 123.765 114.421 125.241C114.832 125.656 115.342 126.2 115.77 126.581C121.407 126.403 125.081 126.742 130.392 128.654C130.549 128.477 130.744 128.246 130.906 128.082C131.675 127.363 132.437 126.559 133.219 125.825C133.914 125.173 134.976 124.255 135.582 123.568C132.541 124.249 129.412 124.894 126.3 125.047C125.156 125.104 123.846 125.019 122.68 125.006C120.248 124.995 117.816 124.959 115.385 124.898C115.794 124.343 116.192 123.779 116.579 123.208C118.162 123.259 119.99 123.408 121.533 123.413C119.108 121.814 117.432 121.282 114.541 121.404ZM142.692 114.737C142.22 115.717 141.695 116.477 141.231 117.558C141.701 117.041 142.188 116.54 142.69 116.055C141.776 118.142 139.881 119.382 139.085 121.528C139.085 121.529 139.084 121.53 139.083 121.531V121.528C138.956 121.804 138.963 121.802 138.761 122.025V122.026C137.962 123.498 137.159 125.164 136.122 126.455C136.464 124.785 136.958 124.106 137.34 122.724C137 123.069 136.608 123.487 136.258 123.811C135.877 123.588 135.954 123.554 135.584 123.569C134.978 124.255 133.916 125.173 133.221 125.825C132.439 126.559 131.677 127.362 130.908 128.081C130.974 128.187 131.115 128.395 131.151 128.501C131.794 128.562 133.512 128.378 134.236 128.336C135.529 128.264 136.522 128.278 137.82 128.328C138.909 126.363 142.191 124.234 144.279 123.409C143.582 124.574 142.491 125.35 141.351 126.04C140.635 126.474 138.608 127.521 138.588 128.417L138.729 128.513C139.553 128.631 139.869 128.086 140.494 127.595C141.315 126.945 142.203 126.384 143.142 125.921C143.823 125.589 145.203 125.222 145.641 124.925C146.3 124.476 147.035 123.583 147.807 123.032C148.613 122.297 150.395 121.772 151.126 121.096C152.959 119.403 154.305 117.612 156.68 116.526C155.095 116.474 153.509 116.449 151.923 116.452C151.933 117.289 152.016 119.241 150.944 119.43C149.874 119.067 149.668 117.147 149.612 116.197C147.051 115.778 145.208 115.501 142.692 114.737ZM165.099 123.777C164.884 123.74 164.898 123.736 164.691 123.796C163.367 123.989 162.037 124.142 160.705 124.254C159.981 124.318 158.781 124.387 158.106 124.517C158.535 124.779 159.019 125.092 159.469 125.303C160.53 125.695 161.158 125.76 162.298 125.699C162.781 125.393 164.905 124.11 165.099 123.777ZM175.27 116.754C173.82 115.73 171.283 115.974 169.583 116.038C168.832 116.1 168.117 116.156 167.369 116.265C167.366 117.035 167.384 117.683 167.01 118.384C166.726 118.918 166.126 119.77 165.511 119.866L165.367 119.762C165.339 118.983 166.062 117.559 166.295 116.639C165.168 116.618 163.022 116.641 162.01 116.531C163.722 119.161 161.771 119.363 160.194 121.248C159.942 121.55 159.474 121.974 159.171 122.22L160.858 122.166C164.589 121.779 168.386 121.393 172.043 120.525C172.698 120.37 173.249 120.206 173.893 119.96C175.103 119.498 176.762 117.917 175.27 116.754ZM140.905 115.447C140.433 115.813 139.942 116.213 139.432 116.519C139.201 116.76 138.844 116.995 138.695 117.164C138.765 117.89 138.84 118.615 138.917 119.34C139.611 118.059 140.274 116.761 140.905 115.447ZM138.311 113.246C138.458 114.044 138.507 114.764 138.573 115.569L138.645 116.064C139.01 116.321 139.44 115.792 139.843 115.588C139.884 115.534 141.2 114.51 141.387 114.357C140.845 114.131 138.784 113.143 138.416 113.099L138.311 113.246ZM136.812 102.921C135.326 104.673 135.633 105.762 136.951 107.415L137.293 107.748L137.402 107.732C137.459 107.27 137.001 103.127 136.812 102.921ZM129.986 98.0773C128.928 98.9174 127.067 100.37 126.113 101.279C126.069 101.992 126.022 102.809 126.019 103.524C126.295 103.574 126.599 103.637 126.875 103.672C127.805 103.886 129.088 104.16 129.956 104.534C129.968 103.754 130.149 98.3401 129.986 98.0773ZM135.804 93.1539C135.18 93.6119 134.397 94.3416 133.825 94.7158C134.156 96.6686 134.407 98.6331 134.577 100.606C134.651 101.425 134.723 103.266 134.845 103.96L134.966 103.995L135.025 103.958C135.587 103.274 136.197 102.63 136.851 102.033C136.694 100.947 135.893 93.2838 135.804 93.1539ZM125.588 101.691C125.203 101.977 123.932 102.824 123.829 103.21C123.925 103.24 123.99 103.27 124.088 103.279L125.694 103.509C125.709 103.058 125.77 102.148 125.689 101.743L125.588 101.691ZM145.555 92.4778C146.557 90.7403 146.638 87.9637 143.808 88.3167C141.525 88.7614 138.658 90.8246 136.836 92.2798C136.902 93.5001 136.951 94.7384 137.147 95.9437L137.946 95.1914C138.847 95.952 139.744 96.7667 140.792 97.3067C140.357 97.7338 139.782 98.3291 139.327 98.7112L137.334 97.6829L137.233 97.731C137.248 97.9286 137.268 98.135 137.28 98.3317C137.398 99.3835 137.446 100.465 137.505 101.524C140.372 98.8152 143.573 95.9122 145.555 92.4778Z" fill="#F0F4FF"/>
<path fill-rule="evenodd" clip-rule="evenodd" d="M104.459 118.955C105.296 120.485 106.275 122.386 107.25 123.801C107.346 123.88 108.143 125.005 108.525 125.443C108.518 125.446 108.512 125.451 108.505 125.453C109.004 125.859 107.333 125.679 107.872 126.039C105.755 126.888 105.577 127.068 104.061 126.888C103.038 125.468 101.516 124.329 101.137 122.075C101.494 121.165 103.877 119.592 104.459 118.955ZM103.812 122.08C103.488 122.262 103.377 122.244 103.279 122.529C103.361 123.191 104.031 125.097 104.555 125.478L104.799 125.438C105.022 125.319 105.262 125.229 105.383 125.017C105.283 124.801 103.827 122.124 103.812 122.08Z" fill="#F0F4FF"/>
<path d="M115.036 107.758L114.957 107.138C114.957 107.136 114.958 107.134 114.958 107.133L115.036 107.758Z" fill="#F0F4FF"/>
<path d="M116.865 4.63365C117.472 10.1115 117.615 15.9562 118.055 21.4904C118.504 27.1234 118.268 33.5034 118.234 39.1866C118.203 52.3368 117.786 65.4831 116.983 78.6085C116.604 85.8569 116.179 93.1025 115.706 100.346C115.546 102.738 115.461 105.326 115.245 107.689L115.138 107.813L115.035 107.759L114.957 107.133C115.374 99.4269 115.541 91.4074 115.808 83.679C116.262 73.0661 116.494 62.4446 116.502 51.8217C116.48 49.2321 116.158 46.0754 116.076 43.3469C115.916 35.6661 115.906 27.9828 116.046 20.3017C116.134 15.7168 116.265 9.10521 116.865 4.63365Z" fill="#F0F4FF"/>
<path d="M130.687 59.5846C130.182 53.3308 129.166 46.8494 128.246 40.6317C127.832 37.8365 127.421 34.7906 126.874 32.0412C126.393 29.6091 125.391 27.1944 124.833 24.8027C123.264 18.0805 121.114 10.908 120.62 4C121.329 6.41037 122.374 9.06058 123.324 11.3924C123.785 12.5217 124.558 13.5704 124.902 14.7209C126.12 18.7861 127.044 23.0634 127.865 27.2227C129.474 35.3602 130.949 42.951 130.967 51.2722C130.869 53.8876 131.03 56.5531 130.915 59.171C130.909 59.3199 130.784 59.4796 130.687 59.5846Z" fill="#F0F4FF"/>
<path d="M174.326 100.4C176.677 100.308 175.647 102.214 174.748 103.255C172.071 106.352 168.084 109.926 164.186 111.219C164.806 110.81 165.661 110.04 166.252 109.536C167.402 108.558 168.546 107.573 169.685 106.582C170.828 105.578 172.673 104.056 173.481 102.799C171.482 103.702 168.237 106.38 166.47 107.796C167.783 104.855 171.124 101.109 174.326 100.4Z" fill="#F0F4FF"/>
<path d="M73.6067 78.936C75.0379 79.1441 77.0404 80.0132 78.1671 80.899C78.5414 81.1161 79.7129 82.2185 80.0024 82.3015C82.6132 83.0507 83.3137 83.7575 85.0246 86.0201C83.8675 86.0051 81.3234 85.788 80.3969 85.2003C78.1212 83.7557 75.3064 81.0328 73.6067 78.936Z" fill="#F0F4FF"/>
<path d="M169.787 88.0294L169.869 88.0806C169.504 88.3903 169.063 88.6047 168.671 88.8977C167.969 89.4227 167.342 90.0255 166.716 90.6352C164.166 93.1175 161.624 96.4681 158.683 98.4774C158.436 98.0582 158.734 96.8714 158.897 96.4293C160.369 92.4336 166.215 89.8225 169.787 88.0294Z" fill="#F0F4FF"/>
<path d="M75.7746 104.806C78.1335 104.558 81.2068 105.132 82.2835 107.552C80.3765 107.086 77.2335 105.918 75.4733 106.642C74.8868 107.938 77.6516 107.596 78.3558 107.587C77.4263 108.709 76.007 108.654 74.7114 108.344C70.4732 107.332 73.4877 105.404 75.7746 104.806Z" fill="#F0F4FF"/>
<path d="M130.966 4.1479C131.059 4.58488 131.132 5.04454 131.208 5.48611L130.769 5.64874C130.802 5.1469 130.889 4.64559 130.966 4.1479Z" fill="#F0F4FF"/>
<path d="M123.26 30.7477C123.266 30.269 123.24 29.5837 123.378 29.1456C123.501 29.403 123.5 29.9135 123.52 30.2202C123.413 30.4039 123.318 30.5422 123.26 30.7477Z" fill="#F0F4FF"/>
</svg>
