<svg width="250" height="179" viewBox="0 0 250 179" fill="none" xmlns="http://www.w3.org/2000/svg">
<g clip-path="url(#clip0_3619_13933)">
<path d="M181.731 0.00607014C182.645 -0.0575208 184.644 0.38041 185.119 1.23104C187.389 5.30575 189.326 10.5595 190.549 15.0718C191.134 17.2812 189.954 22.021 190.433 23.9599C192.126 30.7923 190.893 37.7586 191.496 44.7473C191.579 47.4193 191.999 50.1861 191.917 52.8535C191.644 61.693 191.171 70.3284 191.198 79.1861C192.649 79.809 193.249 80.4042 193.842 81.8413C192.827 84.9994 188.136 90.2957 185.904 93.0195C184.839 94.3197 183.549 95.3662 182.544 96.9045C184.175 95.988 186.736 94.0339 188.123 92.3C189.689 90.3407 192.863 84.7276 195.311 89.935C196.388 92.2266 194.204 96.2841 193.175 98.6024C193.237 98.986 193.288 99.3722 193.328 99.7584C193.736 103.766 193.089 105.115 190.644 108.145C190.776 109.134 190.802 109.703 190.765 110.65C190.577 115.553 186.616 115.364 184.416 118.156C183.306 119.986 182.339 123.891 180.799 125.269C179.136 126.758 175.236 127.038 173.055 127.592C171.961 127.87 169.781 127.753 168.575 127.686C165.691 129.13 162.815 131.683 160.394 133.823C158.829 135.208 156.516 136.896 155.09 138.293C148.652 144.602 142.468 151.248 135.86 157.382C132.767 160.252 128.95 162.492 125.367 164.733C121.567 167.149 117.727 169.502 113.848 171.789C110.557 173.757 107.503 175.748 104.034 177.429C95.7426 181.447 91.0701 177.139 85.5104 171.471C83.4961 169.442 81.5619 167.333 79.7119 165.153C78.0978 166.049 76.6057 167.1 74.689 167.079C71.6425 167.041 69.4831 163.042 69.6511 160.314C67.537 157.473 65.744 158.348 63.2198 156.734C61.0265 155.331 61.3953 152.401 59.9366 149.905C58.9277 148.179 54.2018 143.219 54 142.026C55.6479 142.554 59.2297 147.377 60.7163 148.541C62.57 149.991 62.7923 154.511 63.6608 155.202C66.2514 157.262 67.7026 156.075 70.3048 159.197C71.064 155.2 71.5978 152.786 74.4144 149.59C72.9482 153.425 71.5138 156.441 71.3593 160.589C71.249 161.587 71.0625 162.362 71.4069 163.345C72.6996 167.041 76.2718 165.123 78.8289 164.252C78.5124 163.866 78.3104 163.555 77.8821 163.304C77.5189 163.488 77.5963 163.778 77.4063 164.35L77.1801 164.371C76.6381 163.984 76.4325 163.653 76.0347 163.12C75.3054 154.152 84.9704 142.902 90.9773 136.953C92.319 135.623 93.8205 134.403 95.4374 133.473C98.0953 131.944 97.9355 133.786 98.7233 135.364L98.8494 135.262C99.2033 133.786 99.0314 132.591 98.5692 131.156C97.0406 126.407 94.3561 131.765 93.0375 127.308C90.9557 127.283 89.0411 127.745 87.1959 128.694C80.592 132.091 77.2934 136.644 74.9462 143.449C77.1718 141.99 78.7645 140.244 80.7268 138.5C83.1597 136.339 85.8469 134.157 88.6158 132.443C88.5767 132.496 88.5377 132.549 88.4988 132.602C87.3086 133.786 85.9404 134.945 84.7156 136.093C82.0449 138.598 79.4889 141.238 76.7375 143.644C76.3044 143.977 75.6181 144.499 75.0688 144.535C74.2724 144.598 73.4726 143.571 73.6009 142.832C74.9507 135.055 83.6054 125.975 91.6134 125.851C89.4763 124.678 90.9909 122.83 89.0272 119.823C88.2404 119.007 85.6217 116.943 84.6579 116.425C78.1963 112.945 75.5479 105.697 71.5503 99.9188C70.3113 98.1282 67.747 95.3662 67.0317 93.3967C71.8987 95.894 77.4394 108.223 81.441 112.61C83.0063 115.034 88.0381 116.234 89.4763 118.157C91.2596 120.541 89.9406 122.181 92.5557 125.035C92.9441 121.195 93.1531 117.735 93.9602 113.893C94.834 109.733 95.9243 105.666 96.3757 101.428C97.1564 94.1008 96.2769 87.0205 96.9798 79.6486C97.519 73.5141 99.7837 67.7643 100.347 61.6339C100.556 59.3568 100.778 57.386 100.565 55.0867C100.538 54.7998 100.605 54.6069 100.772 54.3855C101.289 54.3537 101.081 54.316 101.561 54.5474C102.227 55.3501 101.616 57.1234 101.649 58.1684C101.779 61.7662 101.058 65.3199 100.347 68.8487C99.7459 71.7372 99.2171 74.6311 98.7366 77.5872C98.3195 80.1523 98.392 80.8335 98.2511 83.4128C100.788 80.9138 102.452 80.4253 104.71 77.7361C106.694 75.565 109.286 73.2209 112.109 72.2556C112.663 72.0662 114.062 71.8461 114.265 72.5816C114.043 73.1732 114.195 72.8366 113.536 73.1768C113.456 73.2178 113.584 73.4651 113.295 73.6423L113.144 73.3271C112.753 73.1453 110.973 74.2226 110.632 74.4849C108.655 75.9753 106.676 77.343 105.048 79.2091C102.844 81.7698 101.164 82.9273 98.2511 85.3547C98.1715 88.0041 97.8151 91.6808 97.7656 94.3725C98.2856 94.375 100.036 94.1922 100.511 94.3725C104.301 95.8142 107.161 100.703 110.502 103.071C112.095 104.199 114.933 103.592 117.029 104.534C118.955 105.4 119.776 106.605 121.403 107.635C123.008 108.652 125.331 109.579 127.091 110.342C124.963 106.554 124.597 101.897 124.93 97.6292C125.198 94.2051 125.648 91.404 128.345 89.0452C127.447 91.5907 126.736 92.2124 126.297 95.2452C126.647 95.8361 126.977 96.2274 127.405 96.7616C125.783 100.822 126.738 106.55 128.592 110.471C129.024 111.385 130.031 112.437 130.742 113.15C129.757 110.977 128.782 108.835 128.328 106.483C128.219 105.915 128.057 105.359 127.904 104.801C128.64 105.528 129.359 106.271 130.061 107.029C130.266 108.541 131.081 111.054 131.765 112.457C133.28 115.56 134.281 116.517 137.328 117.651C137.328 116.425 136.44 114.803 136.118 113.512C135.361 110.483 136.139 106.376 136.603 103.317C138.545 97.4914 141.458 93.1222 144.856 88.753C145.988 87.7475 146.991 86.2691 148.254 85.3547C148.584 85.6358 148.979 85.9343 149.358 86.1981C149.321 85.5727 149.264 84.9316 149.216 84.3055C143.524 83.7004 141.91 87.9224 139.031 91.6658L138.06 91.1803C139.251 88.0344 142.821 84.9203 145.827 83.4128C143.229 82.2393 139.798 80.9236 137.511 79.2091C135.966 80.21 133.582 82.3121 132.298 83.7265C131.736 84.3463 131.189 85.5454 130.505 86.0915C130.096 85.8965 129.961 85.2613 130.144 84.8836C131.356 82.3845 133.053 79.8182 135.509 78.4155C135.416 78.0145 135.317 77.6148 135.212 77.2167C134.538 74.6872 132.981 75.8696 131.223 74.4848C129.08 72.7975 129.361 69.9828 127.256 68.1434C124.113 65.3975 120.892 64.9523 118.333 61.3836C117.462 60.1438 116.754 58.7968 116.227 57.3758C115.127 54.3295 115.206 52.8836 112.074 51.0691C112.597 51.8158 113.467 52.9258 113.655 53.7676C114.434 57.2508 111.977 63.2002 110.144 66.118C111.032 63.3952 111.723 60.1492 112.383 57.3441C112.588 56.4694 112.707 54.8914 112.503 53.9904C112.345 52.842 110.974 51.5697 110.632 50.6232C108.421 44.5035 104.368 39.3134 98.9699 35.6843C97.6779 34.8157 96.1865 34.0606 94.8736 33.1064C93.9868 32.462 91.9594 30.6649 91.0168 30.4934C90.886 30.797 91.131 31.1671 91.3168 31.4948C94.9091 37.833 98.9127 45.2593 98.8251 52.7267C98.8131 53.7398 99.1792 58.1371 99.0291 58.3652C98.5495 57.702 98.007 50.1298 97.3929 48.2332C95.3122 41.9349 92.3258 35.6285 88.9086 29.9471C88.3098 28.9515 81.9327 28.9766 80.4577 28.1626C78.8452 27.2724 74.0979 26.1976 72.8856 25.0299C73.4996 23.8574 78.6186 25.8983 79.7649 26.2669C82.5355 27.158 85.4202 26.9067 88.1921 27.5191C89.0949 27.7186 90.4442 29.2041 91.454 29.6474C91.6023 29.6288 92.1705 29.562 92.2543 29.6116C93.4542 30.3239 94.7578 31.4553 95.9762 32.1177C100.416 34.5315 103.786 37.0165 106.896 41.05C107.681 42.0679 108.931 43.6553 109.502 44.8063C110.344 46.4997 110.826 48.2679 111.764 49.9753C118.622 52.7981 115.569 55.8723 119.624 60.7612C121.983 63.6045 125.648 64.6259 128.403 67.1823C130.718 69.33 129.623 71.9301 131.957 73.6831C132.963 74.4388 134.019 74.114 134.903 74.5892C135.966 75.1603 136.393 77.0039 136.71 78.107C137.394 78.2505 139.01 79.1141 139.728 79.4443C141.426 80.2187 143.134 80.9707 144.851 81.7002C148.119 83.0783 150.98 82.9482 151.152 87.1821C152.951 88.7328 156.405 90.6742 158.55 91.9267C160.5 89.8519 162.336 90.2815 164.275 91.9267C170.273 87.0893 174.44 62.8114 176.412 54.7701C174.704 52.2661 174.272 49.5536 173.111 47.1221C170.672 42.0145 170.505 40.2237 170.945 34.641C169.042 34.8754 168.141 35.0155 165.897 34.9457C163.467 35.9517 163.682 36.0418 161.223 35.9517C159.671 34.961 159.976 34.6487 159.353 32.9558C161.317 31.1726 167.183 28.0641 169.823 28.8366C169.832 28.3167 169.925 26.4509 170.036 25.9648C170.546 23.7167 173.526 24.6409 174.944 25.05L173.45 23.8205C171.524 23.7584 170.193 23.42 168.4 22.826C164.962 23.4067 164.401 24.3429 160.662 20.7589C161.41 19.8491 161.877 19.7793 163.093 19.2874C163.657 19.0588 165.43 17.6825 165.897 17.6023C168.64 17.1316 170.945 16.8533 174.944 17.2278C176.728 17.2601 179.001 19.3766 180.067 20.7589C180.011 19.1306 179.822 16.7646 180.056 15.1932C177.947 13.8021 177.326 12.5085 175.8 11.3771C173.019 9.50919 169.851 8.59626 168.897 4.96617C168.651 4.02904 169.303 3.27444 170.223 3.07993C171.47 2.81643 172.53 3.53228 173.627 3.86362C176.957 4.86923 179.108 7.072 181.937 8.87662C181.311 6.69625 179.716 3.42865 180.436 1.1928C180.661 0.490854 181.123 0.281288 181.731 0.00607014Z" fill="#F0F4FF"/>
<path d="M162.757 98.7831C165.191 102.745 166.974 100.148 169.619 98.1357C171.105 97.0067 172.986 95.4709 174.473 94.0936C176.179 92.5141 177.637 91.4474 179.17 89.7263C180.979 87.7107 182.031 86.3193 183.924 84.3842C185.328 82.9328 189.468 80.1359 191.681 80.6628C192.707 81.6044 190.127 84.0524 189.403 84.7608C189.203 85.1133 189.281 85.1119 188.988 85.2289C189.013 86.1511 184.662 91.5899 183.888 91.6723C183.468 91.2616 183.491 90.4713 183.048 89.7263C182.407 89.3283 181.802 89.8198 181.843 90.5125C182.281 91.3479 183.132 91.7946 183.924 92.2593C183.482 92.6545 183.053 93.0651 182.638 93.4899C181.877 94.2764 180.288 96.1829 181.843 97.3478C184.535 99.1796 183.888 98.7831 185.639 97.3478C186.202 97.1058 187.191 96.4712 187.566 95.9756C189.055 94.0087 190.414 92.4009 191.832 90.3824C193.297 88.2985 194.837 91.066 193.638 91.6826C193.165 91.465 192.697 91.2398 192.233 91.0042C192.8 91.5847 193.286 92.1782 193.804 92.7986C193.347 94.0602 192.036 96.1648 191.324 97.3478C190.762 96.7647 190.281 96.4468 189.621 95.9756L190.999 98.1357C189.221 100.027 187.295 102.012 185.214 103.803C185.8 104.371 185.951 104.285 186.61 104.774C188.961 103.506 189.947 102.223 191.825 100.368C191.785 100.611 191.743 100.856 191.698 101.099C190.734 106.333 189.257 107.328 185.214 110.114C185.66 110.644 185.709 111.011 186.125 111.57C187.307 110.543 187.685 110.756 188.782 109.595C188.605 110.68 188.776 112.652 188.067 113.512C186.331 115.617 181.556 117.721 179.17 119.338C176.263 121.309 173.654 123.444 170.59 125.164C168.141 126.537 167.493 126.351 165.25 128.076C162.875 129.903 160.198 131.899 157.967 133.902C154.156 137.322 150.327 141.35 146.802 145.068C143.66 148.381 139.033 153.194 135.636 156.234C130.697 160.653 104.207 177.61 98.7402 178.08C96.2329 178.295 92.9849 176.055 90.8952 174.682C89.2657 173.612 88 172.003 86.6433 170.614C83.7475 167.652 80.5364 163.768 77.3796 161.088C77.4719 160.452 77.7274 159.289 77.865 158.661C79.2136 152.667 82.6644 148.156 86.6034 143.611C89.0796 140.755 92.6203 136.903 95.8274 134.873C97.2609 136.783 97.8384 136.591 99.7112 138.06C101.03 137.832 102.736 137.081 104.08 136.815C108.604 135.942 113.66 134.891 118.159 133.902C121.393 133.215 128.636 131.916 131.267 130.504C140.123 125.747 146.898 119.147 154.856 113.027C154.367 112.468 153.924 110.397 154.084 109.629C154.736 106.479 156.921 106.803 156.997 103.317C157.061 100.352 158.53 99.0354 160.657 96.9668C160.474 96.645 160.279 96.3373 160.083 96.0245C159.723 93.0072 163.567 89.986 163.311 94.7643C163.239 96.0953 162.641 97.1342 162.743 98.6106L162.757 98.7831Z" fill="#25252F"/>
<path d="M188.98 85.2285C188.296 84.729 187.97 84.5175 187.561 83.7898L187.637 83.6805C188.354 83.9263 188.587 84.4278 189.396 84.7604C189.195 85.1129 189.273 85.1115 188.98 85.2285Z" fill="#F0F4FF"/>
<path d="M176.657 101.516C177.129 101.948 177.487 102.559 177.843 103.098C177.578 103.422 177.307 103.743 177.031 104.058C176.517 104.635 176.165 104.988 175.382 105.035C174.66 104.618 174.436 104.367 173.982 103.717C175.601 103.166 176.088 103.234 176.657 101.516Z" fill="#F0F4FF"/>
<path d="M181.028 106.786C182.246 107.732 181.843 109.798 179.95 109.488L178.64 108.522C179.881 108.118 180.491 108.055 181.028 106.786Z" fill="#F0F4FF"/>
<path d="M181.62 15.8911C180.321 14.3418 178.878 13.351 177.336 12.0777C176.461 11.348 175.642 10.3188 174.724 9.65998C174.042 9.16992 173.097 8.86832 172.363 8.38842C170.519 7.18419 170.486 4.45492 173.27 5.16343C176.49 5.98304 179.299 7.303 181.915 9.36507C183.071 10.2739 184.609 11.0688 185.442 12.3593C186.374 13.8215 186.264 16.4037 186.753 18.0716C187.316 20.4932 189.296 24.4298 189.521 26.6132C190.014 31.4364 189.898 36.3136 190.006 41.1773L190.492 50.4012C190.602 53.2407 190.929 58.2982 190.492 61.0816C189.489 56.5217 190.257 55.99 186.21 52.5339C187.034 54.2098 187.599 55.3717 187.847 57.2754C188.173 59.7666 188.325 62.0133 188.55 64.4799C189.2 65.1075 189.166 65.5528 190.006 65.9363C189.887 67.4412 190.004 69.7607 190.006 71.2764C190.01 74.0092 189.975 75.8353 190.006 78.5585C185.958 80.0714 181.486 85.3182 178.572 88.3709C178.049 88.9184 176.66 90.5651 176.122 90.9203L175.993 90.8392C175.75 91.0452 175.846 91.0246 175.573 91.0864C174.62 93.5476 170.817 95.3189 168.683 96.7156C167.899 97.2292 165.392 99.3494 164.615 99.146C164.515 97.2099 165.644 96.3771 164.693 94.0368C170.194 88.871 173.934 73.0191 175.495 65.7203C175.795 64.3221 177.302 55.5854 177.782 55.1079L177.979 55.238C178.519 56.7017 178.256 62.683 178.31 64.5888C178.921 65.0952 179.529 65.6055 180.134 66.1197C179.884 63.219 180.14 57.8798 179.425 55.5517C176.886 53.3817 176.204 52.7257 174.864 49.6539C172.98 45.3326 172.3 42.8959 172.729 38.1534C172.796 37.4107 172.689 36.0859 172.935 35.4621L173.151 35.4291C173.898 36.4318 172.441 38.219 175.133 40.5894C175.258 38.8529 175.403 37.2471 174.584 35.7972C173.616 34.0829 172.527 33.3672 170.628 33.6174C169.887 33.5367 168.876 33.7528 168.142 33.8923C166.138 34.2731 164.127 33.9194 162.346 35.0158C162.022 35.2151 161.056 34.3967 160.85 33.8923C160.905 33.7139 161.096 33.0964 161.224 32.9561C162.213 31.8742 161.283 32.5763 162.533 31.8327C163.993 30.9639 166.512 30.5022 168.142 30.0115C169.807 29.5104 175.422 29.5564 177.87 29.5261C176.095 28.2038 177.587 26.8448 176.368 25.0921C175.453 23.7747 173.818 22.9701 172.521 22.0521C169.776 22.1674 169.948 22.883 167.581 21.7218C165.338 22.0521 165.18 22.4186 162.533 20.9728C163.831 20.3467 166.36 19.0039 167.581 18.726C169.038 18.3946 175.24 18.5402 176.742 18.726C177.928 19.5646 179.126 21.1662 180.108 22.2835C181.018 23.3055 182.513 24.1428 183.493 25.0995L183.652 24.7279C183.112 24.0485 182.563 23.3763 182.005 22.7117C181.679 20.2472 181.847 18.0878 181.62 15.8911Z" fill="#25252F"/>
<path d="M183.49 25.0995L183.649 24.728C184.343 25.5466 184.918 26.2496 185.565 27.1096C184.8 26.5859 184.126 25.7881 183.49 25.0995Z" fill="#F0F4FF"/>
<path d="M97.7644 95.5496C98.3228 95.6886 99.6418 95.6844 100.019 95.8337C104.096 97.4415 106.626 102.183 110.379 104.43C112.911 105.946 116.267 104.891 118.854 106.418C120.288 107.265 120.874 108.565 122.262 109.534C124.265 110.933 126.149 111.056 128.269 111.985C128.599 112.13 129.567 113.231 130.019 113.562C134.262 116.676 134.47 118.154 139.787 118.979C140.361 118.371 140.501 118.094 140.827 117.35C142.147 118.381 142.973 118.859 144.41 119.662C143.161 120.785 141.598 121.924 140.274 122.999C137.536 125.222 135.367 126.97 132.288 128.709C126.353 131.693 121.969 132.159 115.42 133.498C110.214 134.525 105.02 135.612 99.8393 136.755C100.535 133.553 100.798 128.244 96.2728 127.721C95.6782 127.651 95.018 128.158 94.3994 127.746C94.4436 126.841 93.932 125.931 93.3952 125.163C94.3751 121.273 94.0997 117.926 94.8516 113.998C95.6778 109.68 96.9365 105.313 97.2789 100.89C97.4149 99.1341 97.6875 97.3054 97.7644 95.5496Z" fill="#25252F"/>
<path d="M148.817 87.3996C149.332 87.6293 151.072 88.6874 151.7 89.0503C153.721 90.2185 156.289 91.4247 158.125 92.7995C157.778 94.3699 157.438 95.8966 157.193 97.4542C157.002 98.6745 156.515 102.571 156.174 103.454C154.151 108.686 152.482 106.782 152.433 113.123C150.225 114.701 147.38 117.2 145.283 118.997L144.133 118.268C143.075 117.478 139.296 114.682 138.156 115.451C138.204 115.86 138.787 116.296 139.131 116.614L139.101 116.825C138.764 117.109 138.747 117.148 138.329 117.205C135.952 114.398 137.56 103.432 139.304 100.197C141.807 95.5568 144.452 90.5403 148.817 87.3996Z" fill="#25252F"/>
<path d="M183.741 1.75038C185.391 2.29503 188.393 12.067 188.861 13.9436C189.161 15.1458 188.97 18.4335 188.588 19.7031L188.482 19.7286L188.393 19.2678C187.862 16.7174 188.27 13.9081 186.361 12.3401C185.633 11.6183 184.344 10.765 183.907 9.82386C182.883 7.62443 180.928 3.33192 183.741 1.75038Z" fill="#25252F"/>
<path d="M181.45 118.853C181.531 118.932 182.256 120.487 182.242 120.621C181.683 125.515 176.601 126.116 173.091 126.62L172.533 125.422C172.694 125.097 180.384 119.69 181.45 118.853Z" fill="#25252F"/>
<path d="M172.948 25.9791C173.862 26.1291 175.801 26.6083 175.573 27.7925C175.266 28.182 175.186 28.1891 174.722 28.4118C173.67 28.6435 172.97 28.5055 171.908 28.4074C172.112 27.2312 172.053 26.7804 172.948 25.9791Z" fill="#25252F"/>
<path d="M90.9464 36.6366C91.5807 37.0233 93.1468 42.7406 93.5109 43.8046C98.1846 57.4624 98.6425 70.3832 95.5542 84.4663C95.4685 84.8573 95.4313 85.2619 95.1714 85.5508C95.0582 85.0869 95.3298 83.0599 95.334 82.3844C96.316 78.0726 96.2627 73.1101 96.316 68.3633C96.3968 61.1602 95.2126 53.9443 93.5109 47.0026C93.0606 45.1658 90.404 38.0917 90.9464 36.6366Z" fill="#F0F4FF"/>
<path d="M75.6184 100.03C75.449 99.6313 75.0604 98.9555 74.7968 98.5809C70.8071 92.904 67.3812 85.9282 60.8207 82.8482C60.3012 82.6044 58.4761 81.7206 58.3413 81.3108L58.5061 81.1918C60.15 81.3939 64.3204 83.8114 65.5237 84.8608C70.049 88.8074 73.3487 94.5633 75.8445 99.9518L75.6184 100.03Z" fill="#F0F4FF"/>
<path d="M75.8476 99.9516C76.0483 100.288 76.7275 101.774 76.7422 102.127C76.1821 101.315 76.024 100.945 75.6215 100.03L75.8476 99.9516Z" fill="#25252F"/>
</g>
<defs>
<clipPath id="clip0_3619_13933">
<rect width="250" height="179" fill="white"/>
</clipPath>
</defs>
</svg>
