<svg width="250" height="179" viewBox="0 0 250 179" fill="none" xmlns="http://www.w3.org/2000/svg">
<path d="M68.7037 12.2421C69.0605 11.1349 69.7897 8.98291 70.4572 8.03875C71.4737 6.60063 75.0599 4.96844 76.7208 4.33392C77.9855 3.8508 79.9347 3.48994 81.1641 2.92948C82.8975 2.14165 84.602 0.35352 86.5076 0.0334175C88.1807 -0.247445 88.5315 1.29805 88.5749 2.57089C90.7391 1.87101 93.1476 1.23005 95.4082 0.849884C95.7842 0.786671 97.2586 1.14185 97.5014 1.04041C97.6802 0.965839 98.1812 0.110382 98.6365 0.12464C99.7409 0.161104 100.859 0.624035 101.948 0.791341C104.451 1.1763 107.352 1.0283 109.518 2.55512C109.755 2.11755 110.212 1.21099 110.789 1.24859C112.344 1.34953 113.899 2.37091 115.472 2.81151C118.308 3.60539 121.107 4.79269 123.729 6.1189C124.468 6.49918 126.515 8.5567 127.378 9.23147C128.407 10.0431 129.425 11.0496 130.471 11.8207C132.273 13.1485 133.855 14.2291 135.198 16.062C135.956 16.8944 136.632 17.9949 137.395 18.8002C142.102 23.7707 145.832 30.5245 152.12 33.6494C153.371 34.2714 154.871 34.8669 155.94 35.7323C158.164 37.5332 160.039 39.7568 162.34 41.4821C164.223 42.9111 166.158 44.2486 168.078 45.6287L178.487 53.1473C179.283 52.554 180.491 51.6943 181.447 51.4459C183.486 52.079 186.345 55.4393 187.755 57.0552C192.774 62.785 199.892 65.7938 204.964 71.3662C209.018 75.8194 212.879 80.5782 216.811 85.1316C219.154 88.2669 218.407 93.8185 216.61 96.8341C211.86 104.803 205.051 110.496 197.95 116.192C191.681 121.22 185.509 125.436 178.485 129.373C171.219 133.446 163.657 136.834 156.357 140.795C152.078 143.145 147.909 145.69 143.863 148.423C143.674 149.348 143.388 150.343 143.111 151.246C141.051 157.95 140.222 164.953 138.806 171.805C138.34 174.064 137.926 176.717 137.138 178.861C136.63 174.573 138 169.234 138.741 164.984C139.663 159.677 140.531 154.071 142.717 149.131C139.772 151.361 134.505 155.154 132.237 157.855C133.842 153.65 141.578 148.418 145.292 145.906C157.301 137.784 170.971 132.643 183.233 124.954C186.939 122.63 190.607 120.426 194.077 117.731C196.423 115.91 198.692 114.088 200.928 112.138C201.764 111.454 202.668 110.91 203.505 110.226C209.628 105.22 216.655 98.5929 217.198 90.1809C217.247 89.4201 216.85 86.8222 216.407 86.2595C214.681 84.1033 212.741 82.1162 210.89 80.0547C208.065 76.9087 205.162 72.9639 202.012 70.1596C198.357 66.9038 193.936 64.578 190.245 61.2389C187.059 58.3567 184.728 55.2977 181.766 52.2573C179.444 55.9502 177.882 56.5757 175.291 59.4141C171.742 63.2993 168.413 66.6735 164.709 70.3839C167.565 73.3837 170.75 76.089 173.253 79.4221C173.556 79.8247 173.753 80.5067 173.992 80.9627C174.502 81.9328 175.582 82.6142 176.439 83.2533C177.256 85.6538 176.251 85.6223 178.818 87.0455C182.66 84.3368 190.398 80.9018 195.087 80.9995C195.534 81.2607 195.572 81.253 196.098 81.3248C190.537 82.2127 184.512 84.1196 179.946 87.525C181.061 87.6348 182.001 87.7281 183.131 87.7445C184.488 87.7635 186.24 87.3181 187.495 87.289C192.059 87.1856 197.847 86.5156 201.771 89.1274C196.234 87.8038 190.5 87.5225 184.861 88.301C190.34 88.9381 196.351 91.608 201.881 92.4899C202.51 92.5896 203.388 92.7208 203.99 92.8684C200.882 93.9964 189.448 90.3765 185.98 89.6611C183.971 89.2435 181.921 89.0416 179.869 89.0593C178.973 89.0618 177.253 89.1148 176.473 89.5122C174.182 90.6781 171.858 90.8749 169.367 91.4225L157.624 94.0999C158.326 94.7282 158.477 94.915 159.037 95.6695C156.668 94.9856 155.045 93.4716 152.821 93.7302L152.68 93.8185C151.615 94.5024 151.42 95.2569 150.143 95.3364C146.869 95.5395 143.508 95.0828 140.195 95.0159C135.664 94.9263 131.467 95.4096 127.088 96.5729C125.522 96.9893 123.768 97.8738 122.289 98.2725C121.172 97.7501 120.353 97.2303 119.308 96.6991C115.948 97.1419 114.269 98.0731 111.175 99.1658C106.996 100.641 103.248 102.422 99.4421 104.667C100.832 102.936 108.078 99.1872 110.378 98.3292C108.309 97.4624 103.981 95.1497 101.976 95.2708C90.5187 95.9635 78.9429 103.347 67.2936 102.612C62.4269 102.305 55.3136 97.9217 57.7057 92.5543C59.0615 89.5122 59.9695 90.7273 60.8536 89.8352C58.3465 90.1494 50.9364 92.8457 49.4634 91.8641C49.7319 90.9418 60.4171 88.9369 61.8783 89.2094L61.7586 89.3734C62.4537 88.8751 64.0956 87.7849 64.4907 87.1402L64.6957 86.9547C67.3101 85.4356 70.6687 78.1869 71.7645 75.2749C72.3367 73.7544 72.8456 71.6059 73.1939 69.9761C70.4138 69.5382 69.4793 67.8302 69.0485 65.2695C66.3254 65.0678 65.6328 64.7244 63.4101 63.1741C60.3529 63.3531 58.2422 62.016 56.4015 59.7066C55.4669 62.5753 54.9819 62.747 54.502 66.107C54.2569 66.4531 53.7505 66.5652 53.3267 66.7163C53.3367 68.0665 53.4221 68.717 53.0711 70.0262C50.3193 71.2843 50.0772 71.7833 49.5428 74.73C51.1159 74.0127 52.0634 73.8302 53.7438 73.4777C52.0805 74.2628 48.8642 75.5683 47.9559 77.1699C46.7842 79.2363 46.2802 80.7878 44.6439 82.7177C47.5719 81.4135 50.7808 80.0033 54.049 79.9949C54.3248 80.1641 54.3983 80.244 54.7066 80.3253C48.0528 81.5306 41.95 84.981 38.0321 90.5948C36.3764 92.9669 33.1709 98.6245 32.5223 101.394C32.0125 103.57 32.2071 110.086 32.6645 112.351C33.5859 116.916 34.6981 121.612 35.5467 126.212C36.4709 131.091 36.7927 136.367 38.0518 141.158C38.7289 143.734 39.9592 146.737 40.8236 149.331C42.544 154.495 43.7163 159.494 44.8772 164.808C45.6358 168.279 46.4403 171.136 46.7855 174.736C46.7663 175.267 46.7993 176.052 46.5593 176.495C44.4204 170.581 43.3427 162.693 41.6187 156.519C40.3152 151.851 38.7255 147.696 37.3296 143.115C35.7829 138.04 35.4162 132.247 34.3426 127.039C32.9872 119.153 30.2962 111.545 31.1716 103.459C31.4406 99.4055 33.6012 96.0038 35.3092 92.5366C37.5355 88.0158 40.3678 86.1976 43.4948 82.7084C45.5022 80.4686 45.718 77.4383 48.3065 75.1191C48.8466 71.911 48.9993 70.5201 52.3477 69.264C51.9987 67.6168 51.4944 66.5479 53.3316 65.6524C53.8054 63.0394 54.4172 61.3597 55.8718 59.0858C53.4923 56.0192 53.7267 53.7983 54.5803 50.2329C53.0769 47.8969 53.2674 44.6897 54.2839 42.2008C55.5504 39.1002 57.571 37.1185 60.6102 35.8284C59.4212 34.5935 60.1219 34.4275 59.7398 33.0195C59.2893 31.3589 57.2565 28.5368 60.014 27.6329C61.0534 27.2923 62.0809 27.4618 63.0434 27.978C62.3208 23.7086 62.164 22.7964 63.7068 18.658C65.2671 14.4725 64.0194 14.1475 68.7037 12.2421Z" fill="#F0F4FF"/>
<path d="M84.6902 5.78125C87.7168 3.90404 90.1927 2.89226 93.7898 2.41166C92.8677 2.78047 91.6718 3.10864 90.8256 3.5717C87.3831 5.33876 82.6956 9.23728 81.5211 13.0834C83.8047 9.34717 87.1485 6.30475 90.898 4.07715C90.384 6.58006 91.2833 7.64206 92.8745 9.3044L93.0063 9.52445C94.1313 9.7874 95.1948 10.3463 96.3272 10.6373C97.8108 11.0186 99.3027 11.1807 100.731 11.7599C101.846 12.2122 102.997 12.5927 104.149 12.9391C105.353 13.3015 106.602 13.5586 107.776 13.9984C109.156 14.8616 110.549 15.9414 112.028 16.8611L111.864 16.8042C110.705 16.3959 108.838 15.2247 107.744 14.9815C102.586 13.8345 97.3599 12.8559 92.0686 12.5105C88.0778 12.2499 89.0963 15.7008 91.169 17.6676C92.987 19.3929 96.7623 19.5833 98.961 20.728C100.949 21.6671 102.726 22.1657 104.848 22.5442C105.559 22.6709 107.481 24.3178 108.243 24.651C111.917 26.089 113.605 27.4892 116.613 29.7679C114.059 30.3469 107.655 32.7675 105.69 34.321C109.387 32.8129 113.198 31.6048 116.919 30.2003C119.691 32.6821 119.991 33.7293 119.907 37.292C116.02 37.1793 114.815 36.5481 111.269 35.0786C108.136 33.7801 101.524 34.0006 101.657 38.6834C101.649 39.5184 102.279 40.1269 102.995 40.4404C105.382 41.4861 107.806 42.496 110.201 43.5298C110.724 43.7556 112.134 44.1308 112.515 44.4281L112.75 44.5819C113.483 44.4585 114.01 44.653 114.739 44.8397C113.199 46.2855 112.195 46.7112 110.381 47.732C103.047 51.8581 93.6068 52.4787 85.5992 49.9202C92.3678 54.3548 104.997 52.4249 111.362 48.1304C111.598 47.9709 112.932 47.0024 113.069 47.0487C112.844 47.9798 107.345 51.6017 106.268 52.3017C104.526 53.4334 101.451 54.4946 99.4538 55.3541L99.7182 55.5862C102.32 54.9018 104.108 54.4554 106.532 53.2383C101.855 57.6419 100.143 59.6589 93.3526 59.4242C95.743 60.1976 97.8761 60.3278 100.201 59.1354C102.288 58.0055 103.355 57.0128 105.031 55.3534C107.854 52.3219 108.88 51.6133 112.208 49.1239C111.255 51.5695 110.665 54.3518 111.554 56.8874C112.029 52.8868 112.911 48.3855 115.686 45.312C116.477 45.6763 117.271 46.0918 118.048 46.4884C115.97 48.1578 114.433 51.7006 114.076 54.3065C113.743 56.738 113.713 58.0189 115.191 60.0753C113.687 56.1789 115.118 50.3322 118.051 47.4717L118.33 47.3746C118.581 47.6544 118.522 47.7028 118.619 48.1211C118.678 47.5274 118.581 47.4097 118.896 47.0567C119.293 47.0534 119.822 47.4153 120.196 47.6227C119.601 48.8225 119.108 49.6947 118.752 51.0015C119.878 49.9645 120.088 49.0975 120.799 47.8101C122.149 48.2659 123.407 48.4812 124.822 48.6043C125.206 48.8654 124.988 48.7801 125.528 48.7689C127.198 49.1191 128.949 49.432 130.599 49.8056C130.116 50.6596 129.326 52.0003 129.101 52.9236C128.176 56.7183 129.07 60.0614 127.984 64.0177C126.784 68.3982 125.108 72.5887 122.729 76.4693C121.63 78.2604 120.425 79.9187 119.331 81.7184C117.884 84.1003 117.22 87.0786 114.251 87.8785C111.44 88.6356 107.23 87.3612 104.615 86.2484C105.272 84.0567 105.984 82.1354 106.707 79.9876C104.071 82.6123 101.49 90.3906 101.967 94.1229C96.6362 94.0636 92.3353 95.825 87.3163 97.281C79.1049 99.6632 67.2364 104.862 59.8704 98.1428C58.1848 96.6034 58.4042 94.3916 59.0597 92.4347C60.8332 91.4164 62.573 90.4525 64.2192 89.1756C68.8326 85.5973 71.7386 79.7304 73.4326 74.252C73.6563 73.5285 74.1377 70.3923 74.5477 70.1111C75.1468 69.7004 77.2093 69.9689 77.8892 69.7017L77.9173 69.5387C77.5972 69.3295 76.8459 69.2037 76.4459 69.1592C73.9555 68.8812 72.8795 67.1758 71.7007 65.1641C72.723 65.0258 73.6558 64.8112 74.6254 64.4467C75.3788 67.6029 76.9842 69.1947 80.256 69.7912C81.3771 69.9954 83.8957 70.3576 84.9225 69.9968L85.0108 69.7991C84.5276 69.4376 83.4465 69.2375 82.7629 68.7949C80.3454 67.23 79.147 64.2398 78.6354 61.5604C79.5755 60.1791 79.985 59.1964 80.7163 57.7123C80.559 63.4007 82.908 68.1779 88.9609 69.0881C89.3005 69.0108 89.7488 69.0398 90.0839 69.1329C90.368 69.05 90.2801 69.0952 90.5086 68.8722L90.1292 68.6022C90.5823 68.1605 94.5485 68.3004 95.5396 67.1615C95.6496 67.035 96.9877 66.2039 97.0891 65.6677C96.8576 65.6919 95.8599 66.4486 95.5099 66.6116C89.4968 69.4129 84.6573 63.7469 82.1833 59.1039C82.299 59.6878 82.4678 60.2599 82.6875 60.813C84.1755 64.5876 86.8092 66.4775 90.3605 68.0394C88.7592 68.1604 87.3793 68.1893 85.9361 67.3028C83.5372 65.8289 82.0295 63.1148 81.3958 60.4268C81.2086 59.6323 81.1286 58.6282 80.9479 57.9679L80.8942 57.778C81.3789 56.7428 81.7231 55.8441 82.1255 54.781C83.6292 57.5702 85.9995 59.5971 88.8427 60.9097C85.795 58.381 84.7303 57.1571 82.4565 54.0145C82.8203 53.1559 83.0426 52.2341 83.2298 51.324C86.8932 54.6324 89.6549 55.7691 94.6075 55.6443L94.5309 55.3799C89.8928 54.9436 87.0106 53.4899 83.4008 50.7352C83.4673 47.3643 83.5508 46.6451 82.1945 43.5258L82.058 43.3218L82.1557 43.1202C82.8536 42.911 83.9946 42.8117 84.7234 42.8101C89.0723 42.23 98.9391 38.8096 101.91 35.855C101.726 35.8607 96.4555 38.3333 95.7064 38.6627C90.9244 40.7658 86.6927 41.6893 81.5074 42.3237C81.0508 41.5294 79.9247 39.8464 80.3799 38.9264L80.1854 38.7977C80.0719 38.7451 79.7962 38.5624 79.8679 38.4185C82.9438 32.2453 88.1442 27.4353 93.638 23.4056C94.6501 22.6632 96.0819 22.04 96.7494 21.4452L96.621 21.3863C89.6205 24.2222 82.6598 31.1562 79.3913 37.9631C78.0175 35.9047 76.7996 35.063 74.5988 33.9447C74.7584 29.0844 75.4649 26.5897 77.5625 22.1943C77.9321 21.4197 78.9898 19.6279 79.2209 19.0494C79.023 19.0972 77.3249 21.5607 77.0939 21.9234C75.4527 24.5011 74.2004 27.4985 73.6912 30.5211C73.4953 31.6834 73.6751 32.5243 73.9119 33.6621C72.2564 33.0643 71.7673 32.9699 70.001 32.7978C69.84 32.0712 69.7056 31.3387 69.5977 30.6021C69.013 26.5566 69.8599 20.5447 72.3515 17.2054C75.4476 15.8912 78.5055 14.6255 77.5607 10.5626C80.4664 9.33582 83.2979 8.79075 84.6902 5.78125Z" fill="#25252F"/>
<path d="M92.8745 9.3044L93.0063 9.52445C87.5021 12.9938 81.9893 20.4474 79.3909 26.4937C78.312 29.0047 77.4108 31.8686 76.5905 34.4818C76.5875 32.2396 78.0605 27.863 78.9394 25.7034C81.2242 20.0893 87.2417 11.6656 92.8745 9.3044Z" fill="#F0F4FF"/>
<path d="M100.203 59.1357C102.29 58.0058 103.357 57.0131 105.033 55.3536L105.536 55.6317L105.629 55.7329C104.061 57.7637 100.156 61.2944 97.6158 61.6694C93.3714 62.2962 88.0625 59.547 85.6731 56.0656L85.3664 55.6191C87.9954 57.8535 90.5678 59.8929 94.02 60.6981C96.6658 61.3152 98.2045 61.1229 100.401 59.4183L100.203 59.1357Z" fill="#F0F4FF"/>
<path d="M100.199 59.1357C102.287 58.0058 103.353 57.0131 105.029 55.3536L105.533 55.6317C104.806 56.1238 104.233 56.6732 103.538 57.204C102.512 57.972 101.465 58.7104 100.397 59.4183L100.199 59.1357Z" fill="#25252F"/>
<path d="M80.1803 38.7974C81.3392 37.4489 82.3094 35.8624 83.4658 34.5843C88.5389 28.9769 95.2547 24.7609 102.338 22.2531C102.399 22.253 102.461 22.253 102.523 22.253C95.7379 25.5887 90.5581 28.5642 84.9818 33.835C83.4645 35.2692 81.5764 37.8436 80.3748 38.9261L80.1803 38.7974Z" fill="#F0F4FF"/>
<path d="M112.513 44.4277L112.748 44.5815C112.045 45.321 109.689 46.2048 108.679 46.5937C104.046 48.3778 99.078 49.0585 94.1332 48.8054C93.6649 48.7814 92.5544 48.5757 92.1489 48.3885C93.2184 48.2312 94.6552 48.4588 95.756 48.4183C100.849 48.2308 105.84 47.1131 110.52 45.0889C111.157 44.8139 111.818 44.5411 112.513 44.4277Z" fill="#F0F4FF"/>
<path d="M85.7082 43.0248C89.6085 42.3788 93.3417 41.5463 96.9601 39.8779C97.4349 39.659 98.07 39.3575 98.5732 39.2692L98.5713 39.281C97.2664 40.1502 96.3336 40.5345 94.9642 41.1677C90.5549 43.2068 87.6436 43.6535 82.8686 43.5008C82.5599 43.4839 82.4699 43.444 82.1957 43.5257L82.0592 43.3217L82.1569 43.12C82.8548 42.9108 83.9958 42.8115 84.7246 42.8099L84.7921 42.9498L85.7082 43.0248Z" fill="#F0F4FF"/>
<path d="M82.1957 43.5257L82.0592 43.3217L82.1569 43.12C82.8548 42.9108 83.9958 42.8115 84.7246 42.8099L84.7921 42.9498L85.7082 43.0248L85.585 43.0449C84.6363 43.1895 83.7222 43.1355 82.8273 43.3543L82.8686 43.5008C82.5599 43.4839 82.4699 43.444 82.1957 43.5257Z" fill="#25252F"/>
<path d="M82.5481 65.7163C84.4149 68.1581 84.5448 68.8215 87.6213 70.0741C88.1067 69.7742 88.6093 69.5243 88.9593 69.0877C89.299 69.0103 89.7472 69.0394 90.0823 69.1325C86.7661 69.9062 84.9319 75.0341 85.0199 78.1169C84.1196 75.5465 85.8791 72.3209 87.4788 70.3769C84.3681 69.7432 83.478 68.728 82.5481 65.7163Z" fill="#F0F4FF"/>
<path d="M124.821 48.6037C125.205 48.8647 124.987 48.7794 125.527 48.7682C125.368 49.4248 125.201 50.1856 124.805 50.7458C124.306 50.5763 124.552 50.5756 124.039 50.7791C122.813 51.4272 121.409 52.1011 120.445 50.7114C120.496 50.7219 120.549 50.7323 120.601 50.7428L120.844 50.7871C122.883 51.1703 124.216 50.1283 125.554 48.7549C123.455 50.01 122.9 50.2405 120.427 50.2293L120.233 49.9499L120.294 49.7656C121.861 49.6616 123.397 49.2677 124.821 48.6037Z" fill="#F0F4FF"/>
<path d="M124.041 50.7798C124.555 50.5762 124.308 50.5769 124.808 50.7465C124.026 52.2769 121.145 54.505 119.997 52.3992L120.053 52.2432C121.777 52.9209 122.728 52.2011 123.915 50.9183L124.041 50.7798Z" fill="#F0F4FF"/>
<path d="M118.051 47.4717L118.33 47.3746C118.581 47.6544 118.522 47.7028 118.619 48.1211C117.842 50.0855 117.649 50.6697 116.124 52.1471C116.813 50.5121 117.479 49.1672 118.051 47.4717Z" fill="#F0F4FF"/>
<path d="M99.7197 55.5857C99.1351 55.6769 98.8833 55.7481 98.3061 55.6823L98.2897 55.5729C98.7831 55.4148 98.9315 55.4085 99.4553 55.3536L99.7197 55.5857Z" fill="#25252F"/>
<path d="M94.5319 55.3801C95.0166 55.3768 95.349 55.3307 95.7949 55.5174C95.5016 55.6986 94.9817 55.6556 94.6086 55.6446L94.5319 55.3801Z" fill="#25252F"/>
<path d="M110.931 50.9275L111.033 51.0241C111.063 51.5078 110.83 51.7591 110.699 52.2326C109.659 56.0024 109.562 57.2704 111.233 60.703C111.162 60.1305 110.93 59.1063 111.354 58.6819C112.47 59.6216 112.257 64.9275 114.269 64.873C115.23 64.4032 115.359 63.21 116.144 62.3948C116.866 63.0161 115.926 65.4048 114.862 65.6624C111.662 66.5413 112.308 63.7257 111.452 62.5946C108.709 58.9682 107.975 55.1567 110.931 50.9275Z" fill="#F0F4FF"/>
<path d="M103.874 44.5861C103.691 45.0513 101.119 45.6587 100.581 45.7949C95.229 47.1499 88.8601 47.3208 83.6156 45.433C83.4304 45.314 83.5201 45.3978 83.3806 45.1499C83.7624 45.0555 85.4617 45.4709 86.0278 45.5747C87.8258 45.8877 89.6431 46.0762 91.4669 46.1387C96.0927 46.2679 99.4313 45.6346 103.874 44.5861Z" fill="#F0F4FF"/>
<path d="M100.221 60.7918L100.326 60.9484C98.1942 66.4632 90.8545 67.6545 86.5011 63.9324C86.2807 63.6986 86.2951 63.7161 86.199 63.4079C86.3655 63.3833 88.2591 64.5013 89.0024 64.7651C90.3105 65.2271 91.7056 65.3876 93.0841 65.2349C96.3044 64.8691 98.2851 63.2344 100.221 60.7918Z" fill="#F0F4FF"/>
<path d="M99.2674 34.6154C101.112 33.732 112.376 27.886 113.304 28.0497C112.18 29.4387 101.816 33.674 99.3602 34.8759L99.2674 34.6154Z" fill="#F0F4FF"/>
<path d="M81.2567 10.7207L81.3455 10.8131C76.6235 16.5951 75.3557 20.6545 73.7597 27.7937C73.7415 27.548 73.7369 27.3014 73.7464 27.0552C73.9175 21.6833 77.3701 14.3895 81.2567 10.7207Z" fill="#F0F4FF"/>
<path d="M90.7185 69.173C90.988 69.1435 91.1681 69.1473 91.44 69.1484L91.4415 69.2557C91.2657 69.3585 91.0908 69.4629 90.9167 69.5687C88.8477 70.8003 88.1278 72.5728 87.5359 74.7882C87.4994 75.1123 87.5739 74.99 87.3833 75.2C87.1687 72.622 88.445 70.3699 90.7185 69.173Z" fill="#F0F4FF"/>
<path d="M115.812 53.4652C117.046 53.7759 116.522 56.6093 116.117 57.443L115.793 57.5494C115.739 56.8746 115.871 55.9784 115.943 55.2866C115.612 54.9297 115.229 54.5693 114.879 54.2254L115.812 53.4652Z" fill="#F0F4FF"/>
<path d="M99.3619 34.8754C98.8516 35.1779 98.0774 35.6185 97.5107 35.7209L97.542 35.5724L97.6371 35.716L97.6626 35.47C98.0025 35.2196 98.8574 34.8213 99.2691 34.6149L99.3619 34.8754Z" fill="#F0F4FF"/>
<path d="M98.4187 0.824891C103.685 2.35285 109.308 3.35833 114.531 4.87796C119.135 6.21742 122.875 11.7874 127.931 13.4079C127.899 13.3711 127.868 13.3336 127.835 13.2971C126.478 11.7673 118.075 5.35843 116.294 4.54525C115.321 4.10099 110.886 3.19796 110.64 2.75333C110.585 2.65365 110.617 2.52659 110.606 2.41329C110.716 2.30049 110.846 2.1188 111.089 2.20094C114.924 3.49384 119.378 4.9808 123.006 6.68893C123.737 7.03339 126.332 9.68379 127.043 10.2825C128.016 11.108 129.012 11.9066 130.03 12.6773C131.373 13.6797 132.723 14.4677 133.807 15.795C138.125 21.085 141.992 26.4762 146.816 31.3232C150.138 34.66 154.059 35.0366 157.078 38.1285C160.873 42.0141 164.847 44.7473 169.16 47.8945C172.239 50.1759 175.345 52.4235 178.474 54.6367C174.328 58.5582 170.463 62.5661 166.688 66.8553C166.144 67.4721 165.524 68.1057 165.021 68.7489C159.366 63.0807 144.898 48.3733 136.789 48.231C135.311 48.205 133.837 48.5631 132.354 48.5697C130.066 48.5802 127.768 47.9622 125.524 47.561C124.099 47.3064 122.572 47.2039 121.207 46.7062C119.065 45.9245 117.481 44.6587 115.04 43.8979C113.077 43.2858 108.903 42.4672 107.392 41.0656L107.095 40.9897C106.43 40.8614 103.633 39.6976 102.937 39.3547C102.694 39.2079 102.568 38.9491 102.605 38.676C102.927 36.3257 104.036 35.8427 106.095 35.5142C110.786 34.7658 114.242 38.1526 118.691 38.3019C119.595 38.3323 120.412 38.2904 121.089 37.6233C121.305 36.8681 120.86 37.5393 120.892 37.0838C120.936 36.5036 120.897 35.578 120.875 35.0212C121.893 36.1567 123.074 37.3239 124.311 38.2149C123.43 36.6909 122.572 35.9891 121.596 34.6403C120.726 33.4396 120.19 32.0932 119.096 30.9284C117.656 29.5874 115.201 26.7701 113.358 25.9839C110.13 24.7552 106.989 22.2646 103.784 21.2667C101.816 20.6541 99.9039 19.9437 98.0004 19.3044C94.6775 18.1881 93.0673 18.4988 90.6137 15.6032C93.0187 16.1323 94.2843 16.4714 95.2463 13.9158C96.7807 13.5562 105.552 15.4649 107.614 15.9859C108.778 16.2799 116.654 20.4785 117.772 19.6079C117.597 18.8675 115.458 18.0258 114.637 17.455C113.816 16.7975 111.851 15.9494 111.132 15.2824C108.673 12.9993 106.402 12.4407 103.247 11.5864C102.221 11.3084 100.96 10.6852 99.8937 10.4268C96.7602 9.66739 94.006 9.65969 92.0156 6.74799C94.0673 7.08235 96.0687 7.41645 96.942 5.0753C100.052 5.45496 102.459 5.93051 105.503 6.64679C107.511 7.0797 109.412 7.20587 111.345 7.94499C112.998 8.57687 120.486 14.1985 121.902 13.8827L121.862 13.6617C120.585 12.1689 114.08 8.31355 112.109 7.24309C109.885 6.03523 104.969 5.83676 102.372 4.90106C101.56 4.60833 99.9179 4.6723 98.8749 4.32015C98.3554 3.88397 98.1998 3.32818 98.082 2.6799L98.0455 2.52293C98.2551 1.83289 98.3093 1.52339 98.4187 0.824891Z" fill="#25252F"/>
<path d="M103.132 36.8461C104.06 36.444 104.569 36.2495 105.562 36.0078C108.426 36.8154 109.868 38.5266 107.396 41.0651L107.099 40.9893C107.642 39.7706 108.698 37.8938 106.731 37.2076C105.605 36.815 104.312 36.8325 103.132 36.8461Z" fill="#F0F4FF"/>
<path d="M98.0455 2.52293C100.158 2.49076 100.616 3.48524 102.555 2.23599L102.756 2.30766C102.609 4.04166 100.023 3.48069 98.9756 3.06874C98.6741 2.94748 98.3762 2.81768 98.082 2.6799L98.0455 2.52293Z" fill="#F0F4FF"/>
<path d="M125.137 15.2661C126.89 15.0672 128.412 16.6441 128.906 18.2144C128.45 18.0686 127.524 16.9033 126.875 16.4652C126.342 16.1041 125.535 15.6622 125.137 15.2661Z" fill="#F0F4FF"/>
<path d="M120.829 20.713C122.099 20.8504 123.868 21.6605 124.506 22.7965C123.711 22.3684 121.01 21.3552 120.829 20.713Z" fill="#F0F4FF"/>
<path d="M130.117 14.2084C131.276 14.3212 131.697 15.2099 132.043 16.1889C131.488 15.9118 130.457 14.7432 130.117 14.2084Z" fill="#F0F4FF"/>
<path d="M136.121 49.4068C142.952 48.5709 158.918 64.4702 163.89 69.2902C163.866 69.5009 163.673 70.7376 163.726 70.8183C166.213 74.5805 170.85 77.3282 172.816 81.4168C173.413 82.6571 174.35 83.1458 175.374 83.902C175.616 86.2667 175.648 86.5014 177.684 87.8805C177.477 87.9171 177.047 88.0167 176.872 88.0369C175.811 88.1593 175.168 89.0135 174.103 89.2444C172.42 89.6103 170.712 89.8816 169.023 90.2273C166.221 90.8216 163.448 91.5445 160.711 92.395C159.582 92.7508 158.102 93.2 157.076 93.7299C156.246 93.2214 154.534 92.3571 153.658 92.3697C152.272 92.3887 151.166 93.4271 150.159 94.2245C149.98 94.3658 149.663 93.9646 149.577 93.9671C149.247 93.9759 148.73 93.9911 148.396 93.9911C144.339 93.9898 140.722 93.5318 136.629 93.7324C133.604 93.8737 129.968 94.5626 127.061 95.4736C125.623 95.9228 124.232 96.6344 122.689 97.0684L122.503 97.1202C121.463 96.6458 120.873 95.9594 119.779 95.4345C116.666 95.5455 114.81 96.2824 112.116 97.6059C108.984 96.8186 105.359 94.3898 102.995 94.0933C103.116 91.677 103.658 89.4286 104.299 87.1146C107.154 88.9428 114.015 90.5856 116.76 87.7404C118.45 85.9904 119.552 83.1367 120.917 81.0453C124.676 75.2863 128.496 69.0465 129.41 62.0974C129.718 59.7074 129.614 56.7968 129.623 54.3894C130.42 54.5232 131.957 54.8047 132.457 53.9623C132.294 53.818 130.565 53.4527 130.01 53.2644C130.45 52.2047 131.151 50.8836 131.674 49.8352C133.402 49.8249 134.431 49.6671 136.121 49.4068Z" fill="#25252F"/>
<path d="M61.9196 44.1856C61.7046 43.5626 61.4961 42.9601 61.3531 42.318C60.1623 36.9658 65.678 33.6374 70.3454 34.1468C72.6494 34.3982 74.688 35.3227 76.5314 36.6707C73.0374 35.3504 70.5912 34.8511 67.2938 37.0041C68.3768 36.7387 68.7639 36.4955 69.9529 36.394L70.0818 36.7011C67.4283 37.6478 65.8034 38.4599 64.2021 40.8187C66.661 38.5402 69.8143 36.9735 73.2041 37.067C76.5394 37.1591 77.7891 39.0013 79.52 41.3663C81.9491 44.6849 82.9017 47.8762 81.8355 51.8889C81.7386 49.0768 81.1208 46.5989 78.9918 44.6134C78.8152 44.4484 78.6361 44.2863 78.4543 44.127C80.4903 47.6266 81.6628 49.8301 80.6896 53.9915C79.1706 60.487 74.3161 65.4511 67.2985 63.6866C67.1217 63.6422 66.9222 63.4569 66.7817 63.3412L66.6156 63.5317C66.0103 63.5537 64.8522 63.0835 64.3588 62.7427C62.2464 61.283 61.5514 58.3253 61.8264 55.8887C62.0763 53.6757 63.3433 51.9062 64.5314 50.1104C60.0838 52.841 59.9207 58.0972 62.3316 62.2966C57.4082 60.6431 55.0188 57.1073 55.1453 51.9633C56.7373 49.9966 58.984 49.2945 61.3813 49.0147C57.6577 50.3563 55.7459 51.7601 55.5579 55.9714C56.6818 52.5617 58.235 50.4662 62.0538 49.5044C62.5761 49.3729 63.2931 49.6656 63.7351 49.2741L63.6457 49.022C62.49 47.9693 60.0258 48.2796 58.6161 48.6994C57.2265 49.1131 56.5715 49.8873 55.5655 50.8481L55.4476 50.8229C55.4576 49.4288 54.7174 48.5241 54.6794 47.5228C54.5603 44.3817 55.5541 41.863 57.4542 39.5162L57.7516 39.1996L57.6638 41.4001L57.3718 41.9237C57.8605 44.1526 58.7124 45.5409 60.6201 46.8735C62.062 47.8807 63.4568 47.8864 65.1212 47.9083C65.1479 46.1451 65.0984 44.903 66.5132 43.6287C69.0848 41.3125 72.3156 40.8524 75.5323 41.6687C73.1557 40.4656 71.4988 40.1753 68.9783 41.0587C65.835 42.1603 64.2068 43.8273 64.3855 47.261C64.0965 47.1698 63.9121 46.5901 63.7987 46.3115L63.4502 45.759L63.2193 45.6174C62.3072 43.9482 62.3395 42.2052 62.6204 40.3517C62.6988 39.8336 62.9758 39.0365 62.9337 38.5542L62.7354 38.6418C61.6531 40.4134 61.7622 42.2307 61.9196 44.1856Z" fill="#25252F"/>
<path d="M66.62 63.5314C64.2609 62.1009 63.3282 59.9542 63.0983 57.2957C63.0051 56.2202 63.2468 53.4497 63.9327 52.6661L64.0166 52.8067C63.6873 54.0966 63.563 55.4305 63.6485 56.7591C63.8157 59.6329 64.6802 61.4522 66.7862 63.3409L66.62 63.5314Z" fill="#F0F4FF"/>
<path d="M63.4551 45.7592C63.1869 43.8912 63.1923 42.8594 63.7958 41.0498C63.7362 42.7413 63.6643 44.6258 63.8036 46.3117L63.4551 45.7592Z" fill="#F0F4FF"/>
<path d="M57.7516 39.1996L57.6638 41.4001L57.3718 41.9237C57.3189 40.9849 57.3695 40.46 57.4542 39.5162L57.7516 39.1996Z" fill="#F0F4FF"/>
<path d="M65.2705 47.8322C65.8417 48.1241 65.6999 48.7973 65.8676 49.4238C67.384 55.0887 71.0526 56.973 76.4508 57.5033C71.9825 58.7648 68.9292 56.5484 66.4183 53.0549C66.9338 54.2469 67.3583 54.8943 68.0855 55.9566C69.2362 57.4025 70.1811 58.0962 71.9263 58.7329C74.0644 59.513 74.9424 58.9065 77.0174 58.7529L77.0976 58.8377C71.2995 62.9337 63.182 54.4287 65.2705 47.8322Z" fill="#F0F4FF"/>
<path d="M68.6912 45.9519C68.863 45.9418 69.035 45.9365 69.2071 45.9361C73.2808 45.9428 78.3432 49.9657 78.3377 54.2264L78.2034 54.3427C78.0548 54.1859 77.7062 53.021 77.58 52.7037C76.6735 50.7547 75.2278 49.1076 73.4149 47.9581C70.8125 46.3072 68.924 46.2161 66.0197 46.8551C66.923 46.2916 67.6722 46.1597 68.6912 45.9519Z" fill="#F0F4FF"/>
<path d="M68.7178 44.1856C69.8346 44.0575 70.9653 44.1298 72.057 44.3989C74.6903 45.0597 76.5375 46.6401 77.9031 48.9369C76.6788 47.6367 76.3048 47.2845 74.7803 46.3834C72.5149 45.1597 69.7383 44.2937 67.1689 45.3537C66.3537 45.6899 65.9421 46.4096 65.4779 46.5413L65.4087 46.344C65.9862 44.6031 67.0833 44.4922 68.7178 44.1856Z" fill="#F0F4FF"/>
<path d="M76.2739 11.0472L76.4808 11.1205C78.266 13.2999 73.4543 15.9501 71.8303 16.2681C71.6833 16.2968 68.606 18.6308 68.3189 18.9012C68.393 19.0456 68.4555 19.1568 68.5358 19.2966C66.9864 21.3922 65.9915 23.2154 65.127 25.7034C64.9079 26.3336 64.4631 28.3925 64.2182 28.7544C63.9542 28.533 63.9419 28.1753 63.8664 27.8121C63.8119 27.0698 63.3389 23.2832 63.4793 22.8171C64.2045 20.3325 64.9218 17.7443 65.7436 15.3019C66.0668 14.3413 71.0764 11.8476 71.8332 11.96C71.8591 12.2889 71.8531 12.8951 72.1812 13.0239C74.2588 13.8392 75.317 12.3227 76.2739 11.0472Z" fill="#25252F"/>
<path d="M83.0835 3.60603C83.2981 3.64263 83.3084 3.68288 83.5121 3.80034C84.0423 4.66514 83.5975 5.86189 82.8753 6.78208C81.4241 8.63103 77.9366 8.39306 76.5149 10.1214C76.4481 10.2025 72.0373 10.5602 71.4981 10.9944C71.3551 11.1097 70.045 11.4008 69.915 11.4046C70.2485 10.3983 70.913 8.87732 71.3986 7.95196C72.7732 7.26078 77.5321 4.61378 78.676 4.76557C79.0912 5.73711 79.3042 5.87035 80.3452 5.52589C81.4458 5.16188 82.2015 4.32018 83.0835 3.60603Z" fill="#25252F"/>
<path d="M68.6371 22.5502C68.7734 22.195 68.7864 21.8596 68.9084 21.4939C69.2912 20.3462 69.7919 19.7077 70.5231 18.7978C68.6462 24.1627 68.0634 27.2205 69.7248 32.7666C67.5711 32.9029 67.1446 32.9504 65.1039 33.6319C65.0995 32.9924 65.1142 32.3531 65.1482 31.7146C65.2878 29.5 66.4871 23.9289 68.0617 22.539L68.4488 22.2199L68.611 22.3L68.6371 22.5502Z" fill="#25252F"/>
<path d="M68.0571 22.5386L68.4442 22.2196L68.6064 22.2997L68.6325 22.5499C67.848 26.1996 67.8687 27.7667 68.4039 31.3425L68.3194 31.341C67.1392 29.1089 67.5516 24.9367 68.0571 22.5386Z" fill="#F0F4FF"/>
<path d="M60.0781 28.5093C61.8944 28.3297 62.6891 28.8891 64.1716 29.8396C64.0465 31.5653 64.0284 32.3165 64.31 34.0091C63.6255 34.5292 61.7082 36.2652 61.0669 35.036C60.8028 33.4391 60.596 32.8395 60.0415 31.2791C60.4578 31.7634 61.4455 33.4459 61.9245 33.458C62.299 31.426 58.194 30.6974 60.0781 28.5093Z" fill="#25252F"/>
<path d="M57.7516 39.1996C58.6898 38.0551 60.4322 37.0598 61.7376 36.3659C59.1863 40.2102 59.9211 44.1258 62.8156 47.5104C60.2452 45.8818 58.4234 44.5077 57.6638 41.4001L57.7516 39.1996Z" fill="#25252F"/>
<path d="M78.2162 61.9241C78.4615 62.2186 78.5901 63.6719 78.7293 64.2055C79.3639 66.637 80.3182 67.9762 82.3999 69.2937L79.8144 68.6816C77.5994 67.63 76.2373 66.4535 75.2463 64.19C76.5457 63.4637 77.1471 62.9601 78.2162 61.9241Z" fill="#25252F"/>
<path d="M86.4845 0.992925C87.8258 1.03532 88.0567 2.61539 86.935 3.16538C86.1692 3.541 85.4453 3.84925 84.6834 4.25691C84.2161 3.67588 84.6069 3.40928 83.3119 2.70094C84.4263 2.01443 85.2848 1.5038 86.4845 0.992925Z" fill="#25252F"/>
<path d="M90.8594 12.7915C92.0359 13.2773 94.3109 13.3718 94.6753 14.4443C94.5255 14.9931 94.607 14.8 94.1877 15.2374C92.7333 15.4004 88.6092 15.0701 90.8594 12.7915Z" fill="#25252F"/>
<path d="M91.9486 3.9612C92.2154 3.99388 96.2566 5.0256 96.3347 5.07493C96.2299 5.45194 96.0681 5.48676 95.7223 5.80169C94.4039 6.56441 90.7843 6.70144 91.9486 3.9612Z" fill="#25252F"/>
<path d="M96.2093 1.92183C97.5077 1.72916 97.0386 2.89602 97.5141 4.15258L97.5789 4.31925L94.5127 3.63275C93.8842 3.51629 92.8964 3.43289 92.2329 3.35895C94.0001 2.7301 94.1655 2.26515 96.2093 1.92183Z" fill="#25252F"/>
<path d="M70.7693 65.2378C70.8718 65.2376 70.9742 65.2373 71.0768 65.2371C71.6186 65.4244 71.9502 67.3877 72.3104 67.7311C72.9378 68.3295 73.4666 68.6736 73.9374 69.2168L73.5962 69.2789C73.3604 69.1901 73.1269 69.0951 72.896 68.9941C71.9541 68.5779 69.67 66.4925 70.179 65.3755L70.7693 65.2378Z" fill="#25252F"/>
<path d="M74.7748 11.1351L74.984 11.1784L75.014 11.354C74.5062 12.0893 73.9174 12.3355 73.0867 12.577C72.7754 12.3158 72.7625 12.3432 72.6265 11.9687L72.7618 11.703C73.3319 11.3516 74.0973 11.2679 74.7748 11.1351Z" fill="#25252F"/>
<path d="M81.2457 3.81799L81.3273 3.88309L81.3062 4.10453C80.6946 4.71117 80.1527 4.91141 79.3065 4.96364C79.1673 4.64215 79.1717 4.80139 79.2982 4.47031C79.8686 4.1015 80.5731 3.98605 81.2457 3.81799Z" fill="#25252F"/>
<path d="M69.9529 36.394C70.7876 36.2415 71.6434 36.3096 72.4856 36.3907C71.6825 36.4776 70.8808 36.5814 70.0818 36.7011L69.9529 36.394Z" fill="#25252F"/>
<path d="M153.899 95.6034C155.19 96.3377 155.744 99.8251 155.776 101.233C156.051 113.598 148.994 127.127 141.037 136.147L140.871 136.207C140.994 135.706 142.389 134.103 142.773 133.54C149.217 124.097 154.996 113.374 155.271 101.665C155.329 99.1577 155.044 97.8114 153.899 95.6034Z" fill="#F0F4FF"/>
<path d="M56.5267 72.0655C61.8723 71.6381 66.4205 74.2154 69.2414 78.7081C68.4107 77.912 67.7882 77.4082 66.8778 76.6943C63.8749 74.4034 61.1548 72.8306 57.2402 72.9199C55.5853 72.9577 54.0052 73.1817 52.3097 73.201C53.8277 72.5583 54.917 72.3861 56.5267 72.0655Z" fill="#F0F4FF"/>
<path d="M159.106 96.9247C159.893 97.1077 160.317 98.0565 160.57 98.7606C162.704 104.712 161.081 111.049 158.549 116.595L158.369 116.888C158.29 116.685 158.846 115.18 158.961 114.809C160.368 110.251 161.556 104.915 160.164 100.228C159.827 99.0899 159.335 98.088 159.106 96.9247Z" fill="#F0F4FF"/>
<path d="M183.094 70.6542L183.169 70.7275C182.956 71.1699 182.15 71.9503 181.79 72.353C179.291 75.1498 177.559 78.6101 175.954 81.9782L175.83 81.8645C175.838 81.3414 176.503 79.9749 176.743 79.4759C178.405 76.0286 180.06 73.0803 183.094 70.6542Z" fill="#F0F4FF"/>
<path d="M46.7855 174.736C46.9986 175.854 47.1115 177.687 47.32 179C47.0588 178.229 46.704 177.277 46.5593 176.495C46.7993 176.052 46.7663 175.267 46.7855 174.736Z" fill="#F0F4FF"/>
<path d="M54.0435 79.9949C54.8207 79.9164 55.3897 79.8194 56.1675 79.9258L56.214 80.0256C55.6362 80.222 55.2943 80.2477 54.7011 80.3252C54.3928 80.244 54.3193 80.1641 54.0435 79.9949Z" fill="#F0F4FF"/>
<path d="M195.085 81C195.99 80.9586 196.702 80.9531 197.609 80.9755C197.106 81.1105 196.61 81.265 196.095 81.3253C195.569 81.2535 195.532 81.2612 195.085 81Z" fill="#F0F4FF"/>
</svg>
