<svg width="250" height="170" viewBox="0 0 250 170" fill="none" xmlns="http://www.w3.org/2000/svg">
<path fill-rule="evenodd" clip-rule="evenodd" d="M86.9723 23.7384C92.4989 5.25811 106.943 -0.0872645 125.078 2.68862C137.214 4.54643 148.117 10.3547 155.749 20.4142C158.615 24.2448 159.163 28.0338 159.387 32.7003C159.437 33.7378 159.297 36.3206 159.528 37.1427C160.208 39.5546 161.623 40.5166 161.273 43.3947C160.996 45.6706 159.002 46.3134 158.481 48.0607C158.365 48.4532 159.363 50.5495 159.637 51.1232C160.457 52.8323 161.424 54.5584 162.292 56.2765C163.695 59.0558 167.383 63.6675 163.878 66.2736C162.62 67.2085 160.648 67.2379 159.427 67.8322C159.395 69.8195 160.076 72.3011 157.657 72.7667C158.937 79.3677 154.757 77.324 155.423 79.6007C156.678 83.8867 156.702 87.2879 154.103 91.2023C153.059 92.6823 151.11 94.5181 149.178 94.8751C144.788 95.0955 134.806 90.9876 131.008 89.2082C130.405 90.9753 129.835 92.4488 128.984 94.1222C138.26 101.3 145.943 110.336 151.539 120.653C152.707 122.865 153.828 125.102 154.9 127.362C155.319 128.258 156.44 131.023 156.993 131.767C161.34 137.617 166.463 144.052 172.349 148.373C174.347 149.838 177.935 151.198 180.091 152.154L191.603 157.269L206.937 164.136C209.453 165.264 212.9 166.942 215.389 167.848C213.326 167.855 208.166 168.008 206.381 167.699C205.544 167.555 200.416 165.043 199.256 164.527C193.547 162.045 187.865 159.501 182.21 156.899C178.831 155.309 174.884 153.426 171.843 151.332C170.512 150.415 168.137 148.009 166.892 146.811C164.714 144.722 162.522 142.648 160.32 140.585C161.844 145.91 162.774 149.798 163.598 155.338C164.042 158.311 164.302 162.056 164.806 164.846C166.191 165.876 167.592 166.883 169.013 167.86C166.101 167.954 163.188 168.02 160.274 168.06C154.598 158.429 143.845 151.932 135.24 145.208C128.95 140.294 122.422 135.352 116.313 130.233L116.634 126.374L135.984 142.096C139.563 144.997 143.543 148.398 147.149 151.139C146.185 149.76 144.384 147.048 143.302 145.907C141.729 144.25 139.894 142.5 138.27 140.834C135.213 137.687 132.214 134.486 129.272 131.234C128.658 130.558 126.581 128.375 126.278 127.692C126.409 127.407 126.556 127.358 126.825 127.194C127.238 127.268 140.875 142.543 143.109 144.188C144.317 145.075 147.81 147.82 149.064 148.829C147.116 144.561 144.608 140.406 142.367 136.282C141.33 134.377 140.351 132.431 139.251 130.567C138.111 128.749 136.156 127.326 135.134 125.373C134.613 124.337 132.37 119.932 132.44 118.865C132.816 118.544 132.676 118.566 133.085 118.539C133.567 118.872 133.943 120.172 134.133 120.733C135.439 124.565 137.469 126.969 140.103 129.913C140.747 130.633 142.272 133.858 142.888 134.993L146.785 142.015C145.554 130.599 140.367 120.622 133.833 111.375C133.341 110.68 133.543 110.68 134.211 110.294C134.591 110.448 135.44 111.877 135.732 112.307C138.881 116.931 141.608 121.595 143.801 126.759C145.41 130.489 146.581 134.392 147.294 138.391C147.588 140.131 147.821 142.214 148.06 143.846C148.179 144.652 149.872 147.99 150.368 149.013C151.303 150.944 152.045 153.455 152.93 155.222C153.632 156.621 156.475 159.375 157.704 160.674C159.521 162.608 161.303 164.574 163.051 166.571C164.729 144.847 150.031 117.129 134.44 102.754C134.211 102.386 133.833 102.385 133.473 101.869C130.632 99.8764 127.102 99.6219 123.911 98.4855C117.37 96.1561 110.87 93.6744 104.202 91.7248C103.338 91.4722 102.466 91.2103 101.619 90.9074C98.8141 89.8831 96.0764 88.6838 93.4215 87.3166C92.7743 86.9864 89.1468 85.3855 89.0348 85.0402L88.7535 84.8595C86.7531 83.3051 86.0363 83.1237 84.1774 81.1251C81.7411 83.7038 79.3098 86.2131 78.6295 89.7873C78.338 91.319 77.7122 93.8998 76.9235 95.213C75.468 97.636 73.4045 99.0491 71.9625 101.759C67.8043 109.573 63.5317 120.93 61.9137 129.61C61.3288 132.747 61.4587 144.017 61.528 147.378C61.6463 153.131 62.236 163.076 64.6539 168.062C63.8652 168.005 62.8752 167.959 62.11 167.841C61.1507 162.73 60.7603 158.176 60.4684 153.026C59.7017 139.506 60.8833 126.463 65.1364 113.526C66.7221 108.702 68.7061 103.666 71.5612 99.4181C73.2532 96.9002 75.5073 95.0279 76.9557 92.3566C77.7706 90.8535 77.2242 88.7395 77.4889 87.5792C78.2631 84.1886 82.6691 79.0496 84.9547 76.4591C86.5047 78.4077 87.4683 79.3012 89.3776 80.9367C90.2037 75.2921 90.7999 70.473 90.0875 64.7492C89.6032 60.859 88.7946 59.57 87.6588 56.0656C87.0438 54.117 86.5238 52.1391 86.1012 50.1398C84.8334 44.209 84.266 38.5805 84.7213 32.5197C84.9989 28.826 86.0026 26.9808 86.9723 23.7384ZM125.385 6.79604C121.853 5.88989 116.122 4.79802 112.463 5.13198C105.007 5.71806 98.3886 8.90572 93.5748 14.6515C89.978 18.945 86.4876 25.81 85.694 31.4171C84.5994 39.1513 86.9267 48.2606 89.0368 55.6496C89.786 58.2735 91.0154 60.7794 91.3932 63.4826C91.9897 69.4163 90.5624 75.5761 89.9576 81.3449C97.16 86.5135 103.842 87.7871 112.02 90.4093C116.391 91.7933 120.673 93.4446 124.842 95.3527C127.179 93.2183 128.917 91.7394 130.219 88.7697C128.539 87.8453 121.812 84.172 121.519 82.5294C120.378 76.1212 122.404 68.3998 123.096 62.1369C121.006 62.8025 118.961 63.0333 116.873 61.9679C113.539 60.1101 110.774 55.507 109.423 52.0578C108.621 50.0077 109.238 45.4991 110.446 43.7443C113.739 38.9609 116.585 36.3999 122.033 39.5167L122.149 39.5841L121.185 42.755C119.896 41.87 117.334 40.6109 115.741 40.9708C112.572 41.6872 109.602 46.5777 110.266 49.7033C110.809 52.2545 113.615 54.9997 115.606 56.5705C117.437 57.9693 119.244 59.3243 121.532 59.8361C123.552 59.2313 124.541 58.3265 125.922 56.6984C125.376 60.7747 124.679 64.3881 123.907 68.4064C123.274 71.7022 122.206 76.8048 122.369 80.0519C125.74 84.5799 142.865 89.77 148.687 91.3849C151.476 92.158 154.254 88.2215 155.293 86.0646C155.005 82.801 152.713 79.1718 154.378 76.1935C154.63 75.7383 156.1 75.707 156.353 75.0617C157.234 73.7341 156.621 72.1225 157.131 70.716C157.447 69.8425 158.301 69.9295 158.631 68.9406C158.524 68.3952 158.626 68.522 158.301 68.1476C157.65 68.0408 152.216 68.1811 151.17 68.1769L146.142 74.8253C143.717 73.6863 141.684 72.7105 139.504 71.1574C130.803 64.9583 129.974 52.8522 129.782 43.0861C131.498 40.3669 133.365 37.7474 135.096 35.0402C134.146 32.762 132.617 29.3764 131.838 27.1037C139.514 24.1795 147.162 22.6346 155.306 24.8683C149.444 15.0168 135.967 9.5103 125.385 6.79604ZM156.024 26.0568C152.005 25.0908 148.826 24.5656 144.641 24.9035C139.984 25.3385 137.635 26.0788 133.22 27.6027L136.383 35.132C134.583 37.7973 132.63 40.5961 130.899 43.298C131.206 51.749 131.714 62.6329 138.361 68.7384C140.659 70.8498 143.082 72.1723 145.902 73.424C146.363 72.8244 147.027 71.8972 147.501 71.3488C148.513 70.0401 149.736 68.5438 150.686 67.216C153.175 67.2294 155.663 67.1818 158.148 67.0724C158.176 66.6007 158.167 65.8706 158.557 65.6154C160.388 64.4181 161.967 64.6805 163.625 62.9249L163.57 62.7501C161.985 57.7659 155.696 51.378 157.677 45.8878C158.107 44.6959 160.903 43.6635 159.67 40.7443C158.492 37.9628 158.318 36.8057 158.426 33.8478C158.51 31.5451 157.125 28.1573 156.024 26.0568Z" fill="#F0F4FF"/>
<path d="M81.936 136.936C82.4431 137.452 83.8092 140.678 84.1741 141.507C85.5366 144.589 86.8402 147.699 88.0842 150.831C90.8799 157.84 92.8217 163.226 99.2704 167.845L93.8959 167.833C93.1053 166.35 90.4602 165.257 88.9481 164.445L79.4582 159.367C78.6822 158.956 75.758 157.643 75.444 157.056C75.4185 156.591 75.3458 156.777 75.5975 156.458C76.306 156.358 82.9118 160.087 84.0113 160.677C86.7503 162.152 89.7511 163.697 92.4141 165.265C90.5884 161.144 90.5863 161.804 87.6796 158.86C86.4125 157.576 79.7099 149.209 79.3908 147.933C79.647 147.672 79.642 147.63 80.0087 147.57C80.4649 147.773 80.7703 148.139 81.0356 148.555C83.612 152.59 86.7189 156.16 89.9165 159.696C87.4136 153.315 84.0145 147.036 81.5063 140.648C81.2637 140.031 81.7866 137.672 81.936 136.936Z" fill="#F0F4FF"/>
</svg>
