<svg width="250" height="186" viewBox="0 0 250 186" fill="none" xmlns="http://www.w3.org/2000/svg">
<path d="M174.047 163.549L174.29 163.617C174.181 163.736 174.069 163.849 173.947 163.955C165.488 171.491 128.309 170.521 116.167 170.055L115.898 169.914C116.112 169.382 117.081 168.419 117.519 167.944C124.092 167.92 130.629 168.181 137.263 168.102C143.961 168.005 150.65 167.58 157.306 166.825C163.346 166.16 168.275 165.516 174.047 163.549Z" fill="#F0F4FF"/>
<path d="M125.624 148.381C127.366 151.15 128.396 152.925 131.793 153.292C131.138 154.114 130.347 154.993 129.653 155.798C129.564 155.777 129.476 155.755 129.388 155.73C126.706 154.966 124.88 153.535 123.555 151.123L125.624 148.381Z" fill="#F0F4FF"/>
<path fill-rule="evenodd" clip-rule="evenodd" d="M77.3086 7C79.2856 11.0286 83.0722 18.4473 86.2061 21.6367C90.5226 26.0299 93.5262 28.9588 97.3105 34.0752C99.0757 36.4649 100.784 38.8963 102.434 41.3672C104.425 44.3667 105.529 47.1213 108.76 48.9043C115.638 52.7004 121.147 58.0404 126.396 63.7764C126.442 61.2909 126.829 58.0645 127.07 55.5283L128.501 40.917C129.523 30.5143 130.233 20.2542 131.089 9.86328C132.178 8.91498 133.278 7.97959 134.389 7.05762C133.704 11.8051 133.372 17.5822 132.897 22.4736C132.423 27.3622 131.91 33.3536 132.113 38.1719C132.202 40.2565 134.029 45.0919 134.789 47.2402C136.485 52.0415 138.494 56.9668 140.04 61.8311C141.276 65.1127 140.618 69.8925 141.596 73.0781C142.926 77.4086 144.319 81.1943 145.371 85.6621C146.037 85.2726 146.573 84.8508 147.189 84.4189C148.236 83.6857 150.228 81.045 151.534 81.2969C151.135 83.3582 146.759 84.9781 145.665 86.5889C145.479 86.8624 145.595 87.0098 145.684 87.3916L145.918 87.5293C146.661 87.4102 150.127 86.1429 151.239 85.8096C150.413 86.9022 149.709 87.7799 148.811 88.8154C147.477 89.2144 146.458 89.2319 145.107 89.8936C144.665 90.2972 144.212 90.8795 143.821 91.3477C143.902 98.9292 140.635 96.4749 137.525 101.562C136.972 102.468 136.372 108.318 135.728 110.572C137.075 113.262 138.243 115.586 139.919 118.077C142.628 118.91 144.903 120.117 147.414 120.957C152.891 122.788 156.587 123.797 158.03 130.357L155.994 131.873C156.992 132.418 158.513 133.091 159.572 133.598C159.098 130.729 159.001 127.402 158.816 124.447C157.573 123.505 156.731 122.449 155.526 121.532C154.726 120.922 154.362 121.451 153.681 121.958C148.761 115.703 143.473 114.503 138.234 109.146C138.81 108.444 139.588 107.629 140.208 106.943C143.793 111.336 146.857 112.854 151.583 116.007C150.367 113.37 149.717 111.59 149.47 108.644L151.494 106.831C152.54 112.469 153.945 116.93 158.682 120.587C158.218 116.659 156.808 114.275 156.315 109.723C157.282 108.879 158.456 107.968 159.462 107.15C159.432 108.628 159.384 110.368 159.694 111.799C160.556 115.786 161.798 118.302 162.103 122.457L163.213 121.757L163.248 121.872L162.065 123.061C161.879 130.087 162.492 135.72 170.321 138.097C168.718 137.059 167.319 136.091 166.822 134.17C165.924 130.689 168.286 129.822 170.864 129.18L170.998 125.382C170.135 124.534 168.249 123.666 168.089 123.325C168.462 122.29 169.72 122.219 170.602 121.726C171.057 121.471 170.412 119.259 170.541 118.487C170.921 116.203 173.249 112.945 174.844 111.404C174.401 112.268 174.074 113.184 173.729 114.092L175.918 113.165C175.008 114.057 174.141 115.128 173.311 116.104C173.373 118.007 174.202 120.787 174.005 122.315C173.675 124.856 172.292 127.168 172.659 130.022C172.964 132.38 173.705 132.46 173.875 135.131C176.456 131.758 175.891 127.425 176.438 123.4C177.3 117.074 178.219 110.81 175.394 104.792C174.871 103.683 174.336 102.145 174.091 100.949C173.812 99.5692 174.098 96.1131 173.093 95.1621C172.445 95.3949 171.798 96.0817 171.263 96.5713C171.17 95.7105 170.997 94.8603 170.744 94.0322C169.964 91.4654 168.622 90.0691 166.297 88.8604L168.938 86.7793C169.528 87.2809 170.17 88.0828 170.687 88.6875C173.685 85.7209 173.235 83.8 173.975 80.0635C175.277 73.4945 175.383 69.6507 173.479 63.2266C169.521 49.88 176.143 35.8127 176.644 22.3828C176.804 18.0428 175.949 13.8653 174.65 9.63477C175.518 8.78476 176.37 7.91907 177.208 7.03906C178.003 8.9958 178.33 11.0153 178.774 13.041C181.075 23.5189 177.504 32.822 175.859 43.0801C175.507 45.2675 174.652 49.0165 174.617 51.165C174.52 57.2015 177.297 64.1312 177.444 70.1719C177.599 76.4991 175.003 83.512 175.499 89.8721C175.575 90.8429 176.01 92.8657 176.178 93.9932C176.447 95.8099 176.649 98.7325 177.127 100.37C178.358 104.598 179.88 106.199 179.793 111.038C179.739 114.065 179.103 116.484 178.855 119.387C178.595 122.411 178.532 125.242 178.016 128.343C177.145 133.575 176.069 135.32 176.715 140.757C180.741 142.385 190.253 146.147 194.291 145.773C197.421 145.484 203.804 143.421 207.153 142.453C209.082 141.896 213.977 140.859 215.52 139.917C217.378 138.797 220.864 134.023 223.176 134.423C236.562 136.744 227.801 152.226 220.44 156.026C218.248 157.235 214.22 157.151 212.952 159.763C210.934 163.915 212.128 167.201 207.181 169.686C201.818 172.428 196.635 175.489 191.339 178.34C187.7 180.3 182.074 179.792 178.02 179.79C174.554 179.788 171.021 179.691 167.552 179.638L125.756 178.957L111.765 178.655C107.789 178.574 104.05 178.527 100.106 178.018C80.7571 175.525 87.7141 158.584 88.8486 145.553C89.243 141.023 88.817 135.202 88.9375 130.49C82.5925 129.167 80.7913 124.536 78.999 118.859C78.3769 116.889 78.5434 112.705 78.8555 110.607C78.5643 110.413 78.2765 110.213 77.9932 110.007C75.4947 108.18 75.0574 106.094 74.0117 103.353C73.5384 101.885 72.3273 100.51 71.9756 99.0156C70.1702 91.3479 71.1217 83.1736 70.9414 75.3525C70.8765 72.5372 71.0556 70.1612 70.6182 67.3682C69.2821 66.1683 68.1022 65.5282 66.9414 63.9424C64.6567 60.8063 64.0609 57.1903 61.2715 54.293C53.6827 46.4114 45.9947 38.5967 38.0664 31.0537C35.0223 28.1575 31.5181 25.9024 28.6768 22.7627C24.9975 18.6971 22.0404 14.1846 19 9.64941L22.1025 7.21191C22.7124 7.80591 25.1522 11.371 25.8682 12.2959C28.4621 15.6461 31.6538 20.3121 34.6641 23.2314C37.8197 26.2921 41.8699 29.664 45.2441 32.5908C51.4609 37.9829 56.9854 43.6464 62.5586 49.6904C63.882 51.1256 65.1729 53.2258 65.9629 54.9873C66.7349 56.709 67.1598 59.5446 68.4531 60.9014C69.2144 61.7002 71.218 62.9813 72.2559 63.7051C72.9427 66.1987 74.0808 68.6751 74.417 71.2842C74.6168 72.8341 73.4351 74.3885 73.3691 75.708C73.0285 82.5199 73.4495 90.2126 74.6377 96.9199C74.923 98.5286 77.8677 98.9231 78.5117 99.6826C81.1158 102.755 79.9705 103.493 83.8857 105.505C84.7922 105.26 86.4228 104.369 87.2021 104.543L87.3389 104.917C86.6843 107.862 84.5139 107.635 82.0322 107.547C81.5235 112.645 78.5635 116.592 85.1436 119.41C84.4743 120.32 84.1233 120.545 84.2686 121.564C84.7606 122.284 86.3745 122.832 87.2666 123.222C86.6819 123.491 86.402 123.584 85.9336 124.049C85.4647 125.707 87.2861 126.929 88.6494 126.583C89.0438 125.837 88.9722 111.214 88.9902 109.019C89.9772 107.587 91.3425 105.887 92.4121 104.477C92.816 107.801 94.4518 109.34 97.7012 109.87C96.7086 110.801 95.7018 111.812 94.7236 112.767L92.0049 111.497C92.5069 115.729 92.1652 120.977 91.6309 125.196C91.6126 126.268 90.9569 130.768 91.7139 131.439C92.9723 132.556 96.0489 128.257 97.6416 130.42C97.3891 135.866 92.4875 133.231 91.207 133.838C90.6204 135.122 90.8728 142.236 90.8887 144.147C91.831 144.516 92.7472 144.81 93.3408 145.649C93.5121 147.025 92.015 147.214 90.9199 147.558C91.1021 148.305 91.2123 149.079 91.3359 149.84C93.2372 150.051 97.7041 150.132 96.0635 153.128C94.7764 153.405 93.1947 151.212 91.915 153.001C92.9531 155.795 96.7527 154.008 98.166 152.124C98.3051 151.435 98.4157 150.528 98.3965 149.834C98.2984 144.753 99.9251 140.071 100.846 135.125C102.252 127.572 100.078 116.161 106.474 110.615L104.464 109.82C105.456 108.925 106.459 107.922 107.425 106.99C110.729 108.046 112.767 109.368 116.062 107.066C116.603 106.689 117.806 105.59 118.238 105.425L118.292 105.719C117.537 106.999 113.934 109.794 112.629 110.649C111.055 110.77 109.472 110.82 107.895 110.883C107.795 116.634 108.198 123.072 108.258 128.952C110.194 127.497 114.494 126.69 116.403 128.132C117.037 129.775 112.862 130.625 111.55 131.207C107.418 130.494 108.273 131.8 108.381 135.311C108.467 138.115 109.076 140.965 108.259 143.705C110.428 142.548 110.583 142.479 113.031 142.398C112.215 143.395 111.928 143.709 110.933 144.52L107.951 144.53L107.023 148.597C108.366 148.119 109.811 147.554 111.254 148.013C112.651 148.456 114.203 149.873 113.379 151.47C113.058 152.092 112.973 152.217 112.337 152.443C111.63 152.126 111.574 151.687 111.218 150.879C110.701 150.428 110.448 150.304 109.812 150.142C105.53 148.977 106.28 154.446 109.344 154.742C113.628 155.156 114.388 152.515 115.388 149.113C117.884 140.616 118.449 131.32 118.537 122.479C118.607 115.471 118.999 108.777 120.737 101.906C122.743 94.9161 123.423 90.9253 123.732 83.668C124.693 82.6136 126.01 81.4444 127.118 80.5508C127.034 81.54 126.892 82.5967 126.777 83.5889C127.693 82.8877 128.629 82.2145 129.586 81.5703C129.157 85.6968 128.027 85.4666 126.614 88.6865L126.531 88.8789C127.844 93.0949 130.305 95.7253 134.75 96.3184L132.788 98.7803L130.111 98.2363C130.79 99.5339 131.944 102.789 132.781 103.728C135.173 104.43 135.415 102.558 136.71 101.176C138.581 99.1823 139.961 97.8087 141.208 95.335C140.208 95.9299 139.197 96.6761 138.131 97.3154C139.26 96.163 140.279 95.2345 141.483 94.1592C140.557 91.3574 135.837 85.444 134.13 82.6572C133.359 81.564 133.216 79.0366 132.41 78.0596C125.004 69.0833 119.212 57.937 108.593 52.2832C106.77 51.313 104.832 50.7323 103.222 49.624L103.036 49.4941C101.47 44.1791 93.1883 35.034 89.5166 30.585C88.1387 28.9153 85.4461 27.2584 83.8486 25.2549C79.9739 20.3949 77.0402 15.5552 74.6738 9.81836C75.5388 8.93957 76.4603 7.90988 77.3086 7ZM125.236 93.916C122.347 97.7643 121.428 115.637 121.247 120.954C120.868 132.117 121.827 143.968 114.88 153.698C112.613 156.874 109.023 158.996 105.111 156.696C104.501 156.337 104.108 155.382 104.055 154.704C103.905 151.779 105.316 148.663 105.697 145.787C106.25 141.618 106.093 137.666 106.04 133.508C105.967 127.781 106.33 123.282 104.798 117.621C102.575 122.001 103.459 128.144 103.336 132.878C103.174 136.264 101.943 139.37 101.252 142.636C100.748 145.358 100.726 148.218 99.9775 150.888C99.8552 151.323 98.7979 152.426 98.4502 152.804C95.6816 155.808 94.0325 157.735 89.9297 155.635C89.7477 155.543 89.5678 155.447 89.3906 155.346C89.3307 160.801 89.0947 166.735 93.3154 171.007C98.4572 176.21 106.401 175.47 113.187 175.831C125.164 176.47 137.266 175.791 149.255 176.459C160.182 176.895 171.193 176.868 182.128 177.035C184.538 176.82 188.505 177.26 190.788 176.658C196.451 175.165 202.749 172.067 207.163 168.194C208.783 166.772 209.392 164.71 208.982 162.645C209.588 161.126 214.495 156.344 216.07 155.78C218.469 154.922 219.222 154.961 221.619 153.466C219.78 153.392 218.367 153.221 216.62 153.826C216.055 154.022 214.817 154.46 214.278 154.521C211.833 159.251 209.417 160.834 204.266 161.314C203.324 168.082 198.867 171.27 191.997 171.208C191.397 171.202 190.454 170.633 189.836 170.541C188.352 170.374 186.072 170.738 184.772 169.892L184.647 169.542C185.426 168.767 186.442 168.086 187.343 167.437C189.771 168.149 190.534 167.933 192.966 167.059C193.859 168.198 194.565 168.979 196.148 169.27C199.701 169.921 202.757 164.539 201.081 161.756C200.456 160.72 196.25 161.254 194.999 161.348C193.558 159.709 193.087 159.529 190.938 159.07C190.222 159.583 189.745 159.903 188.983 160.339C189.083 160.013 190.021 159.33 190.356 159.066C189.275 159.232 188.184 159.493 187.156 159.709C186.183 159.915 181.812 161.707 181.304 161.4C181.387 159.049 186.412 158.387 187.905 157.593C189.127 156.942 190.39 155.229 191.641 154.38C193.676 152.998 196.171 152.49 198.337 151.437C200.033 150.612 201.304 148.526 203.077 147.722C205.336 146.317 210.49 144.639 211.813 143.191V142.895C210.527 142.479 206.035 144.156 204.763 144.722C204.126 145.695 203.738 146.225 202.987 147.11L203.934 144.935C200.313 146.132 195.717 147.944 191.987 148.25C189.546 148.439 187.35 147.127 185.101 146.492C181.501 145.477 177.574 144.652 174.138 143.205C168.202 140.705 161.944 137.282 156.178 134.599C145.479 129.62 137.735 123.864 132.896 112.823C130.845 108.563 128.784 104.229 127.259 99.6338C126.954 98.7152 125.607 94.2531 125.236 93.916ZM208.078 150.429C207.406 150.986 206.5 151.784 205.809 152.272C203.026 152.309 201.743 152.239 199.049 152.806C198.038 153.643 197.202 154.522 196.283 155.455L197.516 153.274C194.999 154.054 192.772 154.86 190.836 156.765C192.034 156.843 193.119 156.907 194.327 156.92C196.647 157.22 198.232 158.475 199.669 158.82C201.638 159.294 208.528 159.381 210.034 158.125C212.136 156.372 212.064 150.782 208.078 150.429ZM214.002 144.03C213.002 144.513 211.195 145.499 210.25 145.863C206.174 147.439 204.532 147.76 201 150.494C204.126 149.86 206.248 149.691 209.378 148.79C211.885 148.321 213.227 148.242 213.481 151.281C213.52 151.809 213.548 152.337 213.564 152.866C214.635 152.774 215.938 152.725 216.831 152.133C221.079 149.315 219.106 143.872 214.002 144.03ZM220.689 142.445C221.887 145.95 221.607 147.668 220.328 151.161C222.029 151.199 222.881 151.267 224.479 150.61C225.287 149.884 225.348 149.792 225.883 148.86L225.966 148.716C225.982 148.686 225.999 148.656 226.016 148.627C226.03 147.468 226.058 146.674 225.896 145.513C224.751 143.801 223.681 143.017 221.598 142.601C221.297 142.542 220.994 142.49 220.689 142.445ZM220.938 137.229C219.024 138.225 218.216 139.26 216.758 140.819C218.31 140.97 220.301 141.383 221.595 140.513C223.228 139.899 224.475 140.001 226.196 140.018C224.818 137.801 223.63 137.069 220.938 137.229ZM172.25 139.023L174.18 139.784L174.534 139.657C174.595 138.878 174.153 137.671 173.44 137.292L172.25 139.023ZM170.515 131.648C168.841 132.66 168.586 133.736 169.896 135.38L170.631 135.345C171.173 134.671 170.985 132.288 170.515 131.648ZM142.586 121.882C145.086 124.456 152.006 130.57 155.403 131.384C154.972 128.545 153.597 126.874 151.358 125.077C149.622 123.684 144.846 121.902 142.586 121.882ZM130.54 46.3789C130.232 48.6626 130.165 51.7455 130.034 54.0996C129.787 58.5632 129.511 63.0254 129.203 67.4854C132.407 71.8482 134.884 74.7137 136.578 79.8623C136.907 80.8586 140.669 85.2167 141.567 86.3037L141.968 86.5537C142.259 85.8875 141.055 81.5366 140.671 80.8926C137.086 74.8847 137.565 70.0714 136.954 63.6328C136.799 61.9886 131.52 47.2648 130.54 46.3789Z" fill="#F0F4FF"/>
<path d="M156.092 85.2954L156.229 85.4828C154.347 88.2487 151.852 92.2784 149.069 94.0585C148.868 93.8389 148.938 93.9131 148.852 93.5912C149.488 91.72 154.539 86.8874 156.092 85.2954Z" fill="#F0F4FF"/>
<path d="M110.258 94.52L112.873 94.9555C112.299 95.4444 111.627 96.0862 110.922 96.2937C108.617 96.9714 108.351 97.3752 106.71 98.9952C106.335 99.3263 106.103 99.612 105.594 99.707L105.733 99.7504L105.539 99.8051C105.721 99.3331 109.666 95.1801 110.258 94.52Z" fill="#F0F4FF"/>
</svg>
