<svg width="250" height="179" viewBox="0 0 250 179" fill="none" xmlns="http://www.w3.org/2000/svg">
<path d="M88.8102 21.7551C93.9821 12.2233 100.819 4.92568 111.379 1.75929C122.649 -1.70307 135.261 0.0925279 145.473 5.85023C149.873 8.33144 154.943 11.7712 158.438 15.3915C160.185 17.2016 161.057 19.9117 160.881 22.3367C160.86 22.625 163.131 24.2526 163.367 24.6387C166.986 28.8664 167.866 35.4004 165.284 40.3012C166.806 33.3949 165.748 27.7976 160.336 22.8817C163.224 28.7621 164.155 37.7126 162.238 44.0645C162.023 44.779 160.826 47.1451 160.413 47.9678C158.841 51.0931 160.901 54.7614 162.333 57.7616L162.423 57.9505C164.687 57.9381 167.886 57.7869 170.069 58.1085C171.722 58.3519 175.219 61.3125 176.603 62.4065C178.492 63.8989 181.701 65.6411 182.882 67.6198C182.936 68.6168 182.961 69.3915 182.934 70.3883C183.814 71.3212 184.59 72.3305 184.489 73.7333C184.286 76.5861 183.069 79.3402 182.278 82.0388C181.297 85.3797 180.364 89.4891 179.894 92.9079C179.752 93.9282 180.908 97.3428 181.263 98.5038C182.84 103.675 184.603 108.787 186.548 113.83C187.985 117.535 189.547 121.077 190.962 124.83C191.987 127.565 192.898 130.341 193.694 133.151C196.721 135.373 197.901 136.677 198.611 140.721C198.962 142.72 198.685 145.585 198.813 147.738C198.922 149.588 199.391 151.843 199.444 153.581C199.573 157.783 199.985 164.875 197.561 168.438C195.671 171.217 190.215 173.202 187.005 173.678C186.655 173.73 186.405 173.808 186.098 173.645L185.975 173.201C185.258 173.228 184.461 173.488 183.822 173.483C182.851 173.454 181.883 173.313 180.911 173.305C176.651 173.268 172.521 172.834 168.336 172.022C163.537 171.091 158.96 169.265 154.32 167.717C148.146 165.725 142.034 163.538 135.995 161.163C135.932 161.84 135.859 162.545 135.838 163.221C135.694 167.673 134.297 172.029 132.332 175.996C131.901 176.869 131.309 178.367 130.605 178.997L130.356 179C129.801 178.251 130.667 175.87 130.997 175.02C132.846 170.237 134.408 165.872 134.923 160.726C129.638 158.767 124.299 156.401 119.106 154.192C113.919 151.986 108.888 149.419 103.672 147.225C101.846 149.511 88.3289 152.695 85.8094 151.706L85.724 151.508C86.3111 150.973 87.6801 150.751 88.4582 150.617C93.4304 149.761 98.2558 148.639 103.002 146.888C101.626 146.417 97.4576 145.16 96.5421 144.327L96.4834 144.053C98.7498 142.357 116.004 150.791 119.051 152.122C127.818 155.957 136.694 159.539 145.666 162.864C151.376 164.946 157.135 166.694 162.897 168.855C170.114 171.561 178.851 172.875 186.565 172.7C189.161 172.199 192.66 170.397 194.801 168.968C196.586 167.777 197.751 165.899 197.915 163.903C198.395 158.11 197.831 152.298 197.261 146.534C197.004 143.931 197.631 140.362 197.055 137.848C195.72 136.802 194.289 135.647 192.898 134.695C186.756 130.487 176.42 127.578 169.369 130.983C169.331 132.218 169.281 133.451 169.222 134.684C175.003 133.176 183.868 134.841 188.645 138.522C183.084 136.255 175.293 134.007 169.274 135.395C169.257 135.947 169.217 136.641 169.227 137.18C171.327 139.443 172.597 139.595 175.038 141.31C179.554 144.486 183.37 149.359 184.813 154.716C181.256 148.822 177.845 144.318 171.863 140.56C173.35 143.831 174.539 146.98 175.523 150.441C175.73 151.169 177.506 157.61 177.677 157.714L177.813 156.587C177.864 156.714 178.009 157.888 178.093 158.259C178.24 157.561 178.258 156.739 178.312 156.021C178.489 156.831 178.582 158.718 177.978 159.341L177.67 159.265C175.862 157.498 174.331 150.103 173.347 147.272C172.565 145.019 172.034 143.305 171.037 140.987C170.334 140.48 169.28 140.154 168.64 139.563C167.418 138.434 166.269 136.609 164.871 135.751C164.333 135.422 163.392 135.799 162.793 135.981C159.41 134.631 155.36 130.691 152.048 128.827C150.311 127.849 148.358 127.836 146.938 126.752C146.059 126.081 145.179 123.922 144.489 122.789C143.709 122.579 140.776 122.252 140.404 121.983C132.583 116.336 128.489 106.924 120.725 101.217C118.324 99.4487 115.724 97.9681 112.98 96.8061C111.328 96.1237 106.488 94.8244 105.808 94.2734L105.979 94.1755C112.874 94.4416 118.49 96.9653 123.77 101.361C123.585 100.5 123.46 99.5696 123.327 98.6944C121.877 96.9639 119.402 95.3868 117.549 93.5545C110.881 86.9602 104.014 79.5232 95.0135 76.2055C95.0421 76.216 94.677 76.4366 94.4023 76.4332L94.2486 75.8993C93.5275 75.4178 91.62 74.7843 90.7176 74.4546C88.6224 75.8658 87.167 78.3783 85.7811 80.4431C85.3322 81.1121 84.4103 82.9711 83.618 82.9816C82.9622 82.1208 83.7057 80.9766 84.1259 80.1697L83.9725 79.8453C82.5176 81.7825 82.0353 82.589 79.8861 83.7477C86.1585 75.4383 88.3061 69.3582 84.6443 59.2246C82.3777 52.9522 77.2374 40.5758 83.9352 35.4065C82.5789 33.779 82.675 32.1984 82.0223 30.8967L81.9443 30.6118C82.0838 30.2213 82.0732 27.379 82.0957 26.692C66.1702 29.602 61.0533 45.6951 61.2897 60.0594C61.4643 70.666 68.3358 85.7192 59.8093 94.5463C65.0807 83.3528 61.3099 75.396 60.0592 63.7002C59.4771 58.2574 59.6888 53.0372 61.0899 47.7077L60.7522 47.7659C60.2733 49.2177 59.8841 50.4591 59.5704 51.9568C59.3079 53.21 59.1036 54.7486 58.7325 55.9435C58.5982 47.4668 62.3541 38.5549 68.2112 32.4791C72.3353 28.2007 76.5379 26.1294 82.4855 25.8205C82.8379 25.1511 83.2041 24.2058 83.9291 24.0771C87.0995 23.5142 85.4502 21.3983 88.8102 21.7551Z" fill="#F0F4FF"/>
<path d="M84.4831 35.9791C86.8623 37.853 86.3193 36.7478 88.2721 37.7576L88.3028 37.9383C88.6102 39.8238 88.4625 42.7561 88.5235 44.7449C88.771 52.8157 92.6529 59.4875 99.9008 63.1515C96.28 64.0683 95.0252 64.9571 94.1229 68.7365C95.6234 66.4203 96.4115 65.3019 99.0738 64.2922C97.9616 65.2874 95.8065 67.8095 96.3418 69.4073C96.663 69.71 96.5188 69.6944 96.8304 69.7155C97.117 69.1045 97.0678 68.7427 97.2735 68.1298C97.9256 66.1866 98.7826 65.4964 100.504 64.6045C98.7007 69.9876 98.1645 69.9972 95.3199 74.5569C90.9123 72.9879 88.7534 72.9054 85.9371 77.2953L85.7136 77.1271C88.8481 70.9386 88.6203 65.6684 86.499 59.3073C84.4286 53.0989 78.7006 41.5644 84.4831 35.9791Z" fill="#25252F"/>
<path d="M60.751 47.7657C61.109 46.2531 61.7242 44.9957 62.3365 43.591C62.5479 43.1062 62.3524 42.3923 62.8263 42.2202C62.9517 42.1747 63.0676 42.0724 63.1598 41.9912C62.8447 43.0439 62.3297 44.1837 61.9306 45.2311C61.6717 45.9106 61.3481 47.1327 61.0888 47.7075L60.751 47.7657Z" fill="#25252F"/>
<path d="M85.717 77.1271L85.9405 77.2954L84.1233 80.1697L83.9699 79.8453C84.1339 79.4392 85.4156 77.5575 85.717 77.1271Z" fill="#25252F"/>
<path d="M88.7806 26.2576C88.8143 25.5623 88.8242 24.3367 89.1251 23.7588C93.2504 15.836 99.6342 8.00712 107.989 4.54475C117.915 0.283123 129.332 0.856638 139.259 4.87067C145.666 7.46028 152.811 12.1815 157.885 16.9609C158.892 17.909 159.916 20.0362 160.09 21.4481L159.993 21.5608C158.77 22.9887 157.883 24.6243 156.47 25.9224C151.297 30.6706 145.086 34.6472 138.391 36.8302C136.769 37.3586 129.487 39.7136 128.209 39.1718C127.701 39.2432 127.398 39.4709 127.03 39.8457C129.91 40.7743 132.508 39.9105 135.414 39.2805C131.123 41.5818 125.506 43.5182 120.627 42.0343C120.406 41.9662 120.187 41.8901 119.971 41.8064C116.391 35.7525 108.869 37.2849 107.312 43.906C106.496 47.3773 107.428 49.5985 108.161 52.8581C106.125 57.3472 107.115 64.0136 111.086 67.2408C107.694 61.7158 108.123 59.4619 108.455 53.3644C110.113 56.5207 114.462 62.5023 118.805 60.8175C119.549 60.5289 121.01 58.3187 119.863 57.8122C119.429 58.3566 118.249 59.909 117.43 59.741C110.614 58.3424 105.36 46.1613 110.532 40.8021C112.586 38.6741 116.39 38.9169 118.132 41.1676C118.528 41.6794 120.111 44.0913 120.296 44.1401L120.425 43.9177C120.206 43.6822 119.948 42.9302 119.813 42.5928C124.334 44.8164 130.67 43.645 134.648 40.8243C135.378 40.3062 136.264 39.2848 137.079 38.9322C138.952 38.1226 140.963 37.5791 142.832 36.7463C148.313 34.3021 154.731 29.9017 158.582 25.286C156.678 29.5885 152.599 33.5752 148.713 36.1428C145.817 38.0556 140.285 40.674 136.805 40.7146C136.881 40.7894 136.932 40.8809 137.038 40.8866C146.536 41.392 157.514 32.3108 159.868 23.8199C160.267 25.0787 160.98 27.1032 161.222 28.4022C162.057 32.8786 162.704 39.3184 161.383 43.7252C160.706 45.9873 158.493 48.7317 158.814 51.2727C159.169 54.0957 160.844 57.0802 162.232 59.5124C162.672 60.2829 163.41 61.5518 163.601 62.3435L163.473 62.4972C162.736 61.9633 162.074 60.1272 160.967 59.2282C160.174 58.4694 158.643 57.4841 157.464 57.666C152.573 58.4213 155.892 64.6192 156.927 67.2556C156.914 67.2234 156.482 68.3869 156.474 68.5524C156.422 69.5789 156.584 70.6477 156.7 71.6661C155.97 72.4052 155.676 72.6088 154.806 73.1967C153.367 73.2874 150.454 72.726 149.517 73.6163L149.637 73.7602C150.534 73.7447 153.165 73.9483 153.996 74.1809C155.632 76.9223 151.881 76.7224 150.983 79.057C150.496 80.3231 150.208 82.9228 149.708 83.7714C145.731 90.5232 135.908 80.4549 130.308 82.6362C127.183 83.8925 122.504 92.089 121.206 94.8653C119.894 93.3936 118.188 91.937 116.793 90.4833C110.837 84.274 104.642 78.1986 96.4795 75.0216C99.4429 71.5074 100.954 68.9276 101.949 64.3997L102.288 64.2344C103.284 63.7539 103.785 63.3227 104.449 62.4172C105.236 61.3431 107.621 57.0077 106.213 56.0318C105.57 56.5661 104.068 63.5686 101.803 62.9769C101.712 62.8406 97.4319 59.6617 96.7536 59.0653C90.6216 53.6739 90.5033 47.8251 89.9415 40.389C89.8332 38.9555 89.447 37.5684 89.3526 36.1395L89.5063 36.0262C89.6538 35.7427 89.6536 35.7885 89.9029 35.5645C89.2718 33.7368 88.8813 32.8843 88.8484 30.9267L88.7773 30.7314C88.5754 30.2182 88.7147 27.8595 88.7473 27.2516C90.1281 25.7791 91.4528 23.8227 92.7435 22.5737C99.4782 16.0563 106.382 12.3929 115.405 10.4052C112.367 10.2224 108.007 11.5387 105.206 12.8103C98.6191 15.8015 93.0053 20.381 88.7806 26.2576Z" fill="#25252F"/>
<path d="M144.273 29.3636C140.996 34.1058 133.624 37.62 128.209 39.1718C127.701 39.2432 127.398 39.4709 127.03 39.8457C126.455 40.0669 124.493 39.852 123.792 39.7889C130.592 38.4043 139.267 34.2369 144.273 29.3636Z" fill="#F0F4FF"/>
<path d="M88.7773 30.7314C88.9026 30.6995 89.0275 30.6674 89.1528 30.6355C90.6896 31.4444 92.1094 32.3393 93.7414 32.9737C97.7786 34.5431 102.726 34.3872 106.863 33.1174C101.82 35.988 92.8438 35.2918 88.8484 30.9267L88.7773 30.7314Z" fill="#F0F4FF"/>
<path d="M120.427 43.9174L120.666 43.6785C122.365 43.8774 123.929 45.0353 126.204 44.8746C127.706 44.7684 129.338 43.7338 129.825 43.7497L129.658 44.0045C127.24 46.8454 124.639 46.6211 121.62 44.7387C121.268 44.5189 120.763 44.0888 120.427 43.9174Z" fill="#F0F4FF"/>
<path d="M89.5095 36.0259C89.657 35.7424 89.6568 35.7882 89.9061 35.5642C91.7585 39.2987 94.2113 41.5565 97.3387 44.1738C93.7893 42.5571 90.989 39.6429 89.5095 36.0259Z" fill="#F0F4FF"/>
<path d="M113.329 41.0019C113.539 40.9727 113.751 40.952 113.964 40.9399C117.167 40.7363 118.662 44.3076 117.532 46.9399C117.177 47.7674 116.705 48.2225 116.087 48.8732C116.807 46.0414 117.881 44.5599 115.085 42.2488C114.208 41.9906 112.878 42.1363 112.195 42.7715C110.527 44.3248 110.622 47.2288 110.444 49.3583C109.77 45.927 109.845 42.6253 113.329 41.0019Z" fill="#F0F4FF"/>
<path d="M118.272 49.1837C118.635 49.8774 117.28 51.6839 118.675 52.8024C119.396 53.3809 119.339 54.6299 118.378 55.1863C116.481 55.3496 115.606 53.4027 114.287 52.9054C114.021 52.78 113.755 52.6292 113.494 52.489L113.438 52.2929C115.539 51.5996 116.257 53.6535 118.014 53.9994C117.977 52.3211 115.594 52.651 118.272 49.1837Z" fill="#F0F4FF"/>
<path d="M119.855 61.3473C120.368 62.3018 120.762 64.9629 121.098 66.1729C121.926 69.1529 123.715 71.2449 125.527 73.6617C124.973 73.4433 124.109 72.6218 123.663 72.1704C120.654 69.1204 119.921 65.4362 119.855 61.3473Z" fill="#F0F4FF"/>
<path d="M115.042 46.1172C115.511 46.0491 115.668 46.0507 116.143 46.0725C116.136 46.2844 115.852 46.3515 115.576 46.5105C113.964 47.4422 113.45 47.742 112.399 49.2263C112.171 49.6415 112.273 49.6072 111.923 49.7863L112.029 49.8722L111.854 49.9974L111.836 49.7081L112.012 49.703L111.887 49.5576C112.476 48.0303 113.658 46.9153 115.042 46.1172Z" fill="#F0F4FF"/>
<path d="M154.194 61.7822C154.34 62.3099 153.702 63.7525 154.078 64.4342C154.392 65.0046 155.016 65.1711 155.335 65.7968L155.224 66.0753C153.013 65.3643 152.99 63.4336 154.194 61.7822Z" fill="#F0F4FF"/>
<path d="M155.056 73.8337C155.496 73.8675 155.762 73.8212 156.047 74.2089C156.507 74.8922 157.803 75.2164 157.58 76.1943C157.273 77.5434 158.898 78.1559 159.915 78.5098C159.887 84.0403 160.815 85.3564 163.446 89.8486C163.299 93.0667 163.33 94.8639 165.11 97.5189C165.679 98.5669 166.014 99.9573 166.193 101.121C167.315 108.479 168.079 115.971 168.475 123.403C168.582 125.422 168.745 127.63 168.727 129.62C167.469 131.143 167.674 134.33 167.796 136.308C166.238 134.506 165.164 134.241 162.9 134.703C159.803 132.145 155.775 128.88 152.3 126.887C151.944 126.681 149.823 126.105 149.282 125.963C147.381 125.464 147.19 124.435 146.308 122.769C146.255 122.693 146.199 122.616 146.143 122.542C145.048 121.122 142.712 121.028 141.012 120.784C138.645 118.016 136.127 115.501 133.732 112.678C131.145 109.628 128.032 105.126 125.158 102.508C124.832 99.0368 124.282 97.9478 121.793 95.2728C122.205 94.5371 122.654 93.8229 123.138 93.1329C124.283 91.5077 128.565 85.4872 129.793 84.6397C133.975 81.7517 141.218 88.2852 146.727 87.2802C147.691 87.1102 148.595 86.6976 149.356 86.081C152.357 83.6785 150.537 81.1511 152.517 78.2619C155.527 77.2588 155.342 76.8317 155.056 73.8337Z" fill="#25252F"/>
<path d="M162.749 58.4883C165.609 58.9412 167.476 58.9685 170.389 58.8235C173.976 62.1129 177.255 64.7177 181.346 67.305C182.397 67.9699 181.648 71.7201 181.718 73.0337L181.893 73.1576C182.487 72.7006 182.193 72.2343 182.684 71.7525C183.117 71.9927 183.442 73.2969 183.359 73.7232C182.108 80.1817 179.131 86.1966 178.967 92.9397C178.918 94.9672 179.96 98.0561 180.522 100.075C183.615 111.19 188.295 121.741 192.507 132.46C190.705 131.298 189.02 130.387 186.989 129.676C180.814 127.513 175.815 127.084 169.567 129.286C169.643 126.885 169.829 123.643 169.744 121.291C169.481 113.965 168.715 106.407 167.145 99.2386C166.705 97.2323 165.926 96.3655 165.12 94.5285C164.581 93.2981 164.456 92.3 164.26 90.9974C164.659 91.5792 165.314 92.9358 166.045 92.5881C166.54 91.304 163.643 87.327 162.897 86.0679C160.239 81.585 161.741 77.0029 160.663 72.7273C159.693 68.8828 157.335 66.4074 156.022 62.0127C156.687 62.7497 157.56 63.4364 158.537 63.0012C160.44 62.1539 160.192 60.6674 159.69 59.2556C161.893 61.886 162.553 63.6214 163.855 66.6567C164.697 68.6214 167.188 71.2218 169.107 72.1397C169.707 72.4265 171.119 72.7626 171.464 71.9608C171.109 71.1798 170.222 71.1022 169.44 70.8857C170.818 70.5311 171.829 70.258 173.042 69.4401C173.442 69.1705 174.766 68.2561 174.856 67.8314C174.011 67.7284 172.203 68.8434 171.306 69.2544C171.678 66.4663 171.822 66.6852 173.743 64.8834C173.957 64.6839 173.973 64.4854 173.913 64.2152C172.688 63.8394 171.741 65.5338 171.067 66.405C170.024 64.8954 168.448 63.975 168.281 62.6733C168.235 62.9293 168.162 63.3554 168.027 63.5776C167.002 63.2612 165.614 63.0072 164.541 62.78C164.236 60.944 163.639 60.1276 162.749 58.4883Z" fill="#25252F"/>
<path d="M168.029 63.5774C167.694 62.7564 167.811 61.8733 168.222 61.1073L168.421 61.0573C168.587 61.5504 168.393 62.1328 168.283 62.6732C168.237 62.9291 168.164 63.3552 168.029 63.5774Z" fill="#F0F4FF"/>
<path d="M164.111 63.5701C165.487 63.9892 166.561 64.2999 167.963 64.6036C168.187 64.9758 168.748 65.7857 169.074 66.0341C170.534 67.1482 170.741 66.9205 170.303 68.7271L170.224 68.8469C169.708 68.8144 168.905 67.7378 168 67.4016C166.831 66.9683 166.435 66.9674 165.172 66.9137C164.618 65.7296 164.391 64.8323 164.111 63.5701Z" fill="#25252F"/>
<path d="M158.279 58.0604L158.39 58.0563C159.17 58.6325 159.512 60.3197 159.865 61.3347C159.003 61.9146 158.198 62.2668 157.243 62.659C155.145 60.9042 154.983 58.4138 158.279 58.0604Z" fill="#25252F"/>
<path d="M87.8151 23.0644C88.0586 23.3124 87.4106 25.6876 87.3295 26.277C87.0655 28.2568 87.0092 30.2588 87.1616 32.2504C87.2203 32.9855 87.6466 35.5677 87.5862 35.9307L87.3666 35.6842C86.634 33.0109 85.9237 30.365 85.9082 27.5632C85.8967 25.4904 86.4377 24.4769 87.8151 23.0644Z" fill="#25252F"/>
<path d="M157.883 71.6491C159.247 71.744 159.994 72.2754 159.52 73.9765C159.47 74.155 159.226 74.1388 159.021 74.1808C158.242 74.0569 157.699 74.0644 157.205 73.4711C157.136 72.8077 157.545 72.2789 157.883 71.6491Z" fill="#25252F"/>
<path d="M84.5077 25.425C84.9152 25.7702 84.5399 26.4423 84.507 27.132C84.382 29.7584 85.0498 32.2657 85.4636 34.7942C84.0822 33.0963 83.5011 27.4435 84.5077 25.425Z" fill="#25252F"/>
<path d="M166.224 68.0581C167.536 67.9572 167.779 68.4893 168.924 69.0513C169.334 69.2529 169.891 69.3823 170.196 69.6626L170.051 69.9959C169.641 70.2327 169.546 70.2806 169.093 70.4123C167.98 70.2009 167.018 68.9141 166.224 68.0581Z" fill="#25252F"/>
<path d="M157.461 68.3838C157.974 68.6806 158.558 70.0548 158.851 70.65C158.158 70.6255 158.064 70.7006 157.572 70.3532C157.304 69.7841 157.427 69.0463 157.461 68.3838Z" fill="#25252F"/>
<path d="M159.748 75.1862C159.99 75.5551 160.095 76.6278 159.702 76.9564L159.335 76.7736C158.911 76.3786 158.629 76.2008 158.594 75.6775C158.902 75.3221 159.27 75.3018 159.748 75.1862Z" fill="#25252F"/>
<path d="M75.7846 89.0965C76.8635 87.8182 80.9392 83.2119 82.4423 83.3523C82.2875 83.8802 80.4657 85.7124 79.9885 86.2255C71.1046 95.7766 64.6654 107.317 60.3987 119.582C56.919 129.586 54.6367 139.078 53.2957 149.559C52.4893 155.564 51.9965 161.564 51.1357 167.555C50.9132 169.102 50.6235 172.3 50.0403 173.675C49.4112 146.133 56.1029 113.849 73.4383 91.9255L73.3074 91.5407C73.4974 91.2169 75.1794 89.2926 75.5358 88.8753L75.7846 89.0965Z" fill="#F0F4FF"/>
<path d="M75.5312 88.8753L75.7799 89.0965C75.0124 90.0516 74.2302 90.9947 73.4337 91.9255L73.3028 91.5407C73.4928 91.2169 75.1748 89.2926 75.5312 88.8753Z" fill="#25252F"/>
<path d="M81.525 56.3442C85.7625 63.9422 83.7939 76.5893 79.4279 83.8289C78.3931 85.5448 76.8344 87.3185 75.5358 88.8753C75.1794 89.2926 73.4974 91.2169 73.3074 91.5407C69.6176 95.2241 67.8915 96.8506 62.8976 97.7022C61.9985 97.8555 59.0355 100.125 57.5353 99.9478C56.8405 100.023 53.7054 99.3074 53.632 98.3853C54.1337 98.3389 54.0467 98.7382 54.9276 98.618C56.4486 98.4104 57.4936 97.8553 58.73 96.9394C62.0002 94.517 64.0538 90.9218 65.1379 87.0433C65.3749 86.1949 65.5462 85.3124 65.8651 84.4861C65.9033 88.9011 64.6049 92.8675 61.4764 96.0694C60.6357 96.9288 59.6894 97.6777 58.6605 98.2981L58.7491 98.6371C62.752 97.15 66.5095 93.5442 69.7007 90.699C68.6457 93.0852 67.4652 94.002 65.5925 95.802C70.2986 93.2014 74.4428 88.4475 77.2489 83.9264C83.0384 74.5982 83.8308 66.7689 81.525 56.3442Z" fill="#F0F4FF"/>
<path d="M58.6556 98.2978L58.7442 98.6367C58.1199 99.0349 57.0741 99.3165 56.3407 99.54L58.6556 98.2978Z" fill="#25252F"/>
<path d="M95.8319 95.5671L96.0052 95.6403C95.1942 96.3967 93.9305 96.9336 92.9763 97.7858C89.7725 100.647 86.7702 105.013 85.5115 109.149C82.7712 118.156 86.0512 129.962 90.1499 138.059C90.7404 139.221 91.3744 140.362 92.0506 141.477C92.3988 142.045 93.8814 144.133 93.8423 144.59C91.3311 141.824 89.8757 139.661 88.3124 136.181C83.8448 126.236 81.0887 113.874 87.103 103.937C89.1703 100.521 92.1848 97.239 95.8319 95.5671Z" fill="#F0F4FF"/>
<path d="M67.5476 61.6987C65.8466 50.7991 69.6152 37.3627 79.3855 31.2298C80.1566 30.7458 81.0476 30.5716 81.9443 30.6118L82.0223 30.8967C71.6689 34.5339 66.6648 51.7769 67.8547 61.6983L67.5476 61.6987Z" fill="#F0F4FF"/>
<path d="M108.214 149.589C107.808 151.196 107.189 152.133 106.184 153.451C100.895 160.385 94.2397 165.851 87.1577 170.847L86.7244 170.601C93.0341 165.496 98.6797 160.807 104.052 154.651C105.453 153.047 107.117 151.412 108.214 149.589Z" fill="#F0F4FF"/>
<path d="M142.163 124.685L142.221 124.712L142.252 124.838C137.52 128.416 116.852 132.314 110.844 131.681L110.615 131.464C110.839 131.324 112.988 131.332 113.544 131.253C122.623 129.956 133.872 128.543 142.163 124.685Z" fill="#F0F4FF"/>
<path d="M77.5716 59.785C77.7517 60.1166 77.9279 60.7888 77.9921 61.1732C79.5376 70.4164 76.7151 80.2135 71.7443 87.9319C71.7075 87.9717 71.5833 88.0203 71.5251 88.0476C71.4998 87.3819 74.5948 80.9606 75.0567 79.8069C75.6771 78.2528 76.2018 76.6619 76.6276 75.0433C78.1809 69.0317 77.8464 65.7067 77.5716 59.785Z" fill="#F0F4FF"/>
<path d="M140.987 131.63L141.097 131.664C140.953 131.934 140.159 132.304 139.851 132.479C130.967 137.511 121.186 139.658 111.096 140.421C110.919 140.396 111.015 140.427 110.821 140.288C111.384 140.013 116.681 139.346 117.685 139.18C119.358 138.899 121.023 138.57 122.679 138.194C129.791 136.599 134.487 134.695 140.987 131.63Z" fill="#F0F4FF"/>
<path d="M177.809 156.587C177.578 155.492 177.531 153.795 177.312 152.548C176.92 150.329 176.3 148.447 175.579 146.32C177.169 149.321 178.099 152.629 178.308 156.021C178.254 156.739 178.236 157.561 178.089 158.259C178.005 157.888 177.86 156.714 177.809 156.587Z" fill="#F0F4FF"/>
<path d="M83.741 172.98C84.1691 172.439 86.0849 171.076 86.7244 170.601L87.1577 170.847C85.9737 171.633 84.9733 172.276 83.741 172.98Z" fill="#F0F4FF"/>
<path d="M67.542 61.6987L67.8491 61.6983C67.9695 62.2989 68.1525 62.9202 68.0553 63.5083L67.9162 63.4651C67.6363 62.804 67.623 62.4096 67.542 61.6987Z" fill="#F0F4FF"/>
</svg>
