<svg width="250" height="191" viewBox="0 0 250 191" fill="none" xmlns="http://www.w3.org/2000/svg">
<path d="M83.5889 6.11275C85.6947 5.89612 91.4747 6.03189 93.455 6.18427C109.014 7.38208 126.257 11.8896 139.073 20.9436C142.741 23.5354 145.328 26.4274 148.168 29.8208C148.916 30.7133 150.03 30.7876 150.943 32.0344C152.29 33.8752 153.444 35.8052 154.684 37.7097C156.563 40.5675 158.477 43.4018 160.428 46.2116C162.629 49.4119 162.754 50.1736 166.368 52.0174C167.946 52.8221 175.896 60.0933 176.482 61.3862C179.678 68.438 181.587 75.6851 184.574 82.8128C184.886 84.7296 186.518 87.2591 186.949 88.9469C188.661 95.6448 187.663 104.133 187.74 110.948C187.786 115.822 188.088 122.965 191.717 126.771C197.929 133.286 204.199 140.214 210.357 146.818C215.943 152.797 221.715 158.6 227.663 164.219C231.164 167.52 235.619 171.747 239.735 174.108L238.161 175.766C235.031 173.243 232.071 171.327 228.994 168.79C219.225 160.732 211.267 150.911 202.661 141.722C197.727 136.454 190.709 132.683 187.74 125.94C187.251 131.49 185.797 127.601 186.949 136.57V141.722C184.574 136.57 184.223 135.093 184.574 129.594L185.797 122.343C185.16 116.701 185.377 105.971 185.344 99.9621L183.523 101.569C183.569 99.1594 183.672 96.7819 183.746 94.3764C183.847 91.1436 182.515 89.8907 180.432 87.782L181.587 85.9427C180.263 83.5264 177.987 80.0818 176.482 77.6878C173.142 72.3405 169.742 67.0301 166.286 61.7574C165.433 61.7207 163.706 61.5961 163.339 60.7641C163.62 60.1581 164.264 59.9449 164.899 59.6141C160.304 53.2723 156.143 46.0407 150.804 40.1219C148.972 39.8291 146.623 39.4423 145.171 38.1373C143.329 36.4846 145.636 34.7488 145.596 33.4044L145.345 33.2805C142.387 33.6557 142.837 36.9147 142.846 39.0937C143.749 40.3888 145.424 42.3272 146.456 43.595L153.343 52.0153C161.473 61.9246 165.568 68.5912 173.494 78.6052L172.994 79.4283C166.833 71.9102 162.588 68.9891 156.479 61.3862C154.246 63.1239 153.94 63.133 151.171 63.1855C152.451 61.9784 153.738 60.7787 155.032 59.5865C151.207 54.8367 147.352 50.1098 143.47 45.4058C142.606 45.8631 141.585 46.2788 140.682 46.6721L138.522 45.9188C139.643 45.2016 140.857 44.3338 141.964 43.5754C140.654 42.0357 139.362 40.4806 138.086 38.9108C137.479 38.9564 136.868 38.9865 136.257 39.0007C133.955 39.0395 129.234 37.8981 129.204 34.9788C129.414 34.6371 129.444 34.6593 129.772 34.4628C132.1 33.0708 131.964 35.5167 133.889 36.0172C134.289 36.1204 134.92 36.0635 135.313 35.8298C135.148 35.5835 134.97 35.3464 134.779 35.1191C134.453 34.7355 133.271 33.4572 132.889 33.2337C130.416 31.7916 128.436 33.7549 128.451 36.0924C128.485 41.8928 132.344 45.9389 136.008 49.8576C137.091 56.0127 140.008 58.6141 143.44 63.4837C144.755 65.3488 146.173 68.4897 147.151 70.6112C147.885 71.0682 148.684 71.4717 149.425 71.9255C156.089 75.9983 158.178 79.0972 163.994 84.3068L162.828 84.3856C155.574 78.7945 150.128 77.3833 142.582 72.2449C141.123 73.4768 139.596 74.6255 138.005 75.6851C138.826 74.7163 140.757 72.6822 140.74 71.5716L140.347 71.55C138.288 72.4525 135.443 75.2411 134.264 77.1465C133.268 78.8987 132.94 80.6491 132.31 82.5257C131.922 83.678 131.75 83.7209 130.714 84.3068C132.299 86.9194 132.85 88.1157 133.678 91.0094C135.124 89.566 135.06 89.8099 136.771 88.9469C136.853 88.5445 135.626 85.884 135.345 85.1776L138.88 81.0904C140.364 87.5575 142.121 92.4673 149.502 93.5258L146.797 96.0772C146.921 96.5741 147.052 97.0694 147.189 97.5629C148.294 101.504 150.476 103.429 153.888 105.341C152.588 106.238 151.04 107.178 149.697 108.038C145.617 105.593 146.846 104.82 144.44 102.164C143.94 102.073 143.906 102.051 143.429 102.18C143.371 102.826 143.683 103.238 143.978 103.908L141.828 105.179C139.943 101.1 139.774 102.577 136.771 99.5322C134.71 97.4447 135.755 96.0394 132.31 94.3835C130.102 86.3718 128.128 82.0536 120.203 78.4391C121.963 83.4264 118.329 87.4499 113.7 89.733C114.759 92.4669 115.034 93.8348 115.661 96.7087L118.896 95.38C118.116 96.3784 116.676 98.2696 116.972 99.5322C118.003 99.9195 120.939 97.892 121.999 97.5724C122.625 97.384 121.856 98.3282 122.494 98.2035C121.526 99.8362 121.368 100.655 120.203 102.164C122.867 104.913 124.997 107.685 126.994 110.948C127.39 111.598 128.185 112.793 128.494 113.483C130.48 117.894 133.309 121.555 137.161 124.611L135.345 125.94C138.991 131.904 142.164 137.032 148.322 140.722C151.11 142.391 154.181 143.483 156.661 145.734C165.953 154.162 174.45 168.75 180.681 179.586C179.692 180.759 181.696 180.646 180.681 181.796C171.896 168.523 163.873 155.362 151.02 145.658C150.178 153.321 147.314 156.035 139.487 155.409C129.309 154.596 119.483 151.8 109.787 148.744C110.881 147.853 111.985 146.724 113.004 145.734C120.86 149.895 131.758 150.96 140.559 152.004C148.337 152.926 147.988 151.036 148.322 143.884C145.338 141.985 141.319 140.07 139.094 137.493C135.564 133.407 133.331 129.043 131.591 124.04C131.284 123.153 128.206 120.805 127.492 119.236C126.413 116.862 125.75 114.322 124.264 112.208C121.486 107.996 117.333 105.576 114.71 101.507C114.423 101.062 113.882 99.2368 113.7 98.6408C112.03 102.647 109.97 106.972 108.161 110.948L98.6877 131.733C98.4582 131.511 98.224 131.294 97.9852 131.082C82.9347 117.735 53.4538 118.014 34.4112 119.096C29.3975 132.502 25.614 143.429 11 148.188C11.7428 147.49 13.275 145.982 14.146 145.507C17.3342 143.768 20.3813 142.594 22.7547 139.65C29.0365 131.747 31.5207 121.379 34.1828 111.801C36.5116 103.424 39.4899 94.4156 39.6098 85.6764C39.6575 82.2032 38.3642 78.3286 37.5832 74.9617C33.5269 57.4766 35.7317 38.5659 48.3507 24.917C55.1857 17.5655 63.8756 10.0507 73.8057 7.44333C77.1299 6.57066 80.187 6.33031 83.5889 6.11275Z" fill="#6572A4"/>
<path d="M88.1625 8.94291C105.443 7.27132 133.253 18.2674 144.598 31.7089C142.448 33.2915 141.921 34.2712 140.769 36.5865C139.036 34.5926 135.713 31.3838 133.162 30.9383C129.707 30.3354 126.872 34.5876 126.495 37.5817C127.995 42.7304 129.777 46.7979 133.162 50.3704C134.711 50.3704 135.727 57.0696 136.495 58.0104C138.518 61.8535 140.803 65.2556 143.328 68.8061L140.11 70.0573C139.454 65.5512 137.23 62.074 132.208 64.3745C127.204 66.6656 124.261 71.3042 122.305 76.2459C119.826 75.295 116.531 74.162 113.856 74.5454C111.22 74.9232 107.378 79.5972 107.848 82.2159C108.731 87.1423 112.223 90.7503 113.275 95.8514C112.881 97.1833 111.506 100.042 110.898 101.381L106.304 111.482C103.846 117.297 100.872 123.48 98.2615 129.303C96.0063 127.662 93.5005 125.977 90.9921 124.761C74.6313 116.833 52.7962 116.298 34.9531 117.703C38.7729 107.558 41.4616 96.113 42.5236 85.3161C42.5395 83.674 43.0755 80.733 42.6767 79.1673C41.0725 72.8697 38.9738 66.9883 38.7889 60.388C38.7017 57.2753 38.9318 54.3672 39.1354 51.3604C39.887 40.2638 44.4869 30.7028 52.2207 22.7545C63.1682 10.3962 72.1673 9.62323 88.1625 8.94291Z" fill="#F7F9FF"/>
<path d="M132.898 67.5193C133.181 67.4905 133.464 67.4683 133.749 67.4532C136.909 67.2926 136.293 70.9024 136.259 73.087C134.401 74.6624 132.956 75.8563 131.474 77.831C130.982 78.4876 129.23 82.0552 129.129 82.1273L128.859 81.8769C127.244 79.9181 126.386 78.7625 124.359 77.2691C125.615 72.4554 127.668 68.6336 132.898 67.5193Z" fill="#F7F9FF"/>
<path d="M138.814 91.9289C138.596 91.8446 142.476 95.0778 143.162 95.515C143.225 96.5989 143.559 98.3739 143.739 99.5034C142.673 99.5023 141.657 99.6455 140.874 99.0233C140.007 98.0875 139.091 97.1961 138.134 96.3522C137.502 95.8059 135.483 94.2214 135.125 93.7422C136.74 93.1944 137.347 92.8047 138.814 91.9289Z" fill="#F7F9FF"/>
<path d="M110.156 79.1035C112.957 79.3342 117.814 82.8312 115.905 85.8687C114.914 86.4504 114.675 86.524 113.553 86.8224C112.735 84.9769 110.296 80.7223 110.156 79.1035Z" fill="#F7F9FF"/>
<path d="M170.219 60.105C170.415 60.1716 170.451 60.1802 170.635 60.2712C175.726 62.8044 175.942 65.2309 177.493 70.1916C176.676 69.6771 171.054 61.3855 170.219 60.105Z" fill="#F7F9FF"/>
<path d="M119.445 109.888C119.593 110.134 118.651 113.141 118.511 113.739C117.636 117.471 115.882 126.317 116.902 129.893C117.955 133.59 126.537 138.216 129.725 139.972L127.078 142.279C111.472 133.575 112.139 127.575 116.808 111.432C117.604 110.912 118.609 110.369 119.445 109.888Z" fill="#6572A4"/>
<path d="M110.578 150.916C110.742 151.53 109.386 154.841 109.139 155.594C106.464 163.745 102.638 172.856 101.747 181.404L98.0362 184.465C97.9037 183.652 98.8412 180.07 99.1312 179.036C101.783 169.578 104.715 158.906 110.578 150.916Z" fill="#6572A4"/>
</svg>
