<svg width="250" height="160" viewBox="0 0 250 160" fill="none" xmlns="http://www.w3.org/2000/svg">
<path d="M26.8639 114.236C32.2766 103.182 34.265 84.6632 26.7019 74.025C25.2272 71.9505 23.5946 69.9099 22.6124 67.5384C19.9169 60.7342 20.1968 44.2129 21.6609 37.2116C22.1387 35.0356 22.8819 32.9256 23.8741 30.9285C27.7413 22.9994 36.6906 13.6419 45.3026 11.0612C57.2603 7.47797 72.3421 5.72653 84.6212 8.05888C88.7768 8.84865 92.804 10.1995 96.5911 12.0742C103.167 15.2919 110.067 20.3527 114.08 26.5923C115.268 28.4393 116.03 30.7121 117.146 32.6037C119.214 31.6762 119.683 31.8336 121.663 31.5724C123.393 31.344 131.424 32.3794 132.244 31.7317C132.456 31.1618 132.435 31.4022 132.345 30.8174C130.51 27.9385 120.809 28.4597 121.972 22.3762C122.203 21.171 123.258 20.1631 124.261 19.5543C127.193 17.7747 130.127 18.6475 133.039 19.9504C134.456 16.2237 137.618 12.439 141.233 10.6203C143.688 9.38448 148.017 10.34 147.533 13.7724C147.301 15.3705 146.554 16.8734 146.158 18.436C145.686 20.7081 145.439 23.5206 145.298 25.8373C146.27 27.2187 149.735 32.1169 150.758 32.861C155.911 36.608 154.485 36.8282 155.925 42.5247C157.204 47.5842 159.637 53.6384 161.693 58.4783C162.392 60.0521 162.407 62.093 163.238 63.7078C164.425 66.0133 166.348 68.095 167.996 70.1261C171.278 74.1777 174.643 78.1617 178.088 82.0753C181.977 86.4983 185.877 91.0013 189.977 95.2185C197.163 102.608 205.091 109.366 211.474 117.48C212.357 118.601 213.249 119.72 214.127 120.846C218.045 125.866 221.8 131.01 225.384 136.271C227.978 140.096 232.598 147.165 234.113 151.396L232.422 153.495C231.353 151.577 230.387 149.586 229.346 147.651C222.632 135.157 213.641 124.022 204.219 113.45C199.49 108.145 193.677 103.218 188.649 98.0955C182.041 91.2466 175.775 84.0818 169.871 76.6264C167.511 73.6916 165.042 70.7627 162.826 67.7205C160.654 64.7408 155.413 49.9194 154.467 46.1552C153.911 43.9463 153.732 40.2143 152.757 38.3333C151.817 36.521 148.709 34.5425 147.147 32.9963C146.27 32.1289 145.561 31.0682 144.836 30.0759L144.693 30.1081C144.21 31.8008 145.179 36.619 146.114 38.1349C147.11 39.7505 147.885 40.3237 149.395 41.4036C148.066 42.0455 146.626 42.4586 145.219 42.9158C143.106 37.2063 142.874 35.0379 142.449 28.9725L143.487 28.1398C143.655 27.1993 143.715 26.7226 143.749 25.7701C142.447 26.457 141.55 26.6923 140.122 27.0655C140.871 27.2339 141.708 27.4027 142.442 27.6086L140.543 29.1871C138.58 28.5968 137.624 27.9933 136.029 26.6905C136.463 26.2246 136.947 25.7274 137.364 25.255C137.822 25.6284 138.366 26.0499 138.801 26.4366C139.373 25.8954 140.006 25.2674 140.59 24.7541L143.706 24.8304C143.781 22.0057 144.526 20.811 144.688 18.6361C144.507 18.6803 144.47 18.6468 144.358 18.8067C143.254 20.384 140.307 19.9095 139.081 18.7216C137.198 16.8972 138.457 14.5542 139.772 12.9882C139.533 14.1499 139.038 15.6385 139.707 16.7119C140.478 17.9503 142.588 18.6755 143.851 17.7891C145.176 16.8586 145.399 13.8574 144.482 12.5925C144.008 11.9702 143.002 11.824 142.258 11.7739C140.415 11.6501 139.272 12.2325 137.875 13.33C132.04 17.893 135.524 25.7934 133.846 32.0005C133.447 33.4746 132.933 35.2165 132.175 36.5648C129.848 40.7112 129.128 42.0018 129.519 46.8591C129.519 47.2108 129.475 47.2108 129.475 47.4128C130.348 56.4517 132.494 62.8008 138.414 69.7954C137.858 70.247 137.087 70.8351 136.573 71.306L135.217 69.4957L133.665 70.9648C135.228 76.5209 137.185 79.1236 142.294 81.9842L143.078 82.4188C142.874 81.8337 142.644 81.1097 142.413 80.5487L143.444 79.1693L145.217 80.9066L144.443 77.741C145.1 77.166 145.762 76.5948 146.425 76.0276C151.391 88.5132 156.665 100.875 162.244 113.101C163.898 116.776 165.572 120.442 167.266 124.1C168.032 125.76 169.13 128.331 169.973 129.876C168.845 123.541 167.663 117.215 166.43 110.899C165.478 106.014 164.499 100.925 163.266 96.1089C163.759 95.5461 164.274 94.9332 164.779 94.3877C167.283 106.514 169.572 118.684 171.645 130.89C172.644 136.953 174.179 146.283 174.146 152.303C173.626 152.759 173.154 153.187 172.59 153.589C172.923 150.004 172.122 142.664 171.103 139.079C170.503 136.967 169.116 133.761 168.225 131.683L163.769 121.48L148.624 87.8113C146.556 87.6194 146.316 87.1665 145.281 85.5246C141.032 84.9817 137.85 82.4527 135.303 79.1778C134.409 78.0367 133.645 76.7997 133.026 75.4898C132.706 74.8005 132.164 73.2161 131.803 72.4528C131.7 72.4373 131.598 72.4217 131.495 72.4062C130.895 73.0206 130.948 75.7881 131.325 76.1994C134.964 80.1675 132.711 82.2459 127.488 85.3412C129.84 86.3769 132.606 88.0985 131.083 91.1513C130.114 93.095 128.123 93.6708 126.415 94.7065C127.184 98.0405 128.06 99.9407 128.391 103.478C129.052 110.548 123.8 114.876 116.922 113.829C106.279 112.209 95.8402 110.129 85.0812 109.297C83.111 109.142 80.6425 108.605 78.9719 107.604C74.3483 104.726 77.5371 97.942 77.8842 93.7689C78.1041 91.1266 77.8374 88.2701 77.8186 85.6089C75.5315 87.003 73.3392 87.7353 70.6262 87.0347C66.8317 86.0548 59.554 80.714 56.8415 77.9832C55.8308 76.9682 54.9475 75.8353 54.2108 74.6094C50.0598 67.7225 50.2272 58.28 57.8785 53.517C62.6586 50.5413 66.8054 52.3421 70.4917 56.0853C69.737 56.6762 69.174 57.1022 68.4991 57.794C66.4082 55.9943 63.7791 54.0343 60.8183 54.361C55.6761 54.9284 52.9235 58.495 53.623 63.5857C54.4384 69.5182 56.6087 75.313 61.6708 78.9875C65.0524 81.4421 70.0146 85.7703 74.5023 85.6905C75.9792 85.5826 77.2321 84.7868 78.2272 83.7996C77.8525 82.667 77.4613 81.8767 76.949 80.806C77.6082 80.2342 78.3568 79.5493 79.0249 79.0079C79.3335 79.6576 79.5788 80.2678 79.6908 80.9809C80.0584 83.3235 80.0511 91.9801 79.6502 94.2215C79.3747 95.762 78.7362 97.233 78.3865 98.7579C77.4976 102.635 79.4353 105.074 83.062 106.361C88.3145 108.225 93.9323 108.042 99.3821 108.769C104.681 109.475 120.753 113.147 125.029 111.107C125.75 110.764 126.178 110.172 126.426 109.433C127.293 106.844 126.122 101.282 125.479 98.5873C125.242 97.5939 124.567 96.1909 124.739 95.1817C125.049 93.3789 131.104 92.4402 129.784 89.804C129.126 88.491 126.598 87.5508 125.258 87.1704C125.141 87.1373 125.024 87.1054 124.906 87.0749C126.591 85.4002 128.598 84.1534 130.306 82.4677C132.431 80.3716 130.404 79.1362 129.465 77.1428C128.154 77.6762 123.233 79.4917 122.488 80.1464C120.263 82.1049 117.382 85.7157 115.326 87.9772C105.207 86.4629 97.0615 81.4732 90.9696 73.2904C86.9318 67.8669 84.2256 61.6622 82.4225 55.1806C82.0987 54.0168 81.4531 51.7075 81.6603 50.5745C81.8617 49.4728 82.5071 47.6653 82.8778 46.5464L85.2115 39.5279L75.1417 25.7292C86.5065 21.0959 95.1267 20.9 107.218 22.298C97.2801 13.2436 84.1607 8.43179 70.687 8.89957C60.7432 9.31229 49.0519 10.5983 39.8642 14.7567C38.1841 15.5171 33.2804 20.0989 32.3398 21.568C29.9213 23.7049 28.7467 25.4177 27.234 28.1123C22.3525 36.8078 22.3149 44.2891 22.6404 53.9521C22.7579 57.4359 23.0483 61.9372 23.9482 65.3284C24.3251 66.7493 26.3173 68.8921 27.268 70.1475C28.1754 71.3368 28.964 72.6111 29.6228 73.9523C34.1909 83.2419 34.7508 92.1292 32.4117 102.092C31.3482 106.621 30.1239 110.414 27.7601 114.463C41.4858 117.642 59.3823 123.93 71.9308 130.007C73.6972 122.387 74.0469 115.678 75.1759 108.238C75.7013 107.849 76.235 107.445 76.7647 107.065C76.5789 114.191 74.8789 123.519 73.0557 130.542C77.4154 132.635 81.6738 134.929 85.8166 137.42C86.9351 135.31 88.1696 133.263 89.5145 131.288C91.4311 128.484 94.7363 124.379 95.8199 121.367C96.5572 119.318 96.7425 115.353 97.2759 113.074C97.9733 112.508 98.6745 111.947 99.3795 111.391C99.1735 114.537 98.5263 118.91 97.2635 121.833C96.6341 123.289 94.7964 125.409 93.7415 126.739C90.7338 130.525 88.0911 134.564 86.9315 139.31C93.6081 141.705 101.013 145.623 106.475 150.112L104.279 152.034C93.8136 143.563 77.4859 135.594 63.4972 136.796C60.2344 137.076 56.2792 138.358 53.1964 139.44C56.5929 135.953 60.5095 135.227 65.2255 135.154C69.2911 135.092 74.6548 135.724 78.7115 136.37C68.0292 130.118 31.4044 115.169 19.685 115.262C18.4814 116.139 17.4896 116.904 16.3437 117.853L16 117.836C17.6774 116.272 19.5478 114.42 21.2421 112.927L26.8639 114.236Z" fill="#6572A4"/>
<path d="M92.6731 22.7622C96.6771 22.284 104.489 23.1443 108.445 23.6019C111.004 25.7975 112.715 29.4317 114.194 32.3891C116.016 36.0335 119.047 39.8488 119.817 43.8494C120.206 45.8681 118.333 49.3497 118.557 51.4907C119.237 55.2404 126.226 58.0808 129.004 60.3271C130.237 61.3236 133.467 66.6111 133.559 67.5825C133.13 68.0349 131.078 68.3567 130.332 68.8302C128.743 69.8372 127.103 72.7776 124.963 72.347C124.26 72.2055 123.766 72.0872 123.394 71.5076C123.509 69.8705 128.456 68.6678 128.921 67.1555C128.836 66.677 128.932 66.803 128.616 66.562C128.034 66.7304 127.673 67.4743 127.073 67.8219C124.445 69.3415 123.437 69.5907 121.318 71.8778C122.171 73.6371 123.126 75.1784 125.523 74.2067C126.969 73.6201 132.445 67.6761 133.677 69.08C133.51 69.866 131.523 71.0376 130.691 71.6549C130.14 72.1102 129.745 72.5262 129.25 73.0374L129.336 75.9385C128.117 76.4231 122.735 78.4791 121.987 79.0254C120.022 80.4624 116.679 84.5795 114.83 86.5909C113.104 86.2484 111.535 85.8836 109.83 85.3666C95.1566 80.9152 86.4783 66.9579 83.2005 52.7858C83.0951 52.3304 82.9025 51.0784 83.0156 50.6266C83.7841 47.5529 85.7241 42.0364 86.6268 39.2457L77.0391 26.1861C82.6856 23.8666 86.7068 23.2991 92.6731 22.7622Z" fill="#F7F9FF"/>
<path d="M121.528 33.1709C125.653 32.8924 127.69 33.8665 131.583 34.2523C130.96 35.981 130.224 37.7854 129.557 39.506C128.265 39.631 126.932 39.7203 125.636 39.8219L125.438 36.9523C125.323 36.1479 125.27 34.994 125.207 34.1598C124.804 34.5426 124.228 35.1958 123.832 35.6182C123.977 37.0122 124.106 38.2868 124.172 39.6855C123.136 39.5532 121.974 39.4591 120.923 39.3538C120.331 38.0184 118.719 35.355 117.922 33.963C119.169 33.5266 120.219 33.3072 121.528 33.1709Z" fill="#F7F9FF"/>
<path d="M125.646 20.0322C128.247 20.117 130.32 20.9431 132.527 22.2584C132.433 24.0484 132.47 25.7958 132.493 27.5856C130.265 26.8916 130.133 26.3474 130.536 24.1159C130.713 23.7669 130.723 23.7464 130.818 23.3686L130.607 23.2075C129.197 23.5914 129.221 25.3747 129.239 26.5188C127.005 25.8529 124.309 24.561 123.469 22.1858C122.993 20.8373 124.589 20.2157 125.646 20.0322Z" fill="#F7F9FF"/>
<path d="M122.219 41.9456C124.372 42.1279 126.528 42.2694 128.687 42.37C128.153 44.6287 128.058 46.3563 128.017 48.6553L127.902 48.8372C126.527 49.0051 123.455 46.8085 122.313 45.9259C122.569 44.1504 122.514 43.6773 122.219 41.9456Z" fill="#F7F9FF"/>
<path d="M122.188 52.9402C123.09 52.9388 127.09 53.58 128.409 53.6989C128.438 55.1583 128.61 56.0169 128.893 57.4216C126.643 55.9493 124.408 54.4554 122.188 52.9402Z" fill="#F7F9FF"/>
<path d="M121.473 48.7698C123.635 50.0316 125.613 50.4228 127.972 51.1531C128.242 51.5913 128.147 51.5181 128.131 52.1328C128.011 52.1316 127.89 52.1288 127.769 52.1249C126.287 52.0738 122.244 51.3391 121.245 50.2718C121.133 49.7333 121.318 49.3119 121.473 48.7698Z" fill="#F7F9FF"/>
<path d="M143.528 59.6309C143.901 59.9377 144.706 62.6135 145.585 63.3693C150.928 67.968 154.862 68.8166 157.607 76.0308C157.079 76.4565 156.546 76.9418 156.034 77.3923C154.905 74.8387 153.721 72.6078 151.696 70.6164C148.041 67.0224 143.799 66.245 141.773 61.0212L143.528 59.6309Z" fill="#6572A4"/>
</svg>
