<svg width="250" height="177" viewBox="0 0 250 177" fill="none" xmlns="http://www.w3.org/2000/svg">
<path d="M56.3346 18.3126C53.4948 14.4316 59.1234 8.68485 62.6982 7.51754C63.1571 7.36759 65.7064 7.5222 65.6772 7.56165C66.0792 7.01818 66.3448 6.13608 66.7912 5.60425C67.2586 5.04768 67.7759 4.64135 68.3103 4.15989C70.1694 2.70797 72.1214 1.07595 74.3164 0.169384C74.8635 -0.0565648 75.686 -0.0775278 76.1992 0.235773C76.9203 0.64385 76.9377 1.17975 77.6817 1.32636C78.8562 0.980299 79.9081 0.194573 81.1413 0.0914977C82.9588 -0.0602027 99.4526 1.49567 100.457 2.01585C101.406 2.50706 102.167 3.38319 103.173 3.75138C104.606 4.27534 106.147 4.13456 107.528 4.84415C109.217 5.71111 110.806 6.88133 112.372 7.95139C115.339 9.99046 118.266 12.0886 121.147 14.2446C125.576 17.5823 129.249 21.6187 134.085 24.3991C136.727 25.9184 139.825 25.5491 142.221 26.8291C149.006 30.4469 155.043 34.6349 162.426 37.1233C165.933 38.3055 169.887 40.5856 173.373 41.6034C188.263 45.9493 200.515 56.1393 212.881 65.0617C215.657 67.0642 219.024 68.8328 221.432 71.3831C226.49 76.8088 227.96 83.3298 223.769 89.7456C214.403 104.084 196.616 117.177 181.414 124.712C177.33 134.219 162.968 139.149 154.387 143.489C153.008 144.186 149.377 147.339 148.708 147.418C143.591 148.027 140.685 149.418 136.438 152.589L136.174 152.368C137.017 151.636 138.018 151.049 138.914 150.328C139.47 150.1 139.388 149.423 139.44 149.362C142.483 145.651 142.955 139.278 143.256 134.621L145.158 133.675C144.67 138.485 143.252 144.562 140.826 148.782C142.516 147.903 144.205 146.764 145.995 146.17C147.21 145.766 148.777 145.812 149.991 145.256C151.834 144.412 153.622 142.436 155.35 141.523C158.48 139.885 161.789 138.297 164.991 136.846C166.157 136.317 170.886 134.346 171.415 133.389C173.318 129.946 173.281 121.161 172.636 117.635L173.702 116.409C174.111 121.297 173.962 128.163 172.636 132.912C174.717 131.634 178.022 129.669 178.915 127.389C179.493 125.903 180.307 123.964 180.415 122.389C181.748 102.922 168.679 88.5338 151.415 81.8894C150.347 82.5726 147.864 84.2831 146.916 85.1122C153.609 88.6571 159.509 96.701 163.615 102.895C163.155 103.582 163.397 102.711 162.915 103.389C160.357 99.5375 155.915 92.3894 150.915 88.8894C145.915 85.3894 144.415 86.8894 147.915 89.8894C151.415 92.8894 158.829 102.709 160.634 106.242L159.915 107.889C159.392 106.974 158.422 104.925 157.915 103.889C156.971 101.986 155.516 100.19 154.387 98.3894C151.162 93.2365 147.039 89.2016 140.886 87.7789C144.677 90.1864 145.967 90.3718 149.008 94.3123C148.384 95.0365 148.563 94.1759 147.915 94.8894C140.447 84.8315 132.525 86.9115 122.073 91.5104C122.459 91.7138 122.843 91.9194 123.226 92.1273C134.295 98.1695 138.971 108.081 142.352 119.637C141.537 120.709 140.755 116.574 139.915 117.635C137.642 108.291 133.256 102.398 125.915 95.8894C123.111 93.4032 119.866 93.0143 116.272 92.3287C122.449 95.1275 125.441 97.7025 128.809 103.703L127.415 103.889C123.946 99.0145 120.989 96.5381 115.415 93.8712C109.707 91.0882 102.484 91.4554 96.487 93.5485C97.7429 94.391 100.274 95.7251 101.681 96.5418L99.4149 97.3894C85.1711 89.304 72.3159 84.0177 55.4149 85.3894C50.344 85.801 47.3576 86.3799 42.4149 86.8894C45.9149 84.7996 44.1225 85.7024 48.7106 84.7996C55.9071 77.0055 47.383 72.2158 40.4149 71.8894L40.8476 70.7298C44.2598 70.996 46.0449 71.7557 49.1056 73.0714C47.7859 72.1026 46.6978 71.457 45.2804 70.6676C45.8438 70.2586 46.4429 69.7784 47.0004 69.3509C49.2283 70.1743 51.4825 70.0733 53.4149 71.3894C49.6121 66.4894 36.7958 65.0743 30.9149 64.8894C30.4948 65.4506 29.8938 66.8759 29.4149 67.3894C30.2521 67.4053 34.2754 67.7875 35.1142 67.8731C34.4461 68.5569 34.1244 68.7321 33.4149 69.3894C30.938 69.5343 27.3246 68.5523 25.4149 69.8894C24.7239 70.3732 24.2146 71.8452 23.6542 72.3108C23.1622 72.2171 23.2588 72.3136 23.0001 72.0083C22.9816 70.8488 25.222 69.2534 26.1424 68.7071C26.5803 67.4988 26.5991 67.5804 27.5948 66.7707C28.613 65.9427 29.4873 64.1764 30.7466 63.7757C30.9734 63.2829 30.6946 61.7908 30.7992 61.2906C31.7157 56.9064 36.3523 52.3324 39.5313 49.6598C41.2727 47.8068 45.7153 44.4923 47.9098 42.8378C48.8576 41.9834 49.9477 41.2859 50.8626 40.4604C49.6981 33.2903 50.9211 25.7596 55.2378 19.7849C55.5976 19.2898 55.9632 18.799 56.3346 18.3126Z" fill="#6572A4"/>
<path d="M47.6337 43.5336C48.706 42.7956 49.848 41.9758 50.9505 41.2981C51.1169 42.595 51.3789 43.7105 51.6631 44.9829C51.1597 45.3562 50.6909 45.6219 50.5786 46.2894C50.3179 47.8391 51.5549 48.7691 52.6018 49.6524C52.6452 49.6891 52.8279 50.5339 52.8717 50.623C53.8483 54.2766 53.7773 57.8764 53.8392 61.6325C49.0363 59.1328 45.2884 57.9311 39.9295 56.8968L37.7614 58.616C43.5201 59.2028 49.0444 61.1974 53.8445 64.4222C53.7858 66.063 53.677 67.948 53.7034 69.5699C47.858 64.7629 40.5021 64.1006 33.1458 63.8747C31.8648 57.7551 35.9494 53.6872 39.97 49.675L39.5312 49.6598C41.2727 47.8068 45.7152 44.4923 47.9097 42.8378C47.8456 43.2045 47.8674 43.2303 47.6337 43.5336Z" fill="#F7F9FF"/>
<path d="M47.9097 42.8379C47.8456 43.2046 47.8674 43.2304 47.6337 43.5336C45.0837 45.3359 42.2536 47.5365 39.97 49.675L39.5312 49.6599C41.2727 47.8069 45.7152 44.4923 47.9097 42.8379Z" fill="#6572A4"/>
<path d="M79.8066 2.33095C80.4307 2.30794 82.1004 2.12538 82.4813 2.52356C82.2387 2.78197 82.2079 2.81051 82.0255 3.111L82.138 3.30812C82.6343 3.33811 83.0513 2.88039 83.5546 2.51846C86.3522 2.68283 89.7176 3.1653 92.5577 3.46957L91.6833 4.17043C91.2894 4.48271 90.7533 4.81639 90.9435 5.35753C92.0385 5.38199 92.8106 4.66746 93.6893 4.03314C97.3572 6.27647 103.406 11.1864 107.225 11.9258C107.763 11.5818 108.138 11.2369 108.614 10.8221C109.453 11.068 109.774 11.1319 110.643 11.2404C111.4 13.1755 112.174 15.1044 112.963 17.027C113.609 16.2757 114.224 15.4765 114.839 14.6972C114.385 13.9356 114.837 12.2034 114.417 11.3894C122.679 16.4348 127.747 24.3406 137.917 26.8894C143.595 28.3127 150.228 33.2908 155.917 35.8894C161.319 38.2942 166.374 40.3254 171.917 42.3894C175.326 43.6363 181.254 45.716 184.417 47.3894C194.468 52.7094 202.174 59.3172 211.417 65.8894C214.18 67.855 216.929 69.5541 219.417 71.8894C221.264 73.6249 222.97 76.5423 223.917 78.8894C225.262 82.1469 224.323 84.8468 222.89 88.0427C218.139 98.641 204.198 109.787 194.681 115.71C190.356 118.408 185.816 120.748 181.107 122.705C182.664 107.917 176.641 96.8973 165.165 87.9044C161.961 85.5505 159.926 84.3916 156.394 82.5818C162.59 79.3074 172.242 78.8977 178.917 79.8894C180.607 78.9731 182.46 78.8254 183.84 77.4902C180.755 78.3265 171.896 78.3747 168.417 78.3894C165.554 74.4429 163.366 71.7194 160.917 67.3894C158.67 63.4187 148.792 58.7004 144.917 55.8894C138.892 51.5186 132.639 45.6147 125.417 43.8894C123.807 44.5817 122.615 44.4229 121.089 44.9808C118.646 45.8745 115.421 45.3485 112.814 45.2868C110.755 45.2565 108.695 45.2385 106.635 45.2325C106.816 44.3759 107.186 43.1302 106.86 42.3513L106.618 42.3085C105.929 42.7783 104.923 44.2309 104.366 44.9675C101.261 43.7791 99.4593 43.4761 96.1081 43.5368C92.9822 43.5935 89.792 43.6236 86.6739 43.4815C87.6021 40.5193 87.8927 38.4571 84.6962 36.9606C87.7425 36.9037 89.968 36.7055 92.961 37.5164C92.5021 38.8895 92.209 39.505 91.4118 40.7113C91.5143 41.5058 91.6607 42.356 91.7823 43.1534C94.1358 41.7974 94.3124 40.4469 94.7846 37.9743C94.9067 37.9717 95.0286 37.9675 95.1506 37.9615C97.0369 37.8638 100.252 37.5965 101.555 36.0757C102.459 35.0199 102.295 33.9572 102.176 32.7045C102.963 32.122 103.744 31.5327 104.52 30.9367C102.239 29.3785 101.329 28.3777 101.099 25.5649C98.4852 23.7723 96.9906 22.0664 94.8287 19.8676C94.1606 19.3492 93.2724 18.8168 92.5356 18.4173C90.2643 17.1862 88.8958 16.0959 87.3594 14.0269C83.9669 13.4378 83.0828 12.9161 80.1879 11.2426C78.9515 10.5279 74.5691 10.6768 74.2891 8.51966C74.9766 6.36775 77.3681 6.89274 79.0073 7.18041C78.5992 7.5435 78.4028 7.65226 78.2085 8.14041L78.3565 8.27231C78.9889 8.15176 79.3596 7.74835 79.8419 7.32658C82.8278 7.74849 85.7671 8.45036 88.6206 9.42287C87.9205 10.6855 87.0955 11.5975 86.4839 13.0079C87.8703 12.2346 89.0592 11.18 90.2922 10.1837C93.0904 11.2105 97.3134 13.7549 99.9648 15.307C100.684 14.7909 101.462 14.1688 102.174 13.6267C92.9417 7.38787 88.9611 6.64786 78.2803 4.98687C78.118 3.26357 78.2486 3.01709 79.8066 2.33095Z" fill="#F7F9FF"/>
<path d="M191.684 56.8889C194.966 59.7594 198.254 62.8256 201.439 65.8114C207.625 71.6068 220.495 81.1275 209.001 88.9449C208.944 88.8425 208.814 88.615 208.906 88.5023C210.952 85.986 213.345 83.0745 211.914 79.8894C210.747 77.4089 208.924 74.7523 206.914 72.8894C203.441 69.6714 199.927 66.0649 196.414 62.8894C194.407 61.0754 192.662 59.4981 190.914 57.3894L191.684 56.8889Z" fill="#6572A4"/>
<path d="M118.354 18.1523C118.858 18.5456 120.371 20.1796 120.864 20.6947L125.882 25.9444L124.294 27.4573C122.464 25.7934 118.495 21.5522 116.781 19.6594L118.354 18.1523Z" fill="#6572A4"/>
<path d="M106.069 19.4487C106.891 19.4713 109.161 19.8686 110.084 20.0094C109.62 20.4202 109.022 20.8787 108.531 21.2723C107.928 21.4913 105.429 21.3881 104.664 21.3756L106.069 19.4487Z" fill="#6572A4"/>
<path d="M70.9259 7.37256L71.0195 7.38785L71.1214 7.54493L70.7497 8.97036C72.4763 12.6406 75.3615 11.8803 78.3553 13.2745C81.4487 14.7149 81.8874 15.2798 85.3629 15.9669C86.8886 17.349 88.1578 18.9091 89.8767 20.1738C90.7426 20.9235 92.6637 21.5027 93.3952 22.3148C95.3476 24.4822 96.6238 26.1987 98.9891 28.0002C99.4512 29.3006 100.041 33.6148 100.171 35.092C96.3098 36.395 93.9634 34.7972 90.6811 34.4777C87.0403 34.4146 83.0265 35.9042 80.3995 38.3768C78.9528 39.7385 77.2284 41.5842 79.1888 43.2024C82.8261 46.2048 90.1711 45.5629 94.6265 45.5396C94.6649 46.3449 94.7896 48.5026 94.6782 49.2087C94.064 53.1046 92.9285 57.401 92.0218 61.269C91.4715 63.2761 90.9776 65.683 90.5018 67.7364C82.3189 64.6264 70.9947 62.8036 62.2944 63.9501C59.9925 64.2534 58.1826 64.6955 55.9385 65.2895C56.0637 62.3756 56.0208 57.2356 55.7158 54.3359C54.7039 44.7162 50.8402 36.0834 53.6602 26.3227C56.3209 17.1136 63.0193 11.8819 70.9259 7.37256Z" fill="#F7F9FF"/>
<path d="M123.843 44.6912C129.784 46.1638 136.556 50.8248 141.448 54.3879C143.323 55.7534 145.061 57.2043 147.045 58.5697C150.927 61.2412 155.545 63.7373 158.981 66.9208C159.959 67.8274 161.358 70.6245 162.163 71.8859C163.646 74.2078 164.995 76.2862 166.732 78.4404C161.601 79.2246 159.334 79.6695 154.615 81.7904C153.283 81.3312 152.217 80.9397 150.833 80.6487C149.367 82.1043 147.965 83.5001 146.43 84.8874C145.922 84.7465 145.406 84.6284 144.887 84.5335C143.482 84.2834 142.407 84.6292 141.277 85.4037C137.52 85.184 137.767 85.4535 134.192 86.6893C133.863 86.8032 131.289 87.0553 130.733 87.1155C126.874 87.7419 123.459 89.1943 119.885 90.6961C116.494 89.6233 113.897 89.269 110.658 90.8381C105.717 89.9011 100.249 90.3744 95.6562 92.4441C96.1783 90.3715 96.6922 87.3624 97.1646 85.1565C100.905 86.402 105.533 87.6096 109.433 86.3495C112.622 85.3623 114.685 81.1697 114.947 78.0692C115.452 71.7579 115.53 65.7994 117.69 59.7446C119.719 54.0577 114.983 53.6143 117.973 47.505C120.865 46.6944 121.413 46.4546 123.843 44.6912Z" fill="#F7F9FF"/>
<path d="M96.9135 45.6702C98.6792 45.8642 99.593 46.0028 101.293 46.5154L100.24 49.6415C101.379 48.8313 101.83 48.3553 102.612 47.2009C105.237 47.5415 107.418 47.0802 110.068 47.0343C110.042 51.8209 109.023 57.3031 110.501 61.8619C111.165 63.9093 112.347 64.9562 114.227 65.8526C113.887 67.5619 113.646 69.2893 113.504 71.0261C113.231 74.732 113.223 78.5226 112.345 82.1479C111.886 84.0457 110.516 84.9281 108.62 84.9406C104.936 84.9651 101.332 83.8568 97.8573 82.7624C98.0535 82.447 98.2444 82.1285 98.43 81.8071C98.7087 81.3182 98.8666 80.9966 98.717 80.4442C98.3899 80.4413 98.5171 80.3933 98.2156 80.6223C95.6368 82.5817 94.4446 89.1752 94.0449 92.2897C91.838 91.5055 88.4548 89.7377 85.9044 88.7553C77.0175 85.3324 66.7167 83.1799 57.1667 83.948C54.9415 84.0345 52.4662 84.3432 50.2578 84.6231C54.3534 78.5759 55.4235 73.7665 55.8625 66.5185C66.6786 62.9313 81.0278 65.1691 91.4079 69.2576C92.7421 64.4459 94.028 58.1387 95.1735 53.1868C95.9139 57.5578 96.8532 61.9586 100.637 64.7033C103.913 63.1772 105.117 61.2691 103.777 57.7692C103.091 58.3673 102.325 59.1318 101.656 59.7662C102.143 60.3905 102.7 61.0932 102.405 61.9065L102.154 61.9742C100.898 61.5702 100.278 60.2368 99.642 59.1881C96.9715 54.7857 96.7843 50.6274 96.9135 45.6702Z" fill="#F7F9FF"/>
<path d="M100.375 65.4851C100.942 66.4151 99.3535 70.7729 100.763 72.7832C102.427 75.1568 104.087 76.3474 106.176 78.245L104.159 80.1044C103.894 80.0451 103.753 79.9467 103.553 79.7633C98.7038 75.3213 95.5616 71.3551 100.375 65.4851Z" fill="#6572A4"/>
<path d="M111.545 47.0311C113.17 47.0209 115.145 47.2685 116.793 47.4335C114.728 50.5224 114.656 51.9401 115.64 55.5302C116.406 58.3252 115.829 59.9137 115.019 62.6037L114.436 64.6242C109.549 60.9556 110.831 52.387 111.545 47.0311Z" fill="#F7F9FF"/>
<path d="M73.4954 2.02061C75.5196 1.75709 75.3395 3.4092 75.2745 4.8275C72.4534 5.16541 69.9165 7.0966 67.5726 8.67199C67.0678 8.94496 67.1905 8.98718 66.7861 8.87377C65.5352 6.68052 68.4814 4.74466 70.0064 3.70096C70.382 3.44371 70.9096 3.62787 71.2874 3.77506C72.3144 2.91348 72.273 2.57893 73.4954 2.02061Z" fill="#F7F9FF"/>
<path d="M61.7604 9.17035C62.8027 9.13294 64.7392 9.41159 63.9472 11.1608C63.6236 11.875 62.0373 12.6819 61.4166 13.1875C60.89 13.6163 60.3925 13.6259 59.8074 13.9202L59.7141 13.9683C59.156 14.3752 58.7047 14.7422 58.0216 14.7236C56.7388 13.8572 58.518 11.3549 59.3091 10.5961C60.1126 9.82549 60.7047 9.47332 61.7604 9.17035Z" fill="#F7F9FF"/>
<path d="M81.5653 38.4001C81.7683 38.4397 81.9701 38.4855 82.1704 38.5371C84.4302 39.1237 85.6977 40.1093 85.0549 42.685C84.9836 42.9705 84.9424 42.9075 84.6886 43.0225C82.1101 42.4688 78.935 41.4161 81.5653 38.4001Z" fill="#F7F9FF"/>
<path d="M133.151 155.243C132.14 156.383 131.698 158.068 131.071 159.464C128.558 165.064 125.62 170.919 121.205 175.288C120.761 175.726 119.944 176.704 119.328 176.369C119.353 176.251 119.376 176.133 119.401 176.017C120.628 174.82 121.856 173.497 122.853 172.14C125.366 168.72 127.503 164.61 129.183 160.738C129.887 159.114 131.466 155.185 131.673 153.499C132.24 148.826 132.172 144.014 133.854 139.54C134.127 138.812 135.155 136.642 136.128 137.081C136.163 137.638 135.221 139.558 135.06 140.484C134.493 143.757 134.413 147.082 133.997 150.375C133.884 151.264 132.976 154.095 133.141 154.708C133.063 155.099 133.021 154.936 133.151 155.243Z" fill="#6572A4"/>
<path d="M177.604 111.767L177.777 112.005C177.992 114.91 177.863 124.845 176.156 127.706C175.981 127.998 175.326 127.981 174.922 128.023C175.052 127.184 175.889 125.766 176.022 124.743C176.512 120.95 176.206 116.745 175.919 112.959C176.472 112.541 177.034 112.159 177.604 111.767Z" fill="#6572A4"/>
<path d="M136.169 152.368L136.434 152.589C135.324 153.461 134.214 154.319 133.146 155.243C133.016 154.936 133.058 155.099 133.136 154.707C133.902 154.204 135.389 152.976 136.169 152.368Z" fill="#6572A4"/>
</svg>
