<svg width="250" height="213" viewBox="0 0 250 213" fill="none" xmlns="http://www.w3.org/2000/svg">
<path d="M131.1 11.7515C132.028 20.0982 132.494 29.3787 132.998 37.8159L135.022 72.2445L136.712 101.525C136.827 103.631 136.974 105.736 137.156 107.838C137.294 109.36 137.553 111.411 137.591 112.889C140.362 110.759 145.315 106.28 149.118 106.541C150.991 106.669 152.092 108.399 151.591 110.164C149.823 116.385 142.928 120.997 138.64 125.425C138.795 127.936 138.945 130.545 139.182 133.047C141.089 134.586 143.2 135.854 145.457 136.812C146.569 134.784 153.419 122.649 151.854 121.266C150.485 121.512 147.655 131.821 145.883 132.761C145.708 132.73 145.627 132.759 145.563 132.625C145.064 131.273 145.316 128.612 145.628 127.278C146.375 124.086 148.136 120.613 150.852 118.704C151.945 117.937 153.671 117.845 154.276 119.231C155.243 121.442 154.473 124.418 153.781 126.644C152.998 128.993 151.606 131.579 149.933 133.406C148.518 134.952 147.814 135.571 146.65 137.336C149.032 138.156 150.996 138.72 153.452 139.177C163.202 140.988 173.03 139.071 182.792 139.414C184.366 139.47 187.16 141.976 186.307 143.725C185.424 145.836 182.713 147.54 180.718 148.465C180.245 148.681 179.769 148.889 179.289 149.088C182.135 149.83 182.704 150.806 182.672 153.715C183.896 153.253 185.05 152.85 186.439 153.227C188.779 153.861 190.7 158.462 189.552 160.471C188.813 161.767 185.154 163.977 183.725 164.835C183.13 167.379 182.249 168.113 180.118 169.527C177.675 171.148 175.352 170.775 172.732 171.151C171.84 171.277 169.443 172.611 168.361 173.024C168.59 174.488 168.599 176.538 167.626 177.744C165.896 179.888 161.473 181.357 158.894 181.724C154.825 182.302 149.211 180.116 145.383 180.52C139.738 181.225 134.59 183.704 128.902 184.252C125.451 184.584 122.927 182.987 119.734 182.72C114.442 182.276 108.937 181.957 103.62 181.771C102.372 181.728 101.02 181.739 99.7864 181.939C97.4928 182.552 94.1645 183.959 92.2878 185.469C89.3496 187.832 87.9271 188.367 84.3992 189.496C82.9684 189.94 81.5786 190.506 80.2451 191.189C78.2332 192.231 76.2691 193.471 74.3148 194.623C69.5249 197.449 64.826 200.54 60 203.291C60.7721 202.403 61.6764 201.465 62.6205 200.763C66.1937 198.105 70.1858 195.734 74.0198 193.464C76.1726 192.19 78.5039 190.767 80.7339 189.691C84.1642 188.036 87.9189 186.851 91.2883 185.108C93.7678 183.824 97.0374 179.749 99.8328 179.678C102.476 179.61 105.594 179.86 108.244 179.978C113.224 180.199 118.172 180.449 123.159 180.329C125.278 180.279 127.021 179.541 129.071 179.136C132.358 178.485 135.674 178 139.018 177.767C140.798 177.644 142.334 177.765 144.058 177.855C145.104 177.91 148.258 178.34 149.041 178.123C150.517 177.714 152.83 176.739 154.293 176.133C158.867 174.25 163.368 172.195 167.787 169.974C170.059 168.848 172.405 167.673 174.604 166.433C176.153 165.559 181.148 163.096 178.397 161.046C176.366 159.53 173.436 159.733 171.035 159.963C167.347 160.394 163.98 161.773 161.652 164.774C161.427 165.062 161.213 165.358 161.008 165.66C158.047 163.022 155.439 165.05 152.274 166.137C149.106 167.224 147.044 168.615 144.5 170.718C144.873 169.599 145.073 169.109 145.734 168.138C140.35 166.596 134.232 165.944 128.87 167.888C132.598 163.197 137.655 164.593 142.797 164.71C145.215 161.65 148.395 160.824 152.14 160.701C154.723 158.814 156.568 156.141 158.77 153.806C160.237 152.249 165.284 147.93 165.446 146.049C165.475 145.689 165.354 145.333 165.112 145.064C164.505 144.392 162.881 144.13 162.003 144.124C159.875 144.11 158.417 144.987 156.937 146.451C156.534 146.849 156.026 147.424 155.699 147.886C156.274 148.436 156.523 148.692 157.006 149.318C156.415 149.926 155.548 150.769 155.039 151.413C154.591 150.726 154.344 150.264 153.973 149.529C152.996 150.014 149.315 152.006 149.33 152.793C149.372 155.031 149.948 153.732 148.205 155.994C148.159 155.537 148.164 155.151 147.941 154.758C146.788 154.034 143.019 156.17 142.298 157.294C141.994 157.767 142.013 158.107 142.152 158.638C142.216 159.013 142.523 159.574 142.3 159.782C141.781 160.263 141.112 160.797 140.6 161.273C140.296 160.739 139.72 159.792 139.498 159.26C136.757 158.865 131.22 158.436 128.969 160.199C128.218 160.787 127.62 161.671 126.978 162.353C127.236 161.708 128.289 159.828 128.178 159.431C127.312 158.45 121.455 157.38 119.842 157.322C118.357 157.269 117.391 157.251 115.931 157.605C119.538 160.713 119.802 160.54 124.705 160.86L122.211 163.684L119.5 163.364C119.418 164.793 118.482 167.359 117.006 167.774C116.584 167.709 116.762 167.793 116.447 167.524C115.928 166.333 116.697 163.961 117.593 162.992C115.262 161.94 111.438 157.934 109.482 156.061C106.286 159.666 103.199 161.458 98.2897 161.346C99.1301 160.446 100.002 159.401 100.83 158.547C105.686 158.331 109.631 157.993 109.361 151.819C109.333 151.167 109.262 149.937 108.844 149.419C107.97 149.39 105.04 152.836 104.288 153.145C104.877 153.624 102.903 153.412 103.54 153.836C101.04 154.836 100.83 155.049 99.0396 154.836C97.7828 153.095 95.8889 151.713 95.5396 148.836C94.2748 148.532 93.8395 148.491 92.7016 147.804C91.837 147.282 91.3516 145.768 90.5953 145.963C88.2566 146.567 85.9949 150.461 84.6714 152.247C83.4505 153.893 83.6377 157.242 83.3773 159.421C82.3177 160.682 79.209 163.511 77.7404 164.185C72.3114 166.677 66.5062 167.913 61.0952 170.56L60.903 170.532C60.5371 166.086 76.8956 164.809 80.5618 161.069C80.6594 159.357 80.7881 157.555 80.8558 155.846C78.8487 154.529 75.3958 151.651 74.2493 149.593C72.1816 145.881 72.8705 144.916 69.2065 142.122C70.0374 141.315 71.1761 140.102 72.0008 139.384C73.0804 140.44 73.8997 141.376 74.6369 142.723C75.8164 144.877 76.4415 146.974 78.1054 148.867C79.7 150.682 81.3574 151.697 83.38 152.927C84.6964 150.3 86.4598 147.922 88.5913 145.898C89.2799 145.255 90.0923 144.665 90.771 144.047C91.7109 143.191 91.9523 142.548 93.2437 142.119C95.521 141.362 97.6634 141.834 99.9386 141.778C100.973 141.753 102.491 141.157 103.726 141.245C104.773 141.319 105.12 141.451 106.128 141.798C106.097 141.174 106.076 140.589 105.993 139.969C104.618 139.177 103.496 138.414 102.215 137.495C100.89 136.543 93.8315 130.401 92.5035 132.641C92.4438 134.559 98.7301 137.044 100.396 137.536C96.7901 137.442 89.9168 136.451 89.7086 131.364C89.6542 130.033 90.3865 128.685 91.8923 128.954C95.9996 129.491 99.3737 131.852 102.804 133.924C99.1246 129.923 94.6046 125.589 90.7077 121.752C91.6413 120.957 92.5393 120.198 93.4314 119.358C96.9939 122.811 100.607 126.279 103.862 130.031C105.705 132.154 106.993 134.057 108.001 136.697C108.275 136.289 108.6 135.755 108.949 135.435C109.446 134.587 110.377 133.957 111.059 133.281C111.831 132.516 111.887 132.556 111.908 131.553L112.001 132.291L112.123 132.354L112.249 132.208L112.821 131.823C114.29 130.677 115.408 130.052 117.038 129.144C116.849 118.697 116.897 108.254 116.64 97.8119C116.587 95.6621 116.448 93.3527 116.277 91.2048C116.115 89.1851 115.74 87.3224 115.778 85.2638C115.85 81.2722 116.781 77.2456 116.841 73.2589C116.876 70.9211 116.709 68.5511 116.742 66.1832C116.833 60.7539 117.157 55.3312 117.713 49.9298C117.735 49.6488 117.732 49.1634 117.881 48.9559C118.035 49.6517 117.998 50.9809 117.99 51.7437C118.181 54.1102 118.092 56.6296 118.327 58.9347C119.193 67.4348 118.745 75.921 118.839 84.4473C118.877 87.9387 119.253 91.417 119.103 94.9177C118.777 102.751 118.108 110.589 118.14 118.433C118.188 121.893 118.404 124.963 118.296 128.44C120.477 127.045 122.575 125.52 124.576 123.876C124.605 121.881 124.376 119.143 124.306 117.071L124.029 105.678C123.896 101.364 124.107 97.0341 123.852 92.7284C123.548 87.5992 123.147 82.4639 122.609 77.3543C122.362 75.0061 121.703 72.7384 121.846 70.3518C121.891 67.784 122.167 65.1756 122.077 62.608C122.028 61.2208 121.576 59.7704 121.56 58.3452C121.494 52.7597 121.45 47.1034 121.715 41.5249C121.783 41.2826 121.896 41.1197 122.022 40.9031C122.552 44.4405 123.064 47.9807 123.557 51.5234C123.898 53.9827 124.256 56.5303 124.46 59.0029C124.564 60.6169 124.516 62.2372 124.579 63.8535C124.88 71.5595 124.994 79.2835 125.139 86.9944C125.226 89.023 125.459 91.0459 125.689 93.0607C125.864 94.6033 126.283 96.2993 126.261 97.8422C126.216 100.827 125.513 103.829 125.433 106.818C125.359 109.57 125.407 112.334 125.383 115.089C125.341 117.885 125.236 120.68 125.069 123.47C126.717 122.123 128.337 120.743 129.928 119.331C130.056 117.754 130.435 114.595 131.083 113.188C132.605 109.884 133.718 114.841 134.022 115.93C134.738 115.219 135.655 114.509 136.443 113.864C136.369 112.456 136.094 110.471 135.936 109.02L134.877 99.3805C133.801 89.5233 132.784 79.66 131.825 69.7908C131.043 61.3493 131.046 53.002 130.814 44.5333L130.521 30.6624C130.393 24.2075 130.287 18.407 130.582 11.9431L131.1 11.7515Z" fill="#6572A4"/>
<path d="M131.023 129.002C131.021 127.469 130.888 120.817 131.86 120.102L132.033 120.208C133.241 122.605 133.063 133.059 133.289 136.218C133.412 137.936 133.291 140.541 133.705 142.4C133.783 142.751 133.869 143.19 134.169 143.384L134.352 143.277C135.357 141.597 135.458 136.749 135.528 134.694C136.24 135.569 136.89 136.318 137.747 137.066C138.29 137.541 139 137.963 139.166 138.647L139.312 138.418L139.483 138.757C139.656 139.698 139.714 140.546 139.792 141.496C139.736 141.658 139.649 141.941 139.575 142.085C139.578 142.254 139.637 142.448 139.488 142.545C137.909 143.589 135.998 144.176 134.263 144.925C131.92 145.937 130.032 146.313 128.648 148.605C131.986 147.591 136.709 145.491 139.604 143.574L139.934 143.376C140.018 144.231 140.105 145.085 140.197 145.94C140.065 146.095 140.054 146.087 139.963 146.264C139.703 147.431 139.159 148.159 138.356 149.005C137.44 149.318 135.389 149.628 134.379 149.789C130.892 150.347 127.451 150.917 123.91 150.779C119.585 146.272 117.108 145.906 110.942 147.179C110.219 145.671 109.489 144.769 108.406 143.491C108.409 142.809 108.335 141.644 108.431 141.027C108.55 140.984 108.659 140.948 108.779 140.91C108.762 140.341 108.287 139.162 108.195 137.881C109.387 136.019 110.062 135.165 111.635 133.608L111.667 133.283C111.021 133.024 109.808 135.183 108.947 135.435C109.445 134.587 110.376 133.957 111.058 133.281C111.83 132.516 111.885 132.556 111.907 131.553L112 132.291L112.121 132.354L112.247 132.208L112.82 131.822C112.77 132.151 112.755 132.019 112.976 132.356C113.055 132.396 113.225 132.489 113.301 132.512C114.491 131.874 115.928 131.206 117.049 130.545L117.174 136.755C117.213 137.131 117.258 137.516 117.287 137.891C117.629 138.356 117.142 138.216 117.569 138.89C117.905 137.562 118.206 131.374 118.239 129.821C119.237 129.118 120.229 128.408 121.214 127.688L120.693 128.998C121.702 129.018 123.671 129.219 124.556 129.622L124.865 129.686C126.236 129.995 128.398 130.791 129.687 131.39C129.664 134.07 130.258 141.988 131.032 144.377C131.253 144.059 131.132 142.145 131.228 141.432C131.295 140.751 131.166 138.99 131.164 138.246C131.16 135.653 130.949 132.875 131.049 130.3C131.316 130.039 131.585 129.827 131.735 129.494C131.554 129.166 131.417 129.187 131.023 129.002Z" fill="#F7F9FF"/>
<path d="M108.945 135.435C109.443 134.587 110.374 133.957 111.056 133.281C111.828 132.516 111.883 132.556 111.905 131.553L111.997 132.291L112.119 132.354L112.245 132.208L112.817 131.823C112.768 132.151 112.753 132.019 112.974 132.356C113.053 132.396 113.223 132.489 113.299 132.512C112.943 132.746 112.586 132.976 112.226 133.203L111.778 140.243C111.734 140.95 111.728 142.294 111.655 142.904C111.625 142.731 111.603 142.801 111.681 142.686L111.644 142.891C111.382 140.023 111.768 137.116 111.845 134.248C111.853 133.942 111.873 133.793 111.696 133.619L111.633 133.608L111.665 133.283C111.019 133.024 109.806 135.183 108.945 135.435Z" fill="#6572A4"/>
<path d="M124.556 129.622L124.865 129.686C124.879 130.709 124.823 133.736 124.627 134.655C124.556 132.978 124.532 131.3 124.556 129.622Z" fill="#6572A4"/>
<path d="M139.164 138.647L139.31 138.418L139.48 138.758C139.654 139.698 139.712 140.546 139.79 141.496C139.733 141.658 139.647 141.941 139.573 142.085C139.383 140.971 139.383 139.87 139.164 138.647Z" fill="#6572A4"/>
<path d="M117.286 137.891C117.629 138.356 117.141 138.216 117.568 138.89C117.591 139.779 117.455 141.054 117.349 141.962C117.19 140.985 117.265 138.901 117.286 137.891Z" fill="#6572A4"/>
<path d="M117.175 136.756C117.214 137.131 117.259 137.516 117.288 137.891C117.267 138.901 117.191 140.985 117.351 141.962C117.413 142.385 117.395 142.836 117.269 143.245C117.087 142.842 117.161 137.59 117.175 136.756Z" fill="#F7F9FF"/>
<path d="M131.227 141.433C131.343 142.712 131.404 144.874 131.449 146.229C131.303 145.673 131.081 144.929 131.031 144.377C131.252 144.059 131.132 142.145 131.227 141.433Z" fill="#6572A4"/>
<path d="M139.602 143.574L139.932 143.376C140.015 144.231 140.102 145.085 140.194 145.94C140.062 146.095 140.051 146.087 139.96 146.265C139.909 145.367 139.835 144.441 139.602 143.574Z" fill="#6572A4"/>
<path d="M139.484 138.758L139.608 138.585C140.042 138.636 142.476 139.801 143.116 140.067C142.895 140.247 141.342 141.454 141.293 141.518C140.818 141.759 140.31 142.382 139.879 142.079L139.794 141.496C139.715 140.546 139.658 139.698 139.484 138.758Z" fill="#F7F9FF"/>
<path d="M140.809 142.615C141.41 142.254 141.99 141.783 142.548 141.351C141.803 142.9 141.019 144.43 140.2 145.94C140.108 145.085 140.021 144.231 139.938 143.376C140.113 143.177 140.535 142.899 140.809 142.615Z" fill="#F7F9FF"/>
<path d="M117.711 49.9299C117.733 49.6489 117.73 49.1635 117.879 48.9561C118.033 49.6518 117.996 50.981 117.988 51.7438C117.841 51.1691 117.954 50.5339 117.823 49.8668L117.711 49.9299Z" fill="#6572A4"/>
<path d="M144.657 140.514C147.629 141.415 149.804 141.742 152.829 142.236C152.895 143.356 153.138 145.619 154.403 146.046C155.669 145.824 155.57 143.523 155.557 142.536C157.431 142.533 159.303 142.562 161.176 142.623C158.371 143.904 156.781 146.015 154.617 148.01C153.753 148.806 151.65 149.425 150.697 150.291C149.785 150.941 148.918 151.993 148.14 152.522C147.623 152.873 145.993 153.306 145.189 153.697C144.08 154.243 143.032 154.903 142.062 155.669C141.324 156.248 140.951 156.892 139.977 156.751L139.812 156.639C139.834 155.582 142.227 154.349 143.074 153.837C144.42 153.024 145.709 152.11 146.533 150.736C144.067 151.708 140.19 154.217 138.904 156.533C137.372 156.475 136.199 156.458 134.673 156.543C133.817 156.592 131.789 156.809 131.03 156.738C130.987 156.613 130.82 156.367 130.742 156.243C131.65 155.395 132.55 154.449 133.474 153.583C134.295 152.815 135.548 151.733 136.264 150.924C136.701 150.906 136.61 150.947 137.061 151.21C137.474 150.827 137.936 150.335 138.338 149.929C137.887 151.557 137.303 152.357 136.899 154.326C138.124 152.803 139.074 150.84 140.018 149.105C140.256 148.842 140.248 148.844 140.399 148.519C141.339 145.99 143.575 144.528 144.655 142.068C144.062 142.64 143.487 143.231 142.932 143.84C143.48 142.566 144.1 141.67 144.657 140.514Z" fill="#F7F9FF"/>
<path d="M136.264 150.924C136.701 150.906 136.61 150.947 137.061 151.21C135.785 152.399 134.476 153.522 133.179 154.681C132.7 155.108 131.395 156.238 131.03 156.738C130.987 156.613 130.82 156.368 130.742 156.243C131.65 155.395 132.55 154.449 133.474 153.583C134.295 152.815 135.548 151.733 136.264 150.924Z" fill="#6572A4"/>
<path d="M140.397 148.519C140.502 149.643 140.726 152.231 140.588 153.301C140.524 152.328 140.415 149.949 140.016 149.105C140.254 148.842 140.246 148.844 140.397 148.519Z" fill="#F7F9FF"/>
<path d="M174.587 151.511C175.685 151.425 177.825 151.509 178.708 152.197C179.794 153.046 179.867 153.962 180.078 155.169C178.99 155.992 178.457 156.513 177.554 157.483C172.541 156.666 169.097 157.531 164.836 160.22C163.035 161.357 162.755 161.9 160.645 162.103C158.694 162.322 157.383 162.63 155.453 163.094C156.561 159.188 161.338 158.671 164.497 157.278C165.297 156.83 166.063 156.129 166.797 155.609C169.159 153.936 171.602 151.764 174.587 151.511Z" fill="#F7F9FF"/>
<path d="M176.412 142.048C178.419 141.973 181.415 141.685 183.128 142.893C184.889 144.264 182.93 146.126 181.501 146.671C180.741 146.961 180.091 147.154 179.317 147.337C174.999 148.36 170.515 148.815 166.108 149.27L164.117 149.334C164.475 149.045 165.028 148.545 165.326 148.19C167.188 145.967 169.491 145.729 167.47 142.63C168.665 142.759 171.198 142.732 172.53 142.757C172.255 143.841 171.4 145.519 171.434 146.437L171.603 146.561C172.33 146.448 173.038 145.443 173.374 144.814C173.815 143.988 173.793 143.223 173.797 142.316C174.68 142.188 175.525 142.122 176.412 142.048Z" fill="#F7F9FF"/>
<path d="M145.976 109.376C149.318 108.96 149.221 112.232 148.038 114.28C145.698 118.328 141.918 121.75 138.532 124.943C138.462 123.695 138.406 122.42 138.267 121.18C138.253 120.948 138.229 120.705 138.212 120.472L138.331 120.415L140.685 121.627C141.222 121.177 141.9 120.475 142.414 119.971C141.176 119.335 140.118 118.375 139.054 117.478L138.111 118.366C137.879 116.945 137.82 115.486 137.742 114.047C139.894 112.332 143.28 109.901 145.976 109.376Z" fill="#F7F9FF"/>
<path d="M111.416 148.373C114.829 148.228 116.809 148.855 119.672 150.74C117.85 150.735 115.691 150.559 113.822 150.499C113.365 151.171 112.895 151.836 112.412 152.491C115.283 152.563 118.154 152.606 121.026 152.618C122.403 152.634 123.951 152.734 125.301 152.667C128.976 152.486 132.671 151.726 136.262 150.924C135.546 151.733 134.293 152.815 133.472 153.583C132.548 154.449 131.648 155.395 130.74 156.243C130.548 156.436 130.319 156.709 130.133 156.918C123.862 154.664 119.523 154.265 112.866 154.475C112.361 154.025 111.759 153.385 111.273 152.895C111.812 151.156 111.672 150.114 111.416 148.373Z" fill="#F7F9FF"/>
<path d="M180.171 157.639C181.575 157.484 183.259 157.506 184.579 158.071C185.539 158.481 186.557 159.309 186.924 160.313C187.08 160.739 187.083 161.193 186.871 161.602C186.137 163.009 174.432 169.321 172.299 170.348C170.834 171.054 169.332 171.616 167.798 172.151C166.514 172.577 165.161 172.922 163.852 173.274C164.705 172.705 165.69 172.26 166.594 171.768C169.413 170.233 179.753 164.921 181.175 163.126C181.645 162.533 181.92 161.82 181.814 161.056C181.603 159.541 180.506 158.72 179.36 157.869C179.56 157.704 179.88 157.693 180.171 157.639Z" fill="#F7F9FF"/>
<path d="M98.7393 143.704C99.7025 143.691 101.645 143.733 102.539 143.901C104.571 144.279 108.144 147.638 109.039 149.836C107.497 150.65 106.156 152.587 104.539 153.336C104.407 153.398 102.949 151.316 102.805 151.199C101.654 149.53 100.499 147.29 99.5101 145.487C98.7839 146.28 95.6829 148.302 95.5392 149.336C94.262 149.108 91.2718 146.74 90.0391 146.336C95.0391 142.336 97.5391 143.336 98.7393 143.704Z" fill="#F7F9FF"/>
<path d="M164.654 174.569C165.183 174.819 166.051 176.117 166.01 176.662C165.887 178.258 163.017 178.509 161.822 178.645C159.557 178.904 157.247 178.872 154.973 178.838L153.148 178.764C155.882 177.271 156.665 177.352 159.485 176.456C161.229 175.883 162.953 175.254 164.654 174.569Z" fill="#F7F9FF"/>
<path d="M136.524 115.077C136.628 115.221 137.575 124.261 137.76 125.542C136.988 126.246 136.267 127.004 135.604 127.81L135.534 127.855L135.392 127.813C135.247 126.995 135.163 124.825 135.075 123.86C134.874 121.535 134.578 119.219 134.188 116.918C134.863 116.477 135.787 115.617 136.524 115.077Z" fill="#F7F9FF"/>
<path d="M129.654 120.879C129.847 121.184 129.633 127.571 129.619 128.489C128.594 128.048 127.078 127.726 125.98 127.473C125.654 127.432 125.295 127.358 124.969 127.299C124.973 126.456 125.029 125.494 125.08 124.654C126.206 123.582 128.405 121.87 129.654 120.879Z" fill="#F7F9FF"/>
<path d="M159.498 153.974C162.325 155.314 162.564 155.016 165.295 155.41L165.353 155.502C164.667 156.144 162.939 156.228 161.998 156.643C161.067 157.054 160.556 157.404 159.722 157.964C159.204 158.348 158.608 158.863 158.102 159.278L154.992 159.245C156.049 157.057 157.769 155.627 159.498 153.974Z" fill="#F7F9FF"/>
<path d="M149.223 162.742C150.732 162.638 152.311 162.823 153.589 163.672C151.972 164.39 149.987 165.123 148.314 165.813C147.905 165.883 144.626 165.031 143.914 164.872C145.83 163.471 146.864 162.983 149.223 162.742Z" fill="#F7F9FF"/>
<path d="M170.635 151.192C170.879 151.122 170.863 151.127 171.117 151.17C170.888 151.562 168.38 153.075 167.81 153.435C166.463 153.507 165.722 153.43 164.469 152.968C163.937 152.719 163.366 152.351 162.859 152.042C163.657 151.888 165.073 151.807 165.928 151.731C167.502 151.599 169.071 151.419 170.635 151.192Z" fill="#F7F9FF"/>
<path d="M129.907 180.618C131.507 180.517 133.231 180.573 134.833 180.647C133.868 181.404 133.305 181.625 132.126 181.907C130.395 182.24 128.797 182.301 127.086 181.858C128.046 181.063 128.69 180.846 129.907 180.618Z" fill="#F7F9FF"/>
<path d="M137.714 126.589C137.937 126.831 138.479 131.714 138.411 132.258L138.282 132.278L137.878 131.886C136.322 129.937 135.96 128.654 137.714 126.589Z" fill="#F7F9FF"/>
<path d="M180.821 166.651L181.025 166.787C180.974 168.926 178.294 169.208 176.691 169.193L176.562 169.118C176.789 168.845 180.274 166.957 180.821 166.651Z" fill="#F7F9FF"/>
<path d="M98.7457 149.169C98.726 149.154 100.482 152.374 100.602 152.631C100.458 152.88 100.176 152.987 99.9113 153.127L99.6235 153.175C99.005 152.725 98.2128 150.478 98.1172 149.698C98.2322 149.362 98.3626 149.384 98.7457 149.169Z" fill="#F7F9FF"/>
<path d="M124.46 125.138L124.579 125.201C124.675 125.678 124.603 126.75 124.585 127.282L122.69 127.01C122.573 127 122.497 126.965 122.383 126.929C122.504 126.475 124.005 125.475 124.46 125.138Z" fill="#F7F9FF"/>
<path d="M114.159 10.7468C114.876 17.2031 115.045 24.0917 115.565 30.6143C116.095 37.2534 115.816 44.7728 115.776 51.4711C115.74 66.9699 115.248 82.4642 114.299 97.9338C113.852 106.477 113.35 115.017 112.791 123.553C112.603 126.373 112.502 129.423 112.246 132.208L112.12 132.354L111.999 132.291L111.906 131.553C112.399 122.471 112.596 113.019 112.911 103.91C113.448 91.4015 113.721 78.883 113.731 66.3628C113.705 63.3107 113.325 59.5903 113.228 56.3744C113.039 47.3218 113.027 38.2663 113.193 29.2132C113.296 23.8095 113.451 16.017 114.159 10.7468Z" fill="#6572A4"/>
<path d="M130.482 75.5123C129.885 68.1415 128.685 60.5024 127.599 53.1743C127.11 49.8798 126.624 46.2899 125.979 43.0494C125.411 40.183 124.228 37.337 123.569 34.5181C121.716 26.5953 119.178 18.1418 118.594 10C119.432 12.8409 120.665 15.9644 121.787 18.7127C122.331 20.0437 123.244 21.2797 123.65 22.6356C125.088 27.4269 126.179 32.4682 127.15 37.3704C129.049 46.9612 130.791 55.9077 130.812 65.7152C130.696 68.7977 130.887 71.9392 130.751 75.0247C130.743 75.2003 130.596 75.3884 130.482 75.5123Z" fill="#6572A4"/>
<path d="M182.012 123.618C184.789 123.509 183.573 125.755 182.511 126.982C179.35 130.633 174.642 134.845 170.039 136.369C170.771 135.887 171.78 134.979 172.479 134.385C173.836 133.232 175.187 132.071 176.532 130.903C177.882 129.72 180.061 127.927 181.015 126.445C178.655 127.51 174.823 130.665 172.736 132.334C174.286 128.868 178.232 124.453 182.012 123.618Z" fill="#6572A4"/>
<path d="M63.0781 98.3198C64.7681 98.5652 67.1328 99.5894 68.4633 100.633C68.9052 100.889 70.2887 102.189 70.6305 102.286C73.7134 103.169 74.5406 104.002 76.561 106.669C75.1946 106.651 72.1904 106.396 71.0963 105.703C68.4091 104 65.0853 100.791 63.0781 98.3198Z" fill="#6572A4"/>
<path d="M176.653 109.037L176.75 109.098C176.319 109.463 175.797 109.715 175.335 110.061C174.506 110.68 173.766 111.39 173.027 112.109C170.015 115.034 167.013 118.983 163.541 121.351C163.249 120.857 163.601 119.459 163.794 118.937C165.532 114.228 172.434 111.151 176.653 109.037Z" fill="#6572A4"/>
<path d="M65.6381 128.811C68.4237 128.518 72.0527 129.194 73.3242 132.047C71.0722 131.497 67.3608 130.121 65.2823 130.974C64.5897 132.502 67.8545 132.099 68.6861 132.088C67.5885 133.411 65.9125 133.345 64.3826 132.98C59.3779 131.787 62.9376 129.516 65.6381 128.811Z" fill="#6572A4"/>
<path d="M130.811 10.1743C130.92 10.6893 131.007 11.2311 131.097 11.7515L130.578 11.9432C130.617 11.3517 130.72 10.7609 130.811 10.1743Z" fill="#6572A4"/>
<path d="M121.711 41.5249C121.718 40.9607 121.688 40.1531 121.85 39.6367C121.996 39.9401 121.995 40.5418 122.018 40.9032C121.892 41.1197 121.779 41.2827 121.711 41.5249Z" fill="#6572A4"/>
</svg>
