<svg width="250" height="186" viewBox="0 0 250 186" fill="none" xmlns="http://www.w3.org/2000/svg">
<path d="M77.309 7C79.286 11.0286 83.0718 18.4477 86.2056 21.6372C90.5222 26.0304 93.5265 28.9589 97.311 34.0755C99.0762 36.4652 100.784 38.8965 102.433 41.3674C104.425 44.3669 105.529 47.121 108.76 48.9041C115.638 52.7002 121.147 58.0403 126.395 63.7763C126.442 61.2908 126.829 58.0649 127.07 55.5287L128.501 40.9172C129.523 30.5144 130.233 20.2541 131.089 9.86312C132.178 8.91482 133.277 7.97959 134.388 7.05761C133.704 11.8052 133.372 17.5824 132.897 22.4739C132.423 27.3625 131.91 33.3534 132.113 38.1716C132.202 40.2562 134.029 45.0919 134.789 47.2403C136.485 52.0416 138.494 56.9666 140.04 61.8309C141.277 65.1126 140.618 69.8924 141.596 73.078C142.926 77.4086 144.32 81.1945 145.371 85.6624C146.038 85.2729 146.573 84.8509 147.189 84.4191C148.235 83.6861 150.228 81.0441 151.535 81.2964C151.136 83.3581 146.759 84.9781 145.665 86.589C145.478 86.8625 145.595 87.0098 145.683 87.3915L145.918 87.5294C146.659 87.4107 150.127 86.1434 151.239 85.8101C150.413 86.9027 149.71 87.7799 148.811 88.8155C147.477 89.2145 146.458 89.2316 145.108 89.8933C144.665 90.297 144.213 90.879 143.821 91.3472C143.903 98.9294 140.635 96.4747 137.525 101.562C136.972 102.468 136.372 108.318 135.728 110.573C137.075 113.262 138.243 115.586 139.919 118.077C142.627 118.909 144.903 120.117 147.414 120.957C152.891 122.789 156.587 123.797 158.03 130.357L155.995 131.873C156.993 132.418 158.513 133.091 159.573 133.598C159.098 130.729 159.001 127.402 158.816 124.447C157.572 123.505 156.731 122.449 155.526 121.532C154.725 120.922 154.362 121.452 153.681 121.958C148.761 115.703 143.473 114.504 138.234 109.146C138.81 108.444 139.588 107.629 140.208 106.943C143.794 111.336 146.857 112.854 151.583 116.007C150.367 113.37 149.717 111.59 149.47 108.643L151.494 106.831C152.54 112.469 153.945 116.93 158.681 120.587C158.218 116.658 156.808 114.275 156.316 109.723C157.283 108.879 158.456 107.968 159.462 107.15C159.432 108.628 159.384 110.368 159.694 111.799C160.556 115.786 161.798 118.301 162.102 122.457L163.213 121.757L163.248 121.872L162.066 123.06C161.879 130.087 162.492 135.72 170.321 138.097C168.718 137.059 167.319 136.091 166.823 134.17C165.924 130.688 168.286 129.822 170.864 129.18L170.998 125.381C170.135 124.533 168.247 123.665 168.088 123.325C168.461 122.29 169.72 122.219 170.602 121.726C171.058 121.471 170.412 119.259 170.541 118.487C170.921 116.203 173.25 112.945 174.844 111.404C174.401 112.268 174.075 113.184 173.729 114.092L175.918 113.165C175.008 114.057 174.141 115.128 173.311 116.104C173.373 118.007 174.202 120.788 174.004 122.316C173.674 124.857 172.292 127.169 172.659 130.023C172.964 132.38 173.706 132.46 173.875 135.131C176.457 131.758 175.89 127.425 176.438 123.4C177.3 117.073 178.219 110.81 175.394 104.792C174.872 103.683 174.337 102.145 174.091 100.949C173.813 99.5694 174.099 96.1136 173.093 95.1625C172.445 95.3954 171.797 96.0819 171.262 96.5716C171.17 95.7107 170.997 94.8605 170.744 94.0324C169.963 91.4654 168.622 90.0687 166.297 88.86L168.937 86.779C169.528 87.2805 170.17 88.0827 170.687 88.6875C173.685 85.721 173.235 83.8003 173.975 80.0638C175.278 73.4947 175.383 69.6512 173.479 63.227C169.52 49.8803 176.143 35.8132 176.643 22.3832C176.804 18.0429 175.949 13.8652 174.65 9.63451C175.518 8.7845 176.37 7.91922 177.208 7.03921C178.003 8.99599 178.33 11.0154 178.774 13.0412C181.075 23.519 177.503 32.8218 175.859 43.0799C175.506 45.2673 174.652 49.016 174.617 51.1646C174.519 57.2011 177.296 64.131 177.444 70.1718C177.599 76.499 175.003 83.5116 175.499 89.8718C175.575 90.8425 176.01 92.8656 176.178 93.9932C176.448 95.8099 176.649 98.7325 177.127 100.37C178.357 104.598 179.88 106.199 179.793 111.038C179.74 114.065 179.103 116.484 178.856 119.387C178.595 122.411 178.533 125.243 178.016 128.343C177.145 133.575 176.069 135.32 176.715 140.757C180.741 142.385 190.254 146.147 194.291 145.774C197.421 145.484 203.804 143.421 207.153 142.453C209.081 141.896 213.977 140.859 215.519 139.917C217.377 138.797 220.863 134.023 223.175 134.423C236.563 136.744 227.801 152.226 220.441 156.026C218.248 157.234 214.22 157.151 212.952 159.762C210.934 163.915 212.128 167.2 207.181 169.685C201.818 172.428 196.635 175.489 191.339 178.34C187.7 180.3 182.074 179.792 178.02 179.79C174.554 179.789 171.021 179.691 167.552 179.638L125.755 178.957L111.764 178.655C107.789 178.574 104.05 178.528 100.106 178.018C80.7567 175.526 87.7141 158.584 88.8486 145.553C89.2429 141.023 88.8169 135.202 88.9374 130.49C82.5924 129.167 80.7914 124.536 78.9991 118.86C78.3769 116.889 78.5439 112.706 78.8559 110.608C78.5645 110.413 78.2769 110.213 77.9934 110.007C75.4949 108.179 75.0574 106.094 74.0117 103.353C73.5384 101.885 72.3275 100.51 71.9758 99.0154C70.1704 91.3476 71.122 83.1737 70.9417 75.3526C70.8768 72.5372 71.0561 70.1611 70.6186 67.3679C69.2825 66.168 68.1024 65.5284 66.9416 63.9425C64.6567 60.8064 64.0615 57.1904 61.272 54.2931C53.6831 46.4115 45.9952 38.597 38.0668 31.0539C35.0225 28.1574 31.5179 25.9023 28.6764 22.7623C24.9971 18.6967 22.0404 14.1848 19 9.64961L22.1021 7.21149C22.7112 7.80418 25.1518 11.3706 25.8679 12.2957C28.462 15.6461 31.6541 20.3121 34.6645 23.2315C37.8201 26.2921 41.8695 29.664 45.2438 32.5908C51.4607 37.983 56.9852 43.6466 62.5585 49.6908C63.8819 51.1259 65.1725 53.2261 65.9625 54.9876C66.7345 56.7093 67.1595 59.545 68.4528 60.9017C69.2142 61.7006 71.2185 62.9811 72.2563 63.7049C72.9431 66.1986 74.0811 68.675 74.4173 71.2841C74.6171 72.8341 73.4351 74.3887 73.3692 75.7082C73.0285 82.5201 73.45 90.2123 74.6382 96.9196C74.9233 98.5285 77.868 98.9231 78.5118 99.6828C81.1158 102.755 79.9701 103.493 83.8854 105.505C84.7918 105.26 86.4226 104.369 87.202 104.543L87.3393 104.917C86.6848 107.862 84.5142 107.635 82.0325 107.547C81.5238 112.645 78.5631 116.592 85.1431 119.41C84.4738 120.32 84.1232 120.544 84.2685 121.564C84.7602 122.283 86.3748 122.832 87.267 123.221C86.6821 123.491 86.4025 123.584 85.934 124.049C85.4651 125.707 87.286 126.929 88.6493 126.583C89.0438 125.84 88.9724 111.214 88.9905 109.019C89.9775 107.588 91.3427 105.887 92.4124 104.477C92.8163 107.801 94.4518 109.34 97.7011 109.87C96.7085 110.802 95.7023 111.812 94.7241 112.766L92.0045 111.497C92.5066 115.729 92.1655 120.977 91.6311 125.196C91.6128 126.268 90.9564 130.768 91.7136 131.44C92.972 132.556 96.0492 128.257 97.6419 130.42C97.3894 135.867 92.4876 133.231 91.2072 133.838C90.6206 135.122 90.8727 142.236 90.8885 144.148C91.8309 144.516 92.7469 144.81 93.3405 145.649C93.512 147.025 92.0147 147.214 90.9195 147.558C91.1017 148.305 91.2122 149.079 91.3358 149.84C93.237 150.051 97.7038 150.132 96.0632 153.128C94.7761 153.405 93.1944 151.212 91.9147 153.001C92.9526 155.795 96.7522 154.007 98.1655 152.124C98.3047 151.434 98.4159 150.529 98.3968 149.834C98.2986 144.753 99.9254 140.071 100.846 135.125C102.252 127.572 100.078 116.161 106.474 110.615L104.464 109.82C105.456 108.925 106.459 107.922 107.425 106.99C110.73 108.046 112.766 109.368 116.062 107.067C116.603 106.689 117.806 105.591 118.238 105.425L118.292 105.719C117.537 106.999 113.934 109.794 112.629 110.65C111.055 110.77 109.472 110.82 107.894 110.883C107.794 116.635 108.198 123.072 108.258 128.952C110.194 127.496 114.494 126.69 116.403 128.132C117.037 129.775 112.862 130.625 111.549 131.207C107.417 130.494 108.272 131.8 108.38 135.311C108.467 138.115 109.076 140.965 108.259 143.705C110.428 142.547 110.583 142.479 113.032 142.399C112.215 143.395 111.928 143.709 110.933 144.52L107.951 144.53L107.023 148.597C108.366 148.119 109.811 147.555 111.254 148.013C112.651 148.457 114.203 149.873 113.379 151.469C113.057 152.092 112.973 152.217 112.337 152.443C111.63 152.126 111.575 151.687 111.218 150.879C110.701 150.428 110.448 150.303 109.812 150.141C105.53 148.976 106.28 154.447 109.344 154.742C113.629 155.156 114.388 152.515 115.387 149.114C117.884 140.616 118.449 131.32 118.537 122.479C118.607 115.471 118.999 108.776 120.738 101.906C122.744 94.9159 123.423 90.9252 123.732 83.6677C124.693 82.6134 126.01 81.4442 127.118 80.5506C127.033 81.5399 126.892 82.5967 126.777 83.5889C127.693 82.8877 128.629 82.2143 129.586 81.5701C129.157 85.6968 128.027 85.4664 126.614 88.6864L126.531 88.8791C127.844 93.0951 130.305 95.7252 134.75 96.3183L132.789 98.7803L130.111 98.2366C130.79 99.5342 131.943 102.789 132.781 103.728C135.173 104.43 135.414 102.558 136.71 101.176C138.581 99.1823 139.961 97.8088 141.208 95.3346C140.208 95.9297 139.197 96.6763 138.131 97.3157C139.26 96.1631 140.278 95.2343 141.483 94.1588C140.557 91.357 135.837 85.4439 134.13 82.6572C133.359 81.5639 133.217 79.0359 132.41 78.0591C125.003 69.0827 119.212 57.9365 108.592 52.2827C106.77 51.3125 104.832 50.7324 103.222 49.6241L103.036 49.4942C101.47 44.1791 93.1885 35.0337 89.5168 30.5847C88.1389 28.9151 85.4461 27.2588 83.8486 25.2553C79.9738 20.3953 77.0402 15.5557 74.6738 9.81876C75.5388 8.93985 76.4606 7.91001 77.309 7Z" fill="#6572A4"/>
<path d="M125.237 93.9155C125.607 94.2524 126.954 98.7148 127.259 99.6335C128.784 104.229 130.844 108.563 132.896 112.823C137.735 123.864 145.479 129.619 156.178 134.599C161.945 137.282 168.202 140.705 174.138 143.205C177.574 144.653 181.501 145.477 185.101 146.492C187.35 147.126 189.546 148.439 191.987 148.25C195.717 147.944 200.313 146.132 203.934 144.935L202.987 147.11C203.738 146.225 204.126 145.695 204.762 144.722C206.034 144.156 210.527 142.479 211.813 142.894V143.192C210.49 144.639 205.336 146.317 203.078 147.721C201.304 148.525 200.033 150.612 198.337 151.437C196.171 152.49 193.676 152.998 191.641 154.38C190.389 155.229 189.127 156.941 187.906 157.592C186.413 158.387 181.386 159.049 181.303 161.401C181.811 161.708 186.184 159.915 187.157 159.709C188.184 159.493 189.275 159.232 190.356 159.067C190.02 159.33 189.083 160.013 188.983 160.339C189.745 159.902 190.222 159.583 190.938 159.071C193.087 159.53 193.558 159.709 194.999 161.347C196.25 161.253 200.455 160.72 201.081 161.756C202.756 164.539 199.701 169.921 196.149 169.269C194.565 168.979 193.859 168.198 192.965 167.059C190.533 167.933 189.771 168.148 187.343 167.436C186.442 168.086 185.426 168.767 184.647 169.542L184.772 169.892C186.072 170.738 188.352 170.374 189.836 170.541C190.454 170.633 191.397 171.202 191.997 171.208C198.867 171.27 203.325 168.082 204.266 161.314C209.418 160.834 211.833 159.251 214.278 154.521C214.817 154.459 216.055 154.023 216.62 153.827C218.367 153.221 219.779 153.392 221.619 153.466C219.222 154.96 218.469 154.921 216.07 155.78C214.494 156.344 209.588 161.126 208.982 162.645C209.392 164.71 208.783 166.772 207.163 168.194C202.749 172.067 196.451 175.165 190.788 176.658C188.505 177.26 184.538 176.82 182.128 177.035C171.193 176.868 160.182 176.895 149.255 176.459C137.266 175.791 125.164 176.47 113.187 175.831C106.401 175.471 98.4576 176.21 93.3158 171.007C89.0947 166.735 89.3305 160.801 89.3905 155.345C89.5678 155.446 89.7476 155.543 89.9297 155.635C94.0325 157.735 95.6814 155.808 98.45 152.804C98.7977 152.426 99.855 151.323 99.9772 150.887C100.726 148.217 100.748 145.358 101.252 142.635C101.944 139.37 103.174 136.264 103.336 132.878C103.459 128.144 102.575 122.001 104.798 117.621C106.33 123.282 105.967 127.782 106.04 133.508C106.093 137.666 106.25 141.618 105.697 145.787C105.315 148.663 103.905 151.779 104.055 154.704C104.108 155.381 104.501 156.337 105.112 156.696C109.024 158.996 112.613 156.874 114.88 153.698C121.827 143.968 120.867 132.117 121.247 120.954C121.427 115.637 122.347 97.7628 125.237 93.9155Z" fill="#F7F9FF"/>
<path d="M174.047 163.549L174.29 163.617C174.181 163.736 174.069 163.849 173.947 163.955C165.488 171.491 128.309 170.521 116.167 170.055L115.898 169.914C116.112 169.382 117.081 168.419 117.519 167.944C124.092 167.92 130.629 168.181 137.263 168.102C143.961 168.005 150.65 167.58 157.306 166.825C163.346 166.16 168.275 165.516 174.047 163.549Z" fill="#6572A4"/>
<path d="M125.624 148.381C127.366 151.15 128.396 152.925 131.793 153.292C131.138 154.114 130.347 154.993 129.653 155.798C129.564 155.777 129.476 155.755 129.388 155.73C126.706 154.966 124.88 153.535 123.555 151.123L125.624 148.381Z" fill="#6572A4"/>
<path d="M130.54 46.3789C131.52 47.2648 136.799 61.9903 136.954 63.6331C137.565 70.0717 137.085 74.8846 140.671 80.8924C141.054 81.5355 142.259 85.8872 141.968 86.5535L141.567 86.3035C140.669 85.2165 136.906 80.8582 136.578 79.8622C134.884 74.7136 132.407 71.8486 129.203 67.4857C129.511 63.0257 129.787 58.5638 130.034 54.1C130.165 51.7459 130.232 48.6628 130.54 46.3789Z" fill="#F7F9FF"/>
<path d="M208.078 150.428C212.064 150.781 212.136 156.373 210.034 158.125C208.528 159.381 201.638 159.293 199.669 158.82C198.232 158.475 196.647 157.22 194.327 156.92C193.119 156.907 192.034 156.843 190.836 156.765C192.772 154.86 194.999 154.054 197.516 153.274L196.283 155.455C197.202 154.522 198.038 153.643 199.049 152.806C201.743 152.239 203.026 152.309 205.808 152.272C206.5 151.783 207.406 150.985 208.078 150.428Z" fill="#F7F9FF"/>
<path d="M214.002 144.03C219.106 143.872 221.078 149.315 216.831 152.133C215.937 152.725 214.635 152.774 213.564 152.866C213.548 152.337 213.52 151.809 213.481 151.281C213.227 148.242 211.885 148.321 209.378 148.79C206.248 149.691 204.126 149.86 201 150.494C204.532 147.76 206.174 147.438 210.25 145.863C211.195 145.498 213.002 144.513 214.002 144.03Z" fill="#F7F9FF"/>
<path d="M142.586 121.882C144.846 121.902 149.622 123.685 151.358 125.078C153.597 126.874 154.971 128.545 155.403 131.384C152.006 130.57 145.086 124.456 142.586 121.882Z" fill="#F7F9FF"/>
<path d="M220.69 142.445C220.994 142.49 221.297 142.542 221.598 142.601C223.681 143.017 224.751 143.802 225.895 145.513C226.058 146.674 226.03 147.468 226.015 148.627C225.999 148.657 225.982 148.686 225.965 148.716L225.882 148.86C225.347 149.792 225.286 149.884 224.478 150.61C222.88 151.267 222.029 151.199 220.328 151.161C221.607 147.668 221.887 145.95 220.69 142.445Z" fill="#F7F9FF"/>
<path d="M220.937 137.229C223.63 137.069 224.818 137.801 226.196 140.017C224.475 140.001 223.227 139.899 221.594 140.513C220.301 141.384 218.31 140.969 216.758 140.819C218.216 139.26 219.024 138.224 220.937 137.229Z" fill="#F7F9FF"/>
<path d="M170.514 131.648C170.985 132.286 171.173 134.671 170.631 135.345L169.896 135.38C168.586 133.736 168.841 132.659 170.514 131.648Z" fill="#F7F9FF"/>
<path d="M173.44 137.292C174.152 137.671 174.595 138.879 174.534 139.658L174.18 139.784L172.25 139.024L173.44 137.292Z" fill="#F7F9FF"/>
<path d="M156.092 85.2954L156.229 85.4828C154.347 88.2487 151.852 92.2784 149.069 94.0585C148.868 93.8389 148.938 93.9131 148.852 93.5912C149.488 91.72 154.539 86.8874 156.092 85.2954Z" fill="#6572A4"/>
<path d="M110.258 94.52L112.873 94.9555C112.299 95.4444 111.627 96.0862 110.922 96.2937C108.617 96.9714 108.351 97.3752 106.71 98.9952C106.335 99.3263 106.103 99.612 105.594 99.707L105.733 99.7504L105.539 99.8051C105.721 99.3331 109.666 95.1801 110.258 94.52Z" fill="#6572A4"/>
</svg>
