<svg width="250" height="217" viewBox="0 0 250 217" fill="none" xmlns="http://www.w3.org/2000/svg">
<path d="M146.035 46.5225C153.836 47.6048 160.993 50.0455 167.11 55.218C167.065 55.5034 166.955 55.7573 166.796 55.9789C160.626 50.9208 154.739 48.6097 146.958 47.4426C147.272 51.3919 147.594 55.6079 147.86 59.5731C146.848 60.3693 141.468 65.2733 141.097 66.0875C133.655 82.3951 131.798 94.6865 148.778 104.95C150.755 103.351 152.49 101.024 154.397 99.5586C155.637 99.5412 158.401 100.022 159.601 100.175L159.506 100.307C158.538 100.328 155.248 100.266 154.595 100.442C153.628 101.326 149.608 105.345 148.778 105.655C146.56 105.361 140.915 100.085 139.408 98.3056C131.405 88.8556 135.502 75.5799 140.217 65.684C140.632 64.8124 145.964 59.9033 147.02 59.0518C146.718 54.769 146.257 50.8828 146.035 46.5225Z" fill="#6572A4"/>
<path d="M101.586 28.1133C102.67 26.7124 103.915 25.7329 105.232 24.5893C120.074 11.7229 142.351 19.9013 156.03 30.376C161.748 34.7545 164.755 38.8879 167.504 45.5056C170.013 51.5467 169.76 54.6769 169.37 61.0366C169.136 64.8578 169.496 69.0006 169.077 72.8981C167.474 75.2124 166.015 75.5052 164.254 77.1626C164.623 79.2302 165.004 81.236 165.42 83.3325C166.189 87.1978 167.515 91.3469 167.676 95.2731C167.738 96.8063 165.217 99.3608 163.824 99.8356C163.515 99.9489 162.817 100.09 162.63 100.301C163.19 100.93 164.835 100.583 165.649 100.895C166.133 101.081 166.653 101.52 167.047 101.856C169.321 97.865 172.164 99.9133 174.674 102.197C178.217 96.676 180.107 97.2988 184.103 101.99C186.402 100.721 189.808 99.2229 192.341 100.177C198.911 102.653 190.969 108.786 188.692 110.496C188.659 112.169 188.515 115.579 188.635 117.129C188.964 121.406 190.432 123.094 187.764 127.175L187.085 126.664L187.179 126.148L187.397 126.01L187.282 125.147C187.552 124.566 187.186 120.948 187.137 119.976C187.016 117.319 186.945 114.66 186.922 112.001C185.001 113.15 183.512 114.693 181.665 115.856L184.252 117.407C183.818 117.703 183.311 118.009 182.862 118.294C181.964 117.818 181.11 117.01 180.126 117.459C179.576 118.226 179.725 119.288 179.736 120.261C179.024 120.753 178.477 121.567 177.944 122.263C177.936 121.843 177.963 120.582 177.793 120.293L177.374 120.382L177.311 120.211C179.036 115.342 186.545 111.971 190.213 108.677C190.008 108.421 189.988 108.435 189.726 108.228C188.002 108.243 186.734 105.624 185.915 104.308C186.243 103.854 186.44 103.566 186.843 103.163C187.291 102.605 187.774 102.355 188.38 101.974C185.937 101.75 180.408 104.721 178.716 106.392C175.115 109.947 174.036 110.35 169.168 111.692C166.03 112.557 161.332 116.671 159.192 119.152C156.808 121.946 156.404 126.917 155.556 130.427C154.826 133.458 155.616 134.284 152.792 136.412C153.558 129.238 154.537 124.453 159.007 118.701C156.432 115.56 159.739 110.799 153.952 112.328L153.536 112.116C155.271 109.9 157.011 109.872 159.541 110.412C159.559 110.214 159.574 110.016 159.586 109.817C159.737 107.32 158.68 107.005 156.46 106.87C158.891 104.07 158.314 105.503 161.484 103.993C161.095 101.973 160.74 102.103 159.639 100.526C158.358 100.525 155.728 100.6 154.592 100.443C155.245 100.266 158.534 100.328 159.502 100.307L159.597 100.175C160.291 99.9486 162.561 99.319 162.578 99.334C163.212 99.3994 165.406 97.9389 165.979 97.6313C167.034 96.1404 164.34 88.3396 163.953 86.2135C163.522 83.8491 162.666 81.3872 162.583 78.9213L162.578 78.7128C163.945 76.6893 165.484 75.6343 167.404 74.1595C167.357 70.5624 167.468 66.7034 167.551 63.0953C167.6 60.9528 167.938 58.8091 167.936 56.5794L166.792 55.979C166.952 55.7574 167.061 55.5035 167.106 55.2181C167.374 55.4415 167.415 55.5274 167.757 55.5598C167.914 55.2611 167.994 55.1213 167.922 54.7688C165.238 41.575 158.411 32.7838 146.233 27.0455C136.823 22.6121 130.599 19.4545 119.749 19.9563C112.841 20.2466 106.714 23.6733 102.093 28.7978L101.586 28.1133Z" fill="#6572A4"/>
<path d="M188.869 102.228C190.877 101.421 192.077 102.327 193.257 103.866C193.047 104.511 192.397 106.488 191.843 106.903L191.545 106.965C191.179 107.194 189.887 107.945 189.725 108.228C188.001 108.243 186.733 105.624 185.914 104.308C186.242 103.854 186.439 103.566 186.842 103.163C187.29 102.605 187.773 102.355 188.379 101.974L188.869 102.228Z" fill="#F7F9FF"/>
<path d="M186.842 103.163C187.28 103.339 187.064 103.322 187.51 103.244L187.656 103.075C188.149 104.222 189.085 106.324 190.42 106.93C190.605 107.014 191.246 106.933 191.545 106.964C191.179 107.194 189.887 107.944 189.725 108.228C188.001 108.243 186.733 105.624 185.914 104.308C186.242 103.854 186.439 103.566 186.842 103.163Z" fill="#6572A4"/>
<path d="M188.381 101.974L188.871 102.228C188.54 102.46 187.983 102.88 187.657 103.075L187.512 103.244C187.066 103.322 187.282 103.339 186.844 103.163C187.291 102.605 187.774 102.355 188.381 101.974Z" fill="#6572A4"/>
<path d="M171.343 108.441C170.27 108.07 167.177 103.027 167.853 101.635C169.482 100.37 173.388 104.881 174.266 106.002L174.511 106.334C174.939 106.902 175.364 107.473 175.785 108.046C174.783 108.481 173.067 109.368 172.044 109.257C171.736 109.055 171.705 109.06 171.487 108.749L171.343 108.441Z" fill="#F7F9FF"/>
<path d="M174.266 106.002L174.511 106.334C174.94 106.902 175.364 107.473 175.786 108.046C174.783 108.481 173.068 109.368 172.044 109.257C171.737 109.055 171.706 109.06 171.488 108.749L171.344 108.441C171.873 107.937 173.628 106.531 174.266 106.002Z" fill="#F7F9FF"/>
<path d="M174.266 106.002L174.511 106.334C173.575 107.179 172.578 108.117 171.488 108.749L171.344 108.441C171.873 107.937 173.628 106.531 174.266 106.002Z" fill="#6572A4"/>
<path d="M165.932 110.412C165.685 110.305 165.523 110.204 165.409 109.938C164.791 108.504 161.354 103.89 163.351 102.718C163.901 102.645 164.2 102.867 164.713 103.116C165.755 104.563 167.191 107.093 168.058 108.688L168.101 108.926L168.372 108.995L169.66 110.047C169.111 110.434 166.792 112.315 166.281 111.325C166.222 111.21 166.124 110.972 166.072 110.844L165.932 110.412Z" fill="#F7F9FF"/>
<path d="M168.039 108.831L168.083 109.069L168.353 109.138L169.642 110.19C169.092 110.577 166.774 112.458 166.262 111.468C166.204 111.353 166.106 111.115 166.054 110.987L165.914 110.555C166.743 109.945 167.381 109.624 168.039 108.831Z" fill="#F7F9FF"/>
<path d="M168.039 108.831L168.083 109.069L168.353 109.138C167.578 109.802 166.865 110.366 166.054 110.987L165.914 110.555C166.743 109.945 167.381 109.624 168.039 108.831Z" fill="#6572A4"/>
<path d="M177.011 100.123C179.183 100.019 180.653 102.002 181.782 103.622C181.337 104.03 180.592 104.574 180.089 104.96L178.525 106.19C177.585 104.825 175.332 101.56 177.011 100.123Z" fill="#F7F9FF"/>
<path d="M162.495 110.919C163.152 111.267 163.66 113.232 163.902 113.995C162.868 114.903 161.951 115.716 160.971 116.686L160.823 116.598C160.156 115.111 159.905 114.227 159.516 112.657L161.341 112.187C161.703 111.818 162.141 111.31 162.495 110.919Z" fill="#F7F9FF"/>
<path d="M161.413 108.313C162.056 108.699 162.22 109.548 162.471 110.275C161.392 110.673 160.924 110.961 159.968 111.585L159.919 111.644L159.745 111.68L159.719 111.836C159.602 111.841 159.674 111.852 159.531 111.725C159.607 111.1 160.697 110.049 161.003 109.42C161.184 109.046 161.289 108.706 161.413 108.313Z" fill="#F7F9FF"/>
<path d="M119.348 113.395C110.758 107.857 111.334 106.33 116.627 98.073L117.065 98.2211C115.626 100.997 114.624 102.485 114.744 105.624C115.537 106.908 116.471 107.903 117.658 108.839C120.585 111.147 142.522 125.338 145.195 125.93C146.273 126.168 147.462 125.848 148.36 125.24C149.163 124.696 149.726 123.979 150.146 123.112C150.259 123.258 150.486 123.573 150.602 123.692C145.821 130.016 142.957 128.427 137.122 124.864C133.979 122.945 131.085 120.961 128.034 118.923C126.485 117.911 124.922 116.921 123.347 115.953C122.536 115.448 120.217 113.907 119.477 113.692C119.405 113.604 119.39 113.514 119.348 113.395Z" fill="#6572A4"/>
<path d="M121.635 86.5735C120.383 87.1501 118.257 88.2749 116.885 87.6889C114.005 86.4576 112.444 81.9262 110.9 79.4017C110.016 77.9572 109.936 75.7124 109.725 74.1118C109.41 70.7254 108.589 67.3064 109.858 64.0098C111.556 59.599 117.192 53.6469 122.464 55.5667C124.951 56.4721 126.593 59.3989 126.938 61.9355C126.31 62.5902 125.759 63.1451 125.094 63.7609C124.903 61.7533 124.383 59.6163 122.736 58.3891C119.337 55.8907 115.243 56.4881 112.715 59.8755C110.388 62.9936 110.294 66.0789 111.185 69.7708C111.833 72.3604 111.373 74.5788 112.458 77.0859C113.078 78.5193 114.626 80.3435 115.113 81.625C116.974 86.5278 119.849 86.6788 123.866 83.3157C122.183 87.2928 120.398 92.5319 118.158 96.2129L118.012 95.8292C119.628 92.7489 120.084 89.8597 121.635 86.5735Z" fill="#6572A4"/>
<path d="M87.6328 66.9464C89.3626 62.4419 88.8999 61.1469 89.0655 56.5569C89.1717 53.6147 90.2178 49.0781 91.3775 46.3958C91.4307 47.6897 90.5586 48.7287 90.5809 49.7172C91.0767 49.6348 91.5713 48.1651 91.7397 47.6928L92.0265 47.4683C91.4998 50.2645 91.2283 51.8723 91.0518 54.6328C90.7963 58.6256 91.7562 61.3771 89.5827 64.9315C89.1331 65.6667 89.0656 66.8132 88.5016 67.5194C88.5951 66.9555 88.323 66.4775 88.5016 65.9312C88.1633 66.2285 88.1072 66.5565 87.6328 66.9464Z" fill="#6572A4"/>
<path d="M87.6325 66.9463C88.1069 66.5564 88.1629 66.2285 88.5013 65.9312C88.3226 66.4774 88.5948 66.888 88.5013 67.4518C87.7138 69.1194 84.3826 74.3181 83.6104 75.9716C79.967 83.7711 74.3484 93.4509 65.5638 96.105C65.3515 95.911 64.9555 95.7449 64.6797 95.6083C67.0105 94.4661 69.1298 94.0241 71.3475 92.3223C73.0012 91.2087 74.0156 89.6108 75.2639 88.1461C79.2202 83.5038 81.6274 78.0262 84.4038 72.6633C85.3872 70.7636 86.5926 68.8688 87.6325 66.9463Z" fill="#6572A4"/>
<path d="M153.542 112.116L153.958 112.328C153.551 112.773 153.174 116.237 153.015 117.107C152.533 119.745 152.127 121.423 150.604 123.692C150.489 123.573 150.261 123.258 150.148 123.112C151.793 119.213 150.855 115.03 153.542 112.116Z" fill="#6572A4"/>
<path d="M96.4938 35.3848L97.1344 35.9862C94.9241 40.0591 93.1034 42.9266 92.0241 47.4683L91.7373 47.6928C91.5689 48.1652 91.0743 49.6348 90.5785 49.7173C90.5562 48.7288 91.4283 47.6897 91.3751 46.3958C91.6629 44.4453 95.3974 37.2533 96.4938 35.3848Z" fill="#6572A4"/>
<path d="M109.328 120.878C111.982 118.29 112.881 117.586 116.265 116.175L116.525 116.961C113.715 119.469 112.348 119.431 109.765 121.175L109.328 120.878Z" fill="#6572A4"/>
<path d="M101.585 28.1133L102.092 28.7977C99.9511 31.3209 98.804 33.1609 97.1327 35.9861L96.4922 35.3847C97.9218 32.7851 99.6294 30.347 101.585 28.1133Z" fill="#6572A4"/>
<path d="M109.325 120.878L109.762 121.175C108.554 122.407 107.946 122.868 107.106 124.376L106.797 124.59L106.211 124.369C107.225 123.185 108.264 122.021 109.325 120.878Z" fill="#6572A4"/>
<path d="M119.266 113.175C119.308 113.293 119.404 113.604 119.476 113.692C119.011 114.618 117.351 116.218 116.526 116.961L116.266 116.175C117.585 115.213 118.24 114.429 119.266 113.175Z" fill="#6572A4"/>
<path d="M118.011 95.8293L118.157 96.213L117.063 98.2212L116.625 98.0731C117.09 97.3759 117.568 96.5518 118.011 95.8293Z" fill="#6572A4"/>
<path d="M60.4062 96.0264C60.9786 95.319 61.4151 94.9039 62.0777 94.2698C62.6012 94.5622 64.1934 95.5115 64.6772 95.6086C64.953 95.7451 65.349 95.9112 65.5613 96.1052C66.3954 96.8023 69.027 98.2722 70.0434 98.8682C72.7032 100.403 75.3353 101.986 77.9383 103.615C88.3111 110.14 97.1254 116.173 106.213 124.37L106.798 124.59L107.107 124.376C107.04 124.909 106.956 125.005 107.368 125.519C108.895 127.427 111.165 129.843 111.899 132.201C111.074 133.71 109.685 135.985 109.2 137.576C108.713 139.174 108.871 141.595 108.629 143.338C107.736 149.78 107.42 156.275 106.333 162.694C106.009 164.611 105.866 167.082 105.042 168.845C106.04 169.955 107.397 172.165 108.237 173.462C109.743 175.798 111.267 178.123 112.808 180.436L119.534 190.497C120.582 192.061 122.292 194.417 123.11 195.98C122.179 196.451 121.624 196.632 120.624 196.964C119.452 194.859 117.612 192.271 116.253 190.232L107.7 177.393C105.724 174.464 103.384 171.257 101.658 168.187C100.327 172.925 96.7697 185.994 93.4628 189.487L93.029 189.432C96.0352 183.713 99.4459 173.061 100.83 166.619C100.202 165.449 96.8832 158.793 97.0946 157.878L97.6165 157.619C97.9018 157.258 98.6943 153.941 98.8818 153.153C100.644 145.753 101.337 134.579 97.3281 127.848C98.076 126.869 98.2645 126.554 99.2223 125.781C102.698 134.379 102.575 142.551 100.583 151.51C100.193 153.268 99.6422 155.001 99.2041 156.762C100.331 159.871 102.494 164.433 104.141 167.318C105.354 160.481 106.393 153.615 107.259 146.726C107.495 144.757 107.271 141.256 107.686 139.559C107.927 138.576 109.858 134.875 110.396 133.767C109.126 131.999 108.503 130.812 106.892 129.077C103.249 125.153 98.8194 121.613 94.5484 118.386C87.2284 112.913 79.6446 107.8 71.8245 103.065C69.6423 101.75 67.4351 100.477 65.2039 99.2463C64.1111 98.6459 61.2733 97.2111 60.4525 96.5031L60.4062 96.0264Z" fill="#6572A4"/>
<path d="M181.475 133.147L182.27 133.674C181.929 133.961 181.087 134.846 180.77 135.174C177.682 138.37 173.427 142.857 171.27 146.674C169.838 149.207 167.959 154.445 167.516 157.426C167.15 159.89 166.615 162.581 166.376 165.046C165.366 175.389 165.702 185.646 165.622 196.014C164.995 196.819 164.72 197.069 163.943 197.749C164.275 190.524 163.433 182.479 163.872 175.279C164.329 167.775 165.8 155.104 168.361 148.228C169.71 144.602 178.625 135.763 181.475 133.147Z" fill="#6572A4"/>
<path d="M131.539 188.462C132.37 186.891 133.515 183.885 134.226 182.17L138.92 170.877C141.278 165.242 143.603 159.594 145.895 153.931C146.795 151.697 148.32 148.29 148.822 146.056C149.393 143.518 147.063 139.976 148.887 137.078C149.933 135.417 150.701 133.819 152.18 132.387C152.102 132.697 150.788 135.028 150.51 135.618C150.083 137.148 149.435 139.945 150.101 141.439L150.306 141.595C151.278 141.367 151.223 139.29 152.039 138.598L152.261 138.661C152.78 139.619 152.147 141.853 151.2 142.372L150.505 142.318C150.429 142.494 150.412 142.445 150.509 142.654C151.08 143.88 150.098 146.255 149.506 147.33C149.332 147.956 148.037 150.86 147.709 151.641L143.635 161.426L137.101 177.243C135.832 180.366 134.578 183.645 133.18 186.711C132.934 187.253 132.021 188.023 131.539 188.462Z" fill="#6572A4"/>
<path d="M149.509 147.33C149.377 146.203 150.775 144.055 150.43 143.279C149.435 141.053 149.087 138.23 150.192 135.74L150.513 135.618C150.086 137.148 149.438 139.945 150.103 141.439L150.309 141.595C151.28 141.367 151.226 139.29 152.042 138.598L152.264 138.661C152.782 139.619 152.15 141.853 151.203 142.372L150.507 142.318C150.431 142.494 150.415 142.445 150.512 142.654C151.083 143.88 150.101 146.255 149.509 147.33Z" fill="#6572A4"/>
<path d="M161.217 132.364C161.24 132.656 160.981 133.576 160.878 133.904C159.794 137.426 159.292 138.838 160.767 142.371C160.269 142.776 159.691 143.327 159.206 143.763L159.032 143.645C157.552 139.146 158.617 136.073 161.217 132.364Z" fill="#6572A4"/>
<path d="M185.493 106.059C185.828 106.274 186.471 107.291 186.58 107.691C186.893 108.838 185.142 110.514 184.116 110.71L183.781 110.219C183.134 109.496 182.892 108.544 182.594 107.632C182.875 107.152 182.996 106.897 183.388 106.49L183.655 106.484C183.892 106.794 183.943 106.866 184.239 107.143C184.835 107.019 185.104 106.563 185.493 106.059Z" fill="#6572A4"/>
<path d="M93.0342 189.432L93.4681 189.487C91.6739 192.395 86.124 197.31 83.0859 198.864C84.0639 197.807 85.4357 196.421 86.6146 195.608C89.5574 193.58 91.1261 192.466 93.0342 189.432Z" fill="#6572A4"/>
<path d="M182.977 127.763C184.405 125.897 184.977 125.566 187.285 125.147L187.4 126.01L187.182 126.148C186.967 126.192 187.011 126.164 186.828 126.273C185.632 126.983 184.304 127.362 182.977 127.763Z" fill="#6572A4"/>
<path d="M181.469 133.148C183.754 130.97 185.458 129.43 187.085 126.664L187.763 127.175C186.759 128.965 183.776 132.29 182.263 133.675L181.469 133.148Z" fill="#6572A4"/>
<path d="M60.4579 96.503C59.5961 97.4736 57.0758 99.2673 56 100.145C56.9929 99.0073 59.2159 97.0329 60.4116 96.0264L60.4579 96.503Z" fill="#6572A4"/>
</svg>
