<svg width="250" height="192" viewBox="0 0 250 192" fill="none" xmlns="http://www.w3.org/2000/svg">
<g clip-path="url(#clip0_3594_4584)">
<path d="M167.735 9.45752C167.396 7.4315 163.635 0.427071 167.914 0.0158727C169.032 -0.0916249 170.159 0.35361 170.968 1.14762C171.332 1.50914 171.636 1.92363 171.875 2.37674C172.135 2.86771 172.457 3.71573 172.658 4.25099C174.02 7.88251 175.71 11.5842 176.711 15.3319C177.524 18.3755 176.532 22.5809 176.756 25.7201C176.82 26.6241 177.271 27.4823 177.455 28.3651C177.917 33.7104 177.716 39.0703 177.816 44.4241C177.896 48.7884 178.432 53.2395 178.392 57.6039C178.319 65.7739 177.361 73.9375 177.498 82.1185C177.514 83.0739 177.499 84.0554 177.611 85.0045C179.59 85.9674 181.088 87.3599 179.669 89.6729C177.35 93.4511 174.298 96.9063 171.434 100.28C170.598 101.258 168.763 102.992 168.221 103.903C170.922 102.909 172.358 101.156 174.255 99.1457C175.703 97.6106 177.466 93.2147 180.12 94.4847C183.976 96.3301 181.739 101.683 180.367 104.297C180.116 104.784 179.85 105.264 179.569 105.736C180.408 110.328 180.091 112.505 176.949 115.917C177.272 118.222 177.502 120.214 176.004 122.218C174.564 124.143 172.561 124.719 170.77 125.911C169.38 128.634 168.393 131.687 166.716 134.201C165.66 135.783 163.123 135.686 161.544 136.152C158.493 137.054 156.644 137.423 153.469 136.968C149.467 139.005 146.908 141.58 143.571 144.485C141.532 146.261 139.616 147.581 137.628 149.542C130.687 156.386 124.122 163.708 116.845 170.195C114.766 172.048 111.88 173.82 109.498 175.34C106.428 177.301 103.338 179.229 100.228 181.124C95.8521 183.787 89.6626 187.723 85.1802 189.982C83.8812 190.643 82.5307 191.197 81.1419 191.638C76.8039 193 72.2583 191.976 69.2891 188.44L69.8471 187.744C76.0171 190.752 78.4649 190.408 84.4275 187.232C87.288 185.709 90.2455 184.166 93.1043 182.551C98.7154 179.415 104.178 176.019 109.475 172.377C112.145 170.563 114.892 168.73 117.324 166.59C119.494 164.642 121.399 162.385 123.358 160.229C130.604 152.257 138.475 144.871 146.795 138.037C149.43 135.871 153.035 134.809 155.962 133.099C158.996 131.327 161.733 128.922 164.687 127.007C166.837 125.53 175.927 120.922 174.91 117.868C174.349 118.097 171.823 120.121 171.091 120.627L169.885 118.934C171.841 117.683 173.674 116.24 175.372 114.659C176.302 113.794 178.759 108.991 177.889 108.199C177.548 108.299 176.827 109.128 176.547 109.422C174.839 111.22 172.924 112.525 170.858 113.863C170.353 113.35 169.745 112.817 169.21 112.325C171.782 110.171 175.052 107.752 177.407 105.459L175.92 103.116L177.973 104.329C178.537 103.086 179.695 101.132 180.383 99.8342C180.01 99.1715 179.428 98.4083 178.974 97.7775C179.427 98.0521 179.661 98.2533 180.17 98.3124C180.64 98.118 180.454 98.269 180.739 97.8267C180.81 97.1896 180.421 96.3025 179.825 96.1798C178.149 95.9045 177.438 98.4295 176.711 99.2448C175.832 100.231 174.298 103.331 173.326 103.881C171.645 104.74 170.079 105.823 168.476 106.787C167.606 107.31 164.849 107.163 164.707 106.121C164.344 103.466 168.705 100.845 169.651 99.0431L169.466 98.731C169.596 98.4684 169.495 98.5532 169.751 98.4592C171.19 97.5662 174.416 93.1937 175.346 91.6393C174.734 91.0419 173.834 90.6652 173.729 89.8824L173.937 89.6859C174.677 89.8142 174.919 90.7775 175.679 90.658C176.714 90.4953 178.5 87.8017 178.383 86.9056C177.054 84.596 171.712 90.5826 170.78 91.4885C167.668 94.5224 164.769 97.8161 161.98 101.145C159.925 103.598 158.253 103.851 155.633 105.414C154.014 106.379 152.916 107.647 151.077 108.445C149.104 108.165 147.317 107.605 147.194 105.217C147.105 103.48 148.226 101.685 147.726 100.008C147.542 99.3908 146.314 98.7085 145.765 99.1732C144.259 100.451 143.776 102.344 144.864 104.058C144.75 104.292 144.088 104.586 143.797 104.748C142.913 106.195 142.062 109.28 142.1 110.952C142.191 114.921 139.02 116.144 138.505 119.713C138.388 120.528 139.452 121.389 140.005 121.929C136.915 124.45 133.808 126.949 130.685 129.43C125.228 133.767 118.033 139.533 111.618 142.26C110.141 142.887 103.491 144.084 101.47 144.54C94.5746 146.095 87.4604 147.387 80.5678 149.002C79.9631 148.391 79.2891 147.559 78.72 146.891C83.4344 146.063 89.1095 144.84 93.7989 143.832C99.8928 142.523 108.778 141.229 114.107 138.373C118.276 136.139 123.554 131.55 127.336 128.451C126.166 127.602 124.56 126.622 123.321 125.818C122.368 131.658 111.617 121.498 110.076 119.887C107.103 119.264 102.973 118.203 101.791 115.059C103.926 116.369 106.767 117.613 109.061 118.588C105.999 113.325 106.025 107.766 106.997 101.88C107.76 102.593 108.444 103.306 109.167 104.057C108.565 105.599 108.147 107.672 108.303 109.309C108.825 114.785 108.886 117.721 112.921 121.514C111.165 118.093 110.588 116.233 109.835 112.576C110.612 113.419 111.363 114.187 112.121 115.06C112.607 118.817 114.556 123.76 118.095 125.619C118.707 125.941 119.369 126.162 120.024 126.379C117.985 122.578 117.464 120.568 117.892 116.364C119.205 103.473 121.543 99.4134 131.046 91.4192C131.703 91.8403 132.079 92.2852 132.818 91.9116C133.363 90.8052 131.645 90.1912 130.601 90.3747C126.057 91.173 123.551 95.561 121.098 99.0386C120.408 98.445 119.804 97.8242 119.161 97.1795C121.199 93.5388 123.373 90.5814 127.234 88.8447C124.363 87.3895 121.316 86.9173 119.878 84.1189C122.403 85.4906 125.68 86.7906 128.332 87.9917C132.209 89.7464 133.939 88.563 134.655 93.6992C137.277 95.4243 139.913 97.1294 142.561 98.814C142.662 98.6906 142.766 98.5695 142.874 98.4507C144.787 96.3301 146.134 97.1293 147.853 98.8488C152.45 94.1689 155.54 82.0359 157.214 75.5168C158.758 69.384 160.167 63.2181 161.44 57.0236C159.777 54.5418 159.022 52.77 158.018 49.9894C157.25 47.8619 156.12 46.1967 155.817 43.8252C155.569 41.887 156.161 39.3972 155.795 37.6028C153.766 37.6271 153.247 38.6266 150.026 38.2343C149.047 39.3283 146.294 40.1227 144.937 39.5118C143.367 38.8051 142.506 37.061 141.916 35.5482C142.085 35.4067 142.257 35.2714 142.434 35.1422C144.797 33.4092 150.404 30.3575 153.338 29.6442C153.758 29.5422 154.39 29.6343 154.826 29.7014C155.024 25.5435 156.844 25.7096 160.227 27.0623C159.642 26.3382 159.483 26.1069 158.734 25.5454C156.24 25.3183 155.568 25.1561 153.207 24.4281C150.826 25.428 149.041 25.8312 146.426 25.7112C145.307 24.9882 142.994 22.3572 143.114 21.0211C143.391 20.8043 149.916 18.1435 150.576 17.9852C152.503 17.5235 159.756 17.8486 161.73 18.0576C163.219 19.225 164.506 20.7605 165.739 22.1973C165.759 20.1577 165.542 18.1795 165.697 16.1581C163.115 14.5418 162.62 13.2623 160.732 11.8608C157.972 10.1082 154.878 9.10717 153.841 5.63676C153.536 4.62105 153.678 3.42517 154.971 3.33463C157.571 3.15249 160.677 5.01871 163.042 6.031C163.381 6.17622 165.558 8.02418 165.969 8.33734C166.515 8.6848 167.187 9.14107 167.735 9.45752Z" fill="#6572A4"/>
<path d="M156.778 5.29736C159.223 5.30485 163.976 7.33167 166.021 8.75266L165.972 8.33739C166.518 8.68485 167.19 9.14112 167.738 9.45757C167.659 9.77192 167.748 9.65128 167.517 9.8555C169.84 11.5479 171.888 12.2224 172.24 15.4305C172.508 17.8692 172.77 19.3188 173.504 21.6651C174.095 23.557 175.219 25.8801 175.431 27.7215C176.024 32.8371 175.729 38.1233 175.832 43.2642C175.943 48.8517 176.228 54.4294 176.308 60.0151C176.32 60.7987 176.273 64.8084 176.056 65.1847C175.053 64.8635 175.723 60.7644 175.018 59.5271C174.114 57.9379 173.744 57.645 172.373 56.4531C173.456 58.7786 173.831 59.5302 174.223 62.0977C174.759 65.6085 172.352 69.055 175.89 70.8543C175.719 75.4573 175.708 80.0864 175.538 84.713C170.825 85.9459 162.938 96.7639 159.009 100.163C156.773 102.097 154.932 102.747 152.584 104.434C151.835 104.973 149.72 106.886 149.028 106.505C149.236 104.311 149.961 102.899 149.239 100.885C156.153 93.0957 159.15 77.4842 161.357 67.4475C161.718 65.8088 162.614 60.2481 163.188 59.2123L163.402 59.2376C164.115 60.4434 163.835 67.4216 163.93 69.3708L165.643 70.9821C165.553 68.2681 165.541 62.1422 165.096 59.8112C164.135 58.6135 162.824 57.8697 161.889 56.6863C160.986 55.5429 160.446 53.9145 159.864 52.5843C159.364 51.2426 158.156 48.4318 157.934 47.0635C157.539 44.6362 157.914 41.0764 157.88 38.537C157.879 38.4466 157.913 38.2167 157.922 38.1532C158.218 37.9522 158.053 37.9999 158.437 38.0409C159.315 40.7667 157.421 40.7074 160.392 43.5377C160.451 41.238 160.719 39.2127 159.013 37.2929C157.774 35.8984 155.379 35.9541 153.615 35.8978C152.818 35.8723 149.499 36.5493 148.552 36.6922C148.267 36.735 145.315 38.7571 144.007 37.8819C143.716 36.7349 152.557 31.9794 153.786 31.8465C157.027 31.4965 161.573 32.4165 164.887 32.6191C161.671 29.3802 162.753 27.2759 157.771 23.7344C154.662 23.7624 154.089 23.8793 151.347 22.2995C149.309 23.6547 148.275 24.2971 145.684 23.8214C145.182 23.7291 144.924 23.6643 144.66 23.2634C144.77 22.9621 144.893 22.8465 145.257 22.7304C146.998 22.1725 151.154 20.1135 152.678 19.8203C154.775 19.4167 160.815 19.5142 162.787 19.8537C165.185 22.2416 167.387 24.8126 169.726 27.2692L169.797 26.8809C169.206 26.0612 168.482 25.2211 167.834 24.4367C167.383 22.208 167.427 19.4899 167.413 17.1987C166.172 15.3207 164.078 14.1592 162.48 12.6879C160.931 11.2597 160.34 10.0654 158.227 9.40448C156.957 9.00761 156.345 8.04105 155.866 6.83124C156.201 6.07087 156.218 5.95207 156.778 5.29736Z" fill="#F7F9FF"/>
<path d="M165.969 8.3374C166.515 8.68486 167.187 9.14114 167.735 9.45759C167.656 9.77193 167.745 9.65129 167.514 9.85551L166.019 8.75267L165.969 8.3374Z" fill="#6572A4"/>
<path d="M169.797 26.8809C170.16 27.3068 170.669 27.8278 170.872 28.3258C170.47 28.1381 170.046 27.6119 169.727 27.2692L169.797 26.8809Z" fill="#6572A4"/>
<path d="M169.151 33.8484C169.607 34.2266 170.244 34.8617 170.693 35.2825C170.451 36.3823 170.252 37.2572 169.914 38.3409C169.596 38.1694 168.833 37.3244 168.523 37.006C168.949 35.6921 169.095 35.2261 169.151 33.8484Z" fill="#6572A4"/>
<path d="M132.043 93.8213C132.526 93.9852 134.858 95.3297 135.382 95.6247L142.251 99.507C140.469 104.248 141.58 109.914 138.523 113.944C136.523 116.582 136.069 117.96 135.998 121.271C133.948 123.179 130.468 125.86 128.194 127.727L127.206 127.086C125.82 126.144 122.63 123.895 121.144 123.471C120.477 123.787 121.752 124.749 121.389 125.657L120.944 125.785C119.055 124.714 119.609 116.988 119.858 114.864C120.729 107.471 126.17 98.2968 132.043 93.8213Z" fill="#F7F9FF"/>
<path d="M169.64 1.59399C171.511 2.77226 174.743 12.8484 175.257 15.4085C175.41 16.1602 175.326 20.7182 174.787 21.1495L174.618 20.637C174.077 18.0409 174.456 15.2144 172.644 13.3966C172.174 12.9247 170.262 11.3734 169.966 10.9326C169.012 9.5178 167.84 5.38847 168.018 3.61069C168.109 2.70471 168.979 2.04751 169.64 1.59399Z" fill="#F7F9FF"/>
<path d="M166.526 129.069C166.686 129.698 165.831 131.329 165.428 131.829C163.813 133.831 160.929 134.325 158.53 134.604L158.523 134.407C161.601 132.492 163.631 131.253 166.526 129.069Z" fill="#F7F9FF"/>
<path d="M157.79 27.842C158.867 27.8723 160.997 28.3175 160.997 29.6614C160.768 30.1334 160.705 30.1472 160.264 30.4664C159.231 30.7049 157.689 31.0407 157.101 29.9773C157.038 29.1388 157.405 28.5813 157.79 27.842Z" fill="#F7F9FF"/>
<path d="M107.017 147.326C107.541 147.777 108.151 148.386 108.662 148.872C105.779 150.806 102.452 153.372 99.6181 155.441L82.3809 168.031L80.7656 166.729C87.4722 161.915 94.0461 156.874 100.725 152.019C102.833 150.487 104.953 148.917 107.017 147.326Z" fill="#6572A4"/>
<path d="M162.042 108.929C162.513 109.442 162.859 110.044 163.234 110.634C162.516 111.556 161.819 112.81 160.548 112.74C159.886 112.246 159.622 111.924 159.07 111.312C160.717 110.867 161.518 110.663 162.042 108.929Z" fill="#6572A4"/>
<path d="M166.669 114.693C168.34 115.979 167.324 117.581 165.384 117.478C164.88 117.094 164.534 116.695 164.102 116.237L164.499 116.203C165.876 116.084 166.178 116.044 166.669 114.693Z" fill="#6572A4"/>
<path d="M169.47 98.731C168.51 98.2315 167.605 97.7015 167.843 96.5096C168.136 96.1324 167.953 96.2452 168.388 96.1296C169.309 96.4733 169.118 97.6467 169.755 98.4592C169.499 98.5532 169.6 98.4684 169.47 98.731Z" fill="#6572A4"/>
<path d="M68 186.705L69.8495 187.744L69.2915 188.44C68.8828 187.959 68.3842 187.233 68 186.705Z" fill="#6572A4"/>
</g>
<defs>
<clipPath id="clip0_3594_4584">
<rect width="250" height="192" fill="white"/>
</clipPath>
</defs>
</svg>
