<svg width="250" height="159" viewBox="0 0 250 159" fill="none" xmlns="http://www.w3.org/2000/svg">
<g clip-path="url(#clip0_3594_4531)">
<path d="M84.4817 35.755C84.5041 26.9169 85.4807 16.5116 92.3917 10.1346C100.277 2.85859 114.468 -2.02575 125.06 0.825162C129.491 2.01761 136.979 6.75496 140.36 9.87266C142.028 9.84745 142.812 9.99656 143.984 11.2652C145.972 13.4176 148.05 15.5711 149.958 17.7945C151.683 19.8038 154.36 22.0871 155.73 24.2592C157.739 27.4416 159.019 31.1816 161.074 34.3537C162.735 37.0228 164.937 39.4969 166.477 42.2247C167.816 44.597 168.528 47.4556 169.725 49.9099C172.579 56.5239 177.013 61.1154 182.122 66.0686C187.965 71.7337 194.223 74.7536 201.374 78.4197L220.343 88.1125C223.048 89.507 229.242 92.5741 231.554 94.231C238.136 98.9493 245.216 105.392 250.002 111.861C249.312 112.521 248.321 113.529 247.612 114.118C243.985 109.006 238.608 102.518 233.544 98.7624C230.087 96.1988 224.012 93.1824 220.062 91.0735L202.452 81.6369C189.203 74.5244 174.979 67.0383 167.263 53.477C167.656 52.989 167.808 52.9571 167.895 52.3915C167.5 51.1806 165.872 48.5966 165.168 47.4134C164.62 47.8917 163.974 48.4894 163.378 48.8814C163.398 48.2408 163.441 47.4556 163.422 46.8263C161.57 45.2144 160.357 43.9282 158.494 42.0987C156.942 40.5725 154.463 38.4432 153.011 36.8265C150.707 34.2898 148.556 31.7692 146.129 29.3498C145.017 28.2614 142.856 26.6842 141.547 25.8606C138.058 23.3684 137.852 25.5471 136.811 25.8702C135.865 27.0656 139.736 30.6091 140.55 31.3436C141.389 32.0996 142.753 31.6074 143.042 31.842C142.773 32.1138 142.458 33.4188 142.544 33.7686C143.04 35.8023 144.305 37.6374 146.053 38.8203C147.425 39.7485 148.079 39.0963 149.522 38.8203L147.528 40.3157C149.449 44.1698 148.545 42.8457 152.513 43.3064C149.259 44.703 150.71 45.4663 152.015 48.7893C153.132 51.633 155.367 51.3568 157.996 51.2816C157.443 51.9584 157.537 51.9284 156.999 52.6152C155.747 52.5754 156.418 52.4178 155.163 52.2388C154.962 52.7724 154.741 53.3337 154.564 53.8721C155.448 54.8812 156.202 55.5689 156.596 56.8659L156.539 57.1855C156.326 57.2743 155.645 57.5038 155.655 57.6565C155.819 60.3346 157.288 64.5806 158.699 66.7566C159.771 68.4093 160.903 69.0081 162.184 69.761C161.478 69.656 160.777 69.4703 160.121 69.6762C159.467 70.3463 160.24 71.3289 160.641 72.0481L158.903 74.1182C157.503 71.3324 157.688 70.3607 156.743 67.5915C156.294 66.275 154.513 64.019 154.236 62.4285C153.957 60.8374 154.253 59.6745 154.025 58.0559C153.615 57.5893 152.085 55.87 152.731 55.2384C153.271 54.7101 154.302 53.2704 153.604 52.6152C152.084 52.4324 151.826 54.1639 151.33 55.2437C150.469 57.1155 150.347 58.4262 150.363 60.4383C149.03 61.878 148.643 62.5034 148.635 64.5598C148.622 67.5689 151.359 71.3504 153.583 73.2483C155.702 75.0556 159.798 78.71 162.735 78.524C163.951 78.4469 164.954 77.54 165.9 77.5376C166.12 77.7646 166.113 77.8589 166.198 78.1658C166.613 78.3585 167.406 78.3674 167.874 78.3785C170.452 78.4397 172.632 77.5061 174.761 76.1336L173.307 77.5517C176.557 80.6992 180.064 83.6825 183.336 86.792L181.648 88.4465C178.354 85.3423 174.785 81.8347 171.435 78.8524C170.224 79.2821 168.984 79.7376 167.767 80.1385C172.28 82.3561 177.087 87.6932 180.752 91.3231L194.957 105.449C198.052 108.532 201.165 111.596 204.296 114.644C205.884 116.19 207.629 117.709 209.095 119.351C210.893 121.363 211.676 124.204 213.03 126.508C215.971 131.752 222.904 142.178 229.477 142.743C228.796 143.406 227.984 144.235 227.277 144.847C222.866 142.642 218.578 140.092 215.542 136.107C212.475 132.083 210.751 127.107 207.841 123.015C205.429 127.569 204.45 132.273 204.871 137.39C204.965 138.516 204.833 142.022 206.078 142.492C209.048 143.617 212.301 144.388 215.37 145.235C220.045 146.541 224.729 147.812 229.423 149.051C234.704 150.435 244.121 152.931 249.321 151.242C248.111 152.64 246.979 153.442 245.098 153.588C238.643 154.094 211.55 147.635 205.739 144.504C204.965 145.851 204.388 146.603 202.796 147.038C202.708 147.062 202.62 147.084 202.532 147.104C199.794 146.549 196.654 145.615 193.957 144.83C187.171 142.853 180.199 141.199 173.438 139.173C174.375 138.289 175.057 137.591 175.924 136.638C182.673 138.52 189.402 140.477 196.107 142.508C193.062 135.405 194.967 128.104 199.25 122.016C198.167 124.972 196.059 131.157 196.59 134.347C196.763 135.389 197.65 137.443 197.789 138.71C197.882 139.571 197.814 139.996 197.835 140.82C198.385 141.795 198.672 141.494 199.505 142.223C198.468 137.777 199.022 132.343 202.107 128.786C200.48 132.952 200.256 137.849 202.088 141.991C202.168 142.175 202.252 142.359 202.337 142.543C201.98 143.07 201.646 143.551 201.331 144.108C201.681 144.625 202.545 144.601 203.076 144.347C203.272 144.139 203.504 143.799 203.438 143.489C201.884 136.196 202.724 128.211 207.212 122.093C200.175 113.835 192.123 108.05 185.357 99.9446C184.461 100.369 183.196 100.937 182.435 101.525C180.376 103.119 180.101 104.287 177.605 105.329C180.289 102.624 181.53 101.4 184.716 99.2059L181.32 95.6417C174.851 98.6397 174.799 100.705 172.105 107.193C170.054 112.132 171.481 114.424 166.646 117.853L166.729 117.693C167.427 116.314 167.949 114.438 168.529 112.902C170.239 108.375 171.833 102.388 175.061 98.6962C176.289 97.2919 178.884 95.7197 180.483 94.8064C179.23 93.5738 177.965 92.3536 176.688 91.146C174.882 92.6696 170.913 96.338 169.072 97.2764C171.017 95.1434 172.997 92.9542 175.187 91.0768C172.245 91.0077 171.413 90.9549 168.62 90.3627C165.855 89.7763 161.369 87.211 158.964 87.6406C154.642 88.4127 149.782 90.9913 145.735 92.7435C147.347 91.5559 149.19 90.1302 150.871 89.0946C145.332 88.7626 144.476 91.6354 140.447 92.7408C141.687 91.9318 143.033 91.0975 144.167 90.1664C143.446 89.9008 142.656 89.629 141.948 89.3454C141.059 89.8882 135.739 93.3112 135.219 93.1973C134.963 92.5634 134.891 92.318 134.728 91.6616C132.27 92.6892 129.556 93.701 126.877 93.9827C120.187 94.6857 111.518 91.9178 105.451 89.425C102.193 88.067 99.0128 86.5291 95.9255 84.8182C89.5672 94.1227 85.8337 107.549 82.1979 118.224C79.3492 126.433 76.4425 134.622 73.4779 142.791L70.7781 150.276C69.9519 152.6 69.1381 155.037 67.9417 157.21C67.4992 158.015 66.3867 158.85 65.6147 159.343C70.8151 146.126 76.0109 131.613 80.7339 118.21C82.8303 112.149 85.0245 106.121 87.3155 100.13C89.4993 94.4206 92.4063 85.8891 97.3986 82.3343L97.5205 82.5048C98.7104 82.746 101.089 84.2236 102.278 84.7938C107.411 87.2548 112.883 90.3249 118.528 91.316C120.84 91.722 124.212 91.7228 126.547 91.7047C128.885 91.6864 131.834 91.5142 134.068 90.8562C135.031 90.5727 135.959 89.9709 136.345 89.0335C137.204 86.9523 137.289 84.5207 137.977 82.3183C139.221 78.3395 140.919 74.5085 142.166 70.5506C142.775 68.6208 142.635 65.2399 143.232 63.2757C144.038 60.6333 144.619 59.1123 145.096 56.3986C145.755 52.6641 144.497 45.232 146.053 42.2446L146.129 42.0987C145.007 40.9534 143.979 39.8427 143.06 38.5228C142.044 37.2104 140.977 34.8932 139.836 33.7686C136.97 30.9454 135.222 30.7129 133.849 26.619C134.637 24.6605 136.042 23.701 137.658 22.4302C134.293 20.0296 134.799 16.9919 137.368 14.2416C137.255 13.4991 137.406 12.7952 137.513 12.0483C136.962 10.7619 132.797 7.77494 131.497 6.94641C124.383 2.41764 119.137 1.07382 110.811 3.04041C105.196 4.36667 104.662 3.92882 99.1788 6.91952C98.2805 7.50916 91.7117 12.4886 91.1562 13.3994C87.5545 19.3037 86.309 25.7969 86.775 32.6294C86.851 33.7438 86.8734 35.0626 87.0982 36.1213L87.3158 36.1515C87.9218 35.5818 88.1114 34.4346 88.3736 33.6529C89.5772 30.0639 91.584 26.699 93.3203 23.3352L93.4441 23.4181C93.0586 24.5803 92.6796 25.7457 92.2361 26.8915C91.9465 27.6394 91.2266 28.2397 91.1562 28.85C91.8327 29.203 92.6696 28.1785 93.5335 28.1873C93.9135 28.6833 93.3479 29.6406 92.9132 29.9715C92.1958 30.5177 91.0813 30.434 90.459 31.1427C89.6445 32.1927 89.4328 34.4888 88.9588 35.7719C88.2964 37.565 87.2924 38.9548 86.7958 40.7828C86.5771 41.588 86.7465 41.894 86.0567 41.9846C85.2894 42.2514 84.6803 43.8041 84.4749 44.5629C83.7968 47.0595 83.7409 49.0393 83.2884 51.5087C83.0465 52.8299 81.9263 54.6089 81.4497 55.8928C80.1914 58.7884 78.7251 62.322 78.3828 65.4686C78.3259 65.9925 78.5109 67.4835 78.5794 68.0396C79.2858 67.0965 80.0207 66.0788 80.7431 65.1562C81.1558 67.001 76.5394 73.6177 73.6557 77.3313C69.6689 82.4653 65.5628 87.7881 61.2027 92.6145C58.7995 95.2747 41.6921 112.013 39.127 114.549L38.341 113.742C40.7308 111.433 57.2217 95.5583 59.4073 93.0921C53.6195 92.0784 46.9602 92.3667 42.1762 96.1163C36.9796 100.189 29.7952 110.75 29.6975 117.537C30.4791 117.115 32.6336 115.788 33.2828 115.592L33.3984 115.682L33.0117 116.287L33.1105 116.431C35.1458 116.461 36.8308 114.918 38.3897 113.704L39.127 114.549C38.4602 115.093 33.4835 118.124 33.0587 118.373C33.0076 118.296 32.8435 118.173 32.7636 118.105C31.1361 117.7 27.1631 121.811 25.7578 122.951C26.0264 122.61 26.0533 122.597 26.1037 122.181L26.9393 121.293C27.5383 113.994 31.9619 104.732 37.2184 99.6637C38.7279 98.2083 40.0337 97.1564 41.6305 95.8857C48.5088 90.4114 53.2702 90.8504 61.3172 90.8262C64.6639 87.3381 67.8485 83.1946 70.8542 79.406C72.797 76.9568 74.4491 74.0655 76.2337 71.4678L75.7303 71.3133L75.8562 71.0424C76.12 65.533 74.053 61.0075 70.5907 56.825C71.347 55.1275 72.3215 54.0589 73.925 53.1105C76.4411 51.6226 78.5884 52.7731 80.8437 54.074C81.3361 52.4541 81.5902 49.3338 81.7848 47.574C81.6947 47.4627 81.6474 47.3958 81.5631 47.2826L81.4348 47.1128C80.7445 46.1807 80.6319 44.8761 80.5812 43.7412C80.4063 39.824 81.1573 37.7331 84.4817 35.755Z" fill="#6572A4"/>
<path d="M84.0529 44.3825C83.4131 43.5287 82.8137 42.7561 83.1376 41.63C83.9222 40.6964 84.583 41.1813 85.5336 41.6381C85.7442 41.7977 85.8141 41.8709 86.0554 41.9846C85.2881 42.2514 84.679 43.8041 84.4736 44.5629L84.0529 44.3825Z" fill="#F7F9FF"/>
<path d="M85.5353 41.6379C85.746 41.7975 85.8158 41.8707 86.0572 41.9844C85.2899 42.2512 84.6808 43.8039 84.4754 44.5628L84.0547 44.3824C84.5039 43.4665 85.0397 42.5343 85.5353 41.6379Z" fill="#F7F9FF"/>
<path d="M145.896 61.4731C146.972 62.3427 146.472 68.1508 147.28 69.6886C149.395 73.7158 153.416 78.594 157.625 80.4438C159.548 81.289 163.276 80.6841 165.378 82.1589C168.85 83.9781 171.282 86.3041 174.213 88.832C168.524 88.5166 166.077 85.9295 160.98 85.8555C158.092 85.9257 156.491 86.5517 153.833 87.5141C153.371 87.3038 152.542 86.9145 152.056 86.865C148.124 86.4641 147.576 89.5773 143.739 86.8075C142.146 87.4582 137.809 91.0208 136.852 90.9875C136.839 90.2553 138.387 87.4157 138.736 86.2329C139.314 84.2765 139.365 82.0822 140.026 80.2817C140.964 77.2253 143.176 73.4337 143.788 70.3671C144.513 66.7271 144.165 65.2061 145.896 61.4731Z" fill="#F7F9FF"/>
<path d="M139.053 14.8948C140.353 14.9368 155.102 28.0142 156 29.627C157.098 31.5988 161.443 38.8849 162.978 41.4571C162.187 41.0357 160.758 41.9704 160.019 41.4571C157.197 39.2913 152.168 34.0282 150.228 31.0652C150.65 30.6079 151.211 30.076 151.658 29.627C150.996 29.9449 150.396 30.1687 149.711 30.4296C147.817 29.1591 144.708 25.525 143.736 23.3845C143.539 22.9482 144.099 22.4914 144.253 22.0597C143.88 22.1592 143.403 22.4086 143.059 22.3407C141.285 21.9913 139.635 20.3191 138.495 19.0564C137.774 18.256 136.485 16.9451 136.601 15.9502C136.931 15.5702 138.568 15.0545 139.053 14.8948Z" fill="#F7F9FF"/>
<path d="M77.2075 62.7748C76.8865 61.3745 76.6368 60.1553 76.0965 58.7953C76.0099 58.3136 74.6475 57.2977 74.7829 56.8747C76.0203 53.0078 78.3879 54.6001 79.8861 56.3237L79.7242 56.839C79.4338 58.307 77.9726 61.4461 77.2075 62.7748Z" fill="#F7F9FF"/>
<path d="M148.888 53.5977C149.501 54.2578 150.101 54.9728 150.691 55.6574L148.535 59.1567C148.346 59.2979 148.456 59.2516 148.171 59.2232C147.704 58.7485 147.29 57.9205 146.953 57.3201C146.967 56.518 147.074 55.6689 147.159 54.8664C147.722 54.4275 148.3 54.0043 148.888 53.5977Z" fill="#F7F9FF"/>
<path d="M147.48 43.627C148.071 44.0948 148.661 44.7479 149.19 45.3004C149.279 46.122 149.83 48.6124 149.49 49.1145L147.164 47.3347C147.18 46.1816 147.221 44.7344 147.48 43.627Z" fill="#F7F9FF"/>
<path d="M139.763 11.7593C140.923 11.8683 145.324 16.2384 145.642 17.2559L145.415 17.2579C144.132 16.359 143.089 15.1218 141.664 14.3021C140.78 13.7945 139.328 13.7423 139.102 12.8387C139.23 12.2846 139.369 12.1831 139.763 11.7593Z" fill="#F7F9FF"/>
<path d="M147.175 51.8698C147.908 51.8413 148.73 51.7167 149.246 52.3081C149.105 52.6894 149.087 52.6015 148.672 52.8861L147.141 53.7329L147.175 51.8698Z" fill="#F7F9FF"/>
<path d="M0 158.234C1.67968 145.275 7.61833 138.131 17.5107 129.949L17.8382 130.134C15.6399 132.169 12.7909 134.705 10.7509 136.815C6.87354 140.827 4.13701 147.355 3.04305 152.793C5.82788 148.332 9.21599 143.786 12.4581 139.626C13.1758 138.706 15.3364 136 16.1279 135.219L16.9042 135.492C14.084 138.643 10.5282 143.244 7.98903 146.672C5.22091 151.125 3.84961 154.435 0 158.234Z" fill="#6572A4"/>
<path d="M32.7663 118.105C32.8462 118.173 39.2201 114.331 39.2712 114.407C32.4787 119.785 21.1537 130.522 15.9219 136.483L16.1361 135.22C19.5641 130.978 24.0619 126.546 27.9296 122.693C29.4682 121.16 31.327 119.663 32.7663 118.105Z" fill="#6572A4"/>
<path d="M19.0469 128.585C20.2343 127.404 21.4702 126.271 22.7516 125.192L23.3574 125.402C23.4801 126.305 22.7655 126.863 22.1843 127.527C20.673 127.729 20.5569 127.724 19.4041 128.718L19.0469 128.585Z" fill="#6572A4"/>
<path d="M26.0992 122.181C26.0487 122.597 26.0218 122.61 25.7532 122.951C25.133 123.489 23.5871 124.7 23.3558 125.402L22.75 125.193C23.4582 124.436 25.2559 122.931 26.0992 122.181Z" fill="#6572A4"/>
<path d="M19.0493 128.585L19.4065 128.719C18.9311 129.155 18.3294 129.738 17.8431 130.135L17.5156 129.949L19.0493 128.585Z" fill="#6572A4"/>
<path d="M106.708 12.5857L106.851 13.1061C107.674 13.3639 108.789 13.0673 109.287 13.6127C109.513 15.6247 107.151 14.7131 106.113 14.3526C105.092 15.4213 104.746 16.1044 104.11 17.4458C104.998 17.4972 106.103 17.4792 107.009 17.4896C106.302 18.4688 105.97 18.7344 104.934 19.3437C104.362 19.2811 103.791 19.2115 103.222 19.1347C102.284 20.0222 101.549 21.6754 100.714 22.7425C99.7857 23.928 98.7955 24.797 97.9844 26.0654C98.816 26.0474 99.9877 25.8686 100.744 26.0576C101.258 26.8691 99.1412 28.4186 98.5131 28.8223L96.6628 28.8329C96.1333 30.2754 96.2781 31.6351 95.4908 33.2607C94.4356 35.2939 93.3387 37.8559 92.0797 39.7472C89.9401 42.9617 89.0123 43.652 88.7398 47.6792C87.893 48.3846 87.2995 48.7702 86.3836 49.3655C86.347 48.4477 86.3798 47.5468 86.403 46.6297C87.7637 44.9476 89.897 42.1039 90.9668 40.2867C92.9911 36.8477 94.0128 32.1694 95.63 28.7047C96.1544 27.5755 96.7869 26.4995 97.5185 25.4919C98.7149 23.8295 103.221 18.6663 100.801 16.6537C99.8605 16.834 99.4809 18.0748 98.7769 18.7599C97.9505 19.5644 96.8796 19.3789 95.7967 19.3348C95.1576 19.973 94.7667 20.557 94.2478 21.2844C95.0449 18.3565 96.8117 15.2695 99.8498 14.0551C101.954 13.214 103.13 15.4716 103.613 17.1749C104.505 15.5748 105.598 14.0408 106.708 12.5857Z" fill="#6572A4"/>
<path d="M98.1625 15.7407C98.9681 16.1763 99.3449 16.6048 99.1209 17.5181C98.6863 17.9356 98.6973 17.8159 98.0023 17.8883C97.5017 17.8227 97.4737 17.828 97.0486 17.5752C96.6491 16.6909 97.491 16.1916 98.1625 15.7407Z" fill="#F7F9FF"/>
<path d="M122.023 32.3347C123.92 31.1744 127.865 27.9793 129.474 28.7136C133.575 30.5853 125.036 38.3747 123.471 40.3253C122.763 41.2096 121.947 41.6397 121.254 42.5279C119.694 44.6307 118.858 46.1044 117.029 48.0265C116.923 50.0202 116.554 53.7197 115.907 55.5552C114.176 60.4676 108.188 73.4423 105.066 76.911L104.719 76.7566C105.873 74.8936 107.152 72.1292 108.12 70.0855C110.123 65.8531 112.327 61.4624 113.702 56.9872C114.33 54.9435 113.448 51.9688 114.473 50.281C115.309 48.9059 116.87 47.4246 117.747 45.9732C118.395 44.9009 118.722 43.1853 119.549 42.3186C120.403 41.4224 122.005 41.066 123.025 40.2696C124.087 39.4391 124.045 38.239 124.846 37.3145C125.739 36.2865 127.388 35.6807 128.089 34.437C128.559 33.6026 128.599 32.4697 128.364 31.5518L128.124 31.4109C127.399 31.5457 126.511 32.1651 125.594 32.4777L125.44 32.5293L123.699 31.9717C122.971 32.1151 122.766 32.2156 122.093 32.5096L122.023 32.3347Z" fill="#6572A4"/>
<path d="M107.542 11.62C111.265 7.73598 114.174 10.2044 113.764 14.5194C113.467 17.6399 110.15 21.7364 108.972 25.0302C110.559 23.4186 111.283 22.1725 112.508 20.2821C112.886 20.7385 113.088 21.0593 113.613 21.3339C113.995 21.3607 114.219 21.3547 114.603 21.3386L114.693 21.5172C114.1 22.4643 111.659 22.9554 110.873 23.581C110.26 24.068 109.564 25.8286 109.007 26.5308C107.888 27.9416 106.355 28.9768 105.281 30.3797C104.941 30.8242 104.686 31.9528 104.536 32.5259C105.354 31.821 107.107 30.1384 108.048 30.0265C109.366 30.8147 106.518 33.6237 104.626 32.5992L104.13 31.8789L103.975 31.8909C103.629 32.7619 103.676 33.4379 103.394 34.2196C102.273 37.3371 100.426 41.175 97.7969 43.2116C98.8204 41.1392 99.9179 39.1382 100.957 37.0848C101.345 36.3183 101.6 34.3003 102.09 33.489C103.274 31.527 105.001 29.8616 106.295 27.9382C107.184 26.6159 106.918 25.4815 107.523 24.2267C108.006 23.2253 109.099 21.9833 109.721 21.0275C111.305 18.5977 112.241 15.9845 111.301 13.1622C110.875 12.7553 110.541 12.9301 109.97 13.0451C109.618 12.4075 110.289 12.009 109.779 11.5737C109.085 11.5192 108.424 11.8636 107.77 12.1332L107.542 11.62Z" fill="#6572A4"/>
<path d="M112.711 19.9061C113.85 18.3047 115.231 16.3788 117.049 15.5608C122.277 13.209 121.781 18.9861 120.157 21.9296C118.663 24.4142 117.369 28.5551 115.215 30.4709C111.738 33.5628 113.044 36.5633 111.039 40.7042C112.225 39.8041 113.584 38.1165 114.645 37.4008L115.295 37.3428C116.182 37.6164 117.374 37.1275 117.963 37.6063C117.912 38.2969 116.502 40.1271 115.784 40.0898C115.234 39.2864 115.985 37.8078 115.077 37.51C113.728 38.0002 110.192 43.4088 108.187 44.8642L107.711 44.6493C111.395 40.4861 109.46 37.1382 111.308 34.0164C111.78 33.2181 112.615 32.5897 113.274 31.942C115.453 29.8004 119.233 22.0847 119.149 18.9346C119.136 18.4642 119.041 18.2346 118.716 17.9153C118.099 18.0034 117.977 18.3131 117.311 18.6896L117.036 18.5932C116.85 17.7244 117.855 17.4872 117.168 16.721C116.238 16.5381 114.742 17.5868 114.424 18.4448C114.757 18.7981 115.855 18.8833 116.579 19.3683L116.596 19.5701C115.763 20.2581 113.749 19.9898 112.711 19.9061Z" fill="#6572A4"/>
<path d="M218.136 121.11C225.023 126.937 229.927 129.337 238.409 132.289C237.711 132.699 236.871 133.32 236.194 133.793C235.495 133.748 232.695 132.391 231.946 132.042C226.428 129.466 220.839 126.87 216.047 123.07L218.136 121.11Z" fill="#6572A4"/>
<path d="M88.0391 49.9131C88.0279 50.2487 87.8613 50.7738 87.7452 51.0969C86.2375 55.2885 85.0503 61.7452 80.8133 63.976C80.7807 63.8206 81.7894 62.5024 82.0412 62.0786C83.4965 59.6287 84.1728 56.5716 85.0404 53.8678C85.7656 51.6079 85.9461 51.039 88.0391 49.9131Z" fill="#6572A4"/>
<path d="M179.956 126.519L180.059 126.651C179.429 128.489 179.086 130.682 180.364 132.309L178.637 133.367L178.218 133.482L177.98 133.271C177.5 131.917 177.596 130.139 178.072 128.789C178.452 127.713 179.132 127.239 179.956 126.519Z" fill="#6572A4"/>
<path d="M177.187 72.3103C177.564 74.3889 171.72 75.9189 170.262 76.2783L170.242 76.1108C170.741 74.413 174.514 73.7777 175.885 73.1776C176.384 72.959 176.765 72.6499 177.187 72.3103Z" fill="#6572A4"/>
<path d="M114.641 37.401C116.616 35.6207 119.721 33.7899 122.019 32.335L122.089 32.5098L122.165 32.8076C122.87 33.1758 123.27 33.1151 123.958 33.3405C123.536 34.0117 122.981 34.9116 122.268 35.2935C121.301 35.2875 121.802 34.2541 121.091 33.8872C119.58 33.9635 116.383 36.2472 115.291 37.3429L114.641 37.401Z" fill="#6572A4"/>
<path d="M96.9125 44.9114C97.2873 44.9837 97.1393 44.8983 97.3948 45.1275C96.4748 47.0999 96.6023 47.4682 95.0097 49.0015L94.7929 49.0776L94.6328 48.8895C94.6944 47.4088 95.6969 45.7463 96.9125 44.9114Z" fill="#6572A4"/>
<path d="M104.713 76.7566L105.06 76.9111C102.708 79.9122 100.948 81.0524 97.5126 82.5047L97.3906 82.3342C100.323 80.3274 102.494 79.6033 104.713 76.7566Z" fill="#6572A4"/>
<path d="M93.3203 23.3353C93.571 22.7635 93.8827 21.9646 94.2405 21.4817C94.6148 21.6508 95.021 21.8462 95.4285 21.9173C96.2213 22.0556 97.1114 21.38 97.6367 22.0324C97.2957 23.5998 94.1883 22.4331 93.4441 23.4181L93.3203 23.3353Z" fill="#6572A4"/>
<path d="M105.34 47.3824C104.712 48.5087 104.402 50.3549 103.031 50.8567L102.819 50.7142C102.603 49.2783 103.992 47.9111 104.99 47.0757L105.34 47.3824Z" fill="#6572A4"/>
<path d="M107.71 44.6492L108.187 44.8641C107.23 45.8641 106.415 46.509 105.343 47.3823L104.992 47.0756C106.049 46.231 106.739 45.5874 107.71 44.6492Z" fill="#6572A4"/>
<path d="M106.711 12.586L107.55 11.6204L107.779 12.1335C107.282 12.5061 107.158 12.5735 106.854 13.1064L106.711 12.586Z" fill="#6572A4"/>
<path d="M139.17 30.0847C130.254 27.5375 123.745 26.6703 115.82 29.076" stroke="#6572A4" stroke-width="1.13561"/>
</g>
<defs>
<clipPath id="clip0_3594_4531">
<rect width="250" height="159" fill="white"/>
</clipPath>
</defs>
</svg>
