<svg width="250" height="170" viewBox="0 0 250 170" fill="none" xmlns="http://www.w3.org/2000/svg">
<path d="M89.3769 80.9361C90.203 75.2915 90.7999 70.4731 90.0876 64.7492C89.6033 60.8589 88.7941 59.57 87.6583 56.0655C87.0432 54.1169 86.5235 52.1395 86.1009 50.1401C84.833 44.2091 84.2659 38.5805 84.7213 32.5195C84.9989 28.8257 86.0019 26.9806 86.9716 23.7383C92.4982 5.25781 106.943 -0.08759 125.078 2.68843C137.214 4.54626 148.116 10.3547 155.749 20.4143C158.615 24.245 159.162 28.0335 159.387 32.7C159.437 33.7374 159.296 36.321 159.527 37.1429C160.207 39.5548 161.623 40.5161 161.273 43.3941C160.996 45.6704 159.001 46.313 158.481 48.0605C158.365 48.4525 159.362 50.549 159.637 51.1228C160.456 52.8321 161.423 54.5585 162.291 56.2767C163.694 59.056 167.383 63.6672 163.877 66.2732C162.619 67.2081 160.648 67.2374 159.427 67.8316C159.395 69.8191 160.076 72.3014 157.656 72.7668C158.937 79.3678 154.756 77.3238 155.423 79.6005C156.677 83.8866 156.702 87.2881 154.103 91.2025C153.059 92.6826 151.11 94.5185 149.178 94.8754C144.788 95.0957 134.806 90.9875 131.008 89.208C130.404 90.9753 129.835 92.4489 128.984 94.1224C138.26 101.3 145.942 110.336 151.538 120.653C152.706 122.865 153.827 125.102 154.899 127.363C155.319 128.258 156.439 131.023 156.992 131.767C161.339 137.617 166.462 144.052 172.349 148.373C174.347 149.839 177.935 151.198 180.092 152.154L191.603 157.268L206.937 164.136C209.453 165.264 212.899 166.942 215.389 167.848C213.325 167.855 208.166 168.008 206.381 167.699C205.545 167.556 200.416 165.043 199.256 164.527C193.547 162.045 187.864 159.502 182.209 156.899C178.83 155.309 174.884 153.426 171.843 151.332C170.511 150.416 168.137 148.009 166.892 146.81C164.714 144.722 162.522 142.647 160.32 140.585C161.843 145.91 162.774 149.798 163.598 155.338C164.042 158.311 164.301 162.056 164.806 164.846C166.19 165.876 167.592 166.882 169.013 167.86C166.101 167.954 163.187 168.02 160.274 168.059C154.598 158.429 143.845 151.932 135.24 145.208C128.949 140.293 122.422 135.352 116.312 130.232L116.634 126.374L135.983 142.096C139.562 144.997 143.543 148.398 147.148 151.139C146.184 149.76 144.383 147.047 143.302 145.907C141.728 144.249 139.893 142.5 138.27 140.834C135.213 137.686 132.214 134.486 129.271 131.233C128.657 130.557 126.581 128.376 126.277 127.692C126.409 127.407 126.555 127.359 126.824 127.195C127.229 127.26 140.874 142.542 143.109 144.187C144.316 145.074 147.811 147.821 149.064 148.83C147.116 144.561 144.608 140.406 142.366 136.282C141.329 134.377 140.35 132.432 139.25 130.567C138.11 128.749 136.156 127.326 135.134 125.373C134.614 124.337 132.369 119.932 132.439 118.865C132.815 118.543 132.675 118.566 133.084 118.539C133.566 118.872 133.942 120.172 134.133 120.732C135.439 124.565 137.469 126.969 140.103 129.913C140.747 130.632 142.272 133.858 142.888 134.993L146.785 142.015C145.554 130.599 140.367 120.622 133.833 111.375C133.341 110.68 133.543 110.68 134.21 110.294C134.591 110.448 135.44 111.876 135.732 112.307C138.881 116.931 141.608 121.595 143.801 126.759C145.41 130.488 146.581 134.391 147.293 138.391C147.588 140.131 147.82 142.214 148.06 143.846C148.179 144.652 149.871 147.99 150.368 149.012C151.303 150.944 152.044 153.455 152.93 155.222C153.631 156.621 156.475 159.376 157.704 160.674C159.521 162.608 161.303 164.573 163.051 166.571C164.729 144.847 150.031 117.128 134.44 102.753C134.21 102.385 133.833 102.385 133.473 101.87C130.631 99.8764 127.101 99.6223 123.91 98.4858C117.369 96.1564 110.869 93.6741 104.201 91.7245C103.337 91.4719 102.466 91.21 101.619 90.907C98.8141 89.8828 96.0763 88.6834 93.4214 87.3161C92.7742 86.9859 89.1466 85.3854 89.0346 85.04L88.7533 84.8594C86.7528 83.3049 86.0363 83.124 84.1774 81.1254C81.741 83.7042 79.3098 86.2131 78.6297 89.7874C78.3382 91.3191 77.7122 93.8993 76.9234 95.2126C75.468 97.6358 73.4045 99.0491 71.9625 101.759C67.8042 109.573 63.531 120.93 61.9131 129.609C61.3282 132.747 61.4585 144.016 61.5278 147.378C61.6461 153.131 62.2353 163.077 64.6533 168.062C63.8646 168.005 62.8749 167.959 62.1097 167.841C61.1503 162.73 60.7604 158.176 60.4685 153.025C59.7017 139.505 60.8827 126.463 65.1357 113.526C66.7215 108.702 68.7055 103.666 71.5606 99.4178C73.2527 96.8999 75.5065 95.0279 76.9549 92.3565C77.77 90.8532 77.2236 88.7389 77.4885 87.5787C78.2627 84.1881 82.6687 79.0497 84.9542 76.4592C86.5042 78.4078 87.4676 79.3007 89.3769 80.9361Z" fill="#6572A4"/>
<path d="M112.463 5.13162C116.122 4.79765 121.853 5.88949 125.385 6.79565C135.967 9.50994 149.444 15.0169 155.306 24.8687C147.161 22.6349 139.514 24.1797 131.838 27.1039C132.617 29.3767 134.145 32.7619 135.096 35.0401C133.365 37.7474 131.498 40.3671 129.782 43.0863C129.974 52.8524 130.803 64.9578 139.504 71.1569C141.684 72.71 143.717 73.6862 146.142 74.8253L151.169 68.1765C152.214 68.1807 157.649 68.0404 158.301 68.1472C158.625 68.5221 158.524 68.3946 158.631 68.9402C158.301 69.9296 157.446 69.8421 157.13 70.7159C156.62 72.1226 157.234 73.7344 156.352 75.062C156.1 75.7073 154.63 75.7381 154.377 76.1933C152.713 79.1716 155.004 82.801 155.292 86.0647C154.254 88.2217 151.476 92.1583 148.687 91.385C142.865 89.7701 125.74 84.5798 122.369 80.0518C122.206 76.8047 123.273 71.7025 123.907 68.4067C124.679 64.3881 125.375 60.7744 125.922 56.6978C124.541 58.3261 123.552 59.2315 121.531 59.8363C119.244 59.3245 117.436 57.9697 115.605 56.5708C113.615 54.9999 110.808 52.2541 110.266 49.7027C109.601 46.577 112.572 41.6866 115.741 40.9706C117.334 40.6106 119.896 41.8697 121.185 42.7548L122.149 39.5845L122.033 39.5169C116.585 36.4 113.739 38.9604 110.446 43.7438C109.238 45.4984 108.621 50.0081 109.423 52.0581C110.773 55.5075 113.539 60.1105 116.873 61.9682C118.961 63.0337 121.006 62.8029 123.096 62.1372C122.404 68.4003 120.378 76.1213 121.519 82.5296C121.812 84.1722 128.538 87.8454 130.219 88.7697C128.917 91.7394 127.179 93.218 124.842 95.3524C120.673 93.4443 116.391 91.7936 112.02 90.4096C103.842 87.7873 97.1596 86.5134 89.9571 81.3446C90.5618 75.5758 91.9894 69.4161 91.3929 63.4823C91.0151 60.7791 89.7856 58.2738 89.0363 55.6499C86.9262 48.2608 84.5993 39.1518 85.6939 31.4175C86.4874 25.8102 89.9777 18.9447 93.5748 14.6511C98.3886 8.90525 105.007 5.71763 112.463 5.13162Z" fill="#F7F9FF"/>
<path d="M144.641 24.9029C148.826 24.565 152.004 25.0906 156.024 26.0566C157.124 28.1573 158.51 31.5455 158.426 33.8482C158.318 36.8061 158.491 37.9623 159.669 40.7437C160.903 43.6633 158.107 44.6954 157.677 45.8875C155.695 51.3777 161.985 57.7657 163.569 62.75L163.625 62.9245C161.967 64.6804 160.388 64.418 158.557 65.6153C158.167 65.8703 158.176 66.6003 158.148 67.0721C155.663 67.1816 153.175 67.2296 150.686 67.2162C149.736 68.5441 148.513 70.0405 147.501 71.3492C147.027 71.8976 146.362 72.8244 145.901 73.4239C143.081 72.1723 140.659 70.8496 138.361 68.7382C131.714 62.6327 131.205 51.7493 130.898 43.2982C132.63 40.5962 134.583 37.7976 136.383 35.1322L133.22 27.6021C137.635 26.0783 139.983 25.3379 144.641 24.9029Z" fill="#F7F9FF"/>
<path d="M81.9357 136.936C82.4428 137.452 83.8089 140.678 84.1738 141.507C85.5362 144.589 86.8398 147.699 88.0838 150.831C90.8795 157.84 92.8214 163.226 99.2701 167.845L93.8956 167.833C93.1049 166.35 90.4598 165.257 88.9477 164.445L79.4578 159.367C78.6819 158.956 75.7576 157.643 75.4437 157.056C75.4181 156.591 75.3454 156.777 75.5971 156.458C76.3056 156.358 82.9114 160.086 84.011 160.677C86.7499 162.152 89.7507 163.697 92.4138 165.265C90.588 161.144 90.586 161.804 87.6793 158.859C86.4122 157.576 79.7096 149.209 79.3905 147.933C79.6467 147.672 79.6417 147.63 80.0084 147.57C80.4645 147.773 80.77 148.139 81.0352 148.555C83.6116 152.59 86.7185 156.16 89.9162 159.696C87.4132 153.315 84.0141 147.036 81.506 140.648C81.2633 140.031 81.7863 137.671 81.9357 136.936Z" fill="#6572A4"/>
</svg>
