<svg width="32" height="44" viewBox="0 0 32 44" fill="none" xmlns="http://www.w3.org/2000/svg">
<path d="M16 2.24414C16.3757 2.67085 16.8348 3.19881 17.3545 3.81348C18.836 5.56583 20.8083 8.00947 22.7773 10.7793C24.7497 13.5539 26.6985 16.6271 28.1484 19.6406C29.6113 22.6809 30.5 25.5265 30.5 27.8809C30.4999 31.7616 28.9694 35.4809 26.249 38.2217C23.5289 40.9621 19.842 42.5 16 42.5C12.158 42.5 8.47113 40.9621 5.75098 38.2217C3.03059 35.4809 1.50007 31.7616 1.5 27.8809C1.5 25.5265 2.38871 22.6809 3.85156 19.6406C5.30153 16.6271 7.25025 13.5539 9.22266 10.7793C11.1917 8.00947 13.164 5.56583 14.6455 3.81348C15.1652 3.19881 15.6243 2.67085 16 2.24414Z" stroke="#E9EFFF" stroke-width="3"/>
<path d="M16 39C13.0826 39 10.2847 37.8301 8.22183 35.7476C6.15893 33.6651 5 30.8406 5 27.8955C5 20.4925 16 8 16 8C16 8 27 20.4925 27 27.8955C27 30.8406 25.8411 33.6651 23.7782 35.7476C21.7153 37.8301 18.9174 39 16 39Z" fill="#E9EFFF"/>
</svg>
