<svg width="39" height="47" viewBox="0 0 39 47" fill="none" xmlns="http://www.w3.org/2000/svg">
<path d="M19.3867 1.04492C19.4555 0.986492 19.5616 0.984667 19.6318 1.04199V1.04297L23.125 3.92871L23.1826 3.97656L23.2471 4.01465C23.4353 4.12778 23.6164 4.24747 23.79 4.375C27.001 6.73425 30.1071 8.50758 34.207 10.3496C36.5008 11.3802 37.9998 13.5739 38 15.9912V40L37.9922 40.3076C37.8296 43.4624 35.1806 45.9921 31.9092 45.9922H7.09082C3.71373 45.9921 1.00003 43.2963 1 40V16.043C1.00019 13.6042 2.5267 11.3941 4.85156 10.3711C9.04392 8.52636 12.1465 6.75464 15.2646 4.42871C15.4443 4.29471 15.632 4.16892 15.8262 4.05078L15.8936 4.00977L15.9541 3.95898L19.3867 1.04492Z" stroke="#E9EFFF" stroke-width="2"/>
<path d="M18.8876 4.93397C19.2407 4.63323 19.7618 4.62975 20.1189 4.9257L22.9303 7.25612C23.1004 7.35869 23.2674 7.46882 23.4296 7.58838C25.9619 9.45528 28.4109 10.86 31.6669 12.3278C33.7784 13.2797 35.1949 15.3251 35.1949 17.621V37.8241C35.1949 40.9429 32.6397 43.4712 29.4876 43.4712H9.512C6.35996 43.4712 3.80471 40.9429 3.80469 37.8241V17.6628C3.80469 15.3461 5.24742 13.287 7.38569 12.343C10.7138 10.8736 13.1564 9.4717 15.6099 7.63526C15.7769 7.51031 15.949 7.395 16.1246 7.28783L18.8876 4.93397Z" fill="#E9EFFF"/>
</svg>
