<svg width="24" height="24" viewBox="0 0 24 24" fill="none" xmlns="http://www.w3.org/2000/svg">
<path d="M11.6667 0C5.23833 0 0 5.23833 0 11.6667C0 18.095 5.23833 23.3333 11.6667 23.3333C18.095 23.3333 23.3333 18.095 23.3333 11.6667C23.3333 5.23833 18.095 0 11.6667 0ZM15.5867 14.35C15.925 14.6883 15.925 15.2483 15.5867 15.5867C15.4117 15.7617 15.19 15.8433 14.9683 15.8433C14.7467 15.8433 14.525 15.7617 14.35 15.5867L11.6667 12.9033L8.98333 15.5867C8.80833 15.7617 8.58667 15.8433 8.365 15.8433C8.14333 15.8433 7.92167 15.7617 7.74667 15.5867C7.40833 15.2483 7.40833 14.6883 7.74667 14.35L10.43 11.6667L7.74667 8.98333C7.40833 8.645 7.40833 8.085 7.74667 7.74667C8.085 7.40833 8.645 7.40833 8.98333 7.74667L11.6667 10.43L14.35 7.74667C14.6883 7.40833 15.2483 7.40833 15.5867 7.74667C15.925 8.085 15.925 8.645 15.5867 8.98333L12.9033 11.6667L15.5867 14.35Z" fill="#F0F4FF"/>
<path d="M15.5867 14.35C15.925 14.6883 15.925 15.2483 15.5867 15.5867C15.4117 15.7617 15.19 15.8433 14.9683 15.8433C14.7467 15.8433 14.525 15.7617 14.35 15.5867L11.6667 12.9033L8.98333 15.5867C8.80833 15.7617 8.58667 15.8433 8.365 15.8433C8.14333 15.8433 7.92167 15.7617 7.74667 15.5867C7.40833 15.2483 7.40833 14.6883 7.74667 14.35L10.43 11.6667L7.74667 8.98333C7.40833 8.645 7.40833 8.085 7.74667 7.74667C8.085 7.40833 8.645 7.40833 8.98333 7.74667L11.6667 10.43L14.35 7.74667C14.6883 7.40833 15.2483 7.40833 15.5867 7.74667C15.925 8.085 15.925 8.645 15.5867 8.98333L12.9033 11.6667L15.5867 14.35Z" fill="#A6B0D3"/>
</svg>
