<svg width="46" height="46" viewBox="0 0 46 46" fill="none" xmlns="http://www.w3.org/2000/svg">
<path d="M28.2722 10.2722H35.7278V17.7278L41 23L35.7278 28.2722V35.7278H28.2722L23 41L17.7278 35.7278H10.2722V28.2722L5 23L10.2722 17.7278V10.2722H17.7278L23 5L28.2722 10.2722Z" fill="#E9EFFF"/>
<path d="M28.7363 7.15039C29.1113 7.52535 29.6201 7.7362 30.1504 7.73633H38.2637V15.8496C38.2638 16.3799 38.4747 16.8887 38.8496 17.2637L44.5859 23L38.8496 28.7363C38.4747 29.1113 38.2638 29.6201 38.2637 30.1504V38.2637H30.1504C29.6201 38.2638 29.1113 38.4747 28.7363 38.8496L23 44.5859L17.2637 38.8496C16.8887 38.4747 16.3799 38.2638 15.8496 38.2637H7.73633V30.1504C7.7362 29.6201 7.52535 29.1113 7.15039 28.7363L1.41406 23L7.15039 17.2637C7.52535 16.8887 7.7362 16.3799 7.73633 15.8496V7.73633H15.8496C16.3799 7.7362 16.8887 7.52535 17.2637 7.15039L23 1.41406L28.7363 7.15039Z" stroke="#E9EFFF" stroke-width="2"/>
</svg>
