<svg width="20" height="20" viewBox="0 0 20 20" fill="none" xmlns="http://www.w3.org/2000/svg">
<path d="M6.37188 17.4245C6.34688 17.4245 6.31354 17.4412 6.28854 17.4412C4.67188 16.6412 3.35521 15.3162 2.54688 13.6995C2.54688 13.6745 2.56354 13.6412 2.56354 13.6162C3.58021 13.9162 4.63021 14.1412 5.67187 14.3162C5.85521 15.3662 6.07188 16.4079 6.37188 17.4245Z" fill="white"/>
<path d="M17.4531 13.7079C16.6281 15.3662 15.2531 16.7079 13.5781 17.5162C13.8948 16.4579 14.1615 15.3912 14.3365 14.3162C15.3865 14.1412 16.4198 13.9162 17.4365 13.6162C17.4281 13.6495 17.4531 13.6829 17.4531 13.7079Z" fill="white"/>
<path d="M17.5198 6.42507C16.4698 6.1084 15.4115 5.85007 14.3365 5.66673C14.1615 4.59173 13.9031 3.52507 13.5781 2.4834C15.3031 3.3084 16.6948 4.70007 17.5198 6.42507Z" fill="white"/>
<path d="M6.37604 2.5748C6.07604 3.59147 5.85938 4.6248 5.68438 5.6748C4.60938 5.84147 3.54271 6.10814 2.48438 6.4248C3.29271 4.7498 4.63438 3.3748 6.29271 2.5498C6.31771 2.5498 6.35104 2.5748 6.37604 2.5748Z" fill="white"/>
<path d="M12.9104 5.49199C10.9771 5.27533 9.02708 5.27533 7.09375 5.49199C7.30208 4.35033 7.56875 3.20866 7.94375 2.10866C7.96042 2.04199 7.95208 1.99199 7.96042 1.92533C8.61875 1.76699 9.29375 1.66699 10.0021 1.66699C10.7021 1.66699 11.3854 1.76699 12.0354 1.92533C12.0437 1.99199 12.0437 2.04199 12.0604 2.10866C12.4354 3.21699 12.7021 4.35033 12.9104 5.49199Z" fill="white"/>
<path d="M5.48906 12.9085C4.33906 12.7001 3.20573 12.4335 2.10573 12.0585C2.03906 12.0418 1.98906 12.0501 1.9224 12.0418C1.76406 11.3835 1.66406 10.7085 1.66406 10.0001C1.66406 9.30013 1.76406 8.6168 1.9224 7.9668C1.98906 7.95846 2.03906 7.95846 2.10573 7.9418C3.21406 7.57513 4.33906 7.30013 5.48906 7.0918C5.28073 9.02513 5.28073 10.9751 5.48906 12.9085Z" fill="white"/>
<path d="M18.3328 10.0001C18.3328 10.7085 18.2328 11.3835 18.0745 12.0418C18.0078 12.0501 17.9578 12.0418 17.8911 12.0585C16.7828 12.4251 15.6495 12.7001 14.5078 12.9085C14.7245 10.9751 14.7245 9.02513 14.5078 7.0918C15.6495 7.30013 16.7911 7.5668 17.8911 7.9418C17.9578 7.95846 18.0078 7.9668 18.0745 7.9668C18.2328 8.62513 18.3328 9.30013 18.3328 10.0001Z" fill="white"/>
<path d="M12.9104 14.5088C12.7021 15.6588 12.4354 16.7921 12.0604 17.8921C12.0437 17.9588 12.0437 18.0088 12.0354 18.0755C11.3854 18.2338 10.7021 18.3338 10.0021 18.3338C9.29375 18.3338 8.61875 18.2338 7.96042 18.0755C7.95208 18.0088 7.96042 17.9588 7.94375 17.8921C7.57708 16.7838 7.30208 15.6588 7.09375 14.5088C8.06042 14.6171 9.02708 14.6921 10.0021 14.6921C10.9771 14.6921 11.9521 14.6171 12.9104 14.5088Z" fill="white"/>
<path d="M13.1335 13.1364C11.0493 13.3994 8.94553 13.3994 6.86129 13.1364C6.59832 11.0522 6.59832 8.94846 6.86129 6.86422C8.94553 6.60125 11.0493 6.60125 13.1335 6.86422C13.3965 8.94846 13.3965 11.0522 13.1335 13.1364Z" fill="white"/>
</svg>
