<svg width="17" height="17" viewBox="0 0 17 17" fill="none" xmlns="http://www.w3.org/2000/svg">
<path d="M12.3333 5.83105H8.95833V11.0394C8.95833 11.3811 8.675 11.6644 8.33333 11.6644C7.99167 11.6644 7.70833 11.3811 7.70833 11.0394V5.83105H4.33333C1.66667 5.83105 0 7.49772 0 10.1644V12.3227C0 14.9977 1.66667 16.6644 4.33333 16.6644H12.325C14.9917 16.6644 16.6583 14.9977 16.6583 12.3311V10.1644C16.6667 7.49772 15 5.83105 12.3333 5.83105Z" fill="white"/>
<path d="M8.96146 2.13125L10.6865 3.85625C10.8115 3.98125 10.9698 4.03958 11.1281 4.03958C11.2865 4.03958 11.4448 3.98125 11.5698 3.85625C11.8115 3.61458 11.8115 3.21458 11.5698 2.97292L8.77813 0.18125C8.53646 -0.0604167 8.13646 -0.0604167 7.89479 0.18125L5.10313 2.97292C4.86146 3.21458 4.86146 3.61458 5.10313 3.85625C5.34479 4.09792 5.74479 4.09792 5.98646 3.85625L7.71146 2.13125V5.83125H8.96146V2.13125Z" fill="white"/>
</svg>
