<svg width="17" height="17" viewBox="0 0 17 17" fill="none" xmlns="http://www.w3.org/2000/svg">
<path d="M13.85 2.13333C12.3833 0.8 10.4417 0 8.30833 0C3.725 0 0 3.725 0 8.30833C0 12.8917 3.725 16.6167 8.30833 16.6167C10.4417 16.6167 12.3833 15.8167 13.85 14.4833C15.55 12.975 16.6167 10.7583 16.6167 8.30833C16.6167 5.85833 15.55 3.64167 13.85 2.13333ZM8.28333 11.9667C8.26667 13.3417 7.24167 13.675 6.28333 13.2917C4.30833 12.5 2.91667 10.5667 2.91667 8.30833C2.91667 6.05 4.30833 4.11667 6.28333 3.31667C7.24167 2.93333 8.26667 3.275 8.28333 4.64167V11.9667Z" fill="white"/>
</svg>
