<svg width="75" height="206" viewBox="0 0 75 206" fill="none" xmlns="http://www.w3.org/2000/svg">
<path d="M65.1805 61.9215C65.1829 61.8599 65.5315 61.3094 65.1177 61.6124C64.7248 62.2269 64.3442 64.2492 63.9181 64.6606C63.7913 64.7837 63.1693 64.9882 63.2124 64.6347C63.2801 64.0829 63.9452 62.9142 64.1607 62.2553C64.8726 60.0815 65.2211 57.7809 66.0401 55.6367C66.2052 55.2057 66.5414 54.8177 66.6572 54.5295C66.7951 54.1847 65.7002 54.4643 65.5512 54.1625C65.9724 53.8719 66.5242 53.8559 66.9885 53.6292C68.773 52.7622 70.4628 49.8877 70.9874 48.0218C71.4296 46.4503 71.2436 44.7372 71.6463 43.2618C72.1722 41.3405 74.575 39.3847 74.4777 37.5312C74.4617 37.2258 74.3792 36.9363 74.0146 37.0028C73.5651 37.0854 71.7411 39.6113 71.3618 40.1434C70.7583 40.9895 70.198 41.8713 69.677 42.7679C69.4516 42.6053 69.5058 42.5253 69.5711 42.3011C69.6314 42.0942 70.2152 41.1496 70.3778 40.8836C70.916 39.9993 71.7325 38.8958 72.4444 38.147C72.852 37.7184 74.0097 36.4733 74.5812 36.8477C75.5849 39.402 72.8471 41.4045 72.1414 43.6312C71.7867 44.7483 71.8631 46.4195 71.5502 47.7201C70.9468 50.2264 69.6401 53.463 67.1523 54.5591L65.4477 60.1049C66.05 61.621 65.8911 63.4979 65.4921 65.0608C65.3098 65.7739 64.795 67.3269 64.2593 67.7691C63.508 68.3886 62.5289 68.4231 61.8626 68.8209C60.9759 69.3504 59.7541 70.8542 58.9597 71.5833C58.2725 72.2151 57.6062 72.8075 56.6333 72.6843C55.6837 72.5649 52.7513 71.9454 51.9582 71.571C50.7525 71.0008 50.2524 70.167 49.6958 69.0241C49.6145 68.8578 49.7746 68.6841 49.4187 68.7543C49.3731 70.534 49.2339 72.3346 49.0479 74.1105C48.7856 76.6156 48.2954 78.5504 48.5578 81.1293C48.8435 83.9447 49.2893 86.4904 49.2992 89.3773C49.3078 91.5769 48.5935 93.2617 49.2068 95.5056C50.096 98.7632 50.4852 101.497 50.6244 104.9C50.6724 106.09 50.1342 107.207 50.1022 108.224C50.0566 109.663 50.5628 111.637 50.6552 113.147C51.1811 121.725 49.5467 129.826 48.8029 138.277C48.5898 140.705 48.8607 143.089 48.0331 145.39C47.5109 146.839 46.5133 148.522 46.2473 150.008C46.0601 151.06 46.1759 152.225 46.0589 153.268C45.8557 155.087 44.6734 157.006 44.4935 158.846C44.3852 159.955 44.4258 161.774 44.4935 162.908C44.6278 165.174 45.6636 167.114 44.0021 169.158C43.8433 169.353 43.4356 169.498 43.3211 169.748C43.0698 170.297 43.9874 171.518 44.0748 172.082C44.1388 172.496 43.842 172.789 44.1253 173.129C44.3667 173.419 46.1931 174.672 46.6242 174.94C50.1157 177.115 53.4866 176.681 55.6763 180.667C56.3192 181.839 56.6936 182.788 55.6419 183.91C54.5901 185.032 53.0112 185.172 51.606 184.983C50.2229 184.797 46.4899 183.887 45.1992 183.384C43.4159 182.691 41.9479 181.241 40.029 180.672C36.9809 179.77 29.7071 181.005 30.4633 175.727C30.5126 175.385 30.8229 174.936 30.8192 174.727C30.8143 174.44 30.3993 174.342 30.3315 173.99C30.1899 173.245 30.467 172.291 30.5483 171.541C28.0543 169.757 30.0889 166.529 30.0926 164.263C30.1 160.372 28.5864 156.531 28.4829 152.808C28.4115 150.237 29.3463 147.583 28.7896 144.99C27.8684 146.64 27.9891 148.534 27.7083 150.312C27.1294 153.974 25.8806 157.021 24.6613 160.443C23.3226 164.2 23.3312 167.903 22.2326 171.685C21.8163 173.118 20.8385 175.008 20.8409 176.449C20.8446 178.398 21.8385 180.315 21.5737 182.234C21.3668 183.735 19.6943 185.636 19.7337 187.041C19.7436 187.389 19.9862 187.951 19.9468 188.265C19.8963 188.679 19.4406 188.663 19.3593 189.019C19.3113 189.513 21.0799 192.02 21.4826 192.567C22.7671 194.308 24.4741 195.866 25.6761 197.61C26.1909 198.358 27.4176 200.195 27.7637 200.942C28.4484 202.422 27.8277 204.145 26.0616 204.221C25.6909 204.237 25.3744 204.04 24.9791 204.108C24.6761 204.16 24.4162 204.494 24.1305 204.62C21.4887 205.789 15.6116 204.33 13.3972 202.501C11.1828 200.672 10.9082 198.848 9.56576 196.726C8.22333 194.604 6.39565 193.792 6.5533 190.983C6.59517 190.24 7.05332 189.186 6.92524 188.53C6.82794 188.027 6.22324 188.057 6.1826 187.889C6.06683 187.413 6.31684 186.674 6.25772 186.24C6.11239 185.165 4.69484 183.828 4.58892 182.119C4.44606 179.802 6.14934 176.455 6.19737 174.115C6.22324 172.895 5.67764 170.914 5.57296 169.558C5.4264 167.663 5.52369 165.663 5.45349 163.766C5.30077 159.669 5.02613 157.132 5.87839 152.994C6.31437 150.879 7.81814 146.951 7.65064 145.066C7.38955 142.138 6.54221 140.673 7.08534 137.451C7.3489 135.892 8.35881 133.081 8.413 131.751C8.46103 130.569 8.15929 128.462 8.03366 127.194C7.70483 123.874 6.87967 120.43 7.04347 117.088C7.16417 114.626 7.81568 112.053 8.03613 109.583L7.29718 109.765C6.72572 106.797 8.36865 103.937 8.15559 100.962C7.98686 98.608 7.6839 97.2483 8.3157 94.8369C8.76031 93.1422 9.98327 91.3367 9.67784 89.5866C9.49064 88.5139 8.82311 87.4006 8.68271 86.2724C8.34526 83.5802 9.70986 81.0604 9.39087 78.3595L9.89582 78.4322C10.0695 78.6748 10.0375 80.6909 10.0116 81.1355C9.88597 83.2797 9.22707 84.7403 9.84902 86.9535C10.3983 88.908 11.12 89.4512 10.4648 91.6865C9.88843 93.6533 9.08421 95.2445 8.91425 97.4023C8.82558 98.5255 9.0879 99.3014 9.14948 100.337C9.3219 103.224 8.06938 105.676 8.03736 108.532C10.45 106.998 12.1964 107.56 14.5229 108.757C16.991 110.027 19.315 111.647 21.8693 112.742C26.2291 114.61 32.3292 115.524 37.0375 115.06C38.0597 114.959 39.0105 114.519 40.0598 114.763C40.2889 114.594 40.1497 113.518 40.1805 113.153C40.401 110.585 41.2261 106.047 40.8875 103.699C40.6461 102.026 39.949 100.194 39.8123 98.4935C39.6596 96.5993 40.0845 94.8985 40.1855 93.0819C40.3185 90.6544 40.082 88.1136 40.0623 85.6924C40.0056 78.66 38.359 71.8395 37.9587 64.8785C37.875 63.4179 38.0006 62.0792 37.8233 60.5803C37.6077 58.7539 36.8811 56.9484 36.9809 55.1453L36.7346 55.0837C35.8577 56.6257 34.6162 58.0383 33.4708 59.3955C32.1075 61.0101 30.5865 62.7664 29.1603 64.3219C28.1652 65.4069 26.7944 66.471 25.8991 67.588C25.1761 68.4896 25.2894 69.1755 24.8485 70.1091C24.2229 71.4306 22.0134 72.8568 20.905 73.9245C20.3705 74.4394 19.2756 76.2399 18.4566 75.6426C17.7866 75.1549 19.0108 72.6585 18.4837 71.8567C15.8395 71.0845 13.0179 70.0832 10.6853 68.6374C10.9698 66.9981 10.4156 65.397 10.4956 63.7615C10.5498 62.6592 10.9488 61.4855 11.1163 60.3808C10.7395 60.1123 9.12855 61.1419 8.77508 61.4252C6.17397 63.5078 6.32792 67.5363 5.07909 70.3554C4.43251 70.348 4.39186 69.7076 4.34506 69.1842C4.18373 67.4045 4.7909 65.2431 5.59143 63.6617L6.43507 62.2282C4.49039 63.5423 3.77485 65.7801 2.3733 67.524C2.3733 67.4636 2.36345 67.3996 2.37084 67.3393C2.42502 66.9008 3.92756 63.7529 4.24038 63.296C5.81435 60.9954 7.43142 60.6481 9.91799 60.1062C11.1557 59.8364 11.6964 58.8044 12.5979 58.4755C13.2174 58.2502 13.9194 58.2785 14.566 58.1036C14.9946 57.9878 17.7238 57.1836 17.7657 56.9865C17.4233 56.4483 17.2324 55.8239 16.8826 55.2919C15.8998 53.793 13.3443 52.6046 11.9193 51.3865C11.6878 51.1882 10.3195 49.8692 10.2542 49.7251C10.2247 49.6598 10.2308 49.517 10.3146 49.5428C10.9587 49.8692 15.6633 53.325 15.9195 53.112L14.1251 49.5465C13.9145 48.7066 14.9195 49.8076 15.1202 50.033C16.1671 51.2079 17.0378 52.8521 17.5218 54.3436C17.7447 54.367 17.6474 53.9335 17.629 53.8041C17.4442 52.511 16.273 49.6167 15.7298 48.3137C14.6485 45.72 13.2519 43.215 11.1176 41.3491C10.535 40.8392 9.64951 40.3638 9.14332 39.8749C9.01031 39.7468 8.85514 39.6594 8.89947 39.4426C12.0105 40.1569 13.8468 42.9994 15.1621 45.6794C16.4897 48.3827 17.3863 51.3114 18.1364 54.2204C18.3519 54.2204 18.2731 53.681 18.2632 53.5393C18.092 50.9592 17.6979 48.4295 17.1474 45.9109C17.5452 45.6461 17.757 46.252 17.8531 46.5599C18.4085 48.3384 19.0009 52.5762 18.8716 54.4051C18.815 55.2106 18.4911 55.9939 18.5046 56.808C18.6241 56.9348 20.1094 56.2501 20.448 56.2168C20.7867 56.1836 20.9567 56.3683 21.3003 56.2267C21.8028 56.0198 22.9014 54.9532 23.4642 54.564C26.5641 52.4248 29.9978 50.6143 32.9745 48.31C34.0152 47.5046 34.7714 45.8284 35.6865 44.8542L35.6224 43.0142C34.9364 43.1411 34.4697 42.7851 33.9302 42.428C33.312 42.0191 29.7034 39.3453 29.5273 38.9487C29.4596 38.7948 29.3857 38.4623 29.5248 38.3354C30.3106 39.3367 31.5668 39.6766 32.6087 40.301C32.7984 40.4143 33.7948 41.2678 33.8982 41.1656C33.3465 39.4574 32.7159 37.7467 31.1087 36.7541C30.8623 36.706 30.0581 37.3428 29.8327 37.5324C28.8401 38.3613 27.4065 39.7788 26.5062 40.7333C26.2574 40.9981 26.101 41.3146 25.8917 41.6053C25.7586 41.6927 25.6072 41.6151 25.4902 41.54C25.2931 41.4131 23.9297 39.5719 23.6994 39.2357C22.0196 36.7664 20.8766 33.9042 19.182 31.4632C17.7164 32.3561 16.1658 33.1591 14.6066 33.8845C13.6164 34.3451 12.5216 34.5618 11.5671 35.1555C10.7296 35.6764 9.5596 37.0927 8.89208 37.4068C8.67532 37.509 8.41053 37.461 8.19254 37.5694C5.06924 39.1261 3.79947 40.9895 3.02357 44.3468C1.97549 48.8852 1.24517 53.9667 0.892932 58.5938C1.1762 60.5557 1.55183 62.5201 1.62942 64.5078C1.70947 66.588 1.22915 68.4538 1.78952 70.5057C2.37945 72.6671 4.31797 74.5995 5.62222 76.4025C6.1986 77.1993 6.14811 77.8127 7.36861 77.9814C8.79233 78.1784 10.5399 77.1279 11.9119 76.6353C13.8911 75.9246 14.8998 75.7658 16.7681 74.5945C17.0575 74.4135 17.6142 73.8888 17.8272 73.8063C17.975 73.7484 18.0723 73.8396 18.0083 73.9874C17.9602 74.0982 17.1745 74.8372 17.0132 74.964C15.5291 76.134 11.0326 77.7806 9.11869 78.4001C6.35624 79.2955 3.79578 76.1315 2.39054 74.0896C0.0160394 70.6399 1.00623 68.3405 0.764842 64.5078C0.605968 61.9794 -0.15515 59.7539 0.0283563 57.1183C0.157673 55.2537 0.864606 53.4765 1.22423 51.6636C2.40286 45.7175 1.92008 40.3121 7.82307 36.956C9.10022 36.2294 9.06204 36.1025 10.1237 35.1924C12.5253 33.1357 16.1905 32.6048 18.9024 30.9508L21.453 25.8644L21.9666 25.2917C22.4654 25.4592 24.2709 25.3643 24.5147 24.953C24.6219 24.7732 24.7845 23.6389 24.7857 23.3778C24.7956 21.7164 24.4618 19.8604 24.4064 18.2039C24.1601 10.8673 25.9557 1.91618 34.3625 0.315119C38.0462 -0.385653 40.151 0.0626438 43.3383 1.8583C47.1033 3.97909 49.4753 6.37329 49.7881 10.9265C49.9113 12.7283 50.0147 16.6127 49.2327 18.1411C48.7474 19.0894 47.2942 20.3062 48.059 21.3371C47.9457 21.3457 47.7732 21.3371 47.687 21.3974C47.2474 21.7028 48.0861 24.7239 47.4432 25.7117C47.2683 25.9801 46.8643 26.2265 46.6501 26.5196C45.6488 27.8891 45.1229 29.6848 44.7337 31.3141C44.9271 31.5161 47.4321 29.2635 47.7696 29.117C49.1268 28.5295 49.309 29.6552 49.1551 30.7488C48.9457 32.244 47.5577 32.5482 46.5786 33.345C45.6229 34.1222 44.4049 35.6949 43.8876 36.8119C43.5415 37.5595 43.4097 38.4364 42.9454 39.0719C42.9922 38.2837 43.3223 37.179 43.6203 36.4215C44.1376 35.1111 45.2842 33.898 46.3311 32.9743C47.1082 32.2883 48.5516 31.6479 48.7659 30.484C48.8644 29.9495 48.8287 29.2525 48.1797 29.2672L44.4258 32.0531C43.9972 32.8105 43.9566 33.7933 43.6093 34.5618C43.326 35.1887 42.7508 35.6345 42.4134 36.1986C41.5168 37.6987 42.2656 38.8071 41.8973 40.4254C41.7791 40.3675 41.587 40.3232 41.5316 40.2087C41.3801 39.8971 41.2569 37.8514 41.316 37.44C41.5698 35.6604 43.3321 34.8365 43.5009 33.0987C43.5526 32.563 43.4972 31.7748 42.9479 31.5518C42.81 31.5518 42.7225 31.6528 42.6289 31.7341C42.4602 31.8794 41.752 33.5544 41.4577 34.0113C40.6461 35.2762 39.3874 36.3279 39.2051 37.9167C39.0647 39.1446 39.2113 39.6372 38.7186 40.8786C36.689 45.9946 34.6876 48.4086 30.1653 51.4149C27.4558 53.2167 24.6207 54.9298 21.8619 56.6589C21.1747 57.09 19.5207 57.6565 19.368 58.4755C19.2608 59.0544 19.3014 59.8451 19.2362 60.4375C19.0662 61.9745 18.8532 63.3933 19.0059 64.9808C19.0945 65.9069 19.4862 68.1028 19.9973 68.7925C20.7215 69.7679 21.3212 69.8849 22.4888 69.7248C23.1083 69.6399 24.463 69.3455 24.6552 68.6878C24.8214 68.1176 23.9396 69.098 23.7955 68.997C23.5652 68.7654 25.7759 66.354 26.0727 66.0473C28.9054 63.1235 31.6272 60.3808 34.3268 57.3006C35.6089 55.8375 36.5991 53.7746 38.6977 53.3595L37.2062 54.5271C37.3368 55.1293 37.2678 55.7365 37.3774 56.3424C37.6422 57.7982 38.2395 59.2884 38.4366 60.8242C38.6534 62.5016 38.3652 63.8921 38.4526 65.4882C38.7433 70.8554 40.2261 76.6525 40.5438 81.9939C40.6571 83.893 40.4022 85.8968 40.5402 87.786C40.6227 88.9117 40.9749 90.1002 41.0439 91.2234C41.1362 92.7358 40.7581 94.0758 40.6695 95.5413C40.4576 99.0588 41.8801 102.873 42.2681 106.379C42.5784 109.181 42.2533 111.859 42.3924 114.631C42.3998 114.77 42.3124 114.97 42.5144 114.936C43.4898 113.101 45.5933 112.2 47.1833 110.921C49.2721 109.243 50.2758 107.161 50.0184 104.416C49.8682 102.808 49.4581 100.266 49.1305 98.6536C48.6403 96.2421 46.9001 93.3639 46.9444 90.9845C46.9493 90.732 46.868 90.6236 47.1944 90.6729C47.3422 91.3059 47.6316 92.1422 47.9235 92.7149C47.99 92.8454 47.8595 92.9464 48.1809 92.891C48.5836 90.8712 48.6797 88.7381 48.5504 86.6727C48.4026 84.3179 47.5577 81.5875 47.5614 79.2881C47.5663 76.1993 48.5762 72.2976 48.7967 69.0586C48.8694 67.9871 48.926 66.9636 48.676 65.9205L49.2906 66.1656C49.3411 61.9831 50.3313 57.8585 50.4015 53.6674C50.7709 52.7573 50.4532 50.7978 50.83 50.0318C50.8571 49.9764 51.0136 49.8273 51.0172 49.9727C51.0419 54.1391 50.6416 58.2686 50.2771 62.4104C50.1404 63.9524 49.7167 65.6581 49.9064 67.2173C50.0357 68.2851 51.8646 70.2187 52.8252 70.7027C53.9866 71.2877 55.8266 71.2495 57.0877 71.5932C57.1998 71.6239 57.1358 71.8358 57.3562 71.8481C57.9535 71.8813 58.5669 70.9306 59.0213 70.5389C59.6691 69.981 60.4081 69.5068 60.9931 68.8787C59.6445 69.3554 58.4437 71.1067 56.8734 70.5943C55.3832 70.1091 53.3499 66.3934 53.2304 64.8785C53.1725 64.1445 53.3302 63.4425 53.3573 62.7183C53.1134 62.8267 53.0161 63.2258 52.9324 63.4622C52.6405 64.2923 52.4816 65.4672 52.3745 66.3528C52.3006 66.9599 52.3954 68.1287 52.2304 68.6718C52.1946 68.7913 52.0789 68.9046 51.9434 68.875C51.8375 68.7778 51.7032 68.6891 51.6589 68.5425C51.4261 67.7654 51.7205 65.2936 51.9163 64.4179C52.1294 63.4647 52.5456 62.642 52.8634 61.7331C51.9693 62.4388 52.0358 64.0337 50.8953 64.4413C50.9163 63.1198 51.8436 61.8378 52.6208 60.8119C52.9718 60.3488 53.5728 59.85 53.9041 59.3857C54.1898 58.9854 54.3265 58.4731 54.6615 58.0494C55.0975 57.4989 55.7268 57.1159 56.3131 56.7464C55.0815 56.234 55.2391 55.2586 54.6911 54.3042C54.3228 53.6637 53.595 53.2105 53.2661 52.6501C52.7242 51.7289 52.8794 50.4357 52.7255 49.3729C52.3104 46.4947 50.5148 44.4626 49.1071 42.0289C48.8287 41.9772 48.9359 42.1509 48.9236 42.3344C48.7376 45.0808 47.0035 45.0291 45.2411 46.6597C44.7633 49.4751 42.8371 52.4383 39.8418 52.9605C39.6682 52.9913 39.3874 53.1095 39.4416 52.8065C40.821 52.3053 42.1314 51.6993 43.0748 50.5281C44.0736 49.2891 44.2127 48.0391 44.7977 46.709C45.5663 44.9589 49.1341 44.2002 48.6711 41.7272C48.4765 40.684 47.8028 40.9045 47.1168 41.269C46.2387 41.7358 44.8827 43.0068 44.1746 43.7507C44.0748 43.8554 44.0095 43.9761 43.9947 44.1214L43.7447 44.0512C43.4196 43.0881 43.8297 42.0314 44.1179 41.1028C44.9591 38.3908 46.2855 35.9067 48.4309 34.0249C47.4235 34.4892 46.2227 35.2306 45.5699 36.1506C45.0946 36.8206 44.9283 37.6679 44.3039 38.2098C44.2115 38.2295 44.2238 38.0903 44.2448 38.0275C44.3026 37.8477 45.4505 35.8291 45.618 35.5828C46.8508 33.7699 51.0788 32.8117 51.5739 30.9484C52.2464 28.4224 50.0061 30.7821 49.7844 30.574C49.8743 30.1109 51.5949 29.0012 51.8917 29.415C52.6048 33.3007 47.0355 33.8758 46.2251 37.3846C46.6488 38.0817 47.538 38.3243 48.059 38.8884C49.9692 40.955 53.09 45.6202 53.4656 48.3839C53.5962 49.3483 53.4053 51.3028 53.9041 52.0097C54.1726 52.3903 54.7748 52.729 55.0371 53.0319C55.8697 53.9938 56.2342 55.5764 56.8636 56.6823C57.7503 56.2377 58.4006 55.6059 58.8354 54.7143C58.94 54.5 59.3822 53.33 59.3883 53.16C59.4007 52.8152 58.4486 51.9851 58.1802 51.5516C57.4572 50.3877 57.4326 49.2226 57.5385 47.874C57.6838 46.0193 58.2762 46.2003 59.5029 45.2816C61.7653 43.5857 61.4907 40.1261 62.6114 37.6753C63.0585 36.6974 63.7001 35.5828 64.3393 34.7232C64.7334 34.1948 66.0943 32.4201 66.8444 33.1578L67.087 34.7613C67.5451 34.0766 68.0735 33.5618 68.6302 32.9731C68.7188 32.8795 68.89 32.2982 68.9947 32.8512C68.3962 33.382 68.0057 34.0803 67.518 34.6998C66.8505 35.5459 67.1067 35.4473 66.752 36.3969C66.4429 37.2221 65.9182 37.9733 65.6362 38.8527C65.3049 39.8872 65.2236 40.9846 64.9305 42.0277L64.8073 41.6582L64.3159 41.7814C64.4883 40.6742 64.614 39.6717 65.0327 38.6199C65.332 37.8674 66.6559 36.0053 66.6559 35.44V33.4694C66.6559 33.3549 66.3628 33.164 66.1633 33.2108C64.7654 33.5359 63.0646 37.7763 62.5548 39.0978C62.423 40.8626 61.7148 42.4735 60.9943 44.0623C61.0042 44.2359 62.1385 44.2643 62.3195 45.0722C62.4735 45.7582 62.2468 47.1523 61.8355 47.7386C61.498 48.2189 60.7911 48.3876 60.3773 48.8027C60.1199 48.0637 61.083 47.8543 61.4118 47.1905C61.705 46.5969 62.0843 44.7507 61.051 44.7384C60.9266 44.7372 59.7689 45.8198 59.5029 46.0205C59.2233 46.2311 58.4622 46.5575 58.2836 46.7718C58.158 46.922 58.0681 48.6832 58.0779 49.0404C58.1063 50.0182 59.5866 52.1242 60.2529 52.9285C60.7468 53.5258 61.2751 53.7573 61.854 54.2204C61.0892 54.2795 60.482 54.2463 59.8847 53.729C59.631 54.4482 59.3157 55.2549 58.9191 55.9052C58.1986 57.0875 57.5668 57.3683 57.4227 58.9657C57.1973 61.4547 57.9141 64.0017 60.1679 65.3305C61.0325 65.8404 61.4414 65.9685 62.3934 65.5374C62.8011 65.3527 63.4673 64.5682 63.6804 65.2727C63.8664 65.8848 62.6767 66.6225 62.1693 66.7912C60.6532 67.2961 58.7701 66.0793 57.8624 64.9278C56.0901 62.6765 56.1677 59.5778 57.2971 57.0567C57.1456 56.9053 55.1554 58.4915 55.1123 58.8733C54.3918 62.1383 53.5371 64.0312 55.2625 67.157C55.5766 67.726 57.0434 69.7864 57.6124 69.8677C57.8526 69.9022 58.0053 69.8098 58.2097 69.7273C59.4154 69.2421 61.3921 67.8381 62.407 67.0351C62.4993 66.9624 63.4821 66.1779 63.3306 66.721C63.2161 67.1311 62.4809 67.4563 62.5942 68.0154C63.2444 68.0068 64.0413 67.2727 64.3418 66.7469C64.5671 66.354 65.1793 64.2985 65.1793 63.8896C65.1793 63.2368 65.1472 62.5693 65.1793 61.919L65.1805 61.9215ZM48.5541 9.26998C45.7793 2.17974 35.7259 -1.28471 29.3524 3.18595C25.9298 5.58631 24.9323 11.828 25.0246 15.7432C25.085 18.2901 25.867 20.8112 25.5086 23.3593C25.2685 25.0675 24.4864 26.7265 23.9741 28.3633L30.3254 34.3968C30.0754 33.7736 29.7256 33.2182 29.4953 32.5802C28.6763 30.3005 28.4373 27.7684 29.0322 25.4062L30.9412 20.1116C30.4978 23.4098 29.015 26.1883 29.6234 29.6195C30.4805 34.4535 32.6186 36.0607 36.854 37.7837C37.5782 38.078 37.8627 38.7012 38.8024 38.1925C38.8504 35.7922 40.9663 34.4177 41.9023 32.4275C40.853 32.9214 40.5438 33.244 39.3554 32.8191C36.7087 31.8733 34.4093 28.4359 33.4696 25.8964C32.4843 23.2312 32.9142 19.8875 33.5854 17.1509C34.0706 15.1754 34.5251 15.1114 35.4783 13.6249C36.3503 12.2627 36.439 9.44117 36.9144 7.79454C37.4895 5.80307 38.4785 6.9312 39.7766 7.39674C42.5649 8.39555 45.581 9.15421 48.5528 9.27244L48.5541 9.26998ZM48.6612 9.53354C45.5662 9.3993 42.5279 8.70838 39.6226 7.67261C39.1029 7.48788 37.9193 6.75139 37.5215 7.0445C37.0006 7.42999 36.5695 11.6925 36.2419 12.663C35.8971 13.6815 35.2135 14.1446 34.7357 14.9747C33.5669 17.0056 33.0644 22.2497 33.8403 24.416C34.785 27.0565 37.6373 32.0186 40.7483 32.2908C41.8986 32.3918 42.1129 31.3166 43.0748 30.9459L43.3863 31.1257L43.9947 31.8092C44.411 30.1798 44.8815 28.4876 45.8655 27.0898C46.2486 26.5454 47.7572 25.2831 46.8927 24.9148C46.7843 23.2743 47.1907 21.6043 47.538 20.018C49.5295 17.8603 49.378 14.684 49.1662 11.9204C49.1428 11.6186 48.7893 9.61729 48.6588 9.53354H48.6612ZM24.2906 26.022L22.3213 26.1452L23.431 27.8682C23.7462 27.9199 23.6219 27.8386 23.6871 27.6957C23.8275 27.3891 23.862 26.9531 23.9827 26.6366C24.0738 26.3976 24.3115 26.2831 24.2906 26.022ZM22.0737 26.3903C21.841 26.1723 21.3779 27.2758 21.3139 27.4149C20.9493 28.2019 20.3594 29.3621 20.0823 30.1232C19.9973 30.356 19.8532 30.7119 19.9123 30.9521C21.6747 33.5372 23.4125 36.1296 24.9298 38.8699C25.0345 39.0584 25.8707 40.9107 26.0161 40.7998C26.4643 39.7677 27.4632 38.7283 28.2994 37.9709C28.9645 37.3686 29.6862 36.9807 30.3709 36.4708C30.4732 36.3944 30.6173 36.3526 30.5754 36.1838C29.6776 35.3624 28.6541 34.5163 27.8006 33.6603C26.6577 32.5162 25.2672 31.0703 24.2315 29.8412C23.3965 28.8497 22.3952 27.6452 22.0774 26.3915L22.0737 26.3903ZM35.6212 41.7839C35.8441 40.7937 36.1594 39.7862 36.8515 39.014L33.6531 37.5977L34.9192 40.5794L35.6212 41.7839ZM47.9383 40.5523C48.1292 40.2899 46.0687 37.9007 45.7855 37.9672L44.7682 40.402L44.1216 43.5093C44.3581 43.3492 44.4652 43.0105 44.6733 42.7691C45.5416 41.7605 46.6759 40.987 47.9383 40.5523ZM38.8245 38.8305C38.742 38.7542 37.5166 39.2776 37.3405 39.3773C36.221 40.0104 36.0596 42.8147 35.9931 44.0019C36.2789 44.0697 36.3909 43.6645 36.5055 43.4687C36.8971 42.795 37.3651 41.6028 37.7851 41.0535C38.0006 40.7727 38.3824 40.6434 38.5117 40.4254C38.7506 40.0215 38.6497 39.2887 38.8245 38.8305ZM19.6118 57.1811C18.4024 57.51 17.2459 58.1504 16.0414 58.4743C14.8369 58.7982 12.5868 58.7145 12.0376 60.0126C11.5474 61.1727 11.5104 63.4807 11.4784 64.7591C11.4723 65.0189 11.6102 65.2603 11.6065 65.4931C11.5991 65.9537 11.0781 68.1743 11.2506 68.375L18.4467 71.3394C18.6487 71.3715 18.6438 71.3493 18.629 71.1584C18.5859 70.5759 17.8691 68.0733 19.1204 68.6952C19.3273 68.7987 19.3606 69.1829 19.6106 69.2494C19.4973 68.7716 19.1697 68.4415 18.9911 67.9612C18.3519 66.237 18.262 63.3871 18.3741 61.5471C18.4147 60.8796 18.6943 58.5359 18.9049 58.0137C19.0416 57.6738 19.4616 57.5149 19.6118 57.1824V57.1811ZM5.07786 69.7421C5.70597 67.2333 6.27127 64.7394 7.29471 62.3526C5.99046 63.78 5.32172 65.9242 5.08032 67.8344C5.03722 68.1792 5.09756 68.5647 5.068 68.9305C5.04337 69.2421 4.65912 69.6066 5.07663 69.7421H5.07786ZM24.2906 69.6189C22.8841 70.2877 21.1735 71.183 19.7448 70.0401C19.3224 69.7014 19.2017 69.1756 18.7509 68.88C18.6487 69.7322 19.1574 70.6128 19.2436 71.4035C19.3507 72.3814 19.1795 73.5181 18.996 74.4812L19.2423 74.6081C19.5071 74.379 19.6672 73.9566 19.9012 73.7263C21.0441 72.6055 23.2708 71.438 24.0935 70.098C24.1884 69.9441 24.3337 69.8283 24.2906 69.6189ZM7.41911 177.506V179.846C6.5533 179.435 6.80824 175.847 6.55576 175.658L6.37102 175.779C6.27742 177.59 5.8008 179.468 5.69735 181.263C5.5939 183.059 6.0619 184.201 7.5435 185.326C7.66666 185.42 7.69868 185.567 7.91297 185.51C7.22698 184.123 7.58414 182.416 8.77508 181.447C8.64453 182.043 8.21717 182.531 8.0312 183.103C7.47452 184.809 8.47827 185.919 9.39211 187.234C9.08175 187.255 8.78001 187.217 8.49551 187.085C8.38344 187.033 7.09274 185.846 7.05086 186.19C7.08042 186.527 6.97081 186.91 7.11613 187.234C7.16909 187.352 8.45117 188.373 8.663 188.52C12.2124 190.971 13.4108 188.694 16.9676 188.348C17.3469 188.311 18.6623 188.458 18.8199 188.231C19.0662 187.713 18.6536 187.147 18.6499 186.684C18.6462 186.158 19.0527 185.845 19.1007 185.547C19.1266 185.384 18.98 185.159 18.9948 185.144C19.0169 185.122 19.3088 185.177 19.549 184.894C20.1746 184.154 20.7843 181.857 20.7264 180.889C20.6414 179.486 20.1993 178.055 20.1044 176.646L18.629 179.231C19.2312 176.266 20.7264 173.564 21.5491 170.637C22.2314 168.21 22.3952 165.745 22.9753 163.319C23.5553 160.893 24.5061 158.73 25.1884 156.419C26.2304 152.89 26.6922 149.39 27.5555 145.854C29.2551 138.892 32.61 132.27 35.1064 125.571C36.3047 124.035 38.0721 123.123 39.5056 121.842C40.0278 121.918 39.3837 122.672 39.2593 122.827C38.407 123.89 37.2998 124.487 36.3626 125.349C35.3515 126.279 35.5596 126.755 35.1347 127.939C34.3662 130.079 33.5546 132.206 32.7996 134.35L32.5459 135.266C32.371 135.27 32.3045 135.616 32.2442 135.762C31.5816 137.372 29.366 142.455 29.2896 143.869C29.2576 144.467 29.6763 145.662 29.7207 146.406C29.8623 148.782 29.2687 151.393 29.4706 153.921C29.6295 155.91 30.4116 158.083 30.685 160.096C30.9806 162.269 30.9547 164.479 30.9461 166.669L30.5163 166.302L30.3475 166.5C30.4892 168.269 29.5864 169.518 31.1358 170.854C31.2885 170.986 32.5422 171.916 32.6297 171.946C32.7233 171.98 32.823 171.967 32.9179 171.965C32.9659 171.831 32.7947 171.695 32.7947 171.658V169.565C32.7947 168.4 33.8994 167.986 34.397 167.226C34.599 166.917 34.5189 166.377 34.8884 166.425C34.8798 167.494 33.759 168.072 33.3883 168.927C32.9942 169.834 33.1359 171.235 33.3169 172.185L35.5054 173.078L35.4426 173.325L34.4056 173.003L34.1544 173.137C34.5091 173.628 34.1827 174.706 34.8539 174.899C35.2566 175.014 37.0117 174.954 37.4821 174.869C38.3294 174.716 40.3998 173.939 41.2151 173.552C41.9392 173.209 42.624 172.773 43.1326 172.137C42.6819 171.561 42.6388 171.347 42.7706 170.615L42.156 170.86L42.5242 169.999L41.6634 170.491L42.1548 169.63C40.4724 170.204 38.9686 171.189 37.3627 171.919C37.1841 172.001 37.0166 172.003 37.1065 171.788C37.1816 171.61 37.7642 171.285 37.9649 171.168C39.683 170.163 42.5957 169.557 43.5612 167.897C44.4258 166.409 43.6585 165.467 43.6277 163.909C43.624 163.734 43.943 161.179 43.5107 161.503L43.0785 163.844C42.4306 159.405 45.2054 155.346 45.485 151.101C45.4948 150.959 45.5736 150.418 45.3581 150.42L44.1265 152.882C44.1253 152.742 44.1105 152.598 44.1339 152.459C44.4615 150.482 46.3877 147.161 47.2264 145.205C47.8361 143.784 47.7055 143.948 47.692 142.48C47.6218 135.051 49.4334 127.396 49.6736 119.94L49.5443 109.528C47.6735 112.192 44.3519 113.259 42.4639 115.93C42.2927 115.801 42.1917 115.629 42.0883 115.446C41.3173 114.073 41.7372 109.824 41.5451 108.107C41.5242 107.924 41.5193 107.728 41.2963 107.681C41.0266 108.698 41.0352 114.518 40.4071 114.923C40.3172 114.981 40.1005 114.924 39.9441 115.014C39.8443 115.071 39.8468 115.264 39.662 115.356C39.3665 115.503 37.7986 115.746 37.7334 115.821C37.6004 118.368 37.1755 120.891 36.4291 123.323C36.4759 121.775 37.0129 120.242 37.2136 118.688C37.3319 117.774 37.2925 116.838 37.476 115.934C33.9807 116.473 30.3525 116.281 26.8819 115.627C24.4335 115.165 22.043 114.313 19.8175 113.208C19.4295 113.016 17.645 111.792 17.406 111.995C16.7792 114.81 15.1658 118.327 12.2925 119.381C12.0942 119.341 12.141 119.203 12.205 119.052C12.3799 118.642 13.4736 117.667 13.8258 117.222C15.22 115.46 16.0981 113.595 17.0206 111.558C16.5316 111.301 12.2863 108.7 12.1065 108.913L11.8602 116.488L11.6139 116.67L11.8417 108.867L11.7432 108.719C10.6939 108.509 9.54236 108.806 8.67286 109.36C8.6667 113.424 7.92898 117.459 8.16421 121.534C8.21717 122.444 8.4561 123.452 8.53246 124.368C8.68025 126.161 8.6704 127.954 9.02756 129.724C9.24431 129.669 9.29604 129.182 9.33915 128.99C9.47709 128.369 9.52142 127.718 9.64458 127.093L9.8909 127.077C9.74434 128.093 9.75173 129.1 9.60764 130.119C9.09283 133.757 7.38215 137.915 7.95484 141.573C8.11987 142.624 8.49551 143.647 8.64084 144.705C8.8539 146.251 8.80833 147.706 8.28614 149.183C7.81814 149.65 8.29969 147.697 7.79597 147.951C7.62971 150.74 6.36733 153.628 6.18875 156.383C6.0114 159.122 6.31067 161.907 6.44615 164.636C6.62719 168.28 6.7873 172.103 7.31811 175.71C7.6605 178.038 9.98819 178.848 9.76527 181.206L9.12855 179.565C8.91918 179.444 7.69252 177.202 7.42649 177.511L7.41911 177.506ZM34.3908 174.795L33.5337 172.759L31.435 172.211L31.4473 174.045L34.3908 174.795ZM31.972 178.077C33.4006 179.513 36.2838 179.155 38.1312 179.369C40.9835 179.699 42.0858 180.686 44.4073 181.961C46.2966 182.998 47.1919 183.002 49.176 183.473C51.3522 183.989 53.1331 185.116 55.1418 183.294C55.8906 182.616 55.2748 181.632 54.8561 180.872C53.3536 178.148 51.5998 178.283 49.0504 177.194C46.889 176.271 45.0465 174.928 43.4442 173.217C40.2002 175.693 35.3823 177.124 31.6185 174.922C31.0323 175.825 31.2183 177.32 31.9708 178.077H31.972ZM7.78981 189.329C7.73686 190.293 7.43512 191.233 7.55704 192.209C7.72207 193.525 9.5091 195.029 10.2813 196.135C11.7358 198.219 12.2703 200.807 14.5734 202.311C16.369 203.484 21.5528 204.67 23.5319 204.026C23.9285 203.896 24.3473 203.48 24.75 203.397C25.521 203.24 25.9163 203.71 26.6245 203.176C26.8511 203.005 27.1873 202.57 27.2242 202.294C27.2883 201.811 25.7451 199.314 25.3769 198.774C23.2462 195.659 20.1094 193.113 18.6315 189.509C17.8001 189.361 16.9553 189.463 16.1375 189.612C13.678 190.059 12.6681 191.323 9.97465 190.407C9.14579 190.125 8.56571 189.66 7.78858 189.33L7.78981 189.329Z" fill="#6572A4"/>
<path d="M70.8469 33.6564C73.1253 31.8607 72.5465 34.7956 72.0477 36.1516C71.3678 38.0027 69.8936 39.6949 69.736 41.7849L69.2458 41.5989C69.7434 41.1395 69.7791 40.3316 70.0463 39.6924C70.6572 38.2293 72.1511 35.8289 72.1868 34.319C72.1905 34.1786 72.1129 33.6798 72.0021 33.6478C71.3974 33.5221 70.9294 34.0197 70.619 34.4766C69.2052 36.558 68.6041 38.7909 67.6768 41.0176C67.6127 41.1703 67.609 41.3809 67.3984 41.4154C67.0511 38.4189 69.7015 36.3179 70.3185 33.5603C70.4528 32.9618 70.7779 31.9876 69.9281 32.0566C69.6645 32.0775 69.4638 32.3952 69.2446 32.2401C70.7299 30.9346 71.1917 32.1711 70.8469 33.6552V33.6564Z" fill="#6572A4"/>
<path d="M42.274 46.8968C42.2173 47.5348 41.9452 48.6838 41.7185 49.2971C41.535 49.7922 41.0387 50.711 40.7013 51.1125C40.583 51.2529 40.5633 51.4524 40.3047 51.3921C40.9624 50.413 41.3663 49.3169 41.7247 48.1949L42.2752 44.127C42.2173 45.026 42.354 46.01 42.2752 46.898L42.274 46.8968Z" fill="#6572A4"/>
<path d="M65.547 49.4189C65.5618 50.2786 65.6049 51.1062 65.2748 51.9191C65.196 52.1137 64.3117 53.6076 64.0703 53.3613C64.3117 52.7602 64.7218 52.3403 64.925 51.6925C65.1541 50.9634 65.2083 50.1801 65.1787 49.4202H65.547V49.4189Z" fill="#6572A4"/>
<path d="M34.8816 166.298C34.4555 166.044 34.687 165.374 34.6045 164.914C34.2116 162.707 33.3249 160.528 33.1599 158.23C32.9776 155.706 33.5527 153.026 33.8988 150.535C34.1193 150.508 34.0183 150.811 34.006 150.95C33.8988 152.185 33.634 153.428 33.5281 154.661C33.3384 156.863 33.5207 158.862 33.9358 161.026C34.272 162.773 34.9863 164.488 34.8804 166.299L34.8816 166.298Z" fill="#6572A4"/>
<path d="M31.0641 18.0134C30.8572 17.9567 30.9459 17.5577 30.8461 17.3089C30.686 16.9099 30.3609 16.4333 30.1306 16.0539C29.6096 15.1955 28.4765 13.3789 27.309 14.1967C25.0971 15.7448 26.8275 22.2476 29.282 22.0899C29.6059 22.069 29.6724 21.8338 29.9569 21.8325C29.803 23.2686 28.0147 22.9865 27.1871 22.2008C25.99 21.0652 25.3385 18.1907 25.5232 16.5971C25.6501 15.5046 27.0725 13.257 28.2795 13.337C30.0714 13.4553 31.4496 16.3852 31.0641 18.0134Z" fill="#6572A4"/>
</svg>
