<svg width="47" height="195" viewBox="0 0 47 195" fill="none" xmlns="http://www.w3.org/2000/svg">
<path d="M38.0719 29.0315C37.6182 30.2106 37.057 30.0669 36.5523 30.5549C36.354 30.7466 36.0379 30.9751 35.731 31.1596C35.4873 31.3062 35.3646 31.3034 35.0592 31.3717C34.8835 31.4449 34.8305 31.4131 34.6903 31.6208V31.1596C35.6249 31.0441 36.9281 29.9487 37.6594 29.2423C37.7856 28.6425 38.2025 28.571 38.4733 28.564C38.9555 28.5516 39.7189 29.1531 40.0445 28.8127C40.9052 27.2178 40.5139 23.7157 42.0033 22.6066C42.3515 22.3474 42.8787 22.2639 43.148 22.0047C43.7586 21.4141 43.8005 20.5455 44.2061 19.7576C45.0379 18.4191 45.8136 17.6053 45.8902 15.7861C46.8645 11.2152 43.7056 5.10446 39.0651 2.10167C32.8856 -2.21879 25.9728 4.14789 23.3703 9.85929C21.6871 13.5519 20.8989 17.4076 17.4086 20.0024C17.5618 20.1557 17.4035 20.5337 17.559 20.687C20.0634 23.1589 22.7516 25.4888 24.935 28.2988C25.1355 28.557 25.2324 28.965 25.4972 29.1431C25.3913 28.3879 25.0217 27.9652 25.042 27.1672C25.0826 25.5192 26.0965 24.4214 27.1308 23.2807C27.9104 22.4217 28.8004 21.6293 29.6668 20.8584C27.0801 20.873 27.1544 17.177 27.8439 15.4276C28.3396 14.1719 30.0329 12.2264 31.5122 12.3538C32.4135 12.4305 33.1723 13.3971 32.7504 14.483C32.1993 13.9695 32.7873 13.3685 31.8558 12.8391C31.2262 12.8391 30.9046 12.9766 30.3391 13.1682C28.1929 13.8941 27.3678 17.5825 28.1069 19.2925C28.7209 20.7138 29.0142 20.286 29.8096 20.3513C30.4529 20.4043 30.1535 20.545 29.9496 20.8031C29.0505 21.9416 25.934 24.8184 25.6892 26.0017C25.6351 26.3388 25.4442 27.1031 25.4972 27.4401C25.5792 27.9617 26.0192 29.2604 26.7772 30.7865C27.5393 32.3209 28.7597 34.2723 29.1336 34.6142C29.2373 34.7089 29.826 35.1289 30.3457 35.1927C30.7967 35.248 31.3821 35.2414 31.8172 35.1104C32.3091 34.9622 32.9592 34.4796 33.3433 34.1385C33.8553 33.6837 34.3276 31.3276 34.6903 31.1596V31.6208L33.8883 33.7297C33.3689 35.1263 31.4097 35.8148 29.891 35.3392C29.5936 36.2522 30.1118 36.5802 30.434 37.2193C31.0221 38.3871 31.7308 39.3046 32.231 40.4938C32.845 41.9568 33.3542 43.6701 33.3847 45.2572C33.9773 44.9822 34.5045 44.9382 35.1332 44.8334C35.6165 44.7522 36.4344 44.6147 36.929 44.5775C38.5942 44.4535 40.8587 45.4342 41.671 46.9435C41.9695 47.4992 42.7131 50.6169 42.7401 51.2842C42.7931 52.5929 42.6309 53.2996 41.7803 54.2791C41.5752 54.5158 41.3048 54.6218 41.1088 54.8472C40.897 55.0907 38.5885 57.9301 38.5355 58.1634C37.6661 59.2928 37.2739 59.5415 36.8336 61.3174C36.3762 61.7232 36.2353 62.6086 35.8162 63.0933C35.6675 63.2657 35.5613 64.2727 35.5421 64.3899C35.5185 64.5409 35.9821 65.3999 36.0418 65.7493C36.5533 68.7295 36.9502 71.6568 37.1834 74.6607C37.5079 78.8256 37.1834 82.7008 37.4278 86.8624C37.5484 88.9161 37.854 91.6597 38.0016 93.6739C38.0387 94.1834 38.1367 95.9655 38.0815 96.36C38.0376 96.6699 37.2713 97.1575 37.0698 96.7801C36.877 96.4188 36.8217 96.0956 36.248 94.9853C35.7471 94.0158 36.0505 94.21 35.8444 93.6739C35.8117 93.5454 35.629 93.3912 35.4566 93.4194C35.4859 94.1847 35.381 95.536 35.7152 96.0354C35.8346 98.1161 36.093 100.019 36.0942 102.122C36.0976 110.047 35.5444 118.006 35.0802 125.915C34.9495 128.134 34.7772 130.815 34.3727 132.984C34.1755 134.041 33.6945 135.177 33.441 136.223C32.5318 139.982 32.4056 144.142 32.0327 148.002C31.813 150.274 31.1652 153.21 31.359 155.441C31.5257 157.368 32.3267 158.827 31.1663 160.706C30.8292 161.249 30.903 161.611 30.7438 162.153C30.6672 162.411 30.7224 162.879 30.7438 163.114C30.7641 163.328 32.0012 165.589 32.2434 166.166C32.3482 166.417 32.4969 166.716 32.5712 166.966C32.6253 167.147 32.5498 167.432 32.6152 167.541C32.6602 167.618 33.9536 168.285 34.1677 168.416C35.1422 169.014 36.0401 169.602 37.187 170.011C39.5507 170.855 41.6811 170.588 43.7879 172.311C44.0267 172.507 44.6982 173.028 44.0031 173.008C42.9429 172.976 43.1299 172.643 42.5035 172.132C41.182 171.053 39.7321 171.415 38.2032 171.137C36.1697 170.766 33.708 169.286 32.3008 167.798C28.8263 169.917 24.4832 172.293 20.3181 170.827C20.2403 171.88 19.8449 173.062 20.7653 173.816C21.5889 174.491 22.6164 174.568 23.6461 174.551C26.0627 174.512 27.9262 173.73 30.5129 173.984C32.7267 174.202 34.073 174.983 36.066 175.529C37.6309 175.959 37.6771 175.751 39.0854 175.571C40.052 175.447 40.8666 175.824 41.7814 175.898C42.5317 175.959 44.7365 176.057 44.9652 175.143L45.1049 174.038C44.1191 173.832 42.9024 173.575 41.9481 173.251C41.7577 173.186 41.4637 173.062 41.3837 172.859C41.9301 172.97 42.4799 173.105 43.0331 173.18C43.8149 173.286 45.3652 173.163 45.7516 173.955C46.2845 175.047 45.2604 176.179 44.225 176.435C42.8652 176.769 42.0033 176.344 40.764 176.343C39.8785 176.342 38.7282 176.595 37.8326 176.587C35.9872 176.571 34.3626 175.768 32.6185 175.372C30.1501 174.81 27.5093 175.037 24.9857 175.109C23.4016 175.154 20.9479 175.808 20.0342 174.1C19.8652 174.203 19.9035 174.346 19.8652 174.495C19.4776 176.023 20.7113 178.542 20.8555 180.051C20.9208 180.729 20.5851 180.718 21.2115 181.375C22.6705 182.909 26.1247 184.671 28.0106 185.844C30.0532 187.115 32.0203 188.505 34.1733 189.598C34.4504 190.63 34.4347 191.764 33.2675 192.188C33.0185 192.278 32.3414 192.338 32.2772 192.381C32.2332 192.41 32.1758 192.705 32.0248 192.861C31.1528 193.764 30.4002 193.293 29.5181 193.49C29.4708 193.5 29.2026 193.866 28.6979 193.929C28.1932 193.993 27.5668 193.802 27.2716 193.852C26.7218 193.945 26.6925 194.397 25.674 194.268C24.384 194.104 24.3976 194.189 23.1853 194.275C21.7849 194.376 21.5968 193.724 20.5738 193.396C20.469 193.362 20.282 193.31 20.3147 193.486L20.6515 193.712C20.2279 193.695 19.8291 193.5 19.4179 193.424C16.3546 192.863 14.0371 191.056 11.2296 189.783C9.38193 188.944 6.35356 188.359 5.6359 186.136C5.28327 185.044 5.38467 183.655 5.66745 182.555C4.92388 182.633 4.72784 181.605 4.66588 181.021C4.57575 180.17 4.87206 178.851 5.14244 178.027C5.18413 177.901 5.30355 177.507 5.441 177.482C5.58971 178.403 4.81685 180.967 5.3903 181.648C5.44663 181.714 6.28596 182.49 6.45496 182.555C7.64918 183.024 8.49729 183.192 9.70277 183.303C10.0374 183.333 10.7685 183.485 11.2079 183.486C12.5812 183.493 14.6261 182.67 15.8823 182.214C17.3041 181.696 18.5499 180.988 19.6297 180.287C18.8613 178.099 18.7498 175.921 19.2433 173.647C19.3672 173.078 19.9339 171.686 19.8674 171.229C19.8347 171 19.6117 170.929 19.552 170.748C19.0608 169.245 18.7126 164.639 18.6202 162.888C18.36 157.958 20.0905 149.115 21.6092 144.34C21.8897 143.459 22.5161 142.44 22.6513 141.551C23.5774 135.475 24.1204 129.284 25.4397 123.262C26.3973 118.894 27.7346 114.004 29.0224 109.714C29.1519 109.281 29.2691 108.77 29.4989 108.387C29.775 108.336 29.6668 108.6 29.6521 108.766C28.405 113.128 27.1183 118.251 26.1392 122.686C25.1748 127.056 24.4457 132.059 23.9083 136.508C23.666 138.514 23.6824 140.419 23.0019 142.329C22.0747 144.933 21.3016 146.835 20.771 149.615C19.8798 154.279 18.7385 159.325 19.0629 164.059C19.2026 166.104 19.552 168.416 20.2155 170.032C21.2047 170.244 21.9878 170.699 23.0007 170.591C22.8621 169.874 22.9848 168.797 22.9082 168.07C22.5488 164.692 22.1376 160.736 22.2322 157.363C22.2446 156.94 22.4339 156.326 22.4339 155.896C22.4339 155.427 22.257 154.805 22.2266 154.323C22.2187 154.191 22.3002 153.874 22.4974 153.874C22.4197 154.545 22.6833 154.995 22.7262 155.649C22.7701 156.328 22.5389 157.142 22.5615 157.762C22.6662 160.587 22.8287 163.537 23.1013 166.354C23.2275 167.664 23.4652 169.162 23.4033 170.499C25.1867 170.287 26.9618 169.517 28.6168 168.822C29.4989 168.451 30.3225 167.937 31.1663 167.54C31.5539 167.357 32.0507 167.453 31.9167 167.003C31.0604 166.912 31.0525 165.74 30.4554 165.25C29.9292 163.879 30.4063 161.125 31.2441 159.379C31.7742 158.275 30.6706 156.226 30.9045 154.063C31.1384 151.901 31.9786 143.867 32.7878 136.949C33.0075 136.057 33.4166 135.048 33.6295 134.123C34.3201 131.126 34.3645 129.509 34.5515 126.49C34.5819 126.002 34.6057 124.459 34.6372 123.97C34.893 119.988 35.0361 116.049 35.3448 112.07C35.6366 108.313 35.9342 105.614 35.7629 101.789C35.7032 100.446 35.5376 99.1272 35.5241 97.7892L33.3193 98.3438C33.219 99.1554 33.094 99.9658 32.9216 100.764C32.6985 101.796 32.418 103.39 32.0902 104.328C31.8986 104.875 31.5122 105.365 31.2993 105.905C31.1573 105.43 31.6159 104.966 31.7477 104.549C31.9572 103.886 33.0208 98.7 32.8191 98.4644C29.304 99.285 25.7788 97.9876 22.604 96.5674C22.106 96.3442 18.4601 94.3772 18.2889 94.526C18.0072 95.6306 17.5856 96.695 17.1541 97.75C16.566 99.1872 14.65 103.162 13.5009 104.036C13.1182 104.326 12.9291 104.681 12.6694 104.222C12.9785 104.278 13.3133 103.472 13.5009 103.323C14.0281 102.904 15.7496 99.6344 16.1304 98.842C16.5112 98.0496 16.9619 97.0171 17.2751 96.1548C17.3866 95.8482 17.9071 94.4573 17.7888 94.2882C16.456 93.8171 15.1221 93.1599 13.7115 92.9514C10.6291 92.4972 8.3612 94.5238 5.70801 95.7412C5.25172 95.9508 3.42321 96.5155 3.32407 96.8503C3.13705 97.477 3.28382 100.147 3.46295 100.907C3.80019 102.341 4.37107 103.49 4.50942 104.956C4.64236 105.347 4.70644 106.127 4.79432 106.514C4.836 106.695 4.80542 107.356 4.88315 107.759C5.1896 109.337 5.62865 110.204 6.09816 111.844C7.87387 118.048 6.67138 124.266 6.85196 128.394C6.96348 129.022 6.85196 129.377 6.85196 130.416C6.85196 130.584 7.20193 130.37 7.24925 130.251C7.33142 130.043 7.68836 129.21 8.14838 127.851C8.30173 127.251 8.41928 127.167 8.53871 126.763C9.02428 125.123 9.30482 124.177 9.99544 122.686C10.0687 122.527 10.3013 121.512 10.6235 121.574L7.2976 131.105C6.6666 133.947 6.69801 133.253 6.35131 135.189C6.09843 136.251 6.04694 136.419 5.9985 136.863C5.71571 139.459 5.23933 142.228 4.9926 144.964C4.16003 154.218 5.53901 163.539 5.41959 172.804C5.40156 174.16 5.27651 175.529 5.04217 176.801C4.94866 177.31 5.00387 178.133 4.54195 178.383C4.46647 177.762 4.41126 177.15 4.42253 176.518C4.50365 172.071 5.0533 167.326 4.69503 162.888C3.85908 152.515 3.82767 142.419 6.35131 132.224C6.38173 126.905 6.98272 122.387 6.38173 116.896C6.38173 115.727 5.902 114.225 5.902 113.128C5.80962 112.806 5.71121 111.969 5.65037 111.636C5.45058 110.952 5.26821 110.754 5.06203 110.175C4.30678 108.051 4.4169 106.642 3.96625 104.507C3.69361 103.213 3.15958 101.927 2.87793 100.636C2.69091 99.7787 2.67176 98.7169 2.48699 97.8715C2.35292 97.2617 1.65892 97.4917 1.60597 97.2651C1.63752 96.6733 1.57668 96.0714 1.6116 95.4808C1.69835 94.0245 2.02395 92.5467 2.06563 91.078C2.12985 88.7775 1.95635 86.5547 2.54557 84.2406C2.9444 82.6749 3.72965 81.3708 4.38422 79.9224C4.02145 79.0556 2.77202 77.8743 2.63232 76.9872C2.53769 76.3842 2.67063 75.5963 2.63007 74.9605C2.17829 67.7827 1.71074 60.5665 0.9345 53.4371C0.582994 50.2078 -0.177473 46.8848 0.037712 43.6318C0.319368 39.3767 2.8554 32.2282 5.77561 29.0879C7.07686 27.689 8.96283 26.2891 10.459 25.0909C11.1293 24.5544 11.8763 24.117 12.4903 23.5106C12.372 23.0293 12.1095 22.9763 12.3078 22.4353C12.5714 21.7161 13.4806 20.2407 13.911 19.5272C14.8866 17.9085 15.7834 18.8497 16.9911 19.6399C17.7381 19.6737 20.2189 16.0385 20.5997 15.2856C21.3365 13.8315 21.7613 12.1532 22.3989 10.6608C24.8471 4.93361 31.8367 -2.91604 38.824 1.10009C43.9422 4.04202 47.4325 9.87628 46.556 15.8931C46.2789 17.7969 44.6543 19.4077 44.002 21.2281C43.9344 21.4152 43.9727 21.6812 43.896 21.9111C42.635 22.9188 41.9414 22.8602 41.5775 23.762C41.3104 24.4247 41.2868 26.0332 41.0998 26.891C41.0153 27.2799 40.3935 28.7959 40.22 29.0315C39.4438 29.3469 39.4533 28.9306 38.7661 28.9261L38.0719 29.0315ZM13.5086 20.7657C13.2979 21.1557 12.6773 22.3933 12.701 22.754C12.7449 23.4179 13.4012 23.8413 13.853 24.2257C16.0589 26.099 17.7874 28.53 19.7381 30.9977C20.5459 32.2094 21.3026 33.3486 22.0974 34.5032C22.9227 34.4134 23.5156 33.5064 23.8439 33.0307C24.0827 32.838 24.328 32.4416 24.6029 32.3683L26.1664 30.7865L21.9279 25.4272C21.9279 25.4272 16.7259 20.0024 15.3795 19.2548C15.1531 19.1291 14.7219 19.1687 14.7219 19.1687C14.5262 19.3488 14.0026 19.8512 13.5086 20.7657ZM10.8515 32.3608C10.7512 32.3608 9.31339 33.0849 9.132 33.1627C8.00876 33.644 6.77379 35.4418 6.00318 36.4156C5.91643 36.525 5.90831 36.6626 5.84297 36.7697C5.26501 37.7097 4.04736 41.3146 3.70036 42.5027C3.51785 43.1283 3.28032 43.9965 3.21385 44.648L2.90609 44.3836L2.79456 44.5865C2.84751 43.4639 3.34773 42.2939 3.70036 41.2084C4.05299 40.1229 4.33465 39.5278 4.78643 38.4626C4.96331 38.0455 5.73392 36.3334 5.75307 36.0482C5.76997 35.7855 5.64604 35.3166 5.56155 35.0563C5.31256 34.292 4.89797 33.2979 4.59265 32.5303C4.55209 32.4288 4.27466 32.0456 4.13045 32.1932C3.1762 34.1771 2.20685 36.3559 1.53538 38.4626C1.03065 40.044 0.577267 42.4852 0.500657 44.1275C0.457845 45.0417 0.599888 46.6004 0.691144 47.5754C0.967167 50.5207 1.42439 53.3085 1.75787 56.2425C1.99108 58.2917 2.23173 60.2063 2.25314 62.3953C2.28469 65.6472 2.68192 68.8704 2.95794 72.1482C3.10891 73.9359 3.15549 75.7939 3.30082 77.5771C5.88665 80.9606 4.15522 79.5386 3.1669 83.4305C3.0824 83.7608 2.63746 85.27 2.63746 85.27C2.63746 85.27 2.45408 87.2673 2.42704 87.7543C2.28734 90.34 2.65175 92.2915 2.06563 95.0614C2.07014 95.2756 2.09943 96.2223 2.06563 96.4252C1.9761 97.0165 2.40785 96.853 3.32407 96.4252C3.59671 96.2978 4.08775 96.1011 4.20154 96.02C4.60081 95.7352 4.61222 95.8908 5.2208 95.664C6.94002 95.0148 8.62487 93.5928 10.3351 92.9514C14.1408 91.9834 15.7815 93.1868 19.6477 94.6309C20.5996 95.1511 21.2869 95.4707 22.2721 95.9553C22.8501 96.2394 24.0511 96.6035 24.6144 96.9349C28.0461 98.5005 31.8479 98.1285 35.523 97.5627C35.5173 97.3711 35.5985 97.3226 35.381 97.3632C34.9315 97.4466 34.5147 97.4883 34.0595 97.45L35.5128 96.9348C35.4847 96.6136 35.2402 96.3453 35.1918 96.0353C35.1523 95.7817 35.0374 93.2715 35.0735 93.1306C35.1456 92.8477 35.185 93.1622 35.1782 92.4397C35.1095 85.3069 36.057 77.0492 34.5102 70.2084C34.3603 69.5445 34.4055 68.0374 34.2646 67.2833C34.1678 66.7648 34.3321 65.2696 33.8736 65.7493C33.3542 66.2926 32.7388 66.7806 32.1766 67.2833C31.0083 68.3293 29.3227 69.588 28.0553 70.5258C26.7878 71.4636 25.3602 72.6225 23.7221 72.8287C22.7329 72.7232 22.3798 72.5622 21.5855 72.2748C21.0504 72.0821 20.4629 71.7495 19.8973 71.4835C16.5176 69.1203 13.4028 64.2152 11.5461 61.1549C10.0646 58.7112 8.61808 55.8283 7.10389 53.4984C6.55861 52.6598 6.33436 52.5674 5.93329 51.775C5.73049 51.3737 5.27139 50.651 4.88424 50.3138C4.04749 48.7402 3.96923 48.61 2.79456 47.1792L2.47661 45.5061C2.47661 45.488 2.68077 44.5381 2.79456 44.5865C2.92174 45.2727 2.79344 47.2161 3.52376 47.0273C4.5133 49.0908 5.93671 50.7601 7.10389 52.7845C10.2641 58.2614 14.757 67.3003 19.8314 70.9658C20.6425 71.552 23.0028 72.4436 23.9751 72.4086C24.8595 72.3771 27.1837 70.5916 27.9611 69.9953C30.4475 68.0882 33.1481 66.0682 35.0656 63.5772C36.2361 62.0555 36.564 60.4617 37.4563 58.8679C37.8968 58.0811 40.4339 55.4536 40.4644 54.9081C40.5004 54.2498 39.1366 51.3577 38.6465 50.847C37.8691 50.0377 35.5803 48.9848 34.5213 49.3116C34.0019 49.4728 31.8472 52.2646 31.3583 52.8112C32.3114 52.4415 33.0985 53.0933 33.8635 53.401C34.4302 53.6299 34.9202 53.6569 35.4621 54.0559C37.0586 55.2305 37.4146 56.893 37.2073 58.789C37.0417 58.789 37.0304 58.2885 37.0248 58.1634C37.0169 57.9853 37.0721 57.8354 37.0946 57.6629L36.721 56.3494C36.0065 55.13 36.125 54.9391 35.0063 54.2155C34.2683 53.7376 33.3946 53.4315 32.5123 53.2379L32.2647 53.1929C31.7094 53.1929 31.4604 53.0921 31.0863 53.3074C30.0888 53.8793 29.7856 54.2791 29.2409 55.3849C28.6449 55.8076 28.1853 56.5504 27.4192 56.6608C27.2175 56.8919 27.3752 59.1521 27.4192 59.6053C27.5093 60.5374 27.4192 61.7807 27.3504 62.6202C26.7781 62.6168 27.177 59.7392 27.0733 59.2928L26.7319 56.7623L25.0397 66.3422L24.8629 66.0063L26.0537 57.4375L24.837 58.8667L21.8886 63.2977C22.0655 61.8425 23.2495 60.3399 24.1452 59.1891C24.5418 58.6807 26.3793 56.7972 26.3647 56.3858C25.8171 54.5812 25.2808 52.7777 24.4821 51.0644C22.3956 49.9699 20.1434 48.9656 18.3927 47.3504C18.2124 47.1847 17.2232 46.1409 17.1556 45.9955C17.1331 45.947 17.1275 45.8106 17.2108 45.8287C17.6998 46.2638 18.1279 46.8127 18.618 47.2388C18.8794 47.4653 19.9102 48.3242 20.1423 48.4189C20.3315 48.4971 20.5583 48.5031 20.7191 48.6297C21.4514 49.2046 23.1774 50.0804 24.0607 50.4715C24.152 50.5121 24.2973 50.6676 24.366 50.5042C24.3604 49.9417 24.0844 49.5653 23.9379 49.129C23.5109 47.8531 23.6427 46.905 23.2371 45.6741C22.862 44.538 21.9483 43.1888 21.5968 42.0019C21.5652 41.8948 21.456 41.6288 21.6599 41.6581L23.2371 44.4749C23.0603 43.7468 22.9375 42.9341 22.7324 42.2206C22.2885 40.6741 21.5619 39.3373 20.7631 37.9914C19.8291 36.4179 18.9886 35.0281 17.4621 33.9674C16.83 33.5278 16.1101 33.2235 15.4646 32.8109C15.8904 32.271 16.2848 33.0183 16.3873 33.0612C17.5702 33.5537 18.4231 34.008 19.3683 35.0484C20.5434 36.3424 23.4106 41.178 23.5751 42.8439C23.6427 43.5292 23.5154 44.2225 23.627 44.9337C23.7903 45.9797 23.7565 47.1214 24.0607 48.1324C24.3131 48.9688 24.7539 49.9973 24.9939 50.8348C25.4828 52.538 26.4187 54.4104 26.7319 56.1699C28.3903 56.4246 29.1947 54.5372 30.0521 53.4946C30.2222 53.2872 31.0728 52.5602 31.0863 52.4272C30.6379 51.1602 30.7529 49.7941 30.5478 48.4911C30.0622 45.4037 29.2206 42.109 28.2495 39.1806C28.1019 38.7342 27.9307 38.2766 27.8 37.8269C27.7391 37.6172 27.5825 36.543 27.5149 36.4742C27.4958 36.4551 27.2547 36.5858 27.0294 36.4664C26.403 36.135 24.98 34.1478 24.3593 33.4861C24.2917 33.414 24.2567 33.3058 24.2477 33.2077C24.0292 33.0521 23.6123 33.8051 23.4659 33.9437C23.2924 34.1083 22.2818 34.9717 22.1657 34.9717C22.0497 34.9717 21.9235 34.8556 21.8266 34.7857C19.2782 30.693 16.5315 26.6385 12.701 23.6346L5.45333 30.0505L4.42929 31.9363L6.05388 35.5725C7.23571 33.6236 10.228 31.4955 12.5838 31.7469C12.8159 31.7717 12.9188 31.7861 13.3183 31.8461C13.2958 31.1619 13.5121 29.9592 13.7825 29.3291C13.9031 29.0473 15.4781 26.9135 15.6302 26.8966C15.8251 26.8763 15.7721 27.1322 15.6944 27.2968C15.4702 27.7713 14.8449 28.336 14.5565 28.8647C14.0315 29.8273 13.7296 31.0976 13.7701 32.1932C13.5462 32.1932 13.3956 32.2774 12.8329 32.1932C12.6244 32.1267 12.2886 32.0918 12.0284 32.1121C11.6641 32.139 11.2041 32.2574 10.8515 32.3608ZM26.4548 31.3974L26.3962 31.0593C26.2937 30.9522 24.357 32.8323 24.3841 33.0104L25.0011 33.9437C25.5446 34.671 25.8526 34.887 26.8924 36.0638C27.005 36.1506 27.4417 36.1145 27.6366 36.0638C27.6366 35.1104 27.4436 34.3676 27.2532 33.4861C27.1614 33.0641 27.5194 32.7416 26.4548 31.3974ZM28.8759 39.175V37.2024C28.8759 36.782 29.5406 35.5308 29.4246 35.1926C28.4376 34.6144 28.0276 34.1128 27.6366 33.0307C27.4699 32.8752 27.5138 33.1558 27.5194 33.2595C27.5792 34.1906 28.0309 34.8229 27.8901 35.7089L28.8748 39.175H28.8759ZM32.9385 46.8793C32.9577 46.229 32.9419 46.3291 32.9385 45.8884C32.9272 44.7207 32.1227 41.3954 31.5954 40.2772C31.0276 39.0734 29.891 37.4714 29.4978 37.1449C29.3592 37.2565 29.2916 37.3985 29.2443 37.5676C28.5807 39.9369 29.713 42.499 30.1986 44.7838C30.7191 47.2331 31.1044 49.7535 31.2452 52.2479L32.9881 50.3295L33.3847 49.6783V49.1291C33.3847 48.2311 32.9164 47.665 32.9385 46.8793ZM40.9319 54.3918C41.315 54.4054 41.8508 53.7922 41.9578 53.4946C42.636 51.6009 42.232 51.052 41.7803 49.3116C41.6225 48.7052 41.593 47.5625 41.2178 47.0733C40.9238 46.6923 40.2643 46.1206 39.9229 45.8884C39.372 45.5142 38.7184 45.2697 37.8881 45.0939C37.1445 44.9372 36.594 45.1694 35.9642 45.0939C35.7456 45.068 34.8608 45.336 34.6693 45.3529C34.3966 45.3766 33.4128 45.7499 33.3847 46.0373L33.948 48.9803C37.4946 48.2668 40.2683 51.0982 40.933 54.3896L40.9319 54.3918ZM35.0712 64.9884C34.8098 64.9174 34.8831 65.0504 34.8132 65.1316C34.3828 65.6343 34.4955 65.981 34.5102 66.6618C34.5361 67.8825 34.7445 69.0665 34.9315 70.2557C35.5174 73.9619 35.776 77.8856 35.7152 81.6244C35.696 82.8372 35.6323 83.8218 35.6323 85.1647L35.5374 86.0839C35.5374 86.6618 35.5374 86.9274 35.5374 87.364C35.5374 88.3219 35.3823 90.0061 35.4566 91.0442C35.6132 93.2163 36.5387 93.8995 37.1663 95.8699C37.1663 96.2843 37.4278 96.5037 37.7147 96.2234C37.7147 94.3007 37.6949 93.1896 37.4278 91.3997C37.1572 89.5853 36.8844 88.499 36.7976 86.8624C37.0879 78.3767 36.9808 74.4199 35.9443 67.9409C35.772 66.861 35.5421 64.7145 35.069 64.9873L35.0712 64.9884ZM28.9886 189.654C29.2837 189.588 29.2747 189.709 29.4201 189.841C30.0104 190.375 30.523 190.663 31.0694 191.122C31.7702 191.711 31.626 192.236 32.8518 191.771C33.5221 191.516 33.9502 190.598 33.4939 190.049C33.1086 189.585 31.4863 189.15 30.9128 188.799C30.158 188.335 29.2781 187.47 28.4613 186.968C26.0233 185.469 23.8117 184.558 21.4988 182.662C20.905 182.175 20.2719 181.596 19.8077 180.988C16.8909 182.218 13.4671 184.066 10.2235 183.91C8.93691 183.848 7.66608 183.528 6.45496 183.116C6.36032 184.383 6.1733 185.232 6.85604 186.377C7.89704 188.124 9.85398 188.149 11.6014 188.956C14.2287 190.17 17.0925 192.472 19.944 193.009C20.3271 193.081 20.7 193.002 21.1078 193.084C21.5866 193.181 23.7115 194.647 23.8162 193.317C23.8714 192.61 23.4951 192.763 23.1932 192.464C23.1155 192.387 22.5172 191.511 22.5679 191.456L24.3671 192.755C24.5406 192.934 24.5035 193.237 24.7096 193.427C25.0037 193.695 26.6125 194.024 26.6249 193.435C26.6305 193.155 25.6402 191.837 25.3834 191.57C25.6278 191.548 25.7878 191.551 26.0086 191.676C26.4278 191.913 27.0744 193.071 27.3764 193.239C27.7222 193.431 29.1801 193.713 29.0584 193.031C28.9593 192.473 27.0733 190.694 27.2998 190.442C27.8631 190.654 28.0591 191.038 28.423 191.402C28.5909 191.571 28.9942 191.844 29.0685 191.939C29.2094 192.117 29.2094 192.422 29.3412 192.625C29.8009 193.335 31.3195 193.199 31.4502 192.274C31.5156 191.807 31.0987 191.903 30.941 191.757C30.5557 191.401 30.5501 190.959 29.7817 191.229L28.9897 189.653L28.9886 189.654Z" fill="#6572A4"/>
<path d="M8.62362 168.873L8.39844 167.349C8.60429 164.845 8.45644 162.276 8.50648 159.795C8.64182 152.975 9.62446 146.196 10.9324 139.514L11.1257 139.2C10.7811 142.056 10.1704 144.887 9.778 147.734C9.5221 149.598 9.25028 151.606 9.07969 153.472C8.61453 158.581 8.92273 163.762 8.62248 168.872L8.62362 168.873Z" fill="#6572A4"/>
<path d="M30.8971 26.1075C30.8891 26.1344 30.9232 26.2154 30.9639 26.5487C31.0758 27.465 31.2233 27.9552 31.5105 28.5357C31.522 28.5826 32.0366 29.2956 32.0792 29.319C32.2101 29.3928 32.6409 29.1011 32.6581 29.3727C32.0424 29.7582 31.4853 29.4218 31.2233 28.8151C31.1303 28.5994 30.6317 26.8607 30.5984 26.6283C30.3503 24.9141 31.0384 22.7597 31.7966 21.2143C32.3537 20.0779 33.074 18.6967 34.0378 17.8643L32.7666 19.9812C32.2738 21.1177 31.4601 22.6739 31.1237 23.8689C31.0203 24.4869 30.8971 25.4778 30.8971 26.1075Z" fill="#6572A4"/>
<path d="M44.5068 16.6431C43.1094 14.7226 40.5728 13.5597 38.2276 13.3333C37.9184 14.2065 37.9382 14.9764 37.3556 15.7877C36.726 16.8026 36.3067 16.6542 35.3577 17.0389C35.1595 17.1192 34.2062 17.8332 34.2772 17.6962C34.4256 17.4095 34.5719 17.2053 34.6308 17.1629C35.7562 16.0867 35.6056 16.6031 36.4164 16.2474C36.892 16.0388 37.2359 15.236 37.3944 14.7531C37.536 14.3215 37.6546 12.9376 38.1483 12.8718C38.5073 12.8238 39.9175 13.2666 40.3286 13.4016C41.8619 13.9068 44.0778 14.8822 44.508 16.6431H44.5068Z" fill="#6572A4"/>
<path d="M17.8922 174.873H16.2418C15.8866 174.873 14.8975 175.16 14.5014 175.278C13.8867 175.461 13.2812 175.797 12.6562 175.963C12.8759 175.681 13.3506 175.503 13.683 175.366C14.0848 175.2 15.6715 174.654 16.0141 174.654H17.7215C17.7408 174.654 17.9013 174.802 17.8922 174.873Z" fill="#6572A4"/>
<path d="M6.76463 71.0186C5.23841 69.3227 4.07429 67.1801 3.38281 65.0186L6.76463 71.0186Z" fill="#6572A4"/>
<path d="M5.69193 77.249C5.95977 77.9609 6.80809 78.6106 7.41772 79.075C7.53763 79.1665 7.58021 79.3349 7.67995 79.3993C8.01614 79.6151 8.67396 79.7168 8.94403 80.0727C7.93882 79.9394 5.81184 78.3213 5.47117 77.4163C5.39609 77.2163 5.57202 77.2242 5.69193 77.249Z" fill="#6572A4"/>
</svg>
